<?xml version="1.0" encoding="UTF-8"?>
<!DOCTYPE svg PUBLIC "-//W3C//DTD SVG 1.1//EN" "http://www.w3.org/Graphics/SVG/1.1/DTD/svg11.dtd">
<svg xmlns="http://www.w3.org/2000/svg" version="1.1" width="500px" height="500px" style="shape-rendering:geometricPrecision; text-rendering:geometricPrecision; image-rendering:optimizeQuality; fill-rule:evenodd; clip-rule:evenodd" xmlns:xlink="http://www.w3.org/1999/xlink">
<g><path style="opacity:1" fill="#050406" d="M 275.5,39.5 C 275.244,41.7925 275.577,43.9592 276.5,46C 300.167,46.3333 323.833,46.6667 347.5,47C 348.995,54.0818 348.662,61.0818 346.5,68C 347.167,69 347.833,70 348.5,71C 367.497,71.4999 386.497,71.6666 405.5,71.5C 405.167,144.335 405.501,217.002 406.5,289.5C 401.597,317.636 390.43,342.97 373,365.5C 338.701,406.295 297.534,438.295 249.5,461.5C 205.449,440.282 166.949,411.615 134,375.5C 117.877,356.598 105.877,335.264 98,311.5C 95.2726,303.032 93.7726,294.365 93.5,285.5C 93.3333,214.499 93.5,143.499 94,72.5C 111.931,71.8396 129.764,71.1729 147.5,70.5C 147.833,70.5 148.167,70.5 148.5,70.5C 149.492,62.6841 149.826,54.6841 149.5,46.5C 172.339,46.8308 195.006,46.4975 217.5,45.5C 218.675,45.719 219.675,45.3857 220.5,44.5C 228.192,22.4901 242.859,15.9901 264.5,25C 269.497,28.8286 273.164,33.662 275.5,39.5 Z"/></g>
<g><path style="opacity:1" fill="#efefef" d="M 245.5,28.5 C 266.581,29.7346 274.081,40.4012 268,60.5C 260.997,69.8819 251.831,72.7152 240.5,69C 228.716,61.2802 225.883,51.1135 232,38.5C 235.531,33.795 240.031,30.4617 245.5,28.5 Z"/></g>
<g><path style="opacity:1" fill="#070707" d="M 249.5,32.5 C 252.059,32.3896 254.392,33.0562 256.5,34.5C 255.674,35.451 255.508,36.451 256,37.5C 257.5,39 259,40.5 260.5,42C 261.899,42.5946 263.232,42.4279 264.5,41.5C 265.95,42.8498 266.617,44.5165 266.5,46.5C 266.5,48.1667 266.5,49.8333 266.5,51.5C 265.209,51.2627 264.209,51.596 263.5,52.5C 262.412,54.5161 261.412,56.6828 260.5,59C 261.627,60.0567 262.127,61.2234 262,62.5C 260.414,63.376 258.914,64.376 257.5,65.5C 256.712,64.2299 255.712,63.2299 254.5,62.5C 253.081,61.5489 251.415,61.2155 249.5,61.5C 249.5,59.8333 249.5,58.1667 249.5,56.5C 256.932,53.8775 258.266,49.5442 253.5,43.5C 252.432,42.5655 251.099,42.2322 249.5,42.5C 249.5,39.1667 249.5,35.8333 249.5,32.5 Z"/></g>
<g><path style="opacity:1" fill="#f4f4f4" d="M 253.5,43.5 C 258.266,49.5442 256.932,53.8775 249.5,56.5C 246.985,54.8184 244.985,52.6517 243.5,50C 244.392,44.4045 247.725,42.2379 253.5,43.5 Z"/></g>
<g><path style="opacity:0.573" fill="#18001f" d="M 217.5,45.5 C 195.006,46.4975 172.339,46.8308 149.5,46.5C 149.826,54.6841 149.492,62.6841 148.5,70.5C 148.5,62.1667 148.5,53.8333 148.5,45.5C 171.5,45.5 194.5,45.5 217.5,45.5 Z"/></g>
<g><path style="opacity:1" fill="#292929" d="M 249.5,32.5 C 249.5,35.8333 249.5,39.1667 249.5,42.5C 251.099,42.2322 252.432,42.5655 253.5,43.5C 247.725,42.2379 244.392,44.4045 243.5,50C 244.985,52.6517 246.985,54.8184 249.5,56.5C 249.5,58.1667 249.5,59.8333 249.5,61.5C 251.415,61.2155 253.081,61.5489 254.5,62.5C 251.15,62.335 247.817,62.5017 244.5,63C 241.705,66.2562 239.372,65.7562 237.5,61.5C 238.667,58.8001 238.5,56.1335 237,53.5C 235.89,51.9632 234.39,51.2965 232.5,51.5C 232.089,47.5371 232.922,43.8705 235,40.5C 236.133,42.2112 237.633,42.7112 239.5,42C 241,40.5 242.5,39 244,37.5C 242.85,33.155 244.683,31.4883 249.5,32.5 Z"/></g>
<g><path style="opacity:1" fill="#767676" d="M 266.5,46.5 C 267.461,48.2646 267.795,50.2646 267.5,52.5C 266.167,52.5 264.833,52.5 263.5,52.5C 264.209,51.596 265.209,51.2627 266.5,51.5C 266.5,49.8333 266.5,48.1667 266.5,46.5 Z"/></g>
<g><path style="opacity:1" fill="#ebebeb" d="M 299.5,57.5 C 304.989,57.504 306.822,60.1707 305,65.5C 303.267,67.6015 301.267,67.9348 299,66.5C 298.264,63.408 298.431,60.408 299.5,57.5 Z"/></g>
<g><path style="opacity:1" fill="#e1e1e1" d="M 312.5,57.5 C 317.068,57.0826 318.568,59.0826 317,63.5C 316.5,64 316,64.5 315.5,65C 316.624,65.2492 317.624,65.7492 318.5,66.5C 316.257,67.4742 313.924,67.8076 311.5,67.5C 312.668,65.1873 314.002,62.854 315.5,60.5C 315.167,60.1667 314.833,59.8333 314.5,59.5C 311.789,61.8049 311.122,61.1383 312.5,57.5 Z"/></g>
<g><path style="opacity:1" fill="#cdcdcd" d="M 206.5,58.5 C 208.604,58.2011 210.604,58.5344 212.5,59.5C 211.5,60.1667 210.5,60.8333 209.5,61.5C 210.025,62.1924 210.692,62.6924 211.5,63C 210.692,63.3076 210.025,63.8076 209.5,64.5C 210.5,65.1667 211.5,65.8333 212.5,66.5C 210.604,67.4656 208.604,67.7989 206.5,67.5C 206.5,64.5 206.5,61.5 206.5,58.5 Z"/></g>
<g><path style="opacity:1" fill="#222222" d="M 300.5,59.5 C 303.79,60.6562 304.29,62.6562 302,65.5C 300.681,63.7505 300.181,61.7505 300.5,59.5 Z"/></g>
<g><path style="opacity:1" fill="#adadad" d="M 172.5,58.5 C 173.5,58.5 174.5,58.5 175.5,58.5C 175.5,61.5 175.5,64.5 175.5,67.5C 174.5,67.5 173.5,67.5 172.5,67.5C 172.5,64.5 172.5,61.5 172.5,58.5 Z"/></g>
<g><path style="opacity:1" fill="#d4d4d4" d="M 180.5,58.5 C 181.675,58.281 182.675,58.6143 183.5,59.5C 185.231,64.6131 186.564,64.6131 187.5,59.5C 188.48,62.0865 188.813,64.7531 188.5,67.5C 186.408,67.4386 184.908,66.4386 184,64.5C 183.517,65.448 183.351,66.448 183.5,67.5C 182.5,67.5 181.5,67.5 180.5,67.5C 180.5,64.5 180.5,61.5 180.5,58.5 Z"/></g>
<g><path style="opacity:1" fill="#e2e2e2" d="M 162.5,58.5 C 164.665,58.1159 166.332,58.7826 167.5,60.5C 166.397,60.9976 165.397,61.3309 164.5,61.5C 167.279,62.6735 167.946,64.5068 166.5,67C 164.359,67.8837 162.693,67.3837 161.5,65.5C 166.432,65.9105 166.599,64.9105 162,62.5C 161.421,61.0715 161.588,59.7382 162.5,58.5 Z"/></g>
<g><path style="opacity:1" fill="#e8e8e8" d="M 287.5,57.5 C 293.328,58.297 293.995,60.797 289.5,65C 290.624,65.2492 291.624,65.7492 292.5,66.5C 290.167,67.8333 287.833,67.8333 285.5,66.5C 287.167,64.5 288.833,62.5 290.5,60.5C 289.609,59.4104 288.609,59.4104 287.5,60.5C 286.438,59.5754 286.438,58.5754 287.5,57.5 Z"/></g>
<g><path style="opacity:1" fill="#d9d9d9" d="M 195.5,58.5 C 198.278,58.0217 200.278,59.0217 201.5,61.5C 199.674,61.9202 197.674,61.9202 195.5,61.5C 195.33,62.8221 195.663,63.9887 196.5,65C 198.225,64.5913 199.892,64.7579 201.5,65.5C 195.714,68.8876 193.214,67.2209 194,60.5C 194.717,59.9558 195.217,59.2891 195.5,58.5 Z"/></g>
<g><path style="opacity:1" fill="#e3e3e3" d="M 323.5,57.5 C 325.924,57.1924 328.257,57.5258 330.5,58.5C 329.271,59.2811 327.938,59.7811 326.5,60C 330.439,60.9774 331.439,63.3108 329.5,67C 327.359,67.8837 325.693,67.3837 324.5,65.5C 325.391,64.4104 326.391,64.4104 327.5,65.5C 328.833,64.5 328.833,63.5 327.5,62.5C 326.264,63.2458 324.93,63.5792 323.5,63.5C 323.5,61.5 323.5,59.5 323.5,57.5 Z"/></g>
<g><path style="opacity:1" fill="#12001b" d="M 275.5,39.5 C 276.738,41.2143 277.405,43.2143 277.5,45.5C 301.833,45.5 326.167,45.5 350.5,45.5C 350.5,53.8333 350.5,62.1667 350.5,70.5C 369.167,70.5 387.833,70.5 406.5,70.5C 406.5,143.5 406.5,216.5 406.5,289.5C 405.501,217.002 405.167,144.335 405.5,71.5C 386.497,71.6666 367.497,71.4999 348.5,71C 347.833,70 347.167,69 346.5,68C 348.662,61.0818 348.995,54.0818 347.5,47C 323.833,46.6667 300.167,46.3333 276.5,46C 275.577,43.9592 275.244,41.7925 275.5,39.5 Z"/></g>
<g><path style="opacity:1" fill="#fafaf9" d="M 315.5,405.5 C 314.448,405.649 313.448,405.483 312.5,405C 313.738,404.31 313.738,403.81 312.5,403.5C 331.841,387.992 349.008,370.325 364,350.5C 378.77,329.863 387.437,306.863 390,281.5C 390.5,227.168 390.667,172.834 390.5,118.5C 296.5,118.5 202.5,118.5 108.5,118.5C 108.333,174.834 108.5,231.168 109,287.5C 110.968,299.848 114.134,311.848 118.5,323.5C 118.5,324.5 118.5,325.5 118.5,326.5C 117.5,326.5 116.5,326.5 115.5,326.5C 110.164,313.988 106.331,300.988 104,287.5C 103.5,219.834 103.333,152.167 103.5,84.5C 200.833,84.5 298.167,84.5 395.5,84.5C 395.667,151.167 395.5,217.834 395,284.5C 391.633,308.94 382.967,331.273 369,351.5C 353.665,372.002 335.832,390.002 315.5,405.5 Z"/></g>
<g><path style="opacity:1" fill="#060505" d="M 197.5,88.5 C 232.167,88.5 266.833,88.5 301.5,88.5C 301.5,96.5 301.5,104.5 301.5,112.5C 266.833,112.5 232.167,112.5 197.5,112.5C 197.5,104.833 197.5,97.1667 197.5,89.5C 197.5,89.1667 197.5,88.8333 197.5,88.5 Z"/></g>
<g><path style="opacity:1" fill="#fffce9" d="M 301.5,112.5 C 331.167,112.5 360.833,112.5 390.5,112.5C 390.5,104.5 390.5,96.5 390.5,88.5C 360.833,88.5 331.167,88.5 301.5,88.5C 301.369,87.6236 301.702,86.9569 302.5,86.5C 332.125,87.3255 361.791,87.8255 391.5,88C 392.293,89.0852 392.96,90.2519 393.5,91.5C 392.87,94.9469 392.537,98.4469 392.5,102C 392.584,105.693 393.25,109.193 394.5,112.5C 393.624,113.251 392.624,113.751 391.5,114C 360.779,114.356 330.113,114.69 299.5,115C 300.381,114.292 301.047,113.458 301.5,112.5 Z"/></g>
<g><path style="opacity:1" fill="#b7a069" d="M 110.5,89.5 C 109.536,96.7463 109.203,104.08 109.5,111.5C 138.5,111.5 167.5,111.5 196.5,111.5C 196.5,104.167 196.5,96.8333 196.5,89.5C 196.833,89.5 197.167,89.5 197.5,89.5C 197.5,97.1667 197.5,104.833 197.5,112.5C 167.833,112.5 138.167,112.5 108.5,112.5C 107.868,104.427 108.535,96.7605 110.5,89.5 Z"/></g>
<g><path style="opacity:1" fill="#c7a550" d="M 110.5,89.5 C 139.167,89.5 167.833,89.5 196.5,89.5C 196.5,96.8333 196.5,104.167 196.5,111.5C 167.5,111.5 138.5,111.5 109.5,111.5C 109.203,104.08 109.536,96.7463 110.5,89.5 Z"/></g>
<g><path style="opacity:1" fill="#c2ac7a" d="M 301.5,88.5 C 331.167,88.5 360.833,88.5 390.5,88.5C 390.5,96.5 390.5,104.5 390.5,112.5C 360.833,112.5 331.167,112.5 301.5,112.5C 301.5,104.5 301.5,96.5 301.5,88.5 Z"/></g>
<g><path style="opacity:1" fill="#c7a54f" d="M 302.5,89.5 C 331.5,89.5 360.5,89.5 389.5,89.5C 389.5,96.8333 389.5,104.167 389.5,111.5C 360.5,111.5 331.5,111.5 302.5,111.5C 302.5,104.167 302.5,96.8333 302.5,89.5 Z"/></g>
<g><path style="opacity:1" fill="#f4ebc8" d="M 197.5,88.5 C 197.5,88.8333 197.5,89.1667 197.5,89.5C 197.167,89.5 196.833,89.5 196.5,89.5C 167.833,89.5 139.167,89.5 110.5,89.5C 108.535,96.7605 107.868,104.427 108.5,112.5C 138.167,112.5 167.833,112.5 197.5,112.5C 167.671,113.498 137.671,113.831 107.5,113.5C 107.5,105.167 107.5,96.8333 107.5,88.5C 137.5,88.5 167.5,88.5 197.5,88.5 Z"/></g>
<g><path style="opacity:1" fill="#030201" d="M 312.5,403.5 C 293.036,418.076 272.369,430.909 250.5,442C 249.5,442.667 248.5,442.667 247.5,442C 206.368,421.841 170.868,394.341 141,359.5C 132.224,348.277 124.724,336.277 118.5,323.5C 114.134,311.848 110.968,299.848 109,287.5C 108.5,231.168 108.333,174.834 108.5,118.5C 202.5,118.5 296.5,118.5 390.5,118.5C 390.667,172.834 390.5,227.168 390,281.5C 387.437,306.863 378.77,329.863 364,350.5C 349.008,370.325 331.841,387.992 312.5,403.5 Z"/></g>
<g><path style="opacity:0.618" fill="#190023" d="M 147.5,70.5 C 129.764,71.1729 111.931,71.8396 94,72.5C 93.5,143.499 93.3333,214.499 93.5,285.5C 92.5008,214.002 92.1674,142.335 92.5,70.5C 110.833,70.5 129.167,70.5 147.5,70.5 Z"/></g>
<g><path style="opacity:1" fill="#b79f54" d="M 171.5,182.5 C 165.923,181.433 161.923,178.266 159.5,173C 158.338,172.173 157.171,171.34 156,170.5C 155.5,170.667 155,170.833 154.5,171C 152.626,176.828 153.793,181.995 158,186.5C 158.49,187.793 158.657,189.127 158.5,190.5C 149.882,183.809 148.549,175.975 154.5,167C 155.5,166.333 156.5,166.333 157.5,167C 160.639,173.635 165.306,178.802 171.5,182.5 Z"/></g>
<g><path style="opacity:1" fill="#b29b5b" d="M 328.5,194.5 C 329.763,192.57 331.43,190.903 333.5,189.5C 334.298,187.922 334.798,186.256 335,184.5C 337.234,185.705 338.901,185.039 340,182.5C 340.767,178.442 340.6,174.442 339.5,170.5C 338.833,170.167 338.167,169.833 337.5,169.5C 335.823,170.187 334.156,170.854 332.5,171.5C 335.513,164.877 338.679,164.877 342,171.5C 343.194,182.438 338.694,190.104 328.5,194.5 Z"/></g>
<g><path style="opacity:1" fill="#c4a450" d="M 230.5,157.5 C 237.149,154.618 244.149,153.785 251.5,155C 255.45,156.206 259.45,157.206 263.5,158C 262.272,158.779 261.272,159.779 260.5,161C 260.57,161.765 260.903,162.265 261.5,162.5C 265.031,168.389 268.697,174.223 272.5,180C 270.798,181.718 268.965,181.885 267,180.5C 267.205,186.785 267.538,193.118 268,199.5C 268.735,201.871 269.568,204.205 270.5,206.5C 268.108,207.208 265.941,206.542 264,204.5C 263.399,206.137 262.899,207.803 262.5,209.5C 264.361,211.811 266.361,214.144 268.5,216.5C 275.929,211.673 283.929,210.34 292.5,212.5C 293.135,209.039 294.135,205.705 295.5,202.5C 288.668,198.17 286.501,192.17 289,184.5C 296.977,176.191 305.31,168.191 314,160.5C 315.746,157.166 316.913,153.666 317.5,150C 327.039,149.526 330.539,154.026 328,163.5C 323.951,172.085 318.118,179.252 310.5,185C 311.416,185.374 312.25,185.874 313,186.5C 319.995,181.988 326.495,176.988 332.5,171.5C 334.156,170.854 335.823,170.187 337.5,169.5C 338.167,169.833 338.833,170.167 339.5,170.5C 340.6,174.442 340.767,178.442 340,182.5C 338.901,185.039 337.234,185.705 335,184.5C 334.798,186.256 334.298,187.922 333.5,189.5C 331.43,190.903 329.763,192.57 328.5,194.5C 325.739,196.212 322.739,197.378 319.5,198C 317.128,199.471 317.128,200.637 319.5,201.5C 329.107,200.801 337.607,197.468 345,191.5C 351.223,198.334 350.723,204.834 343.5,211C 335.672,213.286 327.672,214.786 319.5,215.5C 325.278,217.723 331.278,219.056 337.5,219.5C 340.625,220.479 343.958,220.813 347.5,220.5C 347.658,223.902 347.324,227.236 346.5,230.5C 346.047,231.458 345.381,232.292 344.5,233C 341.567,233.893 338.567,234.393 335.5,234.5C 327.788,233.116 320.454,230.95 313.5,228C 321.345,233.423 329.011,239.089 336.5,245C 339.536,247.006 342.869,247.84 346.5,247.5C 345.108,260.036 338.775,263.203 327.5,257C 322.054,251.554 316.554,246.054 311,240.5C 316.884,254.075 324.717,266.575 334.5,278C 340.789,280.226 341.123,283.226 335.5,287C 327.114,289.242 320.281,286.742 315,279.5C 308.476,268.452 302.476,257.118 297,245.5C 299.904,256.666 302.57,267.999 305,279.5C 306.771,284.869 308.937,290.036 311.5,295C 310.725,297.768 308.892,298.934 306,298.5C 298.569,297.075 293.569,292.741 291,285.5C 286.732,271.847 284.232,257.847 283.5,243.5C 283.44,242.957 283.107,242.624 282.5,242.5C 282.112,252.668 281.112,262.668 279.5,272.5C 280.325,273.386 281.325,273.719 282.5,273.5C 282.5,274.5 282.5,275.5 282.5,276.5C 279.86,275.552 277.193,274.552 274.5,273.5C 271.31,269.423 269.643,264.756 269.5,259.5C 269.666,254.489 269.499,249.489 269,244.5C 267.961,245.244 267.461,246.244 267.5,247.5C 266.929,252.256 265.929,256.923 264.5,261.5C 269.604,274.217 276.604,285.717 285.5,296C 283.745,296.72 282.911,297.887 283,299.5C 286.002,303.334 289.169,307 292.5,310.5C 292.5,311.833 292.5,313.167 292.5,314.5C 288.968,314.69 285.635,314.023 282.5,312.5C 279.683,309.574 276.849,306.574 274,303.5C 273.333,304.833 272.667,306.167 272,307.5C 267.719,300.885 263.053,294.552 258,288.5C 253.6,300.238 252.6,312.238 255,324.5C 257.128,327.458 259.794,328.124 263,326.5C 262.807,319.147 265.474,318.48 271,324.5C 277.833,332.339 276.667,338.839 267.5,344C 272.833,344.333 278.167,344.667 283.5,345C 295.711,348.329 299.711,355.829 295.5,367.5C 294.243,361.912 290.91,358.245 285.5,356.5C 283.334,361.501 279.501,363.501 274,362.5C 266.778,362.617 260.778,359.951 256,354.5C 256.032,356.598 256.699,358.598 258,360.5C 260.077,362.076 261.577,364.076 262.5,366.5C 259.484,369.045 256.317,369.045 253,366.5C 252.625,373.578 250.292,379.912 246,385.5C 241.405,380.391 238.738,374.391 238,367.5C 234.141,370.358 230.641,370.024 227.5,366.5C 231.399,362.659 234.232,358.326 236,353.5C 228.242,360.723 219.076,363.556 208.5,362C 206.393,360.736 205.393,358.903 205.5,356.5C 203.029,355.078 200.696,354.078 198.5,353.5C 201.3,349.1 205.3,346.767 210.5,346.5C 210.5,347.5 210.5,348.5 210.5,349.5C 211.5,349.5 212.5,349.5 213.5,349.5C 213.5,348.5 213.5,347.5 213.5,346.5C 218.015,346.654 222.348,346.654 226.5,346.5C 227.833,344.5 227.833,342.5 226.5,340.5C 224.899,339.835 223.399,339.501 222,339.5C 221.505,337.527 221.338,335.527 221.5,333.5C 223.288,333.785 224.955,333.452 226.5,332.5C 225.975,331.808 225.308,331.308 224.5,331C 225.646,330.355 226.646,329.522 227.5,328.5C 229.935,330.052 231.935,329.719 233.5,327.5C 236.518,326.647 238.351,324.647 239,321.5C 240.027,309.65 239.027,297.983 236,286.5C 229.823,292.851 225.156,300.184 222,308.5C 220.615,307.449 219.615,306.116 219,304.5C 212.51,309.99 206.343,315.823 200.5,322C 203.683,324.437 207.183,326.27 211,327.5C 212.31,332.452 211.31,336.785 208,340.5C 207.505,338.527 207.338,336.527 207.5,334.5C 204.11,334.885 201.777,333.552 200.5,330.5C 197.202,325.516 193.202,324.349 188.5,327C 189.902,328.342 189.569,329.176 187.5,329.5C 185.722,328.055 183.722,327.055 181.5,326.5C 178.3,326.661 175.633,327.661 173.5,329.5C 171.736,332.965 169.403,333.299 166.5,330.5C 160.742,335.887 159.242,334.554 162,326.5C 164.5,324.667 166.667,322.5 168.5,320C 171.703,320.609 175.036,321.109 178.5,321.5C 183.684,321.626 184.35,320.459 180.5,318C 178.5,317.667 176.5,317.333 174.5,317C 171.922,312.94 168.756,312.44 165,315.5C 165.154,311.715 166.987,308.882 170.5,307C 173.768,305.787 177.101,305.454 180.5,306C 182.257,308.846 184.257,311.512 186.5,314C 188.402,315.301 190.402,315.968 192.5,316C 198.635,310.866 204.469,305.366 210,299.5C 209.012,297.08 209.345,294.747 211,292.5C 215.002,287.821 218.502,282.821 221.5,277.5C 223.352,276.911 225.185,276.244 227,275.5C 227.333,273.167 227.667,270.833 228,268.5C 230.329,267.229 231.495,265.229 231.5,262.5C 230.343,257.538 229.343,252.538 228.5,247.5C 228.924,245.13 229.091,242.796 229,240.5C 227.43,240.33 225.597,239.997 223.5,239.5C 222.917,248.487 222.25,257.487 221.5,266.5C 219.889,267.32 219.222,268.654 219.5,270.5C 218.167,270.5 216.833,270.5 215.5,270.5C 215.5,271.5 215.5,272.5 215.5,273.5C 214.325,273.719 213.325,273.386 212.5,272.5C 214.142,263.931 214.808,255.264 214.5,246.5C 215.5,246.5 216.5,246.5 217.5,246.5C 217.053,240.824 216.219,240.491 215,245.5C 213.983,243.624 213.149,241.624 212.5,239.5C 211.081,240.005 210.415,241.005 210.5,242.5C 209.83,256.185 207.33,269.519 203,282.5C 202.208,285.106 200.708,287.106 198.5,288.5C 196.821,288.892 195.154,289.392 193.5,290C 193.957,290.414 194.291,290.914 194.5,291.5C 193.271,292.281 191.938,292.781 190.5,293C 191.167,293.333 191.833,293.667 192.5,294C 189.376,295.087 187.043,294.253 185.5,291.5C 187.128,287.74 189.128,284.24 191.5,281C 191.089,279.856 190.756,278.689 190.5,277.5C 194.375,269.33 196.375,260.663 196.5,251.5C 197.008,249.135 197.675,246.801 198.5,244.5C 198.154,243.304 197.654,243.304 197,244.5C 191.008,257.159 184.008,269.159 176,280.5C 170.563,287.313 163.73,289.48 155.5,287C 153.552,285.561 152.219,283.728 151.5,281.5C 156.765,276.737 161.932,271.737 167,266.5C 173.507,256.716 179.84,247.049 186,237.5C 178.922,246.259 170.422,253.093 160.5,258C 151.781,259.116 147.115,255.282 146.5,246.5C 150.813,246.452 154.813,245.285 158.5,243C 164.5,238.667 170.5,234.333 176.5,230C 175.167,229.333 173.833,229.333 172.5,230C 165.706,234.166 158.373,235.499 150.5,234C 145.15,230.636 143.483,225.969 145.5,220C 154.96,219.878 164.294,218.378 173.5,215.5C 166.8,214.832 160.133,213.999 153.5,213C 146.78,209.95 143.946,204.784 145,197.5C 145.118,195.427 146.118,194.093 148,193.5C 156.132,198.559 164.966,200.892 174.5,200.5C 168.835,197.669 163.502,194.336 158.5,190.5C 158.657,189.127 158.49,187.793 158,186.5C 153.793,181.995 152.626,176.828 154.5,171C 155,170.833 155.5,170.667 156,170.5C 157.171,171.34 158.338,172.173 159.5,173C 161.923,178.266 165.923,181.433 171.5,182.5C 174.78,184.14 178.114,185.807 181.5,187.5C 182.308,187.192 182.975,186.692 183.5,186C 175.228,181.061 169.061,174.228 165,165.5C 164.146,161.375 164.48,157.375 166,153.5C 172.877,147.057 176.544,148.391 177,157.5C 181.572,166.371 188.405,172.871 197.5,177C 208.449,186.047 208.115,194.547 196.5,202.5C 198.741,205.793 200.074,209.46 200.5,213.5C 202.956,212.052 205.622,211.386 208.5,211.5C 214.6,212.929 220.6,214.429 226.5,216C 228.705,212.793 231.705,210.793 235.5,210C 236.79,207.708 238.457,205.708 240.5,204C 238.956,203.71 237.623,203.044 236.5,202C 240.973,200.226 242.806,197.06 242,192.5C 241.097,191.299 239.931,190.465 238.5,190C 229.519,189.665 229.186,187.998 237.5,185C 230.572,186.052 223.572,186.386 216.5,186C 212.712,183.269 211.046,179.769 211.5,175.5C 214.116,177.803 217.116,179.136 220.5,179.5C 226.82,178.845 233.153,178.345 239.5,178C 236.56,174.696 232.893,172.696 228.5,172C 225.166,170.788 222.666,171.621 221,174.5C 219.43,171.367 219.097,168.033 220,164.5C 223.1,161.528 226.6,159.195 230.5,157.5 Z"/></g>
<g><path style="opacity:1" fill="#ab9357" d="M 261.5,162.5 C 260.903,162.265 260.57,161.765 260.5,161C 261.272,159.779 262.272,158.779 263.5,158C 259.45,157.206 255.45,156.206 251.5,155C 244.149,153.785 237.149,154.618 230.5,157.5C 231.673,155.496 233.34,153.996 235.5,153C 240.167,152.333 244.833,152.333 249.5,153C 253.249,154.251 257.083,155.084 261,155.5C 263.352,155.695 265.352,155.028 267,153.5C 267.667,154.833 267.667,156.167 267,157.5C 265.188,159.3 263.355,160.967 261.5,162.5 Z"/></g>
<g><path style="opacity:1" fill="#a39259" d="M 346.5,230.5 C 347.324,227.236 347.658,223.902 347.5,220.5C 343.958,220.813 340.625,220.479 337.5,219.5C 341.151,219.254 344.651,219.254 348,219.5C 350.303,223.668 349.803,227.335 346.5,230.5 Z"/></g>
<g><path style="opacity:1" fill="#bc9e57" d="M 221.5,277.5 C 223.471,272.895 225.971,268.562 229,264.5C 229.298,258.686 228.465,253.019 226.5,247.5C 226.108,245.821 225.608,244.154 225,242.5C 224.5,248.825 224.334,255.158 224.5,261.5C 223.634,270.035 218.968,274.369 210.5,274.5C 211.14,264.505 211.807,254.505 212.5,244.5C 212.253,243.287 211.586,242.62 210.5,242.5C 210.415,241.005 211.081,240.005 212.5,239.5C 213.149,241.624 213.983,243.624 215,245.5C 216.219,240.491 217.053,240.824 217.5,246.5C 216.5,246.5 215.5,246.5 214.5,246.5C 214.808,255.264 214.142,263.931 212.5,272.5C 213.325,273.386 214.325,273.719 215.5,273.5C 215.5,272.5 215.5,271.5 215.5,270.5C 216.833,270.5 218.167,270.5 219.5,270.5C 219.222,268.654 219.889,267.32 221.5,266.5C 222.25,257.487 222.917,248.487 223.5,239.5C 225.597,239.997 227.43,240.33 229,240.5C 229.091,242.796 228.924,245.13 228.5,247.5C 229.343,252.538 230.343,257.538 231.5,262.5C 231.495,265.229 230.329,267.229 228,268.5C 227.667,270.833 227.333,273.167 227,275.5C 225.185,276.244 223.352,276.911 221.5,277.5 Z"/></g>
<g><path style="opacity:1" fill="#705e30" d="M 269.5,259.5 C 268.833,255.5 268.167,251.5 267.5,247.5C 267.461,246.244 267.961,245.244 269,244.5C 269.499,249.489 269.666,254.489 269.5,259.5 Z"/></g>
<g><path style="opacity:1" fill="#5c4518" d="M 226.5,247.5 C 225.833,252.167 225.167,256.833 224.5,261.5C 224.334,255.158 224.5,248.825 225,242.5C 225.608,244.154 226.108,245.821 226.5,247.5 Z"/></g>
<g><path style="opacity:1" fill="#af955a" d="M 283.5,243.5 C 282.059,255.076 282.392,266.743 284.5,278.5C 280.316,278.408 276.983,276.741 274.5,273.5C 277.193,274.552 279.86,275.552 282.5,276.5C 282.5,275.5 282.5,274.5 282.5,273.5C 281.325,273.719 280.325,273.386 279.5,272.5C 281.112,262.668 282.112,252.668 282.5,242.5C 283.107,242.624 283.44,242.957 283.5,243.5 Z"/></g>
<g><path style="opacity:1" fill="#b59c53" d="M 196.5,251.5 C 196.375,260.663 194.375,269.33 190.5,277.5C 190.756,278.689 191.089,279.856 191.5,281C 189.128,284.24 187.128,287.74 185.5,291.5C 187.043,294.253 189.376,295.087 192.5,294C 191.833,293.667 191.167,293.333 190.5,293C 191.938,292.781 193.271,292.281 194.5,291.5C 194.291,290.914 193.957,290.414 193.5,290C 195.154,289.392 196.821,288.892 198.5,288.5C 195.308,295.264 189.975,298.097 182.5,297C 180.82,296.653 179.82,295.653 179.5,294C 182.957,289.594 185.79,284.761 188,279.5C 190.571,269.964 193.404,260.63 196.5,251.5 Z"/></g>
<g><path style="opacity:1" fill="#c0a253" d="M 285.5,334.5 C 284.833,336.5 284.167,338.5 283.5,340.5C 279.6,335.552 279.6,330.718 283.5,326C 285.952,325.71 288.285,325.044 290.5,324C 291.022,323.439 291.355,322.772 291.5,322C 288.364,319.029 285.364,315.862 282.5,312.5C 285.635,314.023 288.968,314.69 292.5,314.5C 292.5,313.167 292.5,311.833 292.5,310.5C 294.91,313.073 297.743,315.073 301,316.5C 302.5,316 304,315.5 305.5,315C 308.118,311.244 311.285,308.077 315,305.5C 319.813,305.452 323.813,307.119 327,310.5C 327.667,311.833 327.667,313.167 327,314.5C 325.556,312.845 323.722,312.178 321.5,312.5C 321.703,314.39 321.037,315.89 319.5,317C 315.953,316.914 312.953,318.08 310.5,320.5C 312,320.833 313.5,321.167 315,321.5C 318.857,320.759 322.69,320.259 326.5,320C 330.143,323.293 332.476,327.293 333.5,332C 333.333,333.167 333.167,334.333 333,335.5C 330.677,330.212 327.177,329.212 322.5,332.5C 320.792,332.297 319.459,331.464 318.5,330C 315.776,329.73 313.109,329.23 310.5,328.5C 310.167,328.833 309.833,329.167 309.5,329.5C 312.461,331.588 315.628,333.255 319,334.5C 321.748,341.204 320.748,347.204 316,352.5C 315.667,350.167 315.333,347.833 315,345.5C 310.493,345.249 307.826,342.916 307,338.5C 303.243,335.414 300.243,331.748 298,327.5C 294.93,329.447 292.43,331.947 290.5,335C 288.735,335.64 287.068,335.473 285.5,334.5 Z"/></g>
<g><path style="opacity:1" fill="#b19753" d="M 200.5,330.5 C 198.243,330.038 196.243,329.038 194.5,327.5C 191.839,330.827 188.839,333.827 185.5,336.5C 185.785,334.712 185.452,333.045 184.5,331.5C 174.321,331.683 170.655,336.683 173.5,346.5C 174.182,345.757 174.849,345.091 175.5,344.5C 176.384,350.193 175.218,351.193 172,347.5C 169.365,341.478 170.532,336.311 175.5,332C 178.308,331.981 180.641,330.981 182.5,329C 179.408,328.264 176.408,328.431 173.5,329.5C 175.633,327.661 178.3,326.661 181.5,326.5C 183.722,327.055 185.722,328.055 187.5,329.5C 189.569,329.176 189.902,328.342 188.5,327C 193.202,324.349 197.202,325.516 200.5,330.5 Z"/></g>
<g><path style="opacity:1" fill="#c4a352" d="M 185.5,336.5 C 183.394,338.272 181.727,340.438 180.5,343C 179.216,343.684 178.049,343.517 177,342.5C 176.283,343.044 175.783,343.711 175.5,344.5C 174.849,345.091 174.182,345.757 173.5,346.5C 170.655,336.683 174.321,331.683 184.5,331.5C 185.452,333.045 185.785,334.712 185.5,336.5 Z"/></g>
<g><path style="opacity:1" fill="#4d441d" d="M 285.5,334.5 C 285.808,336.924 285.474,339.257 284.5,341.5C 283.893,341.376 283.56,341.043 283.5,340.5C 284.167,338.5 284.833,336.5 285.5,334.5 Z"/></g>
<g><path style="opacity:1" fill="#bc9f57" d="M 233.5,327.5 C 231.935,329.719 229.935,330.052 227.5,328.5C 226.646,329.522 225.646,330.355 224.5,331C 225.308,331.308 225.975,331.808 226.5,332.5C 224.955,333.452 223.288,333.785 221.5,333.5C 221.338,335.527 221.505,337.527 222,339.5C 223.399,339.501 224.899,339.835 226.5,340.5C 227.833,342.5 227.833,344.5 226.5,346.5C 222.348,346.654 218.015,346.654 213.5,346.5C 213.5,347.5 213.5,348.5 213.5,349.5C 212.5,349.5 211.5,349.5 210.5,349.5C 210.5,348.5 210.5,347.5 210.5,346.5C 205.3,346.767 201.3,349.1 198.5,353.5C 200.696,354.078 203.029,355.078 205.5,356.5C 200.235,358.683 197.735,362.683 198,368.5C 192.543,360.647 193.71,353.813 201.5,348C 203.5,347 205.5,346 207.5,345C 213.833,344.667 220.167,344.333 226.5,344C 221.896,342.134 218.896,338.801 217.5,334C 219.871,331.344 221.037,328.178 221,324.5C 222.739,322.259 224.906,320.592 227.5,319.5C 227.755,321.343 227.922,323.343 228,325.5C 229.444,327.155 231.278,327.822 233.5,327.5 Z"/></g>
<g><path style="opacity:1" fill="#eeeeee" d="M 118.5,323.5 C 124.724,336.277 132.224,348.277 141,359.5C 170.868,394.341 206.368,421.841 247.5,442C 248.5,442.667 249.5,442.667 250.5,442C 272.369,430.909 293.036,418.076 312.5,403.5C 313.738,403.81 313.738,404.31 312.5,405C 313.448,405.483 314.448,405.649 315.5,405.5C 295.257,421.972 273.257,435.972 249.5,447.5C 205.852,426.92 168.352,398.254 137,361.5C 128.819,350.474 121.652,338.807 115.5,326.5C 116.5,326.5 117.5,326.5 118.5,326.5C 118.5,325.5 118.5,324.5 118.5,323.5 Z"/></g>
</svg>
