<?xml version="1.0" encoding="UTF-8"?>
<!DOCTYPE svg PUBLIC "-//W3C//DTD SVG 1.1//EN" "http://www.w3.org/Graphics/SVG/1.1/DTD/svg11.dtd">
<svg xmlns="http://www.w3.org/2000/svg" version="1.1" width="500px" height="500px" style="shape-rendering:geometricPrecision; text-rendering:geometricPrecision; image-rendering:optimizeQuality; fill-rule:evenodd; clip-rule:evenodd" xmlns:xlink="http://www.w3.org/1999/xlink">
<g><path style="opacity:1" fill="#100f0e" d="M 246.5,-0.5 C 248.833,-0.5 251.167,-0.5 253.5,-0.5C 295.889,23.2451 340.889,40.4118 388.5,51C 411.515,54.907 434.515,58.907 457.5,63C 458.416,63.3742 459.25,63.8742 460,64.5C 459.808,99.8651 458.475,135.198 456,170.5C 447.535,296.957 393.369,398.457 293.5,475C 279.897,483.964 265.897,492.131 251.5,499.5C 249.833,499.5 248.167,499.5 246.5,499.5C 232.769,492.463 219.435,484.63 206.5,476C 106.106,399.414 51.6063,297.581 43,170.5C 40.6013,135.196 39.268,99.8624 39,64.5C 39.5,64 40,63.5 40.5,63C 76.3179,58.3642 111.651,51.3642 146.5,42C 181.202,30.829 214.535,16.6624 246.5,-0.5 Z"/></g>
<g><path style="opacity:1" fill="#f6d42b" d="M 428.5,159.5 C 428.106,171.886 428.606,184.22 430,196.5C 434.875,193.783 436.709,189.616 435.5,184C 435.223,180.418 434.556,176.918 433.5,173.5C 433.833,172.5 434.167,171.5 434.5,170.5C 435.728,177.654 437.061,184.654 438.5,191.5C 438.662,193.527 438.495,195.527 438,197.5C 437.165,201.065 435.665,204.232 433.5,207C 434.804,207.804 435.471,208.971 435.5,210.5C 434.771,215.47 434.271,220.47 434,225.5C 433.53,227.774 432.53,229.774 431,231.5C 430.609,236.854 430.109,242.188 429.5,247.5C 429.042,251.538 428.376,255.538 427.5,259.5C 423.49,272.852 419.156,286.185 414.5,299.5C 387.72,364.464 346.053,417.964 289.5,460C 277.622,467.773 265.289,474.773 252.5,481C 250.5,481.667 248.5,481.667 246.5,481C 235.01,475.425 224.01,469.091 213.5,462C 131.732,401.691 82.065,321.191 64.5,220.5C 65.83,223.094 67.1634,225.761 68.5,228.5C 69.5901,230.003 70.7567,230.336 72,229.5C 73.0437,230.623 73.7104,231.956 74,233.5C 74.3333,232.833 74.6667,232.167 75,231.5C 73.9015,235.449 74.5681,239.115 77,242.5C 76.9248,236.421 76.7581,230.088 76.5,223.5C 79.4775,236.413 82.6442,249.413 86,262.5C 87.898,268.702 90.0647,274.702 92.5,280.5C 95.3362,292.016 99.3362,303.016 104.5,313.5C 122.614,353.792 147.614,389.292 179.5,420C 191.833,430.333 204.167,440.667 216.5,451C 226.002,456.919 235.669,462.586 245.5,468C 247.5,468.667 249.5,468.667 251.5,468C 265.291,461.607 278.291,453.94 290.5,445C 354.032,395.598 395.699,331.765 415.5,253.5C 416.809,248.926 417.809,244.26 418.5,239.5C 421.013,230.433 422.846,221.1 424,211.5C 425.745,194.034 427.245,176.701 428.5,159.5 Z"/></g>
<g><path style="opacity:1" fill="#100f0e" d="M 399.5,193.5 C 402.055,197.669 403.555,202.335 404,207.5C 404.878,213.302 404.378,218.969 402.5,224.5C 403.137,226.303 404.303,227.636 406,228.5C 408.317,225.88 409.984,222.88 411,219.5C 411.745,221.203 412.579,222.87 413.5,224.5C 413.03,227.55 412.197,227.883 411,225.5C 407.511,229.101 406.844,233.101 409,237.5C 410.333,235.5 411.667,233.5 413,231.5C 413.939,236.725 411.772,239.392 406.5,239.5C 406.164,244.154 406.831,248.654 408.5,253C 408.3,256.285 406.8,257.118 404,255.5C 403.333,259.5 403.333,263.5 404,267.5C 405.244,264.362 405.911,261.028 406,257.5C 408.259,259.246 409.592,261.58 410,264.5C 411.771,260.744 413.604,257.077 415.5,253.5C 395.699,331.765 354.032,395.598 290.5,445C 278.291,453.94 265.291,461.607 251.5,468C 249.5,468.667 247.5,468.667 245.5,468C 235.669,462.586 226.002,456.919 216.5,451C 204.167,440.667 191.833,430.333 179.5,420C 147.614,389.292 122.614,353.792 104.5,313.5C 104.493,310.962 104.159,308.462 103.5,306C 103.844,304.635 104.511,303.468 105.5,302.5C 104.066,300.78 103.233,298.78 103,296.5C 99.1407,296.238 97.474,293.905 98,289.5C 99,290.5 100,291.5 101,292.5C 101.186,290.1 101.686,287.766 102.5,285.5C 105.786,289.194 107.12,293.36 106.5,298C 107.697,299.52 109.197,300.687 111,301.5C 111.49,302.793 111.657,304.127 111.5,305.5C 114.553,305.572 117.219,306.572 119.5,308.5C 120.833,309.5 122.167,310.5 123.5,311.5C 123.738,314.148 125.072,315.982 127.5,317C 126.692,317.308 126.025,317.808 125.5,318.5C 126.946,320.618 127.613,322.951 127.5,325.5C 129.216,325.629 130.883,325.962 132.5,326.5C 135.167,328.833 137.833,331.167 140.5,333.5C 141.254,336.091 142.921,337.924 145.5,339C 144.027,339.71 143.36,340.876 143.5,342.5C 147.831,341.451 149.997,343.118 150,347.5C 150.667,346.833 151.333,346.167 152,345.5C 152.918,347.376 154.418,348.376 156.5,348.5C 161.371,353.105 167.038,356.439 173.5,358.5C 182.194,362.286 190.86,362.286 199.5,358.5C 204.043,357.231 208.376,355.397 212.5,353C 218.5,349 224.5,345 230.5,341C 233.188,340.608 235.855,340.108 238.5,339.5C 239.167,339.833 239.833,340.167 240.5,340.5C 229.202,347.066 218.702,354.733 209,363.5C 209.448,366.301 211.115,368.301 214,369.5C 220.488,363.68 226.988,357.846 233.5,352C 237.937,348.117 242.937,345.283 248.5,343.5C 251.248,344.039 253.915,344.872 256.5,346C 265.918,352.726 274.585,360.393 282.5,369C 285.28,369.269 287.446,368.102 289,365.5C 289.667,364.5 289.667,363.5 289,362.5C 279.467,353.804 268.967,346.47 257.5,340.5C 266.121,339.631 273.455,342.464 279.5,349C 283.744,351.428 288.078,353.594 292.5,355.5C 298.126,358.751 304.293,360.084 311,359.5C 314.167,359.333 317.333,359.167 320.5,359C 325.3,357.431 329.966,355.597 334.5,353.5C 336.855,352.906 339.022,351.906 341,350.5C 342.285,350.95 343.452,351.617 344.5,352.5C 345.5,352.167 346.167,351.5 346.5,350.5C 345.271,349.719 343.938,349.219 342.5,349C 344.019,347.649 345.352,346.149 346.5,344.5C 345.691,342.929 345.357,341.262 345.5,339.5C 347.368,338.737 349.035,337.737 350.5,336.5C 358.406,332.594 364.739,326.928 369.5,319.5C 370.404,318.791 370.737,317.791 370.5,316.5C 369.448,316.649 368.448,316.483 367.5,316C 368.756,315.583 369.423,314.75 369.5,313.5C 377.991,307.01 384.657,299.01 389.5,289.5C 390.496,289.586 391.329,289.252 392,288.5C 392.36,286.392 393.027,284.392 394,282.5C 393.181,278.831 393.348,275.165 394.5,271.5C 395.833,268.5 397.167,265.5 398.5,262.5C 400.02,260.11 401.02,257.443 401.5,254.5C 402.79,253.942 403.623,252.942 404,251.5C 404.667,246.5 404.667,241.5 404,236.5C 403.395,234.519 402.395,234.185 401,235.5C 400.51,234.207 400.343,232.873 400.5,231.5C 403.428,218.707 403.095,206.04 399.5,193.5 Z"/></g>
<g><path style="opacity:1" fill="#d0b83e" d="M 173.5,358.5 C 182.167,359.833 190.833,359.833 199.5,358.5C 190.86,362.286 182.194,362.286 173.5,358.5 Z"/></g>
<g><path style="opacity:1" fill="#f5d32e" d="M 303.5,345.5 C 303.5,346.5 303.5,347.5 303.5,348.5C 312.672,349.943 322.005,350.943 331.5,351.5C 328.271,354.95 324.271,357.117 319.5,358C 316.833,358.167 314.167,358.333 311.5,358.5C 305.063,358.132 298.73,357.132 292.5,355.5C 288.078,353.594 283.744,351.428 279.5,349C 273.455,342.464 266.121,339.631 257.5,340.5C 268.967,346.47 279.467,353.804 289,362.5C 289.667,363.5 289.667,364.5 289,365.5C 287.446,368.102 285.28,369.269 282.5,369C 274.585,360.393 265.918,352.726 256.5,346C 253.915,344.872 251.248,344.039 248.5,343.5C 242.937,345.283 237.937,348.117 233.5,352C 226.988,357.846 220.488,363.68 214,369.5C 211.115,368.301 209.448,366.301 209,363.5C 218.702,354.733 229.202,347.066 240.5,340.5C 239.833,340.167 239.167,339.833 238.5,339.5C 235.855,340.108 233.188,340.608 230.5,341C 224.5,345 218.5,349 212.5,353C 208.376,355.397 204.043,357.231 199.5,358.5C 190.833,359.833 182.167,359.833 173.5,358.5C 167.038,356.439 161.371,353.105 156.5,348.5C 156.047,347.542 155.381,346.708 154.5,346C 158.526,346.897 162.526,348.231 166.5,350C 171.5,350.667 176.5,350.667 181.5,350C 192.692,346.602 203.692,342.602 214.5,338C 225.994,334.939 237.494,334.772 249,337.5C 258.74,335.526 268.574,335.026 278.5,336C 287.03,338.596 295.363,341.763 303.5,345.5 Z"/></g>
<g><path style="opacity:1" fill="#e5c941" d="M 334.5,353.5 C 329.966,355.597 325.3,357.431 320.5,359C 317.333,359.167 314.167,359.333 311,359.5C 304.293,360.084 298.126,358.751 292.5,355.5C 298.73,357.132 305.063,358.132 311.5,358.5C 314.167,358.333 316.833,358.167 319.5,358C 324.271,357.117 328.271,354.95 331.5,351.5C 322.005,350.943 312.672,349.943 303.5,348.5C 303.5,347.5 303.5,346.5 303.5,345.5C 317.13,351.221 330.464,350.555 343.5,343.5C 344.521,344.002 344.688,344.668 344,345.5C 340.642,348.031 337.476,350.698 334.5,353.5 Z"/></g>
<g><path style="opacity:1" fill="#1b1607" d="M 299.5,329.5 C 294.857,331.996 289.857,333.829 284.5,335C 297.566,338.781 310.9,341.614 324.5,343.5C 331.717,343.09 338.717,341.757 345.5,339.5C 345.357,341.262 345.691,342.929 346.5,344.5C 345.352,346.149 344.019,347.649 342.5,349C 343.938,349.219 345.271,349.719 346.5,350.5C 346.167,351.5 345.5,352.167 344.5,352.5C 343.452,351.617 342.285,350.95 341,350.5C 339.022,351.906 336.855,352.906 334.5,353.5C 337.476,350.698 340.642,348.031 344,345.5C 344.688,344.668 344.521,344.002 343.5,343.5C 330.464,350.555 317.13,351.221 303.5,345.5C 295.363,341.763 287.03,338.596 278.5,336C 268.574,335.026 258.74,335.526 249,337.5C 237.494,334.772 225.994,334.939 214.5,338C 203.692,342.602 192.692,346.602 181.5,350C 176.5,350.667 171.5,350.667 166.5,350C 162.526,348.231 158.526,346.897 154.5,346C 155.381,346.708 156.047,347.542 156.5,348.5C 154.418,348.376 152.918,347.376 152,345.5C 151.333,346.167 150.667,346.833 150,347.5C 149.997,343.118 147.831,341.451 143.5,342.5C 143.36,340.876 144.027,339.71 145.5,339C 142.921,337.924 141.254,336.091 140.5,333.5C 141.922,334.925 143.589,335.925 145.5,336.5C 145.5,337.167 145.833,337.5 146.5,337.5C 153.785,342.642 161.952,344.642 171,343.5C 185.274,342.635 199.107,339.968 212.5,335.5C 214.881,336.83 217.214,336.664 219.5,335C 228.5,334.333 237.5,334.333 246.5,335C 247.108,335.87 247.941,336.37 249,336.5C 258.366,332.165 268.033,331.498 278,334.5C 284.809,331.987 291.976,330.32 299.5,329.5 Z"/></g>
<g><path style="opacity:1" fill="#fbd627" d="M 350.5,336.5 C 345.439,337.848 340.439,339.348 335.5,341C 328.111,341.801 320.777,341.467 313.5,340C 313.833,339.667 314.167,339.333 314.5,339C 310.833,338.667 307.167,338.333 303.5,338C 304.833,337.667 306.167,337.333 307.5,337C 304.667,335.167 304.833,333.667 308,332.5C 311.601,333.82 315.101,333.82 318.5,332.5C 329.216,332.463 339.882,331.797 350.5,330.5C 350.64,332.124 349.973,333.29 348.5,334C 349.756,334.417 350.423,335.25 350.5,336.5 Z"/></g>
<g><path style="opacity:1" fill="#f1d032" d="M 174.5,310.5 C 180.637,316.467 186.97,322.301 193.5,328C 199.63,331.067 205.964,333.567 212.5,335.5C 199.107,339.968 185.274,342.635 171,343.5C 161.952,344.642 153.785,342.642 146.5,337.5C 151.081,337.953 155.414,339.286 159.5,341.5C 165.137,342.663 170.804,342.83 176.5,342C 173.125,340.971 171.958,338.804 173,335.5C 174.183,336.731 175.349,336.731 176.5,335.5C 165.603,332.908 154.603,331.408 143.5,331C 144.833,331.667 144.833,332.333 143.5,333C 147.852,333.419 148.185,334.086 144.5,335C 145.056,335.383 145.389,335.883 145.5,336.5C 143.589,335.925 141.922,334.925 140.5,333.5C 137.833,331.167 135.167,328.833 132.5,326.5C 131.177,324.529 129.844,322.529 128.5,320.5C 128.833,320.167 129.167,319.833 129.5,319.5C 134.04,323.939 139.373,327.106 145.5,329C 158.788,331.079 172.121,332.413 185.5,333C 181.044,331.021 177.21,328.187 174,324.5C 169.667,317.167 165.333,309.833 161,302.5C 160.333,301.5 160.333,300.5 161,299.5C 165.806,302.816 170.306,306.483 174.5,310.5 Z"/></g>
<g><path style="opacity:1" fill="#fbd724" d="M 146.5,337.5 C 145.833,337.5 145.5,337.167 145.5,336.5C 145.389,335.883 145.056,335.383 144.5,335C 148.185,334.086 147.852,333.419 143.5,333C 144.833,332.333 144.833,331.667 143.5,331C 154.603,331.408 165.603,332.908 176.5,335.5C 175.349,336.731 174.183,336.731 173,335.5C 171.958,338.804 173.125,340.971 176.5,342C 170.804,342.83 165.137,342.663 159.5,341.5C 155.414,339.286 151.081,337.953 146.5,337.5 Z"/></g>
<g><path style="opacity:1" fill="#e9cd3b" d="M 369.5,319.5 C 364.739,326.928 358.406,332.594 350.5,336.5C 350.423,335.25 349.756,334.417 348.5,334C 349.973,333.29 350.64,332.124 350.5,330.5C 339.882,331.797 329.216,332.463 318.5,332.5C 330.429,331.184 342.429,329.35 354.5,327C 359.705,325.233 364.038,322.233 367.5,318C 368.816,317.472 369.483,317.972 369.5,319.5 Z"/></g>
<g><path style="opacity:1" fill="#eece33" d="M 335.5,298.5 C 336.239,298.369 336.906,298.536 337.5,299C 333.479,306.059 329.646,313.225 326,320.5C 322.655,326.175 317.822,330.008 311.5,332C 313.81,332.497 316.143,332.663 318.5,332.5C 315.101,333.82 311.601,333.82 308,332.5C 304.833,333.667 304.667,335.167 307.5,337C 306.167,337.333 304.833,337.667 303.5,338C 307.167,338.333 310.833,338.667 314.5,339C 314.167,339.333 313.833,339.667 313.5,340C 320.777,341.467 328.111,341.801 335.5,341C 340.439,339.348 345.439,337.848 350.5,336.5C 349.035,337.737 347.368,338.737 345.5,339.5C 338.717,341.757 331.717,343.09 324.5,343.5C 310.9,341.614 297.566,338.781 284.5,335C 289.857,333.829 294.857,331.996 299.5,329.5C 303.202,327.976 306.536,325.81 309.5,323C 317.76,314.235 326.427,306.068 335.5,298.5 Z"/></g>
<g><path style="opacity:1" fill="#1d1605" d="M 342.5,291.5 C 339.833,300 336.666,308.333 333,316.5C 330.925,320.579 328.092,324.079 324.5,327C 332.713,325.429 341.047,324.096 349.5,323C 356.604,320.613 363.27,317.447 369.5,313.5C 369.423,314.75 368.756,315.583 367.5,316C 368.448,316.483 369.448,316.649 370.5,316.5C 370.737,317.791 370.404,318.791 369.5,319.5C 369.483,317.972 368.816,317.472 367.5,318C 364.038,322.233 359.705,325.233 354.5,327C 342.429,329.35 330.429,331.184 318.5,332.5C 316.143,332.663 313.81,332.497 311.5,332C 317.822,330.008 322.655,326.175 326,320.5C 329.646,313.225 333.479,306.059 337.5,299C 336.906,298.536 336.239,298.369 335.5,298.5C 337.848,296.849 339.348,294.515 340,291.5C 340.77,290.402 341.603,290.402 342.5,291.5 Z"/></g>
<g><path style="opacity:1" fill="#fbd725" d="M 139.5,307.5 C 139.833,307.5 140.167,307.5 140.5,307.5C 141.502,309.011 142.169,310.678 142.5,312.5C 143.552,312.351 144.552,312.517 145.5,313C 146.257,314.512 147.257,315.846 148.5,317C 152.475,318.898 156.642,320.398 161,321.5C 162.722,321.389 162.888,320.889 161.5,320C 162.448,319.517 163.448,319.351 164.5,319.5C 164.5,320.833 164.5,322.167 164.5,323.5C 168.211,323.47 168.878,324.47 166.5,326.5C 156.538,324.177 146.538,321.844 136.5,319.5C 134.847,319.34 133.514,318.674 132.5,317.5C 131.952,315.468 130.619,314.468 128.5,314.5C 128.67,313.178 128.337,312.011 127.5,311C 128.167,310.667 128.833,310.333 129.5,310C 127.965,309.504 126.465,309.67 125,310.5C 122.655,309.492 121.655,307.825 122,305.5C 122.333,305.833 122.667,306.167 123,306.5C 124.574,305.152 126.407,304.486 128.5,304.5C 130.838,305.337 133.172,306.17 135.5,307C 135.167,307.333 134.833,307.667 134.5,308C 136.387,308.78 138.054,308.613 139.5,307.5 Z"/></g>
<g><path style="opacity:1" fill="#ebcc36" d="M 151.5,286.5 C 156.407,297.357 161.24,308.357 166,319.5C 168.045,322.423 170.212,325.257 172.5,328C 164.115,327.325 155.781,325.992 147.5,324C 143.526,323.006 139.86,321.506 136.5,319.5C 146.538,321.844 156.538,324.177 166.5,326.5C 168.878,324.47 168.211,323.47 164.5,323.5C 164.5,322.167 164.5,320.833 164.5,319.5C 163.448,319.351 162.448,319.517 161.5,320C 162.888,320.889 162.722,321.389 161,321.5C 156.642,320.398 152.475,318.898 148.5,317C 147.257,315.846 146.257,314.512 145.5,313C 144.552,312.517 143.552,312.351 142.5,312.5C 142.169,310.678 141.502,309.011 140.5,307.5C 144.517,309.861 148.517,312.194 152.5,314.5C 151.5,312.5 150.5,310.5 149.5,308.5C 151.024,309.174 152.358,310.174 153.5,311.5C 155.123,310.524 156.457,311.024 157.5,313C 158.5,313.667 159.5,313.667 160.5,313C 159.066,309.152 157.4,305.319 155.5,301.5C 154.438,296.391 153.104,291.391 151.5,286.5 Z"/></g>
<g><path style="opacity:1" fill="#f5d32e" d="M 353.5,272.5 C 355.176,273.183 355.843,274.517 355.5,276.5C 355.035,289.555 351.369,301.555 344.5,312.5C 344.833,312.833 345.167,313.167 345.5,313.5C 356.344,306.242 367.678,299.742 379.5,294C 384.415,289.756 388.581,284.923 392,279.5C 391.904,282.967 391.07,286.3 389.5,289.5C 384.657,299.01 377.991,307.01 369.5,313.5C 363.27,317.447 356.604,320.613 349.5,323C 341.047,324.096 332.713,325.429 324.5,327C 328.092,324.079 330.925,320.579 333,316.5C 336.666,308.333 339.833,300 342.5,291.5C 344.906,284.345 348.572,278.011 353.5,272.5 Z"/></g>
<g><path style="opacity:1" fill="#fad628" d="M 149.5,281.5 C 150.441,283.05 151.107,284.716 151.5,286.5C 153.104,291.391 154.438,296.391 155.5,301.5C 157.4,305.319 159.066,309.152 160.5,313C 159.5,313.667 158.5,313.667 157.5,313C 156.457,311.024 155.123,310.524 153.5,311.5C 152.358,310.174 151.024,309.174 149.5,308.5C 145.468,300.041 143.134,291.041 142.5,281.5C 142.338,279.473 142.505,277.473 143,275.5C 144.98,277.899 147.147,279.899 149.5,281.5 Z"/></g>
<g><path style="opacity:1" fill="#1b1404" d="M 149.5,281.5 C 151.017,281.511 152.184,282.177 153,283.5C 155.61,287.742 157.444,292.409 158.5,297.5C 161.03,298.132 163.363,299.132 165.5,300.5C 166.891,299.355 168.224,299.355 169.5,300.5C 168.624,301.251 167.624,301.751 166.5,302C 168.09,303.046 169.59,304.213 171,305.5C 171.941,303.939 173.108,302.605 174.5,301.5C 173.731,304.316 173.731,307.316 174.5,310.5C 170.306,306.483 165.806,302.816 161,299.5C 160.333,300.5 160.333,301.5 161,302.5C 165.333,309.833 169.667,317.167 174,324.5C 177.21,328.187 181.044,331.021 185.5,333C 172.121,332.413 158.788,331.079 145.5,329C 139.373,327.106 134.04,323.939 129.5,319.5C 129.167,319.833 128.833,320.167 128.5,320.5C 129.844,322.529 131.177,324.529 132.5,326.5C 130.883,325.962 129.216,325.629 127.5,325.5C 127.613,322.951 126.946,320.618 125.5,318.5C 126.025,317.808 126.692,317.308 127.5,317C 125.072,315.982 123.738,314.148 123.5,311.5C 126.013,314.255 129.013,316.255 132.5,317.5C 133.514,318.674 134.847,319.34 136.5,319.5C 139.86,321.506 143.526,323.006 147.5,324C 155.781,325.992 164.115,327.325 172.5,328C 170.212,325.257 168.045,322.423 166,319.5C 161.24,308.357 156.407,297.357 151.5,286.5C 151.107,284.716 150.441,283.05 149.5,281.5 Z"/></g>
<g><path style="opacity:1" fill="#785c08" d="M 152.5,314.5 C 154.544,315.031 156.211,316.198 157.5,318C 155.228,317.923 153.562,316.757 152.5,314.5 Z"/></g>
<g><path style="opacity:1" fill="#efd033" d="M 139.5,307.5 C 138.054,308.613 136.387,308.78 134.5,308C 134.833,307.667 135.167,307.333 135.5,307C 133.172,306.17 130.838,305.337 128.5,304.5C 126.407,304.486 124.574,305.152 123,306.5C 122.667,306.167 122.333,305.833 122,305.5C 121.655,307.825 122.655,309.492 125,310.5C 126.465,309.67 127.965,309.504 129.5,310C 128.833,310.333 128.167,310.667 127.5,311C 128.337,312.011 128.67,313.178 128.5,314.5C 130.619,314.468 131.952,315.468 132.5,317.5C 129.013,316.255 126.013,314.255 123.5,311.5C 122.167,310.5 120.833,309.5 119.5,308.5C 114.77,302.591 110.603,296.257 107,289.5C 104.681,280.506 105.681,280.172 110,288.5C 112.869,291.704 116.035,294.537 119.5,297C 126.33,300.364 132.997,303.864 139.5,307.5 Z"/></g>
<g><path style="opacity:1" fill="#1b1607" d="M 427.5,259.5 C 428.008,261.865 428.675,264.199 429.5,266.5C 428.369,267.604 427.535,267.271 427,265.5C 426.132,268.485 425.799,271.485 426,274.5C 426.833,273.5 427.667,272.5 428.5,271.5C 428.833,272.167 429.167,272.833 429.5,273.5C 428.833,275.167 428.167,276.833 427.5,278.5C 428.933,280.336 429.433,282.336 429,284.5C 426.32,282.124 424.987,279.124 425,275.5C 423.424,278.973 421.924,282.473 420.5,286C 421.536,289.121 421.703,292.287 421,295.5C 420.692,294.692 420.192,294.025 419.5,293.5C 417.828,295.672 416.161,297.672 414.5,299.5C 419.156,286.185 423.49,272.852 427.5,259.5 Z"/></g>
<g><path style="opacity:1" fill="#1a1405" d="M 362.5,254.5 C 362.281,268.355 360.614,282.021 357.5,295.5C 356.519,297.396 355.519,299.396 354.5,301.5C 354.833,301.833 355.167,302.167 355.5,302.5C 360.195,299.489 364.862,296.489 369.5,293.5C 379.071,287.598 387.404,280.264 394.5,271.5C 393.348,275.165 393.181,278.831 394,282.5C 393.027,284.392 392.36,286.392 392,288.5C 391.329,289.252 390.496,289.586 389.5,289.5C 391.07,286.3 391.904,282.967 392,279.5C 388.581,284.923 384.415,289.756 379.5,294C 367.678,299.742 356.344,306.242 345.5,313.5C 345.167,313.167 344.833,312.833 344.5,312.5C 351.369,301.555 355.035,289.555 355.5,276.5C 356.306,273.722 357.306,270.888 358.5,268C 358.167,267.5 357.833,267 357.5,266.5C 356.479,268.188 355.145,269.521 353.5,270.5C 352.722,269.844 352.056,269.011 351.5,268C 352.01,266.174 352.844,266.007 354,267.5C 357.172,263.492 359.172,263.826 360,268.5C 360.029,263.542 360.862,258.876 362.5,254.5 Z"/></g>
<g><path style="opacity:1" fill="#e8c933" d="M 398.5,262.5 C 397.167,265.5 395.833,268.5 394.5,271.5C 387.404,280.264 379.071,287.598 369.5,293.5C 368.176,290.205 369.509,288.872 373.5,289.5C 373.371,283.778 371.538,282.778 368,286.5C 367.813,282.072 368.979,278.072 371.5,274.5C 371.149,276.869 370.982,279.203 371,281.5C 373.37,277.403 376.203,273.736 379.5,270.5C 377.952,274.061 375.952,277.394 373.5,280.5C 374.025,281.192 374.692,281.692 375.5,282C 375.167,282.333 374.833,282.667 374.5,283C 379.105,284.709 380.105,284.876 377.5,283.5C 377.351,282.448 377.517,281.448 378,280.5C 381.206,283.398 383.04,282.565 383.5,278C 383.167,277.667 382.833,277.333 382.5,277C 384.298,275.495 386.132,275.328 388,276.5C 389.825,274.52 390.659,272.187 390.5,269.5C 391.675,269.719 392.675,269.386 393.5,268.5C 392.471,268.704 391.471,268.204 390.5,267C 392.134,266.506 393.801,266.34 395.5,266.5C 395.088,264.027 396.088,262.694 398.5,262.5 Z"/></g>
<g><path style="opacity:1" fill="#191407" d="M 128.5,226.5 C 128.882,229.354 128.882,232.354 128.5,235.5C 129.5,235.5 130.5,235.5 131.5,235.5C 133.739,243.738 135.572,252.072 137,260.5C 140.984,265.787 144.484,271.454 147.5,277.5C 144.864,274.69 142.364,271.69 140,268.5C 140.265,272.998 141.099,277.332 142.5,281.5C 143.134,291.041 145.468,300.041 149.5,308.5C 150.5,310.5 151.5,312.5 152.5,314.5C 148.517,312.194 144.517,309.861 140.5,307.5C 140.167,307.5 139.833,307.5 139.5,307.5C 132.997,303.864 126.33,300.364 119.5,297C 116.035,294.537 112.869,291.704 110,288.5C 105.681,280.172 104.681,280.506 107,289.5C 110.603,296.257 114.77,302.591 119.5,308.5C 117.219,306.572 114.553,305.572 111.5,305.5C 111.657,304.127 111.49,302.793 111,301.5C 109.197,300.687 107.697,299.52 106.5,298C 107.12,293.36 105.786,289.194 102.5,285.5C 101.686,287.766 101.186,290.1 101,292.5C 100,291.5 99,290.5 98,289.5C 97.474,293.905 99.1407,296.238 103,296.5C 103.233,298.78 104.066,300.78 105.5,302.5C 104.511,303.468 103.844,304.635 103.5,306C 104.159,308.462 104.493,310.962 104.5,313.5C 99.3362,303.016 95.3362,292.016 92.5,280.5C 93.8301,283.124 95.6635,285.458 98,287.5C 99.3282,285.978 99.1616,284.311 97.5,282.5C 102.745,277.003 101.912,272.336 95,268.5C 93.2876,264.897 93.1209,261.23 94.5,257.5C 93.8659,252.99 93.1993,248.49 92.5,244C 92.8082,242.541 93.4749,241.374 94.5,240.5C 96.2419,237.855 96.9086,234.855 96.5,231.5C 98.3942,237.301 100.894,242.968 104,248.5C 109.358,255.024 114.525,261.69 119.5,268.5C 120.063,253.853 123.063,239.853 128.5,226.5 Z"/></g>
<g><path style="opacity:1" fill="#f5d32d" d="M 96.5,245.5 C 98.1227,249.4 100.289,253.067 103,256.5C 111.07,263.9 118.404,271.9 125,280.5C 125.193,271.09 125.693,261.756 126.5,252.5C 127.927,250.852 128.76,248.852 129,246.5C 129.667,245.167 130.333,245.167 131,246.5C 132.037,257.556 133.87,268.223 136.5,278.5C 137.608,287.854 139.774,296.854 143,305.5C 134.092,298.962 124.926,292.795 115.5,287C 108.096,280.676 102.262,273.176 98,264.5C 96.0111,260.747 95.1778,256.747 95.5,252.5C 95.1984,249.941 95.5318,247.607 96.5,245.5 Z"/></g>
<g><path style="opacity:1" fill="#d8c144" d="M 147.5,277.5 C 147.733,279.062 148.4,280.395 149.5,281.5C 147.147,279.899 144.98,277.899 143,275.5C 142.505,277.473 142.338,279.473 142.5,281.5C 141.099,277.332 140.265,272.998 140,268.5C 142.364,271.69 144.864,274.69 147.5,277.5 Z"/></g>
<g><path style="opacity:1" fill="#c7b247" d="M 355.5,276.5 C 355.843,274.517 355.176,273.183 353.5,272.5C 353.5,271.833 353.5,271.167 353.5,270.5C 355.145,269.521 356.479,268.188 357.5,266.5C 357.833,267 358.167,267.5 358.5,268C 357.306,270.888 356.306,273.722 355.5,276.5 Z"/></g>
<g><path style="opacity:1" fill="#d9be40" d="M 136.5,278.5 C 133.87,268.223 132.037,257.556 131,246.5C 130.333,245.167 129.667,245.167 129,246.5C 128.76,248.852 127.927,250.852 126.5,252.5C 126.857,247.687 127.857,243.02 129.5,238.5C 134.054,251.36 136.387,264.693 136.5,278.5 Z"/></g>
<g><path style="opacity:1" fill="#fbd725" d="M 398.5,262.5 C 396.088,262.694 395.088,264.027 395.5,266.5C 393.801,266.34 392.134,266.506 390.5,267C 391.471,268.204 392.471,268.704 393.5,268.5C 392.675,269.386 391.675,269.719 390.5,269.5C 390.659,272.187 389.825,274.52 388,276.5C 386.132,275.328 384.298,275.495 382.5,277C 382.833,277.333 383.167,277.667 383.5,278C 383.04,282.565 381.206,283.398 378,280.5C 377.517,281.448 377.351,282.448 377.5,283.5C 380.105,284.876 379.105,284.709 374.5,283C 374.833,282.667 375.167,282.333 375.5,282C 374.692,281.692 374.025,281.192 373.5,280.5C 375.952,277.394 377.952,274.061 379.5,270.5C 383.266,268.57 386.266,265.736 388.5,262C 390.087,261.138 391.754,260.471 393.5,260C 393.043,259.586 392.709,259.086 392.5,258.5C 394.555,255.609 397.055,253.275 400,251.5C 399.053,255.001 398.553,258.667 398.5,262.5 Z"/></g>
<g><path style="opacity:1" fill="#f8d52b" d="M 371.5,256.5 C 372.806,262.401 372.806,268.401 371.5,274.5C 368.979,278.072 367.813,282.072 368,286.5C 371.538,282.778 373.371,283.778 373.5,289.5C 369.509,288.872 368.176,290.205 369.5,293.5C 364.862,296.489 360.195,299.489 355.5,302.5C 355.167,302.167 354.833,301.833 354.5,301.5C 355.519,299.396 356.519,297.396 357.5,295.5C 359.383,294.05 360.383,292.05 360.5,289.5C 362.264,275.418 363.598,261.418 364.5,247.5C 365.265,246.34 366.265,245.34 367.5,244.5C 368.739,248.641 370.073,252.641 371.5,256.5 Z"/></g>
<g><path style="opacity:1" fill="#dec03c" d="M 364.5,247.5 C 363.598,261.418 362.264,275.418 360.5,289.5C 360.383,292.05 359.383,294.05 357.5,295.5C 360.614,282.021 362.281,268.355 362.5,254.5C 362.5,253.833 362.5,253.167 362.5,252.5C 363.167,250.833 363.833,249.167 364.5,247.5 Z"/></g>
<g><path style="opacity:1" fill="#1a1404" d="M 368.5,224.5 C 371.937,233.831 374.604,243.497 376.5,253.5C 376.174,257.884 376.508,262.217 377.5,266.5C 378.107,266.376 378.44,266.043 378.5,265.5C 387.353,255.122 394.686,243.788 400.5,231.5C 400.343,232.873 400.51,234.207 401,235.5C 402.395,234.185 403.395,234.519 404,236.5C 404.667,241.5 404.667,246.5 404,251.5C 403.623,252.942 402.79,253.942 401.5,254.5C 402.293,250.534 402.96,246.534 403.5,242.5C 403.564,240.611 403.064,238.944 402,237.5C 400.633,243.27 398.3,248.604 395,253.5C 389.315,258.686 384.148,264.353 379.5,270.5C 376.203,273.736 373.37,277.403 371,281.5C 370.982,279.203 371.149,276.869 371.5,274.5C 372.806,268.401 372.806,262.401 371.5,256.5C 370.39,249.19 369.39,241.857 368.5,234.5C 366.089,238.471 364.756,242.804 364.5,247.5C 363.833,249.167 363.167,250.833 362.5,252.5C 362.018,251.584 361.685,250.584 361.5,249.5C 362.526,245.204 363.359,240.871 364,236.5C 368.054,233.582 369.554,229.582 368.5,224.5 Z"/></g>
<g><path style="opacity:1" fill="#f5d32f" d="M 130.5,215.5 C 129.598,218.997 128.931,222.663 128.5,226.5C 123.063,239.853 120.063,253.853 119.5,268.5C 114.525,261.69 109.358,255.024 104,248.5C 100.894,242.968 98.3942,237.301 96.5,231.5C 95.7347,228.904 95.4013,226.237 95.5,223.5C 95.6027,217.139 96.1027,210.806 97,204.5C 98.0465,207.859 99.5465,210.859 101.5,213.5C 103.944,219.067 106.444,224.733 109,230.5C 110.958,235.329 112.124,240.329 112.5,245.5C 112.281,246.675 112.614,247.675 113.5,248.5C 114.492,244.217 114.826,239.884 114.5,235.5C 118.296,223.572 123.463,212.239 130,201.5C 130.499,206.155 130.666,210.821 130.5,215.5 Z"/></g>
<g><path style="opacity:1" fill="#e2c53e" d="M 401.5,254.5 C 401.02,257.443 400.02,260.11 398.5,262.5C 398.553,258.667 399.053,255.001 400,251.5C 397.055,253.275 394.555,255.609 392.5,258.5C 392.709,259.086 393.043,259.586 393.5,260C 391.754,260.471 390.087,261.138 388.5,262C 386.266,265.736 383.266,268.57 379.5,270.5C 384.148,264.353 389.315,258.686 395,253.5C 398.3,248.604 400.633,243.27 402,237.5C 403.064,238.944 403.564,240.611 403.5,242.5C 402.96,246.534 402.293,250.534 401.5,254.5 Z"/></g>
<g><path style="opacity:1" fill="#b0a34f" d="M 94.5,240.5 C 96.2132,241.635 96.8799,243.302 96.5,245.5C 95.5318,247.607 95.1984,249.941 95.5,252.5C 94.5166,248.702 94.1832,244.702 94.5,240.5 Z"/></g>
<g><path style="opacity:1" fill="#a58d13" d="M 114.5,235.5 C 114.826,239.884 114.492,244.217 113.5,248.5C 112.614,247.675 112.281,246.675 112.5,245.5C 113.167,242.167 113.833,238.833 114.5,235.5 Z"/></g>
<g><path style="opacity:1" fill="#211a05" d="M 438.5,207.5 C 437.496,223.543 434.83,239.21 430.5,254.5C 431.628,256.706 431.461,258.706 430,260.5C 429.329,259.748 428.496,259.414 427.5,259.5C 428.376,255.538 429.042,251.538 429.5,247.5C 433.449,234.373 436.449,221.04 438.5,207.5 Z"/></g>
<g><path style="opacity:1" fill="#1d1601" d="M 428.5,148.5 C 428.5,152.167 428.5,155.833 428.5,159.5C 427.245,176.701 425.745,194.034 424,211.5C 422.846,221.1 421.013,230.433 418.5,239.5C 419.737,225.68 421.57,212.014 424,198.5C 425.803,181.216 426.803,163.882 427,146.5C 427.278,147.416 427.778,148.082 428.5,148.5 Z"/></g>
<g><path style="opacity:1" fill="#1c1505" d="M 112.5,156.5 C 110.396,158.372 109.063,160.705 108.5,163.5C 101.813,174.633 99.9793,186.633 103,199.5C 106.213,208.805 109.213,218.139 112,227.5C 117.38,215.744 124.046,204.744 132,194.5C 133.799,190.93 135.299,187.263 136.5,183.5C 136.833,183.5 137.167,183.5 137.5,183.5C 138.853,185.515 138.353,187.182 136,188.5C 135.667,190.167 135.333,191.833 135,193.5C 132.821,195.348 130.987,197.515 129.5,200C 130.448,200.483 131.448,200.649 132.5,200.5C 132.811,205.766 132.145,210.766 130.5,215.5C 130.666,210.821 130.499,206.155 130,201.5C 123.463,212.239 118.296,223.572 114.5,235.5C 113.833,238.833 113.167,242.167 112.5,245.5C 112.124,240.329 110.958,235.329 109,230.5C 106.444,224.733 103.944,219.067 101.5,213.5C 100.312,207.683 98.9785,202.016 97.5,196.5C 97.7496,195.078 98.583,194.078 100,193.5C 100.009,184.662 101.175,175.995 103.5,167.5C 105.486,163.924 107.486,160.258 109.5,156.5C 110.425,155.438 111.425,155.438 112.5,156.5 Z"/></g>
<g><path style="opacity:1" fill="#dec43d" d="M 71.5,169.5 C 72.8758,187.386 74.5424,205.386 76.5,223.5C 75.8826,223.389 75.3826,223.056 75,222.5C 72.5206,204.941 71.354,187.275 71.5,169.5 Z"/></g>
<g><path style="opacity:1" fill="#ccb443" d="M 97.5,196.5 C 98.9785,202.016 100.312,207.683 101.5,213.5C 99.5465,210.859 98.0465,207.859 97,204.5C 96.1027,210.806 95.6027,217.139 95.5,223.5C 93.8969,214.447 94.5635,205.447 97.5,196.5 Z"/></g>
<g><path style="opacity:1" fill="#d8be3c" d="M 60.5,182.5 C 61.29,183.609 61.79,184.942 62,186.5C 62.6553,195.162 63.1553,203.828 63.5,212.5C 61.7966,203.051 60.7966,193.384 60.5,183.5C 60.5,183.167 60.5,182.833 60.5,182.5 Z"/></g>
<g><path style="opacity:1" fill="#2b2006" d="M 442.5,151.5 C 442.462,167.857 441.795,184.191 440.5,200.5C 440.471,203.269 439.805,205.603 438.5,207.5C 439.627,188.67 440.96,170.003 442.5,151.5 Z"/></g>
<g><path style="opacity:1" fill="#a69024" d="M 111.5,176.5 C 112.931,185.455 113.931,194.455 114.5,203.5C 113.852,205.086 113.352,206.753 113,208.5C 112.638,198.153 112.138,187.82 111.5,177.5C 111.5,177.167 111.5,176.833 111.5,176.5 Z"/></g>
<g><path style="opacity:1" fill="#1d1503" d="M 113.5,155.5 C 113.56,154.957 113.893,154.624 114.5,154.5C 115.182,155.243 115.849,155.909 116.5,156.5C 115.539,168.15 115.706,179.816 117,191.5C 120.083,186.412 123.917,181.912 128.5,178C 134.292,174.041 139.626,169.541 144.5,164.5C 143.31,168.026 141.31,171.026 138.5,173.5C 137.512,174.795 136.512,176.128 135.5,177.5C 128.167,182.667 122,189 117,196.5C 115.589,198.65 114.755,200.984 114.5,203.5C 113.931,194.455 112.931,185.455 111.5,176.5C 110.878,169.553 111.878,162.886 114.5,156.5C 114.376,155.893 114.043,155.56 113.5,155.5 Z"/></g>
<g><path style="opacity:1" fill="#f6d32d" d="M 111.5,177.5 C 112.138,187.82 112.638,198.153 113,208.5C 113.352,206.753 113.852,205.086 114.5,203.5C 114.755,200.984 115.589,198.65 117,196.5C 122,189 128.167,182.667 135.5,177.5C 136.497,177.47 137.164,177.97 137.5,179C 136.852,180.44 136.519,181.94 136.5,183.5C 135.299,187.263 133.799,190.93 132,194.5C 124.046,204.744 117.38,215.744 112,227.5C 109.213,218.139 106.213,208.805 103,199.5C 99.9793,186.633 101.813,174.633 108.5,163.5C 109.117,163.389 109.617,163.056 110,162.5C 110.174,167.684 110.674,172.684 111.5,177.5 Z"/></g>
<g><path style="opacity:1" fill="#c5af46" d="M 138.5,173.5 C 139.124,173.917 139.457,174.584 139.5,175.5C 138.829,178.185 138.162,180.852 137.5,183.5C 137.167,183.5 136.833,183.5 136.5,183.5C 136.519,181.94 136.852,180.44 137.5,179C 137.164,177.97 136.497,177.47 135.5,177.5C 136.512,176.128 137.512,174.795 138.5,173.5 Z"/></g>
<g><path style="opacity:1" fill="#dac148" d="M 113.5,155.5 C 114.043,155.56 114.376,155.893 114.5,156.5C 111.878,162.886 110.878,169.553 111.5,176.5C 111.5,176.833 111.5,177.167 111.5,177.5C 110.674,172.684 110.174,167.684 110,162.5C 109.617,163.056 109.117,163.389 108.5,163.5C 109.063,160.705 110.396,158.372 112.5,156.5C 112.5,155.833 112.833,155.5 113.5,155.5 Z"/></g>
<g><path style="opacity:1" fill="#f2d131" d="M 134.5,135.5 C 135.239,135.369 135.906,135.536 136.5,136C 134.3,138.234 132.467,140.734 131,143.5C 128.444,152.889 126.111,162.222 124,171.5C 130.578,163.957 138.078,157.457 146.5,152C 148.4,149.665 150.4,147.498 152.5,145.5C 152.477,147.927 151.977,150.26 151,152.5C 148.977,156.66 146.811,160.66 144.5,164.5C 139.626,169.541 134.292,174.041 128.5,178C 123.917,181.912 120.083,186.412 117,191.5C 115.706,179.816 115.539,168.15 116.5,156.5C 119.625,147.042 125.625,140.042 134.5,135.5 Z"/></g>
<g><path style="opacity:1" fill="#e4c73a" d="M 429.5,76.5 C 433.5,77.1667 437.5,77.8333 441.5,78.5C 442.209,79.404 443.209,79.7373 444.5,79.5C 444.5,95.5087 444.166,111.509 443.5,127.5C 442.635,135.466 442.302,143.466 442.5,151.5C 440.96,170.003 439.627,188.67 438.5,207.5C 436.449,221.04 433.449,234.373 429.5,247.5C 430.109,242.188 430.609,236.854 431,231.5C 432.53,229.774 433.53,227.774 434,225.5C 434.271,220.47 434.771,215.47 435.5,210.5C 435.471,208.971 434.804,207.804 433.5,207C 435.665,204.232 437.165,201.065 438,197.5C 438.495,195.527 438.662,193.527 438.5,191.5C 439.521,169.824 440.688,148.157 442,126.5C 442.5,111.17 442.667,95.837 442.5,80.5C 437.899,79.6579 433.565,78.3246 429.5,76.5 Z"/></g>
<g><path style="opacity:1" fill="#1c1605" d="M 164.5,123.5 C 164.67,124.822 164.337,125.989 163.5,127C 165.396,128.808 165.896,130.975 165,133.5C 164.439,132.978 163.772,132.645 163,132.5C 160.953,133.609 158.787,134.276 156.5,134.5C 156.66,136.199 156.494,137.866 156,139.5C 153.571,140.029 151.738,141.363 150.5,143.5C 151.243,144.182 151.909,144.849 152.5,145.5C 150.4,147.498 148.4,149.665 146.5,152C 138.078,157.457 130.578,163.957 124,171.5C 126.111,162.222 128.444,152.889 131,143.5C 132.467,140.734 134.3,138.234 136.5,136C 135.906,135.536 135.239,135.369 134.5,135.5C 135.999,134.506 137.666,134.506 139.5,135.5C 124.801,163.184 127.967,165.85 149,143.5C 153.648,136.362 158.815,129.695 164.5,123.5 Z"/></g>
<g><path style="opacity:1" fill="#ddc23c" d="M 429.5,114.5 C 429.833,114.5 430.167,114.5 430.5,114.5C 431.15,129.871 430.484,144.871 428.5,159.5C 428.5,155.833 428.5,152.167 428.5,148.5C 429.294,137.185 429.627,125.852 429.5,114.5 Z"/></g>
<g><path style="opacity:1" fill="#f2d131" d="M 164.5,123.5 C 158.815,129.695 153.648,136.362 149,143.5C 127.967,165.85 124.801,163.184 139.5,135.5C 147.075,127.554 156.075,122.554 166.5,120.5C 165.807,121.518 165.141,122.518 164.5,123.5 Z"/></g>
<g><path style="opacity:1" fill="#402f01" d="M 427.5,88.5 C 428.5,88.5 429.5,88.5 430.5,88.5C 430.5,96.1667 430.5,103.833 430.5,111.5C 430.5,112.5 430.5,113.5 430.5,114.5C 430.167,114.5 429.833,114.5 429.5,114.5C 430.092,105.566 429.425,96.8993 427.5,88.5 Z"/></g>
<g><path style="opacity:1" fill="#e7ca39" d="M 103.5,82.5 C 92.0605,84.6599 80.5605,86.9932 69,89.5C 69.5578,115.498 70.3911,141.498 71.5,167.5C 70.4478,163.348 69.6145,159.015 69,154.5C 68.6285,132.422 67.4618,110.422 65.5,88.5C 68.6866,87.1345 72.0199,86.3012 75.5,86C 70.2704,84.8983 70.2704,84.065 75.5,83.5C 78.6571,83.9234 81.8237,84.2567 85,84.5C 91.1356,83.5058 97.3022,82.8392 103.5,82.5 Z"/></g>
<g><path style="opacity:1" fill="#f1c92b" d="M 202.5,95.5 C 201.522,95.811 200.855,96.4777 200.5,97.5C 201.693,101.507 202.526,105.507 203,109.5C 200.522,107.18 197.689,105.514 194.5,104.5C 194.189,103.522 193.522,102.855 192.5,102.5C 189.167,104.5 185.833,106.5 182.5,108.5C 182.167,107.667 181.833,106.833 181.5,106C 183.141,102.655 183.641,99.1547 183,95.5C 172.32,88.8215 173.487,85.9882 186.5,87C 188.734,83.3645 190.568,79.5311 192,75.5C 193.818,79.1356 195.651,82.8022 197.5,86.5C 201.5,87.1667 205.5,87.8333 209.5,88.5C 206.94,90.6121 204.606,92.9454 202.5,95.5 Z"/></g>
<g><path style="opacity:1" fill="#d0b635" d="M 72.5,76.5 C 67.8739,78.2648 63.0405,79.5981 58,80.5C 58.2338,114.511 59.0671,148.511 60.5,182.5C 60.5,182.833 60.5,183.167 60.5,183.5C 57.9106,149.026 56.4106,114.36 56,79.5C 61.3565,77.8911 66.8565,76.8911 72.5,76.5 Z"/></g>
<g><path style="opacity:1" fill="#dec442" d="M 401.5,84.5 C 401.5,84.1667 401.5,83.8333 401.5,83.5C 411.344,83.6411 421.011,84.9744 430.5,87.5C 431.82,95.6572 431.82,103.657 430.5,111.5C 430.5,103.833 430.5,96.1667 430.5,88.5C 429.5,88.5 428.5,88.5 427.5,88.5C 425.139,88.3259 422.806,87.9926 420.5,87.5C 418.162,85.9605 415.495,85.2938 412.5,85.5C 408.846,85.0578 405.179,84.7244 401.5,84.5 Z"/></g>
<g><path style="opacity:1" fill="#6a5911" d="M 412.5,85.5 C 415.495,85.2938 418.162,85.9605 420.5,87.5C 417.505,87.7062 414.838,87.0395 412.5,85.5 Z"/></g>
<g><path style="opacity:1" fill="#524506" d="M 393.5,82.5 C 394.833,82.5 396.167,82.5 397.5,82.5C 398.568,83.4345 399.901,83.7678 401.5,83.5C 401.5,83.8333 401.5,84.1667 401.5,84.5C 398.505,84.7062 395.838,84.0395 393.5,82.5 Z"/></g>
<g><path style="opacity:1" fill="#fbd725" d="M 353.5,62.5 C 365.4,65.2416 377.4,67.5749 389.5,69.5C 391.515,70.9238 393.848,71.5905 396.5,71.5C 407.485,73.2972 418.485,74.9639 429.5,76.5C 433.565,78.3246 437.899,79.6579 442.5,80.5C 442.667,95.837 442.5,111.17 442,126.5C 440.688,148.157 439.521,169.824 438.5,191.5C 437.061,184.654 435.728,177.654 434.5,170.5C 434.167,171.5 433.833,172.5 433.5,173.5C 434.556,176.918 435.223,180.418 435.5,184C 436.709,189.616 434.875,193.783 430,196.5C 428.606,184.22 428.106,171.886 428.5,159.5C 430.484,144.871 431.15,129.871 430.5,114.5C 430.5,113.5 430.5,112.5 430.5,111.5C 431.82,103.657 431.82,95.6572 430.5,87.5C 421.011,84.9744 411.344,83.6411 401.5,83.5C 399.901,83.7678 398.568,83.4345 397.5,82.5C 394.731,81.0278 391.731,79.8611 388.5,79C 381.057,78.7689 373.724,77.7689 366.5,76C 369.23,74.7684 369.063,73.935 366,73.5C 363.538,74.1595 361.038,74.4928 358.5,74.5C 358.749,71.4246 357.415,70.7579 354.5,72.5C 350.939,71.1932 347.273,70.3598 343.5,70C 344.779,68.3539 346.445,67.1872 348.5,66.5C 347.359,65.5745 347.359,64.7412 348.5,64C 350.154,63.3923 351.821,62.8923 353.5,62.5 Z"/></g>
<g><path style="opacity:1" fill="#241d02" d="M 441.5,78.5 C 443.144,78.2865 444.644,78.6198 446,79.5C 446.671,95.7226 445.838,111.723 443.5,127.5C 444.166,111.509 444.5,95.5087 444.5,79.5C 443.209,79.7373 442.209,79.404 441.5,78.5 Z"/></g>
<g><path style="opacity:1" fill="#fbd725" d="M 108.5,70.5 C 109.5,70.5 110.5,70.5 111.5,70.5C 112.833,70.5 114.167,70.5 115.5,70.5C 120.495,70.0398 125.162,71.0398 129.5,73.5C 126.998,73.6213 124.332,73.7879 121.5,74C 116.268,76.6621 110.602,79.4954 104.5,82.5C 104.167,82.5 103.833,82.5 103.5,82.5C 97.3022,82.8392 91.1356,83.5058 85,84.5C 81.8237,84.2567 78.6571,83.9234 75.5,83.5C 70.2704,84.065 70.2704,84.8983 75.5,86C 72.0199,86.3012 68.6866,87.1345 65.5,88.5C 67.4618,110.422 68.6285,132.422 69,154.5C 69.6145,159.015 70.4478,163.348 71.5,167.5C 71.5,168.167 71.5,168.833 71.5,169.5C 71.354,187.275 72.5206,204.941 75,222.5C 75.3826,223.056 75.8826,223.389 76.5,223.5C 76.7581,230.088 76.9248,236.421 77,242.5C 74.5681,239.115 73.9015,235.449 75,231.5C 74.6667,232.167 74.3333,232.833 74,233.5C 73.7104,231.956 73.0437,230.623 72,229.5C 70.7567,230.336 69.5901,230.003 68.5,228.5C 67.1634,225.761 65.83,223.094 64.5,220.5C 63.9084,217.873 63.5751,215.206 63.5,212.5C 63.1553,203.828 62.6553,195.162 62,186.5C 61.79,184.942 61.29,183.609 60.5,182.5C 59.0671,148.511 58.2338,114.511 58,80.5C 63.0405,79.5981 67.8739,78.2648 72.5,76.5C 72.8333,76.5 73.1667,76.5 73.5,76.5C 85.9283,77.7954 97.595,75.7954 108.5,70.5 Z"/></g>
<g><path style="opacity:1" fill="#e2c334" d="M 108.5,70.5 C 97.595,75.7954 85.9283,77.7954 73.5,76.5C 84.998,74.2706 96.6647,72.2706 108.5,70.5 Z"/></g>
<g><path style="opacity:1" fill="#11100e" d="M 330.5,68.5 C 327.036,68.5591 323.703,67.8924 320.5,66.5C 317.488,66.1787 316.155,67.512 316.5,70.5C 317.5,70.5 318.5,70.5 319.5,70.5C 319.66,72.1992 319.494,73.8659 319,75.5C 316.772,73.8866 314.272,73.22 311.5,73.5C 311.5,74.8333 311.5,76.1667 311.5,77.5C 312.833,77.5 314.167,77.5 315.5,77.5C 315.838,80.3252 314.838,82.4918 312.5,84C 315.303,84.615 317.636,85.7817 319.5,87.5C 316.753,87.8134 314.086,87.48 311.5,86.5C 309.868,82.91 308.534,79.2433 307.5,75.5C 310.133,72.5075 312.466,69.1741 314.5,65.5C 313.638,63.233 311.971,62.233 309.5,62.5C 309.649,63.552 309.483,64.552 309,65.5C 308.097,64.2986 306.931,63.4652 305.5,63C 306.328,62.0853 307.328,61.4186 308.5,61C 307.5,60.6667 306.5,60.3333 305.5,60C 298.947,60.9429 292.281,61.4429 285.5,61.5C 285.67,62.8221 285.337,63.9887 284.5,65C 281.222,66.6475 278.055,68.4808 275,70.5C 274.517,71.448 274.351,72.448 274.5,73.5C 264.255,76.5241 261.589,83.0241 266.5,93C 266.494,95.0326 266.161,96.866 265.5,98.5C 265.083,92.8302 263.749,87.4968 261.5,82.5C 261.351,81.448 261.517,80.448 262,79.5C 266.5,75.6667 271,71.8333 275.5,68C 269.61,66.7547 263.61,66.088 257.5,66C 254.962,60.4234 252.295,54.9234 249.5,49.5C 247.016,52.8008 245.349,56.4674 244.5,60.5C 243.609,62.2905 242.609,64.1239 241.5,66C 235.461,66.3365 229.461,67.0032 223.5,68C 227.762,71.7169 231.928,75.5502 236,79.5C 236.115,84.7444 235.282,89.7444 233.5,94.5C 234.003,89.8276 234.169,85.1609 234,80.5C 232.085,83.8623 231.085,87.529 231,91.5C 229.989,90.6634 228.822,90.33 227.5,90.5C 227.208,87.2346 227.875,84.2346 229.5,81.5C 229.167,80.8333 228.833,80.1667 228.5,79.5C 227.121,82.3075 225.454,84.9741 223.5,87.5C 222.049,85.4411 220.049,84.4411 217.5,84.5C 217.5,85.5 217.5,86.5 217.5,87.5C 221.806,87.3029 223.806,89.3029 223.5,93.5C 219.807,93.8143 217.473,92.1477 216.5,88.5C 215.311,87.5713 213.978,87.238 212.5,87.5C 212.67,88.8221 212.337,89.9887 211.5,91C 208.586,92.7838 205.586,94.2838 202.5,95.5C 204.606,92.9454 206.94,90.6121 209.5,88.5C 205.5,87.8333 201.5,87.1667 197.5,86.5C 195.651,82.8022 193.818,79.1356 192,75.5C 190.568,79.5311 188.734,83.3645 186.5,87C 173.487,85.9882 172.32,88.8215 183,95.5C 183.641,99.1547 183.141,102.655 181.5,106C 181.833,106.833 182.167,107.667 182.5,108.5C 185.833,106.5 189.167,104.5 192.5,102.5C 193.522,102.855 194.189,103.522 194.5,104.5C 193.127,104.343 191.793,104.51 190.5,105C 188.085,107.221 185.418,109.055 182.5,110.5C 180.533,109.318 179.2,109.985 178.5,112.5C 173.96,110.89 172.96,111.89 175.5,115.5C 175.167,115.833 174.833,116.167 174.5,116.5C 172.408,113.848 169.742,113.014 166.5,114C 168.444,116.153 168.944,118.653 168,121.5C 167.184,122.823 166.017,123.489 164.5,123.5C 165.141,122.518 165.807,121.518 166.5,120.5C 156.075,122.554 147.075,127.554 139.5,135.5C 137.666,134.506 135.999,134.506 134.5,135.5C 125.625,140.042 119.625,147.042 116.5,156.5C 115.849,155.909 115.182,155.243 114.5,154.5C 113.893,154.624 113.56,154.957 113.5,155.5C 112.833,155.5 112.5,155.833 112.5,156.5C 111.425,155.438 110.425,155.438 109.5,156.5C 107.486,160.258 105.486,163.924 103.5,167.5C 101.175,175.995 100.009,184.662 100,193.5C 98.583,194.078 97.7496,195.078 97.5,196.5C 94.5635,205.447 93.8969,214.447 95.5,223.5C 95.4013,226.237 95.7347,228.904 96.5,231.5C 96.9086,234.855 96.2419,237.855 94.5,240.5C 93.4749,241.374 92.8082,242.541 92.5,244C 93.1993,248.49 93.8659,252.99 94.5,257.5C 93.1209,261.23 93.2876,264.897 95,268.5C 101.912,272.336 102.745,277.003 97.5,282.5C 99.1616,284.311 99.3282,285.978 98,287.5C 95.6635,285.458 93.8301,283.124 92.5,280.5C 90.0647,274.702 87.898,268.702 86,262.5C 82.6442,249.413 79.4775,236.413 76.5,223.5C 74.5424,205.386 72.8758,187.386 71.5,169.5C 71.5,168.833 71.5,168.167 71.5,167.5C 70.3911,141.498 69.5578,115.498 69,89.5C 80.5605,86.9932 92.0605,84.6599 103.5,82.5C 103.833,82.5 104.167,82.5 104.5,82.5C 128.297,78.9739 151.63,73.4739 174.5,66C 200.103,56.1133 225.27,45.28 250,33.5C 264.952,39.89 279.786,46.7233 294.5,54C 306.476,59.1637 318.476,63.997 330.5,68.5 Z"/></g>
<g><path style="opacity:1" fill="#e7c538" d="M 244.5,60.5 C 244.756,62.7925 244.423,64.9592 243.5,67C 240.073,68.7595 236.406,69.9262 232.5,70.5C 233.689,71.4287 235.022,71.762 236.5,71.5C 236.649,72.552 236.483,73.552 236,74.5C 235.107,73.2888 234.274,73.2888 233.5,74.5C 234.714,76.0691 236.381,76.9024 238.5,77C 238.069,82.383 237.569,87.883 237,93.5C 238.754,91.75 240.921,91.0833 243.5,91.5C 240.738,93.7247 237.738,95.7247 234.5,97.5C 233.614,96.675 233.281,95.675 233.5,94.5C 235.282,89.7444 236.115,84.7444 236,79.5C 231.928,75.5502 227.762,71.7169 223.5,68C 229.461,67.0032 235.461,66.3365 241.5,66C 242.609,64.1239 243.609,62.2905 244.5,60.5 Z"/></g>
<g><path style="opacity:1" fill="#f4cb26" d="M 261.5,82.5 C 262.162,86.4659 262.495,90.4659 262.5,94.5C 261.5,94.5 260.5,94.5 259.5,94.5C 256.161,92.8226 252.827,91.1559 249.5,89.5C 247.484,90.1776 245.484,90.8443 243.5,91.5C 240.921,91.0833 238.754,91.75 237,93.5C 237.569,87.883 238.069,82.383 238.5,77C 236.381,76.9024 234.714,76.0691 233.5,74.5C 234.274,73.2888 235.107,73.2888 236,74.5C 236.483,73.552 236.649,72.552 236.5,71.5C 235.022,71.762 233.689,71.4287 232.5,70.5C 236.406,69.9262 240.073,68.7595 243.5,67C 244.423,64.9592 244.756,62.7925 244.5,60.5C 245.349,56.4674 247.016,52.8008 249.5,49.5C 252.295,54.9234 254.962,60.4234 257.5,66C 263.61,66.088 269.61,66.7547 275.5,68C 271,71.8333 266.5,75.6667 262,79.5C 261.517,80.448 261.351,81.448 261.5,82.5 Z"/></g>
<g><path style="opacity:1" fill="#78681c" d="M 389.5,69.5 C 392.152,69.4095 394.485,70.0762 396.5,71.5C 393.848,71.5905 391.515,70.9238 389.5,69.5 Z"/></g>
<g><path style="opacity:1" fill="#b69d32" d="M 123.5,67.5 C 123.389,68.1174 123.056,68.6174 122.5,69C 119.964,69.1862 117.631,69.6862 115.5,70.5C 114.167,70.5 112.833,70.5 111.5,70.5C 115.159,68.6578 119.159,67.6578 123.5,67.5 Z"/></g>
<g><path style="opacity:1" fill="#100f0f" d="M 307.5,75.5 C 304.785,78.5834 302.785,82.2501 301.5,86.5C 297.204,87.3275 292.871,87.8275 288.5,88C 292.314,90.6465 295.647,93.8132 298.5,97.5C 297.578,100.684 296.578,103.851 295.5,107C 295.833,107.5 296.167,108 296.5,108.5C 299.833,106.5 303.167,104.5 306.5,102.5C 309.833,104.5 313.167,106.5 316.5,108.5C 316.833,107.833 317.167,107.167 317.5,106.5C 315.909,102.958 315.409,99.2913 316,95.5C 318.795,93.7068 321.295,91.5402 323.5,89C 322.437,87.8118 321.103,87.3118 319.5,87.5C 317.636,85.7817 315.303,84.615 312.5,84C 314.838,82.4918 315.838,80.3252 315.5,77.5C 314.167,77.5 312.833,77.5 311.5,77.5C 311.5,76.1667 311.5,74.8333 311.5,73.5C 314.272,73.22 316.772,73.8866 319,75.5C 319.494,73.8659 319.66,72.1992 319.5,70.5C 318.5,70.5 317.5,70.5 316.5,70.5C 316.155,67.512 317.488,66.1787 320.5,66.5C 323.703,67.8924 327.036,68.5591 330.5,68.5C 351.179,74.5863 372.179,79.253 393.5,82.5C 395.838,84.0395 398.505,84.7062 401.5,84.5C 405.179,84.7244 408.846,85.0578 412.5,85.5C 414.838,87.0395 417.505,87.7062 420.5,87.5C 422.806,87.9926 425.139,88.3259 427.5,88.5C 429.425,96.8993 430.092,105.566 429.5,114.5C 429.627,125.852 429.294,137.185 428.5,148.5C 427.778,148.082 427.278,147.416 427,146.5C 426.803,163.882 425.803,181.216 424,198.5C 421.57,212.014 419.737,225.68 418.5,239.5C 417.809,244.26 416.809,248.926 415.5,253.5C 413.604,257.077 411.771,260.744 410,264.5C 409.592,261.58 408.259,259.246 406,257.5C 405.911,261.028 405.244,264.362 404,267.5C 403.333,263.5 403.333,259.5 404,255.5C 406.8,257.118 408.3,256.285 408.5,253C 406.831,248.654 406.164,244.154 406.5,239.5C 411.772,239.392 413.939,236.725 413,231.5C 411.667,233.5 410.333,235.5 409,237.5C 406.844,233.101 407.511,229.101 411,225.5C 412.197,227.883 413.03,227.55 413.5,224.5C 412.579,222.87 411.745,221.203 411,219.5C 409.984,222.88 408.317,225.88 406,228.5C 404.303,227.636 403.137,226.303 402.5,224.5C 404.378,218.969 404.878,213.302 404,207.5C 403.555,202.335 402.055,197.669 399.5,193.5C 398.833,193.5 398.167,193.5 397.5,193.5C 397.655,181.457 394.822,170.124 389,159.5C 388.329,158.748 387.496,158.414 386.5,158.5C 385.833,157.5 385.167,156.5 384.5,155.5C 384.241,151.932 382.241,150.599 378.5,151.5C 374.717,143.216 368.717,137.05 360.5,133C 359.251,132.26 358.251,132.427 357.5,133.5C 356.833,133.833 356.167,134.167 355.5,134.5C 348.506,126.659 339.84,121.326 329.5,118.5C 328.479,119.002 328.312,119.668 329,120.5C 331.04,122.37 332.873,124.37 334.5,126.5C 334.351,127.552 334.517,128.552 335,129.5C 337.316,131.47 339.149,133.804 340.5,136.5C 336.472,137.555 335.472,139.889 337.5,143.5C 338.5,143.5 339.5,143.5 340.5,143.5C 341.053,147.719 342.22,151.719 344,155.5C 346.942,157.328 348.109,159.995 347.5,163.5C 349.167,163.5 350.833,163.5 352.5,163.5C 354.167,164.5 355.5,165.833 356.5,167.5C 356.703,169.39 356.037,170.89 354.5,172C 354.961,174.056 355.628,176.389 356.5,179C 356.355,180.226 356.022,181.393 355.5,182.5C 356.274,183.711 357.107,183.711 358,182.5C 359.38,188.265 362.047,193.265 366,197.5C 366.49,198.793 366.657,200.127 366.5,201.5C 365.339,206.231 365.672,210.897 367.5,215.5C 367.704,218.518 368.037,221.518 368.5,224.5C 369.554,229.582 368.054,233.582 364,236.5C 363.359,240.871 362.526,245.204 361.5,249.5C 361.685,250.584 362.018,251.584 362.5,252.5C 362.5,253.167 362.5,253.833 362.5,254.5C 360.862,258.876 360.029,263.542 360,268.5C 359.172,263.826 357.172,263.492 354,267.5C 352.844,266.007 352.01,266.174 351.5,268C 352.056,269.011 352.722,269.844 353.5,270.5C 353.5,271.167 353.5,271.833 353.5,272.5C 348.572,278.011 344.906,284.345 342.5,291.5C 341.603,290.402 340.77,290.402 340,291.5C 339.348,294.515 337.848,296.849 335.5,298.5C 326.427,306.068 317.76,314.235 309.5,323C 306.536,325.81 303.202,327.976 299.5,329.5C 291.976,330.32 284.809,331.987 278,334.5C 268.033,331.498 258.366,332.165 249,336.5C 247.941,336.37 247.108,335.87 246.5,335C 237.5,334.333 228.5,334.333 219.5,335C 217.214,336.664 214.881,336.83 212.5,335.5C 205.964,333.567 199.63,331.067 193.5,328C 186.97,322.301 180.637,316.467 174.5,310.5C 173.731,307.316 173.731,304.316 174.5,301.5C 173.108,302.605 171.941,303.939 171,305.5C 169.59,304.213 168.09,303.046 166.5,302C 167.624,301.751 168.624,301.251 169.5,300.5C 168.224,299.355 166.891,299.355 165.5,300.5C 163.363,299.132 161.03,298.132 158.5,297.5C 157.444,292.409 155.61,287.742 153,283.5C 152.184,282.177 151.017,281.511 149.5,281.5C 148.4,280.395 147.733,279.062 147.5,277.5C 144.484,271.454 140.984,265.787 137,260.5C 135.572,252.072 133.739,243.738 131.5,235.5C 130.5,235.5 129.5,235.5 128.5,235.5C 128.882,232.354 128.882,229.354 128.5,226.5C 128.931,222.663 129.598,218.997 130.5,215.5C 132.145,210.766 132.811,205.766 132.5,200.5C 131.448,200.649 130.448,200.483 129.5,200C 130.987,197.515 132.821,195.348 135,193.5C 135.333,191.833 135.667,190.167 136,188.5C 138.353,187.182 138.853,185.515 137.5,183.5C 138.162,180.852 138.829,178.185 139.5,175.5C 139.457,174.584 139.124,173.917 138.5,173.5C 141.31,171.026 143.31,168.026 144.5,164.5C 146.811,160.66 148.977,156.66 151,152.5C 151.977,150.26 152.477,147.927 152.5,145.5C 151.909,144.849 151.243,144.182 150.5,143.5C 151.738,141.363 153.571,140.029 156,139.5C 156.494,137.866 156.66,136.199 156.5,134.5C 158.787,134.276 160.953,133.609 163,132.5C 163.772,132.645 164.439,132.978 165,133.5C 165.896,130.975 165.396,128.808 163.5,127C 164.337,125.989 164.67,124.822 164.5,123.5C 166.017,123.489 167.184,122.823 168,121.5C 168.944,118.653 168.444,116.153 166.5,114C 169.742,113.014 172.408,113.848 174.5,116.5C 174.833,116.167 175.167,115.833 175.5,115.5C 172.96,111.89 173.96,110.89 178.5,112.5C 179.2,109.985 180.533,109.318 182.5,110.5C 185.418,109.055 188.085,107.221 190.5,105C 191.793,104.51 193.127,104.343 194.5,104.5C 197.689,105.514 200.522,107.18 203,109.5C 202.526,105.507 201.693,101.507 200.5,97.5C 200.855,96.4777 201.522,95.811 202.5,95.5C 205.586,94.2838 208.586,92.7838 211.5,91C 212.337,89.9887 212.67,88.8221 212.5,87.5C 213.978,87.238 215.311,87.5713 216.5,88.5C 217.473,92.1477 219.807,93.8143 223.5,93.5C 223.806,89.3029 221.806,87.3029 217.5,87.5C 217.5,86.5 217.5,85.5 217.5,84.5C 220.049,84.4411 222.049,85.4411 223.5,87.5C 225.454,84.9741 227.121,82.3075 228.5,79.5C 228.833,80.1667 229.167,80.8333 229.5,81.5C 227.875,84.2346 227.208,87.2346 227.5,90.5C 228.822,90.33 229.989,90.6634 231,91.5C 231.085,87.529 232.085,83.8623 234,80.5C 234.169,85.1609 234.003,89.8276 233.5,94.5C 233.281,95.675 233.614,96.675 234.5,97.5C 237.738,95.7247 240.738,93.7247 243.5,91.5C 245.484,90.8443 247.484,90.1776 249.5,89.5C 252.827,91.1559 256.161,92.8226 259.5,94.5C 261.205,96.1921 263.205,97.5254 265.5,98.5C 266.161,96.866 266.494,95.0326 266.5,93C 261.589,83.0241 264.255,76.5241 274.5,73.5C 274.351,72.448 274.517,71.448 275,70.5C 278.055,68.4808 281.222,66.6475 284.5,65C 285.337,63.9887 285.67,62.8221 285.5,61.5C 292.281,61.4429 298.947,60.9429 305.5,60C 306.5,60.3333 307.5,60.6667 308.5,61C 307.328,61.4186 306.328,62.0853 305.5,63C 306.931,63.4652 308.097,64.2986 309,65.5C 309.483,64.552 309.649,63.552 309.5,62.5C 311.971,62.233 313.638,63.233 314.5,65.5C 312.466,69.1741 310.133,72.5075 307.5,75.5 Z"/></g>
<g><path style="opacity:1" fill="#bebebc" d="M 239.5,273.5 C 239.594,276.068 240.928,277.568 243.5,278C 260.818,281.711 277.818,280.545 294.5,274.5C 292.218,278.893 289.552,283.059 286.5,287C 276.182,292.663 265.182,295.33 253.5,295C 246.674,291.831 240.841,287.331 236,281.5C 236.329,278.505 237.496,275.838 239.5,273.5 Z"/></g>
<g><path style="opacity:1" fill="#bcbcba" d="M 199.5,272.5 C 210.006,278.444 221.339,281.778 233.5,282.5C 239.059,288.613 245.393,293.78 252.5,298C 251.5,299.667 250.5,301.333 249.5,303C 228.217,302.939 209.717,295.772 194,281.5C 195.268,278.325 197.101,275.325 199.5,272.5 Z"/></g>
<g><path style="opacity:1" fill="#bcbcba" d="M 324.5,255.5 C 317.691,269.811 307.524,281.145 294,289.5C 292.274,289.054 290.774,288.221 289.5,287C 293.752,281.986 297.085,276.486 299.5,270.5C 299.56,271.043 299.893,271.376 300.5,271.5C 303.673,269.413 307.006,267.579 310.5,266C 315.062,262.259 319.729,258.759 324.5,255.5 Z"/></g>
<g><path style="opacity:1" fill="#7f702c" d="M 376.5,253.5 C 377.167,257.5 377.833,261.5 378.5,265.5C 378.44,266.043 378.107,266.376 377.5,266.5C 376.508,262.217 376.174,257.884 376.5,253.5 Z"/></g>
<g><path style="opacity:1" fill="#e9e9e7" d="M 294.5,274.5 C 277.818,280.545 260.818,281.711 243.5,278C 240.928,277.568 239.594,276.068 239.5,273.5C 241.306,267.941 242.64,262.274 243.5,256.5C 255.986,256.449 267.32,252.782 277.5,245.5C 283.127,252.466 290.127,257.466 298.5,260.5C 298.095,265.456 296.762,270.123 294.5,274.5 Z"/></g>
<g><path style="opacity:1" fill="#e6e6e4" d="M 324.5,255.5 C 319.729,258.759 315.062,262.259 310.5,266C 307.006,267.579 303.673,269.413 300.5,271.5C 299.893,271.376 299.56,271.043 299.5,270.5C 300.224,267.157 301.057,263.824 302,260.5C 309.857,254.808 316.357,247.808 321.5,239.5C 323.943,241.055 326.61,241.722 329.5,241.5C 328.23,246.312 326.563,250.978 324.5,255.5 Z"/></g>
<g><path style="opacity:1" fill="#cdb33c" d="M 371.5,256.5 C 370.073,252.641 368.739,248.641 367.5,244.5C 366.265,245.34 365.265,246.34 364.5,247.5C 364.756,242.804 366.089,238.471 368.5,234.5C 369.39,241.857 370.39,249.19 371.5,256.5 Z"/></g>
<g><path style="opacity:1" fill="#bcbcba" d="M 171.5,218.5 C 172.496,218.414 173.329,218.748 174,219.5C 178.281,226.115 182.947,232.448 188,238.5C 188.617,249.808 191.784,260.308 197.5,270C 196.114,273.391 193.948,276.225 191,278.5C 175.328,263.152 167.328,244.485 167,222.5C 168.667,221.267 170.167,219.933 171.5,218.5 Z"/></g>
<g><path style="opacity:1" fill="#f3d12e" d="M 397.5,193.5 C 398.167,193.5 398.833,193.5 399.5,193.5C 403.095,206.04 403.428,218.707 400.5,231.5C 394.686,243.788 387.353,255.122 378.5,265.5C 377.833,261.5 377.167,257.5 376.5,253.5C 374.604,243.497 371.937,233.831 368.5,224.5C 368.037,221.518 367.704,218.518 367.5,215.5C 367.74,212.421 367.407,209.421 366.5,206.5C 367.425,205.438 368.425,205.438 369.5,206.5C 374.495,214.484 378.995,222.818 383,231.5C 383.333,235.5 383.667,239.5 384,243.5C 386.815,232.869 390.481,222.536 395,212.5C 396.886,206.303 397.72,199.97 397.5,193.5 Z"/></g>
<g><path style="opacity:1" fill="#1a1404" d="M 378.5,151.5 C 382.241,150.599 384.241,151.932 384.5,155.5C 383.849,154.909 383.182,154.243 382.5,153.5C 382.167,153.833 381.833,154.167 381.5,154.5C 383.309,157.593 384.309,160.926 384.5,164.5C 383.748,176.818 383.248,189.152 383,201.5C 382.768,200.263 382.268,199.263 381.5,198.5C 380.191,195.222 378.358,192.222 376,189.5C 369.35,184.017 363.183,178.017 357.5,171.5C 357.167,172.167 356.833,172.833 356.5,173.5C 360.997,186.831 367.831,198.831 377,209.5C 380.246,214.911 382.913,220.577 385,226.5C 392.147,210.579 395.147,193.912 394,176.5C 393.79,174.942 393.29,173.609 392.5,172.5C 391.597,167.361 389.597,162.694 386.5,158.5C 387.496,158.414 388.329,158.748 389,159.5C 394.822,170.124 397.655,181.457 397.5,193.5C 397.72,199.97 396.886,206.303 395,212.5C 390.481,222.536 386.815,232.869 384,243.5C 383.667,239.5 383.333,235.5 383,231.5C 378.995,222.818 374.495,214.484 369.5,206.5C 369.25,204.326 368.25,202.659 366.5,201.5C 366.657,200.127 366.49,198.793 366,197.5C 362.047,193.265 359.38,188.265 358,182.5C 357.107,183.711 356.274,183.711 355.5,182.5C 356.022,181.393 356.355,180.226 356.5,179C 355.628,176.389 354.961,174.056 354.5,172C 356.037,170.89 356.703,169.39 356.5,167.5C 359.214,170.215 362.214,172.549 365.5,174.5C 367.091,176.633 369.091,178.299 371.5,179.5C 374.215,182.214 376.549,185.214 378.5,188.5C 378.56,189.043 378.893,189.376 379.5,189.5C 380.823,178.674 380.823,168.007 379.5,157.5C 379.483,155.435 379.15,153.435 378.5,151.5 Z"/></g>
<g><path style="opacity:1" fill="#b3b3b1" d="M 177.5,203.5 C 178.238,212.201 180.238,220.534 183.5,228.5C 180.011,224.199 177.011,219.533 174.5,214.5C 175.136,210.608 176.136,206.942 177.5,203.5 Z"/></g>
<g><path style="opacity:1" fill="#f5d32f" d="M 392.5,172.5 C 393.29,173.609 393.79,174.942 394,176.5C 395.147,193.912 392.147,210.579 385,226.5C 382.913,220.577 380.246,214.911 377,209.5C 367.831,198.831 360.997,186.831 356.5,173.5C 356.833,172.833 357.167,172.167 357.5,171.5C 363.183,178.017 369.35,184.017 376,189.5C 378.358,192.222 380.191,195.222 381.5,198.5C 381.343,199.873 381.51,201.207 382,202.5C 383,203.833 384,203.833 385,202.5C 385.167,189.487 385.667,176.487 386.5,163.5C 388.77,166.39 390.77,169.39 392.5,172.5 Z"/></g>
<g><path style="opacity:1" fill="#bba740" d="M 366.5,201.5 C 368.25,202.659 369.25,204.326 369.5,206.5C 368.425,205.438 367.425,205.438 366.5,206.5C 367.407,209.421 367.74,212.421 367.5,215.5C 365.672,210.897 365.339,206.231 366.5,201.5 Z"/></g>
<g><path style="opacity:1" fill="#e9e9e8" d="M 315.5,181.5 C 318.119,181.232 320.619,181.565 323,182.5C 332.454,200.563 334.954,219.563 330.5,239.5C 327.801,239.534 325.301,238.867 323,237.5C 322.35,227.581 319.684,218.248 315,209.5C 315.276,200.193 315.442,190.859 315.5,181.5 Z"/></g>
<g><path style="opacity:1" fill="#e9e9e7" d="M 253.5,185.5 C 255.199,185.34 256.866,185.506 258.5,186C 268.011,194.678 277.344,203.512 286.5,212.5C 281.768,222.028 278.435,232.028 276.5,242.5C 266.695,249.824 255.695,253.657 243.5,254C 235.356,245.524 226.856,237.358 218,229.5C 216.244,216.104 219.744,204.27 228.5,194C 237.002,191.301 245.335,188.468 253.5,185.5 Z"/></g>
<g><path style="opacity:1" fill="#978634" d="M 379.5,157.5 C 380.823,168.007 380.823,178.674 379.5,189.5C 378.893,189.376 378.56,189.043 378.5,188.5C 379.494,178.347 379.828,168.014 379.5,157.5 Z"/></g>
<g><path style="opacity:1" fill="#e9e9e7" d="M 183.5,228.5 C 180.238,220.534 178.238,212.201 177.5,203.5C 178.561,195.215 181.894,188.049 187.5,182C 194.514,176.325 202.514,173.159 211.5,172.5C 213.91,180.982 218.577,187.982 225.5,193.5C 218.131,203.604 214.131,214.937 213.5,227.5C 205.039,228.765 197.039,231.431 189.5,235.5C 187.265,233.362 185.265,231.029 183.5,228.5 Z"/></g>
<g><path style="opacity:1" fill="#fbd625" d="M 371.5,179.5 C 369.091,178.299 367.091,176.633 365.5,174.5C 365.273,172.003 363.94,170.336 361.5,169.5C 362.33,167.865 362.497,166.198 362,164.5C 363.113,163.289 364.28,163.289 365.5,164.5C 367.543,166.208 369.21,168.208 370.5,170.5C 371.672,170.081 372.672,169.415 373.5,168.5C 372.262,165.834 372.262,163.168 373.5,160.5C 374.736,161.246 376.07,161.579 377.5,161.5C 377.762,160.022 377.429,158.689 376.5,157.5C 375.15,158.95 373.484,159.617 371.5,159.5C 371.192,157.076 371.526,154.743 372.5,152.5C 374.134,152.968 375.3,153.968 376,155.5C 377.016,154.366 377.683,154.699 378,156.5C 378.5,163.492 378.666,170.492 378.5,177.5C 376.167,178.167 373.833,178.833 371.5,179.5 Z"/></g>
<g><path style="opacity:1" fill="#f1d132" d="M 357.5,133.5 C 358.251,132.427 359.251,132.26 360.5,133C 368.717,137.05 374.717,143.216 378.5,151.5C 379.15,153.435 379.483,155.435 379.5,157.5C 379.828,168.014 379.494,178.347 378.5,188.5C 376.549,185.214 374.215,182.214 371.5,179.5C 373.833,178.833 376.167,178.167 378.5,177.5C 378.666,170.492 378.5,163.492 378,156.5C 377.683,154.699 377.016,154.366 376,155.5C 375.3,153.968 374.134,152.968 372.5,152.5C 371.526,154.743 371.192,157.076 371.5,159.5C 373.484,159.617 375.15,158.95 376.5,157.5C 377.429,158.689 377.762,160.022 377.5,161.5C 376.07,161.579 374.736,161.246 373.5,160.5C 372.262,163.168 372.262,165.834 373.5,168.5C 372.672,169.415 371.672,170.081 370.5,170.5C 369.21,168.208 367.543,166.208 365.5,164.5C 364.28,163.289 363.113,163.289 362,164.5C 362.497,166.198 362.33,167.865 361.5,169.5C 363.94,170.336 365.273,172.003 365.5,174.5C 362.214,172.549 359.214,170.215 356.5,167.5C 355.5,165.833 354.167,164.5 352.5,163.5C 346.936,158.374 344.103,152.041 344,144.5C 350.593,151.721 358.093,157.887 366.5,163C 368.359,164.558 369.859,166.391 371,168.5C 369.779,159.743 367.779,151.076 365,142.5C 363.389,138.725 360.889,135.725 357.5,133.5 Z"/></g>
<g><path style="opacity:1" fill="#1d1604" d="M 334.5,126.5 C 342.721,138.89 352.887,149.557 365,158.5C 364.296,149.559 361.129,141.559 355.5,134.5C 356.167,134.167 356.833,133.833 357.5,133.5C 360.889,135.725 363.389,138.725 365,142.5C 367.779,151.076 369.779,159.743 371,168.5C 369.859,166.391 368.359,164.558 366.5,163C 358.093,157.887 350.593,151.721 344,144.5C 344.103,152.041 346.936,158.374 352.5,163.5C 350.833,163.5 349.167,163.5 347.5,163.5C 348.109,159.995 346.942,157.328 344,155.5C 342.22,151.719 341.053,147.719 340.5,143.5C 339.5,143.5 338.5,143.5 337.5,143.5C 335.472,139.889 336.472,137.555 340.5,136.5C 339.149,133.804 337.316,131.47 335,129.5C 334.517,128.552 334.351,127.552 334.5,126.5 Z"/></g>
<g><path style="opacity:1" fill="#d3ba3d" d="M 384.5,155.5 C 385.167,156.5 385.833,157.5 386.5,158.5C 389.597,162.694 391.597,167.361 392.5,172.5C 390.77,169.39 388.77,166.39 386.5,163.5C 385.667,176.487 385.167,189.487 385,202.5C 384,203.833 383,203.833 382,202.5C 381.51,201.207 381.343,199.873 381.5,198.5C 382.268,199.263 382.768,200.263 383,201.5C 383.248,189.152 383.748,176.818 384.5,164.5C 384.309,160.926 383.309,157.593 381.5,154.5C 381.833,154.167 382.167,153.833 382.5,153.5C 383.182,154.243 383.849,154.909 384.5,155.5 Z"/></g>
<g><path style="opacity:1" fill="#f9f9f9" d="M 312.5,179.5 C 314.415,187.58 311.415,191.08 303.5,190C 297.557,188.611 292.391,185.778 288,181.5C 284.31,177.311 280.81,172.978 277.5,168.5C 275.828,165.201 275.495,161.867 276.5,158.5C 281.68,157.185 287.014,157.185 292.5,158.5C 299.188,165.52 305.855,172.52 312.5,179.5 Z"/></g>
<g><path style="opacity:1" fill="#e8e8e6" d="M 276.5,158.5 C 275.495,161.867 275.828,165.201 277.5,168.5C 280.81,172.978 284.31,177.311 288,181.5C 292.391,185.778 297.557,188.611 303.5,190C 311.415,191.08 314.415,187.58 312.5,179.5C 313.626,188.675 313.626,198.009 312.5,207.5C 304.544,207.873 296.711,208.873 289,210.5C 279.667,201.833 270.333,193.167 261,184.5C 261.987,176.195 263.154,167.861 264.5,159.5C 268.429,158.567 272.429,158.234 276.5,158.5 Z"/></g>
<g><path style="opacity:1" fill="#eaeae9" d="M 228.5,139.5 C 230.045,140.23 230.878,141.563 231,143.5C 231.667,145.5 231.667,147.5 231,149.5C 222.167,154.333 215.333,161.167 210.5,170C 201.47,171.006 193.47,174.339 186.5,180C 185.365,180.749 184.365,180.583 183.5,179.5C 182.248,177.265 181.748,174.931 182,172.5C 193.783,156.21 209.283,145.21 228.5,139.5 Z"/></g>
<g><path style="opacity:1" fill="#dcdcdc" d="M 241.5,148.5 C 253.139,147.388 264.473,149.222 275.5,154C 280.489,154.499 285.489,154.666 290.5,154.5C 281.566,154.99 272.566,155.99 263.5,157.5C 256.584,153.31 249.25,150.31 241.5,148.5 Z"/></g>
<g><path style="opacity:1" fill="#f3d22f" d="M 355.5,134.5 C 361.129,141.559 364.296,149.559 365,158.5C 352.887,149.557 342.721,138.89 334.5,126.5C 332.873,124.37 331.04,122.37 329,120.5C 328.312,119.668 328.479,119.002 329.5,118.5C 339.84,121.326 348.506,126.659 355.5,134.5 Z"/></g>
<g><path style="opacity:1" fill="#f7f7f7" d="M 290.5,154.5 C 285.489,154.666 280.489,154.499 275.5,154C 264.473,149.222 253.139,147.388 241.5,148.5C 234.435,149.108 231.435,145.775 232.5,138.5C 252.114,135.381 270.781,138.214 288.5,147C 290.278,149.135 290.945,151.635 290.5,154.5 Z"/></g>
<g><path style="opacity:1" fill="#efc92e" d="M 307.5,75.5 C 308.534,79.2433 309.868,82.91 311.5,86.5C 314.086,87.48 316.753,87.8134 319.5,87.5C 321.103,87.3118 322.437,87.8118 323.5,89C 321.295,91.5402 318.795,93.7068 316,95.5C 315.409,99.2913 315.909,102.958 317.5,106.5C 317.167,107.167 316.833,107.833 316.5,108.5C 313.167,106.5 309.833,104.5 306.5,102.5C 303.167,104.5 299.833,106.5 296.5,108.5C 296.167,108 295.833,107.5 295.5,107C 296.578,103.851 297.578,100.684 298.5,97.5C 295.647,93.8132 292.314,90.6465 288.5,88C 292.871,87.8275 297.204,87.3275 301.5,86.5C 302.785,82.2501 304.785,78.5834 307.5,75.5 Z"/></g>
<g><path style="opacity:1" fill="#d9bb43" d="M 261.5,82.5 C 263.749,87.4968 265.083,92.8302 265.5,98.5C 263.205,97.5254 261.205,96.1921 259.5,94.5C 260.5,94.5 261.5,94.5 262.5,94.5C 262.495,90.4659 262.162,86.4659 261.5,82.5 Z"/></g>
<g><path style="opacity:1" fill="#f5d32c" d="M 353.5,62.5 C 351.821,62.8923 350.154,63.3923 348.5,64C 347.359,64.7412 347.359,65.5745 348.5,66.5C 346.445,67.1872 344.779,68.3539 343.5,70C 347.273,70.3598 350.939,71.1932 354.5,72.5C 357.415,70.7579 358.749,71.4246 358.5,74.5C 361.038,74.4928 363.538,74.1595 366,73.5C 369.063,73.935 369.23,74.7684 366.5,76C 373.724,77.7689 381.057,78.7689 388.5,79C 391.731,79.8611 394.731,81.0278 397.5,82.5C 396.167,82.5 394.833,82.5 393.5,82.5C 372.179,79.253 351.179,74.5863 330.5,68.5C 318.476,63.997 306.476,59.1637 294.5,54C 279.786,46.7233 264.952,39.89 250,33.5C 225.27,45.28 200.103,56.1133 174.5,66C 151.63,73.4739 128.297,78.9739 104.5,82.5C 110.602,79.4954 116.268,76.6621 121.5,74C 124.332,73.7879 126.998,73.6213 129.5,73.5C 125.162,71.0398 120.495,70.0398 115.5,70.5C 117.631,69.6862 119.964,69.1862 122.5,69C 123.056,68.6174 123.389,68.1174 123.5,67.5C 153.886,60.8068 183.22,50.9735 211.5,38C 224.474,31.8469 237.474,25.6802 250.5,19.5C 283.816,36.38 318.15,50.7133 353.5,62.5 Z"/></g>
</svg>
