<?xml version="1.0" encoding="UTF-8"?>
<!DOCTYPE svg PUBLIC "-//W3C//DTD SVG 1.1//EN" "http://www.w3.org/Graphics/SVG/1.1/DTD/svg11.dtd">
<svg xmlns="http://www.w3.org/2000/svg" version="1.1" width="500px" height="500px" style="shape-rendering:geometricPrecision; text-rendering:geometricPrecision; image-rendering:optimizeQuality; fill-rule:evenodd; clip-rule:evenodd" xmlns:xlink="http://www.w3.org/1999/xlink">
<g><path style="opacity:0.398" fill="#1f071a" d="M 97.5,64.5 C 198.666,63.3342 299.999,63.1675 401.5,64C 405.908,64.9158 408.908,67.4158 410.5,71.5C 409.038,70.5423 407.705,69.3756 406.5,68C 402.833,67.6667 399.167,67.3333 395.5,67C 397.497,66.2402 399.163,65.7402 400.5,65.5C 299.502,64.5 198.502,64.1667 97.5,64.5 Z"/></g>
<g><path style="opacity:1" fill="#0f123c" d="M 97.5,64.5 C 198.502,64.1667 299.502,64.5 400.5,65.5C 399.163,65.7402 397.497,66.2402 395.5,67C 399.167,67.3333 402.833,67.6667 406.5,68C 407.705,69.3756 409.038,70.5423 410.5,71.5C 410.667,144.834 410.5,218.167 410,291.5C 409.119,293.274 407.953,293.94 406.5,293.5C 408.479,296.91 408.979,300.577 408,304.5C 407.667,303.833 407.333,303.167 407,302.5C 406.501,306.152 406.335,309.818 406.5,313.5C 403.36,318.691 401.36,324.358 400.5,330.5C 399.167,330.5 397.833,330.5 396.5,330.5C 395.614,332.722 395.614,334.888 396.5,337C 395.293,338.3 394.626,339.8 394.5,341.5C 389.672,342.16 387.839,340.16 389,335.5C 390.049,336.517 391.216,336.684 392.5,336C 389.993,332.159 390.826,328.992 395,326.5C 395.163,324.324 395.996,322.491 397.5,321C 395.216,319.637 395.049,318.137 397,316.5C 398.109,320.017 399.276,320.184 400.5,317C 399.07,315.111 398.403,312.945 398.5,310.5C 400.081,304.119 401.414,297.785 402.5,291.5C 403.822,291.67 404.989,291.337 406,290.5C 406.18,288.512 406.014,286.512 405.5,284.5C 407.085,282.169 408.251,279.503 409,276.5C 409.5,211.168 409.667,145.834 409.5,80.5C 408.167,80.5 406.833,80.5 405.5,80.5C 404.848,144.921 405.515,209.254 407.5,273.5C 405.881,276.642 405.215,279.975 405.5,283.5C 404.667,216.001 404.167,148.335 404,80.5C 403.722,79.5842 403.222,78.9175 402.5,78.5C 401.592,76.1089 401.426,73.7756 402,71.5C 401.308,72.0253 400.808,72.6919 400.5,73.5C 301.836,74.5 203.169,74.8333 104.5,74.5C 101.721,74.2786 99.0545,74.612 96.5,75.5C 95.1765,76.8499 94.1765,76.6833 93.5,75C 95.7252,71.8317 97.0586,68.3317 97.5,64.5 Z"/></g>
<g><path style="opacity:1" fill="#211c33" d="M 402.5,78.5 C 401.733,77.828 401.066,76.9947 400.5,76C 301.834,75.5 203.167,75.3333 104.5,75.5C 104.5,75.1667 104.5,74.8333 104.5,74.5C 203.169,74.8333 301.836,74.5 400.5,73.5C 400.808,72.6919 401.308,72.0253 402,71.5C 401.426,73.7756 401.592,76.1089 402.5,78.5 Z"/></g>
<g><path style="opacity:1" fill="#cfab86" d="M 393.5,279.5 C 393.5,214.5 393.5,149.5 393.5,84.5C 393.785,82.712 393.452,81.0453 392.5,79.5C 391.713,80.2421 391.047,81.0754 390.5,82C 341.833,82.6667 293.167,82.6667 244.5,82C 245.833,81.3333 245.833,80.6667 244.5,80C 243.552,79.5172 242.552,79.3505 241.5,79.5C 241.5,80.5 241.5,81.5 241.5,82.5C 195.821,81.8384 150.488,82.5051 105.5,84.5C 104.335,151.999 104.168,219.665 105,287.5C 105.571,293.029 106.738,298.363 108.5,303.5C 107.835,305.369 107.169,307.369 106.5,309.5C 105.28,308.289 104.113,308.289 103,309.5C 102.998,306.949 102.164,304.949 100.5,303.5C 99.1045,299.409 98.4379,295.076 98.5,290.5C 98.1763,219.138 98.5096,147.804 99.5,76.5C 199.501,76.3333 299.501,76.5 399.5,77C 400.665,147.43 400.831,217.93 400,288.5C 398.652,294.173 397.319,299.84 396,305.5C 395.385,303.884 394.385,302.551 393,301.5C 392.628,294.16 392.795,286.827 393.5,279.5 Z"/></g>
<g><path style="opacity:1" fill="#0f113c" d="M 101.5,310.5 C 102.434,311.568 102.768,312.901 102.5,314.5C 104.519,321.104 105.853,327.937 106.5,335C 106.006,337.505 104.672,339.339 102.5,340.5C 102.785,338.712 102.452,337.045 101.5,335.5C 99.1425,330.704 96.8091,326.038 94.5,321.5C 93.8857,312.398 91.8857,303.731 88.5,295.5C 88.5,295.167 88.5,294.833 88.5,294.5C 88.5,221.167 88.5,147.833 88.5,74.5C 89.5,74.5 90.5,74.5 91.5,74.5C 91.5,76.1667 91.5,77.8333 91.5,79.5C 92.5,79.5 93.5,79.5 94.5,79.5C 94.3333,147.167 94.5,214.834 95,282.5C 96.5969,290.719 97.5969,299.052 98,307.5C 99.0391,308.71 100.206,309.71 101.5,310.5 Z"/></g>
<g><path style="opacity:1" fill="#bba191" d="M 104.5,75.5 C 203.167,75.3333 301.834,75.5 400.5,76C 401.066,76.9947 401.733,77.828 402.5,78.5C 402.667,146.501 402.5,214.501 402,282.5C 401.318,293.295 399.152,303.628 395.5,313.5C 395.874,310.028 394.874,307.028 392.5,304.5C 390.249,308.164 388.249,311.831 386.5,315.5C 388.452,308.971 389.786,302.304 390.5,295.5C 391.806,290.384 392.473,285.051 392.5,279.5C 392.833,279.5 393.167,279.5 393.5,279.5C 392.795,286.827 392.628,294.16 393,301.5C 394.385,302.551 395.385,303.884 396,305.5C 397.319,299.84 398.652,294.173 400,288.5C 400.831,217.93 400.665,147.43 399.5,77C 299.501,76.5 199.501,76.3333 99.5,76.5C 98.5096,147.804 98.1763,219.138 98.5,290.5C 97.7632,287.275 97.0965,283.941 96.5,280.5C 96.3333,213.166 96.5,145.833 97,78.5C 97.3742,77.5838 97.8742,76.7504 98.5,76C 100.473,75.5045 102.473,75.3379 104.5,75.5 Z"/></g>
<g><path style="opacity:1" fill="#0f113f" d="M 405.5,284.5 C 405.5,284.167 405.5,283.833 405.5,283.5C 405.215,279.975 405.881,276.642 407.5,273.5C 405.515,209.254 404.848,144.921 405.5,80.5C 406.833,80.5 408.167,80.5 409.5,80.5C 409.667,145.834 409.5,211.168 409,276.5C 408.251,279.503 407.085,282.169 405.5,284.5 Z"/></g>
<g><path style="opacity:1" fill="#b79f8c" d="M 393.5,84.5 C 297.5,84.5 201.5,84.5 105.5,84.5C 150.488,82.5051 195.821,81.8384 241.5,82.5C 241.5,81.5 241.5,80.5 241.5,79.5C 242.552,79.3505 243.552,79.5172 244.5,80C 245.833,80.6667 245.833,81.3333 244.5,82C 293.167,82.6667 341.833,82.6667 390.5,82C 391.047,81.0754 391.713,80.2421 392.5,79.5C 393.452,81.0453 393.785,82.712 393.5,84.5 Z"/></g>
<g><path style="opacity:1" fill="#20182b" d="M 105.5,84.5 C 201.5,84.5 297.5,84.5 393.5,84.5C 393.5,149.5 393.5,214.5 393.5,279.5C 393.167,279.5 392.833,279.5 392.5,279.5C 392.5,214.833 392.5,150.167 392.5,85.5C 297.833,85.3333 203.166,85.5 108.5,86C 106.808,87.4007 106.141,89.2341 106.5,91.5C 106.5,155.5 106.5,219.5 106.5,283.5C 105.501,217.335 105.168,151.002 105.5,84.5 Z"/></g>
<g><path style="opacity:1" fill="#0e1339" d="M 392.5,279.5 C 392.473,285.051 391.806,290.384 390.5,295.5C 389.431,229.326 389.264,162.993 390,96.5C 391.405,93.3812 391.905,90.0479 391.5,86.5C 297.833,86.3333 204.166,86.5 110.5,87C 109.167,88 109.167,89 110.5,90C 156.651,90.2195 202.651,90.7195 248.5,91.5C 247.036,97.2252 245.369,102.892 243.5,108.5C 243.5,108.833 243.5,109.167 243.5,109.5C 242.833,110.5 242.167,111.5 241.5,112.5C 243.022,106.955 243.688,101.288 243.5,95.5C 242.178,95.33 241.011,95.6634 240,96.5C 239.626,95.5838 239.126,94.7504 238.5,94C 196.262,93.1701 154.096,93.3368 112,94.5C 111.333,149.833 111.333,205.167 112,260.5C 113.112,262.39 113.946,264.39 114.5,266.5C 112.28,269.785 111.113,273.451 111,277.5C 109.837,216.306 109.003,154.972 108.5,93.5C 107.818,92.7573 107.151,92.0906 106.5,91.5C 106.141,89.2341 106.808,87.4007 108.5,86C 203.166,85.5 297.833,85.3333 392.5,85.5C 392.5,150.167 392.5,214.833 392.5,279.5 Z"/></g>
<g><path style="opacity:1" fill="#191224" d="M 104.5,74.5 C 104.5,74.8333 104.5,75.1667 104.5,75.5C 102.473,75.3379 100.473,75.5045 98.5,76C 97.8742,76.7504 97.3742,77.5838 97,78.5C 96.5,145.833 96.3333,213.166 96.5,280.5C 95.172,212.294 95.172,143.961 96.5,75.5C 99.0545,74.612 101.721,74.2786 104.5,74.5 Z"/></g>
<g><path style="opacity:1" fill="#0f123c" d="M 390.5,295.5 C 389.786,302.304 388.452,308.971 386.5,315.5C 386.167,315.5 385.833,315.5 385.5,315.5C 383.71,319.602 381.21,323.268 378,326.5C 377.139,323.632 375.472,321.298 373,319.5C 373.689,310.084 374.189,300.584 374.5,291C 374.5,282.993 374.166,275.159 373.5,267.5C 363.5,266.167 353.5,266.167 343.5,267.5C 342.5,267.5 341.5,267.5 340.5,267.5C 340.762,268.978 340.429,270.311 339.5,271.5C 338.264,270.754 336.93,270.421 335.5,270.5C 335.775,275.22 334.941,275.554 333,271.5C 332.667,271.833 332.333,272.167 332,272.5C 331.824,275.882 331.324,279.215 330.5,282.5C 329.911,279.145 328.911,275.978 327.5,273C 328.833,266.667 330.167,260.333 331.5,254C 329.48,249.743 328.147,245.243 327.5,240.5C 327.167,240.167 326.833,239.833 326.5,239.5C 325.682,242.107 325.182,244.774 325,247.5C 323.024,246.178 321.524,244.512 320.5,242.5C 318.322,237.137 315.822,231.804 313,226.5C 308.635,221.655 304.135,216.821 299.5,212C 296.968,210.235 294.301,208.735 291.5,207.5C 291.167,205.167 289.833,203.833 287.5,203.5C 274.197,196.257 259.864,192.59 244.5,192.5C 240.812,192.45 237.145,192.116 233.5,191.5C 232.167,191.833 230.833,192.167 229.5,192.5C 230.902,193.842 230.569,194.676 228.5,195C 226.236,195.236 224.069,195.736 222,196.5C 221.167,195.667 220.333,194.833 219.5,194C 221.833,193.667 224.167,193.333 226.5,193C 225.921,191.575 225.921,189.908 226.5,188C 229.146,187.503 231.813,187.336 234.5,187.5C 234.915,184.632 233.915,182.465 231.5,181C 232.687,179.981 233.687,178.814 234.5,177.5C 234,177.167 233.5,176.833 233,176.5C 229.605,179.013 225.772,180.013 221.5,179.5C 225.883,175.786 230.55,172.453 235.5,169.5C 237.044,169.703 238.378,170.37 239.5,171.5C 240.096,170.284 240.263,168.951 240,167.5C 241.441,166.74 242.941,166.074 244.5,165.5C 246.291,167.413 248.291,169.08 250.5,170.5C 251.251,169.624 251.751,168.624 252,167.5C 253.667,170.167 255.333,170.167 257,167.5C 260.489,171.563 259.322,173.23 253.5,172.5C 253.5,173.833 253.5,175.167 253.5,176.5C 256.947,176.407 260.113,175.407 263,173.5C 268.203,174.859 273.037,176.859 277.5,179.5C 278.043,179.44 278.376,179.107 278.5,178.5C 274.729,167.687 271.062,156.854 267.5,146C 269.763,144.383 271.763,142.55 273.5,140.5C 278.557,137.645 283.223,134.312 287.5,130.5C 290.312,128.924 292.978,127.09 295.5,125C 294.552,124.517 293.552,124.351 292.5,124.5C 282.675,123.67 272.675,123.17 262.5,123C 261.473,122.487 260.473,121.987 259.5,121.5C 258.565,117.03 257.232,112.697 255.5,108.5C 253.94,103.32 252.274,98.1535 250.5,93C 250.164,91.9701 249.497,91.4701 248.5,91.5C 202.651,90.7195 156.651,90.2195 110.5,90C 109.167,89 109.167,88 110.5,87C 204.166,86.5 297.833,86.3333 391.5,86.5C 391.905,90.0479 391.405,93.3812 390,96.5C 389.264,162.993 389.431,229.326 390.5,295.5 Z"/></g>
<g><path style="opacity:1" fill="#c4a995" d="M 105.5,84.5 C 105.168,151.002 105.501,217.335 106.5,283.5C 107.255,290.537 108.255,297.537 109.5,304.5C 108.833,304.5 108.5,304.167 108.5,303.5C 106.738,298.363 105.571,293.029 105,287.5C 104.168,219.665 104.335,151.999 105.5,84.5 Z"/></g>
<g><path style="opacity:1" fill="#cdae82" d="M 394.5,89.5 C 397.718,89.6509 398.051,90.4842 395.5,92C 396.829,121.787 397.496,151.787 397.5,182C 397.333,211.833 397.167,241.667 397,271.5C 395.814,210.96 394.981,150.293 394.5,89.5 Z"/></g>
<g><path style="opacity:1" fill="#1f0f28" d="M 97.5,64.5 C 97.0586,68.3317 95.7252,71.8317 93.5,75C 94.1765,76.6833 95.1765,76.8499 96.5,75.5C 95.172,143.961 95.172,212.294 96.5,280.5C 97.0965,283.941 97.7632,287.275 98.5,290.5C 98.4379,295.076 99.1045,299.409 100.5,303.5C 100.993,305.806 101.326,308.139 101.5,310.5C 100.206,309.71 99.0391,308.71 98,307.5C 97.5969,299.052 96.5969,290.719 95,282.5C 94.5,214.834 94.3333,147.167 94.5,79.5C 93.5,79.5 92.5,79.5 91.5,79.5C 91.5,77.8333 91.5,76.1667 91.5,74.5C 90.5,74.5 89.5,74.5 88.5,74.5C 88.5,147.833 88.5,221.167 88.5,294.5C 87.6805,291.695 87.1805,288.695 87,285.5C 86.3333,215.167 86.3333,144.833 87,74.5C 88.4266,68.905 91.9266,65.5717 97.5,64.5 Z"/></g>
<g><path style="opacity:1" fill="#0f123c" d="M 106.5,91.5 C 107.151,92.0906 107.818,92.7573 108.5,93.5C 109.003,154.972 109.837,216.306 111,277.5C 111.113,273.451 112.28,269.785 114.5,266.5C 113.946,264.39 113.112,262.39 112,260.5C 111.333,205.167 111.333,149.833 112,94.5C 154.096,93.3368 196.262,93.1701 238.5,94C 239.126,94.7504 239.626,95.5838 240,96.5C 241.011,95.6634 242.178,95.33 243.5,95.5C 243.688,101.288 243.022,106.955 241.5,112.5C 241.117,116.319 240.117,119.986 238.5,123.5C 226.848,124.333 215.181,124.833 203.5,125C 205.551,127.02 207.884,128.52 210.5,129.5C 217.431,134.98 224.431,140.48 231.5,146C 227.608,156.726 223.941,167.559 220.5,178.5C 220.624,179.107 220.957,179.44 221.5,179.5C 225.772,180.013 229.605,179.013 233,176.5C 233.5,176.833 234,177.167 234.5,177.5C 233.687,178.814 232.687,179.981 231.5,181C 233.915,182.465 234.915,184.632 234.5,187.5C 231.813,187.336 229.146,187.503 226.5,188C 225.921,189.908 225.921,191.575 226.5,193C 224.167,193.333 221.833,193.667 219.5,194C 220.333,194.833 221.167,195.667 222,196.5C 224.069,195.736 226.236,195.236 228.5,195C 230.569,194.676 230.902,193.842 229.5,192.5C 230.833,192.167 232.167,191.833 233.5,191.5C 237.145,192.116 240.812,192.45 244.5,192.5C 239.952,193.491 235.285,194.491 230.5,195.5C 228.145,196.659 225.812,197.659 223.5,198.5C 206.948,203.394 194.614,213.394 186.5,228.5C 186.957,229.298 187.624,229.631 188.5,229.5C 188.973,230.906 189.973,231.573 191.5,231.5C 192.492,231.328 193.158,231.662 193.5,232.5C 191.42,239.238 190.087,246.238 189.5,253.5C 187.96,255.838 187.294,258.505 187.5,261.5C 185.721,262.67 184.721,264.336 184.5,266.5C 182.833,268.5 181.167,270.5 179.5,272.5C 178.185,273.476 176.852,274.476 175.5,275.5C 177.436,282.975 179.77,290.308 182.5,297.5C 182.5,299.167 182.5,300.833 182.5,302.5C 181.5,302.5 180.5,302.5 179.5,302.5C 179.629,304.216 179.962,305.883 180.5,307.5C 179.167,331.833 179.167,356.167 180.5,380.5C 183.678,383.258 187.345,385.258 191.5,386.5C 192.167,387.167 192.833,387.833 193.5,388.5C 189.62,389.233 185.953,390.733 182.5,393C 183.872,393.402 185.205,393.902 186.5,394.5C 205.745,391.083 206.245,392.416 188,398.5C 183.763,396.904 179.596,395.238 175.5,393.5C 168.785,390.144 162.785,385.81 157.5,380.5C 156.748,378.9 155.748,377.4 154.5,376C 158.378,375.051 158.378,373.885 154.5,372.5C 153.167,371.167 153.167,369.833 154.5,368.5C 154.167,368.167 153.833,367.833 153.5,367.5C 151.999,368.752 150.332,369.752 148.5,370.5C 145.927,367.611 143.26,364.778 140.5,362C 141.428,361.612 142.095,360.945 142.5,360C 141.355,357.801 141.355,355.635 142.5,353.5C 143.149,355.624 143.983,357.624 145,359.5C 144.947,356.325 145.78,353.658 147.5,351.5C 146.741,355.24 148.241,356.907 152,356.5C 153.658,356.325 154.991,355.658 156,354.5C 156.167,325.161 156.667,295.828 157.5,266.5C 158.308,266.192 158.975,265.692 159.5,265C 155.5,264.667 151.5,264.333 147.5,264C 146.91,262.701 145.91,261.868 144.5,261.5C 139.152,262.195 133.985,262.195 129,261.5C 127.159,263.159 125.992,265.159 125.5,267.5C 125.5,282.167 125.5,296.833 125.5,311.5C 125.092,317.144 125.759,322.644 127.5,328C 127.457,330.376 126.291,331.876 124,332.5C 118.591,327.348 115.591,321.015 115,313.5C 113.206,310.894 111.706,308.227 110.5,305.5C 109.833,305.5 109.5,305.167 109.5,304.5C 108.255,297.537 107.255,290.537 106.5,283.5C 106.5,219.5 106.5,155.5 106.5,91.5 Z"/></g>
<g><path style="opacity:1" fill="#bba090" d="M 248.5,91.5 C 249.497,91.4701 250.164,91.9701 250.5,93C 252.274,98.1535 253.94,103.32 255.5,108.5C 253.059,106.925 251.893,104.592 252,101.5C 250.388,97.5341 248.721,97.5341 247,101.5C 247.107,104.592 245.941,106.925 243.5,108.5C 245.369,102.892 247.036,97.2252 248.5,91.5 Z"/></g>
<g><path style="opacity:1" fill="#cdab87" d="M 255.5,108.5 C 257.232,112.697 258.565,117.03 259.5,121.5C 259.427,123.027 260.094,124.027 261.5,124.5C 270.675,125.167 280.009,125.833 289.5,126.5C 288.37,127.622 287.703,128.956 287.5,130.5C 283.223,134.312 278.557,137.645 273.5,140.5C 272.292,139.218 270.958,139.218 269.5,140.5C 269.709,141.086 270.043,141.586 270.5,142C 269.167,142.333 267.833,142.667 266.5,143C 265.978,143.561 265.645,144.228 265.5,145C 269.535,153.32 271.868,162.154 272.5,171.5C 269.833,170.833 267.167,170.167 264.5,169.5C 259.662,165.915 254.662,162.582 249.5,159.5C 244.538,162.468 239.871,165.802 235.5,169.5C 230.55,172.453 225.883,175.786 221.5,179.5C 220.957,179.44 220.624,179.107 220.5,178.5C 223.941,167.559 227.608,156.726 231.5,146C 224.431,140.48 217.431,134.98 210.5,129.5C 209.859,128.518 209.193,127.518 208.5,126.5C 218.817,125.668 229.151,125.168 239.5,125C 242.159,120.18 243.492,115.014 243.5,109.5C 243.5,109.167 243.5,108.833 243.5,108.5C 245.941,106.925 247.107,104.592 247,101.5C 248.721,97.5341 250.388,97.5341 252,101.5C 251.893,104.592 253.059,106.925 255.5,108.5 Z"/></g>
<g><path style="opacity:1" fill="#1e121e" d="M 259.5,121.5 C 260.473,121.987 261.473,122.487 262.5,123C 272.675,123.17 282.675,123.67 292.5,124.5C 282.167,124.5 271.833,124.5 261.5,124.5C 260.094,124.027 259.427,123.027 259.5,121.5 Z"/></g>
<g><path style="opacity:1" fill="#bca79d" d="M 243.5,109.5 C 243.492,115.014 242.159,120.18 239.5,125C 229.151,125.168 218.817,125.668 208.5,126.5C 209.193,127.518 209.859,128.518 210.5,129.5C 207.884,128.52 205.551,127.02 203.5,125C 215.181,124.833 226.848,124.333 238.5,123.5C 240.117,119.986 241.117,116.319 241.5,112.5C 242.167,111.5 242.833,110.5 243.5,109.5 Z"/></g>
<g><path style="opacity:1" fill="#bda9a1" d="M 261.5,124.5 C 271.833,124.5 282.167,124.5 292.5,124.5C 293.552,124.351 294.552,124.517 295.5,125C 292.978,127.09 290.312,128.924 287.5,130.5C 287.703,128.956 288.37,127.622 289.5,126.5C 280.009,125.833 270.675,125.167 261.5,124.5 Z"/></g>
<g><path style="opacity:1" fill="#141437" d="M 264.5,169.5 C 268.833,172.833 273.167,176.167 277.5,179.5C 273.037,176.859 268.203,174.859 263,173.5C 260.113,175.407 256.947,176.407 253.5,176.5C 253.5,175.167 253.5,173.833 253.5,172.5C 259.322,173.23 260.489,171.563 257,167.5C 255.333,170.167 253.667,170.167 252,167.5C 251.751,168.624 251.251,169.624 250.5,170.5C 248.291,169.08 246.291,167.413 244.5,165.5C 242.941,166.074 241.441,166.74 240,167.5C 240.263,168.951 240.096,170.284 239.5,171.5C 238.378,170.37 237.044,169.703 235.5,169.5C 239.871,165.802 244.538,162.468 249.5,159.5C 254.662,162.582 259.662,165.915 264.5,169.5 Z"/></g>
<g><path style="opacity:1" fill="#bca28c" d="M 273.5,140.5 C 271.763,142.55 269.763,144.383 267.5,146C 271.062,156.854 274.729,167.687 278.5,178.5C 278.376,179.107 278.043,179.44 277.5,179.5C 273.167,176.167 268.833,172.833 264.5,169.5C 267.167,170.167 269.833,170.833 272.5,171.5C 271.868,162.154 269.535,153.32 265.5,145C 265.645,144.228 265.978,143.561 266.5,143C 267.833,142.667 269.167,142.333 270.5,142C 270.043,141.586 269.709,141.086 269.5,140.5C 270.958,139.218 272.292,139.218 273.5,140.5 Z"/></g>
<g><path style="opacity:1" fill="#f6f6f5" d="M 244.5,192.5 C 259.864,192.59 274.197,196.257 287.5,203.5C 277.646,203.288 267.813,203.621 258,204.5C 253.828,204.041 249.662,203.541 245.5,203C 240.237,200.763 235.237,198.263 230.5,195.5C 235.285,194.491 239.952,193.491 244.5,192.5 Z"/></g>
<g><path style="opacity:1" fill="#f9f8f9" d="M 223.5,198.5 C 225.292,198.366 226.958,198.699 228.5,199.5C 230.824,200.33 232.824,201.663 234.5,203.5C 228.839,208.494 223.506,213.827 218.5,219.5C 215.833,219.5 213.167,219.5 210.5,219.5C 206.951,219.439 203.618,220.273 200.5,222C 196.276,224.272 192.276,226.772 188.5,229.5C 187.624,229.631 186.957,229.298 186.5,228.5C 194.614,213.394 206.948,203.394 223.5,198.5 Z"/></g>
<g><path style="opacity:1" fill="#bca89d" d="M 230.5,195.5 C 235.237,198.263 240.237,200.763 245.5,203C 249.662,203.541 253.828,204.041 258,204.5C 267.813,203.621 277.646,203.288 287.5,203.5C 289.833,203.833 291.167,205.167 291.5,207.5C 284.5,207.5 277.5,207.5 270.5,207.5C 273.641,206.679 276.975,206.179 280.5,206C 272.148,205.378 263.814,205.545 255.5,206.5C 250.257,205.174 244.923,203.841 239.5,202.5C 236.302,201.32 233.135,199.986 230,198.5C 229.235,198.57 228.735,198.903 228.5,199.5C 226.958,198.699 225.292,198.366 223.5,198.5C 225.812,197.659 228.145,196.659 230.5,195.5 Z"/></g>
<g><path style="opacity:1" fill="#28253a" d="M 239.5,202.5 C 244.923,203.841 250.257,205.174 255.5,206.5C 250.146,206.431 244.813,206.098 239.5,205.5C 239.5,204.5 239.5,203.5 239.5,202.5 Z"/></g>
<g><path style="opacity:1" fill="#11133b" d="M 228.5,199.5 C 228.735,198.903 229.235,198.57 230,198.5C 233.135,199.986 236.302,201.32 239.5,202.5C 239.5,203.5 239.5,204.5 239.5,205.5C 244.813,206.098 250.146,206.431 255.5,206.5C 257.265,207.461 259.265,207.795 261.5,207.5C 261.177,214.022 261.51,220.355 262.5,226.5C 262.5,226.833 262.5,227.167 262.5,227.5C 252.41,230.641 242.41,233.974 232.5,237.5C 228.206,231.871 223.539,226.537 218.5,221.5C 218.5,220.833 218.5,220.167 218.5,219.5C 223.506,213.827 228.839,208.494 234.5,203.5C 232.824,201.663 230.824,200.33 228.5,199.5 Z"/></g>
<g><path style="opacity:1" fill="#2c2638" d="M 270.5,207.5 C 267.873,208.092 265.206,208.425 262.5,208.5C 262.5,210.167 262.5,211.833 262.5,213.5C 262.5,217.833 262.5,222.167 262.5,226.5C 261.51,220.355 261.177,214.022 261.5,207.5C 259.265,207.795 257.265,207.461 255.5,206.5C 263.814,205.545 272.148,205.378 280.5,206C 276.975,206.179 273.641,206.679 270.5,207.5 Z"/></g>
<g><path style="opacity:1" fill="#fbfbfb" d="M 270.5,207.5 C 277.5,207.5 284.5,207.5 291.5,207.5C 294.301,208.735 296.968,210.235 299.5,212C 304.135,216.821 308.635,221.655 313,226.5C 315.822,231.804 318.322,237.137 320.5,242.5C 321.931,248.422 322.931,254.422 323.5,260.5C 323.827,265.544 323.494,270.544 322.5,275.5C 319.965,274.1 317.298,273.1 314.5,272.5C 313.027,264.971 311.361,257.471 309.5,250C 310.386,244.203 310.72,238.369 310.5,232.5C 310.108,230.821 309.608,229.154 309,227.5C 308.501,231.486 308.334,235.486 308.5,239.5C 308.5,242.167 308.5,244.833 308.5,247.5C 305.941,247.198 303.607,247.532 301.5,248.5C 298.5,248.5 295.5,248.5 292.5,248.5C 285.394,238.072 276.061,230.072 264.5,224.5C 263.833,220.687 263.166,217.021 262.5,213.5C 262.5,211.833 262.5,210.167 262.5,208.5C 265.206,208.425 267.873,208.092 270.5,207.5 Z"/></g>
<g><path style="opacity:1" fill="#fcfcfc" d="M 218.5,221.5 C 223.539,226.537 228.206,231.871 232.5,237.5C 228.57,246.318 226.236,255.651 225.5,265.5C 225.5,265.833 225.5,266.167 225.5,266.5C 220.422,269.548 215.088,271.714 209.5,273C 203.167,269.5 196.833,266 190.5,262.5C 189.516,259.572 189.183,256.572 189.5,253.5C 190.087,246.238 191.42,239.238 193.5,232.5C 200.019,226.821 207.519,222.821 216,220.5C 216.902,220.743 217.735,221.077 218.5,221.5 Z"/></g>
<g><path style="opacity:1" fill="#1d0b1e" d="M 410.5,71.5 C 411.268,72.2625 411.768,73.2625 412,74.5C 412.667,143.833 412.667,213.167 412,282.5C 411.441,293.193 409.608,303.526 406.5,313.5C 406.335,309.818 406.501,306.152 407,302.5C 407.333,303.167 407.667,303.833 408,304.5C 408.979,300.577 408.479,296.91 406.5,293.5C 407.953,293.94 409.119,293.274 410,291.5C 410.5,218.167 410.667,144.834 410.5,71.5 Z"/></g>
<g><path style="opacity:1" fill="#b7aa9e" d="M 210.5,219.5 C 205.99,221.088 201.657,223.255 197.5,226C 195.004,227.331 193.004,229.164 191.5,231.5C 189.973,231.573 188.973,230.906 188.5,229.5C 192.276,226.772 196.276,224.272 200.5,222C 203.618,220.273 206.951,219.439 210.5,219.5 Z"/></g>
<g><path style="opacity:1" fill="#241f35" d="M 210.5,219.5 C 213.167,219.5 215.833,219.5 218.5,219.5C 218.5,220.167 218.5,220.833 218.5,221.5C 217.735,221.077 216.902,220.743 216,220.5C 207.519,222.821 200.019,226.821 193.5,232.5C 193.158,231.662 192.492,231.328 191.5,231.5C 193.004,229.164 195.004,227.331 197.5,226C 201.657,223.255 205.99,221.088 210.5,219.5 Z"/></g>
<g><path style="opacity:1" fill="#fcfcfc" d="M 262.5,227.5 C 269.475,233.471 276.475,239.471 283.5,245.5C 285.179,247.695 286.179,250.195 286.5,253C 284.593,260.46 282.926,267.96 281.5,275.5C 268.919,277.518 256.252,278.351 243.5,278C 238.487,274.312 234.987,269.478 233,263.5C 232.5,256.174 232.334,248.841 232.5,241.5C 232.5,240.167 232.5,238.833 232.5,237.5C 242.41,233.974 252.41,230.641 262.5,227.5 Z"/></g>
<g><path style="opacity:1" fill="#362c33" d="M 262.5,227.5 C 267.118,229.815 271.451,232.648 275.5,236C 278.777,238.766 281.443,241.933 283.5,245.5C 276.475,239.471 269.475,233.471 262.5,227.5 Z"/></g>
<g><path style="opacity:1" fill="#8e9099" d="M 310.5,232.5 C 309.833,234.833 309.167,237.167 308.5,239.5C 308.334,235.486 308.501,231.486 309,227.5C 309.608,229.154 310.108,230.821 310.5,232.5 Z"/></g>
<g><path style="opacity:1" fill="#c8ac91" d="M 262.5,213.5 C 263.166,217.021 263.833,220.687 264.5,224.5C 276.061,230.072 285.394,238.072 292.5,248.5C 291.054,249.613 289.387,249.78 287.5,249C 286.295,247.624 284.962,246.458 283.5,245.5C 281.443,241.933 278.777,238.766 275.5,236C 271.451,232.648 267.118,229.815 262.5,227.5C 262.5,227.167 262.5,226.833 262.5,226.5C 262.5,222.167 262.5,217.833 262.5,213.5 Z"/></g>
<g><path style="opacity:1" fill="#262137" d="M 232.5,237.5 C 232.5,238.833 232.5,240.167 232.5,241.5C 228.958,251.626 228.625,261.959 231.5,272.5C 230.25,272.423 229.417,271.756 229,270.5C 228.667,266.5 228.333,262.5 228,258.5C 227.302,261.004 226.469,263.337 225.5,265.5C 226.236,255.651 228.57,246.318 232.5,237.5 Z"/></g>
<g><path style="opacity:1" fill="#10133c" d="M 283.5,245.5 C 284.962,246.458 286.295,247.624 287.5,249C 289.387,249.78 291.054,249.613 292.5,248.5C 295.5,248.5 298.5,248.5 301.5,248.5C 303.833,248.5 306.167,248.5 308.5,248.5C 309.014,258.944 311.347,268.944 315.5,278.5C 312.5,281.833 309.5,285.167 306.5,288.5C 305.178,288.67 304.011,288.337 303,287.5C 302.781,288.938 302.281,290.271 301.5,291.5C 300.137,290.121 299.137,290.287 298.5,292C 298.645,292.772 298.978,293.439 299.5,294C 298.181,294.195 296.847,294.028 295.5,293.5C 290.5,288.833 285.5,284.167 280.5,279.5C 280.833,278.167 281.167,276.833 281.5,275.5C 282.926,267.96 284.593,260.46 286.5,253C 286.179,250.195 285.179,247.695 283.5,245.5 Z"/></g>
<g><path style="opacity:1" fill="#1f1e39" d="M 310.5,232.5 C 310.72,238.369 310.386,244.203 309.5,250C 311.361,257.471 313.027,264.971 314.5,272.5C 316.106,276.335 318.773,279.335 322.5,281.5C 322.672,282.492 322.338,283.158 321.5,283.5C 319.5,281.833 317.5,280.167 315.5,278.5C 311.347,268.944 309.014,258.944 308.5,248.5C 306.167,248.5 303.833,248.5 301.5,248.5C 303.607,247.532 305.941,247.198 308.5,247.5C 308.5,244.833 308.5,242.167 308.5,239.5C 309.167,237.167 309.833,234.833 310.5,232.5 Z"/></g>
<g><path style="opacity:1" fill="#f9f9f8" d="M 205.5,290.5 C 205.833,293.167 206.167,295.833 206.5,298.5C 205.399,299.598 204.066,299.765 202.5,299C 191.411,293.082 183.745,284.249 179.5,272.5C 181.167,270.5 182.833,268.5 184.5,266.5C 186.194,265.314 187.861,265.481 189.5,267C 194,271.5 198.5,276 203,280.5C 203.738,283.991 204.571,287.325 205.5,290.5 Z"/></g>
<g><path style="opacity:1" fill="#cfab86" d="M 149.5,353.5 C 149.167,352.5 148.5,351.833 147.5,351.5C 140.289,342.415 134.622,332.415 130.5,321.5C 130.242,317.56 129.076,313.893 127,310.5C 126.5,296.504 126.333,282.504 126.5,268.5C 135.5,268.5 144.5,268.5 153.5,268.5C 153.5,296.833 153.5,325.167 153.5,353.5C 152.167,353.5 150.833,353.5 149.5,353.5 Z"/></g>
<g><path style="opacity:1" fill="#ceab86" d="M 369.5,267.5 C 370.833,267.5 372.167,267.5 373.5,267.5C 373.667,282.17 373.5,296.837 373,311.5C 369.925,318.899 366.758,326.232 363.5,333.5C 358.894,341.039 353.561,348.039 347.5,354.5C 346.167,341.017 345.501,327.183 345.5,313C 345.667,299.167 345.833,285.333 346,271.5C 346.692,270.975 347.192,270.308 347.5,269.5C 354.989,268.833 362.322,268.167 369.5,267.5 Z"/></g>
<g><path style="opacity:1" fill="#c3aa94" d="M 189.5,253.5 C 189.183,256.572 189.516,259.572 190.5,262.5C 196.833,266 203.167,269.5 209.5,273C 215.088,271.714 220.422,269.548 225.5,266.5C 225.586,267.496 225.252,268.329 224.5,269C 221.102,270.357 218.102,272.19 215.5,274.5C 213.577,274.795 211.91,275.628 210.5,277C 209.167,277.667 207.833,277.667 206.5,277C 201.672,273.419 196.672,270.085 191.5,267C 189.254,265.743 187.921,263.91 187.5,261.5C 187.294,258.505 187.96,255.838 189.5,253.5 Z"/></g>
<g><path style="opacity:1" fill="#271d2a" d="M 373.5,267.5 C 372.167,267.5 370.833,267.5 369.5,267.5C 361.167,267.5 352.833,267.5 344.5,267.5C 344.5,296.5 344.5,325.5 344.5,354.5C 343.502,325.671 343.169,296.671 343.5,267.5C 353.5,266.167 363.5,266.167 373.5,267.5 Z"/></g>
<g><path style="opacity:1" fill="#c3aba1" d="M 125.5,267.5 C 135.167,267.5 144.833,267.5 154.5,267.5C 154.5,296.833 154.5,326.167 154.5,355.5C 152.302,355.88 150.635,355.213 149.5,353.5C 150.833,353.5 152.167,353.5 153.5,353.5C 153.5,325.167 153.5,296.833 153.5,268.5C 144.5,268.5 135.5,268.5 126.5,268.5C 126.333,282.504 126.5,296.504 127,310.5C 129.076,313.893 130.242,317.56 130.5,321.5C 128.833,318.167 127.167,314.833 125.5,311.5C 125.5,296.833 125.5,282.167 125.5,267.5 Z"/></g>
<g><path style="opacity:1" fill="#191531" d="M 147.5,351.5 C 148.5,351.833 149.167,352.5 149.5,353.5C 150.635,355.213 152.302,355.88 154.5,355.5C 154.5,326.167 154.5,296.833 154.5,267.5C 144.833,267.5 135.167,267.5 125.5,267.5C 125.992,265.159 127.159,263.159 129,261.5C 133.985,262.195 139.152,262.195 144.5,261.5C 145.91,261.868 146.91,262.701 147.5,264C 151.5,264.333 155.5,264.667 159.5,265C 158.975,265.692 158.308,266.192 157.5,266.5C 156.667,295.828 156.167,325.161 156,354.5C 154.991,355.658 153.658,356.325 152,356.5C 148.241,356.907 146.741,355.24 147.5,351.5 Z"/></g>
<g><path style="opacity:1" fill="#c2ada1" d="M 369.5,267.5 C 362.322,268.167 354.989,268.833 347.5,269.5C 347.192,270.308 346.692,270.975 346,271.5C 345.833,285.333 345.667,299.167 345.5,313C 345.501,327.183 346.167,341.017 347.5,354.5C 346.5,355.833 345.5,355.833 344.5,354.5C 344.5,325.5 344.5,296.5 344.5,267.5C 352.833,267.5 361.167,267.5 369.5,267.5 Z"/></g>
<g><path style="opacity:1" fill="#b8a394" d="M 323.5,260.5 C 325.011,267.497 324.678,274.497 322.5,281.5C 318.773,279.335 316.106,276.335 314.5,272.5C 317.298,273.1 319.965,274.1 322.5,275.5C 323.494,270.544 323.827,265.544 323.5,260.5 Z"/></g>
<g><path style="opacity:1" fill="#1f1b34" d="M 187.5,261.5 C 187.921,263.91 189.254,265.743 191.5,267C 196.672,270.085 201.672,273.419 206.5,277C 207.833,277.667 209.167,277.667 210.5,277C 211.91,275.628 213.577,274.795 215.5,274.5C 214.652,276.093 213.319,277.26 211.5,278C 209.1,278.186 206.766,278.686 204.5,279.5C 204.977,280.478 205.643,281.311 206.5,282C 205.556,284.719 205.223,287.552 205.5,290.5C 204.571,287.325 203.738,283.991 203,280.5C 198.5,276 194,271.5 189.5,267C 187.861,265.481 186.194,265.314 184.5,266.5C 184.721,264.336 185.721,262.67 187.5,261.5 Z"/></g>
<g><path style="opacity:1" fill="#c7ab91" d="M 232.5,241.5 C 232.334,248.841 232.5,256.174 233,263.5C 234.987,269.478 238.487,274.312 243.5,278C 256.252,278.351 268.919,277.518 281.5,275.5C 281.167,276.833 280.833,278.167 280.5,279.5C 277.947,280.805 275.28,281.805 272.5,282.5C 271.903,281.861 271.07,281.528 270,281.5C 261.238,283.29 252.404,283.79 243.5,283C 242.295,281.624 240.962,280.458 239.5,279.5C 236.833,277.167 234.167,274.833 231.5,272.5C 228.625,261.959 228.958,251.626 232.5,241.5 Z"/></g>
<g><path style="opacity:1" fill="#faf8f8" d="M 315.5,278.5 C 317.5,280.167 319.5,281.833 321.5,283.5C 321.037,288.738 319.37,293.404 316.5,297.5C 313.528,299.65 310.195,300.65 306.5,300.5C 306.5,296.833 306.5,293.167 306.5,289.5C 306.5,289.167 306.5,288.833 306.5,288.5C 309.5,285.167 312.5,281.833 315.5,278.5 Z"/></g>
<g><path style="opacity:1" fill="#fcfbfb" d="M 280.5,279.5 C 285.5,284.167 290.5,288.833 295.5,293.5C 295.5,293.833 295.5,294.167 295.5,294.5C 287.421,304.453 276.921,309.12 264,308.5C 259.014,308.702 254.181,308.035 249.5,306.5C 248.509,302.555 248.176,298.555 248.5,294.5C 248.869,292.559 249.536,290.725 250.5,289C 257.75,286.521 265.083,284.355 272.5,282.5C 275.28,281.805 277.947,280.805 280.5,279.5 Z"/></g>
<g><path style="opacity:1" fill="#11123b" d="M 343.5,267.5 C 343.169,296.671 343.502,325.671 344.5,354.5C 345.5,355.833 346.5,355.833 347.5,354.5C 353.561,348.039 358.894,341.039 363.5,333.5C 365.411,333.426 366.578,332.426 367,330.5C 368.512,331.257 369.846,332.257 371,333.5C 371.716,330.582 371.216,327.915 369.5,325.5C 369.833,324.833 370.167,324.167 370.5,323.5C 372.796,325.761 375.296,327.761 378,329.5C 378.483,330.448 378.649,331.448 378.5,332.5C 361.366,367.301 334.699,391.635 298.5,405.5C 300.453,401.353 303.787,399.52 308.5,400C 306.993,399.163 306.493,397.996 307,396.5C 309.429,395.971 311.262,394.637 312.5,392.5C 309.015,390.906 305.348,390.24 301.5,390.5C 301.716,399.433 300.549,400.099 298,392.5C 296.644,393.38 295.144,393.714 293.5,393.5C 299.675,390.884 305.675,387.884 311.5,384.5C 314.032,383.404 316.365,382.071 318.5,380.5C 319.663,356.337 319.83,332.003 319,307.5C 318.283,308.044 317.783,308.711 317.5,309.5C 315.489,312.861 313.489,316.194 311.5,319.5C 306.01,325.667 299.676,330.667 292.5,334.5C 291.833,334.5 291.167,334.5 290.5,334.5C 288.775,333.095 286.775,332.595 284.5,333C 284.957,333.414 285.291,333.914 285.5,334.5C 283.579,335.641 281.579,335.808 279.5,335C 280.412,332.512 279.412,330.845 276.5,330C 273.493,329.699 270.493,329.865 267.5,330.5C 267.5,331.5 267.5,332.5 267.5,333.5C 265.5,333.5 263.5,333.5 261.5,333.5C 261.5,334.5 261.5,335.5 261.5,336.5C 248.176,339.762 235.176,339.096 222.5,334.5C 221.833,350.833 221.167,367.167 220.5,383.5C 219.181,372.605 219.181,361.772 220.5,351C 219.812,345.532 219.145,340.032 218.5,334.5C 218.709,333.914 219.043,333.414 219.5,333C 217.881,332.764 216.881,331.931 216.5,330.5C 225.119,334.947 234.286,337.28 244,337.5C 250.551,338.722 255.051,336.388 257.5,330.5C 256.757,329.818 256.091,329.151 255.5,328.5C 256.209,327.596 257.209,327.263 258.5,327.5C 262.962,329.581 267.295,329.248 271.5,326.5C 276.224,325.37 280.891,324.036 285.5,322.5C 286.833,322.5 288.167,322.5 289.5,322.5C 289.606,325.108 290.772,327.108 293,328.5C 294.805,326.68 296.972,325.514 299.5,325C 298.464,323.224 298.464,321.391 299.5,319.5C 304.136,315.696 308.303,311.362 312,306.5C 314.038,303.757 315.538,300.757 316.5,297.5C 319.37,293.404 321.037,288.738 321.5,283.5C 322.338,283.158 322.672,282.492 322.5,281.5C 324.678,274.497 325.011,267.497 323.5,260.5C 322.931,254.422 321.931,248.422 320.5,242.5C 321.524,244.512 323.024,246.178 325,247.5C 325.182,244.774 325.682,242.107 326.5,239.5C 326.833,239.833 327.167,240.167 327.5,240.5C 328.147,245.243 329.48,249.743 331.5,254C 330.167,260.333 328.833,266.667 327.5,273C 328.911,275.978 329.911,279.145 330.5,282.5C 331.324,279.215 331.824,275.882 332,272.5C 332.333,272.167 332.667,271.833 333,271.5C 334.941,275.554 335.775,275.22 335.5,270.5C 336.93,270.421 338.264,270.754 339.5,271.5C 340.429,270.311 340.762,268.978 340.5,267.5C 341.5,267.5 342.5,267.5 343.5,267.5 Z"/></g>
<g><path style="opacity:1" fill="#10123c" d="M 231.5,272.5 C 234.167,274.833 236.833,277.167 239.5,279.5C 240.048,282.386 241.715,284.386 244.5,285.5C 247.002,289.727 246.835,293.727 244,297.5C 243.498,300.513 242.998,303.513 242.5,306.5C 241.833,308.833 241.167,311.167 240.5,313.5C 238.833,313.5 237.167,313.5 235.5,313.5C 227.408,314.293 219.741,312.96 212.5,309.5C 211.362,307.279 210.028,305.279 208.5,303.5C 208.204,301.597 207.537,299.93 206.5,298.5C 206.167,295.833 205.833,293.167 205.5,290.5C 205.223,287.552 205.556,284.719 206.5,282C 205.643,281.311 204.977,280.478 204.5,279.5C 206.766,278.686 209.1,278.186 211.5,278C 213.319,277.26 214.652,276.093 215.5,274.5C 218.102,272.19 221.102,270.357 224.5,269C 225.252,268.329 225.586,267.496 225.5,266.5C 225.5,266.167 225.5,265.833 225.5,265.5C 226.469,263.337 227.302,261.004 228,258.5C 228.333,262.5 228.667,266.5 229,270.5C 229.417,271.756 230.25,272.423 231.5,272.5 Z"/></g>
<g><path style="opacity:1" fill="#1c1835" d="M 239.5,279.5 C 240.962,280.458 242.295,281.624 243.5,283C 252.404,283.79 261.238,283.29 270,281.5C 271.07,281.528 271.903,281.861 272.5,282.5C 265.083,284.355 257.75,286.521 250.5,289C 249.536,290.725 248.869,292.559 248.5,294.5C 246.5,298.5 244.5,302.5 242.5,306.5C 242.998,303.513 243.498,300.513 244,297.5C 246.835,293.727 247.002,289.727 244.5,285.5C 241.715,284.386 240.048,282.386 239.5,279.5 Z"/></g>
<g><path style="opacity:1" fill="#ccab89" d="M 179.5,272.5 C 183.745,284.249 191.411,293.082 202.5,299C 204.066,299.765 205.399,299.598 206.5,298.5C 207.537,299.93 208.204,301.597 208.5,303.5C 209.412,304.738 209.579,306.072 209,307.5C 206.246,310.762 203.079,313.429 199.5,315.5C 195.656,314.166 192.489,311.832 190,308.5C 187.637,304.655 185.137,300.989 182.5,297.5C 179.77,290.308 177.436,282.975 175.5,275.5C 176.852,274.476 178.185,273.476 179.5,272.5 Z"/></g>
<g><path style="opacity:1" fill="#1f0b22" d="M 88.5,295.5 C 91.8857,303.731 93.8857,312.398 94.5,321.5C 91.3717,313.209 89.3717,304.542 88.5,295.5 Z"/></g>
<g><path style="opacity:1" fill="#c9a988" d="M 306.5,289.5 C 306.5,293.167 306.5,296.833 306.5,300.5C 310.195,300.65 313.528,299.65 316.5,297.5C 315.538,300.757 314.038,303.757 312,306.5C 308.303,311.362 304.136,315.696 299.5,319.5C 297.351,320.748 295.351,322.248 293.5,324C 292.668,324.688 292.002,324.521 291.5,323.5C 295.918,315.074 298.418,306.074 299,296.5C 301.37,293.961 303.87,291.628 306.5,289.5 Z"/></g>
<g><path style="opacity:1" fill="#ceab86" d="M 292.5,310.5 C 291.157,315.201 288.824,319.201 285.5,322.5C 280.891,324.036 276.224,325.37 271.5,326.5C 268.266,325.873 265.099,325.873 262,326.5C 255.952,324.245 256.119,322.745 262.5,322C 261.034,321.365 259.7,320.531 258.5,319.5C 257.808,320.025 257.308,320.692 257,321.5C 256.259,320.359 255.425,320.359 254.5,321.5C 254.167,321 253.833,320.5 253.5,320C 255.013,318.121 255.679,315.954 255.5,313.5C 254.5,313.5 253.5,313.5 252.5,313.5C 252.33,312.178 252.663,311.011 253.5,310C 264.63,310.016 275.63,309.183 286.5,307.5C 286.729,305.567 287.562,303.9 289,302.5C 290.113,303.711 291.28,303.711 292.5,302.5C 293.205,305.089 293.205,307.756 292.5,310.5 Z"/></g>
<g><path style="opacity:1" fill="#c8aa8c" d="M 248.5,294.5 C 248.176,298.555 248.509,302.555 249.5,306.5C 254.181,308.035 259.014,308.702 264,308.5C 276.921,309.12 287.421,304.453 295.5,294.5C 296.695,294.866 297.361,295.699 297.5,297C 296.2,301.742 294.534,306.242 292.5,310.5C 293.205,307.756 293.205,305.089 292.5,302.5C 291.28,303.711 290.113,303.711 289,302.5C 287.562,303.9 286.729,305.567 286.5,307.5C 275.63,309.183 264.63,310.016 253.5,310C 252.663,311.011 252.33,312.178 252.5,313.5C 253.5,313.5 254.5,313.5 255.5,313.5C 255.679,315.954 255.013,318.121 253.5,320C 253.833,320.5 254.167,321 254.5,321.5C 255.425,320.359 256.259,320.359 257,321.5C 257.308,320.692 257.808,320.025 258.5,319.5C 259.7,320.531 261.034,321.365 262.5,322C 256.119,322.745 255.952,324.245 262,326.5C 265.099,325.873 268.266,325.873 271.5,326.5C 267.295,329.248 262.962,329.581 258.5,327.5C 252.238,323.246 246.238,318.58 240.5,313.5C 241.167,311.167 241.833,308.833 242.5,306.5C 244.5,302.5 246.5,298.5 248.5,294.5 Z"/></g>
<g><path style="opacity:1" fill="#ccaa87" d="M 212.5,309.5 C 219.741,312.96 227.408,314.293 235.5,313.5C 236.952,314.302 238.618,314.802 240.5,315C 245.072,320.078 250.072,324.578 255.5,328.5C 256.091,329.151 256.757,329.818 257.5,330.5C 255.051,336.388 250.551,338.722 244,337.5C 234.286,337.28 225.119,334.947 216.5,330.5C 211.921,327.593 207.921,323.926 204.5,319.5C 206,316.5 207.5,313.5 209,310.5C 210.011,309.663 211.178,309.33 212.5,309.5 Z"/></g>
<g><path style="opacity:1" fill="#1a1534" d="M 306.5,288.5 C 306.5,288.833 306.5,289.167 306.5,289.5C 303.87,291.628 301.37,293.961 299,296.5C 298.418,306.074 295.918,315.074 291.5,323.5C 292.002,324.521 292.668,324.688 293.5,324C 295.351,322.248 297.351,320.748 299.5,319.5C 298.464,321.391 298.464,323.224 299.5,325C 296.972,325.514 294.805,326.68 293,328.5C 290.772,327.108 289.606,325.108 289.5,322.5C 288.167,322.5 286.833,322.5 285.5,322.5C 288.824,319.201 291.157,315.201 292.5,310.5C 294.534,306.242 296.2,301.742 297.5,297C 297.361,295.699 296.695,294.866 295.5,294.5C 295.5,294.167 295.5,293.833 295.5,293.5C 296.847,294.028 298.181,294.195 299.5,294C 298.978,293.439 298.645,292.772 298.5,292C 299.137,290.287 300.137,290.121 301.5,291.5C 302.281,290.271 302.781,288.938 303,287.5C 304.011,288.337 305.178,288.67 306.5,288.5 Z"/></g>
<g><path style="opacity:1" fill="#1a1736" d="M 373.5,267.5 C 374.166,275.159 374.5,282.993 374.5,291C 374.189,300.584 373.689,310.084 373,319.5C 375.472,321.298 377.139,323.632 378,326.5C 381.21,323.268 383.71,319.602 385.5,315.5C 384.127,321.635 381.793,327.301 378.5,332.5C 378.649,331.448 378.483,330.448 378,329.5C 375.296,327.761 372.796,325.761 370.5,323.5C 370.167,324.167 369.833,324.833 369.5,325.5C 371.216,327.915 371.716,330.582 371,333.5C 369.846,332.257 368.512,331.257 367,330.5C 366.578,332.426 365.411,333.426 363.5,333.5C 366.758,326.232 369.925,318.899 373,311.5C 373.5,296.837 373.667,282.17 373.5,267.5 Z"/></g>
<g><path style="opacity:1" fill="#1e091e" d="M 94.5,321.5 C 96.8091,326.038 99.1425,330.704 101.5,335.5C 102.452,337.045 102.785,338.712 102.5,340.5C 102.5,340.833 102.5,341.167 102.5,341.5C 98.872,335.296 96.2053,328.629 94.5,321.5 Z"/></g>
<g><path style="opacity:1" fill="#2c202c" d="M 235.5,313.5 C 237.167,313.5 238.833,313.5 240.5,313.5C 246.238,318.58 252.238,323.246 258.5,327.5C 257.209,327.263 256.209,327.596 255.5,328.5C 250.072,324.578 245.072,320.078 240.5,315C 238.618,314.802 236.952,314.302 235.5,313.5 Z"/></g>
<g><path style="opacity:1" fill="#ceab86" d="M 311.5,384.5 C 305.675,387.884 299.675,390.884 293.5,393.5C 292.417,393.539 291.417,393.873 290.5,394.5C 289.334,375.175 289.167,355.842 290,336.5C 290.995,335.934 291.828,335.267 292.5,334.5C 299.676,330.667 306.01,325.667 311.5,319.5C 313.193,318.525 314.693,317.192 316,315.5C 317.739,337.145 317.906,358.811 316.5,380.5C 315.167,381.833 313.833,381.833 312.5,380.5C 311.571,381.689 311.238,383.022 311.5,384.5 Z"/></g>
<g><path style="opacity:1" fill="#ceab86" d="M 183.5,313.5 C 190.229,322.895 198.562,330.561 208.5,336.5C 208.833,355.179 208.5,373.845 207.5,392.5C 205.929,391.691 204.262,391.357 202.5,391.5C 199.406,390.787 196.406,389.787 193.5,388.5C 192.833,387.833 192.167,387.167 191.5,386.5C 191.423,385.25 190.756,384.417 189.5,384C 189.833,383.667 190.167,383.333 190.5,383C 188.527,382.505 186.527,382.338 184.5,382.5C 184.725,380.284 183.892,378.617 182,377.5C 181.833,366.833 181.667,356.167 181.5,345.5C 181.501,334.478 182.168,323.812 183.5,313.5 Z"/></g>
<g><path style="opacity:1" fill="#0f123d" d="M 216.5,330.5 C 216.881,331.931 217.881,332.764 219.5,333C 219.043,333.414 218.709,333.914 218.5,334.5C 219.145,340.032 219.812,345.532 220.5,351C 219.181,361.772 219.181,372.605 220.5,383.5C 221.167,367.167 221.833,350.833 222.5,334.5C 235.176,339.096 248.176,339.762 261.5,336.5C 261.5,335.5 261.5,334.5 261.5,333.5C 263.5,333.5 265.5,333.5 267.5,333.5C 267.5,332.5 267.5,331.5 267.5,330.5C 270.493,329.865 273.493,329.699 276.5,330C 279.412,330.845 280.412,332.512 279.5,335C 281.579,335.808 283.579,335.641 285.5,334.5C 285.291,333.914 284.957,333.414 284.5,333C 286.775,332.595 288.775,333.095 290.5,334.5C 289.883,334.611 289.383,334.944 289,335.5C 288.5,355.497 288.333,375.497 288.5,395.5C 290.781,395.923 292.448,395.256 293.5,393.5C 295.144,393.714 296.644,393.38 298,392.5C 300.549,400.099 301.716,399.433 301.5,390.5C 305.348,390.24 309.015,390.906 312.5,392.5C 311.262,394.637 309.429,395.971 307,396.5C 306.493,397.996 306.993,399.163 308.5,400C 303.787,399.52 300.453,401.353 298.5,405.5C 293.465,407.765 288.131,409.432 282.5,410.5C 264.886,412.148 247.219,412.815 229.5,412.5C 219.519,411.921 209.852,409.921 200.5,406.5C 200.5,405.833 200.167,405.5 199.5,405.5C 199.389,404.883 199.056,404.383 198.5,404C 204.79,403.214 204.623,402.047 198,400.5C 197.493,399.004 197.993,397.837 199.5,397C 206.742,392.874 208.075,394.041 203.5,400.5C 204.689,401.429 206.022,401.762 207.5,401.5C 207.275,399.284 208.108,397.617 210,396.5C 209.85,375.437 210.683,354.604 212.5,334C 210.22,333.788 208.22,332.955 206.5,331.5C 205.035,332.609 204.035,332.109 203.5,330C 207.409,328.052 211.076,328.552 214.5,331.5C 215.183,331.137 215.85,330.804 216.5,330.5 Z"/></g>
<g><path style="opacity:1" fill="#c3a997" d="M 181.5,309.5 C 182.167,310.833 182.833,312.167 183.5,313.5C 182.168,323.812 181.501,334.478 181.5,345.5C 181.667,356.167 181.833,366.833 182,377.5C 183.892,378.617 184.725,380.284 184.5,382.5C 186.527,382.338 188.527,382.505 190.5,383C 190.167,383.333 189.833,383.667 189.5,384C 190.756,384.417 191.423,385.25 191.5,386.5C 187.345,385.258 183.678,383.258 180.5,380.5C 180.169,356.661 180.502,332.994 181.5,309.5 Z"/></g>
<g><path style="opacity:1" fill="#59494d" d="M 180.5,307.5 C 180.833,308.167 181.167,308.833 181.5,309.5C 180.502,332.994 180.169,356.661 180.5,380.5C 179.167,356.167 179.167,331.833 180.5,307.5 Z"/></g>
<g><path style="opacity:1" fill="#c5a998" d="M 317.5,309.5 C 318.498,332.994 318.831,356.661 318.5,380.5C 316.365,382.071 314.032,383.404 311.5,384.5C 311.238,383.022 311.571,381.689 312.5,380.5C 313.833,381.833 315.167,381.833 316.5,380.5C 317.906,358.811 317.739,337.145 316,315.5C 314.693,317.192 313.193,318.525 311.5,319.5C 313.489,316.194 315.489,312.861 317.5,309.5 Z"/></g>
<g><path style="opacity:1" fill="#594549" d="M 318.5,380.5 C 318.831,356.661 318.498,332.994 317.5,309.5C 317.783,308.711 318.283,308.044 319,307.5C 319.83,332.003 319.663,356.337 318.5,380.5 Z"/></g>
<g><path style="opacity:1" fill="#181228" d="M 290.5,334.5 C 291.167,334.5 291.833,334.5 292.5,334.5C 291.828,335.267 290.995,335.934 290,336.5C 289.167,355.842 289.334,375.175 290.5,394.5C 291.417,393.873 292.417,393.539 293.5,393.5C 292.448,395.256 290.781,395.923 288.5,395.5C 288.333,375.497 288.5,355.497 289,335.5C 289.383,334.944 289.883,334.611 290.5,334.5 Z"/></g>
<g><path style="opacity:1" fill="#131338" d="M 110.5,305.5 C 111.706,308.227 113.206,310.894 115,313.5C 115.591,321.015 118.591,327.348 124,332.5C 126.291,331.876 127.457,330.376 127.5,328C 125.759,322.644 125.092,317.144 125.5,311.5C 127.167,314.833 128.833,318.167 130.5,321.5C 134.622,332.415 140.289,342.415 147.5,351.5C 145.78,353.658 144.947,356.325 145,359.5C 143.983,357.624 143.149,355.624 142.5,353.5C 141.355,355.635 141.355,357.801 142.5,360C 142.095,360.945 141.428,361.612 140.5,362C 143.26,364.778 145.927,367.611 148.5,370.5C 150.332,369.752 151.999,368.752 153.5,367.5C 153.833,367.833 154.167,368.167 154.5,368.5C 153.167,369.833 153.167,371.167 154.5,372.5C 158.378,373.885 158.378,375.051 154.5,376C 155.748,377.4 156.748,378.9 157.5,380.5C 133.503,360.863 117.836,335.863 110.5,305.5 Z"/></g>
<g><path style="opacity:1" fill="#85787c" d="M 258.5,347.5 C 260.265,346.539 262.265,346.205 264.5,346.5C 264.5,346.833 264.5,347.167 264.5,347.5C 264.5,365.167 264.5,382.833 264.5,400.5C 263.5,400.5 262.5,400.5 261.5,400.5C 263.465,383.07 264.132,365.404 263.5,347.5C 261.833,347.5 260.167,347.5 258.5,347.5 Z"/></g>
<g><path style="opacity:1" fill="#c2aa9a" d="M 208.5,336.5 C 209.828,355.671 209.828,375.004 208.5,394.5C 206.396,393.481 204.396,392.481 202.5,391.5C 204.262,391.357 205.929,391.691 207.5,392.5C 208.5,373.845 208.833,355.179 208.5,336.5 Z"/></g>
<g><path style="opacity:1" fill="#161331" d="M 264.5,346.5 C 262.265,346.205 260.265,346.539 258.5,347.5C 252.167,347.5 245.833,347.5 239.5,347.5C 238.081,346.549 236.415,346.216 234.5,346.5C 234.5,364.5 234.5,382.5 234.5,400.5C 235.833,400.5 237.167,400.5 238.5,400.5C 246.167,400.5 253.833,400.5 261.5,400.5C 262.5,400.5 263.5,400.5 264.5,400.5C 264.5,382.833 264.5,365.167 264.5,347.5C 266.323,365.139 267.156,383.139 267,401.5C 267.75,402.126 268.584,402.626 269.5,403C 257.177,402.806 244.843,402.306 232.5,401.5C 232.5,384.167 232.5,366.833 232.5,349.5C 231.5,349.5 230.5,349.5 229.5,349.5C 229.5,348.5 229.5,347.5 229.5,346.5C 233.601,345.544 237.601,344.21 241.5,342.5C 245.213,342.73 245.88,343.897 243.5,346C 248.167,346.667 252.833,346.667 257.5,346C 258.646,343.443 257.646,342.11 254.5,342C 258.211,341.175 261.878,341.341 265.5,342.5C 264.802,344.037 264.469,345.37 264.5,346.5 Z"/></g>
<g><path style="opacity:1" fill="#897a7b" d="M 239.5,347.5 C 238.167,347.5 236.833,347.5 235.5,347.5C 235.5,364.833 235.5,382.167 235.5,399.5C 236.791,399.263 237.791,399.596 238.5,400.5C 237.167,400.5 235.833,400.5 234.5,400.5C 234.5,382.5 234.5,364.5 234.5,346.5C 236.415,346.216 238.081,346.549 239.5,347.5 Z"/></g>
<g><path style="opacity:1" fill="#c6ac94" d="M 239.5,347.5 C 245.833,347.5 252.167,347.5 258.5,347.5C 260.167,347.5 261.833,347.5 263.5,347.5C 264.132,365.404 263.465,383.07 261.5,400.5C 253.833,400.5 246.167,400.5 238.5,400.5C 237.791,399.596 236.791,399.263 235.5,399.5C 235.5,382.167 235.5,364.833 235.5,347.5C 236.833,347.5 238.167,347.5 239.5,347.5 Z"/></g>
<g><path style="opacity:1" fill="#cfab86" d="M 236.5,348.5 C 245.167,348.5 253.833,348.5 262.5,348.5C 262.5,365.167 262.5,381.833 262.5,398.5C 253.833,398.5 245.167,398.5 236.5,398.5C 236.5,381.833 236.5,365.167 236.5,348.5 Z"/></g>
<g><path style="opacity:1" fill="#11113b" d="M 120.5,371.5 C 116.017,365.881 112.017,359.881 108.5,353.5C 108.433,351.599 108.767,349.766 109.5,348C 107.971,346.418 107.471,344.585 108,342.5C 109.257,344.679 110.757,346.679 112.5,348.5C 111.91,349.799 110.91,350.632 109.5,351C 110,351.5 110.5,352 111,352.5C 112.171,350.384 113.671,349.718 115.5,350.5C 114.147,351.524 113.48,352.857 113.5,354.5C 115.592,354.439 117.092,353.439 118,351.5C 118,352.833 118,354.167 118,355.5C 121.308,360.02 124.142,364.02 126.5,367.5C 129.388,367.22 130.888,368.553 131,371.5C 136.427,374.654 136.927,378.654 132.5,383.5C 131.692,383.192 131.025,382.692 130.5,382C 131.517,380.951 131.684,379.784 131,378.5C 128.161,375.159 124.661,372.826 120.5,371.5 Z"/></g>
<g><path style="opacity:1" fill="#c9a889" d="M 100.5,303.5 C 102.164,304.949 102.998,306.949 103,309.5C 104.113,308.289 105.28,308.289 106.5,309.5C 107.169,307.369 107.835,305.369 108.5,303.5C 108.5,304.167 108.833,304.5 109.5,304.5C 109.5,305.167 109.833,305.5 110.5,305.5C 117.836,335.863 133.503,360.863 157.5,380.5C 162.785,385.81 168.785,390.144 175.5,393.5C 182.903,398.535 190.903,402.535 199.5,405.5C 200.167,405.5 200.5,405.833 200.5,406.5C 200.62,407.586 201.287,408.253 202.5,408.5C 207.833,410 213.167,411.5 218.5,413C 216.479,413.401 215.145,414.568 214.5,416.5C 212.257,417.474 209.924,417.808 207.5,417.5C 162.256,404.432 129.756,376.432 110,333.5C 107.375,327.107 104.875,320.773 102.5,314.5C 102.768,312.901 102.434,311.568 101.5,310.5C 101.326,308.139 100.993,305.806 100.5,303.5 Z"/></g>
<g><path style="opacity:1" fill="#c9a989" d="M 395.5,313.5 C 389.33,335.18 378.996,354.514 364.5,371.5C 346.938,390.283 326.271,404.617 302.5,414.5C 296.289,416.636 289.956,418.303 283.5,419.5C 283.714,417.856 283.38,416.356 282.5,415C 287.573,413.339 287.573,412.506 282.5,412.5C 274.967,413.773 267.634,415.44 260.5,417.5C 251.935,417.159 243.602,416.159 235.5,414.5C 244.839,414.666 254.173,414.5 263.5,414C 270.106,413.59 276.439,412.423 282.5,410.5C 288.131,409.432 293.465,407.765 298.5,405.5C 334.699,391.635 361.366,367.301 378.5,332.5C 381.793,327.301 384.127,321.635 385.5,315.5C 385.833,315.5 386.167,315.5 386.5,315.5C 388.249,311.831 390.249,308.164 392.5,304.5C 394.874,307.028 395.874,310.028 395.5,313.5 Z"/></g>
<g><path style="opacity:1" fill="#131138" d="M 386.5,358.5 C 366.766,390.549 339.099,412.883 303.5,425.5C 300.753,425.813 298.086,425.48 295.5,424.5C 294.855,422.568 293.521,421.401 291.5,421C 293.623,419.806 295.957,419.14 298.5,419C 299.833,418.333 299.833,417.667 298.5,417C 300.437,416.878 301.77,416.045 302.5,414.5C 326.271,404.617 346.938,390.283 364.5,371.5C 365.583,371.461 366.583,371.127 367.5,370.5C 368.315,372.276 369.482,372.943 371,372.5C 371.374,371.584 371.874,370.75 372.5,370C 369.357,365.902 370.357,363.402 375.5,362.5C 374.712,358.29 376.379,355.623 380.5,354.5C 381.025,352.012 381.858,349.679 383,347.5C 383.315,350.147 384.482,350.813 386.5,349.5C 387.278,346.967 387.611,344.634 387.5,342.5C 388.946,343.171 389.612,344.338 389.5,346C 387.778,349.997 386.778,354.164 386.5,358.5 Z"/></g>
<g><path style="opacity:1" fill="#161330" d="M 402.5,78.5 C 403.222,78.9175 403.722,79.5842 404,80.5C 404.167,148.335 404.667,216.001 405.5,283.5C 405.5,283.833 405.5,284.167 405.5,284.5C 406.014,286.512 406.18,288.512 406,290.5C 404.989,291.337 403.822,291.67 402.5,291.5C 401.414,297.785 400.081,304.119 398.5,310.5C 398.403,312.945 399.07,315.111 400.5,317C 399.276,320.184 398.109,320.017 397,316.5C 395.049,318.137 395.216,319.637 397.5,321C 395.996,322.491 395.163,324.324 395,326.5C 390.826,328.992 389.993,332.159 392.5,336C 391.216,336.684 390.049,336.517 389,335.5C 387.839,340.16 389.672,342.16 394.5,341.5C 394.626,339.8 395.293,338.3 396.5,337C 395.614,334.888 395.614,332.722 396.5,330.5C 397.833,330.5 399.167,330.5 400.5,330.5C 401.36,324.358 403.36,318.691 406.5,313.5C 402.793,329.906 396.126,344.906 386.5,358.5C 386.778,354.164 387.778,349.997 389.5,346C 389.612,344.338 388.946,343.171 387.5,342.5C 387.611,344.634 387.278,346.967 386.5,349.5C 384.482,350.813 383.315,350.147 383,347.5C 381.858,349.679 381.025,352.012 380.5,354.5C 376.379,355.623 374.712,358.29 375.5,362.5C 370.357,363.402 369.357,365.902 372.5,370C 371.874,370.75 371.374,371.584 371,372.5C 369.482,372.943 368.315,372.276 367.5,370.5C 366.583,371.127 365.583,371.461 364.5,371.5C 378.996,354.514 389.33,335.18 395.5,313.5C 399.152,303.628 401.318,293.295 402,282.5C 402.5,214.501 402.667,146.501 402.5,78.5 Z"/></g>
<g><path style="opacity:1" fill="#151336" d="M 182.5,297.5 C 185.137,300.989 187.637,304.655 190,308.5C 192.489,311.832 195.656,314.166 199.5,315.5C 203.079,313.429 206.246,310.762 209,307.5C 209.579,306.072 209.412,304.738 208.5,303.5C 210.028,305.279 211.362,307.279 212.5,309.5C 211.178,309.33 210.011,309.663 209,310.5C 207.5,313.5 206,316.5 204.5,319.5C 207.921,323.926 211.921,327.593 216.5,330.5C 215.85,330.804 215.183,331.137 214.5,331.5C 211.076,328.552 207.409,328.052 203.5,330C 204.035,332.109 205.035,332.609 206.5,331.5C 208.22,332.955 210.22,333.788 212.5,334C 210.683,354.604 209.85,375.437 210,396.5C 208.108,397.617 207.275,399.284 207.5,401.5C 206.022,401.762 204.689,401.429 203.5,400.5C 208.075,394.041 206.742,392.874 199.5,397C 197.993,397.837 197.493,399.004 198,400.5C 204.623,402.047 204.79,403.214 198.5,404C 199.056,404.383 199.389,404.883 199.5,405.5C 190.903,402.535 182.903,398.535 175.5,393.5C 179.596,395.238 183.763,396.904 188,398.5C 206.245,392.416 205.745,391.083 186.5,394.5C 185.205,393.902 183.872,393.402 182.5,393C 185.953,390.733 189.62,389.233 193.5,388.5C 196.406,389.787 199.406,390.787 202.5,391.5C 204.396,392.481 206.396,393.481 208.5,394.5C 209.828,375.004 209.828,355.671 208.5,336.5C 198.562,330.561 190.229,322.895 183.5,313.5C 182.833,312.167 182.167,310.833 181.5,309.5C 181.167,308.833 180.833,308.167 180.5,307.5C 179.962,305.883 179.629,304.216 179.5,302.5C 180.5,302.5 181.5,302.5 182.5,302.5C 182.5,300.833 182.5,299.167 182.5,297.5 Z"/></g>
<g><path style="opacity:1" fill="#151236" d="M 102.5,314.5 C 104.875,320.773 107.375,327.107 110,333.5C 129.756,376.432 162.256,404.432 207.5,417.5C 215.352,420.13 223.352,422.13 231.5,423.5C 220.5,423.237 209.667,421.904 199,419.5C 197.112,419.796 195.278,420.296 193.5,421C 194.973,421.71 195.64,422.876 195.5,424.5C 198.843,424.229 201.176,424.895 202.5,426.5C 204.739,425.364 206.406,425.697 207.5,427.5C 213.184,428.853 218.517,430.52 223.5,432.5C 180.924,425.726 146.591,405.392 120.5,371.5C 124.661,372.826 128.161,375.159 131,378.5C 131.684,379.784 131.517,380.951 130.5,382C 131.025,382.692 131.692,383.192 132.5,383.5C 136.927,378.654 136.427,374.654 131,371.5C 130.888,368.553 129.388,367.22 126.5,367.5C 124.142,364.02 121.308,360.02 118,355.5C 118,354.167 118,352.833 118,351.5C 117.092,353.439 115.592,354.439 113.5,354.5C 113.48,352.857 114.147,351.524 115.5,350.5C 113.671,349.718 112.171,350.384 111,352.5C 110.5,352 110,351.5 109.5,351C 110.91,350.632 111.91,349.799 112.5,348.5C 110.757,346.679 109.257,344.679 108,342.5C 107.471,344.585 107.971,346.418 109.5,348C 108.767,349.766 108.433,351.599 108.5,353.5C 105.992,349.818 103.992,345.818 102.5,341.5C 102.5,341.167 102.5,340.833 102.5,340.5C 104.672,339.339 106.006,337.505 106.5,335C 105.853,327.937 104.519,321.104 102.5,314.5 Z"/></g>
<g><path style="opacity:1" fill="#1e172f" d="M 282.5,410.5 C 276.439,412.423 270.106,413.59 263.5,414C 254.173,414.5 244.839,414.666 235.5,414.5C 233.5,413.833 231.5,413.167 229.5,412.5C 247.219,412.815 264.886,412.148 282.5,410.5 Z"/></g>
<g><path style="opacity:1" fill="#c2a58d" d="M 200.5,406.5 C 209.852,409.921 219.519,411.921 229.5,412.5C 231.5,413.167 233.5,413.833 235.5,414.5C 231.486,414.334 227.486,414.501 223.5,415C 227.226,416.043 226.893,416.543 222.5,416.5C 222.33,417.822 222.663,418.989 223.5,420C 236.019,422.456 248.685,423.122 261.5,422C 268.728,420.584 276.062,419.75 283.5,419.5C 277.088,421.308 270.421,422.475 263.5,423C 252.839,423.5 242.172,423.667 231.5,423.5C 223.352,422.13 215.352,420.13 207.5,417.5C 209.924,417.808 212.257,417.474 214.5,416.5C 215.145,414.568 216.479,413.401 218.5,413C 213.167,411.5 207.833,410 202.5,408.5C 201.287,408.253 200.62,407.586 200.5,406.5 Z"/></g>
<g><path style="opacity:1" fill="#cfab85" d="M 283.5,419.5 C 276.062,419.75 268.728,420.584 261.5,422C 248.685,423.122 236.019,422.456 223.5,420C 222.663,418.989 222.33,417.822 222.5,416.5C 226.893,416.543 227.226,416.043 223.5,415C 227.486,414.501 231.486,414.334 235.5,414.5C 243.602,416.159 251.935,417.159 260.5,417.5C 267.634,415.44 274.967,413.773 282.5,412.5C 287.573,412.506 287.573,413.339 282.5,415C 283.38,416.356 283.714,417.856 283.5,419.5 Z"/></g>
<g><path style="opacity:1" fill="#1a1430" d="M 302.5,414.5 C 301.77,416.045 300.437,416.878 298.5,417C 299.833,417.667 299.833,418.333 298.5,419C 295.957,419.14 293.623,419.806 291.5,421C 293.521,421.401 294.855,422.568 295.5,424.5C 298.086,425.48 300.753,425.813 303.5,425.5C 294.649,429.342 285.315,431.675 275.5,432.5C 278.529,430.925 281.862,429.759 285.5,429C 287.81,428.503 290.143,428.337 292.5,428.5C 292.997,426.403 293.33,424.57 293.5,423C 291.061,421.218 288.394,420.551 285.5,421C 286.833,422.333 288.167,423.667 289.5,425C 289,425.167 288.5,425.333 288,425.5C 284.713,423.704 281.213,422.704 277.5,422.5C 269.051,423.669 260.551,424.335 252,424.5C 244.992,424.5 238.158,424.166 231.5,423.5C 242.172,423.667 252.839,423.5 263.5,423C 270.421,422.475 277.088,421.308 283.5,419.5C 289.956,418.303 296.289,416.636 302.5,414.5 Z"/></g>
<g><path style="opacity:1" fill="#0f113c" d="M 231.5,423.5 C 238.158,424.166 244.992,424.5 252,424.5C 260.551,424.335 269.051,423.669 277.5,422.5C 281.213,422.704 284.713,423.704 288,425.5C 288.5,425.333 289,425.167 289.5,425C 288.167,423.667 286.833,422.333 285.5,421C 288.394,420.551 291.061,421.218 293.5,423C 293.33,424.57 292.997,426.403 292.5,428.5C 290.143,428.337 287.81,428.503 285.5,429C 281.862,429.759 278.529,430.925 275.5,432.5C 264.002,432.368 252.668,433.034 241.5,434.5C 235.261,434.724 229.261,434.057 223.5,432.5C 218.517,430.52 213.184,428.853 207.5,427.5C 206.406,425.697 204.739,425.364 202.5,426.5C 201.176,424.895 198.843,424.229 195.5,424.5C 195.64,422.876 194.973,421.71 193.5,421C 195.278,420.296 197.112,419.796 199,419.5C 209.667,421.904 220.5,423.237 231.5,423.5 Z"/></g>
<g><path style="opacity:1" fill="#1e081c" d="M 275.5,432.5 C 266.891,434.18 258.058,435.18 249,435.5C 246.31,435.497 243.81,435.164 241.5,434.5C 252.668,433.034 264.002,432.368 275.5,432.5 Z"/></g>
</svg>
