<?xml version="1.0" encoding="UTF-8"?>
<!DOCTYPE svg PUBLIC "-//W3C//DTD SVG 1.1//EN" "http://www.w3.org/Graphics/SVG/1.1/DTD/svg11.dtd">
<svg xmlns="http://www.w3.org/2000/svg" version="1.1" width="500px" height="500px" style="shape-rendering:geometricPrecision; text-rendering:geometricPrecision; image-rendering:optimizeQuality; fill-rule:evenodd; clip-rule:evenodd" xmlns:xlink="http://www.w3.org/1999/xlink">
<g><path style="opacity:1" fill="#cc483b" d="M 258.5,95.5 C 254.192,94.6324 249.859,94.4657 245.5,95C 241.439,96.7799 237.606,98.9465 234,101.5C 232.374,100.982 230.707,100.648 229,100.5C 225.17,101.25 221.337,101.917 217.5,102.5C 226.688,99.2701 236.021,96.1035 245.5,93C 250.254,92.1273 254.588,92.9606 258.5,95.5 Z"/></g>
<g><path style="opacity:1" fill="#d8503f" d="M 258.5,95.5 C 264.172,96.3926 269.506,98.0592 274.5,100.5C 272.143,100.337 269.81,100.503 267.5,101C 267.957,101.414 268.291,101.914 268.5,102.5C 266.577,103.308 264.577,103.808 262.5,104C 267.655,105.851 272.988,107.018 278.5,107.5C 282.768,111.202 287.768,113.035 293.5,113C 298.443,115.475 303.443,117.641 308.5,119.5C 288.709,113.968 269.042,107.968 249.5,101.5C 246.04,102.197 242.707,103.197 239.5,104.5C 241.234,102.445 243.567,101.112 246.5,100.5C 247.386,99.675 247.719,98.675 247.5,97.5C 250.167,97.5 252.833,97.5 255.5,97.5C 255.5,99.1667 255.5,100.833 255.5,102.5C 257.604,102.799 259.604,102.466 261.5,101.5C 262.381,100.029 263.714,99.1962 265.5,99C 263.798,97.2816 261.965,97.115 260,98.5C 259.487,97.4734 258.987,96.4734 258.5,95.5 Z"/></g>
<g><path style="opacity:1" fill="#e24330" d="M 258.5,95.5 C 258.987,96.4734 259.487,97.4734 260,98.5C 261.965,97.115 263.798,97.2816 265.5,99C 263.714,99.1962 262.381,100.029 261.5,101.5C 259.604,102.466 257.604,102.799 255.5,102.5C 255.5,100.833 255.5,99.1667 255.5,97.5C 252.833,97.5 250.167,97.5 247.5,97.5C 247.719,98.675 247.386,99.675 246.5,100.5C 243.567,101.112 241.234,102.445 239.5,104.5C 239.167,104.5 238.833,104.5 238.5,104.5C 232.418,105.521 226.418,106.854 220.5,108.5C 216.827,108.047 213.16,107.547 209.5,107C 211.544,106.502 212.878,105.335 213.5,103.5C 214.568,102.566 215.901,102.232 217.5,102.5C 221.337,101.917 225.17,101.25 229,100.5C 230.707,100.648 232.374,100.982 234,101.5C 237.606,98.9465 241.439,96.7799 245.5,95C 249.859,94.4657 254.192,94.6324 258.5,95.5 Z"/></g>
<g><path style="opacity:1" fill="#fafaf9" d="M 308.5,119.5 C 318.793,123.745 329.46,127.078 340.5,129.5C 340.833,129.5 341.167,129.5 341.5,129.5C 346.083,132.139 351.083,133.805 356.5,134.5C 366.462,138.205 376.628,141.538 387,144.5C 389.208,158.739 390.042,173.073 389.5,187.5C 387.883,186.962 386.216,186.629 384.5,186.5C 383.122,185.766 381.622,185.099 380,184.5C 379.667,177.833 379.333,171.167 379,164.5C 378.815,160.344 377.982,156.344 376.5,152.5C 333.983,138.902 291.316,125.902 248.5,113.5C 206.36,125.824 164.36,138.658 122.5,152C 120.934,154.93 120.1,158.097 120,161.5C 119.5,169.159 119.334,176.826 119.5,184.5C 116.167,185.167 112.833,185.833 109.5,186.5C 109.334,176.828 109.5,167.161 110,157.5C 110.182,152.839 111.015,148.339 112.5,144C 154.701,131.123 196.701,117.956 238.5,104.5C 238.833,104.5 239.167,104.5 239.5,104.5C 242.707,103.197 246.04,102.197 249.5,101.5C 269.042,107.968 288.709,113.968 308.5,119.5 Z"/></g>
<g><path style="opacity:1" fill="#d36559" d="M 308.5,119.5 C 311.522,119.804 314.522,120.304 317.5,121C 325.317,123.398 332.984,126.232 340.5,129.5C 329.46,127.078 318.793,123.745 308.5,119.5 Z"/></g>
<g><path style="opacity:1" fill="#e04332" d="M 274.5,100.5 C 293.115,105.596 311.448,111.263 329.5,117.5C 330.98,119.412 332.98,120.579 335.5,121C 333.744,121.202 332.078,121.702 330.5,122.5C 331.333,122.833 332.167,123.167 333,123.5C 338.012,121.892 342.845,122.225 347.5,124.5C 348.668,125.906 348.335,127.072 346.5,128C 347.167,128.333 347.833,128.667 348.5,129C 346.19,129.497 343.857,129.663 341.5,129.5C 341.167,129.5 340.833,129.5 340.5,129.5C 332.984,126.232 325.317,123.398 317.5,121C 314.522,120.304 311.522,119.804 308.5,119.5C 303.443,117.641 298.443,115.475 293.5,113C 287.768,113.035 282.768,111.202 278.5,107.5C 272.988,107.018 267.655,105.851 262.5,104C 264.577,103.808 266.577,103.308 268.5,102.5C 268.291,101.914 267.957,101.414 267.5,101C 269.81,100.503 272.143,100.337 274.5,100.5 Z"/></g>
<g><path style="opacity:1" fill="#d5483a" d="M 329.5,117.5 C 345.775,121.897 361.775,126.897 377.5,132.5C 370.797,131.428 364.13,130.095 357.5,128.5C 354.729,128.384 352.729,129.551 351.5,132C 353.653,132.099 355.319,132.933 356.5,134.5C 351.083,133.805 346.083,132.139 341.5,129.5C 343.857,129.663 346.19,129.497 348.5,129C 347.833,128.667 347.167,128.333 346.5,128C 348.335,127.072 348.668,125.906 347.5,124.5C 342.845,122.225 338.012,121.892 333,123.5C 332.167,123.167 331.333,122.833 330.5,122.5C 332.078,121.702 333.744,121.202 335.5,121C 332.98,120.579 330.98,119.412 329.5,117.5 Z"/></g>
<g><path style="opacity:1" fill="#e34331" d="M 377.5,132.5 C 379.557,134.856 382.224,135.856 385.5,135.5C 385.5,137.167 385.5,138.833 385.5,140.5C 381.288,140.922 377.288,140.256 373.5,138.5C 372.719,137.271 372.219,135.938 372,134.5C 370.82,135.684 369.32,136.351 367.5,136.5C 363.824,135.829 360.157,135.162 356.5,134.5C 355.319,132.933 353.653,132.099 351.5,132C 352.729,129.551 354.729,128.384 357.5,128.5C 364.13,130.095 370.797,131.428 377.5,132.5 Z"/></g>
<g><path style="opacity:1" fill="#1b549f" d="M 384.5,186.5 C 382.533,186.739 380.699,186.406 379,185.5C 378.667,182.833 378.333,180.167 378,177.5C 373.754,179.06 372.587,181.893 374.5,186C 373.953,186.925 373.287,187.758 372.5,188.5C 370.955,183.73 367.622,181.563 362.5,182C 361.944,181.617 361.611,181.117 361.5,180.5C 364.545,180.508 367.545,180.841 370.5,181.5C 370.56,182.043 370.893,182.376 371.5,182.5C 372.811,178.016 372.811,173.683 371.5,169.5C 371.5,165.5 371.5,161.5 371.5,157.5C 330.442,146.026 289.609,133.692 249,120.5C 208.833,133 168.667,145.5 128.5,158C 126.581,166.03 126.081,174.196 127,182.5C 142.573,178.034 158.407,174.7 174.5,172.5C 174.389,173.117 174.056,173.617 173.5,174C 164.864,175.488 156.197,177.155 147.5,179C 148.5,179.5 149.5,180 150.5,180.5C 153.167,179.833 155.833,179.167 158.5,178.5C 159.386,179.325 159.719,180.325 159.5,181.5C 155.513,181.284 151.68,181.951 148,183.5C 146.452,182.316 144.952,182.483 143.5,184C 144.263,184.944 145.263,185.444 146.5,185.5C 150.774,183.743 155.107,183.41 159.5,184.5C 153.455,186.763 147.289,188.763 141,190.5C 140.333,189.167 139.667,189.167 139,190.5C 138.667,189.167 138.333,187.833 138,186.5C 137.111,187.888 136.611,187.722 136.5,186C 137.444,184.523 138.777,183.523 140.5,183C 138.19,182.503 135.857,182.337 133.5,182.5C 133.034,184.201 133.034,185.701 133.5,187C 128.377,188.544 125.211,186.71 124,181.5C 123.83,183.715 123.163,185.715 122,187.5C 120.644,186.62 119.144,186.286 117.5,186.5C 117.785,188.288 117.452,189.955 116.5,191.5C 115.588,189.257 113.922,188.257 111.5,188.5C 107.118,190.464 102.784,190.797 98.5,189.5C 98.8333,189.5 99.1667,189.5 99.5,189.5C 101.527,189.662 103.527,189.495 105.5,189C 106.056,188.617 106.389,188.117 106.5,187.5C 107.791,187.737 108.791,187.404 109.5,186.5C 112.833,185.833 116.167,185.167 119.5,184.5C 119.334,176.826 119.5,169.159 120,161.5C 120.1,158.097 120.934,154.93 122.5,152C 164.36,138.658 206.36,125.824 248.5,113.5C 291.316,125.902 333.983,138.902 376.5,152.5C 377.982,156.344 378.815,160.344 379,164.5C 379.333,171.167 379.667,177.833 380,184.5C 381.622,185.099 383.122,185.766 384.5,186.5 Z"/></g>
<g><path style="opacity:1" fill="#fbfcfc" d="M 371.5,169.5 C 371.817,173.702 371.483,177.702 370.5,181.5C 367.545,180.841 364.545,180.508 361.5,180.5C 344.655,175.296 327.321,171.962 309.5,170.5C 275.742,166.317 241.742,165.484 207.5,168C 196.594,168.818 185.928,170.318 175.5,172.5C 175.167,172.5 174.833,172.5 174.5,172.5C 158.407,174.7 142.573,178.034 127,182.5C 126.081,174.196 126.581,166.03 128.5,158C 168.667,145.5 208.833,133 249,120.5C 289.609,133.692 330.442,146.026 371.5,157.5C 371.5,161.5 371.5,165.5 371.5,169.5 Z"/></g>
<g><path style="opacity:1" fill="#bf4a3e" d="M 134.5,128.5 C 124.653,132.132 114.653,135.466 104.5,138.5C 104.923,140.781 104.256,142.448 102.5,143.5C 102.317,141.064 102.984,138.897 104.5,137C 114.448,133.848 124.448,131.014 134.5,128.5 Z"/></g>
<g><path style="opacity:1" fill="#de4736" d="M 213.5,103.5 C 212.878,105.335 211.544,106.502 209.5,107C 213.16,107.547 216.827,108.047 220.5,108.5C 226.418,106.854 232.418,105.521 238.5,104.5C 196.701,117.956 154.701,131.123 112.5,144C 111.015,148.339 110.182,152.839 110,157.5C 109.5,167.161 109.334,176.828 109.5,186.5C 108.791,187.404 107.791,187.737 106.5,187.5C 104.565,188.15 102.565,188.483 100.5,188.5C 100.737,187.209 100.404,186.209 99.5,185.5C 99.6882,171.39 100.688,157.39 102.5,143.5C 104.256,142.448 104.923,140.781 104.5,138.5C 114.653,135.466 124.653,132.132 134.5,128.5C 160.532,119.602 186.865,111.269 213.5,103.5 Z"/></g>
<g><path style="opacity:1" fill="#eaa299" d="M 245.5,138.5 C 241.167,139.167 236.833,139.833 232.5,140.5C 231.711,140.217 231.044,139.717 230.5,139C 235.489,138.501 240.489,138.334 245.5,138.5 Z"/></g>
<g><path style="opacity:1" fill="#e9a19b" d="M 253.5,139.5 C 253.5,139.167 253.5,138.833 253.5,138.5C 258.511,138.334 263.511,138.501 268.5,139C 267.956,139.717 267.289,140.217 266.5,140.5C 262.366,139.515 258.032,139.182 253.5,139.5 Z"/></g>
<g><path style="opacity:1" fill="#d54b3b" d="M 377.5,132.5 C 383.325,133.552 388.992,135.219 394.5,137.5C 396.022,140.629 396.855,143.963 397,147.5C 397.499,152.155 397.666,156.821 397.5,161.5C 396.617,155.322 395.784,148.988 395,142.5C 393.701,142.034 392.201,142.034 390.5,142.5C 390.575,157 390.575,171.667 390.5,186.5C 392.5,186.5 394.5,186.5 396.5,186.5C 396.175,178.648 396.508,170.982 397.5,163.5C 397.5,171.833 397.5,180.167 397.5,188.5C 396.167,188.5 394.833,188.5 393.5,188.5C 392.432,187.566 391.099,187.232 389.5,187.5C 390.042,173.073 389.208,158.739 387,144.5C 376.628,141.538 366.462,138.205 356.5,134.5C 360.157,135.162 363.824,135.829 367.5,136.5C 369.32,136.351 370.82,135.684 372,134.5C 372.219,135.938 372.719,137.271 373.5,138.5C 377.288,140.256 381.288,140.922 385.5,140.5C 385.5,138.833 385.5,137.167 385.5,135.5C 382.224,135.856 379.557,134.856 377.5,132.5 Z"/></g>
<g><path style="opacity:1" fill="#db4b39" d="M 253.5,138.5 C 253.5,138.833 253.5,139.167 253.5,139.5C 252.05,138.342 251.05,138.842 250.5,141C 252.022,148.523 250.688,149.19 246.5,143C 248.657,141.915 248.824,140.749 247,139.5C 243.255,140.297 239.421,140.797 235.5,141C 236.381,141.708 237.047,142.542 237.5,143.5C 235.589,142.925 233.922,141.925 232.5,140.5C 236.833,139.833 241.167,139.167 245.5,138.5C 248.167,122.5 250.833,122.5 253.5,138.5 Z"/></g>
<g><path style="opacity:1" fill="#e34231" d="M 397.5,161.5 C 398.167,161.5 398.5,161.833 398.5,162.5C 397.833,162.5 397.5,162.833 397.5,163.5C 396.508,170.982 396.175,178.648 396.5,186.5C 394.5,186.5 392.5,186.5 390.5,186.5C 390.575,171.667 390.575,157 390.5,142.5C 392.201,142.034 393.701,142.034 395,142.5C 395.784,148.988 396.617,155.322 397.5,161.5 Z"/></g>
<g><path style="opacity:1" fill="#e24332" d="M 205.5,145.5 C 209.084,146.546 212.75,147.379 216.5,148C 215.244,148.417 214.577,149.25 214.5,150.5C 212.744,151.552 212.077,153.219 212.5,155.5C 209.178,154.176 206.178,154.176 203.5,155.5C 204.799,152.566 204.132,150.066 201.5,148C 203.437,147.878 204.77,147.045 205.5,145.5 Z"/></g>
<g><path style="opacity:1" fill="#d65849" d="M 214.5,150.5 C 214.577,149.25 215.244,148.417 216.5,148C 212.75,147.379 209.084,146.546 205.5,145.5C 205.737,142.353 206.57,139.353 208,136.5C 208.942,139.443 210.108,142.276 211.5,145C 221.522,144.232 222.522,146.066 214.5,150.5 Z"/></g>
<g><path style="opacity:1" fill="#e5422f" d="M 253.5,139.5 C 256.028,140.166 258.694,140.832 261.5,141.5C 260.311,142.429 258.978,142.762 257.5,142.5C 256.357,149.31 252.357,152.31 245.5,151.5C 245.5,152.5 245.5,153.5 245.5,154.5C 244.5,154.5 243.5,154.5 242.5,154.5C 243.576,151.266 244.243,147.932 244.5,144.5C 242.097,144.552 239.764,144.219 237.5,143.5C 237.047,142.542 236.381,141.708 235.5,141C 239.421,140.797 243.255,140.297 247,139.5C 248.824,140.749 248.657,141.915 246.5,143C 250.688,149.19 252.022,148.523 250.5,141C 251.05,138.842 252.05,138.342 253.5,139.5 Z"/></g>
<g><path style="opacity:1" fill="#d5594a" d="M 293.5,145.5 C 296.85,145.335 300.183,145.502 303.5,146C 301.241,147.715 299.074,149.548 297,151.5C 296.846,154.063 297.346,156.563 298.5,159C 296.799,160.585 295.465,160.085 294.5,157.5C 295.376,157.631 296.043,157.298 296.5,156.5C 294.774,153.065 293.774,149.398 293.5,145.5 Z"/></g>
<g><path style="opacity:1" fill="#e14636" d="M 293.5,145.5 C 293.774,149.398 294.774,153.065 296.5,156.5C 296.043,157.298 295.376,157.631 294.5,157.5C 292.708,154.517 290.208,153.851 287,155.5C 287.185,151.353 285.352,148.52 281.5,147C 283.708,146.809 285.708,146.309 287.5,145.5C 289.931,133.712 291.931,133.712 293.5,145.5 Z"/></g>
<g><path style="opacity:1" fill="#d85042" d="M 253.5,139.5 C 258.032,139.182 262.366,139.515 266.5,140.5C 263.784,142.613 260.95,144.613 258,146.5C 258.575,151.123 259.242,155.789 260,160.5C 256.414,158.291 252.914,155.957 249.5,153.5C 245.742,155.461 242.242,157.795 239,160.5C 239.466,156.516 240.3,152.516 241.5,148.5C 240.177,146.835 238.844,145.168 237.5,143.5C 239.764,144.219 242.097,144.552 244.5,144.5C 244.243,147.932 243.576,151.266 242.5,154.5C 243.5,154.5 244.5,154.5 245.5,154.5C 245.5,153.5 245.5,152.5 245.5,151.5C 252.357,152.31 256.357,149.31 257.5,142.5C 258.978,142.762 260.311,142.429 261.5,141.5C 258.694,140.832 256.028,140.166 253.5,139.5 Z"/></g>
<g><path style="opacity:1" fill="#d2594b" d="M 287.5,145.5 C 285.708,146.309 283.708,146.809 281.5,147C 285.352,148.52 287.185,151.353 287,155.5C 290.208,153.851 292.708,154.517 294.5,157.5C 292.956,157.297 291.622,156.63 290.5,155.5C 288.476,157.358 286.309,159.025 284,160.5C 283.54,157.696 284.04,155.029 285.5,152.5C 283.393,150.273 281.06,148.273 278.5,146.5C 281.428,145.516 284.428,145.183 287.5,145.5 Z"/></g>
<g><path style="opacity:1" fill="#d55648" d="M 205.5,145.5 C 204.77,147.045 203.437,147.878 201.5,148C 204.132,150.066 204.799,152.566 203.5,155.5C 206.178,154.176 209.178,154.176 212.5,155.5C 212.077,153.219 212.744,151.552 214.5,150.5C 214.196,151.15 213.863,151.817 213.5,152.5C 214.577,154.729 215.244,157.063 215.5,159.5C 212.685,158.874 210.185,157.54 208,155.5C 202.197,161.171 200.197,159.838 202,151.5C 193.184,145.921 194.35,143.921 205.5,145.5 Z"/></g>
<g><path style="opacity:1" fill="#0e52a4" d="M 309.5,170.5 C 327.321,171.962 344.655,175.296 361.5,180.5C 361.611,181.117 361.944,181.617 362.5,182C 367.622,181.563 370.955,183.73 372.5,188.5C 373.287,187.758 373.953,186.925 374.5,186C 372.587,181.893 373.754,179.06 378,177.5C 378.333,180.167 378.667,182.833 379,185.5C 380.699,186.406 382.533,186.739 384.5,186.5C 386.216,186.629 387.883,186.962 389.5,187.5C 391.099,187.232 392.432,187.566 393.5,188.5C 395.265,189.461 397.265,189.795 399.5,189.5C 401.75,190.13 403.75,191.13 405.5,192.5C 405.5,193.5 405.5,194.5 405.5,195.5C 406.5,195.5 407.5,195.5 408.5,195.5C 408.923,218.202 408.423,240.868 407,263.5C 405.901,266.864 404.401,270.03 402.5,273C 401.5,273.667 400.5,273.667 399.5,273C 398.213,271.59 397.046,270.09 396,268.5C 394.989,269.337 393.822,269.67 392.5,269.5C 391.146,266.216 391.48,263.216 393.5,260.5C 392.094,258.974 390.928,257.307 390,255.5C 389.51,256.793 389.343,258.127 389.5,259.5C 386.833,259.5 384.167,259.5 381.5,259.5C 378.779,259.037 376.112,258.371 373.5,257.5C 371.738,257.357 370.071,257.691 368.5,258.5C 367.52,255.914 367.187,253.247 367.5,250.5C 365.535,251.129 363.535,251.796 361.5,252.5C 359.182,252.003 356.848,251.67 354.5,251.5C 348.145,250.274 341.812,248.941 335.5,247.5C 335.5,246.167 335.5,244.833 335.5,243.5C 332.367,244.011 329.2,244.344 326,244.5C 315.713,241.654 305.213,239.821 294.5,239C 273.329,238.171 252.329,238.337 231.5,239.5C 220.153,240.075 208.82,240.909 197.5,242C 192.985,242.146 188.652,242.979 184.5,244.5C 183.391,244.557 182.391,244.89 181.5,245.5C 177.818,245.335 174.152,245.501 170.5,246C 161.574,248.265 152.574,250.098 143.5,251.5C 139.381,251.488 135.548,252.488 132,254.5C 132.926,261.205 132.593,267.872 131,274.5C 130.722,273.584 130.222,272.918 129.5,272.5C 127.168,267.874 125.835,262.874 125.5,257.5C 123.194,257.993 120.861,258.326 118.5,258.5C 115.254,258.398 112.42,257.398 110,255.5C 109.167,255.833 108.333,256.167 107.5,256.5C 112.908,258.2 112.742,259.2 107,259.5C 101.625,257.546 96.1247,256.213 90.5,255.5C 90.167,235.489 90.5004,215.489 91.5,195.5C 93.4168,193.568 95.4168,191.901 97.5,190.5C 97.5,189.833 97.8333,189.5 98.5,189.5C 102.784,190.797 107.118,190.464 111.5,188.5C 113.922,188.257 115.588,189.257 116.5,191.5C 117.452,189.955 117.785,188.288 117.5,186.5C 119.144,186.286 120.644,186.62 122,187.5C 123.163,185.715 123.83,183.715 124,181.5C 125.211,186.71 128.377,188.544 133.5,187C 133.034,185.701 133.034,184.201 133.5,182.5C 135.857,182.337 138.19,182.503 140.5,183C 138.777,183.523 137.444,184.523 136.5,186C 136.611,187.722 137.111,187.888 138,186.5C 138.333,187.833 138.667,189.167 139,190.5C 139.667,189.167 140.333,189.167 141,190.5C 147.289,188.763 153.455,186.763 159.5,184.5C 155.107,183.41 150.774,183.743 146.5,185.5C 145.263,185.444 144.263,184.944 143.5,184C 144.952,182.483 146.452,182.316 148,183.5C 151.68,181.951 155.513,181.284 159.5,181.5C 159.719,180.325 159.386,179.325 158.5,178.5C 155.833,179.167 153.167,179.833 150.5,180.5C 149.5,180 148.5,179.5 147.5,179C 156.197,177.155 164.864,175.488 173.5,174C 174.056,173.617 174.389,173.117 174.5,172.5C 174.833,172.5 175.167,172.5 175.5,172.5C 189.931,171.936 204.265,170.77 218.5,169C 248.858,168.195 279.191,168.695 309.5,170.5 Z"/></g>
<g><path style="opacity:1" fill="#3a64a0" d="M 309.5,170.5 C 279.191,168.695 248.858,168.195 218.5,169C 204.265,170.77 189.931,171.936 175.5,172.5C 185.928,170.318 196.594,168.818 207.5,168C 241.742,165.484 275.742,166.317 309.5,170.5 Z"/></g>
<g><path style="opacity:1" fill="#83aedb" d="M 371.5,169.5 C 372.811,173.683 372.811,178.016 371.5,182.5C 370.893,182.376 370.56,182.043 370.5,181.5C 371.483,177.702 371.817,173.702 371.5,169.5 Z"/></g>
<g><path style="opacity:0.667" fill="#a54c48" d="M 398.5,162.5 C 398.196,171.584 398.529,180.584 399.5,189.5C 397.265,189.795 395.265,189.461 393.5,188.5C 394.833,188.5 396.167,188.5 397.5,188.5C 397.5,180.167 397.5,171.833 397.5,163.5C 397.5,162.833 397.833,162.5 398.5,162.5 Z"/></g>
<g><path style="opacity:1" fill="#894c5a" d="M 99.5,185.5 C 100.404,186.209 100.737,187.209 100.5,188.5C 102.565,188.483 104.565,188.15 106.5,187.5C 106.389,188.117 106.056,188.617 105.5,189C 103.527,189.495 101.527,189.662 99.5,189.5C 99.5,188.167 99.5,186.833 99.5,185.5 Z"/></g>
<g><path style="opacity:1" fill="#3460a0" d="M 231.5,239.5 C 252.329,238.337 273.329,238.171 294.5,239C 305.213,239.821 315.713,241.654 326,244.5C 329.2,244.344 332.367,244.011 335.5,243.5C 335.5,244.833 335.5,246.167 335.5,247.5C 329.875,246.507 324.208,245.84 318.5,245.5C 317.791,244.596 316.791,244.263 315.5,244.5C 301.08,242.066 286.414,240.566 271.5,240C 258.171,239.5 244.837,239.333 231.5,239.5 Z"/></g>
<g><path style="opacity:1" fill="#fafbfb" d="M 231.5,239.5 C 244.837,239.333 258.171,239.5 271.5,240C 286.414,240.566 301.08,242.066 315.5,244.5C 310.053,247.44 304.72,250.607 299.5,254C 298.304,254.654 298.304,255.154 299.5,255.5C 305.702,251.899 312.036,248.566 318.5,245.5C 324.208,245.84 329.875,246.507 335.5,247.5C 341.812,248.941 348.145,250.274 354.5,251.5C 358.226,253.13 362.226,254.13 366.5,254.5C 361.204,283.4 350.204,309.733 333.5,333.5C 333.489,331.983 332.823,330.816 331.5,330C 329.391,328.354 327.057,327.188 324.5,326.5C 324.5,320.167 324.5,313.833 324.5,307.5C 326.734,308.447 329.068,309.114 331.5,309.5C 332.5,309.167 333.5,308.833 334.5,308.5C 331.362,306.7 328.029,305.367 324.5,304.5C 322.446,297.688 319.779,291.021 316.5,284.5C 328.167,285.636 339.834,285.636 351.5,284.5C 351.291,283.914 350.957,283.414 350.5,283C 339.158,282.486 327.824,282.653 316.5,283.5C 313.596,278.259 309.929,273.593 305.5,269.5C 302.463,265.463 298.797,262.129 294.5,259.5C 293.198,257.178 291.198,255.845 288.5,255.5C 276.487,247.494 263.153,243.827 248.5,244.5C 234.063,243.688 221.063,247.354 209.5,255.5C 199.5,261.5 191.5,269.5 185.5,279.5C 184.5,280.833 183.5,282.167 182.5,283.5C 170.835,283.13 159.168,282.796 147.5,282.5C 147.5,283.5 147.5,284.5 147.5,285.5C 158.833,285.5 170.167,285.5 181.5,285.5C 179.119,291.577 176.785,297.577 174.5,303.5C 170.497,303.416 166.831,304.416 163.5,306.5C 167.208,307.333 170.874,307 174.5,305.5C 174.5,312.5 174.5,319.5 174.5,326.5C 171.91,327.128 169.577,328.295 167.5,330C 166.177,330.816 165.511,331.983 165.5,333.5C 152.575,315.982 143.075,296.648 137,275.5C 135.421,269.349 133.921,263.183 132.5,257C 132.645,256.228 132.978,255.561 133.5,255C 136.942,253.816 140.275,252.65 143.5,251.5C 152.574,250.098 161.574,248.265 170.5,246C 174.152,245.501 177.818,245.335 181.5,245.5C 184.995,248.447 188.995,250.447 193.5,251.5C 190.681,248.925 187.681,246.592 184.5,244.5C 188.652,242.979 192.985,242.146 197.5,242C 208.82,240.909 220.153,240.075 231.5,239.5 Z"/></g>
<g><path style="opacity:1" fill="#1b549c" d="M 288.5,255.5 C 286.407,254.027 284.74,254.527 283.5,257C 281.272,257.82 279.272,257.487 277.5,256C 278.91,255.632 279.91,254.799 280.5,253.5C 278.004,252.42 275.67,251.086 273.5,249.5C 271.505,252.168 268.838,253.835 265.5,254.5C 266.025,255.192 266.692,255.692 267.5,256C 265.681,256.74 264.348,257.907 263.5,259.5C 254.255,257.218 244.922,256.884 235.5,258.5C 231.784,260.405 227.784,261.739 223.5,262.5C 224.968,261.194 226.301,259.694 227.5,258C 225.299,257.175 223.466,257.675 222,259.5C 221.51,258.207 221.343,256.873 221.5,255.5C 218.873,254.908 216.206,254.575 213.5,254.5C 213.799,256.604 213.466,258.604 212.5,260.5C 211.999,258.345 210.999,256.678 209.5,255.5C 221.063,247.354 234.063,243.688 248.5,244.5C 263.153,243.827 276.487,247.494 288.5,255.5 Z"/></g>
<g><path style="opacity:1" fill="#d47c83" d="M 184.5,244.5 C 187.681,246.592 190.681,248.925 193.5,251.5C 188.995,250.447 184.995,248.447 181.5,245.5C 182.391,244.89 183.391,244.557 184.5,244.5 Z"/></g>
<g><path style="opacity:1" fill="#cf858a" d="M 315.5,244.5 C 316.791,244.263 317.791,244.596 318.5,245.5C 312.036,248.566 305.702,251.899 299.5,255.5C 298.304,255.154 298.304,254.654 299.5,254C 304.72,250.607 310.053,247.44 315.5,244.5 Z"/></g>
<g><path style="opacity:1" fill="#0d52a5" d="M 235.5,258.5 C 233.801,258.66 232.134,258.494 230.5,258C 232.891,257.309 232.891,256.309 230.5,255C 229.551,254.383 228.718,254.549 228,255.5C 224.979,254.351 222.146,253.018 219.5,251.5C 225.981,247.532 232.648,246.865 239.5,249.5C 239.5,248.5 239.5,247.5 239.5,246.5C 248.173,246.334 256.84,246.5 265.5,247C 267.246,247.471 268.913,248.138 270.5,249C 267.5,249.333 264.5,249.667 261.5,250C 261,250.5 260.5,251 260,251.5C 258.6,248.654 257.1,248.321 255.5,250.5C 256.328,251.415 257.328,252.081 258.5,252.5C 259.833,254.167 259.833,255.833 258.5,257.5C 251.217,256.368 243.883,256.201 236.5,257C 235.944,257.383 235.611,257.883 235.5,258.5 Z"/></g>
<g><path style="opacity:1" fill="#ce8a97" d="M 193.5,251.5 C 196.09,252.128 198.423,253.295 200.5,255C 197.664,254.915 195.331,253.749 193.5,251.5 Z"/></g>
<g><path style="opacity:1" fill="#0f51a5" d="M 288.5,255.5 C 291.198,255.845 293.198,257.178 294.5,259.5C 293.708,261.257 292.375,262.591 290.5,263.5C 290.709,264.086 291.043,264.586 291.5,265C 289.5,265.5 287.5,266 285.5,266.5C 281.369,262.709 276.703,259.709 271.5,257.5C 269.028,258.992 266.361,259.658 263.5,259.5C 264.348,257.907 265.681,256.74 267.5,256C 266.692,255.692 266.025,255.192 265.5,254.5C 268.838,253.835 271.505,252.168 273.5,249.5C 275.67,251.086 278.004,252.42 280.5,253.5C 279.91,254.799 278.91,255.632 277.5,256C 279.272,257.487 281.272,257.82 283.5,257C 284.74,254.527 286.407,254.027 288.5,255.5 Z"/></g>
<g><path style="opacity:1" fill="#1f4f96" d="M 97.5,190.5 C 95.4168,191.901 93.4168,193.568 91.5,195.5C 90.5004,215.489 90.167,235.489 90.5,255.5C 96.1247,256.213 101.625,257.546 107,259.5C 112.742,259.2 112.908,258.2 107.5,256.5C 108.333,256.167 109.167,255.833 110,255.5C 112.42,257.398 115.254,258.398 118.5,258.5C 118.5,259.167 118.167,259.5 117.5,259.5C 115.363,260.787 113.03,261.621 110.5,262C 109.199,263.616 109.199,265.116 110.5,266.5C 110.946,272.496 112.446,278.163 115,283.5C 115.497,286.146 115.664,288.813 115.5,291.5C 113.142,289.471 110.808,287.471 108.5,285.5C 110.17,285.751 111.67,286.418 113,287.5C 113.18,285.512 113.014,283.512 112.5,281.5C 111.5,281.5 110.5,281.5 109.5,281.5C 108.833,279.181 108.666,276.847 109,274.5C 109.333,274.833 109.667,275.167 110,275.5C 110.729,271.189 109.563,267.522 106.5,264.5C 105.757,265.908 104.923,267.241 104,268.5C 103.818,265.774 103.318,263.107 102.5,260.5C 100.678,261.429 99.3449,260.762 98.5,258.5C 96.5494,259.256 94.7161,259.589 93,259.5C 92.371,263.378 93.371,266.712 96,269.5C 96.49,270.793 96.6567,272.127 96.5,273.5C 98.3904,273.297 99.8904,273.963 101,275.5C 101.655,277.628 102.489,279.628 103.5,281.5C 98.9389,277.961 94.4389,274.295 90,270.5C 89.3333,244.833 89.3333,219.167 90,193.5C 92.3078,192.009 94.8078,191.009 97.5,190.5 Z"/></g>
<g><path style="opacity:1" fill="#e34333" d="M 387.5,267.5 C 387.5,267.833 387.5,268.167 387.5,268.5C 385.99,269.728 384.49,269.728 383,268.5C 382.505,266.527 382.338,264.527 382.5,262.5C 384.167,262.5 385.833,262.5 387.5,262.5C 387.5,264.167 387.5,265.833 387.5,267.5 Z"/></g>
<g><path style="opacity:1" fill="#0f51a4" d="M 108.5,285.5 C 106.809,284.136 105.142,282.803 103.5,281.5C 102.489,279.628 101.655,277.628 101,275.5C 99.8904,273.963 98.3904,273.297 96.5,273.5C 96.6567,272.127 96.49,270.793 96,269.5C 93.371,266.712 92.371,263.378 93,259.5C 94.7161,259.589 96.5494,259.256 98.5,258.5C 99.3449,260.762 100.678,261.429 102.5,260.5C 103.318,263.107 103.818,265.774 104,268.5C 104.923,267.241 105.757,265.908 106.5,264.5C 109.563,267.522 110.729,271.189 110,275.5C 109.667,275.167 109.333,274.833 109,274.5C 108.666,276.847 108.833,279.181 109.5,281.5C 110.5,281.5 111.5,281.5 112.5,281.5C 113.014,283.512 113.18,285.512 113,287.5C 111.67,286.418 110.17,285.751 108.5,285.5 Z"/></g>
<g><path style="opacity:1" fill="#215097" d="M 405.5,192.5 C 406.822,192.33 407.989,192.663 409,193.5C 409.667,219.167 409.667,244.833 409,270.5C 400.379,277.878 391.546,284.878 382.5,291.5C 382.952,287.454 383.619,283.454 384.5,279.5C 386.318,276.156 387.318,272.489 387.5,268.5C 387.5,268.167 387.5,267.833 387.5,267.5C 388.461,265.735 388.795,263.735 388.5,261.5C 386.139,261.326 383.806,260.993 381.5,260.5C 381.5,260.167 381.5,259.833 381.5,259.5C 384.167,259.5 386.833,259.5 389.5,259.5C 389.343,258.127 389.51,256.793 390,255.5C 390.928,257.307 392.094,258.974 393.5,260.5C 391.48,263.216 391.146,266.216 392.5,269.5C 393.822,269.67 394.989,269.337 396,268.5C 397.046,270.09 398.213,271.59 399.5,273C 400.5,273.667 401.5,273.667 402.5,273C 404.401,270.03 405.901,266.864 407,263.5C 408.423,240.868 408.923,218.202 408.5,195.5C 407.5,195.5 406.5,195.5 405.5,195.5C 405.5,194.5 405.5,193.5 405.5,192.5 Z"/></g>
<g><path style="opacity:1" fill="#1151a3" d="M 223.5,262.5 C 222.685,263.837 221.518,264.837 220,265.5C 219.506,267.134 219.34,268.801 219.5,270.5C 218.737,271.268 217.737,271.768 216.5,272C 215.748,272.671 215.414,273.504 215.5,274.5C 211.167,279.5 206.5,284.167 201.5,288.5C 197.896,288.635 194.229,288.635 190.5,288.5C 189.319,290.135 189.319,291.802 190.5,293.5C 189.194,294.912 188.36,296.579 188,298.5C 186.605,297.185 185.605,297.519 185,299.5C 183.56,298.07 183.226,296.403 184,294.5C 184.399,291.013 185.899,288.179 188.5,286C 187.062,285.781 185.729,285.281 184.5,284.5C 185.309,282.929 185.643,281.262 185.5,279.5C 191.5,269.5 199.5,261.5 209.5,255.5C 210.999,256.678 211.999,258.345 212.5,260.5C 213.466,258.604 213.799,256.604 213.5,254.5C 216.206,254.575 218.873,254.908 221.5,255.5C 221.343,256.873 221.51,258.207 222,259.5C 223.466,257.675 225.299,257.175 227.5,258C 226.301,259.694 224.968,261.194 223.5,262.5 Z"/></g>
<g><path style="opacity:1" fill="#cf554a" d="M 381.5,260.5 C 383.806,260.993 386.139,261.326 388.5,261.5C 388.795,263.735 388.461,265.735 387.5,267.5C 387.5,265.833 387.5,264.167 387.5,262.5C 385.833,262.5 384.167,262.5 382.5,262.5C 382.338,264.527 382.505,266.527 383,268.5C 384.49,269.728 385.99,269.728 387.5,268.5C 387.318,272.489 386.318,276.156 384.5,279.5C 384.704,276.482 385.037,273.482 385.5,270.5C 384.07,270.579 382.736,270.246 381.5,269.5C 379.279,273.535 378.112,277.868 378,282.5C 376.581,284.993 375.081,287.326 373.5,289.5C 376.326,279.861 378.993,270.194 381.5,260.5 Z"/></g>
<g><path style="opacity:1" fill="#cc4e45" d="M 117.5,259.5 C 118.883,267.65 120.883,275.65 123.5,283.5C 121.864,282.251 120.697,280.584 120,278.5C 118.474,279.545 117.641,281.045 117.5,283C 118.209,288.171 118.876,293.338 119.5,298.5C 118.172,296.207 116.839,293.873 115.5,291.5C 115.664,288.813 115.497,286.146 115,283.5C 112.446,278.163 110.946,272.496 110.5,266.5C 109.199,265.116 109.199,263.616 110.5,262C 113.03,261.621 115.363,260.787 117.5,259.5 Z"/></g>
<g><path style="opacity:1" fill="#e44232" d="M 110.5,266.5 C 111.446,263.687 113.446,262.354 116.5,262.5C 116.411,265.725 117.077,268.725 118.5,271.5C 118.218,274.131 117.551,276.631 116.5,279C 116.167,279.167 115.833,279.333 115.5,279.5C 114.027,275.583 112.861,271.583 112,267.5C 111.617,266.944 111.117,266.611 110.5,266.5 Z"/></g>
<g><path style="opacity:1" fill="#b8494d" d="M 384.5,279.5 C 383.619,283.454 382.952,287.454 382.5,291.5C 381.87,293.75 380.87,295.75 379.5,297.5C 380.188,291.745 381.355,286.078 383,280.5C 383.383,279.944 383.883,279.611 384.5,279.5 Z"/></g>
<g><path style="opacity:1" fill="#1e559f" d="M 373.5,257.5 C 367.006,293.148 352.006,324.481 328.5,351.5C 330.498,347.832 329.498,345.499 325.5,344.5C 328.411,341.01 331.078,337.344 333.5,333.5C 350.204,309.733 361.204,283.4 366.5,254.5C 362.226,254.13 358.226,253.13 354.5,251.5C 356.848,251.67 359.182,252.003 361.5,252.5C 363.535,251.796 365.535,251.129 367.5,250.5C 367.187,253.247 367.52,255.914 368.5,258.5C 370.071,257.691 371.738,257.357 373.5,257.5 Z"/></g>
<g><path style="opacity:1" fill="#1d559f" d="M 143.5,251.5 C 140.275,252.65 136.942,253.816 133.5,255C 132.978,255.561 132.645,256.228 132.5,257C 133.921,263.183 135.421,269.349 137,275.5C 143.075,296.648 152.575,315.982 165.5,333.5C 169.717,339.896 174.551,345.896 180,351.5C 179.981,349.893 179.815,348.226 179.5,346.5C 180.629,347.47 181.629,348.636 182.5,350C 181.645,351.451 181.478,352.951 182,354.5C 180.282,353.15 178.448,351.983 176.5,351C 175.365,350.251 174.365,350.417 173.5,351.5C 175.454,353.468 177.788,354.802 180.5,355.5C 180.244,357.792 180.577,359.959 181.5,362C 184.184,363.42 186.851,363.92 189.5,363.5C 188.833,364.5 188.167,365.5 187.5,366.5C 188.63,367.622 189.297,368.956 189.5,370.5C 158.439,344.737 138.439,312.07 129.5,272.5C 130.222,272.918 130.722,273.584 131,274.5C 132.593,267.872 132.926,261.205 132,254.5C 135.548,252.488 139.381,251.488 143.5,251.5 Z"/></g>
<g><path style="opacity:1" fill="#e24432" d="M 384.5,279.5 C 383.883,279.611 383.383,279.944 383,280.5C 381.355,286.078 380.188,291.745 379.5,297.5C 378.215,299.452 376.549,301.118 374.5,302.5C 375.565,304.853 375.398,307.186 374,309.5C 371.021,314.432 368.187,319.432 365.5,324.5C 364.623,327.565 363.623,330.565 362.5,333.5C 358.439,333.892 355.439,335.892 353.5,339.5C 352.571,338.311 352.238,336.978 352.5,335.5C 353.5,335.5 354.5,335.5 355.5,335.5C 355.838,333.146 356.338,330.813 357,328.5C 359.426,325.411 361.426,322.078 363,318.5C 363.893,319.711 364.726,319.711 365.5,318.5C 364.04,315.049 364.373,314.383 366.5,316.5C 367.446,314.925 367.446,313.258 366.5,311.5C 368.386,308.071 369.386,304.404 369.5,300.5C 370.441,296.675 371.774,293.009 373.5,289.5C 375.081,287.326 376.581,284.993 378,282.5C 378.112,277.868 379.279,273.535 381.5,269.5C 382.736,270.246 384.07,270.579 385.5,270.5C 385.037,273.482 384.704,276.482 384.5,279.5 Z"/></g>
<g><path style="opacity:0.42" fill="#bf4a3f" d="M 379.5,297.5 C 375.408,310.346 369.742,322.346 362.5,333.5C 363.623,330.565 364.623,327.565 365.5,324.5C 368.187,319.432 371.021,314.432 374,309.5C 375.398,307.186 375.565,304.853 374.5,302.5C 376.549,301.118 378.215,299.452 379.5,297.5 Z"/></g>
<g><path style="opacity:1" fill="#d54a3b" d="M 369.5,300.5 C 369.386,304.404 368.386,308.071 366.5,311.5C 367.446,313.258 367.446,314.925 366.5,316.5C 364.373,314.383 364.04,315.049 365.5,318.5C 364.726,319.711 363.893,319.711 363,318.5C 361.426,322.078 359.426,325.411 357,328.5C 356.338,330.813 355.838,333.146 355.5,335.5C 354.5,335.5 353.5,335.5 352.5,335.5C 352.238,336.978 352.571,338.311 353.5,339.5C 355.439,335.892 358.439,333.892 362.5,333.5C 357.064,344.045 350.398,353.712 342.5,362.5C 343.167,359.833 343.833,357.167 344.5,354.5C 345.5,354.5 346.5,354.5 347.5,354.5C 347.5,353.5 347.5,352.5 347.5,351.5C 348.5,351.5 349.5,351.5 350.5,351.5C 350.337,349.143 350.503,346.81 351,344.5C 352.099,347.044 353.265,347.044 354.5,344.5C 353.675,343.614 352.675,343.281 351.5,343.5C 351.649,342.448 351.483,341.448 351,340.5C 348.989,342.678 346.823,344.678 344.5,346.5C 353.958,331.809 362.291,316.476 369.5,300.5 Z"/></g>
<g><path style="opacity:1" fill="#f9f9f9" d="M 129.5,272.5 C 138.439,312.07 158.439,344.737 189.5,370.5C 207.083,384.877 226.916,395.21 249,401.5C 266.61,396.609 282.777,388.942 297.5,378.5C 303.557,375.471 308.891,371.471 313.5,366.5C 318.806,361.86 323.806,356.86 328.5,351.5C 352.006,324.481 367.006,293.148 373.5,257.5C 376.112,258.371 378.779,259.037 381.5,259.5C 381.5,259.833 381.5,260.167 381.5,260.5C 378.993,270.194 376.326,279.861 373.5,289.5C 371.774,293.009 370.441,296.675 369.5,300.5C 362.291,316.476 353.958,331.809 344.5,346.5C 320.462,377.378 289.795,399.211 252.5,412C 250.167,412.667 247.833,412.667 245.5,412C 183.459,389.459 142.792,346.626 123.5,283.5C 120.883,275.65 118.883,267.65 117.5,259.5C 118.167,259.5 118.5,259.167 118.5,258.5C 120.861,258.326 123.194,257.993 125.5,257.5C 125.835,262.874 127.168,267.874 129.5,272.5 Z"/></g>
<g><path style="opacity:1" fill="#1352a2" d="M 186.5,333.5 C 186.5,333.833 186.5,334.167 186.5,334.5C 186.632,343.154 189.632,350.487 195.5,356.5C 200.139,363.139 205.806,368.806 212.5,373.5C 213.952,374.302 215.618,374.802 217.5,375C 216.376,375.249 215.376,375.749 214.5,376.5C 216.006,377.747 217.506,377.747 219,376.5C 219.29,374.956 219.956,373.623 221,372.5C 221.93,374.552 223.43,376.052 225.5,377C 224.207,377.49 222.873,377.657 221.5,377.5C 221.5,378.5 221.5,379.5 221.5,380.5C 224.044,380.104 226.211,380.771 228,382.5C 232.34,382.055 236.507,381.055 240.5,379.5C 242.747,380.374 245.08,380.708 247.5,380.5C 247.472,382.582 248.139,384.416 249.5,386C 256.809,387.442 263.476,386.275 269.5,382.5C 278.988,378.926 287.321,373.592 294.5,366.5C 295.5,366.5 296.5,366.5 297.5,366.5C 297.5,367.5 297.5,368.5 297.5,369.5C 300.896,369.367 301.229,368.367 298.5,366.5C 298.919,365.328 299.585,364.328 300.5,363.5C 302.179,365.104 304.179,365.771 306.5,365.5C 306.5,366.833 306.5,368.167 306.5,369.5C 304.833,369.5 303.167,369.5 301.5,369.5C 301.286,371.144 301.62,372.644 302.5,374C 301.551,374.617 300.718,374.451 300,373.5C 299.228,374.849 298.061,375.682 296.5,376C 297.252,376.671 297.586,377.504 297.5,378.5C 282.777,388.942 266.61,396.609 249,401.5C 226.916,395.21 207.083,384.877 189.5,370.5C 189.297,368.956 188.63,367.622 187.5,366.5C 188.167,365.5 188.833,364.5 189.5,363.5C 186.851,363.92 184.184,363.42 181.5,362C 180.577,359.959 180.244,357.792 180.5,355.5C 177.788,354.802 175.454,353.468 173.5,351.5C 174.365,350.417 175.365,350.251 176.5,351C 178.448,351.983 180.282,353.15 182,354.5C 181.478,352.951 181.645,351.451 182.5,350C 181.629,348.636 180.629,347.47 179.5,346.5C 175.799,332.386 174.799,318.053 176.5,303.5C 177.5,303.5 178.5,303.5 179.5,303.5C 178.637,301.105 178.637,298.771 179.5,296.5C 181.66,299.293 182.994,302.46 183.5,306C 182.768,307.765 181.435,308.932 179.5,309.5C 183.233,316.65 185.066,324.317 185,332.5C 185.383,333.056 185.883,333.389 186.5,333.5 Z"/></g>
<g><path style="opacity:1" fill="#23569c" d="M 194.5,333.5 C 196.119,334.072 197.785,334.405 199.5,334.5C 197.522,335.803 197.522,337.469 199.5,339.5C 200.5,338.833 201.5,338.167 202.5,337.5C 202.833,337.833 203.167,338.167 203.5,338.5C 204.78,341.711 206.114,344.878 207.5,348C 210.513,348.502 213.513,349.002 216.5,349.5C 215.019,350.421 213.686,351.588 212.5,353C 213.977,358.454 216.144,363.621 219,368.5C 220.873,370.709 223.04,372.542 225.5,374C 231.698,376.3 238.031,378.133 244.5,379.5C 250.336,376.839 255.503,373.172 260,368.5C 259.794,365.394 258.961,362.394 257.5,359.5C 258.836,361.307 260.503,362.807 262.5,364C 261.216,365.297 261.383,366.464 263,367.5C 263.249,366.376 263.749,365.376 264.5,364.5C 267.568,366.457 270.901,366.957 274.5,366C 273.289,365.107 273.289,364.274 274.5,363.5C 275.446,363.987 276.446,364.32 277.5,364.5C 280.524,362.478 283.857,361.478 287.5,361.5C 279.969,366.285 271.636,368.785 262.5,369C 258.173,373.482 253.507,377.482 248.5,381C 248.797,383.797 250.297,385.297 253,385.5C 258.477,384.304 263.977,383.304 269.5,382.5C 263.476,386.275 256.809,387.442 249.5,386C 248.139,384.416 247.472,382.582 247.5,380.5C 245.08,380.708 242.747,380.374 240.5,379.5C 236.507,381.055 232.34,382.055 228,382.5C 226.211,380.771 224.044,380.104 221.5,380.5C 221.5,379.5 221.5,378.5 221.5,377.5C 222.873,377.657 224.207,377.49 225.5,377C 223.43,376.052 221.93,374.552 221,372.5C 219.956,373.623 219.29,374.956 219,376.5C 217.506,377.747 216.006,377.747 214.5,376.5C 215.376,375.749 216.376,375.249 217.5,375C 215.618,374.802 213.952,374.302 212.5,373.5C 214.696,373.435 216.696,372.768 218.5,371.5C 214.3,365.432 211.467,358.765 210,351.5C 203.64,347.974 198.807,342.974 195.5,336.5C 192.756,335.509 190.089,335.843 187.5,337.5C 189.788,344.043 192.455,350.376 195.5,356.5C 189.632,350.487 186.632,343.154 186.5,334.5C 189.206,334.425 191.873,334.092 194.5,333.5 Z"/></g>
<g><path style="opacity:1" fill="#24579d" d="M 313.5,328.5 C 313.371,337.015 311.371,345.015 307.5,352.5C 309.396,353.466 311.396,353.799 313.5,353.5C 313.5,354.833 313.5,356.167 313.5,357.5C 310.336,357.442 307.336,356.776 304.5,355.5C 304.64,357.124 303.973,358.29 302.5,359C 305.555,360.678 307.888,363.011 309.5,366C 310.793,366.49 312.127,366.657 313.5,366.5C 308.891,371.471 303.557,375.471 297.5,378.5C 297.586,377.504 297.252,376.671 296.5,376C 298.061,375.682 299.228,374.849 300,373.5C 300.718,374.451 301.551,374.617 302.5,374C 301.62,372.644 301.286,371.144 301.5,369.5C 303.167,369.5 304.833,369.5 306.5,369.5C 306.5,368.167 306.5,366.833 306.5,365.5C 304.179,365.771 302.179,365.104 300.5,363.5C 299.585,364.328 298.919,365.328 298.5,366.5C 301.229,368.367 300.896,369.367 297.5,369.5C 297.5,368.5 297.5,367.5 297.5,366.5C 296.5,366.5 295.5,366.5 294.5,366.5C 292.5,364.833 290.5,363.167 288.5,361.5C 289.309,359.708 289.809,357.708 290,355.5C 290.417,354.244 291.25,353.577 292.5,353.5C 291.844,355.484 291.178,357.484 290.5,359.5C 293.112,365.394 296.279,365.727 300,360.5C 306.764,350.687 311.264,340.021 313.5,328.5 Z"/></g>
<g><path style="opacity:1" fill="#2c568d" d="M 269.5,332.5 C 266.952,336.894 263.785,340.894 260,344.5C 259.667,345.833 259.333,347.167 259,348.5C 258.586,348.043 258.086,347.709 257.5,347.5C 256.534,349.396 256.201,351.396 256.5,353.5C 255.549,352.081 255.216,350.415 255.5,348.5C 252.15,348.665 248.817,348.498 245.5,348C 239.546,346.02 233.88,343.52 228.5,340.5C 228.5,339.5 228.5,338.5 228.5,337.5C 236.624,344.263 245.957,347.096 256.5,346C 260.336,340.997 264.67,336.497 269.5,332.5 Z"/></g>
<g><path style="opacity:1" fill="#f6fbfc" d="M 212.5,373.5 C 205.806,368.806 200.139,363.139 195.5,356.5C 192.455,350.376 189.788,344.043 187.5,337.5C 190.089,335.843 192.756,335.509 195.5,336.5C 198.807,342.974 203.64,347.974 210,351.5C 211.467,358.765 214.3,365.432 218.5,371.5C 216.696,372.768 214.696,373.435 212.5,373.5 Z"/></g>
<g><path style="opacity:1" fill="#0f52a4" d="M 274.5,327.5 C 278.198,327.552 281.865,327.886 285.5,328.5C 289.297,328.872 292.63,330.206 295.5,332.5C 294.617,337.103 294.283,341.77 294.5,346.5C 294.59,349.152 293.924,351.485 292.5,353.5C 291.25,353.577 290.417,354.244 290,355.5C 289.809,357.708 289.309,359.708 288.5,361.5C 288.167,361.5 287.833,361.5 287.5,361.5C 283.857,361.478 280.524,362.478 277.5,364.5C 276.446,364.32 275.446,363.987 274.5,363.5C 273.289,364.274 273.289,365.107 274.5,366C 270.901,366.957 267.568,366.457 264.5,364.5C 263.749,365.376 263.249,366.376 263,367.5C 261.383,366.464 261.216,365.297 262.5,364C 260.503,362.807 258.836,361.307 257.5,359.5C 256.85,357.565 256.517,355.565 256.5,353.5C 256.201,351.396 256.534,349.396 257.5,347.5C 258.086,347.709 258.586,348.043 259,348.5C 259.333,347.167 259.667,345.833 260,344.5C 263.785,340.894 266.952,336.894 269.5,332.5C 270.833,330.5 272.5,328.833 274.5,327.5 Z"/></g>
<g><path style="opacity:1" fill="#f0f7fb" d="M 324.5,329.5 C 327.122,331.644 330.122,332.977 333.5,333.5C 331.078,337.344 328.411,341.01 325.5,344.5C 323.51,347.538 321.177,349.538 318.5,350.5C 321.286,343.684 323.286,336.684 324.5,329.5 Z"/></g>
<g><path style="opacity:1" fill="#2a5791" d="M 307.5,313.5 C 308.451,314.919 308.784,316.585 308.5,318.5C 310.38,318.229 311.713,318.896 312.5,320.5C 311.153,319.972 309.819,319.805 308.5,320C 305.809,325.697 301.975,330.53 297,334.5C 296.665,338.736 295.832,342.736 294.5,346.5C 294.283,341.77 294.617,337.103 295.5,332.5C 302.304,327.883 306.304,321.549 307.5,313.5 Z"/></g>
<g><path style="opacity:1" fill="#1252a3" d="M 305.5,269.5 C 309.929,273.593 313.596,278.259 316.5,283.5C 316.5,283.833 316.5,284.167 316.5,284.5C 319.779,291.021 322.446,297.688 324.5,304.5C 324.5,305.5 324.5,306.5 324.5,307.5C 324.5,313.833 324.5,320.167 324.5,326.5C 324.5,327.5 324.5,328.5 324.5,329.5C 323.286,336.684 321.286,343.684 318.5,350.5C 321.177,349.538 323.51,347.538 325.5,344.5C 329.498,345.499 330.498,347.832 328.5,351.5C 323.806,356.86 318.806,361.86 313.5,366.5C 312.127,366.657 310.793,366.49 309.5,366C 307.888,363.011 305.555,360.678 302.5,359C 303.973,358.29 304.64,357.124 304.5,355.5C 307.336,356.776 310.336,357.442 313.5,357.5C 313.5,356.167 313.5,354.833 313.5,353.5C 311.396,353.799 309.396,353.466 307.5,352.5C 311.371,345.015 313.371,337.015 313.5,328.5C 313.721,325.721 313.388,323.054 312.5,320.5C 311.713,318.896 310.38,318.229 308.5,318.5C 308.784,316.585 308.451,314.919 307.5,313.5C 306.643,307.264 304.976,301.264 302.5,295.5C 302.339,292.472 303.006,289.639 304.5,287C 302.984,284.976 301.651,282.809 300.5,280.5C 301.325,279.614 302.325,279.281 303.5,279.5C 303.762,278.022 303.429,276.689 302.5,275.5C 301.232,276.428 299.899,276.595 298.5,276C 296.725,274.561 294.725,273.561 292.5,273C 291.196,272.196 290.529,271.029 290.5,269.5C 291.915,266.925 294.082,265.258 297,264.5C 299.452,266.801 302.286,268.468 305.5,269.5 Z"/></g>
<g><path style="opacity:1" fill="#f1f7fb" d="M 174.5,329.5 C 175.409,335.487 177.076,341.153 179.5,346.5C 179.815,348.226 179.981,349.893 180,351.5C 174.551,345.896 169.717,339.896 165.5,333.5C 168.66,332.557 171.66,331.223 174.5,329.5 Z"/></g>
<g><path style="opacity:1" fill="#d8747a" d="M 174.5,326.5 C 174.5,327.5 174.5,328.5 174.5,329.5C 171.66,331.223 168.66,332.557 165.5,333.5C 165.511,331.983 166.177,330.816 167.5,330C 169.577,328.295 171.91,327.128 174.5,326.5 Z"/></g>
<g><path style="opacity:1" fill="#dc6e7b" d="M 324.5,326.5 C 327.057,327.188 329.391,328.354 331.5,330C 332.823,330.816 333.489,331.983 333.5,333.5C 330.122,332.977 327.122,331.644 324.5,329.5C 324.5,328.5 324.5,327.5 324.5,326.5 Z"/></g>
<g><path style="opacity:1" fill="#f5fafc" d="M 312.5,320.5 C 313.388,323.054 313.721,325.721 313.5,328.5C 311.264,340.021 306.764,350.687 300,360.5C 296.279,365.727 293.112,365.394 290.5,359.5C 291.178,357.484 291.844,355.484 292.5,353.5C 293.924,351.485 294.59,349.152 294.5,346.5C 295.832,342.736 296.665,338.736 297,334.5C 301.975,330.53 305.809,325.697 308.5,320C 309.819,319.805 311.153,319.972 312.5,320.5 Z"/></g>
<g><path style="opacity:1" fill="#1152a4" d="M 202.5,310.5 C 205.625,311.479 208.958,311.813 212.5,311.5C 214.428,313.113 216.762,314.113 219.5,314.5C 220.15,316.184 221.15,317.517 222.5,318.5C 225.27,324.482 227.27,330.816 228.5,337.5C 228.5,338.5 228.5,339.5 228.5,340.5C 225.066,344.269 221.066,347.269 216.5,349.5C 213.513,349.002 210.513,348.502 207.5,348C 206.114,344.878 204.78,341.711 203.5,338.5C 203.167,338.167 202.833,337.833 202.5,337.5C 201.5,338.167 200.5,338.833 199.5,339.5C 197.522,337.469 197.522,335.803 199.5,334.5C 197.785,334.405 196.119,334.072 194.5,333.5C 196.369,329.956 197.369,325.956 197.5,321.5C 199.527,321.338 201.527,321.505 203.5,322C 204.126,322.75 204.626,323.584 205,324.5C 205.667,322.833 205.667,321.167 205,319.5C 201.801,316.959 200.968,313.959 202.5,310.5 Z"/></g>
<g><path style="opacity:1" fill="#355d90" d="M 268.5,300.5 C 274.304,307.733 277.47,316.066 278,325.5C 280.672,326.282 283.172,327.282 285.5,328.5C 281.865,327.886 278.198,327.552 274.5,327.5C 275.757,323.176 275.59,318.843 274,314.5C 272.347,309.861 270.181,305.528 267.5,301.5C 268.167,301.5 268.5,301.167 268.5,300.5 Z"/></g>
<g><path style="opacity:1" fill="#1d549d" d="M 185.5,279.5 C 185.643,281.262 185.309,282.929 184.5,284.5C 185.729,285.281 187.062,285.781 188.5,286C 185.899,288.179 184.399,291.013 184,294.5C 183.226,296.403 183.56,298.07 185,299.5C 185.605,297.519 186.605,297.185 188,298.5C 188.36,296.579 189.194,294.912 190.5,293.5C 189.319,291.802 189.319,290.135 190.5,288.5C 194.229,288.635 197.896,288.635 201.5,288.5C 201.365,295.862 201.698,303.196 202.5,310.5C 200.968,313.959 201.801,316.959 205,319.5C 205.667,321.167 205.667,322.833 205,324.5C 204.626,323.584 204.126,322.75 203.5,322C 201.527,321.505 199.527,321.338 197.5,321.5C 197.369,325.956 196.369,329.956 194.5,333.5C 194.335,330.15 194.502,326.817 195,323.5C 196.852,318.6 198.686,313.767 200.5,309C 199.657,302.862 199.324,296.695 199.5,290.5C 197.473,290.338 195.473,290.505 193.5,291C 186.075,304.296 183.742,318.462 186.5,333.5C 185.883,333.389 185.383,333.056 185,332.5C 185.066,324.317 183.233,316.65 179.5,309.5C 181.435,308.932 182.768,307.765 183.5,306C 182.994,302.46 181.66,299.293 179.5,296.5C 178.637,298.771 178.637,301.105 179.5,303.5C 178.5,303.5 177.5,303.5 176.5,303.5C 174.799,318.053 175.799,332.386 179.5,346.5C 177.076,341.153 175.409,335.487 174.5,329.5C 174.5,328.5 174.5,327.5 174.5,326.5C 174.5,319.5 174.5,312.5 174.5,305.5C 174.5,304.833 174.5,304.167 174.5,303.5C 176.785,297.577 179.119,291.577 181.5,285.5C 182.338,285.158 182.672,284.492 182.5,283.5C 183.5,282.167 184.5,280.833 185.5,279.5 Z"/></g>
<g><path style="opacity:1" fill="#dc838d" d="M 324.5,304.5 C 328.029,305.367 331.362,306.7 334.5,308.5C 333.5,308.833 332.5,309.167 331.5,309.5C 329.068,309.114 326.734,308.447 324.5,307.5C 324.5,306.5 324.5,305.5 324.5,304.5 Z"/></g>
<g><path style="opacity:1" fill="#db7e87" d="M 174.5,303.5 C 174.5,304.167 174.5,304.833 174.5,305.5C 170.874,307 167.208,307.333 163.5,306.5C 166.831,304.416 170.497,303.416 174.5,303.5 Z"/></g>
<g><path style="opacity:1" fill="#335c92" d="M 240.5,280.5 C 241.795,284.267 242.461,288.267 242.5,292.5C 250.303,295.23 258.303,297.397 266.5,299C 267.252,299.671 267.586,300.504 267.5,301.5C 259.404,299.468 251.404,296.802 243.5,293.5C 236.15,300.016 229.317,307.016 223,314.5C 222.51,315.793 222.343,317.127 222.5,318.5C 221.15,317.517 220.15,316.184 219.5,314.5C 216.762,314.113 214.428,313.113 212.5,311.5C 215.39,311.278 218.057,311.945 220.5,313.5C 227.85,306.984 234.683,299.984 241,292.5C 240.983,288.525 240.816,284.525 240.5,280.5 Z"/></g>
<g><path style="opacity:1" fill="#fbfdfd" d="M 267.5,301.5 C 270.181,305.528 272.347,309.861 274,314.5C 275.59,318.843 275.757,323.176 274.5,327.5C 272.5,328.833 270.833,330.5 269.5,332.5C 264.67,336.497 260.336,340.997 256.5,346C 245.957,347.096 236.624,344.263 228.5,337.5C 227.27,330.816 225.27,324.482 222.5,318.5C 222.343,317.127 222.51,315.793 223,314.5C 229.317,307.016 236.15,300.016 243.5,293.5C 251.404,296.802 259.404,299.468 267.5,301.5 Z"/></g>
<g><path style="opacity:1" fill="#f5fbfc" d="M 194.5,333.5 C 191.873,334.092 189.206,334.425 186.5,334.5C 186.5,334.167 186.5,333.833 186.5,333.5C 183.742,318.462 186.075,304.296 193.5,291C 195.473,290.505 197.473,290.338 199.5,290.5C 199.324,296.695 199.657,302.862 200.5,309C 198.686,313.767 196.852,318.6 195,323.5C 194.502,326.817 194.335,330.15 194.5,333.5 Z"/></g>
<g><path style="opacity:1" fill="#f9fcfd" d="M 302.5,295.5 C 304.976,301.264 306.643,307.264 307.5,313.5C 306.304,321.549 302.304,327.883 295.5,332.5C 292.63,330.206 289.297,328.872 285.5,328.5C 283.172,327.282 280.672,326.282 278,325.5C 277.47,316.066 274.304,307.733 268.5,300.5C 271.52,298.477 273.854,295.81 275.5,292.5C 277.725,289.738 279.725,286.738 281.5,283.5C 289.96,285.222 296.96,289.222 302.5,295.5 Z"/></g>
<g><path style="opacity:1" fill="#dd797e" d="M 182.5,283.5 C 182.672,284.492 182.338,285.158 181.5,285.5C 170.167,285.5 158.833,285.5 147.5,285.5C 147.5,284.5 147.5,283.5 147.5,282.5C 159.168,282.796 170.835,283.13 182.5,283.5 Z"/></g>
<g><path style="opacity:1" fill="#da7c81" d="M 316.5,284.5 C 316.5,284.167 316.5,283.833 316.5,283.5C 327.824,282.653 339.158,282.486 350.5,283C 350.957,283.414 351.291,283.914 351.5,284.5C 339.834,285.636 328.167,285.636 316.5,284.5 Z"/></g>
<g><path style="opacity:1" fill="#f9fcfd" d="M 240.5,279.5 C 240.5,279.833 240.5,280.167 240.5,280.5C 240.816,284.525 240.983,288.525 241,292.5C 234.683,299.984 227.85,306.984 220.5,313.5C 218.057,311.945 215.39,311.278 212.5,311.5C 208.958,311.813 205.625,311.479 202.5,310.5C 201.698,303.196 201.365,295.862 201.5,288.5C 206.5,284.167 211.167,279.5 215.5,274.5C 216.289,274.217 216.956,273.717 217.5,273C 224.869,272.274 232.202,272.441 239.5,273.5C 239.205,275.735 239.539,277.735 240.5,279.5 Z"/></g>
<g><path style="opacity:1" fill="#0f52a4" d="M 264.5,266.5 C 265.167,266.5 265.5,266.833 265.5,267.5C 265.343,268.873 265.51,270.207 266,271.5C 268.585,271.963 270.752,273.13 272.5,275C 271.154,277.794 271.654,280.294 274,282.5C 275.011,283.337 276.178,283.67 277.5,283.5C 277.5,284.833 277.5,286.167 277.5,287.5C 276.5,287.5 275.5,287.5 274.5,287.5C 274.629,289.216 274.962,290.883 275.5,292.5C 273.854,295.81 271.52,298.477 268.5,300.5C 268.5,301.167 268.167,301.5 267.5,301.5C 267.586,300.504 267.252,299.671 266.5,299C 258.303,297.397 250.303,295.23 242.5,292.5C 242.461,288.267 241.795,284.267 240.5,280.5C 240.5,280.167 240.5,279.833 240.5,279.5C 240.279,276.721 240.612,274.054 241.5,271.5C 244.088,269.375 247.088,268.042 250.5,267.5C 255.13,266.771 259.797,266.437 264.5,266.5 Z"/></g>
<g><path style="opacity:1" fill="#315789" d="M 219.5,270.5 C 226.858,270.418 234.191,270.752 241.5,271.5C 240.612,274.054 240.279,276.721 240.5,279.5C 239.539,277.735 239.205,275.735 239.5,273.5C 232.202,272.441 224.869,272.274 217.5,273C 216.956,273.717 216.289,274.217 215.5,274.5C 215.414,273.504 215.748,272.671 216.5,272C 217.737,271.768 218.737,271.268 219.5,270.5 Z"/></g>
<g><path style="opacity:1" fill="#20569c" d="M 294.5,259.5 C 298.797,262.129 302.463,265.463 305.5,269.5C 302.286,268.468 299.452,266.801 297,264.5C 294.082,265.258 291.915,266.925 290.5,269.5C 290.529,271.029 291.196,272.196 292.5,273C 294.725,273.561 296.725,274.561 298.5,276C 299.899,276.595 301.232,276.428 302.5,275.5C 303.429,276.689 303.762,278.022 303.5,279.5C 302.325,279.281 301.325,279.614 300.5,280.5C 301.651,282.809 302.984,284.976 304.5,287C 303.006,289.639 302.339,292.472 302.5,295.5C 296.96,289.222 289.96,285.222 281.5,283.5C 279.725,286.738 277.725,289.738 275.5,292.5C 274.962,290.883 274.629,289.216 274.5,287.5C 275.5,287.5 276.5,287.5 277.5,287.5C 277.5,286.167 277.5,284.833 277.5,283.5C 276.178,283.67 275.011,283.337 274,282.5C 271.654,280.294 271.154,277.794 272.5,275C 270.752,273.13 268.585,271.963 266,271.5C 265.51,270.207 265.343,268.873 265.5,267.5C 271.575,270.739 276.575,275.239 280.5,281C 287.856,282.846 294.522,286.012 300.5,290.5C 301.553,289.562 302.22,288.395 302.5,287C 293.764,273.285 281.43,264.452 265.5,260.5C 265.167,262.5 264.833,264.5 264.5,266.5C 259.797,266.437 255.13,266.771 250.5,267.5C 254.204,265.909 258.204,265.076 262.5,265C 263.406,263.301 263.739,261.467 263.5,259.5C 266.361,259.658 269.028,258.992 271.5,257.5C 276.703,259.709 281.369,262.709 285.5,266.5C 287.5,266 289.5,265.5 291.5,265C 291.043,264.586 290.709,264.086 290.5,263.5C 292.375,262.591 293.708,261.257 294.5,259.5 Z"/></g>
<g><path style="opacity:1" fill="#f6fbfc" d="M 265.5,267.5 C 265.5,266.833 265.167,266.5 264.5,266.5C 264.833,264.5 265.167,262.5 265.5,260.5C 281.43,264.452 293.764,273.285 302.5,287C 302.22,288.395 301.553,289.562 300.5,290.5C 294.522,286.012 287.856,282.846 280.5,281C 276.575,275.239 271.575,270.739 265.5,267.5 Z"/></g>
<g><path style="opacity:1" fill="#d88084" d="M 164.5,262.5 C 173.54,262.831 182.54,264.665 191.5,268C 182.288,267.321 173.288,265.488 164.5,262.5 Z"/></g>
<g><path style="opacity:1" fill="#dc7b81" d="M 327.5,259.5 C 329.857,259.337 332.19,259.503 334.5,260C 325.515,263.73 316.182,266.064 306.5,267C 313.571,264.368 320.571,261.868 327.5,259.5 Z"/></g>
<g><path style="opacity:1" fill="#f2f8fb" d="M 263.5,259.5 C 263.739,261.467 263.406,263.301 262.5,265C 258.204,265.076 254.204,265.909 250.5,267.5C 247.088,268.042 244.088,269.375 241.5,271.5C 234.191,270.752 226.858,270.418 219.5,270.5C 219.34,268.801 219.506,267.134 220,265.5C 221.518,264.837 222.685,263.837 223.5,262.5C 227.784,261.739 231.784,260.405 235.5,258.5C 244.922,256.884 254.255,257.218 263.5,259.5 Z"/></g>
<g><path style="opacity:1" fill="#dd4636" d="M 123.5,283.5 C 142.792,346.626 183.459,389.459 245.5,412C 247.833,412.667 250.167,412.667 252.5,412C 289.795,399.211 320.462,377.378 344.5,346.5C 346.823,344.678 348.989,342.678 351,340.5C 351.483,341.448 351.649,342.448 351.5,343.5C 352.675,343.281 353.675,343.614 354.5,344.5C 353.265,347.044 352.099,347.044 351,344.5C 350.503,346.81 350.337,349.143 350.5,351.5C 349.5,351.5 348.5,351.5 347.5,351.5C 347.5,352.5 347.5,353.5 347.5,354.5C 346.5,354.5 345.5,354.5 344.5,354.5C 343.833,357.167 343.167,359.833 342.5,362.5C 317.242,392.468 285.576,412.301 247.5,422C 184.66,401.659 141.993,360.492 119.5,298.5C 118.876,293.338 118.209,288.171 117.5,283C 117.641,281.045 118.474,279.545 120,278.5C 120.697,280.584 121.864,282.251 123.5,283.5 Z"/></g>
<g><path style="opacity:1" fill="#f5fafc" d="M 287.5,361.5 C 287.833,361.5 288.167,361.5 288.5,361.5C 290.5,363.167 292.5,364.833 294.5,366.5C 287.321,373.592 278.988,378.926 269.5,382.5C 263.977,383.304 258.477,384.304 253,385.5C 250.297,385.297 248.797,383.797 248.5,381C 253.507,377.482 258.173,373.482 262.5,369C 271.636,368.785 279.969,366.285 287.5,361.5 Z"/></g>
<g><path style="opacity:1" fill="#f9fcfd" d="M 228.5,340.5 C 233.88,343.52 239.546,346.02 245.5,348C 248.817,348.498 252.15,348.665 255.5,348.5C 255.216,350.415 255.549,352.081 256.5,353.5C 256.517,355.565 256.85,357.565 257.5,359.5C 258.961,362.394 259.794,365.394 260,368.5C 255.503,373.172 250.336,376.839 244.5,379.5C 238.031,378.133 231.698,376.3 225.5,374C 223.04,372.542 220.873,370.709 219,368.5C 216.144,363.621 213.977,358.454 212.5,353C 213.686,351.588 215.019,350.421 216.5,349.5C 221.066,347.269 225.066,344.269 228.5,340.5 Z"/></g>
</svg>
