<?xml version="1.0" encoding="UTF-8"?>
<!DOCTYPE svg PUBLIC "-//W3C//DTD SVG 1.1//EN" "http://www.w3.org/Graphics/SVG/1.1/DTD/svg11.dtd">
<svg xmlns="http://www.w3.org/2000/svg" version="1.1" width="500px" height="500px" style="shape-rendering:geometricPrecision; text-rendering:geometricPrecision; image-rendering:optimizeQuality; fill-rule:evenodd; clip-rule:evenodd" xmlns:xlink="http://www.w3.org/1999/xlink">
<g><path style="opacity:0.772" fill="#a2a9c6" d="M 382.5,53.5 C 381.078,53.2914 379.745,52.7914 378.5,52C 374.833,48.3333 371.167,44.6667 367.5,41C 288.167,40.5 208.834,40.3333 129.5,40.5C 129.5,41.8333 129.5,43.1667 129.5,44.5C 127.833,44.5 126.167,44.5 124.5,44.5C 125.625,42.8712 126.959,41.3712 128.5,40C 208.833,39.3333 289.167,39.3333 369.5,40C 374.037,44.3688 378.37,48.8688 382.5,53.5 Z"/></g>
<g><path style="opacity:1" fill="#9aa7cb" d="M 382.5,53.5 C 404.438,75.9384 426.605,98.2717 449,120.5C 449.123,136.842 447.289,152.842 443.5,168.5C 435.736,208.188 422.736,246.188 404.5,282.5C 400.916,283.131 397.249,283.465 393.5,283.5C 389.761,283.486 386.428,282.82 383.5,281.5C 383.893,279.716 384.559,278.05 385.5,276.5C 386.263,275.732 387.263,275.232 388.5,275C 387.619,274.292 386.953,273.458 386.5,272.5C 388.474,270.572 389.974,268.239 391,265.5C 394.461,257.617 397.628,249.617 400.5,241.5C 401.338,241.158 401.672,240.492 401.5,239.5C 414.502,206.479 422.002,172.146 424,136.5C 400.472,113.305 377.305,89.8053 354.5,66C 284.5,65.3333 214.5,65.3333 144.5,66C 122.028,89.4719 99.1951,112.639 76,135.5C 75.077,137.034 74.577,138.701 74.5,140.5C 77.4768,174.4 85.1434,207.066 97.5,238.5C 97.5,238.833 97.5,239.167 97.5,239.5C 97.3284,240.492 97.6618,241.158 98.5,241.5C 101.844,252.515 106.511,262.849 112.5,272.5C 111.529,273.962 111.862,275.295 113.5,276.5C 118.66,286.825 124.327,296.825 130.5,306.5C 128.695,308.197 126.361,309.03 123.5,309C 118.511,309.499 113.511,309.666 108.5,309.5C 85.9565,270.865 69.2898,229.865 58.5,186.5C 52.9678,165.277 49.8012,143.61 49,121.5C 74.034,95.6333 99.2007,69.9666 124.5,44.5C 126.167,44.5 127.833,44.5 129.5,44.5C 129.5,43.1667 129.5,41.8333 129.5,40.5C 208.834,40.3333 288.167,40.5 367.5,41C 371.167,44.6667 374.833,48.3333 378.5,52C 379.745,52.7914 381.078,53.2914 382.5,53.5 Z M 401.5,239.5 C 401.189,238.522 400.522,237.855 399.5,237.5C 395.951,239.139 392.284,239.972 388.5,240C 398.707,229.878 403.04,217.711 401.5,203.5C 399.5,204.833 397.5,206.167 395.5,207.5C 394.954,199.083 393.954,190.749 392.5,182.5C 392.167,182.167 391.833,181.833 391.5,181.5C 389.5,182.833 387.5,184.167 385.5,185.5C 383.76,178.947 381.427,172.614 378.5,166.5C 377.635,165.417 376.635,165.251 375.5,166C 374.333,167.833 373.167,169.667 372,171.5C 367.575,161.155 361.075,152.322 352.5,145C 351.552,144.517 350.552,144.351 349.5,144.5C 349.819,146.75 349.319,148.75 348,150.5C 335.302,140.567 321.135,133.401 305.5,129C 300.935,127.355 296.269,126.688 291.5,127C 304.287,136.447 314.12,148.28 321,162.5C 325.261,174.982 323.761,186.649 316.5,197.5C 315.518,198.141 314.518,198.807 313.5,199.5C 290.094,176.474 262.094,167.974 229.5,174C 226.258,174.406 223.258,175.239 220.5,176.5C 211.923,178.459 204.256,182.126 197.5,187.5C 192.819,189.667 188.819,192.833 185.5,197C 182.54,196.394 180.373,194.561 179,191.5C 173.562,177.874 174.896,164.874 183,152.5C 190.097,143.4 197.931,134.9 206.5,127C 186.23,130.258 167.896,138.091 151.5,150.5C 150.232,148.696 149.565,146.696 149.5,144.5C 148.448,144.351 147.448,144.517 146.5,145C 138.07,152.428 131.57,161.261 127,171.5C 125.833,169.667 124.667,167.833 123.5,166C 122.365,165.251 121.365,165.417 120.5,166.5C 117.633,172.933 115.467,179.6 114,186.5C 112.06,183.598 109.56,182.598 106.5,183.5C 104.882,191.724 104.048,200.058 104,208.5C 102.587,206.586 100.753,205.253 98.5,204.5C 97.0542,205.171 96.3875,206.338 96.5,208C 97.3045,220.432 101.971,231.099 110.5,240C 106.244,239.361 101.911,238.861 97.5,238.5C 85.1434,207.066 77.4768,174.4 74.5,140.5C 74.577,138.701 75.077,137.034 76,135.5C 99.1951,112.639 122.028,89.4719 144.5,66C 214.5,65.3333 284.5,65.3333 354.5,66C 377.305,89.8053 400.472,113.305 424,136.5C 422.002,172.146 414.502,206.479 401.5,239.5 Z M 128.5,214.5 C 125.422,209.347 122.589,204.014 120,198.5C 118.752,191.785 119.752,185.452 123,179.5C 124.28,186.701 127.447,192.868 132.5,198C 133.759,198.982 135.092,199.315 136.5,199C 128.318,184.959 130.152,172.459 142,161.5C 139.331,175.493 142.331,188.16 151,199.5C 156.387,204.887 161.721,210.221 167,215.5C 167.667,218.167 167.667,220.833 167,223.5C 160.71,239.313 158.876,255.646 161.5,272.5C 150.185,273.768 138.852,273.768 127.5,272.5C 132.687,268.937 138.353,266.437 144.5,265C 135.382,261.275 126.382,257.275 117.5,253C 114.872,251.374 112.539,249.374 110.5,247C 117.043,248.62 123.71,249.62 130.5,250C 119.293,242.3 111.293,232.133 106.5,219.5C 106.667,219.167 106.833,218.833 107,218.5C 112.209,223.378 117.709,227.878 123.5,232C 124.5,232.667 125.5,232.667 126.5,232C 115.684,222.196 111.184,210.03 113,195.5C 115.836,203.896 121.003,210.229 128.5,214.5 Z M 373.5,232.5 C 380.593,229.188 386.76,224.521 392,218.5C 390.727,224.718 388.06,230.384 384,235.5C 379.462,241.039 374.296,245.872 368.5,250C 370.833,250.667 373.167,250.667 375.5,250C 379.894,248.816 384.227,247.816 388.5,247C 386.5,249 384.5,251 382.5,253C 373.75,257.583 364.75,261.583 355.5,265C 361.112,267.139 366.446,269.806 371.5,273C 367.922,274.037 364.256,274.537 360.5,274.5C 352.139,274.036 343.806,273.37 335.5,272.5C 337.545,256.897 336.379,241.564 332,226.5C 331.209,222.074 331.543,217.741 333,213.5C 351.846,201.142 359.846,183.809 357,161.5C 368.441,172.123 370.607,184.456 363.5,198.5C 364.002,199.521 364.668,199.688 365.5,199C 371.479,193.877 374.979,187.377 376,179.5C 379.672,186.56 380.339,193.893 378,201.5C 375.455,206.761 372.288,211.594 368.5,216C 377.398,212.08 383.231,205.247 386,195.5C 387.5,209.815 383.334,222.148 373.5,232.5 Z M 243.5,176.5 C 257.572,175.234 270.905,177.734 283.5,184C 286.695,185.695 289.028,188.195 290.5,191.5C 287.495,198.706 283.161,204.872 277.5,210C 267.515,211.083 257.515,211.416 247.5,211C 240.694,205.203 235.028,198.536 230.5,191C 233.291,184.713 237.624,179.88 243.5,176.5 Z M 311.5,203.5 C 321.202,213.571 327.202,225.571 329.5,239.5C 328.306,246.894 324.806,252.894 319,257.5C 309.475,253.989 300.642,249.323 292.5,243.5C 287.596,233.294 284.43,222.628 283,211.5C 286.444,205.724 290.277,200.224 294.5,195C 301.15,195.658 306.817,198.492 311.5,203.5 Z M 194.5,245.5 C 191.766,243.045 189.766,240.045 188.5,236.5C 191.249,227.007 195.082,218.007 200,209.5C 203.435,205.555 207.268,202.222 211.5,199.5C 213.153,199.34 214.486,198.674 215.5,197.5C 219.339,195.833 223.339,195.333 227.5,196C 233.796,201.289 238.962,207.456 243,214.5C 243.667,216.833 243.667,219.167 243,221.5C 240.469,228.091 238.136,234.758 236,241.5C 227.452,247.358 218.285,252.024 208.5,255.5C 206.701,255.423 205.034,254.923 203.5,254C 200.631,250.962 197.631,248.129 194.5,245.5 Z M 188.5,200.5 C 193.817,200.045 196.317,202.378 196,207.5C 189.96,218.62 185.293,230.287 182,242.5C 177.149,247.584 172.316,252.584 167.5,257.5C 165.6,256.203 164.6,254.37 164.5,252C 166.745,232.017 174.745,214.851 188.5,200.5 Z M 98.5,241.5 C 106.387,252.96 117.053,260.793 130.5,265C 124.43,267.41 118.43,269.91 112.5,272.5C 106.511,262.849 101.844,252.515 98.5,241.5 Z M 400.5,241.5 C 397.628,249.617 394.461,257.617 391,265.5C 389.974,268.239 388.474,270.572 386.5,272.5C 380.859,270.015 375.193,267.515 369.5,265C 375.779,262.527 381.779,259.527 387.5,256C 392.44,251.568 396.773,246.735 400.5,241.5 Z"/></g>
<g><path style="opacity:0.997" fill="#193753" d="M 248.5,124.5 C 251.292,127.835 252.959,131.835 253.5,136.5C 258.179,136.334 262.845,136.501 267.5,137C 263.833,140 260.167,143 256.5,146C 258.502,149.996 259.668,154.162 260,158.5C 256.642,155.642 253.142,152.975 249.5,150.5C 245.858,152.975 242.358,155.642 239,158.5C 239.332,154.162 240.498,149.996 242.5,146C 238.833,143 235.167,140 231.5,137C 236.155,136.501 240.821,136.334 245.5,136.5C 246.5,132.5 247.5,128.5 248.5,124.5 Z"/></g>
<g><path style="opacity:1" fill="#183956" d="M 197.5,187.5 C 197.684,190.321 196.351,191.988 193.5,192.5C 192.614,193.325 192.281,194.325 192.5,195.5C 194.857,195.337 197.19,195.503 199.5,196C 198.241,196.923 196.908,197.757 195.5,198.5C 196.123,200.845 197.789,202.845 200.5,204.5C 203.478,201.291 207.145,199.624 211.5,199.5C 207.268,202.222 203.435,205.555 200,209.5C 195.082,218.007 191.249,227.007 188.5,236.5C 189.766,240.045 191.766,243.045 194.5,245.5C 196.434,248.773 198.768,251.773 201.5,254.5C 199.985,255.591 199.152,256.924 199,258.5C 199.561,259.022 200.228,259.355 201,259.5C 202.473,257.954 204.306,256.954 206.5,256.5C 207.5,256.833 208.5,257.167 209.5,257.5C 208.873,258.417 208.539,259.417 208.5,260.5C 203.252,270.149 202.418,280.149 206,290.5C 212.445,296.941 219.945,301.774 228.5,305C 237.125,304.904 245.125,302.57 252.5,298C 254.049,296.786 255.215,295.286 256,293.5C 258.208,284.028 260.042,274.528 261.5,265C 254.993,258.262 247.659,252.762 239.5,248.5C 239.838,245.843 239.171,243.51 237.5,241.5C 239.063,235.134 241.397,229.134 244.5,223.5C 245.487,220.232 245.82,216.898 245.5,213.5C 255.409,213.257 265.409,212.757 275.5,212C 277.519,211.55 279.352,210.717 281,209.5C 281.186,213.516 281.186,217.516 281,221.5C 281.905,224.982 283.572,227.982 286,230.5C 287.363,234.814 288.53,239.147 289.5,243.5C 290.5,243.5 291.5,243.5 292.5,243.5C 300.642,249.323 309.475,253.989 319,257.5C 324.806,252.894 328.306,246.894 329.5,239.5C 327.202,225.571 321.202,213.571 311.5,203.5C 313.111,201.905 315.111,200.739 317.5,200C 316.748,199.329 316.414,198.496 316.5,197.5C 323.761,186.649 325.261,174.982 321,162.5C 314.12,148.28 304.287,136.447 291.5,127C 296.269,126.688 300.935,127.355 305.5,129C 321.135,133.401 335.302,140.567 348,150.5C 349.319,148.75 349.819,146.75 349.5,144.5C 350.552,144.351 351.552,144.517 352.5,145C 361.075,152.322 367.575,161.155 372,171.5C 373.167,169.667 374.333,167.833 375.5,166C 376.635,165.251 377.635,165.417 378.5,166.5C 381.427,172.614 383.76,178.947 385.5,185.5C 387.5,184.167 389.5,182.833 391.5,181.5C 391.833,181.833 392.167,182.167 392.5,182.5C 393.954,190.749 394.954,199.083 395.5,207.5C 397.5,206.167 399.5,204.833 401.5,203.5C 403.04,217.711 398.707,229.878 388.5,240C 392.284,239.972 395.951,239.139 399.5,237.5C 400.522,237.855 401.189,238.522 401.5,239.5C 400.662,239.842 400.328,240.508 400.5,241.5C 396.773,246.735 392.44,251.568 387.5,256C 381.779,259.527 375.779,262.527 369.5,265C 375.193,267.515 380.859,270.015 386.5,272.5C 386.953,273.458 387.619,274.292 388.5,275C 387.263,275.232 386.263,275.732 385.5,276.5C 375.188,277.498 364.855,278.332 354.5,279C 357.288,280.719 359.621,282.885 361.5,285.5C 348.402,288.088 335.402,290.421 322.5,292.5C 322.038,291.12 321.038,290.453 319.5,290.5C 317.297,291.767 314.963,292.767 312.5,293.5C 310.419,294.623 308.253,295.623 306,296.5C 305.235,296.43 304.735,296.097 304.5,295.5C 306.481,293.697 308.648,292.03 311,290.5C 312.586,288.33 313.92,285.996 315,283.5C 316.199,276.843 316.866,270.176 317,263.5C 309.027,257.094 300.194,252.094 290.5,248.5C 281.45,252.048 273.284,257.048 266,263.5C 263.912,273.274 262.079,283.108 260.5,293C 260.439,294.711 261.106,296.044 262.5,297C 265.727,299.112 269.06,300.945 272.5,302.5C 272.38,303.586 271.713,304.253 270.5,304.5C 257.716,307.823 244.882,310.823 232,313.5C 230.697,313.022 229.531,312.355 228.5,311.5C 219.047,305.22 209.713,298.72 200.5,292C 194.701,291.657 189.201,292.824 184,295.5C 183.233,299.594 183.566,303.594 185,307.5C 189.432,312.44 194.265,316.773 199.5,320.5C 197.833,321.833 196.167,321.833 194.5,320.5C 190.914,318.42 187.747,315.754 185,312.5C 182.003,313.866 178.836,314.533 175.5,314.5C 176.005,311.479 176.672,308.479 177.5,305.5C 177.471,303.971 176.804,302.804 175.5,302C 169.226,302.776 162.893,303.61 156.5,304.5C 155.167,304.167 153.833,303.833 152.5,303.5C 154.635,299.535 156.968,295.702 159.5,292C 149.532,292.689 139.532,293.022 129.5,293C 134.19,287.646 139.523,282.979 145.5,279C 134.82,278.256 124.154,277.423 113.5,276.5C 111.862,275.295 111.529,273.962 112.5,272.5C 118.43,269.91 124.43,267.41 130.5,265C 117.053,260.793 106.387,252.96 98.5,241.5C 98.6716,240.508 98.3382,239.842 97.5,239.5C 97.5,239.167 97.5,238.833 97.5,238.5C 101.911,238.861 106.244,239.361 110.5,240C 101.971,231.099 97.3045,220.432 96.5,208C 96.3875,206.338 97.0542,205.171 98.5,204.5C 100.753,205.253 102.587,206.586 104,208.5C 104.048,200.058 104.882,191.724 106.5,183.5C 109.56,182.598 112.06,183.598 114,186.5C 115.467,179.6 117.633,172.933 120.5,166.5C 121.365,165.417 122.365,165.251 123.5,166C 124.667,167.833 125.833,169.667 127,171.5C 131.57,161.261 138.07,152.428 146.5,145C 147.448,144.517 148.448,144.351 149.5,144.5C 149.565,146.696 150.232,148.696 151.5,150.5C 167.896,138.091 186.23,130.258 206.5,127C 197.931,134.9 190.097,143.4 183,152.5C 174.896,164.874 173.562,177.874 179,191.5C 180.373,194.561 182.54,196.394 185.5,197C 188.819,192.833 192.819,189.667 197.5,187.5 Z M 128.5,214.5 C 121.003,210.229 115.836,203.896 113,195.5C 111.184,210.03 115.684,222.196 126.5,232C 125.5,232.667 124.5,232.667 123.5,232C 117.709,227.878 112.209,223.378 107,218.5C 106.833,218.833 106.667,219.167 106.5,219.5C 111.293,232.133 119.293,242.3 130.5,250C 123.71,249.62 117.043,248.62 110.5,247C 112.539,249.374 114.872,251.374 117.5,253C 126.382,257.275 135.382,261.275 144.5,265C 138.353,266.437 132.687,268.937 127.5,272.5C 138.852,273.768 150.185,273.768 161.5,272.5C 158.876,255.646 160.71,239.313 167,223.5C 167.667,220.833 167.667,218.167 167,215.5C 161.721,210.221 156.387,204.887 151,199.5C 142.331,188.16 139.331,175.493 142,161.5C 130.152,172.459 128.318,184.959 136.5,199C 135.092,199.315 133.759,198.982 132.5,198C 127.447,192.868 124.28,186.701 123,179.5C 119.752,185.452 118.752,191.785 120,198.5C 122.589,204.014 125.422,209.347 128.5,214.5 Z M 373.5,232.5 C 383.334,222.148 387.5,209.815 386,195.5C 383.231,205.247 377.398,212.08 368.5,216C 372.288,211.594 375.455,206.761 378,201.5C 380.339,193.893 379.672,186.56 376,179.5C 374.979,187.377 371.479,193.877 365.5,199C 364.668,199.688 364.002,199.521 363.5,198.5C 370.607,184.456 368.441,172.123 357,161.5C 359.846,183.809 351.846,201.142 333,213.5C 331.543,217.741 331.209,222.074 332,226.5C 336.379,241.564 337.545,256.897 335.5,272.5C 343.806,273.37 352.139,274.036 360.5,274.5C 364.256,274.537 367.922,274.037 371.5,273C 366.446,269.806 361.112,267.139 355.5,265C 364.75,261.583 373.75,257.583 382.5,253C 384.5,251 386.5,249 388.5,247C 384.227,247.816 379.894,248.816 375.5,250C 373.167,250.667 370.833,250.667 368.5,250C 374.296,245.872 379.462,241.039 384,235.5C 388.06,230.384 390.727,224.718 392,218.5C 386.76,224.521 380.593,229.188 373.5,232.5 Z M 243.5,176.5 C 237.624,179.88 233.291,184.713 230.5,191C 235.028,198.536 240.694,205.203 247.5,211C 257.515,211.416 267.515,211.083 277.5,210C 283.161,204.872 287.495,198.706 290.5,191.5C 289.028,188.195 286.695,185.695 283.5,184C 270.905,177.734 257.572,175.234 243.5,176.5 Z M 311.5,203.5 C 321.202,213.571 327.202,225.571 329.5,239.5C 328.306,246.894 324.806,252.894 319,257.5C 309.475,253.989 300.642,249.323 292.5,243.5C 287.596,233.294 284.43,222.628 283,211.5C 286.444,205.724 290.277,200.224 294.5,195C 301.15,195.658 306.817,198.492 311.5,203.5 Z M 194.5,245.5 C 191.766,243.045 189.766,240.045 188.5,236.5C 191.249,227.007 195.082,218.007 200,209.5C 203.435,205.555 207.268,202.222 211.5,199.5C 213.153,199.34 214.486,198.674 215.5,197.5C 219.339,195.833 223.339,195.333 227.5,196C 233.796,201.289 238.962,207.456 243,214.5C 243.667,216.833 243.667,219.167 243,221.5C 240.469,228.091 238.136,234.758 236,241.5C 227.452,247.358 218.285,252.024 208.5,255.5C 206.701,255.423 205.034,254.923 203.5,254C 200.631,250.962 197.631,248.129 194.5,245.5 Z M 188.5,200.5 C 174.745,214.851 166.745,232.017 164.5,252C 164.6,254.37 165.6,256.203 167.5,257.5C 172.316,252.584 177.149,247.584 182,242.5C 185.293,230.287 189.96,218.62 196,207.5C 196.317,202.378 193.817,200.045 188.5,200.5 Z M 239.5,248.5 C 247.659,252.762 254.993,258.262 261.5,265C 260.042,274.528 258.208,284.028 256,293.5C 255.215,295.286 254.049,296.786 252.5,298C 245.125,302.57 237.125,304.904 228.5,305C 219.945,301.774 212.445,296.941 206,290.5C 202.418,280.149 203.252,270.149 208.5,260.5C 215.659,256.755 222.993,253.255 230.5,250C 233.393,248.851 236.393,248.351 239.5,248.5 Z M 166.5,262.5 C 168.766,274.119 172.933,285.119 179,295.5C 179.667,296.833 179.667,298.167 179,299.5C 172.559,291.194 168.226,281.86 166,271.5C 165.264,268.408 165.431,265.408 166.5,262.5 Z"/></g>
<g><path style="opacity:0.997" fill="#1a3752" d="M 217.5,133.5 C 219.956,135.818 221.289,138.818 221.5,142.5C 225.182,142.335 228.848,142.501 232.5,143C 229.801,145.341 227.134,147.675 224.5,150C 225.505,153.029 226.505,156.029 227.5,159C 227.167,159.167 226.833,159.333 226.5,159.5C 223.809,157.797 221.143,156.13 218.5,154.5C 215.857,156.13 213.191,157.797 210.5,159.5C 210.167,159.167 209.833,158.833 209.5,158.5C 210.599,155.704 211.599,152.871 212.5,150C 209.866,147.675 207.199,145.341 204.5,143C 208.152,142.501 211.818,142.335 215.5,142.5C 216.167,139.5 216.833,136.5 217.5,133.5 Z"/></g>
<g><path style="opacity:0.933" fill="#1a3651" d="M 279.5,133.5 C 281.956,135.818 283.289,138.818 283.5,142.5C 287.182,142.335 290.848,142.501 294.5,143C 291.801,145.341 289.134,147.675 286.5,150C 287.401,152.871 288.401,155.704 289.5,158.5C 289.167,158.833 288.833,159.167 288.5,159.5C 285.809,157.797 283.143,156.13 280.5,154.5C 277.857,156.13 275.191,157.797 272.5,159.5C 272.167,159.167 271.833,158.833 271.5,158.5C 272.599,155.704 273.599,152.871 274.5,150C 271.866,147.675 269.199,145.341 266.5,143C 270.152,142.501 273.818,142.335 277.5,142.5C 278.167,139.5 278.833,136.5 279.5,133.5 Z"/></g>
<g><path style="opacity:0.963" fill="#1b3650" d="M 316.5,197.5 C 316.414,198.496 316.748,199.329 317.5,200C 315.111,200.739 313.111,201.905 311.5,203.5C 306.817,198.492 301.15,195.658 294.5,195C 290.277,200.224 286.444,205.724 283,211.5C 284.43,222.628 287.596,233.294 292.5,243.5C 291.5,243.5 290.5,243.5 289.5,243.5C 288.53,239.147 287.363,234.814 286,230.5C 283.572,227.982 281.905,224.982 281,221.5C 281.186,217.516 281.186,213.516 281,209.5C 279.352,210.717 277.519,211.55 275.5,212C 265.409,212.757 255.409,213.257 245.5,213.5C 245.82,216.898 245.487,220.232 244.5,223.5C 241.397,229.134 239.063,235.134 237.5,241.5C 239.171,243.51 239.838,245.843 239.5,248.5C 236.393,248.351 233.393,248.851 230.5,250C 222.993,253.255 215.659,256.755 208.5,260.5C 208.539,259.417 208.873,258.417 209.5,257.5C 208.5,257.167 207.5,256.833 206.5,256.5C 204.306,256.954 202.473,257.954 201,259.5C 200.228,259.355 199.561,259.022 199,258.5C 199.152,256.924 199.985,255.591 201.5,254.5C 198.768,251.773 196.434,248.773 194.5,245.5C 197.631,248.129 200.631,250.962 203.5,254C 205.034,254.923 206.701,255.423 208.5,255.5C 218.285,252.024 227.452,247.358 236,241.5C 238.136,234.758 240.469,228.091 243,221.5C 243.667,219.167 243.667,216.833 243,214.5C 238.962,207.456 233.796,201.289 227.5,196C 223.339,195.333 219.339,195.833 215.5,197.5C 215.577,196.25 216.244,195.417 217.5,195C 221.086,193.892 224.753,193.392 228.5,193.5C 227.884,188.95 229.051,184.95 232,181.5C 236.164,179.999 239.997,177.832 243.5,175C 239.5,174.333 235.5,174.333 231.5,175C 230.382,176.074 229.382,177.24 228.5,178.5C 226.132,176.777 223.466,176.11 220.5,176.5C 223.258,175.239 226.258,174.406 229.5,174C 262.094,167.974 290.094,176.474 313.5,199.5C 314.518,198.807 315.518,198.141 316.5,197.5 Z M 243.5,176.5 C 237.624,179.88 233.291,184.713 230.5,191C 235.028,198.536 240.694,205.203 247.5,211C 257.515,211.416 267.515,211.083 277.5,210C 283.161,204.872 287.495,198.706 290.5,191.5C 289.028,188.195 286.695,185.695 283.5,184C 270.905,177.734 257.572,175.234 243.5,176.5 Z"/></g>
<g><path style="opacity:1" fill="#173958" d="M 215.5,197.5 C 214.486,198.674 213.153,199.34 211.5,199.5C 207.145,199.624 203.478,201.291 200.5,204.5C 197.789,202.845 196.123,200.845 195.5,198.5C 196.908,197.757 198.241,196.923 199.5,196C 197.19,195.503 194.857,195.337 192.5,195.5C 192.281,194.325 192.614,193.325 193.5,192.5C 196.351,191.988 197.684,190.321 197.5,187.5C 204.256,182.126 211.923,178.459 220.5,176.5C 223.466,176.11 226.132,176.777 228.5,178.5C 229.382,177.24 230.382,176.074 231.5,175C 235.5,174.333 239.5,174.333 243.5,175C 239.997,177.832 236.164,179.999 232,181.5C 229.051,184.95 227.884,188.95 228.5,193.5C 224.753,193.392 221.086,193.892 217.5,195C 216.244,195.417 215.577,196.25 215.5,197.5 Z"/></g>
<g><path style="opacity:0.857" fill="#05060c" d="M 443.5,168.5 C 438.413,209.746 427.08,249.08 409.5,286.5C 409.586,285.504 409.252,284.671 408.5,284C 406.942,283.79 405.609,283.29 404.5,282.5C 422.736,246.188 435.736,208.188 443.5,168.5 Z"/></g>
<g><path style="opacity:0.889" fill="#04060b" d="M 58.5,186.5 C 69.2898,229.865 85.9565,270.865 108.5,309.5C 105.833,309.5 103.167,309.5 100.5,309.5C 79.9636,270.754 65.9636,229.754 58.5,186.5 Z"/></g>
<g><path style="opacity:1" fill="#3c5169" d="M 383.5,281.5 C 386.428,282.82 389.761,283.486 393.5,283.5C 397.249,283.465 400.916,283.131 404.5,282.5C 405.609,283.29 406.942,283.79 408.5,284C 409.252,284.671 409.586,285.504 409.5,286.5C 409.619,297.518 409.286,308.518 408.5,319.5C 408.827,328.682 408.493,337.682 407.5,346.5C 381.411,344.635 355.744,347.302 330.5,354.5C 286.773,363.579 243.107,372.912 199.5,382.5C 190.675,384.297 182.008,386.297 173.5,388.5C 168.9,388.28 164.567,388.946 160.5,390.5C 136.387,394.915 112.054,396.581 87.5,395.5C 87.5,384.167 87.5,372.833 87.5,361.5C 87.3335,352.161 87.5002,342.827 88,333.5C 88.3826,332.944 88.8826,332.611 89.5,332.5C 110.201,334.409 130.868,333.409 151.5,329.5C 166.142,327.373 180.475,324.373 194.5,320.5C 196.167,321.833 197.833,321.833 199.5,320.5C 208.8,318.273 218.134,316.106 227.5,314C 228.252,313.329 228.586,312.496 228.5,311.5C 229.531,312.355 230.697,313.022 232,313.5C 244.882,310.823 257.716,307.823 270.5,304.5C 271.713,304.253 272.38,303.586 272.5,302.5C 273.15,302.804 273.817,303.137 274.5,303.5C 284.645,301.207 294.645,298.541 304.5,295.5C 304.735,296.097 305.235,296.43 306,296.5C 308.253,295.623 310.419,294.623 312.5,293.5C 312.735,294.097 313.235,294.43 314,294.5C 316.835,293.767 319.668,293.1 322.5,292.5C 335.402,290.421 348.402,288.088 361.5,285.5C 367.832,285.056 374.165,284.556 380.5,284C 381.691,283.302 382.691,282.469 383.5,281.5 Z"/></g>
<g><path style="opacity:1" fill="#0c233a" d="M 100.5,309.5 C 103.167,309.5 105.833,309.5 108.5,309.5C 113.511,309.666 118.511,309.499 123.5,309C 126.361,309.03 128.695,308.197 130.5,306.5C 136.491,307.507 142.491,307.174 148.5,305.5C 150.516,305.516 151.516,306.516 151.5,308.5C 131.934,319.028 111.267,327.028 89.5,332.5C 88.8826,332.611 88.3826,332.944 88,333.5C 87.5002,342.827 87.3335,352.161 87.5,361.5C 62.0063,360.272 37.673,354.605 14.5,344.5C 19.8333,336.833 25.1667,329.167 30.5,321.5C 25.5467,311.757 20.2134,302.257 14.5,293C 32.1687,298.25 50.1687,302.583 68.5,306C 79.1114,307.717 89.778,308.884 100.5,309.5 Z"/></g>
<g><path style="opacity:1" fill="#97a6c9" d="M 151.5,308.5 C 151.5,315.5 151.5,322.5 151.5,329.5C 130.868,333.409 110.201,334.409 89.5,332.5C 111.267,327.028 131.934,319.028 151.5,308.5 Z"/></g>
<g><path style="opacity:1" fill="#0b233a" d="M 408.5,319.5 C 434.727,322.187 459.894,328.854 484,339.5C 479.774,347.104 474.607,354.27 468.5,361C 473.479,371.29 477.646,381.79 481,392.5C 439.651,374.407 396.818,369.074 352.5,376.5C 350.5,376.167 348.5,375.833 346.5,375.5C 365.866,363.986 386.199,354.319 407.5,346.5C 408.493,337.682 408.827,328.682 408.5,319.5 Z"/></g>
<g><path style="opacity:0.944" fill="#020204" d="M 346.5,375.5 C 348.5,375.833 350.5,376.167 352.5,376.5C 323.2,410.472 288.867,438.139 249.5,459.5C 216.007,441.329 186.341,418.329 160.5,390.5C 164.567,388.946 168.9,388.28 173.5,388.5C 196.383,409.942 221.716,427.942 249.5,442.5C 285.509,422.847 317.509,397.847 345.5,367.5C 346.48,370.086 346.813,372.753 346.5,375.5 Z"/></g>
<g><path style="opacity:1" fill="#99a6ca" d="M 407.5,346.5 C 386.199,354.319 365.866,363.986 346.5,375.5C 346.813,372.753 346.48,370.086 345.5,367.5C 317.509,397.847 285.509,422.847 249.5,442.5C 221.716,427.942 196.383,409.942 173.5,388.5C 182.008,386.297 190.675,384.297 199.5,382.5C 205.396,388.126 211.729,393.293 218.5,398C 228.412,404.874 238.579,411.374 249,417.5C 279.493,400.844 306.66,379.844 330.5,354.5C 355.744,347.302 381.411,344.635 407.5,346.5 Z"/></g>
</svg>
