<?xml version="1.0" encoding="UTF-8"?>
<!DOCTYPE svg PUBLIC "-//W3C//DTD SVG 1.1//EN" "http://www.w3.org/Graphics/SVG/1.1/DTD/svg11.dtd">
<svg xmlns="http://www.w3.org/2000/svg" version="1.1" width="500px" height="500px" style="shape-rendering:geometricPrecision; text-rendering:geometricPrecision; image-rendering:optimizeQuality; fill-rule:evenodd; clip-rule:evenodd" xmlns:xlink="http://www.w3.org/1999/xlink">
<g><path style="opacity:1" fill="#0449a9" d="M 224.5,65.5 C 224.833,65.5 225.167,65.5 225.5,65.5C 239.541,66.1126 253.708,67.1126 268,68.5C 269.167,68.8333 270.333,69.1667 271.5,69.5C 269.096,70.35 266.763,71.35 264.5,72.5C 264.863,73.1835 265.196,73.8501 265.5,74.5C 249.839,73.6776 234.173,73.5109 218.5,74C 217.944,74.3826 217.611,74.8826 217.5,75.5C 206.687,76.3023 196.02,77.969 185.5,80.5C 185.611,79.8826 185.944,79.3826 186.5,79C 189.702,78.8022 192.702,77.9689 195.5,76.5C 194.092,75.7568 192.759,74.9234 191.5,74C 193.286,73.8038 194.619,72.9705 195.5,71.5C 198.106,70.3483 200.773,70.1816 203.5,71C 202.495,72.5067 201.162,73.6733 199.5,74.5C 200,74.8333 200.5,75.1667 201,75.5C 204.78,74.1329 208.614,72.9663 212.5,72C 210.221,71.5272 208.221,70.5272 206.5,69C 211.833,68.6667 217.167,68.3333 222.5,68C 223.756,67.5831 224.423,66.7498 224.5,65.5 Z"/></g>
<g><path style="opacity:1" fill="#2851c1" d="M 225.5,65.5 C 256.916,64.0341 287.249,68.7007 316.5,79.5C 314.152,79.3305 311.818,78.9971 309.5,78.5C 307.865,78.8777 306.365,79.5444 305,80.5C 304.5,80.3333 304,80.1667 303.5,80C 304.973,79.2904 305.64,78.1238 305.5,76.5C 296.936,73.683 287.436,71.683 277,70.5C 275.5,70.8333 274,71.1667 272.5,71.5C 271.944,72.6634 271.611,73.6634 271.5,74.5C 269.5,74.5 267.5,74.5 265.5,74.5C 265.196,73.8501 264.863,73.1835 264.5,72.5C 266.763,71.35 269.096,70.35 271.5,69.5C 270.333,69.1667 269.167,68.8333 268,68.5C 253.708,67.1126 239.541,66.1126 225.5,65.5 Z"/></g>
<g><path style="opacity:1" fill="#30599e" d="M 265.5,74.5 C 267.5,74.5 269.5,74.5 271.5,74.5C 271.5,75.1667 271.5,75.8333 271.5,76.5C 253.524,74.5919 235.524,74.2585 217.5,75.5C 217.611,74.8826 217.944,74.3826 218.5,74C 234.173,73.5109 249.839,73.6776 265.5,74.5 Z"/></g>
<g><path style="opacity:1" fill="#084aad" d="M 316.5,79.5 C 327.024,82.7654 337.024,87.0988 346.5,92.5C 342.369,93.9006 338.036,94.5673 333.5,94.5C 333.736,92.0268 335.069,90.3601 337.5,89.5C 337,89.1667 336.5,88.8333 336,88.5C 334.147,90.1872 331.981,91.1872 329.5,91.5C 327.182,91.0029 324.848,90.6695 322.5,90.5C 321.426,89.1154 320.093,87.9487 318.5,87C 312.214,85.1956 305.88,83.6956 299.5,82.5C 297.169,80.9152 294.503,79.7486 291.5,79C 285.532,77.8444 279.532,77.0111 273.5,76.5C 272.833,76.5 272.167,76.5 271.5,76.5C 271.5,75.8333 271.5,75.1667 271.5,74.5C 271.611,73.6634 271.944,72.6634 272.5,71.5C 274,71.1667 275.5,70.8333 277,70.5C 287.436,71.683 296.936,73.683 305.5,76.5C 305.64,78.1238 304.973,79.2904 303.5,80C 304,80.1667 304.5,80.3333 305,80.5C 306.365,79.5444 307.865,78.8777 309.5,78.5C 311.818,78.9971 314.152,79.3305 316.5,79.5 Z"/></g>
<g><path style="opacity:1" fill="#f5fbfd" d="M 271.5,76.5 C 272.167,76.5 272.833,76.5 273.5,76.5C 281.966,78.7687 290.633,80.7687 299.5,82.5C 306.953,85.541 314.62,88.2076 322.5,90.5C 328.887,93.8626 335.554,96.8626 342.5,99.5C 343.514,100.674 344.847,101.34 346.5,101.5C 349.849,103.934 353.349,106.267 357,108.5C 357.168,127.671 357.668,146.671 358.5,165.5C 358.362,182.237 360.362,198.57 364.5,214.5C 364.27,220.645 364.936,226.645 366.5,232.5C 366.845,248.533 366.345,264.533 365,280.5C 363.038,288.56 360.205,296.226 356.5,303.5C 346.884,314.279 335.884,323.446 323.5,331C 304.756,342.067 285.756,352.734 266.5,363C 256.995,368.918 247.662,375.085 238.5,381.5C 230.668,375.325 222.334,369.992 213.5,365.5C 201.689,357.756 189.356,350.756 176.5,344.5C 159.897,335.398 144.231,324.898 129.5,313C 118.645,302.12 112.479,288.953 111,273.5C 109.844,253.731 110.678,234.064 113.5,214.5C 116.549,199.113 118.549,183.447 119.5,167.5C 120.652,147.824 120.819,128.157 120,108.5C 140.433,95.6952 162.266,86.3618 185.5,80.5C 196.02,77.969 206.687,76.3023 217.5,75.5C 235.524,74.2585 253.524,74.5919 271.5,76.5 Z"/></g>
<g><path style="opacity:1" fill="#164db6" d="M 224.5,65.5 C 224.423,66.7498 223.756,67.5831 222.5,68C 217.167,68.3333 211.833,68.6667 206.5,69C 208.221,70.5272 210.221,71.5272 212.5,72C 208.614,72.9663 204.78,74.1329 201,75.5C 200.5,75.1667 200,74.8333 199.5,74.5C 201.162,73.6733 202.495,72.5067 203.5,71C 200.773,70.1816 198.106,70.3483 195.5,71.5C 194.619,72.9705 193.286,73.8038 191.5,74C 192.759,74.9234 194.092,75.7568 195.5,76.5C 192.702,77.9689 189.702,78.8022 186.5,79C 185.944,79.3826 185.611,79.8826 185.5,80.5C 182.31,80.5592 179.143,80.8926 176,81.5C 172.899,81.1964 170.065,80.1964 167.5,78.5C 164.654,79.5111 161.987,80.8444 159.5,82.5C 160.364,84.1965 161.697,85.3632 163.5,86C 159.848,86.889 156.182,87.2224 152.5,87C 153.563,85.8118 154.897,85.3118 156.5,85.5C 156.5,84.5 156.5,83.5 156.5,82.5C 155.167,82.5 153.833,82.5 152.5,82.5C 175.518,73.0269 199.518,67.3603 224.5,65.5 Z"/></g>
<g><path style="opacity:1" fill="#2c57a1" d="M 273.5,76.5 C 279.532,77.0111 285.532,77.8444 291.5,79C 294.503,79.7486 297.169,80.9152 299.5,82.5C 290.633,80.7687 281.966,78.7687 273.5,76.5 Z"/></g>
<g><path style="opacity:1" fill="#2c57a4" d="M 299.5,82.5 C 305.88,83.6956 312.214,85.1956 318.5,87C 320.093,87.9487 321.426,89.1154 322.5,90.5C 314.62,88.2076 306.953,85.541 299.5,82.5 Z"/></g>
<g><path style="opacity:1" fill="#024aac" d="M 282.5,95.5 C 269.5,109.167 256.167,122.5 242.5,135.5C 235.825,135.334 229.158,135.5 222.5,136C 217.804,138.231 212.804,139.397 207.5,139.5C 207.5,140.5 207.5,141.5 207.5,142.5C 205.473,142.338 203.473,142.505 201.5,143C 194.295,147.029 186.961,150.863 179.5,154.5C 178.273,155.59 177.44,156.924 177,158.5C 176,157.167 175,157.167 174,158.5C 172.085,161.235 170.918,164.235 170.5,167.5C 163.252,176.071 157.252,185.404 152.5,195.5C 151.778,195.082 151.278,194.416 151,193.5C 145.32,205.557 143.153,218.223 144.5,231.5C 144.5,232.5 144.5,233.5 144.5,234.5C 138.833,239.833 133.167,245.167 127.5,250.5C 127.167,250.5 126.833,250.5 126.5,250.5C 128.567,227.092 131.4,203.759 135,180.5C 135.993,159.51 136.827,138.51 137.5,117.5C 175.959,95.586 217.292,87.086 261.5,92C 268.587,92.9256 275.587,94.0923 282.5,95.5 Z"/></g>
<g><path style="opacity:1" fill="#194ea3" d="M 346.5,92.5 C 346.833,92.5 347.167,92.5 347.5,92.5C 346.766,93.7079 346.433,95.0413 346.5,96.5C 344.027,96.0882 342.694,97.0882 342.5,99.5C 335.554,96.8626 328.887,93.8626 322.5,90.5C 324.848,90.6695 327.182,91.0029 329.5,91.5C 331.981,91.1872 334.147,90.1872 336,88.5C 336.5,88.8333 337,89.1667 337.5,89.5C 335.069,90.3601 333.736,92.0268 333.5,94.5C 338.036,94.5673 342.369,93.9006 346.5,92.5 Z"/></g>
<g><path style="opacity:1" fill="#114bb0" d="M 347.5,92.5 C 354.376,95.7641 360.71,99.7641 366.5,104.5C 365.178,104.67 364.011,104.337 363,103.5C 362.044,104.894 360.711,105.561 359,105.5C 354.917,103.852 350.75,102.519 346.5,101.5C 344.847,101.34 343.514,100.674 342.5,99.5C 342.694,97.0882 344.027,96.0882 346.5,96.5C 346.433,95.0413 346.766,93.7079 347.5,92.5 Z"/></g>
<g><path style="opacity:1" fill="#124ca1" d="M 346.5,101.5 C 350.75,102.519 354.917,103.852 359,105.5C 360.711,105.561 362.044,104.894 363,103.5C 364.011,104.337 365.178,104.67 366.5,104.5C 366.5,106.167 366.5,107.833 366.5,109.5C 364.5,109.5 362.5,109.5 360.5,109.5C 360.162,111.854 359.662,114.187 359,116.5C 358.5,132.83 358.333,149.163 358.5,165.5C 357.668,146.671 357.168,127.671 357,108.5C 353.349,106.267 349.849,103.934 346.5,101.5 Z"/></g>
<g><path style="opacity:1" fill="#f5f9f9" d="M 282.5,95.5 C 292.175,97.7262 301.509,100.726 310.5,104.5C 299.5,115.833 288.5,127.167 277.5,138.5C 275.852,139.81 274.186,141.143 272.5,142.5C 262.882,138.595 252.882,136.595 242.5,136.5C 242.5,136.167 242.5,135.833 242.5,135.5C 256.167,122.5 269.5,109.167 282.5,95.5 Z"/></g>
<g><path style="opacity:1" fill="#054aaa" d="M 310.5,104.5 C 318.489,106.492 325.822,109.825 332.5,114.5C 319.167,127.167 306.167,140.167 293.5,153.5C 293.5,154.167 293.5,154.833 293.5,155.5C 288.299,152.737 283.299,149.737 278.5,146.5C 277.544,145.341 276.544,144.174 275.5,143C 276.414,141.594 277.08,140.094 277.5,138.5C 288.5,127.167 299.5,115.833 310.5,104.5 Z"/></g>
<g><path style="opacity:1" fill="#f7faf9" d="M 332.5,114.5 C 334.216,114.629 335.883,114.962 337.5,115.5C 338.172,116.267 339.005,116.934 340,117.5C 340.5,126.16 340.666,134.827 340.5,143.5C 331.167,152.167 322.167,161.167 313.5,170.5C 306.853,164.856 300.186,159.189 293.5,153.5C 306.167,140.167 319.167,127.167 332.5,114.5 Z"/></g>
<g><path style="opacity:1" fill="#427fd4" d="M 346.5,111.5 C 347.72,113.282 348.386,115.282 348.5,117.5C 345.081,115.913 341.415,115.247 337.5,115.5C 335.883,114.962 334.216,114.629 332.5,114.5C 325.822,109.825 318.489,106.492 310.5,104.5C 301.509,100.726 292.175,97.7262 282.5,95.5C 275.587,94.0923 268.587,92.9256 261.5,92C 217.292,87.086 175.959,95.586 137.5,117.5C 136.827,138.51 135.993,159.51 135,180.5C 131.4,203.759 128.567,227.092 126.5,250.5C 125.778,250.918 125.278,251.584 125,252.5C 124.525,258.842 124.025,265.176 123.5,271.5C 122.5,271.5 121.5,271.5 120.5,271.5C 120.35,254.487 120.684,237.487 121.5,220.5C 122.947,206.142 124.614,191.809 126.5,177.5C 128.068,169.391 128.902,161.058 129,152.5C 129.5,139.171 129.667,125.837 129.5,112.5C 182.965,81.4491 239.631,74.2825 299.5,91C 316.098,95.8065 331.765,102.64 346.5,111.5 Z"/></g>
<g><path style="opacity:1" fill="#4d82c7" d="M 346.5,111.5 C 347.15,111.804 347.817,112.137 348.5,112.5C 349.489,116.107 349.823,119.774 349.5,123.5C 348.508,131.316 348.174,139.316 348.5,147.5C 347.778,147.082 347.278,146.416 347,145.5C 346.333,138.167 346.333,130.833 347,123.5C 347.5,123 348,122.5 348.5,122C 346.783,120.441 344.783,119.608 342.5,119.5C 343.134,127.903 342.467,135.903 340.5,143.5C 340.666,134.827 340.5,126.16 340,117.5C 339.005,116.934 338.172,116.267 337.5,115.5C 341.415,115.247 345.081,115.913 348.5,117.5C 348.386,115.282 347.72,113.282 346.5,111.5 Z"/></g>
<g><path style="opacity:1" fill="#5a84bb" d="M 129.5,112.5 C 129.667,125.837 129.5,139.171 129,152.5C 128.902,161.058 128.068,169.391 126.5,177.5C 128.296,156.183 128.796,134.85 128,113.5C 128.383,112.944 128.883,112.611 129.5,112.5 Z"/></g>
<g><path style="opacity:0.976" fill="#4c5de0" d="M 366.5,111.5 C 366.5,130.833 366.5,150.167 366.5,169.5C 364.055,150.159 364.055,130.826 366.5,111.5 Z"/></g>
<g><path style="opacity:0.671" fill="#4e6ae5" d="M 110.5,104.5 C 112.962,125.805 113.129,147.138 111,168.5C 110.79,170.058 110.29,171.391 109.5,172.5C 111.964,151.167 111.964,129.833 109.5,108.5C 109.511,106.955 109.844,105.622 110.5,104.5 Z"/></g>
<g><path style="opacity:1" fill="#315798" d="M 242.5,136.5 C 252.882,136.595 262.882,138.595 272.5,142.5C 274.186,141.143 275.852,139.81 277.5,138.5C 277.08,140.094 276.414,141.594 275.5,143C 276.544,144.174 277.544,145.341 278.5,146.5C 262.816,140.052 246.483,137.385 229.5,138.5C 233.373,136.57 237.706,135.903 242.5,136.5 Z"/></g>
<g><path style="opacity:1" fill="#fcfdfd" d="M 229.5,138.5 C 246.483,137.385 262.816,140.052 278.5,146.5C 283.299,149.737 288.299,152.737 293.5,155.5C 320.59,176.696 333.256,204.696 331.5,239.5C 328.007,266.489 315.674,288.489 294.5,305.5C 282.513,313.664 269.513,319.331 255.5,322.5C 235.582,325.885 216.582,323.218 198.5,314.5C 194.833,312.5 191.167,310.5 187.5,308.5C 176.833,301.167 167.833,292.167 160.5,281.5C 157.833,276.167 155.167,270.833 152.5,265.5C 147.424,251.301 145.424,236.634 146.5,221.5C 147.858,212.686 149.858,204.019 152.5,195.5C 157.252,185.404 163.252,176.071 170.5,167.5C 186.534,150.65 206.201,140.984 229.5,138.5 Z"/></g>
<g><path style="opacity:1" fill="#2157aa" d="M 242.5,135.5 C 242.5,135.833 242.5,136.167 242.5,136.5C 237.706,135.903 233.373,136.57 229.5,138.5C 206.201,140.984 186.534,150.65 170.5,167.5C 170.918,164.235 172.085,161.235 174,158.5C 175,157.167 176,157.167 177,158.5C 177.44,156.924 178.273,155.59 179.5,154.5C 186.961,150.863 194.295,147.029 201.5,143C 203.473,142.505 205.473,142.338 207.5,142.5C 207.5,141.5 207.5,140.5 207.5,139.5C 212.804,139.397 217.804,138.231 222.5,136C 229.158,135.5 235.825,135.334 242.5,135.5 Z"/></g>
<g><path style="opacity:1" fill="#064aab" d="M 340.5,143.5 C 340.93,153.916 340.93,164.25 340.5,174.5C 336.113,179.554 331.446,184.221 326.5,188.5C 324.339,188.174 322.506,187.174 321,185.5C 318.646,180.372 316.146,175.372 313.5,170.5C 322.167,161.167 331.167,152.167 340.5,143.5 Z"/></g>
<g><path style="opacity:1" fill="#717fa1" d="M 232.5,167.5 C 232.5,166.167 232.5,164.833 232.5,163.5C 218.212,164.04 205.212,168.374 193.5,176.5C 192.893,176.376 192.56,176.043 192.5,175.5C 206.258,166.321 221.258,161.321 237.5,160.5C 236.164,163.154 234.497,165.487 232.5,167.5 Z"/></g>
<g><path style="opacity:1" fill="#4664de" d="M 109.5,173.5 C 110.641,176.64 110.808,179.973 110,183.5C 108.732,193.345 107.232,203.012 105.5,212.5C 106.687,199.485 108.02,186.485 109.5,173.5 Z"/></g>
<g><path style="opacity:1" fill="#7289be" d="M 232.5,167.5 C 232.068,168.71 231.401,169.71 230.5,170.5C 223.324,174.586 216.324,178.919 209.5,183.5C 205.407,184.713 201.741,186.713 198.5,189.5C 193.517,193.651 189.017,198.318 185,203.5C 182.529,208.722 180.363,214.055 178.5,219.5C 177.833,218.5 177.167,217.5 176.5,216.5C 176.167,217 175.833,217.5 175.5,218C 177.177,220.547 177.844,223.38 177.5,226.5C 170.341,239.161 164.508,252.494 160,266.5C 159.449,247.903 161.449,229.569 166,211.5C 170.843,196.5 179.676,184.5 192.5,175.5C 192.56,176.043 192.893,176.376 193.5,176.5C 205.212,168.374 218.212,164.04 232.5,163.5C 232.5,164.833 232.5,166.167 232.5,167.5 Z"/></g>
<g><path style="opacity:1" fill="#104bac" d="M 185.5,80.5 C 162.266,86.3618 140.433,95.6952 120,108.5C 120.819,128.157 120.652,147.824 119.5,167.5C 118.685,168.429 117.852,169.429 117,170.5C 115.986,185.185 114.819,199.852 113.5,214.5C 110.678,234.064 109.844,253.731 111,273.5C 112.479,288.953 118.645,302.12 129.5,313C 144.231,324.898 159.897,335.398 176.5,344.5C 176.55,347.152 177.55,348.152 179.5,347.5C 180.5,348 181.5,348.5 182.5,349C 182.167,350 181.833,351 181.5,352C 183.833,352.333 186.167,352.667 188.5,353C 187.289,353.893 187.289,354.726 188.5,355.5C 190.071,354.691 191.738,354.357 193.5,354.5C 193.174,356.661 192.174,358.494 190.5,360C 193.137,360.455 195.637,359.955 198,358.5C 199.877,359.253 201.711,360.086 203.5,361C 203,361.5 202.5,362 202,362.5C 199.102,360.928 196.935,361.595 195.5,364.5C 171.388,352.948 148.722,339.115 127.5,323C 112.262,310.025 103.762,293.525 102,273.5C 100.603,252.864 101.769,232.531 105.5,212.5C 107.232,203.012 108.732,193.345 110,183.5C 110.808,179.973 110.641,176.64 109.5,173.5C 109.5,173.167 109.5,172.833 109.5,172.5C 110.29,171.391 110.79,170.058 111,168.5C 113.129,147.138 112.962,125.805 110.5,104.5C 123.304,95.0958 137.304,87.7624 152.5,82.5C 153.833,82.5 155.167,82.5 156.5,82.5C 156.5,83.5 156.5,84.5 156.5,85.5C 154.897,85.3118 153.563,85.8118 152.5,87C 156.182,87.2224 159.848,86.889 163.5,86C 161.697,85.3632 160.364,84.1965 159.5,82.5C 161.987,80.8444 164.654,79.5111 167.5,78.5C 170.065,80.1964 172.899,81.1964 176,81.5C 179.143,80.8926 182.31,80.5592 185.5,80.5 Z"/></g>
<g><path style="opacity:1" fill="#f6faf9" d="M 340.5,174.5 C 341.117,174.611 341.617,174.944 342,175.5C 343.167,184.834 344.333,194.168 345.5,203.5C 345.372,205.955 344.372,207.955 342.5,209.5C 339.167,212.5 335.833,215.5 332.5,218.5C 331.461,208.839 328.794,199.672 324.5,191C 325.381,190.292 326.047,189.458 326.5,188.5C 331.446,184.221 336.113,179.554 340.5,174.5 Z"/></g>
<g><path style="opacity:1" fill="#3a62a9" d="M 119.5,167.5 C 118.549,183.447 116.549,199.113 113.5,214.5C 114.819,199.852 115.986,185.185 117,170.5C 117.852,169.429 118.685,168.429 119.5,167.5 Z"/></g>
<g><path style="opacity:1" fill="#59688d" d="M 230.5,170.5 C 229.04,173.704 228.54,177.038 229,180.5C 230.642,184.3 233.142,187.3 236.5,189.5C 236.791,190.649 237.624,191.316 239,191.5C 241.241,191.32 241.741,190.487 240.5,189C 245.934,187.643 250.267,189.143 253.5,193.5C 255.925,194.807 258.258,195.807 260.5,196.5C 256.892,198.152 253.226,199.652 249.5,201C 254.232,201.878 259.232,202.378 264.5,202.5C 266.387,205.151 268.387,207.817 270.5,210.5C 267.384,209.107 264.384,207.441 261.5,205.5C 256.833,204.833 252.167,204.167 247.5,203.5C 246.52,202.019 245.353,200.685 244,199.5C 243.587,202.232 242.92,204.899 242,207.5C 239.525,208.986 237.025,210.319 234.5,211.5C 233.448,211.351 232.448,211.517 231.5,212C 230.167,212.667 230.167,213.333 231.5,214C 229.714,214.785 228.214,215.951 227,217.5C 226.667,216.833 226.333,216.167 226,215.5C 226.046,217.313 225.88,218.979 225.5,220.5C 229.615,223.358 229.282,225.358 224.5,226.5C 223.761,219.523 220.761,213.69 215.5,209C 216.022,208.05 216.689,207.216 217.5,206.5C 213.621,201.868 213.621,197.202 217.5,192.5C 214.859,190.628 212.193,189.628 209.5,189.5C 208.571,190.689 208.238,192.022 208.5,193.5C 206.24,192.861 204.24,191.694 202.5,190C 206.008,188.988 208.342,186.822 209.5,183.5C 216.324,178.919 223.324,174.586 230.5,170.5 Z"/></g>
<g><path style="opacity:1" fill="#1e56a6" d="M 152.5,195.5 C 149.858,204.019 147.858,212.686 146.5,221.5C 145.833,224.833 145.167,228.167 144.5,231.5C 143.153,218.223 145.32,205.557 151,193.5C 151.278,194.416 151.778,195.082 152.5,195.5 Z"/></g>
<g><path style="opacity:1" fill="#6892cd" d="M 349.5,123.5 C 348.634,158.445 351.301,193.112 357.5,227.5C 356.442,226.4 355.608,225.066 355,223.5C 354.634,216.275 353.801,209.108 352.5,202C 351.852,197.889 350.519,194.056 348.5,190.5C 349.544,189.377 350.21,188.044 350.5,186.5C 348.764,173.563 348.097,160.563 348.5,147.5C 348.174,139.316 348.508,131.316 349.5,123.5 Z"/></g>
<g><path style="opacity:1" fill="#1e4f9e" d="M 358.5,165.5 C 361.318,181.583 363.318,197.917 364.5,214.5C 360.362,198.57 358.362,182.237 358.5,165.5 Z"/></g>
<g><path style="opacity:1" fill="#6274a0" d="M 209.5,183.5 C 208.342,186.822 206.008,188.988 202.5,190C 204.24,191.694 206.24,192.861 208.5,193.5C 208.238,192.022 208.571,190.689 209.5,189.5C 212.193,189.628 214.859,190.628 217.5,192.5C 213.621,197.202 213.621,201.868 217.5,206.5C 216.689,207.216 216.022,208.05 215.5,209C 220.761,213.69 223.761,219.523 224.5,226.5C 229.282,225.358 229.615,223.358 225.5,220.5C 225.88,218.979 226.046,217.313 226,215.5C 226.333,216.167 226.667,216.833 227,217.5C 228.214,215.951 229.714,214.785 231.5,214C 230.167,213.333 230.167,212.667 231.5,212C 232.448,211.517 233.448,211.351 234.5,211.5C 231.373,217.732 229.373,224.065 228.5,230.5C 224.614,240.903 224.947,251.236 229.5,261.5C 229.815,263.226 229.981,264.893 230,266.5C 228.846,265.257 227.512,264.257 226,263.5C 225.74,261.382 224.74,259.716 223,258.5C 222.28,256.888 222.446,255.388 223.5,254C 216.594,245.658 210.594,236.824 205.5,227.5C 205.103,226.475 204.437,226.308 203.5,227C 200.601,229.729 197.934,232.562 195.5,235.5C 195.34,233.801 195.506,232.134 196,230.5C 202.865,219.114 208.698,207.114 213.5,194.5C 210.45,193.518 208.116,194.518 206.5,197.5C 195.86,206.14 186.194,215.806 177.5,226.5C 177.844,223.38 177.177,220.547 175.5,218C 175.833,217.5 176.167,217 176.5,216.5C 177.167,217.5 177.833,218.5 178.5,219.5C 180.363,214.055 182.529,208.722 185,203.5C 189.017,198.318 193.517,193.651 198.5,189.5C 201.741,186.713 205.407,184.713 209.5,183.5 Z"/></g>
<g><path style="opacity:1" fill="#7086b7" d="M 270.5,210.5 C 270.672,211.492 270.338,212.158 269.5,212.5C 252.117,209.963 238.45,215.963 228.5,230.5C 229.373,224.065 231.373,217.732 234.5,211.5C 237.025,210.319 239.525,208.986 242,207.5C 242.92,204.899 243.587,202.232 244,199.5C 245.353,200.685 246.52,202.019 247.5,203.5C 252.167,204.167 256.833,204.833 261.5,205.5C 264.384,207.441 267.384,209.107 270.5,210.5 Z"/></g>
<g><path style="opacity:1" fill="#285293" d="M 293.5,153.5 C 300.186,159.189 306.853,164.856 313.5,170.5C 316.146,175.372 318.646,180.372 321,185.5C 322.506,187.174 324.339,188.174 326.5,188.5C 326.047,189.458 325.381,190.292 324.5,191C 328.794,199.672 331.461,208.839 332.5,218.5C 332.825,225.687 332.491,232.687 331.5,239.5C 333.256,204.696 320.59,176.696 293.5,155.5C 293.5,154.833 293.5,154.167 293.5,153.5 Z"/></g>
<g><path style="opacity:1" fill="#4e5975" d="M 291.5,216.5 C 289.92,213.737 288.087,211.07 286,208.5C 288.504,218.004 291.837,227.337 296,236.5C 296.495,238.473 296.662,240.473 296.5,242.5C 296.279,245.392 295.446,248.059 294,250.5C 293.536,249.906 293.369,249.239 293.5,248.5C 292.596,242.613 290.429,237.28 287,232.5C 280.516,227.009 273.349,222.676 265.5,219.5C 264.571,218.311 264.238,216.978 264.5,215.5C 266.001,214.248 267.668,213.248 269.5,212.5C 270.338,212.158 270.672,211.492 270.5,210.5C 268.387,207.817 266.387,205.151 264.5,202.5C 259.232,202.378 254.232,201.878 249.5,201C 253.226,199.652 256.892,198.152 260.5,196.5C 258.258,195.807 255.925,194.807 253.5,193.5C 250.267,189.143 245.934,187.643 240.5,189C 241.741,190.487 241.241,191.32 239,191.5C 237.624,191.316 236.791,190.649 236.5,189.5C 239.373,190.535 240.04,189.535 238.5,186.5C 245.785,185.751 252.619,187.417 259,191.5C 258.036,187.435 255.87,183.935 252.5,181C 259.202,183.242 265.869,185.908 272.5,189C 273.333,189.833 274.167,190.667 275,191.5C 275.333,187.833 275.667,184.167 276,180.5C 280.465,186.097 283.298,192.43 284.5,199.5C 285.799,198.91 286.632,197.91 287,196.5C 286.576,202.86 288.076,203.693 291.5,199C 292.416,198.626 293.25,198.126 294,197.5C 294.167,197.833 294.333,198.167 294.5,198.5C 290.564,203.983 289.564,209.983 291.5,216.5 Z"/></g>
<g><path style="opacity:1" fill="#758abd" d="M 195.5,235.5 C 192.524,242.123 189.524,248.79 186.5,255.5C 185.134,240.839 188.3,227.173 196,214.5C 199.522,208.777 203.022,203.111 206.5,197.5C 208.116,194.518 210.45,193.518 213.5,194.5C 208.698,207.114 202.865,219.114 196,230.5C 195.506,232.134 195.34,233.801 195.5,235.5 Z"/></g>
<g><path style="opacity:1" fill="#e1e7f2" d="M 282.5,221.5 C 285.69,222.208 287.19,224.208 287,227.5C 284.873,225.886 283.373,223.886 282.5,221.5 Z"/></g>
<g><path style="opacity:1" fill="#7185b4" d="M 264.5,215.5 C 264.238,216.978 264.571,218.311 265.5,219.5C 273.349,222.676 280.516,227.009 287,232.5C 290.429,237.28 292.596,242.613 293.5,248.5C 291.055,244.553 288.055,241.053 284.5,238C 279.122,235.987 273.789,233.987 268.5,232C 271.105,231.974 272.271,230.807 272,228.5C 267.729,224.953 263.229,221.786 258.5,219C 260.134,218.506 261.801,218.34 263.5,218.5C 263.263,217.209 263.596,216.209 264.5,215.5 Z"/></g>
<g><path style="opacity:1" fill="#6579a7" d="M 291.5,216.5 C 292.793,217.645 293.959,217.311 295,215.5C 295.667,208.833 296.333,208.833 297,215.5C 297.824,224.676 297.657,233.676 296.5,242.5C 296.662,240.473 296.495,238.473 296,236.5C 291.837,227.337 288.504,218.004 286,208.5C 288.087,211.07 289.92,213.737 291.5,216.5 Z"/></g>
<g><path style="opacity:1" fill="#0d4bae" d="M 366.5,104.5 C 367.756,106.726 367.756,109.059 366.5,111.5C 364.055,130.826 364.055,150.159 366.5,169.5C 368.763,187.841 371.263,206.175 374,224.5C 376.582,246.297 375.915,267.963 372,289.5C 367.776,303.445 359.943,314.945 348.5,324C 337.044,332.785 325.044,340.785 312.5,348C 290.513,359.323 269.179,371.656 248.5,385C 244.66,387.674 241.327,390.841 238.5,394.5C 235.042,391.544 231.708,388.377 228.5,385C 217.593,377.907 206.593,371.074 195.5,364.5C 197.591,364.682 199.591,364.348 201.5,363.5C 205.33,365.032 209.33,365.698 213.5,365.5C 222.334,369.992 230.668,375.325 238.5,381.5C 247.662,375.085 256.995,368.918 266.5,363C 285.756,352.734 304.756,342.067 323.5,331C 335.884,323.446 346.884,314.279 356.5,303.5C 361.302,301.058 363.468,297.058 363,291.5C 363.815,289.377 364.815,287.377 366,285.5C 368.37,269.245 369.037,252.912 368,236.5C 367.79,234.942 367.29,233.609 366.5,232.5C 364.936,226.645 364.27,220.645 364.5,214.5C 363.318,197.917 361.318,181.583 358.5,165.5C 358.333,149.163 358.5,132.83 359,116.5C 359.662,114.187 360.162,111.854 360.5,109.5C 362.5,109.5 364.5,109.5 366.5,109.5C 366.5,107.833 366.5,106.167 366.5,104.5 Z"/></g>
<g><path style="opacity:1" fill="#6a7ead" d="M 205.5,227.5 C 210.594,236.824 216.594,245.658 223.5,254C 222.446,255.388 222.28,256.888 223,258.5C 224.74,259.716 225.74,261.382 226,263.5C 227.512,264.257 228.846,265.257 230,266.5C 229.981,264.893 229.815,263.226 229.5,261.5C 236.851,274.179 247.518,282.845 261.5,287.5C 262.842,288.793 264.509,289.626 266.5,290C 270.541,290.173 274.541,290.673 278.5,291.5C 277.398,292.176 276.398,292.842 275.5,293.5C 255.064,297.245 236.064,293.745 218.5,283C 202.665,267.347 198.332,248.847 205.5,227.5 Z"/></g>
<g><path style="opacity:1" fill="#417fd5" d="M 348.5,147.5 C 348.097,160.563 348.764,173.563 350.5,186.5C 350.21,188.044 349.544,189.377 348.5,190.5C 350.519,194.056 351.852,197.889 352.5,202C 353.801,209.108 354.634,216.275 355,223.5C 355.608,225.066 356.442,226.4 357.5,227.5C 358.561,242.148 358.727,256.815 358,271.5C 357.359,287.95 350.526,301.117 337.5,311C 315.434,327.706 291.767,341.872 266.5,353.5C 263.127,352.865 259.794,352.365 256.5,352C 257.357,352.689 258.023,353.522 258.5,354.5C 255.564,355.115 252.897,356.282 250.5,358C 251.337,359.011 251.67,360.178 251.5,361.5C 247.638,362.337 243.971,363.67 240.5,365.5C 239.476,364.148 238.476,362.815 237.5,361.5C 260.787,347.518 284.453,334.018 308.5,321C 320.296,313.349 331.462,304.849 342,295.5C 348.693,281.835 351.526,267.335 350.5,252C 350.121,239.434 348.954,226.934 347,214.5C 346.64,212.392 345.973,210.392 345,208.5C 344.329,209.252 343.496,209.586 342.5,209.5C 344.372,207.955 345.372,205.955 345.5,203.5C 344.333,194.168 343.167,184.834 342,175.5C 341.617,174.944 341.117,174.611 340.5,174.5C 340.93,164.25 340.93,153.916 340.5,143.5C 342.467,135.903 343.134,127.903 342.5,119.5C 344.783,119.608 346.783,120.441 348.5,122C 348,122.5 347.5,123 347,123.5C 346.333,130.833 346.333,138.167 347,145.5C 347.278,146.416 347.778,147.082 348.5,147.5 Z"/></g>
<g><path style="opacity:1" fill="#42669d" d="M 146.5,221.5 C 145.424,236.634 147.424,251.301 152.5,265.5C 150.833,266.167 149.167,266.833 147.5,267.5C 148.582,266.406 149.248,265.073 149.5,263.5C 146.212,254.106 144.545,244.439 144.5,234.5C 144.5,233.5 144.5,232.5 144.5,231.5C 145.167,228.167 145.833,224.833 146.5,221.5 Z"/></g>
<g><path style="opacity:1" fill="#2457a6" d="M 331.5,239.5 C 330.606,245.856 330.606,252.189 331.5,258.5C 325.679,270.428 319.013,281.928 311.5,293C 311.957,293.414 312.291,293.914 312.5,294.5C 311.264,295.357 309.931,296.023 308.5,296.5C 308.003,298.216 307.669,299.883 307.5,301.5C 306.281,300.737 305.281,299.737 304.5,298.5C 301.683,301.663 298.35,303.996 294.5,305.5C 315.674,288.489 328.007,266.489 331.5,239.5 Z"/></g>
<g><path style="opacity:1" fill="#f6f9fa" d="M 144.5,234.5 C 144.545,244.439 146.212,254.106 149.5,263.5C 149.248,265.073 148.582,266.406 147.5,267.5C 141.833,272.5 136.5,277.833 131.5,283.5C 130.034,282.653 129.2,281.32 129,279.5C 126.7,269.855 126.2,260.188 127.5,250.5C 133.167,245.167 138.833,239.833 144.5,234.5 Z"/></g>
<g><path style="opacity:1" fill="#024aac" d="M 237.5,361.5 C 228.167,355.167 218.833,348.833 209.5,342.5C 215.167,336.5 220.833,330.5 226.5,324.5C 235.839,324.666 245.173,324.5 254.5,324C 255.056,323.617 255.389,323.117 255.5,322.5C 259.514,322.666 263.514,322.499 267.5,322C 271.813,319.374 276.48,317.374 281.5,316C 286.04,312.582 290.374,309.082 294.5,305.5C 298.35,303.996 301.683,301.663 304.5,298.5C 305.281,299.737 306.281,300.737 307.5,301.5C 307.669,299.883 308.003,298.216 308.5,296.5C 309.931,296.023 311.264,295.357 312.5,294.5C 312.291,293.914 311.957,293.414 311.5,293C 319.013,281.928 325.679,270.428 331.5,258.5C 330.606,252.189 330.606,245.856 331.5,239.5C 332.491,232.687 332.825,225.687 332.5,218.5C 335.833,215.5 339.167,212.5 342.5,209.5C 343.496,209.586 344.329,209.252 345,208.5C 345.973,210.392 346.64,212.392 347,214.5C 348.954,226.934 350.121,239.434 350.5,252C 351.526,267.335 348.693,281.835 342,295.5C 331.462,304.849 320.296,313.349 308.5,321C 284.453,334.018 260.787,347.518 237.5,361.5 Z"/></g>
<g><path style="opacity:1" fill="#2f58a3" d="M 366.5,232.5 C 367.29,233.609 367.79,234.942 368,236.5C 369.037,252.912 368.37,269.245 366,285.5C 364.815,287.377 363.815,289.377 363,291.5C 363.468,297.058 361.302,301.058 356.5,303.5C 360.205,296.226 363.038,288.56 365,280.5C 366.345,264.533 366.845,248.533 366.5,232.5 Z"/></g>
<g><path style="opacity:1" fill="#0b4baa" d="M 152.5,265.5 C 155.167,270.833 157.833,276.167 160.5,281.5C 159.833,283.5 159.167,285.5 158.5,287.5C 153.833,292.833 148.833,297.833 143.5,302.5C 137.164,298.307 132.831,292.474 130.5,285C 131.056,284.617 131.389,284.117 131.5,283.5C 136.5,277.833 141.833,272.5 147.5,267.5C 149.167,266.833 150.833,266.167 152.5,265.5 Z"/></g>
<g><path style="opacity:1" fill="#7986a7" d="M 261.5,287.5 C 267.039,288.981 272.706,289.648 278.5,289.5C 285.26,289.392 291.927,288.892 298.5,288C 291.007,290.623 283.341,292.457 275.5,293.5C 276.398,292.842 277.398,292.176 278.5,291.5C 274.541,290.673 270.541,290.173 266.5,290C 264.509,289.626 262.842,288.793 261.5,287.5 Z"/></g>
<g><path style="opacity:1" fill="#2f5897" d="M 160.5,281.5 C 167.833,292.167 176.833,301.167 187.5,308.5C 186.504,308.414 185.671,308.748 185,309.5C 182.931,307.915 180.764,306.581 178.5,305.5C 172.211,299.368 166.377,292.701 161,285.5C 160.292,286.381 159.458,287.047 158.5,287.5C 159.167,285.5 159.833,283.5 160.5,281.5 Z"/></g>
<g><path style="opacity:1" fill="#f7faf9" d="M 178.5,305.5 C 174.167,309.5 169.833,313.5 165.5,317.5C 157.164,313.997 149.831,308.997 143.5,302.5C 148.833,297.833 153.833,292.833 158.5,287.5C 159.458,287.047 160.292,286.381 161,285.5C 166.377,292.701 172.211,299.368 178.5,305.5 Z"/></g>
<g><path style="opacity:1" fill="#2857a2" d="M 294.5,305.5 C 290.374,309.082 286.04,312.582 281.5,316C 276.48,317.374 271.813,319.374 267.5,322C 263.514,322.499 259.514,322.666 255.5,322.5C 269.513,319.331 282.513,313.664 294.5,305.5 Z"/></g>
<g><path style="opacity:1" fill="#054aab" d="M 178.5,305.5 C 180.764,306.581 182.931,307.915 185,309.5C 185.671,308.748 186.504,308.414 187.5,308.5C 191.167,310.5 194.833,312.5 198.5,314.5C 198.5,315.167 198.5,315.833 198.5,316.5C 193.833,320.5 189.5,324.833 185.5,329.5C 178.069,326.728 171.403,322.728 165.5,317.5C 169.833,313.5 174.167,309.5 178.5,305.5 Z"/></g>
<g><path style="opacity:1" fill="#2b5494" d="M 198.5,314.5 C 216.582,323.218 235.582,325.885 255.5,322.5C 255.389,323.117 255.056,323.617 254.5,324C 245.173,324.5 235.839,324.666 226.5,324.5C 216.537,324.009 207.204,321.343 198.5,316.5C 198.5,315.833 198.5,315.167 198.5,314.5 Z"/></g>
<g><path style="opacity:1" fill="#f5f9fa" d="M 198.5,316.5 C 207.204,321.343 216.537,324.009 226.5,324.5C 220.833,330.5 215.167,336.5 209.5,342.5C 200.885,339.194 192.885,334.861 185.5,329.5C 189.5,324.833 193.833,320.5 198.5,316.5 Z"/></g>
<g><path style="opacity:1" fill="#4781d1" d="M 121.5,220.5 C 120.684,237.487 120.35,254.487 120.5,271.5C 121.5,271.5 122.5,271.5 123.5,271.5C 124.025,265.176 124.525,258.842 125,252.5C 125.278,251.584 125.778,250.918 126.5,250.5C 126.833,250.5 127.167,250.5 127.5,250.5C 126.2,260.188 126.7,269.855 129,279.5C 129.2,281.32 130.034,282.653 131.5,283.5C 131.389,284.117 131.056,284.617 130.5,285C 132.831,292.474 137.164,298.307 143.5,302.5C 149.831,308.997 157.164,313.997 165.5,317.5C 171.403,322.728 178.069,326.728 185.5,329.5C 192.885,334.861 200.885,339.194 209.5,342.5C 218.833,348.833 228.167,355.167 237.5,361.5C 238.476,362.815 239.476,364.148 240.5,365.5C 243.971,363.67 247.638,362.337 251.5,361.5C 251.67,360.178 251.337,359.011 250.5,358C 252.897,356.282 255.564,355.115 258.5,354.5C 258.023,353.522 257.357,352.689 256.5,352C 259.794,352.365 263.127,352.865 266.5,353.5C 257.231,359.476 247.898,365.476 238.5,371.5C 231.302,366.47 223.969,361.637 216.5,357C 196.349,346.76 176.682,335.76 157.5,324C 146.1,316.601 135.934,307.768 127,297.5C 120.094,283.838 117.261,269.338 118.5,254C 118.137,242.565 119.137,231.398 121.5,220.5 Z"/></g>
<g><path style="opacity:1" fill="#114ca5" d="M 176.5,344.5 C 189.356,350.756 201.689,357.756 213.5,365.5C 209.33,365.698 205.33,365.032 201.5,363.5C 199.591,364.348 197.591,364.682 195.5,364.5C 196.935,361.595 199.102,360.928 202,362.5C 202.5,362 203,361.5 203.5,361C 201.711,360.086 199.877,359.253 198,358.5C 195.637,359.955 193.137,360.455 190.5,360C 192.174,358.494 193.174,356.661 193.5,354.5C 191.738,354.357 190.071,354.691 188.5,355.5C 187.289,354.726 187.289,353.893 188.5,353C 186.167,352.667 183.833,352.333 181.5,352C 181.833,351 182.167,350 182.5,349C 181.5,348.5 180.5,348 179.5,347.5C 177.55,348.152 176.55,347.152 176.5,344.5 Z"/></g>
</svg>
