<?xml version="1.0" encoding="UTF-8"?>
<!DOCTYPE svg PUBLIC "-//W3C//DTD SVG 1.1//EN" "http://www.w3.org/Graphics/SVG/1.1/DTD/svg11.dtd">
<svg xmlns="http://www.w3.org/2000/svg" version="1.1" width="500px" height="500px" style="shape-rendering:geometricPrecision; text-rendering:geometricPrecision; image-rendering:optimizeQuality; fill-rule:evenodd; clip-rule:evenodd" xmlns:xlink="http://www.w3.org/1999/xlink">
<g><path style="opacity:0.206" fill="#b97f4c" d="M 313.5,42.5 C 284.277,38.5555 254.944,37.5555 225.5,39.5C 228.977,38.6773 232.644,38.1773 236.5,38C 251.167,37.3333 265.833,37.3333 280.5,38C 291.762,38.6145 302.762,40.1145 313.5,42.5 Z"/></g>
<g><path style="opacity:0.149" fill="#c1814b" d="M 223.5,39.5 C 219.409,40.8955 215.076,41.5621 210.5,41.5C 214.591,40.1045 218.924,39.4379 223.5,39.5 Z"/></g>
<g><path style="opacity:1" fill="#0d0704" d="M 313.5,42.5 C 318.656,42.8645 323.656,43.8645 328.5,45.5C 330.438,47.1628 332.772,47.8294 335.5,47.5C 337.515,48.9238 339.848,49.5905 342.5,49.5C 344.515,50.9238 346.848,51.5905 349.5,51.5C 351.786,51.595 353.786,52.2616 355.5,53.5C 358.797,55.6013 362.463,56.9347 366.5,57.5C 369.208,61.0169 372.874,62.6835 377.5,62.5C 377.5,63.5 377.5,64.5 377.5,65.5C 379.877,65.7845 382.044,65.7845 384,65.5C 385.401,67.1922 387.234,67.8588 389.5,67.5C 393.151,68.6589 396.485,70.3256 399.5,72.5C 399.804,73.1499 400.137,73.8165 400.5,74.5C 403.877,75.9172 407.211,77.2506 410.5,78.5C 416.339,81.5845 422.006,84.9179 427.5,88.5C 423.564,120.284 423.564,151.951 427.5,183.5C 428.636,189.641 429.303,195.974 429.5,202.5C 429.116,206.489 429.783,210.155 431.5,213.5C 432.207,216.786 432.54,220.119 432.5,223.5C 432.334,227.846 432.501,232.179 433,236.5C 433.383,237.056 433.883,237.389 434.5,237.5C 434.184,243.75 434.85,249.75 436.5,255.5C 437.277,272.822 437.611,290.155 437.5,307.5C 437.806,310.385 437.473,313.052 436.5,315.5C 435.613,319.1 434.613,322.767 433.5,326.5C 432.113,329.639 430.946,332.972 430,336.5C 429.346,335.304 428.846,335.304 428.5,336.5C 429.348,338.409 429.682,340.409 429.5,342.5C 426.721,349.777 422.888,356.444 418,362.5C 411.431,369.739 404.265,376.239 396.5,382C 374.103,398.202 350.436,412.369 325.5,424.5C 322.5,425.167 319.5,425.833 316.5,426.5C 316.5,427.5 316.5,428.5 316.5,429.5C 312.864,432.323 308.864,434.656 304.5,436.5C 301.368,436.784 298.368,437.617 295.5,439C 295.833,439.333 296.167,439.667 296.5,440C 294.45,440.416 293.116,441.583 292.5,443.5C 289.5,444.167 286.5,444.833 283.5,445.5C 283.5,446.5 283.5,447.5 283.5,448.5C 281.071,448.884 278.737,449.551 276.5,450.5C 276.5,451.5 276.5,452.5 276.5,453.5C 275.127,453.343 273.793,453.51 272.5,454C 273.598,454.77 273.598,455.603 272.5,456.5C 268.193,460.472 263.859,464.472 259.5,468.5C 258.833,468.5 258.167,468.5 257.5,468.5C 256.833,468.5 256.5,468.167 256.5,467.5C 255.167,464.167 252.833,461.833 249.5,460.5C 248.415,458.413 246.749,457.08 244.5,456.5C 240.148,454.327 236.148,451.66 232.5,448.5C 230.932,446.231 229.432,443.898 228,441.5C 227.275,442.059 226.442,442.392 225.5,442.5C 223.666,441.246 221.666,440.579 219.5,440.5C 219.027,439.094 218.027,438.427 216.5,438.5C 207.507,434.338 198.84,429.672 190.5,424.5C 190.027,423.094 189.027,422.427 187.5,422.5C 183.849,421.341 180.515,419.674 177.5,417.5C 177.027,416.094 176.027,415.427 174.5,415.5C 168.835,413.003 163.502,410.003 158.5,406.5C 158.027,405.094 157.027,404.427 155.5,404.5C 144.141,398.492 133.474,391.492 123.5,383.5C 122.415,381.413 120.749,380.08 118.5,379.5C 115.911,378.581 113.911,376.914 112.5,374.5C 111.089,372.086 109.089,370.419 106.5,369.5C 99.6392,363.642 94.3058,356.642 90.5,348.5C 88.5863,341.467 86.5863,335.134 84.5,329.5C 83.6515,327.112 82.6515,324.779 81.5,322.5C 81.5,322.167 81.5,321.833 81.5,321.5C 78.7557,293.802 79.0891,266.135 82.5,238.5C 84.1348,231.724 85.1348,224.724 85.5,217.5C 85.5,216.833 85.5,216.167 85.5,215.5C 87.1773,211.455 87.8439,207.122 87.5,202.5C 87.5,202.167 87.5,201.833 87.5,201.5C 89.4105,192.405 90.4105,183.072 90.5,173.5C 91.9847,160.532 92.6513,147.365 92.5,134C 92.3333,125.5 92.1667,117 92,108.5C 91.7291,102.279 90.8958,96.2793 89.5,90.5C 89.5367,87.2984 91.2033,85.6317 94.5,85.5C 98.3491,84.0908 102.349,82.9241 106.5,82C 105.664,80.7567 105.997,79.5901 107.5,78.5C 109.674,77.1366 111.841,76.8033 114,77.5C 116.826,75.694 118.992,73.3607 120.5,70.5C 122.181,68.9925 124.181,67.9925 126.5,67.5C 132.56,66.6694 137.893,64.336 142.5,60.5C 145.54,58.6541 148.873,57.3208 152.5,56.5C 156.222,55.9834 159.888,55.15 163.5,54C 164.056,53.6174 164.389,53.1174 164.5,52.5C 168.502,50.3902 172.835,49.0569 177.5,48.5C 180.495,48.7062 183.162,48.0395 185.5,46.5C 189.547,44.7402 193.88,43.7402 198.5,43.5C 202.79,43.8023 206.79,43.1357 210.5,41.5C 215.076,41.5621 219.409,40.8955 223.5,39.5C 224.167,39.5 224.833,39.5 225.5,39.5C 254.944,37.5555 284.277,38.5555 313.5,42.5 Z"/></g>
<g><path style="opacity:1" fill="#7c4c2d" d="M 210.5,41.5 C 206.79,43.1357 202.79,43.8023 198.5,43.5C 202.236,42.0109 206.236,41.3442 210.5,41.5 Z"/></g>
<g><path style="opacity:0.612" fill="#996034" d="M 328.5,45.5 C 331.067,45.7215 333.401,46.3882 335.5,47.5C 332.772,47.8294 330.438,47.1628 328.5,45.5 Z"/></g>
<g><path style="opacity:0.894" fill="#7f4d32" d="M 185.5,46.5 C 183.162,48.0395 180.495,48.7062 177.5,48.5C 179.905,47.2318 182.572,46.5651 185.5,46.5 Z"/></g>
<g><path style="opacity:0.322" fill="#b17046" d="M 335.5,47.5 C 338.152,47.4095 340.485,48.0762 342.5,49.5C 339.848,49.5905 337.515,48.9238 335.5,47.5 Z"/></g>
<g><path style="opacity:1" fill="#dcc562" d="M 313.5,54.5 C 302.196,53.4028 290.862,52.2361 279.5,51C 258.422,49.9561 237.422,50.6228 216.5,53C 215.542,54.1475 215.875,55.1475 217.5,56C 214.041,56.5636 210.708,56.0636 207.5,54.5C 203.868,55.2457 200.202,55.579 196.5,55.5C 216.905,50.6411 237.738,48.3078 259,48.5C 272.202,48.7668 285.368,49.6002 298.5,51C 303.664,52.0432 308.664,53.2099 313.5,54.5 Z"/></g>
<g><path style="opacity:0.384" fill="#a6673e" d="M 342.5,49.5 C 345.152,49.4095 347.485,50.0762 349.5,51.5C 346.848,51.5905 344.515,50.9238 342.5,49.5 Z"/></g>
<g><path style="opacity:1" fill="#fdde59" d="M 313.5,54.5 C 314.784,56.6138 316.784,57.6138 319.5,57.5C 319.286,59.1439 319.62,60.6439 320.5,62C 317.518,62.498 314.518,62.6646 311.5,62.5C 279.254,57.8369 246.921,57.3369 214.5,61C 213.944,61.3826 213.611,61.8826 213.5,62.5C 208.396,62.3367 203.396,63.0034 198.5,64.5C 195.344,64.257 192.344,63.4237 189.5,62C 191.878,61.4888 194.212,60.8221 196.5,60C 194.913,59.1376 193.246,58.4709 191.5,58C 193.744,57.9504 195.411,57.1171 196.5,55.5C 200.202,55.579 203.868,55.2457 207.5,54.5C 210.708,56.0636 214.041,56.5636 217.5,56C 215.875,55.1475 215.542,54.1475 216.5,53C 237.422,50.6228 258.422,49.9561 279.5,51C 290.862,52.2361 302.196,53.4028 313.5,54.5 Z"/></g>
<g><path style="opacity:0.827" fill="#85532d" d="M 164.5,52.5 C 164.389,53.1174 164.056,53.6174 163.5,54C 159.888,55.15 156.222,55.9834 152.5,56.5C 156.216,54.5947 160.216,53.2613 164.5,52.5 Z"/></g>
<g><path style="opacity:0.384" fill="#ad7739" d="M 355.5,53.5 C 359.537,54.0653 363.203,55.3987 366.5,57.5C 362.463,56.9347 358.797,55.6013 355.5,53.5 Z"/></g>
<g><path style="opacity:1" fill="#e7cf6d" d="M 311.5,62.5 C 311.918,63.2216 312.584,63.7216 313.5,64C 322.252,65.0178 330.919,66.8512 339.5,69.5C 339.863,70.1835 340.196,70.8501 340.5,71.5C 307.468,62.4411 273.801,58.6078 239.5,60C 230.888,61.4279 222.221,62.2612 213.5,62.5C 213.611,61.8826 213.944,61.3826 214.5,61C 246.921,57.3369 279.254,57.8369 311.5,62.5 Z"/></g>
<g><path style="opacity:1" fill="#040403" d="M 340.5,71.5 C 361.162,78.494 381.162,87.1607 400.5,97.5C 402.118,98.4511 403.451,99.7844 404.5,101.5C 403.344,124.457 403.177,147.457 404,170.5C 404.589,183.093 406.089,195.426 408.5,207.5C 411.06,227.807 413.56,248.14 416,268.5C 417.616,288.062 416.283,307.395 412,326.5C 407.741,340.761 399.574,352.261 387.5,361C 358.158,381.347 327.491,399.68 295.5,416C 283.033,423.636 270.7,431.469 258.5,439.5C 230.294,421.227 201.294,404.227 171.5,388.5C 153.75,378.423 137.084,366.756 121.5,353.5C 108.405,339.577 101.739,322.91 101.5,303.5C 100.731,280.032 102.065,256.699 105.5,233.5C 107.892,217.918 109.558,202.251 110.5,186.5C 111.724,181.034 112.557,175.367 113,169.5C 113.735,146.155 113.568,122.821 112.5,99.5C 112.833,99.5 113.167,99.5 113.5,99.5C 144.702,81.2128 178.035,68.8795 213.5,62.5C 222.221,62.2612 230.888,61.4279 239.5,60C 273.801,58.6078 307.468,62.4411 340.5,71.5 Z"/></g>
<g><path style="opacity:1" fill="#f9db5f" d="M 313.5,54.5 C 349.541,61.4018 383.208,74.4018 414.5,93.5C 414.833,95.1667 415.167,96.8333 415.5,98.5C 414.779,104.146 414.446,109.813 414.5,115.5C 413.505,127.322 413.172,139.322 413.5,151.5C 412.669,136.672 412.169,121.672 412,106.5C 411.075,105.953 410.242,105.287 409.5,104.5C 412.96,102.046 414.627,98.7128 414.5,94.5C 410.049,93.903 405.716,92.903 401.5,91.5C 401.325,93.6208 401.659,95.6208 402.5,97.5C 401.833,97.5 401.167,97.5 400.5,97.5C 381.162,87.1607 361.162,78.494 340.5,71.5C 340.196,70.8501 339.863,70.1835 339.5,69.5C 330.919,66.8512 322.252,65.0178 313.5,64C 312.584,63.7216 311.918,63.2216 311.5,62.5C 314.518,62.6646 317.518,62.498 320.5,62C 319.62,60.6439 319.286,59.1439 319.5,57.5C 316.784,57.6138 314.784,56.6138 313.5,54.5 Z"/></g>
<g><path style="opacity:1" fill="#f8da5f" d="M 196.5,55.5 C 195.411,57.1171 193.744,57.9504 191.5,58C 193.246,58.4709 194.913,59.1376 196.5,60C 194.212,60.8221 191.878,61.4888 189.5,62C 192.344,63.4237 195.344,64.257 198.5,64.5C 203.396,63.0034 208.396,62.3367 213.5,62.5C 178.035,68.8795 144.702,81.2128 113.5,99.5C 113.5,98.5 113.5,97.5 113.5,96.5C 116.999,96.741 117.332,95.9076 114.5,94C 116.035,93.5038 117.535,93.6705 119,94.5C 120.171,93.6604 121.338,92.8271 122.5,92C 122.167,91.6667 121.833,91.3333 121.5,91C 123.5,90.6667 125.5,90.3333 127.5,90C 126.004,87.7988 125.004,85.2988 124.5,82.5C 123.583,83.1272 122.583,83.4606 121.5,83.5C 144.801,70.0333 169.801,60.6999 196.5,55.5 Z"/></g>
<g><path style="opacity:1" fill="#452a1c" d="M 366.5,57.5 C 374.575,60.0407 382.241,63.3741 389.5,67.5C 387.234,67.8588 385.401,67.1922 384,65.5C 382.044,65.7845 379.877,65.7845 377.5,65.5C 377.5,64.5 377.5,63.5 377.5,62.5C 372.874,62.6835 369.208,61.0169 366.5,57.5 Z"/></g>
<g><path style="opacity:1" fill="#58351f" d="M 142.5,60.5 C 137.893,64.336 132.56,66.6694 126.5,67.5C 131.531,64.6554 136.864,62.3221 142.5,60.5 Z"/></g>
<g><path style="opacity:1" fill="#fdfdfd" d="M 239.5,70.5 C 293.755,67.4499 344.589,79.1166 392,105.5C 392.14,132.866 393.14,160.2 395,187.5C 398,209.833 401,232.167 404,254.5C 405.207,263.476 405.54,272.476 405,281.5C 336.833,213.333 268.667,145.167 200.5,77C 213.467,73.9255 226.467,71.7589 239.5,70.5 Z"/></g>
<g><path style="opacity:0.998" fill="#694727" d="M 399.5,72.5 C 403.655,73.7417 407.322,75.7417 410.5,78.5C 407.211,77.2506 403.877,75.9172 400.5,74.5C 400.137,73.8165 399.804,73.1499 399.5,72.5 Z"/></g>
<g><path style="opacity:1" fill="#412618" d="M 120.5,70.5 C 118.992,73.3607 116.826,75.694 114,77.5C 111.841,76.8033 109.674,77.1366 107.5,78.5C 105.997,79.5901 105.664,80.7567 106.5,82C 102.349,82.9241 98.3491,84.0908 94.5,85.5C 102.505,79.4929 111.172,74.4929 120.5,70.5 Z"/></g>
<g><path style="opacity:1" fill="#fbfbfb" d="M 159.5,88.5 C 161.199,88.3398 162.866,88.5065 164.5,89C 243,167.5 321.5,246 400,324.5C 398.789,332.421 395.289,339.254 389.5,345C 387.309,346.919 384.976,348.253 382.5,349C 299.833,266.333 217.167,183.667 134.5,101C 142.771,96.5326 151.104,92.3659 159.5,88.5 Z"/></g>
<g><path style="opacity:1" fill="#fdde59" d="M 413.5,151.5 C 413.714,169.546 414.714,187.546 416.5,205.5C 416.386,208.199 416.053,210.865 415.5,213.5C 415.824,215.569 416.658,215.902 418,214.5C 418.622,218.029 418.455,221.529 417.5,225C 418.725,229.726 419.558,229.559 420,224.5C 421.466,233.5 422.8,242.5 424,251.5C 424.667,257.5 424.667,263.5 424,269.5C 422.064,271.78 421.231,274.447 421.5,277.5C 421.734,282.109 422.734,285.775 424.5,288.5C 424.333,289.833 424.167,291.167 424,292.5C 423.529,290.754 422.862,289.087 422,287.5C 421.82,290.956 421.153,294.289 420,297.5C 419.421,280.387 418.088,263.387 416,246.5C 413.76,233.295 411.26,220.295 408.5,207.5C 408.212,199.29 408.545,191.124 409.5,183C 408.268,179.61 407.434,179.777 407,183.5C 404.521,155.532 403.854,127.532 405,99.5C 404.583,98.244 403.75,97.5774 402.5,97.5C 401.659,95.6208 401.325,93.6208 401.5,91.5C 405.716,92.903 410.049,93.903 414.5,94.5C 414.627,98.7128 412.96,102.046 409.5,104.5C 410.242,105.287 411.075,105.953 412,106.5C 412.169,121.672 412.669,136.672 413.5,151.5 Z"/></g>
<g><path style="opacity:1" fill="#d1bc5e" d="M 105.5,92.5 C 105.179,94.0481 104.179,94.7148 102.5,94.5C 102.337,96.8568 102.503,99.1902 103,101.5C 103.333,100.833 103.667,100.167 104,99.5C 105.082,122.932 104.582,146.266 102.5,169.5C 102.167,169.5 101.833,169.5 101.5,169.5C 102.809,146.17 102.809,122.837 101.5,99.5C 101.833,97.5 102.167,95.5 102.5,93.5C 103.417,92.8728 104.417,92.5394 105.5,92.5 Z"/></g>
<g><path style="opacity:0.243" fill="#a47043" d="M 89.5,90.5 C 90.8958,96.2793 91.7291,102.279 92,108.5C 92.1667,117 92.3333,125.5 92.5,134C 92.6513,147.365 91.9847,160.532 90.5,173.5C 90.5,172.833 90.5,172.167 90.5,171.5C 92.0599,144.472 91.7266,117.472 89.5,90.5 Z"/></g>
<g><path style="opacity:0.342" fill="#9c683d" d="M 427.5,88.5 C 428.097,88.7352 428.43,89.2352 428.5,90C 426.316,104.571 425.316,119.238 425.5,134C 425.834,150.516 426.501,167.016 427.5,183.5C 423.564,151.951 423.564,120.284 427.5,88.5 Z"/></g>
<g><path style="opacity:1" fill="#fefefe" d="M 124.5,139.5 C 201.632,216.132 278.632,292.965 355.5,370C 346.964,375.366 338.297,380.532 329.5,385.5C 261.18,316.68 192.68,248.014 124,179.5C 124.055,166.175 124.222,152.842 124.5,139.5 Z"/></g>
<g><path style="opacity:1" fill="#e2ca6e" d="M 400.5,97.5 C 401.167,97.5 401.833,97.5 402.5,97.5C 403.75,97.5774 404.583,98.244 405,99.5C 403.854,127.532 404.521,155.532 407,183.5C 407.434,179.777 408.268,179.61 409.5,183C 408.545,191.124 408.212,199.29 408.5,207.5C 406.089,195.426 404.589,183.093 404,170.5C 403.177,147.457 403.344,124.457 404.5,101.5C 403.451,99.7844 402.118,98.4511 400.5,97.5 Z"/></g>
<g><path style="opacity:1" fill="#e5cf73" d="M 112.5,99.5 C 113.568,122.821 113.735,146.155 113,169.5C 112.557,175.367 111.724,181.034 110.5,186.5C 112.276,157.346 112.943,128.346 112.5,99.5 Z"/></g>
<g><path style="opacity:0.353" fill="#c18646" d="M 90.5,171.5 C 90.5,172.167 90.5,172.833 90.5,173.5C 90.4105,183.072 89.4105,192.405 87.5,201.5C 88.1182,191.317 89.1182,181.317 90.5,171.5 Z"/></g>
<g><path style="opacity:1" fill="#ddc35f" d="M 101.5,169.5 C 101.833,169.5 102.167,169.5 102.5,169.5C 102.229,177.536 102.562,185.536 103.5,193.5C 103.167,194.167 102.833,194.833 102.5,195.5C 101.749,194.624 101.249,193.624 101,192.5C 100,202.833 99,213.167 98,223.5C 96.7556,226.638 96.089,229.972 96,233.5C 95.3918,235.066 94.5585,236.4 93.5,237.5C 96.9877,214.932 99.6543,192.265 101.5,169.5 Z"/></g>
<g><path style="opacity:1" fill="#ae984f" d="M 417.5,196.5 C 418.449,200.657 419.116,204.99 419.5,209.5C 418.778,209.082 418.278,208.416 418,207.5C 417.501,203.848 417.335,200.182 417.5,196.5 Z"/></g>
<g><path style="opacity:0.204" fill="#bb7c45" d="M 429.5,202.5 C 430.525,205.974 431.192,209.64 431.5,213.5C 429.783,210.155 429.116,206.489 429.5,202.5 Z"/></g>
<g><path style="opacity:0.859" fill="#9c5f33" d="M 87.5,202.5 C 87.8439,207.122 87.1773,211.455 85.5,215.5C 85.6245,210.951 86.2911,206.618 87.5,202.5 Z"/></g>
<g><path style="opacity:1" fill="#fdfdfd" d="M 117.5,222.5 C 177.465,281.965 237.299,341.632 297,401.5C 297.688,402.332 297.521,402.998 296.5,403.5C 283.501,410.664 270.834,418.331 258.5,426.5C 235.317,411.403 211.317,397.57 186.5,385C 168.962,374.788 151.962,363.788 135.5,352C 120.646,340.126 112.812,324.626 112,305.5C 110.732,277.618 112.565,249.951 117.5,222.5 Z"/></g>
<g><path style="opacity:1" fill="#fcdd5c" d="M 113.5,99.5 C 113.167,99.5 112.833,99.5 112.5,99.5C 112.943,128.346 112.276,157.346 110.5,186.5C 109.558,202.251 107.892,217.918 105.5,233.5C 104.542,233.953 103.708,234.619 103,235.5C 100.779,258.097 99.9456,280.763 100.5,303.5C 100.232,309.382 100.566,315.215 101.5,321C 101.37,322.059 100.87,322.892 100,323.5C 95.3298,319.698 92.8298,314.698 92.5,308.5C 91.7298,285.828 92.0632,263.162 93.5,240.5C 93.5,239.5 93.5,238.5 93.5,237.5C 94.5585,236.4 95.3918,235.066 96,233.5C 96.089,229.972 96.7556,226.638 98,223.5C 99,213.167 100,202.833 101,192.5C 101.249,193.624 101.749,194.624 102.5,195.5C 102.833,194.833 103.167,194.167 103.5,193.5C 102.562,185.536 102.229,177.536 102.5,169.5C 104.582,146.266 105.082,122.932 104,99.5C 103.667,100.167 103.333,100.833 103,101.5C 102.503,99.1902 102.337,96.8568 102.5,94.5C 104.179,94.7148 105.179,94.0481 105.5,92.5C 110.177,88.4905 115.511,85.4905 121.5,83.5C 122.583,83.4606 123.583,83.1272 124.5,82.5C 125.004,85.2988 126.004,87.7988 127.5,90C 125.5,90.3333 123.5,90.6667 121.5,91C 121.833,91.3333 122.167,91.6667 122.5,92C 121.338,92.8271 120.171,93.6604 119,94.5C 117.535,93.6705 116.035,93.5038 114.5,94C 117.332,95.9076 116.999,96.741 113.5,96.5C 113.5,97.5 113.5,98.5 113.5,99.5 Z"/></g>
<g><path style="opacity:1" fill="#5b3726" d="M 432.5,223.5 C 433.801,227.943 434.468,232.609 434.5,237.5C 433.883,237.389 433.383,237.056 433,236.5C 432.501,232.179 432.334,227.846 432.5,223.5 Z"/></g>
<g><path style="opacity:0.302" fill="#b4773f" d="M 85.5,217.5 C 85.1348,224.724 84.1348,231.724 82.5,238.5C 82.6784,231.251 83.6784,224.251 85.5,217.5 Z"/></g>
<g><path style="opacity:1" fill="#a9954a" d="M 105.5,233.5 C 102.065,256.699 100.731,280.032 101.5,303.5C 101.167,303.5 100.833,303.5 100.5,303.5C 99.9456,280.763 100.779,258.097 103,235.5C 103.708,234.619 104.542,233.953 105.5,233.5 Z"/></g>
<g><path style="opacity:0.545" fill="#83502c" d="M 434.5,237.5 C 435.946,243.274 436.612,249.274 436.5,255.5C 434.85,249.75 434.184,243.75 434.5,237.5 Z"/></g>
<g><path style="opacity:0.522" fill="#a06436" d="M 436.5,255.5 C 437.967,265.962 438.634,276.629 438.5,287.5C 438.5,294.342 438.166,301.009 437.5,307.5C 437.611,290.155 437.277,272.822 436.5,255.5 Z"/></g>
<g><path style="opacity:0.267" fill="#b17540" d="M 82.5,238.5 C 79.0891,266.135 78.7557,293.802 81.5,321.5C 79.105,309.934 78.105,298.1 78.5,286C 78.3282,269.893 79.6615,254.06 82.5,238.5 Z"/></g>
<g><path style="opacity:1" fill="#e5cc60" d="M 93.5,240.5 C 92.0632,263.162 91.7298,285.828 92.5,308.5C 92.8298,314.698 95.3298,319.698 100,323.5C 100.87,322.892 101.37,322.059 101.5,321C 100.566,315.215 100.232,309.382 100.5,303.5C 100.833,303.5 101.167,303.5 101.5,303.5C 101.739,322.91 108.405,339.577 121.5,353.5C 116.887,350.887 113.22,347.22 110.5,342.5C 109.914,342.709 109.414,343.043 109,343.5C 108.506,341.866 108.34,340.199 108.5,338.5C 105.387,338.935 104.721,337.935 106.5,335.5C 105.259,333.063 104.259,330.563 103.5,328C 103.167,327.833 102.833,327.667 102.5,327.5C 101.416,328.665 100.583,329.998 100,331.5C 100.398,335.043 101.231,338.543 102.5,342C 102.167,342.333 101.833,342.667 101.5,343C 103.65,345.041 104.65,347.541 104.5,350.5C 99.7688,343.507 96.2688,335.84 94,327.5C 88.3193,298.417 88.1526,269.417 93.5,240.5 Z"/></g>
<g><path style="opacity:0.153" fill="#ba7b4a" d="M 81.5,322.5 C 82.6515,324.779 83.6515,327.112 84.5,329.5C 84.5,330.833 84.5,332.167 84.5,333.5C 82.7424,330.146 81.7424,326.479 81.5,322.5 Z"/></g>
<g><path style="opacity:0.082" fill="#ad7045" d="M 436.5,315.5 C 436.579,320.831 435.579,325.831 433.5,330.5C 433.5,329.167 433.5,327.833 433.5,326.5C 434.613,322.767 435.613,319.1 436.5,315.5 Z"/></g>
<g><path style="opacity:1" fill="#40261b" d="M 433.5,326.5 C 433.5,327.833 433.5,329.167 433.5,330.5C 433.074,334.902 431.74,338.902 429.5,342.5C 429.682,340.409 429.348,338.409 428.5,336.5C 428.846,335.304 429.346,335.304 430,336.5C 430.946,332.972 432.113,329.639 433.5,326.5 Z"/></g>
<g><path style="opacity:1" fill="#45281a" d="M 90.5,348.5 C 87.3431,344.043 85.3431,339.043 84.5,333.5C 84.5,332.167 84.5,330.833 84.5,329.5C 86.5863,335.134 88.5863,341.467 90.5,348.5 Z"/></g>
<g><path style="opacity:1" fill="#f9db5d" d="M 121.5,353.5 C 137.084,366.756 153.75,378.423 171.5,388.5C 171.414,389.496 171.748,390.329 172.5,391C 176.851,394.119 181.518,396.786 186.5,399C 184.667,400.833 182.833,402.667 181,404.5C 175.851,400.944 170.351,398.278 164.5,396.5C 150.209,388.685 136.543,379.851 123.5,370C 116.293,364.294 109.96,357.794 104.5,350.5C 104.65,347.541 103.65,345.041 101.5,343C 101.833,342.667 102.167,342.333 102.5,342C 101.231,338.543 100.398,335.043 100,331.5C 100.583,329.998 101.416,328.665 102.5,327.5C 102.833,327.667 103.167,327.833 103.5,328C 104.259,330.563 105.259,333.063 106.5,335.5C 104.721,337.935 105.387,338.935 108.5,338.5C 108.34,340.199 108.506,341.866 109,343.5C 109.414,343.043 109.914,342.709 110.5,342.5C 113.22,347.22 116.887,350.887 121.5,353.5 Z"/></g>
<g><path style="opacity:0.906" fill="#824b32" d="M 106.5,369.5 C 109.089,370.419 111.089,372.086 112.5,374.5C 109.911,373.581 107.911,371.914 106.5,369.5 Z"/></g>
<g><path style="opacity:0.914" fill="#8a5530" d="M 118.5,379.5 C 120.749,380.08 122.415,381.413 123.5,383.5C 121.251,382.92 119.585,381.587 118.5,379.5 Z"/></g>
<g><path style="opacity:0.271" fill="#ab8437" d="M 155.5,404.5 C 157.027,404.427 158.027,405.094 158.5,406.5C 156.973,406.573 155.973,405.906 155.5,404.5 Z"/></g>
<g><path style="opacity:0.192" fill="#b88e44" d="M 174.5,415.5 C 176.027,415.427 177.027,416.094 177.5,417.5C 175.973,417.573 174.973,416.906 174.5,415.5 Z"/></g>
<g><path style="opacity:0.184" fill="#b88c40" d="M 187.5,422.5 C 189.027,422.427 190.027,423.094 190.5,424.5C 188.973,424.573 187.973,423.906 187.5,422.5 Z"/></g>
<g><path style="opacity:1" fill="#553221" d="M 325.5,424.5 C 322.992,426.924 319.992,428.59 316.5,429.5C 316.5,428.5 316.5,427.5 316.5,426.5C 319.5,425.833 322.5,425.167 325.5,424.5 Z"/></g>
<g><path style="opacity:1" fill="#593823" d="M 304.5,436.5 C 300.836,439.335 296.836,441.668 292.5,443.5C 293.116,441.583 294.45,440.416 296.5,440C 296.167,439.667 295.833,439.333 295.5,439C 298.368,437.617 301.368,436.784 304.5,436.5 Z"/></g>
<g><path style="opacity:0.345" fill="#a9603f" d="M 216.5,438.5 C 218.027,438.427 219.027,439.094 219.5,440.5C 217.973,440.573 216.973,439.906 216.5,438.5 Z"/></g>
<g><path style="opacity:1" fill="#f4d85f" d="M 414.5,115.5 C 413.873,142.574 414.873,169.574 417.5,196.5C 417.335,200.182 417.501,203.848 418,207.5C 418.278,208.416 418.778,209.082 419.5,209.5C 425.505,240.552 428.005,271.886 427,303.5C 426.504,328.027 417.337,348.527 399.5,365C 385.691,375.739 371.357,385.739 356.5,395C 332.005,408.413 307.672,422.08 283.5,436C 275.028,441.639 266.695,447.472 258.5,453.5C 250.305,447.472 241.972,441.639 233.5,436C 210.437,422.806 187.437,409.64 164.5,396.5C 170.351,398.278 175.851,400.944 181,404.5C 182.833,402.667 184.667,400.833 186.5,399C 181.518,396.786 176.851,394.119 172.5,391C 171.748,390.329 171.414,389.496 171.5,388.5C 201.294,404.227 230.294,421.227 258.5,439.5C 270.7,431.469 283.033,423.636 295.5,416C 327.491,399.68 358.158,381.347 387.5,361C 399.574,352.261 407.741,340.761 412,326.5C 416.283,307.395 417.616,288.062 416,268.5C 413.56,248.14 411.06,227.807 408.5,207.5C 411.26,220.295 413.76,233.295 416,246.5C 418.088,263.387 419.421,280.387 420,297.5C 421.153,294.289 421.82,290.956 422,287.5C 422.862,289.087 423.529,290.754 424,292.5C 424.167,291.167 424.333,289.833 424.5,288.5C 422.734,285.775 421.734,282.109 421.5,277.5C 421.231,274.447 422.064,271.78 424,269.5C 424.667,263.5 424.667,257.5 424,251.5C 422.8,242.5 421.466,233.5 420,224.5C 419.558,229.559 418.725,229.726 417.5,225C 418.455,221.529 418.622,218.029 418,214.5C 416.658,215.902 415.824,215.569 415.5,213.5C 416.053,210.865 416.386,208.199 416.5,205.5C 414.714,187.546 413.714,169.546 413.5,151.5C 413.172,139.322 413.505,127.322 414.5,115.5 Z"/></g>
<g><path style="opacity:1" fill="#3f2619" d="M 219.5,440.5 C 221.666,440.579 223.666,441.246 225.5,442.5C 226.442,442.392 227.275,442.059 228,441.5C 229.432,443.898 230.932,446.231 232.5,448.5C 227.657,446.582 223.323,443.916 219.5,440.5 Z"/></g>
<g><path style="opacity:1" fill="#442b1b" d="M 292.5,443.5 C 285.842,447.83 279.175,452.164 272.5,456.5C 273.598,455.603 273.598,454.77 272.5,454C 273.793,453.51 275.127,453.343 276.5,453.5C 276.5,452.5 276.5,451.5 276.5,450.5C 278.737,449.551 281.071,448.884 283.5,448.5C 283.5,447.5 283.5,446.5 283.5,445.5C 286.5,444.833 289.5,444.167 292.5,443.5 Z"/></g>
<g><path style="opacity:0.686" fill="#865d2c" d="M 244.5,456.5 C 246.749,457.08 248.415,458.413 249.5,460.5C 247.251,459.92 245.585,458.587 244.5,456.5 Z"/></g>
<g><path style="opacity:0.961" fill="#814c30" d="M 249.5,460.5 C 252.833,461.833 255.167,464.167 256.5,467.5C 253.833,465.5 251.5,463.167 249.5,460.5 Z"/></g>
<g><path style="opacity:0.184" fill="#b06632" d="M 257.5,468.5 C 258.167,468.5 258.833,468.5 259.5,468.5C 258.833,471.167 258.167,471.167 257.5,468.5 Z"/></g>
</svg>
