<?xml version="1.0" encoding="UTF-8"?>
<!DOCTYPE svg PUBLIC "-//W3C//DTD SVG 1.1//EN" "http://www.w3.org/Graphics/SVG/1.1/DTD/svg11.dtd">
<svg xmlns="http://www.w3.org/2000/svg" version="1.1" width="500px" height="500px" style="shape-rendering:geometricPrecision; text-rendering:geometricPrecision; image-rendering:optimizeQuality; fill-rule:evenodd; clip-rule:evenodd" xmlns:xlink="http://www.w3.org/1999/xlink">
<g><path style="opacity:1" fill="#010907" d="M 432.5,195.5 C 402.025,215.396 369.025,229.896 333.5,239C 316.275,243.511 298.942,247.511 281.5,251C 277.425,252.905 275.092,256.072 274.5,260.5C 270.636,258.406 266.969,256.072 263.5,253.5C 254.578,246.221 244.245,242.555 232.5,242.5C 228.81,242.692 225.143,243.025 221.5,243.5C 217.203,242.395 213.036,241.062 209,239.5C 206.319,241.208 204.985,243.542 205,246.5C 207.292,247.601 208.792,246.768 209.5,244C 210.448,243.517 211.448,243.351 212.5,243.5C 213.244,246.95 211.91,248.616 208.5,248.5C 208.79,252.554 208.123,253.054 206.5,250C 205.1,248.562 203.433,247.729 201.5,247.5C 154.178,238.449 109.844,221.616 68.5,197C 67.6195,196.292 66.9528,195.458 66.5,194.5C 63.7674,163.141 64.1007,131.808 67.5,100.5C 127.572,82.3097 187.572,63.8097 247.5,45C 308.725,62.6282 369.725,81.2948 430.5,101C 431.922,108.385 432.756,115.885 433,123.5C 433.713,147.51 433.546,171.51 432.5,195.5 Z"/></g>
<g><path style="opacity:1" fill="#a98341" d="M 374.5,98.5 C 377.186,100.352 380.186,102.019 383.5,103.5C 383.291,104.086 382.957,104.586 382.5,105C 379.475,105.361 376.475,105.861 373.5,106.5C 371.374,105.214 369.041,104.381 366.5,104C 367.993,102.844 367.826,102.01 366,101.5C 364.374,102.018 362.707,102.352 361,102.5C 357.859,101.678 354.693,101.011 351.5,100.5C 317.226,90.6093 283.059,80.276 249,69.5C 227.228,76.4805 205.394,83.1472 183.5,89.5C 176.94,91.139 170.273,92.139 163.5,92.5C 163.5,93.5 163.5,94.5 163.5,95.5C 155.555,97.5321 147.555,99.6987 139.5,102C 136.571,102.777 133.737,102.61 131,101.5C 124.93,104.078 118.596,106.078 112,107.5C 110.5,107.167 109,106.833 107.5,106.5C 112.619,105.443 116.953,103.11 120.5,99.5C 163.345,85.7746 206.345,72.4412 249.5,59.5C 291.25,72.306 332.917,85.306 374.5,98.5 Z"/></g>
<g><path style="opacity:1" fill="#a98340" d="M 259.5,110.5 C 268.986,111.494 278.652,111.827 288.5,111.5C 288.5,112.5 288.5,113.5 288.5,114.5C 280.761,119.399 273.428,124.899 266.5,131C 270.3,141.392 273.466,151.892 276,162.5C 267.56,155.551 258.727,149.218 249.5,143.5C 240.273,149.218 231.44,155.551 223,162.5C 225.538,151.881 228.704,141.381 232.5,131C 223.833,124.333 215.167,117.667 206.5,111C 217.495,110.5 228.495,110.333 239.5,110.5C 242.371,100.017 245.704,89.6834 249.5,79.5C 253.296,89.6834 256.629,100.017 259.5,110.5 Z"/></g>
<g><path style="opacity:1" fill="#9c7c44" d="M 374.5,98.5 C 380.785,99.9282 386.785,101.928 392.5,104.5C 387.518,106.361 382.518,107.527 377.5,108C 388.153,111.049 398.82,114.216 409.5,117.5C 411.078,126.075 411.745,134.742 411.5,143.5C 410.579,135.423 409.579,127.256 408.5,119C 389.22,113.295 370.22,107.128 351.5,100.5C 354.693,101.011 357.859,101.678 361,102.5C 362.707,102.352 364.374,102.018 366,101.5C 367.826,102.01 367.993,102.844 366.5,104C 369.041,104.381 371.374,105.214 373.5,106.5C 376.475,105.861 379.475,105.361 382.5,105C 382.957,104.586 383.291,104.086 383.5,103.5C 380.186,102.019 377.186,100.352 374.5,98.5 Z"/></g>
<g><path style="opacity:1" fill="#ab853f" d="M 392.5,104.5 C 400.884,106.628 409.218,108.961 417.5,111.5C 417.761,122.321 418.594,132.988 420,143.5C 420.5,159.83 420.667,176.163 420.5,192.5C 420.167,192.5 419.833,192.5 419.5,192.5C 417.194,192.993 414.861,193.326 412.5,193.5C 412.829,180.323 412.495,167.323 411.5,154.5C 411.5,150.833 411.5,147.167 411.5,143.5C 411.745,134.742 411.078,126.075 409.5,117.5C 398.82,114.216 388.153,111.049 377.5,108C 382.518,107.527 387.518,106.361 392.5,104.5 Z"/></g>
<g><path style="opacity:1" fill="#7a6a45" d="M 259.5,110.5 C 270.505,110.333 281.505,110.5 292.5,111C 291.295,112.376 289.962,113.542 288.5,114.5C 288.5,113.5 288.5,112.5 288.5,111.5C 278.652,111.827 268.986,111.494 259.5,110.5 Z"/></g>
<g><path style="opacity:1" fill="#a38145" d="M 183.5,89.5 C 152.418,99.5824 121.251,109.582 90,119.5C 87.4274,144.299 86.9274,169.132 88.5,194C 88.1667,194.833 87.8333,195.667 87.5,196.5C 85.22,195.864 83.22,194.864 81.5,193.5C 83.451,193.773 84.951,193.107 86,191.5C 86.6667,170.167 86.6667,148.833 86,127.5C 84.4157,126.139 82.5824,125.472 80.5,125.5C 80.8229,131.69 80.4896,137.69 79.5,143.5C 79.5,138.167 79.5,132.833 79.5,127.5C 79.5102,122.085 80.1769,116.752 81.5,111.5C 94.4501,107.346 107.45,103.346 120.5,99.5C 116.953,103.11 112.619,105.443 107.5,106.5C 109,106.833 110.5,107.167 112,107.5C 118.596,106.078 124.93,104.078 131,101.5C 133.737,102.61 136.571,102.777 139.5,102C 147.555,99.6987 155.555,97.5321 163.5,95.5C 163.5,94.5 163.5,93.5 163.5,92.5C 170.273,92.139 176.94,91.139 183.5,89.5 Z"/></g>
<g><path style="opacity:1" fill="#ac8540" d="M 81.5,193.5 C 80.5041,193.586 79.6708,193.252 79,192.5C 78.5034,190.19 78.3367,187.857 78.5,185.5C 78.1709,171.323 78.5042,157.323 79.5,143.5C 80.4896,137.69 80.8229,131.69 80.5,125.5C 82.5824,125.472 84.4157,126.139 86,127.5C 86.6667,148.833 86.6667,170.167 86,191.5C 84.951,193.107 83.451,193.773 81.5,193.5 Z"/></g>
<g><path style="opacity:1" fill="#a78241" d="M 349.5,174.5 C 351.974,171.813 352.141,168.813 350,165.5C 347.742,163.57 345.242,162.07 342.5,161C 341.707,159.915 341.04,158.748 340.5,157.5C 345.651,156.833 350.651,156.166 355.5,155.5C 357.434,148.697 359.768,142.03 362.5,135.5C 365.027,141.747 367.361,148.08 369.5,154.5C 376.811,155.331 384.144,155.831 391.5,156C 386,160.167 380.5,164.333 375,168.5C 376.667,175.833 378.333,183.167 380,190.5C 374.554,185.879 368.721,181.879 362.5,178.5C 356.279,181.879 350.446,185.879 345,190.5C 345.769,185.018 347.269,179.684 349.5,174.5 Z"/></g>
<g><path style="opacity:1" fill="#947846" d="M 355.5,155.5 C 350.651,156.166 345.651,156.833 340.5,157.5C 341.04,158.748 341.707,159.915 342.5,161C 345.242,162.07 347.742,163.57 350,165.5C 352.141,168.813 351.974,171.813 349.5,174.5C 350.323,172.545 350.49,170.545 350,168.5C 344.5,164.333 339,160.167 333.5,156C 340.826,155.5 348.159,155.334 355.5,155.5 Z"/></g>
<g><path style="opacity:1" fill="#6d592f" d="M 79.5,127.5 C 79.5,132.833 79.5,138.167 79.5,143.5C 78.5042,157.323 78.1709,171.323 78.5,185.5C 77.8336,178.341 77.5003,171.008 77.5,163.5C 77.3782,151.3 78.0449,139.3 79.5,127.5 Z"/></g>
<g><path style="opacity:1" fill="#8d7242" d="M 417.5,111.5 C 419.493,119.91 420.66,128.577 421,137.5C 421.829,156.005 421.662,174.338 420.5,192.5C 420.667,176.163 420.5,159.83 420,143.5C 418.594,132.988 417.761,122.321 417.5,111.5 Z"/></g>
<g><path style="opacity:1" fill="#ac843e" d="M 148.5,155.5 C 151.969,156.178 155.469,157.178 159,158.5C 160.538,157.251 161.705,157.418 162.5,159C 159.923,160.74 157.59,162.907 155.5,165.5C 154.675,166.386 153.675,166.719 152.5,166.5C 152.411,169.709 152.744,172.875 153.5,176C 151.542,181.4 148.542,181.9 144.5,177.5C 142.234,176.686 139.9,176.186 137.5,176C 136.874,175.25 136.374,174.416 136,173.5C 134.951,175.107 133.451,175.773 131.5,175.5C 131.665,172.482 131.498,169.482 131,166.5C 129.379,164.538 127.546,162.871 125.5,161.5C 127.312,161.574 129.312,161.241 131.5,160.5C 131.167,159.833 130.833,159.167 130.5,158.5C 132.341,157.77 134.175,157.103 136,156.5C 137.406,152.969 138.24,149.302 138.5,145.5C 138.769,141.526 139.936,137.86 142,134.5C 144.476,141.427 146.643,148.427 148.5,155.5 Z"/></g>
<g><path style="opacity:1" fill="#a28144" d="M 138.5,145.5 C 138.24,149.302 137.406,152.969 136,156.5C 134.175,157.103 132.341,157.77 130.5,158.5C 130.833,159.167 131.167,159.833 131.5,160.5C 129.312,161.241 127.312,161.574 125.5,161.5C 127.546,162.871 129.379,164.538 131,166.5C 131.498,169.482 131.665,172.482 131.5,175.5C 133.451,175.773 134.951,175.107 136,173.5C 136.374,174.416 136.874,175.25 137.5,176C 139.9,176.186 142.234,176.686 144.5,177.5C 148.542,181.9 151.542,181.4 153.5,176C 152.744,172.875 152.411,169.709 152.5,166.5C 153.675,166.719 154.675,166.386 155.5,165.5C 157.59,162.907 159.923,160.74 162.5,159C 161.705,157.418 160.538,157.251 159,158.5C 155.469,157.178 151.969,156.178 148.5,155.5C 155.841,155.334 163.174,155.5 170.5,156C 165.269,160.531 159.769,164.698 154,168.5C 155.187,175.076 157.02,181.576 159.5,188C 159.167,188.5 158.833,189 158.5,189.5C 152.833,185.5 147.167,181.5 141.5,177.5C 135.577,181.711 129.744,186.045 124,190.5C 125.606,183.606 127.772,176.772 130.5,170C 124.531,165.342 118.531,160.676 112.5,156C 120.159,155.5 127.826,155.334 135.5,155.5C 135.723,151.838 136.723,148.505 138.5,145.5 Z"/></g>
<g><path style="opacity:1" fill="#897144" d="M 411.5,154.5 C 412.495,167.323 412.829,180.323 412.5,193.5C 414.861,193.326 417.194,192.993 419.5,192.5C 416.912,194.625 413.912,195.958 410.5,196.5C 411.263,182.513 411.596,168.513 411.5,154.5 Z"/></g>
<g><path style="opacity:1" fill="#ab843f" d="M 66.5,194.5 C 66.9528,195.458 67.6195,196.292 68.5,197C 109.844,221.616 154.178,238.449 201.5,247.5C 202.537,249.738 202.703,252.071 202,254.5C 201.145,260.067 199.645,265.4 197.5,270.5C 198.254,276.419 201.42,280.419 207,282.5C 210.892,281.389 212.559,278.722 212,274.5C 220.304,268.334 227.304,269.668 233,278.5C 234.308,281.73 235.308,285.064 236,288.5C 236.708,283.372 236.208,278.372 234.5,273.5C 234.421,272.07 234.754,270.736 235.5,269.5C 234.369,268.396 233.535,268.729 233,270.5C 231.812,269.437 231.312,268.103 231.5,266.5C 226.156,266.666 220.823,266.499 215.5,266C 216.381,265.292 217.047,264.458 217.5,263.5C 218.167,263.5 218.833,263.5 219.5,263.5C 221.854,263.162 224.187,262.662 226.5,262C 227.423,259.959 227.756,257.792 227.5,255.5C 229.827,255.247 231.827,255.914 233.5,257.5C 234.604,256.369 234.271,255.535 232.5,255C 240.454,253.394 248.454,252.227 256.5,251.5C 258.801,252.325 261.135,252.992 263.5,253.5C 266.969,256.072 270.636,258.406 274.5,260.5C 275.092,256.072 277.425,252.905 281.5,251C 298.942,247.511 316.275,243.511 333.5,239C 369.025,229.896 402.025,215.396 432.5,195.5C 449.455,184.391 465.122,171.558 479.5,157C 480.332,156.312 480.998,156.479 481.5,157.5C 473.056,191.082 454.723,217.749 426.5,237.5C 410.886,247.808 394.219,256.308 376.5,263C 392.432,261.678 408.099,258.845 423.5,254.5C 432.173,252.498 440.84,250.498 449.5,248.5C 440.41,259.587 429.743,268.92 417.5,276.5C 394.909,290.496 370.243,298.996 343.5,302C 353.488,305.22 363.488,308.22 373.5,311C 359.255,316.062 344.589,318.895 329.5,319.5C 322.492,319.334 315.492,319.5 308.5,320C 309.044,320.717 309.711,321.217 310.5,321.5C 316.421,323.798 322.087,326.465 327.5,329.5C 313.869,330.95 300.202,332.117 286.5,333C 290.116,335.11 292.782,337.944 294.5,341.5C 288.158,341.334 281.825,341.5 275.5,342C 277.103,344.68 277.937,347.513 278,350.5C 275.699,349.133 273.199,348.466 270.5,348.5C 269.907,355.478 271.073,362.144 274,368.5C 279.723,378.222 286.223,387.389 293.5,396C 287.104,395.824 280.771,394.99 274.5,393.5C 274.152,401.057 273.152,408.39 271.5,415.5C 269.407,414.955 267.407,414.122 265.5,413C 262.612,409.778 260.112,406.278 258,402.5C 255.85,408.759 253.85,415.092 252,421.5C 251.275,423.158 250.108,423.658 248.5,423C 244.61,416.331 242.11,409.165 241,401.5C 238.319,408.013 233.819,412.679 227.5,415.5C 225.848,408.39 224.848,401.057 224.5,393.5C 218.786,394.175 213.119,395.175 207.5,396.5C 206.833,396.167 206.167,395.833 205.5,395.5C 214.092,386.735 220.925,376.735 226,365.5C 226.953,362.568 227.453,359.568 227.5,356.5C 228.803,353.645 228.803,350.645 227.5,347.5C 226.893,347.624 226.56,347.957 226.5,348.5C 224.418,348.472 222.584,349.139 221,350.5C 220.915,347.639 221.749,344.972 223.5,342.5C 216.833,341.833 210.167,341.167 203.5,340.5C 206.329,337.841 209.329,335.341 212.5,333C 212.272,332.601 211.938,332.435 211.5,332.5C 212.385,330.73 211.552,329.73 209,329.5C 198.916,331.272 189.083,330.606 179.5,327.5C 180.612,326.735 181.279,325.735 181.5,324.5C 183.509,322.935 185.843,321.935 188.5,321.5C 190.233,320.992 190.566,320.159 189.5,319C 174.765,318.886 160.098,318.052 145.5,316.5C 138.916,315.584 132.582,313.75 126.5,311C 135.97,307.546 145.636,304.546 155.5,302C 128.762,299.144 104.096,290.644 81.5,276.5C 69.8323,269.01 59.1656,260.177 49.5,250C 58.2382,250.848 66.9048,252.348 75.5,254.5C 92.3189,258.764 109.319,261.931 126.5,264C 107.489,256.994 89.489,248.16 72.5,237.5C 42.9125,217.748 24.7459,190.415 18,155.5C 32.6153,170.635 48.7819,183.635 66.5,194.5 Z"/></g>
<g><path style="opacity:0.086" fill="#968b73" d="M 449.5,247.5 C 450.833,248.167 450.833,248.167 449.5,247.5 Z"/></g>
<g><path style="opacity:1" fill="#090b05" d="M 72.5,237.5 C 89.489,248.16 107.489,256.994 126.5,264C 109.319,261.931 92.3189,258.764 75.5,254.5C 74.1144,248.905 73.1144,243.238 72.5,237.5 Z"/></g>
<g><path style="opacity:1" fill="#0a0a06" d="M 426.5,237.5 C 425.608,243.186 424.608,248.853 423.5,254.5C 408.099,258.845 392.432,261.678 376.5,263C 394.219,256.308 410.886,247.808 426.5,237.5 Z"/></g>
<g><path style="opacity:1" fill="#a08043" d="M 263.5,253.5 C 261.135,252.992 258.801,252.325 256.5,251.5C 248.454,252.227 240.454,253.394 232.5,255C 234.271,255.535 234.604,256.369 233.5,257.5C 231.827,255.914 229.827,255.247 227.5,255.5C 227.756,257.792 227.423,259.959 226.5,262C 224.187,262.662 221.854,263.162 219.5,263.5C 223.452,262.044 225.785,259.211 226.5,255C 233.961,252.508 241.628,251.174 249.5,251C 236.049,247.487 224.716,250.82 215.5,261C 212.28,262.352 208.947,263.186 205.5,263.5C 207.158,254.167 212.492,247.834 221.5,244.5C 221.5,244.167 221.5,243.833 221.5,243.5C 225.143,243.025 228.81,242.692 232.5,242.5C 244.245,242.555 254.578,246.221 263.5,253.5 Z"/></g>
<g><path style="opacity:1" fill="#ae843f" d="M 221.5,244.5 C 227.176,244.334 232.843,244.501 238.5,245C 239.337,246.011 239.67,247.178 239.5,248.5C 230.946,248.599 222.946,250.599 215.5,254.5C 214.09,254.132 213.09,253.299 212.5,252C 214.674,249.648 217.341,248.481 220.5,248.5C 220.433,247.041 220.766,245.708 221.5,244.5 Z"/></g>
<g><path style="opacity:1" fill="#0c0a02" d="M 221.5,243.5 C 221.5,243.833 221.5,244.167 221.5,244.5C 212.492,247.834 207.158,254.167 205.5,263.5C 208.947,263.186 212.28,262.352 215.5,261C 224.716,250.82 236.049,247.487 249.5,251C 241.628,251.174 233.961,252.508 226.5,255C 225.785,259.211 223.452,262.044 219.5,263.5C 218.833,263.5 218.167,263.5 217.5,263.5C 213.629,264.84 209.629,265.673 205.5,266C 201.035,271.35 201.868,275.85 208,279.5C 210.312,269.528 216.479,265.695 226.5,268C 229.597,269.273 232.264,271.107 234.5,273.5C 236.208,278.372 236.708,283.372 236,288.5C 235.308,285.064 234.308,281.73 233,278.5C 227.304,269.668 220.304,268.334 212,274.5C 212.559,278.722 210.892,281.389 207,282.5C 201.42,280.419 198.254,276.419 197.5,270.5C 199.645,265.4 201.145,260.067 202,254.5C 202.703,252.071 202.537,249.738 201.5,247.5C 203.433,247.729 205.1,248.562 206.5,250C 208.123,253.054 208.79,252.554 208.5,248.5C 211.91,248.616 213.244,246.95 212.5,243.5C 211.448,243.351 210.448,243.517 209.5,244C 208.792,246.768 207.292,247.601 205,246.5C 204.985,243.542 206.319,241.208 209,239.5C 213.036,241.062 217.203,242.395 221.5,243.5 Z"/></g>
<g><path style="opacity:1" fill="#9e7f45" d="M 217.5,263.5 C 217.047,264.458 216.381,265.292 215.5,266C 220.823,266.499 226.156,266.666 231.5,266.5C 231.312,268.103 231.812,269.437 233,270.5C 233.535,268.729 234.369,268.396 235.5,269.5C 234.754,270.736 234.421,272.07 234.5,273.5C 232.264,271.107 229.597,269.273 226.5,268C 216.479,265.695 210.312,269.528 208,279.5C 201.868,275.85 201.035,271.35 205.5,266C 209.629,265.673 213.629,264.84 217.5,263.5 Z"/></g>
<g><path style="opacity:1" fill="#030907" d="M 81.5,276.5 C 104.096,290.644 128.762,299.144 155.5,302C 145.636,304.546 135.97,307.546 126.5,311C 132.582,313.75 138.916,315.584 145.5,316.5C 148.942,317.748 152.608,318.581 156.5,319C 167.327,319.77 177.994,320.604 188.5,321.5C 185.843,321.935 183.509,322.935 181.5,324.5C 177.363,326.045 173.363,327.878 169.5,330C 183.445,331.564 197.445,332.397 211.5,332.5C 211.938,332.435 212.272,332.601 212.5,333C 209.329,335.341 206.329,337.841 203.5,340.5C 210.167,341.167 216.833,341.833 223.5,342.5C 221.749,344.972 220.915,347.639 221,350.5C 222.584,349.139 224.418,348.472 226.5,348.5C 227.473,350.948 227.806,353.615 227.5,356.5C 227.453,359.568 226.953,362.568 226,365.5C 220.925,376.735 214.092,386.735 205.5,395.5C 206.167,395.833 206.833,396.167 207.5,396.5C 213.119,395.175 218.786,394.175 224.5,393.5C 224.5,401.167 224.5,408.833 224.5,416.5C 225.791,416.737 226.791,416.404 227.5,415.5C 233.819,412.679 238.319,408.013 241,401.5C 242.11,409.165 244.61,416.331 248.5,423C 250.108,423.658 251.275,423.158 252,421.5C 253.85,415.092 255.85,408.759 258,402.5C 260.112,406.278 262.612,409.778 265.5,413C 267.407,414.122 269.407,414.955 271.5,415.5C 272.209,416.404 273.209,416.737 274.5,416.5C 274.5,408.833 274.5,401.167 274.5,393.5C 280.771,394.99 287.104,395.824 293.5,396C 286.223,387.389 279.723,378.222 274,368.5C 271.073,362.144 269.907,355.478 270.5,348.5C 273.199,348.466 275.699,349.133 278,350.5C 277.937,347.513 277.103,344.68 275.5,342C 281.825,341.5 288.158,341.334 294.5,341.5C 292.782,337.944 290.116,335.11 286.5,333C 300.202,332.117 313.869,330.95 327.5,329.5C 322.087,326.465 316.421,323.798 310.5,321.5C 316.833,320.833 323.167,320.167 329.5,319.5C 344.589,318.895 359.255,316.062 373.5,311C 363.488,308.22 353.488,305.22 343.5,302C 370.243,298.996 394.909,290.496 417.5,276.5C 397.206,350.942 352.873,405.776 284.5,441C 273.181,446.384 261.514,450.884 249.5,454.5C 172.459,428.961 119.293,378.294 90,302.5C 86.6606,293.982 83.8273,285.315 81.5,276.5 Z"/></g>
<g><path style="opacity:1" fill="#927645" d="M 145.5,316.5 C 160.098,318.052 174.765,318.886 189.5,319C 190.566,320.159 190.233,320.992 188.5,321.5C 177.994,320.604 167.327,319.77 156.5,319C 152.608,318.581 148.942,317.748 145.5,316.5 Z"/></g>
<g><path style="opacity:1" fill="#504023" d="M 329.5,319.5 C 323.167,320.167 316.833,320.833 310.5,321.5C 309.711,321.217 309.044,320.717 308.5,320C 315.492,319.5 322.492,319.334 329.5,319.5 Z"/></g>
<g><path style="opacity:1" fill="#937945" d="M 181.5,324.5 C 181.279,325.735 180.612,326.735 179.5,327.5C 189.083,330.606 198.916,331.272 209,329.5C 211.552,329.73 212.385,330.73 211.5,332.5C 197.445,332.397 183.445,331.564 169.5,330C 173.363,327.878 177.363,326.045 181.5,324.5 Z"/></g>
<g><path style="opacity:1" fill="#a78242" d="M 351.5,376.5 C 348.463,374.814 347.13,375.814 347.5,379.5C 341.869,380.382 340.369,378.382 343,373.5C 349.05,368.353 353.884,362.353 357.5,355.5C 369.116,338.612 378.949,320.612 387,301.5C 390.757,298.412 394.924,297.079 399.5,297.5C 388.298,326.972 372.298,353.306 351.5,376.5 Z"/></g>
<g><path style="opacity:1" fill="#47360f" d="M 226.5,348.5 C 226.56,347.957 226.893,347.624 227.5,347.5C 228.803,350.645 228.803,353.645 227.5,356.5C 227.806,353.615 227.473,350.948 226.5,348.5 Z"/></g>
<g><path style="opacity:1" fill="#a08148" d="M 357.5,355.5 C 353.884,362.353 349.05,368.353 343,373.5C 340.369,378.382 341.869,380.382 347.5,379.5C 347.13,375.814 348.463,374.814 351.5,376.5C 347.167,381.5 342.5,386.167 337.5,390.5C 337.5,388.833 337.5,387.167 337.5,385.5C 338.833,385.5 340.167,385.5 341.5,385.5C 341.917,380.932 339.917,379.432 335.5,381C 332.841,382.884 331.341,385.051 331,387.5C 329.234,388.233 327.401,388.567 325.5,388.5C 336.866,378.135 347.533,367.135 357.5,355.5 Z"/></g>
<g><path style="opacity:1" fill="#a78241" d="M 325.5,388.5 C 327.401,388.567 329.234,388.233 331,387.5C 331.341,385.051 332.841,382.884 335.5,381C 339.917,379.432 341.917,380.932 341.5,385.5C 340.167,385.5 338.833,385.5 337.5,385.5C 337.5,387.167 337.5,388.833 337.5,390.5C 312.165,413.513 282.831,429.846 249.5,439.5C 175.477,416.306 125.644,368.306 100,295.5C 104.21,297.123 108.21,299.123 112,301.5C 137.896,365.567 183.729,407.901 249.5,428.5C 277.748,420.38 303.081,407.046 325.5,388.5 Z"/></g>
<g><path style="opacity:1" fill="#43351a" d="M 274.5,393.5 C 274.5,401.167 274.5,408.833 274.5,416.5C 273.209,416.737 272.209,416.404 271.5,415.5C 273.152,408.39 274.152,401.057 274.5,393.5 Z"/></g>
<g><path style="opacity:1" fill="#373115" d="M 224.5,393.5 C 224.848,401.057 225.848,408.39 227.5,415.5C 226.791,416.404 225.791,416.737 224.5,416.5C 224.5,408.833 224.5,401.167 224.5,393.5 Z"/></g>
</svg>
