<?xml version="1.0" encoding="UTF-8"?>
<!DOCTYPE svg PUBLIC "-//W3C//DTD SVG 1.1//EN" "http://www.w3.org/Graphics/SVG/1.1/DTD/svg11.dtd">
<svg xmlns="http://www.w3.org/2000/svg" version="1.1" width="500px" height="500px" style="shape-rendering:geometricPrecision; text-rendering:geometricPrecision; image-rendering:optimizeQuality; fill-rule:evenodd; clip-rule:evenodd" xmlns:xlink="http://www.w3.org/1999/xlink">
<g><path style="opacity:1" fill="#110084" d="M -0.5,-0.5 C 104.833,-0.5 210.167,-0.5 315.5,-0.5C 321.828,6.16009 328.494,12.4934 335.5,18.5C 337.334,17.2455 339.334,16.5789 341.5,16.5C 341.33,17.8221 341.663,18.9887 342.5,20C 345.095,20.2256 347.595,20.7256 350,21.5C 350.186,23.9005 350.686,26.2338 351.5,28.5C 353.361,29.5283 354.695,31.0283 355.5,33C 357.813,33.662 360.146,34.162 362.5,34.5C 362.5,36.1667 362.5,37.8333 362.5,39.5C 345.5,39.5 328.5,39.5 311.5,39.5C 309.12,36.1264 305.787,33.9597 301.5,33C 298.889,31.4048 296.889,29.2381 295.5,26.5C 294.167,25.8333 292.833,25.1667 291.5,24.5C 291.709,23.914 292.043,23.414 292.5,23C 288.97,22.3282 287.637,20.1616 288.5,16.5C 284.837,15.8875 281.17,15.7208 277.5,16C 278.5,16.3333 279.5,16.6667 280.5,17C 278.833,17.3333 277.167,17.6667 275.5,18C 276.833,19 276.833,20 275.5,21C 267.771,21.1992 260.105,21.3659 252.5,21.5C 249.352,20.8596 249.019,19.8596 251.5,18.5C 251.258,15.681 251.258,12.681 251.5,9.5C 174.768,10.1069 98.2685,9.44024 22,7.5C 20.4078,9.49262 18.9078,11.4926 17.5,13.5C 14.4116,13.6482 11.245,13.3148 8,12.5C 6.80633,14.6234 6.13966,16.9568 6,19.5C 3.99348,20.6687 1.82682,21.3354 -0.5,21.5C -0.5,14.1667 -0.5,6.83333 -0.5,-0.5 Z"/></g>
<g><path style="opacity:1" fill="#0e0074" d="M 315.5,-0.5 C 331.167,-0.5 346.833,-0.5 362.5,-0.5C 362.5,2.83333 362.5,6.16667 362.5,9.5C 366.437,9.20653 370.27,9.53986 374,10.5C 374.741,13.562 374.575,16.562 373.5,19.5C 374.908,20.2432 376.241,21.0766 377.5,22C 376.409,24.0639 376.242,26.2305 377,28.5C 378.113,29.7111 379.28,29.7111 380.5,28.5C 381.096,29.7161 381.263,31.0494 381,32.5C 382.785,33.2401 384.618,33.9067 386.5,34.5C 387.452,36.0453 387.785,37.712 387.5,39.5C 379.167,39.5 370.833,39.5 362.5,39.5C 362.5,37.8333 362.5,36.1667 362.5,34.5C 360.146,34.162 357.813,33.662 355.5,33C 354.695,31.0283 353.361,29.5283 351.5,28.5C 350.686,26.2338 350.186,23.9005 350,21.5C 347.595,20.7256 345.095,20.2256 342.5,20C 341.663,18.9887 341.33,17.8221 341.5,16.5C 339.334,16.5789 337.334,17.2455 335.5,18.5C 328.494,12.4934 321.828,6.16009 315.5,-0.5 Z"/></g>
<g><path style="opacity:1" fill="#0a0069" d="M 362.5,-0.5 C 372.167,-0.5 381.833,-0.5 391.5,-0.5C 392.757,2.42735 394.757,4.76069 397.5,6.5C 401.196,4.26771 405.196,3.26771 409.5,3.5C 410.727,7.24092 411.727,11.0743 412.5,15C 410.707,17.9157 411.374,20.0823 414.5,21.5C 417.167,20.1667 419.833,20.1667 422.5,21.5C 423.167,25.8333 423.833,30.1667 424.5,34.5C 440.153,50.6528 455.986,66.6528 472,82.5C 472.333,86.5 472.667,90.5 473,94.5C 474.444,96.1554 476.278,96.822 478.5,96.5C 478.833,100.167 480.833,102.167 484.5,102.5C 484.5,104.167 484.5,105.833 484.5,107.5C 487.683,107.929 490.016,109.596 491.5,112.5C 492.689,113.429 494.022,113.762 495.5,113.5C 495.53,116.852 496.863,119.518 499.5,121.5C 499.5,128.5 499.5,135.5 499.5,142.5C 498.357,142.092 497.357,141.425 496.5,140.5C 497.167,137.5 497.833,134.5 498.5,131.5C 494.63,131.249 490.63,131.249 486.5,131.5C 486.299,128.272 486.633,125.105 487.5,122C 487.18,120.347 486.18,119.347 484.5,119C 488.166,118.61 488.332,117.443 485,115.5C 484.503,113.19 484.337,110.857 484.5,108.5C 481.14,108.384 477.807,108.051 474.5,107.5C 474.181,103.7 473.181,103.534 471.5,107C 469.167,107.667 466.833,107.667 464.5,107C 467.099,103.695 466.099,101.862 461.5,101.5C 460.131,95.9716 458.964,90.3049 458,84.5C 457.667,86.5 457.333,88.5 457,90.5C 455.795,89.9288 454.628,89.2621 453.5,88.5C 454.083,86.452 454.083,84.6187 453.5,83C 451.953,82.6666 450.62,83.1666 449.5,84.5C 448.808,83.9747 448.308,83.3081 448,82.5C 448.09,78.9497 447.924,75.283 447.5,71.5C 443.821,71.2756 440.154,70.9422 436.5,70.5C 438.669,60.3387 434.669,56.0053 424.5,57.5C 424.232,54.8806 424.565,52.3806 425.5,50C 424.193,47.5198 422.193,46.0198 419.5,45.5C 419.703,43.6096 419.037,42.1096 417.5,41C 300.167,40.5 182.834,40.3333 65.5,40.5C 131.665,39.5008 197.998,39.1675 264.5,39.5C 273.167,39.5 281.833,39.5 290.5,39.5C 297.5,39.5 304.5,39.5 311.5,39.5C 328.5,39.5 345.5,39.5 362.5,39.5C 370.833,39.5 379.167,39.5 387.5,39.5C 387.785,37.712 387.452,36.0453 386.5,34.5C 384.618,33.9067 382.785,33.2401 381,32.5C 381.263,31.0494 381.096,29.7161 380.5,28.5C 379.28,29.7111 378.113,29.7111 377,28.5C 376.242,26.2305 376.409,24.0639 377.5,22C 376.241,21.0766 374.908,20.2432 373.5,19.5C 374.575,16.562 374.741,13.562 374,10.5C 370.27,9.53986 366.437,9.20653 362.5,9.5C 362.5,6.16667 362.5,2.83333 362.5,-0.5 Z"/></g>
<g><path style="opacity:1" fill="#08005f" d="M 391.5,-0.5 C 401.833,-0.5 412.167,-0.5 422.5,-0.5C 422.088,4.14239 423.421,8.47573 426.5,12.5C 427.799,11.91 428.632,10.91 429,9.5C 430.661,13.1084 430.995,16.7751 430,20.5C 430.414,20.9574 430.914,21.2907 431.5,21.5C 433.508,20.3137 435.341,18.9803 437,17.5C 438.622,17.9541 439.788,18.9541 440.5,20.5C 438.704,21.1414 437.204,22.1414 436,23.5C 435.774,26.095 435.274,28.595 434.5,31C 435.126,31.7504 435.626,32.5838 436,33.5C 440.597,34.0318 445.097,34.8651 449.5,36C 448.549,39.0567 448.216,42.2234 448.5,45.5C 452.437,45.2065 456.27,45.5399 460,46.5C 459.851,49.6842 460.184,53.0175 461,56.5C 461.689,57.3567 462.522,58.0233 463.5,58.5C 469.829,55.7614 472.496,57.7614 471.5,64.5C 471.36,67.0432 470.694,69.3766 469.5,71.5C 470.167,71.8333 470.833,72.1667 471.5,72.5C 475.326,70.635 479.326,70.135 483.5,71C 484.751,73.9532 484.751,76.9532 483.5,80C 484.101,81.605 485.101,82.9384 486.5,84C 484.173,92.6537 487.507,96.1537 496.5,94.5C 496.77,98.8158 497.77,102.816 499.5,106.5C 499.5,111.5 499.5,116.5 499.5,121.5C 496.863,119.518 495.53,116.852 495.5,113.5C 494.022,113.762 492.689,113.429 491.5,112.5C 490.016,109.596 487.683,107.929 484.5,107.5C 484.5,105.833 484.5,104.167 484.5,102.5C 480.833,102.167 478.833,100.167 478.5,96.5C 476.278,96.822 474.444,96.1554 473,94.5C 472.667,90.5 472.333,86.5 472,82.5C 455.986,66.6528 440.153,50.6528 424.5,34.5C 423.833,30.1667 423.167,25.8333 422.5,21.5C 419.833,20.1667 417.167,20.1667 414.5,21.5C 411.374,20.0823 410.707,17.9157 412.5,15C 411.727,11.0743 410.727,7.24092 409.5,3.5C 405.196,3.26771 401.196,4.26771 397.5,6.5C 394.757,4.76069 392.757,2.42735 391.5,-0.5 Z"/></g>
<g><path style="opacity:1" fill="#08005a" d="M 422.5,-0.5 C 426.833,-0.5 431.167,-0.5 435.5,-0.5C 435.5,1.5 435.5,3.5 435.5,5.5C 441.687,3.8427 442.687,5.3427 438.5,10C 441.34,14.4177 444.673,18.4177 448.5,22C 452.089,22.2069 455.589,22.7069 459,23.5C 459.333,26.8333 459.667,30.1667 460,33.5C 460.5,34 461,34.5 461.5,35C 464.79,34.6315 468.123,34.6315 471.5,35C 471.833,35.3333 472.167,35.6667 472.5,36C 469.861,40.2586 471.195,42.7586 476.5,43.5C 476.354,45.9424 477.187,46.6091 479,45.5C 480.973,46.6399 482.807,47.9733 484.5,49.5C 483.415,50.7841 482.748,52.2841 482.5,54C 484.392,59.6931 487.392,64.6931 491.5,69C 493.025,70.0086 494.692,70.5086 496.5,70.5C 496.025,73.3126 497.025,75.3126 499.5,76.5C 499.5,86.5 499.5,96.5 499.5,106.5C 497.77,102.816 496.77,98.8158 496.5,94.5C 487.507,96.1537 484.173,92.6537 486.5,84C 485.101,82.9384 484.101,81.605 483.5,80C 484.751,76.9532 484.751,73.9532 483.5,71C 479.326,70.135 475.326,70.635 471.5,72.5C 470.833,72.1667 470.167,71.8333 469.5,71.5C 470.694,69.3766 471.36,67.0432 471.5,64.5C 472.496,57.7614 469.829,55.7614 463.5,58.5C 462.522,58.0233 461.689,57.3567 461,56.5C 460.184,53.0175 459.851,49.6842 460,46.5C 456.27,45.5399 452.437,45.2065 448.5,45.5C 448.216,42.2234 448.549,39.0567 449.5,36C 445.097,34.8651 440.597,34.0318 436,33.5C 435.626,32.5838 435.126,31.7504 434.5,31C 435.274,28.595 435.774,26.095 436,23.5C 437.204,22.1414 438.704,21.1414 440.5,20.5C 439.788,18.9541 438.622,17.9541 437,17.5C 435.341,18.9803 433.508,20.3137 431.5,21.5C 430.914,21.2907 430.414,20.9574 430,20.5C 430.995,16.7751 430.661,13.1084 429,9.5C 428.632,10.91 427.799,11.91 426.5,12.5C 423.421,8.47573 422.088,4.14239 422.5,-0.5 Z"/></g>
<g><path style="opacity:1" fill="#080054" d="M 435.5,-0.5 C 437.5,-0.5 439.5,-0.5 441.5,-0.5C 443.539,3.05238 446.206,6.21904 449.5,9C 453.211,9.17472 456.878,9.67472 460.5,10.5C 461.417,13.7577 461.751,17.091 461.5,20.5C 463.167,20.5 464.833,20.5 466.5,20.5C 466.5,18.8333 466.5,17.1667 466.5,15.5C 467.552,15.3505 468.552,15.5172 469.5,16C 468.62,17.3561 468.286,18.8561 468.5,20.5C 469.5,20.5 470.5,20.5 471.5,20.5C 472.131,24.8038 472.631,29.1371 473,33.5C 476.975,35.6538 480.475,38.3204 483.5,41.5C 483.984,44.6264 485.317,47.2931 487.5,49.5C 486.456,51.7676 486.289,54.1009 487,56.5C 491.94,59.7384 495.44,64.0717 497.5,69.5C 497.957,70.2975 498.624,70.6309 499.5,70.5C 499.5,72.5 499.5,74.5 499.5,76.5C 497.025,75.3126 496.025,73.3126 496.5,70.5C 494.692,70.5086 493.025,70.0086 491.5,69C 487.392,64.6931 484.392,59.6931 482.5,54C 482.748,52.2841 483.415,50.7841 484.5,49.5C 482.807,47.9733 480.973,46.6399 479,45.5C 477.187,46.6091 476.354,45.9424 476.5,43.5C 471.195,42.7586 469.861,40.2586 472.5,36C 472.167,35.6667 471.833,35.3333 471.5,35C 468.123,34.6315 464.79,34.6315 461.5,35C 461,34.5 460.5,34 460,33.5C 459.667,30.1667 459.333,26.8333 459,23.5C 455.589,22.7069 452.089,22.2069 448.5,22C 444.673,18.4177 441.34,14.4177 438.5,10C 442.687,5.3427 441.687,3.8427 435.5,5.5C 435.5,3.5 435.5,1.5 435.5,-0.5 Z"/></g>
<g><path style="opacity:1" fill="#07004e" d="M 441.5,-0.5 C 455.5,-0.5 469.5,-0.5 483.5,-0.5C 485.015,6.48216 486.181,13.4822 487,20.5C 488.011,21.3366 489.178,21.67 490.5,21.5C 490.335,25.1817 490.501,28.8484 491,32.5C 493.95,33.189 496.783,34.189 499.5,35.5C 499.5,47.1667 499.5,58.8333 499.5,70.5C 498.624,70.6309 497.957,70.2975 497.5,69.5C 495.44,64.0717 491.94,59.7384 487,56.5C 486.289,54.1009 486.456,51.7676 487.5,49.5C 485.317,47.2931 483.984,44.6264 483.5,41.5C 480.475,38.3204 476.975,35.6538 473,33.5C 472.631,29.1371 472.131,24.8038 471.5,20.5C 470.5,20.5 469.5,20.5 468.5,20.5C 468.286,18.8561 468.62,17.3561 469.5,16C 468.552,15.5172 467.552,15.3505 466.5,15.5C 466.5,17.1667 466.5,18.8333 466.5,20.5C 464.833,20.5 463.167,20.5 461.5,20.5C 461.751,17.091 461.417,13.7577 460.5,10.5C 456.878,9.67472 453.211,9.17472 449.5,9C 446.206,6.21904 443.539,3.05238 441.5,-0.5 Z"/></g>
<g><path style="opacity:1" fill="#060047" d="M 483.5,-0.5 C 488.833,-0.5 494.167,-0.5 499.5,-0.5C 499.5,11.5 499.5,23.5 499.5,35.5C 496.783,34.189 493.95,33.189 491,32.5C 490.501,28.8484 490.335,25.1817 490.5,21.5C 489.178,21.67 488.011,21.3366 487,20.5C 486.181,13.4822 485.015,6.48216 483.5,-0.5 Z"/></g>
<g><path style="opacity:1" fill="#11008c" d="M 311.5,39.5 C 304.5,39.5 297.5,39.5 290.5,39.5C 290.822,37.2776 290.155,35.4443 288.5,34C 280.833,33.6667 273.167,33.3333 265.5,33C 265.167,32.6667 264.833,32.3333 264.5,32C 265.5,31.1667 266.5,30.3333 267.5,29.5C 262.833,28.8333 258.167,28.1667 253.5,27.5C 251.73,26.1804 251.397,24.6804 252.5,23C 248.579,22.797 244.745,22.297 241,21.5C 239.477,23.6201 237.644,23.9535 235.5,22.5C 232.684,23.0182 230.018,23.8515 227.5,25C 170.501,25.5 113.501,25.6667 56.5,25.5C 56.5,24.1667 56.5,22.8333 56.5,21.5C 44.9191,21.8211 33.4191,21.4878 22,20.5C 21.3333,21.1667 20.6667,21.8333 20,22.5C 19.7537,25.8897 19.2537,29.223 18.5,32.5C 12.2015,33.4963 5.86818,33.8297 -0.5,33.5C -0.5,29.5 -0.5,25.5 -0.5,21.5C 1.82682,21.3354 3.99348,20.6687 6,19.5C 6.13966,16.9568 6.80633,14.6234 8,12.5C 11.245,13.3148 14.4116,13.6482 17.5,13.5C 18.9078,11.4926 20.4078,9.49262 22,7.5C 98.2685,9.44024 174.768,10.1069 251.5,9.5C 251.258,12.681 251.258,15.681 251.5,18.5C 249.019,19.8596 249.352,20.8596 252.5,21.5C 260.105,21.3659 267.771,21.1992 275.5,21C 276.833,20 276.833,19 275.5,18C 277.167,17.6667 278.833,17.3333 280.5,17C 279.5,16.6667 278.5,16.3333 277.5,16C 281.17,15.7208 284.837,15.8875 288.5,16.5C 287.637,20.1616 288.97,22.3282 292.5,23C 292.043,23.414 291.709,23.914 291.5,24.5C 292.833,25.1667 294.167,25.8333 295.5,26.5C 296.889,29.2381 298.889,31.4048 301.5,33C 305.787,33.9597 309.12,36.1264 311.5,39.5 Z"/></g>
<g><path style="opacity:1" fill="#120092" d="M 290.5,39.5 C 281.833,39.5 273.167,39.5 264.5,39.5C 264.714,37.8561 264.38,36.3561 263.5,35C 255.513,35.0221 247.513,35.1888 239.5,35.5C 239.5,33.8333 239.5,32.1667 239.5,30.5C 236.15,30.335 232.817,30.5017 229.5,31C 228.671,32.8161 227.837,34.6494 227,36.5C 223.429,35.2084 219.595,34.5417 215.5,34.5C 211.833,34.8333 208.167,35.1667 204.5,35.5C 203.451,37.1123 201.951,38.1123 200,38.5C 196.872,37.7963 193.706,37.2963 190.5,37C 190.043,36.586 189.709,36.086 189.5,35.5C 141.162,34.2269 92.8284,34.2269 44.5,35.5C 44.6782,38.8788 44.6782,42.0454 44.5,45C 32.5,45.3333 20.5,45.6667 8.5,46C 7.86117,50.1206 7.19451,54.2873 6.5,58.5C 4.21426,59.4196 1.88093,59.4196 -0.5,58.5C -0.5,50.1667 -0.5,41.8333 -0.5,33.5C 5.86818,33.8297 12.2015,33.4963 18.5,32.5C 19.2537,29.223 19.7537,25.8897 20,22.5C 20.6667,21.8333 21.3333,21.1667 22,20.5C 33.4191,21.4878 44.9191,21.8211 56.5,21.5C 56.5,22.8333 56.5,24.1667 56.5,25.5C 113.501,25.6667 170.501,25.5 227.5,25C 230.018,23.8515 232.684,23.0182 235.5,22.5C 237.644,23.9535 239.477,23.6201 241,21.5C 244.745,22.297 248.579,22.797 252.5,23C 251.397,24.6804 251.73,26.1804 253.5,27.5C 258.167,28.1667 262.833,28.8333 267.5,29.5C 266.5,30.3333 265.5,31.1667 264.5,32C 264.833,32.3333 265.167,32.6667 265.5,33C 273.167,33.3333 280.833,33.6667 288.5,34C 290.155,35.4443 290.822,37.2776 290.5,39.5 Z"/></g>
<g><path style="opacity:1" fill="#0e0098" d="M 264.5,39.5 C 197.998,39.1675 131.665,39.5008 65.5,40.5C 64.5416,40.9528 63.7083,41.6195 63,42.5C 62.5002,51.8274 62.3335,61.1607 62.5,70.5C 60.5,70.5 58.5,70.5 56.5,70.5C 56.5,78.5 56.5,86.5 56.5,94.5C 53.091,94.7507 49.7577,94.4173 46.5,93.5C 44.8333,94.5 43.5,95.8333 42.5,97.5C 43.8992,108.813 44.2325,120.146 43.5,131.5C 44.8221,131.33 45.9887,131.663 47,132.5C 47.4117,140.007 47.5783,147.34 47.5,154.5C 46.91,155.799 45.91,156.632 44.5,157C 45.4558,160.394 45.7892,163.894 45.5,167.5C 51.1484,167.311 52.4818,169.478 49.5,174C 49.8333,174.333 50.1667,174.667 50.5,175C 49.4214,175.956 48.2547,176.789 47,177.5C 46.3333,178.5 46.3333,179.5 47,180.5C 49.6987,180.299 52.532,180.632 55.5,181.5C 57.0177,188.518 56.6844,195.351 54.5,202C 56.108,206.616 56.9414,211.449 57,216.5C 58.8148,217.244 60.6481,217.911 62.5,218.5C 62.5,250.833 62.5,283.167 62.5,315.5C 60.5,315.5 58.5,315.5 56.5,315.5C 56.5,303.5 56.5,291.5 56.5,279.5C 53.8431,279.838 51.5098,279.171 49.5,277.5C 48.7382,273.889 48.2382,270.222 48,266.5C 46.8419,266.002 46.0085,265.169 45.5,264C 44.9554,260.813 44.2887,257.646 43.5,254.5C 41.6162,253.885 40.6162,252.552 40.5,250.5C 38.9504,246.91 39.7837,243.91 43,241.5C 43.499,237.179 43.6657,232.846 43.5,228.5C 40.2259,228.372 40.0592,227.039 43,224.5C 43.3333,224.833 43.6667,225.167 44,225.5C 44.6459,214.817 44.4793,204.15 43.5,193.5C 39.8333,193.5 36.1667,193.5 32.5,193.5C 32.2536,187.456 31.5869,181.456 30.5,175.5C 28.3618,173.967 27.6952,172.134 28.5,170C 26.038,168.784 23.3713,168.118 20.5,168C 19.1667,166.667 19.1667,165.333 20.5,164C 19.6871,157.581 19.1871,151.081 19,144.5C 15.2546,143.703 11.4213,143.203 7.5,143C 8.86017,141.062 8.52684,139.396 6.5,138C 8.36452,133.248 6.69785,131.081 1.5,131.5C 1.07699,128.231 1.07699,125.064 1.5,122C 1.16389,120.97 0.497222,120.47 -0.5,120.5C -0.5,99.8333 -0.5,79.1667 -0.5,58.5C 1.88093,59.4196 4.21426,59.4196 6.5,58.5C 7.19451,54.2873 7.86117,50.1206 8.5,46C 20.5,45.6667 32.5,45.3333 44.5,45C 44.6782,42.0454 44.6782,38.8788 44.5,35.5C 92.8284,34.2269 141.162,34.2269 189.5,35.5C 189.709,36.086 190.043,36.586 190.5,37C 193.706,37.2963 196.872,37.7963 200,38.5C 201.951,38.1123 203.451,37.1123 204.5,35.5C 208.167,35.1667 211.833,34.8333 215.5,34.5C 219.595,34.5417 223.429,35.2084 227,36.5C 227.837,34.6494 228.671,32.8161 229.5,31C 232.817,30.5017 236.15,30.335 239.5,30.5C 239.5,32.1667 239.5,33.8333 239.5,35.5C 247.513,35.1888 255.513,35.0221 263.5,35C 264.38,36.3561 264.714,37.8561 264.5,39.5 Z"/></g>
<g><path style="opacity:1" fill="#010001" d="M 65.5,40.5 C 182.834,40.3333 300.167,40.5 417.5,41C 419.037,42.1096 419.703,43.6096 419.5,45.5C 419.5,53.8333 419.5,62.1667 419.5,70.5C 419.5,76.1667 419.5,81.8333 419.5,87.5C 419.5,90.1667 419.5,92.8333 419.5,95.5C 419.5,108.833 419.5,122.167 419.5,135.5C 419.5,137.833 419.5,140.167 419.5,142.5C 419.5,147.5 419.5,152.5 419.5,157.5C 419.5,169.5 419.5,181.5 419.5,193.5C 419.5,234.167 419.5,274.833 419.5,315.5C 419.5,323.5 419.5,331.5 419.5,339.5C 419.5,345.167 419.5,350.833 419.5,356.5C 419.975,359.313 418.975,361.313 416.5,362.5C 359.528,399.99 302.528,437.49 245.5,475C 243.305,476.373 240.971,476.706 238.5,476C 231.472,471.489 224.472,466.989 217.5,462.5C 201.337,451.585 185.004,440.918 168.5,430.5C 133.313,407.314 98.1461,383.981 63,360.5C 62.5026,357.854 62.3359,355.187 62.5,352.5C 62.5,340.167 62.5,327.833 62.5,315.5C 62.5,283.167 62.5,250.833 62.5,218.5C 62.5,169.167 62.5,119.833 62.5,70.5C 62.3335,61.1607 62.5002,51.8274 63,42.5C 63.7083,41.6195 64.5416,40.9528 65.5,40.5 Z"/></g>
<g><path style="opacity:1" fill="#07006d" d="M 419.5,45.5 C 422.193,46.0198 424.193,47.5198 425.5,50C 424.565,52.3806 424.232,54.8806 424.5,57.5C 434.669,56.0053 438.669,60.3387 436.5,70.5C 440.154,70.9422 443.821,71.2756 447.5,71.5C 447.924,75.283 448.09,78.9497 448,82.5C 448.308,83.3081 448.808,83.9747 449.5,84.5C 450.62,83.1666 451.953,82.6666 453.5,83C 454.083,84.6187 454.083,86.452 453.5,88.5C 454.628,89.2621 455.795,89.9288 457,90.5C 457.333,88.5 457.667,86.5 458,84.5C 458.964,90.3049 460.131,95.9716 461.5,101.5C 466.099,101.862 467.099,103.695 464.5,107C 466.833,107.667 469.167,107.667 471.5,107C 473.181,103.534 474.181,103.7 474.5,107.5C 477.807,108.051 481.14,108.384 484.5,108.5C 484.337,110.857 484.503,113.19 485,115.5C 488.332,117.443 488.166,118.61 484.5,119C 486.18,119.347 487.18,120.347 487.5,122C 486.633,125.105 486.299,128.272 486.5,131.5C 490.63,131.249 494.63,131.249 498.5,131.5C 497.833,134.5 497.167,137.5 496.5,140.5C 497.357,141.425 498.357,142.092 499.5,142.5C 499.5,150.833 499.5,159.167 499.5,167.5C 497.351,164.605 497.017,161.438 498.5,158C 495.187,155.952 491.521,154.952 487.5,155C 484.185,151.82 483.851,148.487 486.5,145C 485.01,144.255 484.01,143.088 483.5,141.5C 483.886,138.657 483.886,135.657 483.5,132.5C 479.519,131.979 475.519,131.646 471.5,131.5C 471.5,127.833 471.5,124.167 471.5,120.5C 466.702,120.087 462.035,119.754 457.5,119.5C 462.173,109.993 459.173,105.826 448.5,107C 447.167,103.667 447.167,100.333 448.5,97C 445.299,95.5235 441.632,94.3568 437.5,93.5C 435.086,90.4495 434.253,87.1161 435,83.5C 433.477,81.3799 431.644,81.0465 429.5,82.5C 427.833,81.8333 426.167,81.1667 424.5,80.5C 424.29,77.614 424.123,74.614 424,71.5C 422.644,70.6198 421.144,70.2865 419.5,70.5C 419.5,62.1667 419.5,53.8333 419.5,45.5 Z"/></g>
<g><path style="opacity:1" fill="#fafafa" d="M 141.5,60.5 C 145.853,67.3622 149.853,74.5289 153.5,82C 161.222,82.8412 168.889,84.0078 176.5,85.5C 170.5,90.8333 164.833,96.5 159.5,102.5C 161.718,110.116 162.718,117.783 162.5,125.5C 155.992,121.496 149.158,118.162 142,115.5C 135.149,118.675 128.316,122.008 121.5,125.5C 121.167,125 120.833,124.5 120.5,124C 122.164,116.518 123.331,109.018 124,101.5C 118.5,96 113,90.5 107.5,85C 115.516,83.6658 123.516,82.3324 131.5,81C 135.245,74.3441 138.578,67.5108 141.5,60.5 Z"/></g>
<g><path style="opacity:1" fill="#fafafa" d="M 241.5,60.5 C 245.377,67.2495 249.044,74.2495 252.5,81.5C 260.508,82.6014 268.508,83.7681 276.5,85C 271,90.5 265.5,96 260,101.5C 260.699,108.843 261.866,116.177 263.5,123.5C 263.167,124.167 262.833,124.833 262.5,125.5C 255.428,122.215 248.595,118.548 242,114.5C 235.087,118.039 228.254,121.706 221.5,125.5C 221.637,117.86 222.637,110.193 224.5,102.5C 219.167,96.5 213.5,90.8333 207.5,85.5C 215.447,83.6756 223.447,82.1756 231.5,81C 234.932,74.1976 238.265,67.3643 241.5,60.5 Z"/></g>
<g><path style="opacity:1" fill="#f9f9f9" d="M 341.5,60.5 C 345.392,67.2809 349.059,74.2809 352.5,81.5C 360.508,82.6014 368.508,83.7681 376.5,85C 371,90.5 365.5,96 360,101.5C 361.315,109.41 361.982,117.41 362,125.5C 355.361,121.764 348.528,118.43 341.5,115.5C 334.56,118.304 327.893,121.637 321.5,125.5C 321.167,124.5 320.833,123.5 320.5,122.5C 322.104,115.219 322.938,107.885 323,100.5C 317.985,95.3182 312.819,90.3182 307.5,85.5C 315.509,83.8326 323.509,82.166 331.5,80.5C 334.847,73.8068 338.18,67.1401 341.5,60.5 Z"/></g>
<g><path style="opacity:1" fill="#0e009f" d="M 62.5,70.5 C 62.5,119.833 62.5,169.167 62.5,218.5C 60.6481,217.911 58.8148,217.244 57,216.5C 56.9414,211.449 56.108,206.616 54.5,202C 56.6844,195.351 57.0177,188.518 55.5,181.5C 52.532,180.632 49.6987,180.299 47,180.5C 46.3333,179.5 46.3333,178.5 47,177.5C 48.2547,176.789 49.4214,175.956 50.5,175C 50.1667,174.667 49.8333,174.333 49.5,174C 52.4818,169.478 51.1484,167.311 45.5,167.5C 45.7892,163.894 45.4558,160.394 44.5,157C 45.91,156.632 46.91,155.799 47.5,154.5C 47.5783,147.34 47.4117,140.007 47,132.5C 45.9887,131.663 44.8221,131.33 43.5,131.5C 44.2325,120.146 43.8992,108.813 42.5,97.5C 43.5,95.8333 44.8333,94.5 46.5,93.5C 49.7577,94.4173 53.091,94.7507 56.5,94.5C 56.5,86.5 56.5,78.5 56.5,70.5C 58.5,70.5 60.5,70.5 62.5,70.5 Z"/></g>
<g><path style="opacity:1" fill="#060073" d="M 419.5,70.5 C 421.144,70.2865 422.644,70.6198 424,71.5C 424.123,74.614 424.29,77.614 424.5,80.5C 426.167,81.1667 427.833,81.8333 429.5,82.5C 431.644,81.0465 433.477,81.3799 435,83.5C 434.253,87.1161 435.086,90.4495 437.5,93.5C 441.632,94.3568 445.299,95.5235 448.5,97C 447.167,100.333 447.167,103.667 448.5,107C 459.173,105.826 462.173,109.993 457.5,119.5C 462.035,119.754 466.702,120.087 471.5,120.5C 471.5,124.167 471.5,127.833 471.5,131.5C 475.519,131.646 479.519,131.979 483.5,132.5C 483.886,135.657 483.886,138.657 483.5,141.5C 484.01,143.088 485.01,144.255 486.5,145C 483.851,148.487 484.185,151.82 487.5,155C 491.521,154.952 495.187,155.952 498.5,158C 497.017,161.438 497.351,164.605 499.5,167.5C 499.5,172.167 499.5,176.833 499.5,181.5C 497.222,179.233 495.389,176.567 494,173.5C 492.989,172.663 491.822,172.33 490.5,172.5C 490.719,171.325 490.386,170.325 489.5,169.5C 485.164,168.709 483.33,166.042 484,161.5C 483.282,162.451 482.449,162.617 481.5,162C 480.128,160.758 479.128,159.258 478.5,157.5C 476.659,156.77 474.825,156.103 473,155.5C 472.667,153.167 472.333,150.833 472,148.5C 469.979,149.236 468.479,148.403 467.5,146C 467.833,145.667 468.167,145.333 468.5,145C 465.72,144.448 463.22,143.948 461,143.5C 460.667,139.5 460.333,135.5 460,131.5C 459.64,129.579 458.806,127.912 457.5,126.5C 450.717,119.94 443.717,113.607 436.5,107.5C 434.289,103.218 431.289,99.5509 427.5,96.5C 426.264,95.7542 424.93,95.4208 423.5,95.5C 424.226,91.7396 422.893,89.073 419.5,87.5C 419.5,81.8333 419.5,76.1667 419.5,70.5 Z"/></g>
<g><path style="opacity:1" fill="#06007a" d="M 419.5,87.5 C 422.893,89.073 424.226,91.7396 423.5,95.5C 424.93,95.4208 426.264,95.7542 427.5,96.5C 431.289,99.5509 434.289,103.218 436.5,107.5C 443.717,113.607 450.717,119.94 457.5,126.5C 458.806,127.912 459.64,129.579 460,131.5C 460.333,135.5 460.667,139.5 461,143.5C 463.22,143.948 465.72,144.448 468.5,145C 468.167,145.333 467.833,145.667 467.5,146C 468.479,148.403 469.979,149.236 472,148.5C 472.333,150.833 472.667,153.167 473,155.5C 474.825,156.103 476.659,156.77 478.5,157.5C 479.128,159.258 480.128,160.758 481.5,162C 482.449,162.617 483.282,162.451 484,161.5C 483.33,166.042 485.164,168.709 489.5,169.5C 490.386,170.325 490.719,171.325 490.5,172.5C 491.822,172.33 492.989,172.663 494,173.5C 495.389,176.567 497.222,179.233 499.5,181.5C 499.5,184.167 499.5,186.833 499.5,189.5C 498.279,188.972 497.113,188.305 496,187.5C 497.577,182.73 495.744,180.563 490.5,181C 490.183,177.859 488.183,176.025 484.5,175.5C 484.5,173.5 484.5,171.5 484.5,169.5C 480.423,169.983 478.09,168.316 477.5,164.5C 476.178,164.67 475.011,164.337 474,163.5C 473.535,162.069 472.701,160.903 471.5,160C 472.833,159 472.833,158 471.5,157C 469.19,156.503 466.857,156.337 464.5,156.5C 464.5,155.167 464.5,153.833 464.5,152.5C 463.167,152.5 461.833,152.5 460.5,152.5C 460.998,148.781 460.164,145.447 458,142.5C 454.943,143.451 451.777,143.784 448.5,143.5C 449.596,138.624 447.929,136.957 443.5,138.5C 442.67,132.862 442.17,127.196 442,121.5C 440.581,120.54 439.081,119.707 437.5,119C 438.624,118.751 439.624,118.251 440.5,117.5C 440.333,117.167 440.167,116.833 440,116.5C 437.22,115.862 435.053,114.362 433.5,112C 435.158,111.275 435.658,110.108 435,108.5C 432.413,107.304 429.58,107.304 426.5,108.5C 425.671,104.436 424.671,100.436 423.5,96.5C 422.041,96.5674 420.708,96.2341 419.5,95.5C 419.5,92.8333 419.5,90.1667 419.5,87.5 Z"/></g>
<g><path style="opacity:1" fill="#fe3030" d="M 119.5,146.5 C 119.5,227.167 119.5,307.833 119.5,388.5C 103.105,378.216 86.9381,367.55 71,356.5C 70.5,286.501 70.3333,216.501 70.5,146.5C 86.8333,146.5 103.167,146.5 119.5,146.5 Z"/></g>
<g><path style="opacity:1" fill="#fefefe" d="M 163.5,417.5 C 149.167,408.167 134.833,398.833 120.5,389.5C 120.5,308.833 120.5,228.167 120.5,147.5C 135.167,147.5 149.833,147.5 164.5,147.5C 164.833,237.668 164.499,327.668 163.5,417.5 Z"/></g>
<g><path style="opacity:1" fill="#f3aaa9" d="M 119.5,146.5 C 134.833,146.5 150.167,146.5 165.5,146.5C 165.5,146.833 165.5,147.167 165.5,147.5C 165.5,237.833 165.5,328.167 165.5,418.5C 164.508,418.672 163.842,418.338 163.5,417.5C 164.499,327.668 164.833,237.668 164.5,147.5C 149.833,147.5 135.167,147.5 120.5,147.5C 120.5,228.167 120.5,308.833 120.5,389.5C 119.833,389.5 119.5,389.167 119.5,388.5C 119.5,307.833 119.5,227.167 119.5,146.5 Z"/></g>
<g><path style="opacity:1" fill="#fe3030" d="M 165.5,147.5 C 183.167,147.5 200.833,147.5 218.5,147.5C 218.5,249.5 218.5,351.5 218.5,453.5C 200.557,442.219 182.89,430.552 165.5,418.5C 165.5,328.167 165.5,237.833 165.5,147.5 Z"/></g>
<g><path style="opacity:1" fill="#ed7a79" d="M 165.5,147.5 C 165.5,147.167 165.5,146.833 165.5,146.5C 183.5,146.5 201.5,146.5 219.5,146.5C 219.5,146.833 219.5,147.167 219.5,147.5C 219.5,249.833 219.5,352.167 219.5,454.5C 218.833,454.5 218.5,454.167 218.5,453.5C 218.5,351.5 218.5,249.5 218.5,147.5C 200.833,147.5 183.167,147.5 165.5,147.5 Z"/></g>
<g><path style="opacity:1" fill="#fefefe" d="M 219.5,147.5 C 234.167,147.5 248.833,147.5 263.5,147.5C 263.5,249.5 263.5,351.5 263.5,453.5C 256.166,458.652 248.666,463.652 241,468.5C 233.691,464.019 226.524,459.353 219.5,454.5C 219.5,352.167 219.5,249.833 219.5,147.5 Z"/></g>
<g><path style="opacity:1" fill="#efc4c4" d="M 219.5,147.5 C 219.5,147.167 219.5,146.833 219.5,146.5C 234.5,146.5 249.5,146.5 264.5,146.5C 264.5,146.833 264.5,147.167 264.5,147.5C 264.5,249.5 264.5,351.5 264.5,453.5C 264.167,453.5 263.833,453.5 263.5,453.5C 263.5,351.5 263.5,249.5 263.5,147.5C 248.833,147.5 234.167,147.5 219.5,147.5 Z"/></g>
<g><path style="opacity:1" fill="#fe3030" d="M 264.5,147.5 C 281.5,147.5 298.5,147.5 315.5,147.5C 315.5,238.167 315.5,328.833 315.5,419.5C 298.523,430.8 281.523,442.133 264.5,453.5C 264.5,351.5 264.5,249.5 264.5,147.5 Z"/></g>
<g><path style="opacity:1" fill="#ec4747" d="M 264.5,147.5 C 264.5,147.167 264.5,146.833 264.5,146.5C 281.833,146.5 299.167,146.5 316.5,146.5C 316.5,237.167 316.5,327.833 316.5,418.5C 316.5,419.167 316.167,419.5 315.5,419.5C 315.5,328.833 315.5,238.167 315.5,147.5C 298.5,147.5 281.5,147.5 264.5,147.5 Z"/></g>
<g><path style="opacity:1" fill="#fefefe" d="M 316.5,146.5 C 331.5,146.5 346.5,146.5 361.5,146.5C 361.5,227.5 361.5,308.5 361.5,389.5C 346.642,399.427 331.642,409.093 316.5,418.5C 316.5,327.833 316.5,237.167 316.5,146.5 Z"/></g>
<g><path style="opacity:1" fill="#fe3130" d="M 361.5,146.5 C 378.167,146.5 394.833,146.5 411.5,146.5C 411.667,216.501 411.5,286.501 411,356.5C 394.618,367.722 378.118,378.722 361.5,389.5C 361.5,308.5 361.5,227.5 361.5,146.5 Z"/></g>
<g><path style="opacity:1" fill="#040086" d="M 419.5,135.5 C 420.833,135.5 422.167,135.5 423.5,135.5C 423.5,137.833 423.5,140.167 423.5,142.5C 425.827,142.665 427.993,143.331 430,144.5C 432.224,147.728 434.391,151.061 436.5,154.5C 440.404,156.079 443.737,158.412 446.5,161.5C 447.115,164.436 448.282,167.103 450,169.5C 452.76,167.297 455.76,166.964 459,168.5C 458.771,173.46 458.271,178.46 457.5,183.5C 462.003,181.722 466.669,181.222 471.5,182C 472.127,183.738 472.46,185.571 472.5,187.5C 472.712,190.011 472.045,192.178 470.5,194C 471.025,194.692 471.692,195.192 472.5,195.5C 474.179,193.896 476.179,193.229 478.5,193.5C 478.5,196.833 478.5,200.167 478.5,203.5C 480.903,203.393 482.736,204.393 484,206.5C 484.226,209.095 484.726,211.595 485.5,214C 484.738,218.365 484.404,222.698 484.5,227C 486.56,229.643 487.226,232.476 486.5,235.5C 486.434,240.785 488.768,242.452 493.5,240.5C 494.647,240.818 495.481,241.484 496,242.5C 496.667,250.167 496.667,257.833 496,265.5C 495.653,267.18 494.653,268.18 493,268.5C 491.234,267.767 489.401,267.433 487.5,267.5C 487.055,270.28 487.055,272.947 487.5,275.5C 486.966,277.614 485.966,279.448 484.5,281C 485.649,282.604 485.649,284.27 484.5,286C 484.645,286.772 484.978,287.439 485.5,288C 487.5,288.333 489.5,288.667 491.5,289C 489.19,289.497 486.857,289.663 484.5,289.5C 484.66,291.199 484.494,292.866 484,294.5C 482.488,295.257 481.154,296.257 480,297.5C 479.205,299.901 478.038,302.068 476.5,304C 475.551,304.617 474.718,304.451 474,303.5C 473.308,304.025 472.808,304.692 472.5,305.5C 473.417,308.758 473.751,312.091 473.5,315.5C 471.856,315.286 470.356,315.62 469,316.5C 468.144,318.868 467.31,321.202 466.5,323.5C 469.95,322.756 471.616,324.09 471.5,327.5C 467.742,327.093 464.076,327.093 460.5,327.5C 459.803,331.377 459.136,335.21 458.5,339C 455.62,339.684 452.787,339.517 450,338.5C 445.632,339.986 441.132,340.819 436.5,341C 435.513,344.808 433.846,348.308 431.5,351.5C 433.545,356.927 432.545,358.427 428.5,356C 431.701,352.614 431.035,351.281 426.5,352C 424.325,355.867 423.325,360.033 423.5,364.5C 420.612,365.01 418.279,364.344 416.5,362.5C 418.975,361.313 419.975,359.313 419.5,356.5C 422.077,352.727 424.91,349.06 428,345.5C 428.483,344.552 428.649,343.552 428.5,342.5C 429.873,342.657 431.207,342.49 432.5,342C 426.238,338.517 426.738,335.35 434,332.5C 434.752,328.597 436.919,327.597 440.5,329.5C 443.382,328.228 446.215,326.895 449,325.5C 448.683,322.254 448.517,318.92 448.5,315.5C 453.167,315.5 457.833,315.5 462.5,315.5C 462.187,312.428 462.854,309.595 464.5,307C 464.095,306.055 463.428,305.388 462.5,305C 464.808,303.133 467.475,302.133 470.5,302C 471.717,300.352 472.55,298.519 473,296.5C 475.255,295.958 477.088,294.791 478.5,293C 477.667,292.167 476.833,291.333 476,290.5C 475.788,287.242 475.288,284.076 474.5,281C 477.478,279.118 480.645,277.618 484,276.5C 483.37,272.551 483.537,268.551 484.5,264.5C 485.833,264.5 487.167,264.5 488.5,264.5C 487.167,257.5 487.167,250.5 488.5,243.5C 487.167,243.5 485.833,243.5 484.5,243.5C 483.167,239.5 483.167,235.5 484.5,231.5C 481.426,231.127 478.426,230.461 475.5,229.5C 475.5,221.833 475.5,214.167 475.5,206.5C 473.179,205.375 470.846,205.208 468.5,206C 467.475,203.929 466.642,201.762 466,199.5C 460.052,194.993 454.386,189.993 449,184.5C 447.915,179.563 447.248,174.563 447,169.5C 442.006,166.005 437.839,161.672 434.5,156.5C 433.28,155.289 432.113,155.289 431,156.5C 427.814,153.448 425.647,149.782 424.5,145.5C 423.095,144.006 421.429,143.006 419.5,142.5C 419.5,140.167 419.5,137.833 419.5,135.5 Z"/></g>
<g><path style="opacity:1" fill="#08008c" d="M 62.5,352.5 C 62.3359,355.187 62.5026,357.854 63,360.5C 98.1461,383.981 133.313,407.314 168.5,430.5C 165.484,434.565 161.484,435.565 156.5,433.5C 154.889,434.32 154.222,435.654 154.5,437.5C 153.022,437.762 151.689,437.429 150.5,436.5C 148.394,435.103 146.727,433.27 145.5,431C 140.698,430.676 136.031,431.176 131.5,432.5C 130.697,422.64 125.53,419.307 116,422.5C 112.395,419.468 108.895,416.301 105.5,413C 103.913,412.138 102.246,411.471 100.5,411C 101.833,410 101.833,409 100.5,408C 98.5,407.667 96.5,407.333 94.5,407C 93.1667,405.667 93.1667,404.333 94.5,403C 93.8333,402.333 93.1667,401.667 92.5,401C 88.8333,400.667 85.1667,400.333 81.5,400C 80.8095,398.933 80.3095,397.766 80,396.5C 76.609,393.578 73.109,390.745 69.5,388C 68.1667,386 66.8333,384 65.5,382C 62.2979,380.256 59.2979,378.423 56.5,376.5C 55.2923,371.622 52.2923,368.289 47.5,366.5C 52.3611,365.872 53.8611,363.539 52,359.5C 49.1667,358 47,355.833 45.5,353C 42.743,352.122 40.0763,351.122 37.5,350C 38.6168,346.927 38.7835,343.76 38,340.5C 37.6667,342.167 37.3333,343.833 37,345.5C 36.1042,342.918 34.7708,340.584 33,338.5C 32.6667,335.167 32.3333,331.833 32,328.5C 30.2111,326.771 28.0444,326.104 25.5,326.5C 24.6982,319.572 24.6982,312.738 25.5,306C 22.9643,302.326 21.7976,298.159 22,293.5C 19.3817,289.603 18.8817,285.436 20.5,281C 19.6667,280.167 18.8333,279.333 18,278.5C 15.2899,279.559 13.4565,278.559 12.5,275.5C 12.7093,274.914 13.0426,274.414 13.5,274C 12.7137,270.564 12.0471,267.064 11.5,263.5C 13.1251,260.765 13.7918,257.765 13.5,254.5C 11.2075,254.756 9.04083,254.423 7,253.5C 5.58521,248.182 6.91854,243.848 11,240.5C 12.2576,235.271 10.5909,231.271 6,228.5C 5.66667,225.833 5.33333,223.167 5,220.5C 3.84153,218.509 2.34153,216.842 0.5,215.5C 1.12534,212.388 1.45867,209.221 1.5,206C 1.48089,202.748 0.814221,199.915 -0.5,197.5C -0.5,191.833 -0.5,186.167 -0.5,180.5C 1.48616,181.761 3.31949,181.428 5,179.5C 5.66667,180.167 6.33333,180.833 7,181.5C 7.20304,185.421 7.70304,189.255 8.5,193C 11.8168,193.498 15.1501,193.665 18.5,193.5C 18.7265,200.863 18.3932,208.196 17.5,215.5C 17.8747,217.916 18.5413,220.25 19.5,222.5C 19.3201,223.554 18.9867,224.554 18.5,225.5C 19.0157,232.573 20.0157,239.573 21.5,246.5C 20.6072,249.084 20.2739,251.751 20.5,254.5C 22.5,254.5 24.5,254.5 26.5,254.5C 25.1516,261.01 27.3182,265.677 33,268.5C 33.1667,270 33.3333,271.5 33.5,273C 32.2409,278.295 31.2409,283.628 30.5,289C 31.6159,297.789 32.2826,306.622 32.5,315.5C 36.1667,315.5 39.8333,315.5 43.5,315.5C 43.5472,323.852 44.2139,331.852 45.5,339.5C 49.1073,340.489 52.774,340.823 56.5,340.5C 56.5,344.167 56.5,347.833 56.5,351.5C 58.6208,351.325 60.6208,351.659 62.5,352.5 Z"/></g>
<g><path style="opacity:1" fill="#050091" d="M 419.5,157.5 C 422.272,157.627 423.605,159.127 423.5,162C 421.5,165.333 422.167,168 425.5,170C 424.213,173.125 424.213,176.291 425.5,179.5C 426.086,179.291 426.586,178.957 427,178.5C 429.642,181.029 432.808,182.029 436.5,181.5C 436.335,185.182 436.501,188.848 437,192.5C 440.73,193.46 444.563,193.793 448.5,193.5C 448.483,196.92 448.317,200.254 448,203.5C 448.5,204 449,204.5 449.5,205C 452.817,205.498 456.15,205.665 459.5,205.5C 459.789,209.106 459.456,212.606 458.5,216C 460.357,217.182 461.357,218.849 461.5,221C 461.158,227.443 461.158,233.943 461.5,240.5C 464.336,241.776 467.336,242.442 470.5,242.5C 470.831,250.196 470.497,257.862 469.5,265.5C 467.958,266.747 466.458,266.747 465,265.5C 464.29,266.973 463.124,267.64 461.5,267.5C 461.532,272.107 460.866,276.607 459.5,281C 459.775,283.931 460.441,286.765 461.5,289.5C 459.817,293.236 458.984,297.236 459,301.5C 455.534,302.202 452.034,302.869 448.5,303.5C 447.509,307.445 447.176,311.445 447.5,315.5C 443.5,315.5 439.5,315.5 435.5,315.5C 435.221,318.118 434.554,320.618 433.5,323C 436.167,324.333 436.167,325.667 433.5,327C 431.5,327.333 429.5,327.667 427.5,328C 428.641,328.741 428.641,329.575 427.5,330.5C 426.311,331.429 424.978,331.762 423.5,331.5C 423.5,334.167 423.5,336.833 423.5,339.5C 422.167,339.5 420.833,339.5 419.5,339.5C 419.5,331.5 419.5,323.5 419.5,315.5C 420.906,313.162 422.239,310.662 423.5,308C 422.328,307.581 421.328,306.915 420.5,306C 423.125,304.837 425.791,303.67 428.5,302.5C 429.081,299.625 430.081,296.958 431.5,294.5C 430.113,290.926 431.446,289.259 435.5,289.5C 435.805,284.238 435.471,279.072 434.5,274C 436.074,272.174 436.907,270.007 437,267.5C 438.751,266.826 440.417,266.493 442,266.5C 442.2,259.117 442.7,251.784 443.5,244.5C 442.19,241.439 439.857,240.106 436.5,240.5C 436.666,234.824 436.499,229.157 436,223.5C 435.626,222.584 435.126,221.75 434.5,221C 434.833,218.667 435.167,216.333 435.5,214C 434.045,211.984 432.045,211.151 429.5,211.5C 429.261,209.533 429.594,207.699 430.5,206C 428.19,205.503 425.857,205.337 423.5,205.5C 423.5,201.5 423.5,197.5 423.5,193.5C 422.167,193.5 420.833,193.5 419.5,193.5C 419.5,181.5 419.5,169.5 419.5,157.5 Z"/></g>
<g><path style="opacity:1" fill="#04008c" d="M 419.5,142.5 C 421.429,143.006 423.095,144.006 424.5,145.5C 425.647,149.782 427.814,153.448 431,156.5C 432.113,155.289 433.28,155.289 434.5,156.5C 437.839,161.672 442.006,166.005 447,169.5C 447.248,174.563 447.915,179.563 449,184.5C 454.386,189.993 460.052,194.993 466,199.5C 466.642,201.762 467.475,203.929 468.5,206C 470.846,205.208 473.179,205.375 475.5,206.5C 475.5,214.167 475.5,221.833 475.5,229.5C 478.426,230.461 481.426,231.127 484.5,231.5C 483.167,235.5 483.167,239.5 484.5,243.5C 485.833,243.5 487.167,243.5 488.5,243.5C 487.167,250.5 487.167,257.5 488.5,264.5C 487.167,264.5 485.833,264.5 484.5,264.5C 483.537,268.551 483.37,272.551 484,276.5C 480.645,277.618 477.478,279.118 474.5,281C 475.288,284.076 475.788,287.242 476,290.5C 476.833,291.333 477.667,292.167 478.5,293C 477.088,294.791 475.255,295.958 473,296.5C 472.55,298.519 471.717,300.352 470.5,302C 467.475,302.133 464.808,303.133 462.5,305C 463.428,305.388 464.095,306.055 464.5,307C 462.854,309.595 462.187,312.428 462.5,315.5C 457.833,315.5 453.167,315.5 448.5,315.5C 448.517,318.92 448.683,322.254 449,325.5C 446.215,326.895 443.382,328.228 440.5,329.5C 436.919,327.597 434.752,328.597 434,332.5C 426.738,335.35 426.238,338.517 432.5,342C 431.207,342.49 429.873,342.657 428.5,342.5C 428.649,343.552 428.483,344.552 428,345.5C 424.91,349.06 422.077,352.727 419.5,356.5C 419.5,350.833 419.5,345.167 419.5,339.5C 420.833,339.5 422.167,339.5 423.5,339.5C 423.5,336.833 423.5,334.167 423.5,331.5C 424.978,331.762 426.311,331.429 427.5,330.5C 428.641,329.575 428.641,328.741 427.5,328C 429.5,327.667 431.5,327.333 433.5,327C 436.167,325.667 436.167,324.333 433.5,323C 434.554,320.618 435.221,318.118 435.5,315.5C 439.5,315.5 443.5,315.5 447.5,315.5C 447.176,311.445 447.509,307.445 448.5,303.5C 452.034,302.869 455.534,302.202 459,301.5C 458.984,297.236 459.817,293.236 461.5,289.5C 460.441,286.765 459.775,283.931 459.5,281C 460.866,276.607 461.532,272.107 461.5,267.5C 463.124,267.64 464.29,266.973 465,265.5C 466.458,266.747 467.958,266.747 469.5,265.5C 470.497,257.862 470.831,250.196 470.5,242.5C 467.336,242.442 464.336,241.776 461.5,240.5C 461.158,233.943 461.158,227.443 461.5,221C 461.357,218.849 460.357,217.182 458.5,216C 459.456,212.606 459.789,209.106 459.5,205.5C 456.15,205.665 452.817,205.498 449.5,205C 449,204.5 448.5,204 448,203.5C 448.317,200.254 448.483,196.92 448.5,193.5C 444.563,193.793 440.73,193.46 437,192.5C 436.501,188.848 436.335,185.182 436.5,181.5C 432.808,182.029 429.642,181.029 427,178.5C 426.586,178.957 426.086,179.291 425.5,179.5C 424.213,176.291 424.213,173.125 425.5,170C 422.167,168 421.5,165.333 423.5,162C 423.605,159.127 422.272,157.627 419.5,157.5C 419.5,152.5 419.5,147.5 419.5,142.5 Z"/></g>
<g><path style="opacity:1" fill="#050098" d="M 419.5,193.5 C 420.833,193.5 422.167,193.5 423.5,193.5C 423.5,197.5 423.5,201.5 423.5,205.5C 425.857,205.337 428.19,205.503 430.5,206C 429.594,207.699 429.261,209.533 429.5,211.5C 432.045,211.151 434.045,211.984 435.5,214C 435.167,216.333 434.833,218.667 434.5,221C 435.126,221.75 435.626,222.584 436,223.5C 436.499,229.157 436.666,234.824 436.5,240.5C 439.857,240.106 442.19,241.439 443.5,244.5C 442.7,251.784 442.2,259.117 442,266.5C 440.417,266.493 438.751,266.826 437,267.5C 436.907,270.007 436.074,272.174 434.5,274C 435.471,279.072 435.805,284.238 435.5,289.5C 431.446,289.259 430.113,290.926 431.5,294.5C 430.081,296.958 429.081,299.625 428.5,302.5C 425.791,303.67 423.125,304.837 420.5,306C 421.328,306.915 422.328,307.581 423.5,308C 422.239,310.662 420.906,313.162 419.5,315.5C 419.5,274.833 419.5,234.167 419.5,193.5 Z"/></g>
<g><path style="opacity:1" fill="#070092" d="M -0.5,120.5 C 0.497222,120.47 1.16389,120.97 1.5,122C 1.07699,125.064 1.07699,128.231 1.5,131.5C 6.69785,131.081 8.36452,133.248 6.5,138C 8.52684,139.396 8.86017,141.062 7.5,143C 11.4213,143.203 15.2546,143.703 19,144.5C 19.1871,151.081 19.6871,157.581 20.5,164C 19.1667,165.333 19.1667,166.667 20.5,168C 23.3713,168.118 26.038,168.784 28.5,170C 27.6952,172.134 28.3618,173.967 30.5,175.5C 31.5869,181.456 32.2536,187.456 32.5,193.5C 36.1667,193.5 39.8333,193.5 43.5,193.5C 44.4793,204.15 44.6459,214.817 44,225.5C 43.6667,225.167 43.3333,224.833 43,224.5C 40.0592,227.039 40.2259,228.372 43.5,228.5C 43.6657,232.846 43.499,237.179 43,241.5C 39.7837,243.91 38.9504,246.91 40.5,250.5C 40.6162,252.552 41.6162,253.885 43.5,254.5C 44.2887,257.646 44.9554,260.813 45.5,264C 46.0085,265.169 46.8419,266.002 48,266.5C 48.2382,270.222 48.7382,273.889 49.5,277.5C 51.5098,279.171 53.8431,279.838 56.5,279.5C 56.5,291.5 56.5,303.5 56.5,315.5C 58.5,315.5 60.5,315.5 62.5,315.5C 62.5,327.833 62.5,340.167 62.5,352.5C 60.6208,351.659 58.6208,351.325 56.5,351.5C 56.5,347.833 56.5,344.167 56.5,340.5C 52.774,340.823 49.1073,340.489 45.5,339.5C 44.2139,331.852 43.5472,323.852 43.5,315.5C 39.8333,315.5 36.1667,315.5 32.5,315.5C 32.2826,306.622 31.6159,297.789 30.5,289C 31.2409,283.628 32.2409,278.295 33.5,273C 33.3333,271.5 33.1667,270 33,268.5C 27.3182,265.677 25.1516,261.01 26.5,254.5C 24.5,254.5 22.5,254.5 20.5,254.5C 20.2739,251.751 20.6072,249.084 21.5,246.5C 20.0157,239.573 19.0157,232.573 18.5,225.5C 18.9867,224.554 19.3201,223.554 19.5,222.5C 18.5413,220.25 17.8747,217.916 17.5,215.5C 18.3932,208.196 18.7265,200.863 18.5,193.5C 15.1501,193.665 11.8168,193.498 8.5,193C 7.70304,189.255 7.20304,185.421 7,181.5C 6.33333,180.833 5.66667,180.167 5,179.5C 3.31949,181.428 1.48616,181.761 -0.5,180.5C -0.5,160.5 -0.5,140.5 -0.5,120.5 Z"/></g>
<g><path style="opacity:1" fill="#090085" d="M -0.5,197.5 C 0.814221,199.915 1.48089,202.748 1.5,206C 1.45867,209.221 1.12534,212.388 0.5,215.5C 2.34153,216.842 3.84153,218.509 5,220.5C 5.33333,223.167 5.66667,225.833 6,228.5C 10.5909,231.271 12.2576,235.271 11,240.5C 6.91854,243.848 5.58521,248.182 7,253.5C 9.04083,254.423 11.2075,254.756 13.5,254.5C 13.7918,257.765 13.1251,260.765 11.5,263.5C 12.0471,267.064 12.7137,270.564 13.5,274C 13.0426,274.414 12.7093,274.914 12.5,275.5C 13.4565,278.559 15.2899,279.559 18,278.5C 18.8333,279.333 19.6667,280.167 20.5,281C 18.8817,285.436 19.3817,289.603 22,293.5C 21.7976,298.159 22.9643,302.326 25.5,306C 24.6982,312.738 24.6982,319.572 25.5,326.5C 28.0444,326.104 30.2111,326.771 32,328.5C 32.3333,331.833 32.6667,335.167 33,338.5C 34.7708,340.584 36.1042,342.918 37,345.5C 37.3333,343.833 37.6667,342.167 38,340.5C 38.7835,343.76 38.6168,346.927 37.5,350C 40.0763,351.122 42.743,352.122 45.5,353C 47,355.833 49.1667,358 52,359.5C 53.8611,363.539 52.3611,365.872 47.5,366.5C 52.2923,368.289 55.2923,371.622 56.5,376.5C 59.2979,378.423 62.2979,380.256 65.5,382C 66.8333,384 68.1667,386 69.5,388C 73.109,390.745 76.609,393.578 80,396.5C 80.3095,397.766 80.8095,398.933 81.5,400C 85.1667,400.333 88.8333,400.667 92.5,401C 93.1667,401.667 93.8333,402.333 94.5,403C 93.1667,404.333 93.1667,405.667 94.5,407C 96.5,407.333 98.5,407.667 100.5,408C 101.833,409 101.833,410 100.5,411C 102.246,411.471 103.913,412.138 105.5,413C 108.895,416.301 112.395,419.468 116,422.5C 125.53,419.307 130.697,422.64 131.5,432.5C 136.031,431.176 140.698,430.676 145.5,431C 146.727,433.27 148.394,435.103 150.5,436.5C 151.689,437.429 153.022,437.762 154.5,437.5C 154.222,435.654 154.889,434.32 156.5,433.5C 161.484,435.565 165.484,434.565 168.5,430.5C 185.004,440.918 201.337,451.585 217.5,462.5C 204.677,463.495 191.677,463.829 178.5,463.5C 178.5,459.167 178.5,454.833 178.5,450.5C 166.829,450.667 155.162,450.5 143.5,450C 141.597,448.172 139.764,448.339 138,450.5C 136.951,449.483 135.784,449.316 134.5,450C 135.669,452.007 136.335,454.173 136.5,456.5C 134.064,456.683 131.897,456.016 130,454.5C 129.907,448.887 129.74,443.22 129.5,437.5C 121.66,437.692 113.66,437.692 105.5,437.5C 104.964,434.335 105.797,431.669 108,429.5C 107.923,430.738 108.089,431.738 108.5,432.5C 109.7,431.469 111.034,430.635 112.5,430C 111.176,426.572 109.343,423.405 107,420.5C 105.108,421.617 104.275,423.284 104.5,425.5C 100.5,425.5 96.5,425.5 92.5,425.5C 92.6655,421.486 92.4988,417.486 92,413.5C 88.2368,413.967 84.4034,413.467 80.5,412C 80.1667,411.667 79.8333,411.333 79.5,411C 80.1667,408.333 80.8333,405.667 81.5,403C 76.8125,402.08 73.3125,399.58 71,395.5C 69.117,396.653 68.2837,398.319 68.5,400.5C 64.577,399.757 60.577,399.757 56.5,400.5C 56.5,396.5 56.5,392.5 56.5,388.5C 52.681,388.249 49.0143,388.082 45.5,388C 44.9731,384.397 44.6398,380.564 44.5,376.5C 45.8333,376.5 47.1667,376.5 48.5,376.5C 47.905,372.564 45.905,370.564 42.5,370.5C 44.5846,368.164 44.7512,365.831 43,363.5C 41.9383,364.097 40.7716,364.43 39.5,364.5C 37.1591,363.818 34.8257,363.151 32.5,362.5C 32.3317,355.148 31.8317,347.815 31,340.5C 27.9701,340.382 24.8035,340.215 21.5,340C 21,339.5 20.5,339 20,338.5C 20.1243,330.921 19.9576,323.255 19.5,315.5C 15.8333,315.5 12.1667,315.5 8.5,315.5C 8.17887,303.919 8.51221,292.419 9.5,281C 4.06896,278.083 1.4023,273.583 1.5,267.5C 6.53881,267.549 6.70547,266.882 2,265.5C 1.32924,266.252 0.495904,266.586 -0.5,266.5C -0.5,243.5 -0.5,220.5 -0.5,197.5 Z"/></g>
<g><path style="opacity:1" fill="#090080" d="M 419.5,95.5 C 420.708,96.2341 422.041,96.5674 423.5,96.5C 424.671,100.436 425.671,104.436 426.5,108.5C 429.58,107.304 432.413,107.304 435,108.5C 435.658,110.108 435.158,111.275 433.5,112C 435.053,114.362 437.22,115.862 440,116.5C 440.167,116.833 440.333,117.167 440.5,117.5C 439.624,118.251 438.624,118.751 437.5,119C 439.081,119.707 440.581,120.54 442,121.5C 442.17,127.196 442.67,132.862 443.5,138.5C 447.929,136.957 449.596,138.624 448.5,143.5C 451.777,143.784 454.943,143.451 458,142.5C 460.164,145.447 460.998,148.781 460.5,152.5C 461.833,152.5 463.167,152.5 464.5,152.5C 464.5,153.833 464.5,155.167 464.5,156.5C 466.857,156.337 469.19,156.503 471.5,157C 472.833,158 472.833,159 471.5,160C 472.701,160.903 473.535,162.069 474,163.5C 475.011,164.337 476.178,164.67 477.5,164.5C 478.09,168.316 480.423,169.983 484.5,169.5C 484.5,171.5 484.5,173.5 484.5,175.5C 488.183,176.025 490.183,177.859 490.5,181C 495.744,180.563 497.577,182.73 496,187.5C 497.113,188.305 498.279,188.972 499.5,189.5C 499.5,227.833 499.5,266.167 499.5,304.5C 497.918,307.876 497.251,311.542 497.5,315.5C 493.833,315.5 490.167,315.5 486.5,315.5C 486.33,319.05 486.163,322.383 486,325.5C 484.833,326.667 483.667,327.833 482.5,329C 479.504,328.232 476.837,328.399 474.5,329.5C 473.676,332.785 473.176,336.118 473,339.5C 471.211,341.229 469.044,341.896 466.5,341.5C 466.5,344.167 466.5,346.833 466.5,349.5C 468.199,349.34 469.866,349.506 471.5,350C 467.643,350.761 463.977,351.261 460.5,351.5C 458.914,353.173 458.247,355.173 458.5,357.5C 456.712,357.215 455.045,357.548 453.5,358.5C 454.584,362.311 453.084,364.645 449,365.5C 448.517,366.448 448.351,367.448 448.5,368.5C 442.547,368.372 442.213,369.039 447.5,370.5C 447.67,371.822 447.337,372.989 446.5,374C 440.544,374.118 434.878,375.285 429.5,377.5C 427.005,381.307 425.005,385.307 423.5,389.5C 420.438,390.666 417.438,392.166 414.5,394C 411.627,400.129 406.961,402.129 400.5,400C 399.21,402.81 398.043,405.643 397,408.5C 394.281,407.556 391.448,407.223 388.5,407.5C 388.518,411.637 386.518,414.137 382.5,415C 379.878,418.957 376.878,422.624 373.5,426C 369.848,426.499 366.182,426.665 362.5,426.5C 361.627,430.121 360.961,433.788 360.5,437.5C 359.127,437.343 357.793,437.51 356.5,438C 354.781,440.719 352.447,442.719 349.5,444C 349.507,445.583 349.174,447.249 348.5,449C 344.833,449.333 341.167,449.667 337.5,450C 337.894,453.801 337.227,457.634 335.5,461.5C 334.549,460.674 333.549,460.508 332.5,461C 330.57,463.258 329.07,465.758 328,468.5C 326.956,467.377 326.29,466.044 326,464.5C 324.667,463.833 323.333,463.167 322,462.5C 318.897,466.607 315.397,470.44 311.5,474C 309.833,474.333 308.167,474.667 306.5,475C 305.663,476.011 305.33,477.178 305.5,478.5C 302.292,476.973 298.792,475.973 295,475.5C 293.167,475.833 291.333,476.167 289.5,476.5C 290.036,480.01 289.37,483.343 287.5,486.5C 243.232,487.573 199.232,487.573 155.5,486.5C 155.143,483.093 154.809,479.926 154.5,477C 146.927,475.417 139.26,474.417 131.5,474C 129.377,472.806 127.043,472.14 124.5,472C 126.134,471.506 127.801,471.34 129.5,471.5C 129.232,468.881 129.565,466.381 130.5,464C 129.833,463.667 129.167,463.333 128.5,463C 121.228,462.864 113.894,462.364 106.5,461.5C 106.035,457.601 105.368,453.767 104.5,450C 97.1667,449.667 89.8333,449.333 82.5,449C 78.6039,445.817 75.2706,442.15 72.5,438C 67.1771,437.501 61.8437,437.334 56.5,437.5C 56.5,433.5 56.5,429.5 56.5,425.5C 53.6062,425.958 51.1062,425.291 49,423.5C 48.1627,425.007 46.9961,425.507 45.5,425C 44.1667,422.333 44.1667,419.667 45.5,417C 44.8095,415.933 44.3095,414.766 44,413.5C 41.1413,412.827 38.308,411.993 35.5,411C 37.6754,407.955 40.6754,406.789 44.5,407.5C 44.7394,405.533 44.4061,403.699 43.5,402C 40.0879,400.468 36.9213,400.635 34,402.5C 33.0754,401.953 32.2421,401.287 31.5,400.5C 31.7023,396.945 31.369,393.278 30.5,389.5C 27.1033,388.828 23.7699,387.995 20.5,387C 19.3313,384.993 18.6646,382.827 18.5,380.5C 17.5,380.5 16.5,380.5 15.5,380.5C 15.5,379.167 15.5,377.833 15.5,376.5C 16.5,376.5 17.5,376.5 18.5,376.5C 19.0972,372.076 19.0972,367.743 18.5,363.5C 11.1363,366.431 7.13627,364.098 6.5,356.5C 2.84925,356.838 1.18259,355.172 1.5,351.5C 3.28801,351.785 4.95467,351.452 6.5,350.5C 5.58266,347.242 5.24933,343.909 5.5,340.5C 3.5,340.833 1.5,341.167 -0.5,341.5C -0.5,316.5 -0.5,291.5 -0.5,266.5C 0.495904,266.586 1.32924,266.252 2,265.5C 6.70547,266.882 6.53881,267.549 1.5,267.5C 1.4023,273.583 4.06896,278.083 9.5,281C 8.51221,292.419 8.17887,303.919 8.5,315.5C 12.1667,315.5 15.8333,315.5 19.5,315.5C 19.9576,323.255 20.1243,330.921 20,338.5C 20.5,339 21,339.5 21.5,340C 24.8035,340.215 27.9701,340.382 31,340.5C 31.8317,347.815 32.3317,355.148 32.5,362.5C 34.8257,363.151 37.1591,363.818 39.5,364.5C 40.7716,364.43 41.9383,364.097 43,363.5C 44.7512,365.831 44.5846,368.164 42.5,370.5C 45.905,370.564 47.905,372.564 48.5,376.5C 47.1667,376.5 45.8333,376.5 44.5,376.5C 44.6398,380.564 44.9731,384.397 45.5,388C 49.0143,388.082 52.681,388.249 56.5,388.5C 56.5,392.5 56.5,396.5 56.5,400.5C 60.577,399.757 64.577,399.757 68.5,400.5C 68.2837,398.319 69.117,396.653 71,395.5C 73.3125,399.58 76.8125,402.08 81.5,403C 80.8333,405.667 80.1667,408.333 79.5,411C 79.8333,411.333 80.1667,411.667 80.5,412C 84.4034,413.467 88.2368,413.967 92,413.5C 92.4988,417.486 92.6655,421.486 92.5,425.5C 96.5,425.5 100.5,425.5 104.5,425.5C 104.275,423.284 105.108,421.617 107,420.5C 109.343,423.405 111.176,426.572 112.5,430C 111.034,430.635 109.7,431.469 108.5,432.5C 108.089,431.738 107.923,430.738 108,429.5C 105.797,431.669 104.964,434.335 105.5,437.5C 113.66,437.692 121.66,437.692 129.5,437.5C 129.74,443.22 129.907,448.887 130,454.5C 131.897,456.016 134.064,456.683 136.5,456.5C 136.335,454.173 135.669,452.007 134.5,450C 135.784,449.316 136.951,449.483 138,450.5C 139.764,448.339 141.597,448.172 143.5,450C 155.162,450.5 166.829,450.667 178.5,450.5C 178.5,454.833 178.5,459.167 178.5,463.5C 191.677,463.829 204.677,463.495 217.5,462.5C 224.472,466.989 231.472,471.489 238.5,476C 240.971,476.706 243.305,476.373 245.5,475C 302.528,437.49 359.528,399.99 416.5,362.5C 418.279,364.344 420.612,365.01 423.5,364.5C 423.325,360.033 424.325,355.867 426.5,352C 431.035,351.281 431.701,352.614 428.5,356C 432.545,358.427 433.545,356.927 431.5,351.5C 433.846,348.308 435.513,344.808 436.5,341C 441.132,340.819 445.632,339.986 450,338.5C 452.787,339.517 455.62,339.684 458.5,339C 459.136,335.21 459.803,331.377 460.5,327.5C 464.076,327.093 467.742,327.093 471.5,327.5C 471.616,324.09 469.95,322.756 466.5,323.5C 467.31,321.202 468.144,318.868 469,316.5C 470.356,315.62 471.856,315.286 473.5,315.5C 473.751,312.091 473.417,308.758 472.5,305.5C 472.808,304.692 473.308,304.025 474,303.5C 474.718,304.451 475.551,304.617 476.5,304C 478.038,302.068 479.205,299.901 480,297.5C 481.154,296.257 482.488,295.257 484,294.5C 484.494,292.866 484.66,291.199 484.5,289.5C 486.857,289.663 489.19,289.497 491.5,289C 489.5,288.667 487.5,288.333 485.5,288C 484.978,287.439 484.645,286.772 484.5,286C 485.649,284.27 485.649,282.604 484.5,281C 485.966,279.448 486.966,277.614 487.5,275.5C 487.055,272.947 487.055,270.28 487.5,267.5C 489.401,267.433 491.234,267.767 493,268.5C 494.653,268.18 495.653,267.18 496,265.5C 496.667,257.833 496.667,250.167 496,242.5C 495.481,241.484 494.647,240.818 493.5,240.5C 488.768,242.452 486.434,240.785 486.5,235.5C 487.226,232.476 486.56,229.643 484.5,227C 484.404,222.698 484.738,218.365 485.5,214C 484.726,211.595 484.226,209.095 484,206.5C 482.736,204.393 480.903,203.393 478.5,203.5C 478.5,200.167 478.5,196.833 478.5,193.5C 476.179,193.229 474.179,193.896 472.5,195.5C 471.692,195.192 471.025,194.692 470.5,194C 472.045,192.178 472.712,190.011 472.5,187.5C 472.46,185.571 472.127,183.738 471.5,182C 466.669,181.222 462.003,181.722 457.5,183.5C 458.271,178.46 458.771,173.46 459,168.5C 455.76,166.964 452.76,167.297 450,169.5C 448.282,167.103 447.115,164.436 446.5,161.5C 443.737,158.412 440.404,156.079 436.5,154.5C 434.391,151.061 432.224,147.728 430,144.5C 427.993,143.331 425.827,142.665 423.5,142.5C 423.5,140.167 423.5,137.833 423.5,135.5C 422.167,135.5 420.833,135.5 419.5,135.5C 419.5,122.167 419.5,108.833 419.5,95.5 Z"/></g>
<g><path style="opacity:1" fill="#090079" d="M 499.5,304.5 C 499.5,312.167 499.5,319.833 499.5,327.5C 498.504,327.414 497.671,327.748 497,328.5C 496.667,332.167 496.333,335.833 496,339.5C 492.284,340.704 488.45,341.538 484.5,342C 485.516,342.519 486.182,343.353 486.5,344.5C 486.641,349.062 484.641,352.062 480.5,353.5C 478.568,352.48 476.568,352.313 474.5,353C 473.712,356.076 473.212,359.242 473,362.5C 472.167,363.333 471.333,364.167 470.5,365C 467.167,365.333 463.833,365.667 460.5,366C 459.663,367.011 459.33,368.178 459.5,369.5C 455.9,370.32 453.9,372.653 453.5,376.5C 452.178,376.67 451.011,376.337 450,375.5C 445.122,376.965 440.288,378.465 435.5,380C 436.357,380.689 437.023,381.522 437.5,382.5C 435.042,383.124 433.376,384.624 432.5,387C 429.47,388.284 426.47,389.451 423.5,390.5C 423.5,392.833 423.5,395.167 423.5,397.5C 422.167,397.5 420.833,397.5 419.5,397.5C 419.5,398.833 419.5,400.167 419.5,401.5C 417.208,401.244 415.041,401.577 413,402.5C 412.774,406.826 411.941,410.993 410.5,415C 403.217,415.629 396.051,415.129 389,413.5C 388.64,415.608 387.973,417.608 387,419.5C 384.167,421 382,423.167 380.5,426C 379.207,426.49 377.873,426.657 376.5,426.5C 376.663,428.857 376.497,431.19 376,433.5C 373.553,436.723 372.219,440.39 372,444.5C 371.503,442.19 371.337,439.857 371.5,437.5C 370.5,437.5 369.5,437.5 368.5,437.5C 368.838,440.157 368.171,442.49 366.5,444.5C 363.947,444.055 361.28,444.055 358.5,444.5C 358.496,446.842 357.663,448.842 356,450.5C 354.667,449.167 353.333,449.167 352,450.5C 350.913,454.436 350.08,458.436 349.5,462.5C 345.878,463.325 342.211,463.825 338.5,464C 334.973,467.527 331.473,471.027 328,474.5C 326.491,473.91 324.991,473.244 323.5,472.5C 324.609,470.786 323.942,470.119 321.5,470.5C 321.762,471.978 321.429,473.311 320.5,474.5C 315.384,476.107 311.217,479.107 308,483.5C 307.732,485.59 308.732,486.924 311,487.5C 311.667,488.833 311.667,490.167 311,491.5C 307.715,489.863 304.215,489.196 300.5,489.5C 300.5,487.5 300.5,485.5 300.5,483.5C 299.07,483.579 297.736,483.246 296.5,482.5C 295.158,484.005 293.492,484.672 291.5,484.5C 291.88,489.807 290.88,494.807 288.5,499.5C 256.167,499.5 223.833,499.5 191.5,499.5C 190.001,497.51 189.168,495.177 189,492.5C 187.951,491.483 186.784,491.316 185.5,492C 187.25,493.754 187.917,495.921 187.5,498.5C 182.821,498.666 178.155,498.499 173.5,498C 169.311,496.891 164.977,496.058 160.5,495.5C 160.291,494.914 159.957,494.414 159.5,494C 155.848,493.501 152.182,493.335 148.5,493.5C 148.5,490.167 148.5,486.833 148.5,483.5C 145.365,484.121 142.531,485.455 140,487.5C 132.52,486.426 125.02,486.426 117.5,487.5C 117.5,485.5 117.5,483.5 117.5,481.5C 113.821,481.276 110.154,480.942 106.5,480.5C 106.607,478.097 105.607,476.264 103.5,475C 99.9106,474.793 96.4106,474.293 93,473.5C 92.1744,470.207 91.6744,466.874 91.5,463.5C 88.8333,463.5 86.1667,463.5 83.5,463.5C 83.5,466.167 83.5,468.833 83.5,471.5C 85.5273,471.338 87.5273,471.505 89.5,472C 87.1902,472.497 84.8568,472.663 82.5,472.5C 82.6646,469.482 82.498,466.482 82,463.5C 81.3333,462.833 80.6667,462.167 80,461.5C 79.9288,457.313 79.2622,453.313 78,449.5C 75.9676,451.905 74.4676,451.405 73.5,448C 70.1467,447.109 67.8134,448.275 66.5,451.5C 63.2423,450.583 59.909,450.249 56.5,450.5C 56.5,446.833 56.5,443.167 56.5,439.5C 53.6062,439.958 51.1062,439.291 49,437.5C 46.9068,439.573 45.0735,439.073 43.5,436C 42.7135,433.901 42.3801,431.734 42.5,429.5C 34.5,429.167 34.5,428.833 42.5,428.5C 42.5,427.5 42.5,426.5 42.5,425.5C 39.1105,425.632 35.7772,425.799 32.5,426C 33.8503,417.867 30.517,413.367 22.5,412.5C 22.2161,409.223 22.5495,406.057 23.5,403C 19.8737,401.36 16.207,401.194 12.5,402.5C 10.7419,401.872 9.24186,400.872 8,399.5C 7.50137,395.848 7.3347,392.182 7.5,388.5C 13.2496,387.969 13.7496,386.302 9,383.5C 8.58605,383.957 8.08605,384.291 7.5,384.5C 6.51998,381.914 6.18665,379.247 6.5,376.5C 4.16667,376.5 1.83333,376.5 -0.5,376.5C -0.5,364.833 -0.5,353.167 -0.5,341.5C 1.5,341.167 3.5,340.833 5.5,340.5C 5.24933,343.909 5.58266,347.242 6.5,350.5C 4.95467,351.452 3.28801,351.785 1.5,351.5C 1.18259,355.172 2.84925,356.838 6.5,356.5C 7.13627,364.098 11.1363,366.431 18.5,363.5C 19.0972,367.743 19.0972,372.076 18.5,376.5C 17.5,376.5 16.5,376.5 15.5,376.5C 15.5,377.833 15.5,379.167 15.5,380.5C 16.5,380.5 17.5,380.5 18.5,380.5C 18.6646,382.827 19.3313,384.993 20.5,387C 23.7699,387.995 27.1033,388.828 30.5,389.5C 31.369,393.278 31.7023,396.945 31.5,400.5C 32.2421,401.287 33.0754,401.953 34,402.5C 36.9213,400.635 40.0879,400.468 43.5,402C 44.4061,403.699 44.7394,405.533 44.5,407.5C 40.6754,406.789 37.6754,407.955 35.5,411C 38.308,411.993 41.1413,412.827 44,413.5C 44.3095,414.766 44.8095,415.933 45.5,417C 44.1667,419.667 44.1667,422.333 45.5,425C 46.9961,425.507 48.1627,425.007 49,423.5C 51.1062,425.291 53.6062,425.958 56.5,425.5C 56.5,429.5 56.5,433.5 56.5,437.5C 61.8437,437.334 67.1771,437.501 72.5,438C 75.2706,442.15 78.6039,445.817 82.5,449C 89.8333,449.333 97.1667,449.667 104.5,450C 105.368,453.767 106.035,457.601 106.5,461.5C 113.894,462.364 121.228,462.864 128.5,463C 129.167,463.333 129.833,463.667 130.5,464C 129.565,466.381 129.232,468.881 129.5,471.5C 127.801,471.34 126.134,471.506 124.5,472C 127.043,472.14 129.377,472.806 131.5,474C 139.26,474.417 146.927,475.417 154.5,477C 154.809,479.926 155.143,483.093 155.5,486.5C 199.232,487.573 243.232,487.573 287.5,486.5C 289.37,483.343 290.036,480.01 289.5,476.5C 291.333,476.167 293.167,475.833 295,475.5C 298.792,475.973 302.292,476.973 305.5,478.5C 305.33,477.178 305.663,476.011 306.5,475C 308.167,474.667 309.833,474.333 311.5,474C 315.397,470.44 318.897,466.607 322,462.5C 323.333,463.167 324.667,463.833 326,464.5C 326.29,466.044 326.956,467.377 328,468.5C 329.07,465.758 330.57,463.258 332.5,461C 333.549,460.508 334.549,460.674 335.5,461.5C 337.227,457.634 337.894,453.801 337.5,450C 341.167,449.667 344.833,449.333 348.5,449C 349.174,447.249 349.507,445.583 349.5,444C 352.447,442.719 354.781,440.719 356.5,438C 357.793,437.51 359.127,437.343 360.5,437.5C 360.961,433.788 361.627,430.121 362.5,426.5C 366.182,426.665 369.848,426.499 373.5,426C 376.878,422.624 379.878,418.957 382.5,415C 386.518,414.137 388.518,411.637 388.5,407.5C 391.448,407.223 394.281,407.556 397,408.5C 398.043,405.643 399.21,402.81 400.5,400C 406.961,402.129 411.627,400.129 414.5,394C 417.438,392.166 420.438,390.666 423.5,389.5C 425.005,385.307 427.005,381.307 429.5,377.5C 434.878,375.285 440.544,374.118 446.5,374C 447.337,372.989 447.67,371.822 447.5,370.5C 442.213,369.039 442.547,368.372 448.5,368.5C 448.351,367.448 448.517,366.448 449,365.5C 453.084,364.645 454.584,362.311 453.5,358.5C 455.045,357.548 456.712,357.215 458.5,357.5C 458.247,355.173 458.914,353.173 460.5,351.5C 463.977,351.261 467.643,350.761 471.5,350C 469.866,349.506 468.199,349.34 466.5,349.5C 466.5,346.833 466.5,344.167 466.5,341.5C 469.044,341.896 471.211,341.229 473,339.5C 473.176,336.118 473.676,332.785 474.5,329.5C 476.837,328.399 479.504,328.232 482.5,329C 483.667,327.833 484.833,326.667 486,325.5C 486.163,322.383 486.33,319.05 486.5,315.5C 490.167,315.5 493.833,315.5 497.5,315.5C 497.251,311.542 497.918,307.876 499.5,304.5 Z"/></g>
<g><path style="opacity:1" fill="#090073" d="M 499.5,327.5 C 499.5,331.833 499.5,336.167 499.5,340.5C 498.883,340.611 498.383,340.944 498,341.5C 497.82,344.956 497.153,348.289 496,351.5C 493.984,353.751 491.651,354.084 489,352.5C 487.379,352.725 486.212,353.558 485.5,355C 484.955,358.187 484.289,361.354 483.5,364.5C 481.5,365.167 479.5,365.833 477.5,366.5C 476.522,366.023 475.689,365.357 475,364.5C 474.667,364.833 474.333,365.167 474,365.5C 473.667,368.5 473.333,371.5 473,374.5C 472.5,375 472,375.5 471.5,376C 467.848,376.499 464.182,376.665 460.5,376.5C 460.5,380.5 460.5,384.5 460.5,388.5C 456.491,388.858 452.491,389.358 448.5,390C 447.344,392.44 447.344,394.94 448.5,397.5C 448.24,399.187 447.573,400.687 446.5,402C 442.5,402.333 438.5,402.667 434.5,403C 437.13,412.535 433.463,416.035 423.5,413.5C 423.5,417.5 423.5,421.5 423.5,425.5C 420.449,425.636 417.449,425.302 414.5,424.5C 411.525,425.139 408.525,425.639 405.5,426C 404.76,427.785 404.093,429.618 403.5,431.5C 402.609,432.59 401.609,432.59 400.5,431.5C 399.833,433.5 399.167,435.5 398.5,437.5C 396.865,438.33 395.198,438.497 393.5,438C 392.897,439.825 392.23,441.659 391.5,443.5C 390.188,442.54 388.854,442.706 387.5,444C 388.121,446.498 387.455,448.832 385.5,451C 381.891,450.762 378.225,450.595 374.5,450.5C 374.665,454.182 374.499,457.848 374,461.5C 370.35,463.046 366.516,463.713 362.5,463.5C 362.26,466.579 362.593,469.579 363.5,472.5C 359.456,474.151 355.456,474.985 351.5,475C 350.833,478.667 350.167,482.333 349.5,486C 341.788,486.448 334.121,487.281 326.5,488.5C 327.025,489.192 327.692,489.692 328.5,490C 325.77,490.728 323.103,490.562 320.5,489.5C 319.167,490.5 319.167,491.5 320.5,492.5C 322.042,493.747 323.542,493.747 325,492.5C 325.495,494.473 325.662,496.473 325.5,498.5C 321.818,498.665 318.152,498.499 314.5,498C 312.679,495.863 310.346,495.03 307.5,495.5C 307.567,496.959 307.234,498.292 306.5,499.5C 300.5,499.5 294.5,499.5 288.5,499.5C 290.88,494.807 291.88,489.807 291.5,484.5C 293.492,484.672 295.158,484.005 296.5,482.5C 297.736,483.246 299.07,483.579 300.5,483.5C 300.5,485.5 300.5,487.5 300.5,489.5C 304.215,489.196 307.715,489.863 311,491.5C 311.667,490.167 311.667,488.833 311,487.5C 308.732,486.924 307.732,485.59 308,483.5C 311.217,479.107 315.384,476.107 320.5,474.5C 321.429,473.311 321.762,471.978 321.5,470.5C 323.942,470.119 324.609,470.786 323.5,472.5C 324.991,473.244 326.491,473.91 328,474.5C 331.473,471.027 334.973,467.527 338.5,464C 342.211,463.825 345.878,463.325 349.5,462.5C 350.08,458.436 350.913,454.436 352,450.5C 353.333,449.167 354.667,449.167 356,450.5C 357.663,448.842 358.496,446.842 358.5,444.5C 361.28,444.055 363.947,444.055 366.5,444.5C 368.171,442.49 368.838,440.157 368.5,437.5C 369.5,437.5 370.5,437.5 371.5,437.5C 371.337,439.857 371.503,442.19 372,444.5C 372.219,440.39 373.553,436.723 376,433.5C 376.497,431.19 376.663,428.857 376.5,426.5C 377.873,426.657 379.207,426.49 380.5,426C 382,423.167 384.167,421 387,419.5C 387.973,417.608 388.64,415.608 389,413.5C 396.051,415.129 403.217,415.629 410.5,415C 411.941,410.993 412.774,406.826 413,402.5C 415.041,401.577 417.208,401.244 419.5,401.5C 419.5,400.167 419.5,398.833 419.5,397.5C 420.833,397.5 422.167,397.5 423.5,397.5C 423.5,395.167 423.5,392.833 423.5,390.5C 426.47,389.451 429.47,388.284 432.5,387C 433.376,384.624 435.042,383.124 437.5,382.5C 437.023,381.522 436.357,380.689 435.5,380C 440.288,378.465 445.122,376.965 450,375.5C 451.011,376.337 452.178,376.67 453.5,376.5C 453.9,372.653 455.9,370.32 459.5,369.5C 459.33,368.178 459.663,367.011 460.5,366C 463.833,365.667 467.167,365.333 470.5,365C 471.333,364.167 472.167,363.333 473,362.5C 473.212,359.242 473.712,356.076 474.5,353C 476.568,352.313 478.568,352.48 480.5,353.5C 484.641,352.062 486.641,349.062 486.5,344.5C 486.182,343.353 485.516,342.519 484.5,342C 488.45,341.538 492.284,340.704 496,339.5C 496.333,335.833 496.667,332.167 497,328.5C 497.671,327.748 498.504,327.414 499.5,327.5 Z"/></g>
<g><path style="opacity:1" fill="#090073" d="M -0.5,376.5 C 1.83333,376.5 4.16667,376.5 6.5,376.5C 6.18665,379.247 6.51998,381.914 7.5,384.5C 8.08605,384.291 8.58605,383.957 9,383.5C 13.7496,386.302 13.2496,387.969 7.5,388.5C 7.3347,392.182 7.50137,395.848 8,399.5C 9.24186,400.872 10.7419,401.872 12.5,402.5C 16.207,401.194 19.8737,401.36 23.5,403C 22.5495,406.057 22.2161,409.223 22.5,412.5C 30.517,413.367 33.8503,417.867 32.5,426C 35.7772,425.799 39.1105,425.632 42.5,425.5C 42.5,426.5 42.5,427.5 42.5,428.5C 34.5,428.833 34.5,429.167 42.5,429.5C 42.3801,431.734 42.7135,433.901 43.5,436C 45.0735,439.073 46.9068,439.573 49,437.5C 51.1062,439.291 53.6062,439.958 56.5,439.5C 56.5,443.167 56.5,446.833 56.5,450.5C 59.909,450.249 63.2423,450.583 66.5,451.5C 67.8134,448.275 70.1467,447.109 73.5,448C 74.4676,451.405 75.9676,451.905 78,449.5C 79.2622,453.313 79.9288,457.313 80,461.5C 80.6667,462.167 81.3333,462.833 82,463.5C 82.498,466.482 82.6646,469.482 82.5,472.5C 84.8568,472.663 87.1902,472.497 89.5,472C 87.5273,471.505 85.5273,471.338 83.5,471.5C 83.5,468.833 83.5,466.167 83.5,463.5C 86.1667,463.5 88.8333,463.5 91.5,463.5C 91.6744,466.874 92.1744,470.207 93,473.5C 96.4106,474.293 99.9106,474.793 103.5,475C 105.607,476.264 106.607,478.097 106.5,480.5C 110.154,480.942 113.821,481.276 117.5,481.5C 117.5,483.5 117.5,485.5 117.5,487.5C 125.02,486.426 132.52,486.426 140,487.5C 142.531,485.455 145.365,484.121 148.5,483.5C 148.5,486.833 148.5,490.167 148.5,493.5C 152.182,493.335 155.848,493.501 159.5,494C 159.957,494.414 160.291,494.914 160.5,495.5C 164.977,496.058 169.311,496.891 173.5,498C 178.155,498.499 182.821,498.666 187.5,498.5C 187.917,495.921 187.25,493.754 185.5,492C 186.784,491.316 187.951,491.483 189,492.5C 189.168,495.177 190.001,497.51 191.5,499.5C 161.833,499.5 132.167,499.5 102.5,499.5C 100.648,496.337 97.8145,494.671 94,494.5C 93.7922,492.141 93.6256,489.974 93.5,488C 87.698,487.122 82.0313,487.622 76.5,489.5C 75.6143,488.675 75.281,487.675 75.5,486.5C 71.7757,487.227 69.1091,485.894 67.5,482.5C 66.0379,483.471 64.7046,483.138 63.5,481.5C 63.8333,480.5 64.5,479.833 65.5,479.5C 66.6086,480.59 67.6086,480.59 68.5,479.5C 67.9598,478.252 67.2931,477.085 66.5,476C 63.1832,475.502 59.8499,475.335 56.5,475.5C 56.5,473.167 56.5,470.833 56.5,468.5C 52.6467,468.24 48.98,468.074 45.5,468C 43.9928,464.31 42.9928,460.476 42.5,456.5C 38.6116,456.655 35.1116,455.655 32,453.5C 30.826,448.25 30.1593,442.916 30,437.5C 29.5012,441.486 29.3345,445.486 29.5,449.5C 28.1667,449.5 26.8333,449.5 25.5,449.5C 25.5,445.5 25.5,441.5 25.5,437.5C 19.5,437.5 13.5,437.5 7.5,437.5C 7.96446,430.065 7.96446,422.732 7.5,415.5C 7.13451,414.098 6.30118,413.098 5,412.5C 3.23411,413.233 1.40078,413.567 -0.5,413.5C -0.5,401.167 -0.5,388.833 -0.5,376.5 Z"/></g>
<g><path style="opacity:1" fill="#08006d" d="M 499.5,340.5 C 499.5,348.833 499.5,357.167 499.5,365.5C 498.5,365.5 497.5,365.5 496.5,365.5C 496.003,369.759 496.669,373.759 498.5,377.5C 498,377.833 497.5,378.167 497,378.5C 495.079,376.997 492.912,376.331 490.5,376.5C 490.702,378.989 490.202,381.323 489,383.5C 488.147,381.875 487.147,381.542 486,382.5C 485.34,385.534 485.84,388.367 487.5,391C 485.179,392.713 484.179,391.88 484.5,388.5C 481.223,388.784 478.057,388.451 475,387.5C 473.839,391.702 473.005,396.035 472.5,400.5C 468.217,401.492 463.884,401.826 459.5,401.5C 459.395,405.548 459.728,409.548 460.5,413.5C 456.869,412.588 453.203,412.421 449.5,413C 446.869,414.691 447.203,415.858 450.5,416.5C 449.675,417.386 448.675,417.719 447.5,417.5C 447.244,419.792 447.577,421.959 448.5,424C 443.563,424.131 439.897,426.298 437.5,430.5C 436.391,429.41 435.391,429.41 434.5,430.5C 435.025,431.192 435.692,431.692 436.5,432C 435.139,433.584 434.472,435.418 434.5,437.5C 430.818,437.335 427.152,437.501 423.5,438C 422.833,440.333 422.167,442.667 421.5,445C 422.668,446.871 422.168,448.371 420,449.5C 419.586,449.043 419.086,448.709 418.5,448.5C 412.551,449.292 406.551,449.792 400.5,450C 399.755,453.521 399.422,457.021 399.5,460.5C 398.5,461.333 397.5,462.167 396.5,463C 393.47,463.288 390.636,463.455 388,463.5C 387.962,467.563 387.128,471.397 385.5,475C 384.584,475.374 383.75,475.874 383,476.5C 380.879,474.543 378.379,474.043 375.5,475C 374.833,478.333 374.167,481.667 373.5,485C 369.886,485.936 366.22,486.436 362.5,486.5C 362.5,490.5 362.5,494.5 362.5,498.5C 358.298,498.183 354.298,498.517 350.5,499.5C 335.833,499.5 321.167,499.5 306.5,499.5C 307.234,498.292 307.567,496.959 307.5,495.5C 310.346,495.03 312.679,495.863 314.5,498C 318.152,498.499 321.818,498.665 325.5,498.5C 325.662,496.473 325.495,494.473 325,492.5C 323.542,493.747 322.042,493.747 320.5,492.5C 319.167,491.5 319.167,490.5 320.5,489.5C 323.103,490.562 325.77,490.728 328.5,490C 327.692,489.692 327.025,489.192 326.5,488.5C 334.121,487.281 341.788,486.448 349.5,486C 350.167,482.333 350.833,478.667 351.5,475C 355.456,474.985 359.456,474.151 363.5,472.5C 362.593,469.579 362.26,466.579 362.5,463.5C 366.516,463.713 370.35,463.046 374,461.5C 374.499,457.848 374.665,454.182 374.5,450.5C 378.225,450.595 381.891,450.762 385.5,451C 387.455,448.832 388.121,446.498 387.5,444C 388.854,442.706 390.188,442.54 391.5,443.5C 392.23,441.659 392.897,439.825 393.5,438C 395.198,438.497 396.865,438.33 398.5,437.5C 399.167,435.5 399.833,433.5 400.5,431.5C 401.609,432.59 402.609,432.59 403.5,431.5C 404.093,429.618 404.76,427.785 405.5,426C 408.525,425.639 411.525,425.139 414.5,424.5C 417.449,425.302 420.449,425.636 423.5,425.5C 423.5,421.5 423.5,417.5 423.5,413.5C 433.463,416.035 437.13,412.535 434.5,403C 438.5,402.667 442.5,402.333 446.5,402C 447.573,400.687 448.24,399.187 448.5,397.5C 447.344,394.94 447.344,392.44 448.5,390C 452.491,389.358 456.491,388.858 460.5,388.5C 460.5,384.5 460.5,380.5 460.5,376.5C 464.182,376.665 467.848,376.499 471.5,376C 472,375.5 472.5,375 473,374.5C 473.333,371.5 473.667,368.5 474,365.5C 474.333,365.167 474.667,364.833 475,364.5C 475.689,365.357 476.522,366.023 477.5,366.5C 479.5,365.833 481.5,365.167 483.5,364.5C 484.289,361.354 484.955,358.187 485.5,355C 486.212,353.558 487.379,352.725 489,352.5C 491.651,354.084 493.984,353.751 496,351.5C 497.153,348.289 497.82,344.956 498,341.5C 498.383,340.944 498.883,340.611 499.5,340.5 Z"/></g>
<g><path style="opacity:1" fill="#080060" d="M 499.5,387.5 C 499.5,395.833 499.5,404.167 499.5,412.5C 497.634,413.014 495.8,413.68 494,414.5C 490.74,413.515 489.906,414.681 491.5,418C 489.655,419.128 487.655,419.628 485.5,419.5C 486.167,424.833 483.833,427.167 478.5,426.5C 478.5,428.167 478.5,429.833 478.5,431.5C 477.178,431.67 476.011,431.337 475,430.5C 473.957,432.701 473.123,435.034 472.5,437.5C 470.591,438.348 468.591,438.682 466.5,438.5C 466.5,441.167 466.5,443.833 466.5,446.5C 467.978,446.238 469.311,446.571 470.5,447.5C 467.175,449.118 463.842,449.618 460.5,449C 459.833,449.667 459.167,450.333 458.5,451C 459.787,454.125 459.787,457.291 458.5,460.5C 453.108,461.21 447.775,462.21 442.5,463.5C 442.657,464.873 442.49,466.207 442,467.5C 440.111,468.097 438.278,468.431 436.5,468.5C 435.77,470.341 435.103,472.175 434.5,474C 430.848,474.499 427.182,474.665 423.5,474.5C 423.5,478.833 423.5,483.167 423.5,487.5C 419.929,488.087 416.263,488.087 412.5,487.5C 412.26,491.606 411.593,495.606 410.5,499.5C 398.833,499.5 387.167,499.5 375.5,499.5C 375.804,498.85 376.137,498.183 376.5,497.5C 379.447,496.679 382.447,496.179 385.5,496C 386.686,493.252 387.686,490.419 388.5,487.5C 391.366,486.205 394.199,486.205 397,487.5C 397.667,486.833 398.333,486.167 399,485.5C 399.499,481.848 399.665,478.182 399.5,474.5C 403.182,474.665 406.848,474.499 410.5,474C 411.167,470.333 411.833,466.667 412.5,463C 416.152,462.501 419.818,462.335 423.5,462.5C 423.176,458.445 423.509,454.445 424.5,450.5C 428.218,449.719 431.885,449.386 435.5,449.5C 436.325,445.878 436.825,442.211 437,438.5C 443.798,436.871 447.964,432.704 449.5,426C 452.907,425.518 456.24,425.518 459.5,426C 464.694,422.139 469.194,417.639 473,412.5C 473.273,410.899 473.773,409.399 474.5,408C 477.757,406.957 481.09,406.457 484.5,406.5C 484.34,404.801 484.506,403.134 485,401.5C 488.526,399.294 492.026,397.127 495.5,395C 496.249,393.266 496.749,391.433 497,389.5C 497.708,388.619 498.542,387.953 499.5,387.5 Z"/></g>
<g><path style="opacity:1" fill="#080068" d="M 499.5,365.5 C 499.5,372.833 499.5,380.167 499.5,387.5C 498.542,387.953 497.708,388.619 497,389.5C 496.749,391.433 496.249,393.266 495.5,395C 492.026,397.127 488.526,399.294 485,401.5C 484.506,403.134 484.34,404.801 484.5,406.5C 481.09,406.457 477.757,406.957 474.5,408C 473.773,409.399 473.273,410.899 473,412.5C 469.194,417.639 464.694,422.139 459.5,426C 456.24,425.518 452.907,425.518 449.5,426C 447.964,432.704 443.798,436.871 437,438.5C 436.825,442.211 436.325,445.878 435.5,449.5C 431.885,449.386 428.218,449.719 424.5,450.5C 423.509,454.445 423.176,458.445 423.5,462.5C 419.818,462.335 416.152,462.501 412.5,463C 411.833,466.667 411.167,470.333 410.5,474C 406.848,474.499 403.182,474.665 399.5,474.5C 399.665,478.182 399.499,481.848 399,485.5C 398.333,486.167 397.667,486.833 397,487.5C 394.199,486.205 391.366,486.205 388.5,487.5C 387.686,490.419 386.686,493.252 385.5,496C 382.447,496.179 379.447,496.679 376.5,497.5C 376.137,498.183 375.804,498.85 375.5,499.5C 367.167,499.5 358.833,499.5 350.5,499.5C 354.298,498.517 358.298,498.183 362.5,498.5C 362.5,494.5 362.5,490.5 362.5,486.5C 366.22,486.436 369.886,485.936 373.5,485C 374.167,481.667 374.833,478.333 375.5,475C 378.379,474.043 380.879,474.543 383,476.5C 383.75,475.874 384.584,475.374 385.5,475C 387.128,471.397 387.962,467.563 388,463.5C 390.636,463.455 393.47,463.288 396.5,463C 397.5,462.167 398.5,461.333 399.5,460.5C 399.422,457.021 399.755,453.521 400.5,450C 406.551,449.792 412.551,449.292 418.5,448.5C 419.086,448.709 419.586,449.043 420,449.5C 422.168,448.371 422.668,446.871 421.5,445C 422.167,442.667 422.833,440.333 423.5,438C 427.152,437.501 430.818,437.335 434.5,437.5C 434.472,435.418 435.139,433.584 436.5,432C 435.692,431.692 435.025,431.192 434.5,430.5C 435.391,429.41 436.391,429.41 437.5,430.5C 439.897,426.298 443.563,424.131 448.5,424C 447.577,421.959 447.244,419.792 447.5,417.5C 448.675,417.719 449.675,417.386 450.5,416.5C 447.203,415.858 446.869,414.691 449.5,413C 453.203,412.421 456.869,412.588 460.5,413.5C 459.728,409.548 459.395,405.548 459.5,401.5C 463.884,401.826 468.217,401.492 472.5,400.5C 473.005,396.035 473.839,391.702 475,387.5C 478.057,388.451 481.223,388.784 484.5,388.5C 484.179,391.88 485.179,392.713 487.5,391C 485.84,388.367 485.34,385.534 486,382.5C 487.147,381.542 488.147,381.875 489,383.5C 490.202,381.323 490.702,378.989 490.5,376.5C 492.912,376.331 495.079,376.997 497,378.5C 497.5,378.167 498,377.833 498.5,377.5C 496.669,373.759 496.003,369.759 496.5,365.5C 497.5,365.5 498.5,365.5 499.5,365.5 Z"/></g>
<g><path style="opacity:1" fill="#08006d" d="M 102.5,499.5 C 68.1667,499.5 33.8333,499.5 -0.5,499.5C -0.5,470.833 -0.5,442.167 -0.5,413.5C 1.40078,413.567 3.23411,413.233 5,412.5C 6.30118,413.098 7.13451,414.098 7.5,415.5C 7.96446,422.732 7.96446,430.065 7.5,437.5C 13.5,437.5 19.5,437.5 25.5,437.5C 25.5,441.5 25.5,445.5 25.5,449.5C 26.8333,449.5 28.1667,449.5 29.5,449.5C 29.3345,445.486 29.5012,441.486 30,437.5C 30.1593,442.916 30.826,448.25 32,453.5C 35.1116,455.655 38.6116,456.655 42.5,456.5C 42.9928,460.476 43.9928,464.31 45.5,468C 48.98,468.074 52.6467,468.24 56.5,468.5C 56.5,470.833 56.5,473.167 56.5,475.5C 59.8499,475.335 63.1832,475.502 66.5,476C 67.2931,477.085 67.9598,478.252 68.5,479.5C 67.6086,480.59 66.6086,480.59 65.5,479.5C 64.5,479.833 63.8333,480.5 63.5,481.5C 64.7046,483.138 66.0379,483.471 67.5,482.5C 69.1091,485.894 71.7757,487.227 75.5,486.5C 75.281,487.675 75.6143,488.675 76.5,489.5C 82.0313,487.622 87.698,487.122 93.5,488C 93.6256,489.974 93.7922,492.141 94,494.5C 97.8145,494.671 100.648,496.337 102.5,499.5 Z"/></g>
<g><path style="opacity:1" fill="#08005a" d="M 499.5,412.5 C 499.5,417.167 499.5,421.833 499.5,426.5C 496.174,426.967 495.841,428.134 498.5,430C 497.009,432.097 496.009,434.43 495.5,437C 492.21,436.75 488.877,437.25 485.5,438.5C 484.511,442.107 484.177,445.774 484.5,449.5C 480.833,449.5 477.167,449.5 473.5,449.5C 473.665,453.182 473.499,456.848 473,460.5C 471.601,461.227 470.101,461.727 468.5,462C 465.724,466.242 462.724,470.242 459.5,474C 456.8,476.225 453.8,477.725 450.5,478.5C 449.871,482.202 448.037,485.202 445,487.5C 444.586,487.043 444.086,486.709 443.5,486.5C 442.234,488.71 440.734,490.71 439,492.5C 438.127,492.265 437.293,491.931 436.5,491.5C 435.376,493.369 434.543,495.369 434,497.5C 432.378,498.099 430.878,498.766 429.5,499.5C 423.167,499.5 416.833,499.5 410.5,499.5C 411.593,495.606 412.26,491.606 412.5,487.5C 416.263,488.087 419.929,488.087 423.5,487.5C 423.5,483.167 423.5,478.833 423.5,474.5C 427.182,474.665 430.848,474.499 434.5,474C 435.103,472.175 435.77,470.341 436.5,468.5C 438.278,468.431 440.111,468.097 442,467.5C 442.49,466.207 442.657,464.873 442.5,463.5C 447.775,462.21 453.108,461.21 458.5,460.5C 459.787,457.291 459.787,454.125 458.5,451C 459.167,450.333 459.833,449.667 460.5,449C 463.842,449.618 467.175,449.118 470.5,447.5C 469.311,446.571 467.978,446.238 466.5,446.5C 466.5,443.833 466.5,441.167 466.5,438.5C 468.591,438.682 470.591,438.348 472.5,437.5C 473.123,435.034 473.957,432.701 475,430.5C 476.011,431.337 477.178,431.67 478.5,431.5C 478.5,429.833 478.5,428.167 478.5,426.5C 483.833,427.167 486.167,424.833 485.5,419.5C 487.655,419.628 489.655,419.128 491.5,418C 489.906,414.681 490.74,413.515 494,414.5C 495.8,413.68 497.634,413.014 499.5,412.5 Z"/></g>
<g><path style="opacity:1" fill="#080054" d="M 499.5,426.5 C 499.5,430.833 499.5,435.167 499.5,439.5C 496.541,437.809 494.541,438.642 493.5,442C 496.635,445.619 496.135,448.452 492,450.5C 491.667,450.167 491.333,449.833 491,449.5C 490.257,451.441 490.424,453.274 491.5,455C 490.667,455.833 489.833,456.667 489,457.5C 488.107,456.289 487.274,456.289 486.5,457.5C 486.879,462.105 484.545,464.105 479.5,463.5C 479.14,467.358 476.973,469.358 473,469.5C 473.359,474.807 473.359,480.141 473,485.5C 469.759,488.19 465.925,489.19 461.5,488.5C 461.005,490.824 461.005,492.991 461.5,495C 461.043,496.94 460.043,498.44 458.5,499.5C 448.833,499.5 439.167,499.5 429.5,499.5C 430.878,498.766 432.378,498.099 434,497.5C 434.543,495.369 435.376,493.369 436.5,491.5C 437.293,491.931 438.127,492.265 439,492.5C 440.734,490.71 442.234,488.71 443.5,486.5C 444.086,486.709 444.586,487.043 445,487.5C 448.037,485.202 449.871,482.202 450.5,478.5C 453.8,477.725 456.8,476.225 459.5,474C 462.724,470.242 465.724,466.242 468.5,462C 470.101,461.727 471.601,461.227 473,460.5C 473.499,456.848 473.665,453.182 473.5,449.5C 477.167,449.5 480.833,449.5 484.5,449.5C 484.177,445.774 484.511,442.107 485.5,438.5C 488.877,437.25 492.21,436.75 495.5,437C 496.009,434.43 497.009,432.097 498.5,430C 495.841,428.134 496.174,426.967 499.5,426.5 Z"/></g>
<g><path style="opacity:1" fill="#08004e" d="M 499.5,439.5 C 499.5,459.5 499.5,479.5 499.5,499.5C 485.833,499.5 472.167,499.5 458.5,499.5C 460.043,498.44 461.043,496.94 461.5,495C 461.005,492.991 461.005,490.824 461.5,488.5C 465.925,489.19 469.759,488.19 473,485.5C 473.359,480.141 473.359,474.807 473,469.5C 476.973,469.358 479.14,467.358 479.5,463.5C 484.545,464.105 486.879,462.105 486.5,457.5C 487.274,456.289 488.107,456.289 489,457.5C 489.833,456.667 490.667,455.833 491.5,455C 490.424,453.274 490.257,451.441 491,449.5C 491.333,449.833 491.667,450.167 492,450.5C 496.135,448.452 496.635,445.619 493.5,442C 494.541,438.642 496.541,437.809 499.5,439.5 Z"/></g>
</svg>
