<?xml version="1.0" encoding="UTF-8"?>
<!DOCTYPE svg PUBLIC "-//W3C//DTD SVG 1.1//EN" "http://www.w3.org/Graphics/SVG/1.1/DTD/svg11.dtd">
<svg xmlns="http://www.w3.org/2000/svg" version="1.1" width="500px" height="500px" style="shape-rendering:geometricPrecision; text-rendering:geometricPrecision; image-rendering:optimizeQuality; fill-rule:evenodd; clip-rule:evenodd" xmlns:xlink="http://www.w3.org/1999/xlink">
<g><path style="opacity:1" fill="#fa914f" d="M 307.5,84.5 C 307.918,85.2216 308.584,85.7216 309.5,86C 323.04,87.1624 336.373,86.4957 349.5,84C 349.167,83.6667 348.833,83.3333 348.5,83C 353.336,80.8279 358.17,78.6612 363,76.5C 365.462,77.1595 367.962,77.4928 370.5,77.5C 370.976,79.9931 372.31,81.9931 374.5,83.5C 373.359,84.4255 373.359,85.2588 374.5,86C 373.285,88.0955 372.451,87.9288 372,85.5C 371.395,87.4812 370.395,87.8146 369,86.5C 368.517,87.448 368.351,88.448 368.5,89.5C 366.801,89.3796 365.135,89.0463 363.5,88.5C 360.662,90.1015 357.662,90.6015 354.5,90C 355.5,89.1667 356.5,88.3333 357.5,87.5C 356.242,88.0164 355.242,87.3497 354.5,85.5C 350.983,89.1304 346.65,90.4638 341.5,89.5C 341.33,90.8221 341.663,91.9887 342.5,93C 344.167,93.3333 345.833,93.6667 347.5,94C 343.943,95.4079 340.276,96.4079 336.5,97C 335.944,97.3826 335.611,97.8826 335.5,98.5C 307.695,101.177 282.695,94.0101 260.5,77C 254.35,71.6843 248.35,66.1843 242.5,60.5C 223.455,81.6918 199.789,94.5251 171.5,99C 153.814,101.07 137.148,97.9031 121.5,89.5C 112.683,101.787 104.35,114.454 96.5,127.5C 97.7701,128.288 98.7701,129.288 99.5,130.5C 97.712,130.785 96.0453,130.452 94.5,129.5C 95.3742,127.253 95.7076,124.92 95.5,122.5C 96.5,122.5 97.5,122.5 98.5,122.5C 98.5792,121.07 98.2458,119.736 97.5,118.5C 98.6313,117.396 99.4646,117.729 100,119.5C 101.608,115.943 103.441,112.61 105.5,109.5C 105.535,107.263 104.702,106.93 103,108.5C 101.739,108.241 100.739,107.574 100,106.5C 99.2438,108.809 99.7438,110.809 101.5,112.5C 100.372,113.262 99.2051,113.929 98,114.5C 95.3466,108.278 93.0133,108.611 91,115.5C 88.2587,118.019 85.7587,120.686 83.5,123.5C 93.5226,106.631 104.189,90.1312 115.5,74C 117.833,73.3333 120.167,73.3333 122.5,74C 126.602,77.0461 130.935,79.5461 135.5,81.5C 136.244,83.4534 137.744,84.4534 140,84.5C 152.427,86.4688 164.927,86.9688 177.5,86C 180.601,85.3621 183.268,84.1954 185.5,82.5C 206.652,74.5223 224.318,61.689 238.5,44C 241.167,42 243.833,42 246.5,44C 262.207,64.5167 282.54,78.0167 307.5,84.5 Z"/></g>
<g><path style="opacity:0.906" fill="#e58e5d" d="M 135.5,81.5 C 152.061,86.4398 168.728,86.7731 185.5,82.5C 183.268,84.1954 180.601,85.3621 177.5,86C 164.927,86.9688 152.427,86.4688 140,84.5C 137.744,84.4534 136.244,83.4534 135.5,81.5 Z"/></g>
<g><path style="opacity:1" fill="#fcbd5a" d="M 240.5,80.5 C 241.496,80.4142 242.329,80.7476 243,81.5C 247.516,90.5311 252.016,99.5311 256.5,108.5C 267.182,110.407 277.849,112.407 288.5,114.5C 281.181,122.319 273.681,129.986 266,137.5C 267.109,147.328 268.609,157.161 270.5,167C 270.167,167.833 269.833,168.667 269.5,169.5C 260.285,164.641 251.118,159.641 242,154.5C 232.737,159.882 223.237,164.882 213.5,169.5C 213.167,168.833 212.833,168.167 212.5,167.5C 214.659,157.217 216.159,146.883 217,136.5C 208.833,129.667 201.333,122.167 194.5,114C 205.16,112.239 215.827,110.572 226.5,109C 231.58,99.6735 236.247,90.1735 240.5,80.5 Z"/></g>
<g><path style="opacity:1" fill="#f99150" d="M 80.5,297.5 C 81.7763,299.562 82.6097,301.896 83,304.5C 84.5826,302.007 86.0826,302.174 87.5,305C 86.1667,305.667 86.1667,306.333 87.5,307C 86.552,307.483 85.552,307.649 84.5,307.5C 84.5897,310.346 85.7563,312.679 88,314.5C 91.8025,310.883 92.3025,306.883 89.5,302.5C 90.4565,300.925 91.1231,299.258 91.5,297.5C 92.3138,299.631 92.8138,301.964 93,304.5C 93.8518,305.571 94.6851,306.571 95.5,307.5C 101.634,324.731 111.967,339.064 126.5,350.5C 127.29,351.401 128.29,352.068 129.5,352.5C 130.872,353.512 132.205,354.512 133.5,355.5C 134.967,358.463 137.3,360.629 140.5,362C 146.417,364.795 152.417,367.295 158.5,369.5C 159.609,369.557 160.609,369.89 161.5,370.5C 170.862,375.016 180.529,378.683 190.5,381.5C 190.842,382.338 191.508,382.672 192.5,382.5C 202.72,387.278 212.72,392.612 222.5,398.5C 223.29,399.401 224.29,400.068 225.5,400.5C 231.78,404.806 237.446,409.806 242.5,415.5C 246.897,411.108 250.897,406.442 254.5,401.5C 255.791,401.737 256.791,401.404 257.5,400.5C 266.921,395.092 276.588,390.092 286.5,385.5C 287.71,385.068 288.71,384.401 289.5,383.5C 299.534,380.314 309.2,376.314 318.5,371.5C 319.609,371.443 320.609,371.11 321.5,370.5C 326.448,368.363 331.448,366.196 336.5,364C 341.752,361.552 346.419,358.386 350.5,354.5C 351.791,354.737 352.791,354.404 353.5,353.5C 369.933,342.638 381.6,327.971 388.5,309.5C 389.75,309.423 390.583,308.756 391,307.5C 393.542,295.437 394.042,283.437 392.5,271.5C 388.448,247.828 381.614,224.828 372,202.5C 369.317,193.953 367.15,185.286 365.5,176.5C 363.76,155.652 371.426,139.318 388.5,127.5C 380.167,114.833 371.833,102.167 363.5,89.5C 354.666,94.1117 345.332,97.1117 335.5,98.5C 335.611,97.8826 335.944,97.3826 336.5,97C 340.276,96.4079 343.943,95.4079 347.5,94C 345.833,93.6667 344.167,93.3333 342.5,93C 341.663,91.9887 341.33,90.8221 341.5,89.5C 346.65,90.4638 350.983,89.1304 354.5,85.5C 355.242,87.3497 356.242,88.0164 357.5,87.5C 356.5,88.3333 355.5,89.1667 354.5,90C 357.662,90.6015 360.662,90.1015 363.5,88.5C 365.135,89.0463 366.801,89.3796 368.5,89.5C 368.351,88.448 368.517,87.448 369,86.5C 370.395,87.8146 371.395,87.4812 372,85.5C 372.451,87.9288 373.285,88.0955 374.5,86C 373.359,85.2588 373.359,84.4255 374.5,83.5C 372.31,81.9931 370.976,79.9931 370.5,77.5C 367.962,77.4928 365.462,77.1595 363,76.5C 358.17,78.6612 353.336,80.8279 348.5,83C 348.833,83.3333 349.167,83.6667 349.5,84C 336.373,86.4957 323.04,87.1624 309.5,86C 308.584,85.7216 307.918,85.2216 307.5,84.5C 327.333,88.3079 345.667,84.8079 362.5,74C 365.588,73.1533 368.421,73.6533 371,75.5C 382.881,93.4298 394.381,111.596 405.5,130C 404.917,132.499 403.584,134.499 401.5,136C 385.622,143.89 378.122,156.723 379,174.5C 379.524,179.594 380.524,184.594 382,189.5C 388.93,208.625 395.264,227.958 401,247.5C 414.804,304.043 396.304,346.21 345.5,374C 325.975,383.862 306.142,392.362 286,399.5C 281.074,402.714 275.907,405.548 270.5,408C 259.612,413.936 252.112,422.769 248,434.5C 244.333,438.5 240.667,438.5 237,434.5C 233.13,424.29 226.63,416.124 217.5,410C 209.318,404.909 200.652,400.909 191.5,398C 172.614,389.891 153.947,381.225 135.5,372C 121.866,364.369 110.033,354.536 100,342.5C 89.5301,329.269 83.0301,314.269 80.5,297.5 Z"/></g>
<g><path style="opacity:1" fill="#fd904c" d="M 99.5,130.5 C 101.167,131.5 102.5,132.833 103.5,134.5C 103.414,135.496 103.748,136.329 104.5,137C 102.25,137.611 100.583,138.944 99.5,141C 95.7155,142.31 93.3822,141.143 92.5,137.5C 89.1633,137.323 86.1633,136.323 83.5,134.5C 83.5614,132.408 84.5614,130.908 86.5,130C 82.5264,129.254 81.5264,127.087 83.5,123.5C 85.7587,120.686 88.2587,118.019 91,115.5C 93.0133,108.611 95.3466,108.278 98,114.5C 99.2051,113.929 100.372,113.262 101.5,112.5C 99.7438,110.809 99.2438,108.809 100,106.5C 100.739,107.574 101.739,108.241 103,108.5C 104.702,106.93 105.535,107.263 105.5,109.5C 103.441,112.61 101.608,115.943 100,119.5C 99.4646,117.729 98.6313,117.396 97.5,118.5C 98.2458,119.736 98.5792,121.07 98.5,122.5C 97.5,122.5 96.5,122.5 95.5,122.5C 95.7076,124.92 95.3742,127.253 94.5,129.5C 96.0453,130.452 97.712,130.785 99.5,130.5 Z"/></g>
<g><path style="opacity:1" fill="#f59456" d="M 83.5,123.5 C 81.5264,127.087 82.5264,129.254 86.5,130C 84.5614,130.908 83.5614,132.408 83.5,134.5C 86.1633,136.323 89.1633,137.323 92.5,137.5C 93.3822,141.143 95.7155,142.31 99.5,141C 100.583,138.944 102.25,137.611 104.5,137C 103.748,136.329 103.414,135.496 103.5,134.5C 108.874,138.248 112.541,143.248 114.5,149.5C 112.333,148.354 111,146.521 110.5,144C 108.797,143.255 107.13,142.421 105.5,141.5C 104.045,142.39 102.711,142.39 101.5,141.5C 99.679,142.728 98.679,144.394 98.5,146.5C 100.5,147.167 102.5,147.833 104.5,148.5C 104.64,150.124 103.973,151.29 102.5,152C 105.544,152.359 105.878,153.026 103.5,154C 106.126,158.092 107.126,162.592 106.5,167.5C 104.867,155.754 99.2001,146.254 89.5,139C 84.5581,137.722 81.2247,134.722 79.5,130C 80.2259,127.366 81.5593,125.199 83.5,123.5 Z"/></g>
<g><path style="opacity:1" fill="#eb9159" d="M 114.5,149.5 C 117.056,153.35 118.556,157.684 119,162.5C 119.499,167.155 119.666,171.821 119.5,176.5C 118.443,182.339 116.776,188.006 114.5,193.5C 115.767,185.165 117.101,176.832 118.5,168.5C 118.333,165.313 117.333,162.479 115.5,160C 116.38,158.644 116.714,157.144 116.5,155.5C 115.5,155.5 114.5,155.5 113.5,155.5C 113.517,153.435 113.85,151.435 114.5,149.5 Z"/></g>
<g><path style="opacity:0.967" fill="#020000" d="M 119.5,176.5 C 121.833,176.5 124.167,176.5 126.5,176.5C 126.5,234.5 126.5,292.5 126.5,350.5C 111.967,339.064 101.634,324.731 95.5,307.5C 92.764,295.65 91.9306,283.65 93,271.5C 94.7115,258.99 97.2115,246.657 100.5,234.5C 105.942,221.177 110.608,207.51 114.5,193.5C 116.776,188.006 118.443,182.339 119.5,176.5 Z"/></g>
<g><path style="opacity:0.962" fill="#000000" d="M 158.5,368.5 C 149.722,364.945 141.388,360.611 133.5,355.5C 132.205,354.512 130.872,353.512 129.5,352.5C 129.5,293.833 129.5,235.167 129.5,176.5C 139.167,176.5 148.833,176.5 158.5,176.5C 158.5,240.5 158.5,304.5 158.5,368.5 Z"/></g>
<g><path style="opacity:0.964" fill="#000000" d="M 190.5,381.5 C 180.529,378.683 170.862,375.016 161.5,370.5C 161.5,305.833 161.5,241.167 161.5,176.5C 171.167,176.5 180.833,176.5 190.5,176.5C 190.5,244.833 190.5,313.167 190.5,381.5 Z"/></g>
<g><path style="opacity:0.966" fill="#000000" d="M 222.5,398.5 C 212.72,392.612 202.72,387.278 192.5,382.5C 193.499,314.002 193.833,245.335 193.5,176.5C 203.167,176.5 212.833,176.5 222.5,176.5C 222.5,250.5 222.5,324.5 222.5,398.5 Z"/></g>
<g><path style="opacity:0.967" fill="#000000" d="M 254.5,401.5 C 250.897,406.442 246.897,411.108 242.5,415.5C 237.446,409.806 231.78,404.806 225.5,400.5C 225.5,325.833 225.5,251.167 225.5,176.5C 235.167,176.5 244.833,176.5 254.5,176.5C 254.5,251.5 254.5,326.5 254.5,401.5 Z"/></g>
<g><path style="opacity:0.966" fill="#000000" d="M 286.5,385.5 C 276.588,390.092 266.921,395.092 257.5,400.5C 257.5,325.833 257.5,251.167 257.5,176.5C 267.167,176.5 276.833,176.5 286.5,176.5C 286.5,246.167 286.5,315.833 286.5,385.5 Z"/></g>
<g><path style="opacity:0.965" fill="#000000" d="M 318.5,371.5 C 309.2,376.314 299.534,380.314 289.5,383.5C 289.5,314.5 289.5,245.5 289.5,176.5C 299.167,176.5 308.833,176.5 318.5,176.5C 318.5,241.5 318.5,306.5 318.5,371.5 Z"/></g>
<g><path style="opacity:0.963" fill="#000000" d="M 350.5,354.5 C 346.419,358.386 341.752,361.552 336.5,364C 331.448,366.196 326.448,368.363 321.5,370.5C 321.5,305.833 321.5,241.167 321.5,176.5C 331.167,176.5 340.833,176.5 350.5,176.5C 350.5,235.833 350.5,295.167 350.5,354.5 Z"/></g>
<g><path style="opacity:0.987" fill="#020000" d="M 365.5,176.5 C 367.15,185.286 369.317,193.953 372,202.5C 381.614,224.828 388.448,247.828 392.5,271.5C 393.283,284.417 391.95,297.083 388.5,309.5C 381.6,327.971 369.933,342.638 353.5,353.5C 353.5,294.5 353.5,235.5 353.5,176.5C 357.5,176.5 361.5,176.5 365.5,176.5 Z"/></g>
<g><path style="opacity:1" fill="#fc914e" d="M 114.5,149.5 C 113.85,151.435 113.517,153.435 113.5,155.5C 114.5,155.5 115.5,155.5 116.5,155.5C 116.714,157.144 116.38,158.644 115.5,160C 117.333,162.479 118.333,165.313 118.5,168.5C 117.101,176.832 115.767,185.165 114.5,193.5C 110.608,207.51 105.942,221.177 100.5,234.5C 99.8826,234.611 99.3826,234.944 99,235.5C 96.9836,244.187 94.9836,252.854 93,261.5C 91.0863,263.748 89.5863,266.248 88.5,269C 88.6301,270.059 89.1301,270.892 90,271.5C 90.2889,280.192 90.7889,288.859 91.5,297.5C 91.1231,299.258 90.4565,300.925 89.5,302.5C 92.3025,306.883 91.8025,310.883 88,314.5C 85.7563,312.679 84.5897,310.346 84.5,307.5C 85.552,307.649 86.552,307.483 87.5,307C 86.1667,306.333 86.1667,305.667 87.5,305C 86.0826,302.174 84.5826,302.007 83,304.5C 82.6097,301.896 81.7763,299.562 80.5,297.5C 80.5,296.833 80.5,296.167 80.5,295.5C 80.3336,286.827 80.5002,278.16 81,269.5C 83.1598,267.424 83.6598,264.758 82.5,261.5C 83.6654,256.044 84.9987,250.544 86.5,245C 86.4915,243.293 86.1582,241.793 85.5,240.5C 91.3163,223.525 97.1497,206.525 103,189.5C 105.052,182.303 106.219,174.97 106.5,167.5C 107.126,162.592 106.126,158.092 103.5,154C 105.878,153.026 105.544,152.359 102.5,152C 103.973,151.29 104.64,150.124 104.5,148.5C 102.5,147.833 100.5,147.167 98.5,146.5C 98.679,144.394 99.679,142.728 101.5,141.5C 102.711,142.39 104.045,142.39 105.5,141.5C 107.13,142.421 108.797,143.255 110.5,144C 111,146.521 112.333,148.354 114.5,149.5 Z"/></g>
<g><path style="opacity:0.596" fill="#ee9864" d="M 85.5,240.5 C 86.1582,241.793 86.4915,243.293 86.5,245C 84.9987,250.544 83.6654,256.044 82.5,261.5C 83.6598,264.758 83.1598,267.424 81,269.5C 80.5002,278.16 80.3336,286.827 80.5,295.5C 79.3427,286.676 79.176,277.676 80,268.5C 81.318,259.051 83.1514,249.718 85.5,240.5 Z"/></g>
<g><path style="opacity:1" fill="#d5834f" d="M 100.5,234.5 C 97.2115,246.657 94.7115,258.99 93,271.5C 91.9306,283.65 92.764,295.65 95.5,307.5C 94.6851,306.571 93.8518,305.571 93,304.5C 92.8138,301.964 92.3138,299.631 91.5,297.5C 90.7889,288.859 90.2889,280.192 90,271.5C 89.1301,270.892 88.6301,270.059 88.5,269C 89.5863,266.248 91.0863,263.748 93,261.5C 94.9836,252.854 96.9836,244.187 99,235.5C 99.3826,234.944 99.8826,234.611 100.5,234.5 Z"/></g>
<g><path style="opacity:1" fill="#cf8253" d="M 392.5,271.5 C 394.042,283.437 393.542,295.437 391,307.5C 390.583,308.756 389.75,309.423 388.5,309.5C 391.95,297.083 393.283,284.417 392.5,271.5 Z"/></g>
<g><path style="opacity:1" fill="#d58958" d="M 133.5,355.5 C 141.388,360.611 149.722,364.945 158.5,368.5C 158.5,368.833 158.5,369.167 158.5,369.5C 152.417,367.295 146.417,364.795 140.5,362C 137.3,360.629 134.967,358.463 133.5,355.5 Z"/></g>
<g><path style="opacity:0.465" fill="#fefdfd" d="M 352.5,377.5 C 353.117,377.611 353.617,377.944 354,378.5C 354.398,384.856 354.065,391.189 353,397.5C 352,398.833 351,398.833 350,397.5C 349.333,392.167 349.333,386.833 350,381.5C 350.662,380.016 351.496,378.683 352.5,377.5 Z"/></g>
<g><path style="opacity:0.143" fill="#fefefc" d="M 318.5,391.5 C 322.171,392.184 323.171,394.184 321.5,397.5C 320.675,398.386 319.675,398.719 318.5,398.5C 318.5,396.167 318.5,393.833 318.5,391.5 Z"/></g>
<g><path style="opacity:0.25" fill="#fdfcfa" d="M 286.5,404.5 C 287.496,404.414 288.329,404.748 289,405.5C 289.402,406.872 289.902,408.205 290.5,409.5C 289.754,410.736 289.421,412.07 289.5,413.5C 288.167,413.5 286.833,413.5 285.5,413.5C 285.264,410.391 285.597,407.391 286.5,404.5 Z"/></g>
</svg>
