<?xml version="1.0" encoding="UTF-8"?>
<!DOCTYPE svg PUBLIC "-//W3C//DTD SVG 1.1//EN" "http://www.w3.org/Graphics/SVG/1.1/DTD/svg11.dtd">
<svg xmlns="http://www.w3.org/2000/svg" version="1.1" width="500px" height="500px" style="shape-rendering:geometricPrecision; text-rendering:geometricPrecision; image-rendering:optimizeQuality; fill-rule:evenodd; clip-rule:evenodd" xmlns:xlink="http://www.w3.org/1999/xlink">
<g><path style="opacity:0.514" fill="#b01c1a" d="M 255.5,44.5 C 253.723,44.2137 252.056,43.5471 250.5,42.5C 248.5,43.5 246.5,44.5 244.5,45.5C 240.411,50.0918 236.078,54.5918 231.5,59C 229.595,60.4213 227.595,61.588 225.5,62.5C 232.968,55.8645 239.968,48.6979 246.5,41C 250.562,39.6641 253.562,40.8308 255.5,44.5 Z"/></g>
<g><path style="opacity:1" fill="#fefcfc" d="M 269.5,74.5 C 277.586,81.8806 286.92,87.2139 297.5,90.5C 297.833,90.5 298.167,90.5 298.5,90.5C 304.706,93.5544 311.373,95.3878 318.5,96C 326.167,96.6667 333.833,96.6667 341.5,96C 343.708,95.8091 345.708,95.3091 347.5,94.5C 355.893,92.908 363.893,90.408 371.5,87C 378.053,97.2806 384.719,107.447 391.5,117.5C 393.032,120.057 394.699,122.557 396.5,125C 384.194,133.461 376.528,144.961 373.5,159.5C 372.513,164.305 372.179,169.305 372.5,174.5C 360.833,174.5 349.167,174.5 337.5,174.5C 337.405,172.214 336.738,170.214 335.5,168.5C 335.267,165.458 334.267,162.792 332.5,160.5C 331.873,156.58 330.207,153.247 327.5,150.5C 326.831,147.151 325.164,144.484 322.5,142.5C 322.262,140.596 321.262,139.262 319.5,138.5C 303.98,118.902 283.646,107.902 258.5,105.5C 255.183,104.835 251.683,104.501 248,104.5C 242.257,104.358 236.757,105.025 231.5,106.5C 208.355,111.34 190.022,123.34 176.5,142.5C 173.136,146.387 170.303,150.721 168,155.5C 165.131,161.607 162.964,167.941 161.5,174.5C 149.833,174.5 138.167,174.5 126.5,174.5C 126.818,169.968 126.485,165.634 125.5,161.5C 122.816,146.321 115.15,134.155 102.5,125C 103.305,123.887 103.972,122.721 104.5,121.5C 111.526,111.795 118.192,101.795 124.5,91.5C 125.604,89.6115 126.937,87.9448 128.5,86.5C 136.078,91.2513 144.412,94.2513 153.5,95.5C 157.486,96.1657 161.653,96.499 166,96.5C 173.058,96.6195 179.891,95.9528 186.5,94.5C 205.215,90.3085 221.882,82.1418 236.5,70C 240.682,65.6513 245.015,61.4846 249.5,57.5C 254.319,61.8181 258.985,66.3181 263.5,71C 265.405,72.4213 267.405,73.588 269.5,74.5 Z"/></g>
<g><path style="opacity:1" fill="#bd1916" d="M 277.5,65.5 C 285.914,70.7061 294.581,75.3728 303.5,79.5C 297.036,79.1015 291.37,76.7681 286.5,72.5C 285.576,74.3905 284.243,75.8905 282.5,77C 283.345,78.5581 282.679,79.5581 280.5,80C 281.955,82.0162 283.955,82.8495 286.5,82.5C 286.187,78.9808 287.52,77.6474 290.5,78.5C 289.125,80.1634 289.458,81.4968 291.5,82.5C 286.279,83.6244 286.279,84.4577 291.5,85C 293.996,86.331 295.996,88.1644 297.5,90.5C 286.92,87.2139 277.586,81.8806 269.5,74.5C 271.764,75.2186 274.097,75.552 276.5,75.5C 276.766,79.0794 278.099,79.4127 280.5,76.5C 279.975,75.8076 279.308,75.3076 278.5,75C 279.833,73.6667 281.167,72.3333 282.5,71C 280.913,70.1376 279.246,69.4709 277.5,69C 278.167,68.6667 278.833,68.3333 279.5,68C 278.244,67.5831 277.577,66.7498 277.5,65.5 Z"/></g>
<g><path style="opacity:1" fill="#c30d0c" d="M 255.5,44.5 C 262.201,52.202 269.534,59.202 277.5,65.5C 277.577,66.7498 278.244,67.5831 279.5,68C 278.833,68.3333 278.167,68.6667 277.5,69C 279.246,69.4709 280.913,70.1376 282.5,71C 281.167,72.3333 279.833,73.6667 278.5,75C 279.308,75.3076 279.975,75.8076 280.5,76.5C 278.099,79.4127 276.766,79.0794 276.5,75.5C 274.097,75.552 271.764,75.2186 269.5,74.5C 267.405,73.588 265.405,72.4213 263.5,71C 258.985,66.3181 254.319,61.8181 249.5,57.5C 245.015,61.4846 240.682,65.6513 236.5,70C 221.882,82.1418 205.215,90.3085 186.5,94.5C 175.513,95.1661 164.513,95.4994 153.5,95.5C 148.443,93.6404 143.443,91.4737 138.5,89C 135.054,88.3387 131.721,87.5054 128.5,86.5C 126.937,87.9448 125.604,89.6115 124.5,91.5C 122.623,91.9003 121.123,92.9003 120,94.5C 118.118,93.9067 117.118,92.5733 117,90.5C 114.259,92.0674 113.092,94.4007 113.5,97.5C 111.856,97.2865 110.356,97.6198 109,98.5C 108.833,97.8333 108.667,97.1667 108.5,96.5C 109.913,92.9943 112.246,90.3276 115.5,88.5C 115.069,87.7065 114.735,86.8732 114.5,86C 115.906,84.022 116.906,81.8553 117.5,79.5C 118.815,74.852 121.815,71.852 126.5,70.5C 150.005,85.1595 174.672,87.3262 200.5,77C 209.544,73.1532 217.877,68.3198 225.5,62.5C 227.595,61.588 229.595,60.4213 231.5,59C 236.078,54.5918 240.411,50.0918 244.5,45.5C 246.5,44.5 248.5,43.5 250.5,42.5C 252.056,43.5471 253.723,44.2137 255.5,44.5 Z"/></g>
<g><path style="opacity:1" fill="#b72f2c" d="M 128.5,86.5 C 131.721,87.5054 135.054,88.3387 138.5,89C 143.443,91.4737 148.443,93.6404 153.5,95.5C 144.412,94.2513 136.078,91.2513 128.5,86.5 Z"/></g>
<g><path style="opacity:1" fill="#bc1715" d="M 117.5,79.5 C 116.906,81.8553 115.906,84.022 114.5,86C 114.735,86.8732 115.069,87.7065 115.5,88.5C 112.246,90.3276 109.913,92.9943 108.5,96.5C 108.667,97.1667 108.833,97.8333 109,98.5C 110.356,97.6198 111.856,97.2865 113.5,97.5C 113.092,94.4007 114.259,92.0674 117,90.5C 117.118,92.5733 118.118,93.9067 120,94.5C 121.123,92.9003 122.623,91.9003 124.5,91.5C 118.192,101.795 111.526,111.795 104.5,121.5C 104.556,118.606 105.39,115.939 107,113.5C 110.347,110.984 111.847,107.818 111.5,104C 112.167,103.667 112.833,103.333 113.5,103C 110.903,100.148 107.903,99.315 104.5,100.5C 104.923,103.288 103.923,105.288 101.5,106.5C 100.555,109.788 99.888,113.121 99.5,116.5C 97.5,116.5 95.5,116.5 93.5,116.5C 100.756,103.647 108.756,91.314 117.5,79.5 Z"/></g>
<g><path style="opacity:1" fill="#b31c19" d="M 298.5,90.5 C 302.555,90.1758 306.555,90.5091 310.5,91.5C 311.714,93.0691 313.381,93.9024 315.5,94C 326.161,94.4998 336.828,94.6665 347.5,94.5C 345.708,95.3091 343.708,95.8091 341.5,96C 333.833,96.6667 326.167,96.6667 318.5,96C 311.373,95.3878 304.706,93.5544 298.5,90.5 Z"/></g>
<g><path style="opacity:1" fill="#a82b24" d="M 186.5,94.5 C 179.891,95.9528 173.058,96.6195 166,96.5C 161.653,96.499 157.486,96.1657 153.5,95.5C 164.513,95.4994 175.513,95.1661 186.5,94.5 Z"/></g>
<g><path style="opacity:1" fill="#633836" d="M 258.5,105.5 C 257.833,105.5 257.5,105.833 257.5,106.5C 249.826,106.334 242.159,106.5 234.5,107C 233.944,107.383 233.611,107.883 233.5,108.5C 232.833,108.5 232.167,108.5 231.5,108.5C 232.506,107.604 232.506,106.938 231.5,106.5C 236.757,105.025 242.257,104.358 248,104.5C 251.683,104.501 255.183,104.835 258.5,105.5 Z"/></g>
<g><path style="opacity:1" fill="#1d1919" d="M 258.5,105.5 C 283.646,107.902 303.98,118.902 319.5,138.5C 317.343,136.588 315.009,134.921 312.5,133.5C 311.564,132.026 310.23,131.026 308.5,130.5C 307.438,128.243 305.772,127.077 303.5,127C 304.381,127.708 305.047,128.542 305.5,129.5C 304.833,129.5 304.167,129.5 303.5,129.5C 297.305,123.815 290.638,118.648 283.5,114C 275.771,110.901 267.771,109.067 259.5,108.5C 258.833,107.833 258.167,107.167 257.5,106.5C 257.5,105.833 257.833,105.5 258.5,105.5 Z"/></g>
<g><path style="opacity:1" fill="#b8312d" d="M 257.5,106.5 C 258.167,107.167 258.833,107.833 259.5,108.5C 254.926,109.809 250.26,110.809 245.5,111.5C 244.5,111.5 243.5,111.5 242.5,111.5C 239.426,110.698 236.426,109.698 233.5,108.5C 233.611,107.883 233.944,107.383 234.5,107C 242.159,106.5 249.826,106.334 257.5,106.5 Z"/></g>
<g><path style="opacity:1" fill="#fcfbfb" d="M 231.5,108.5 C 232.167,108.5 232.833,108.5 233.5,108.5C 236.426,109.698 239.426,110.698 242.5,111.5C 242.341,117.601 241.674,123.601 240.5,129.5C 238.181,129.992 236.181,130.992 234.5,132.5C 229.299,135.263 224.299,138.263 219.5,141.5C 217.147,142.34 215.147,143.674 213.5,145.5C 211.847,145.66 210.514,146.326 209.5,147.5C 206.833,147.5 204.167,147.5 201.5,147.5C 195.074,148.12 189.074,147.453 183.5,145.5C 183.5,142.833 183.5,140.167 183.5,137.5C 196.483,122.853 212.483,113.186 231.5,108.5 Z"/></g>
<g><path style="opacity:1" fill="#fbfafa" d="M 259.5,108.5 C 267.771,109.067 275.771,110.901 283.5,114C 290.638,118.648 297.305,123.815 303.5,129.5C 303.5,135.167 303.5,140.833 303.5,146.5C 292.852,147.277 282.185,147.61 271.5,147.5C 268.35,144.421 264.683,142.087 260.5,140.5C 260.027,139.094 259.027,138.427 257.5,138.5C 254.246,135.529 250.58,133.029 246.5,131C 244.845,129.556 244.178,127.722 244.5,125.5C 244.833,120.833 245.167,116.167 245.5,111.5C 250.26,110.809 254.926,109.809 259.5,108.5 Z"/></g>
<g><path style="opacity:1" fill="#171616" d="M 231.5,106.5 C 232.506,106.938 232.506,107.604 231.5,108.5C 212.483,113.186 196.483,122.853 183.5,137.5C 181.167,137.833 179.833,139.167 179.5,141.5C 178.833,141.833 178.167,142.167 177.5,142.5C 177.167,142.5 176.833,142.5 176.5,142.5C 190.022,123.34 208.355,111.34 231.5,106.5 Z"/></g>
<g><path style="opacity:1" fill="#1a1413" d="M 242.5,111.5 C 243.5,111.5 244.5,111.5 245.5,111.5C 245.167,116.167 244.833,120.833 244.5,125.5C 243.566,126.568 243.232,127.901 243.5,129.5C 242.5,129.5 241.5,129.5 240.5,129.5C 241.674,123.601 242.341,117.601 242.5,111.5 Z"/></g>
<g><path style="opacity:1" fill="#c40c0b" d="M 409.5,122.5 C 409.5,124.833 409.5,127.167 409.5,129.5C 406.203,129.329 405.869,129.995 408.5,131.5C 405.658,134.283 403.158,133.95 401,130.5C 399.23,131.276 397.397,131.11 395.5,130C 395.566,128.261 396.233,126.428 397.5,124.5C 396.023,122.361 395.023,120.028 394.5,117.5C 393.5,117.5 392.5,117.5 391.5,117.5C 384.719,107.447 378.053,97.2806 371.5,87C 363.893,90.408 355.893,92.908 347.5,94.5C 336.828,94.6665 326.161,94.4998 315.5,94C 313.381,93.9024 311.714,93.0691 310.5,91.5C 306.555,90.5091 302.555,90.1758 298.5,90.5C 298.167,90.5 297.833,90.5 297.5,90.5C 295.996,88.1644 293.996,86.331 291.5,85C 286.279,84.4577 286.279,83.6244 291.5,82.5C 289.458,81.4968 289.125,80.1634 290.5,78.5C 287.52,77.6474 286.187,78.9808 286.5,82.5C 283.955,82.8495 281.955,82.0162 280.5,80C 282.679,79.5581 283.345,78.5581 282.5,77C 284.243,75.8905 285.576,74.3905 286.5,72.5C 291.37,76.7681 297.036,79.1015 303.5,79.5C 306.267,80.7326 308.434,82.7326 310,85.5C 322.425,84.6769 334.925,84.1769 347.5,84C 348.381,83.2917 349.047,82.4584 349.5,81.5C 357.127,78.8553 364.46,75.3553 371.5,71C 375.145,70.7411 377.978,72.2411 380,75.5C 389.855,91.2228 399.688,106.889 409.5,122.5 Z"/></g>
<g><path style="opacity:1" fill="#b01616" d="M 303.5,79.5 C 318.65,83.9814 333.983,84.6481 349.5,81.5C 349.047,82.4584 348.381,83.2917 347.5,84C 334.925,84.1769 322.425,84.6769 310,85.5C 308.434,82.7326 306.267,80.7326 303.5,79.5 Z"/></g>
<g><path style="opacity:1" fill="#b11b1d" d="M 93.5,116.5 C 93.6567,117.873 93.49,119.207 93,120.5C 87.846,124.406 87.346,128.739 91.5,133.5C 86.6928,131.537 85.5261,128.203 88,123.5C 89.6971,120.98 91.5305,118.647 93.5,116.5 Z"/></g>
<g><path style="opacity:1" fill="#c4a3a0" d="M 308.5,130.5 C 307.391,130.443 306.391,130.11 305.5,129.5C 305.047,128.542 304.381,127.708 303.5,127C 305.772,127.077 307.438,128.243 308.5,130.5 Z"/></g>
<g><path style="opacity:1" fill="#b33633" d="M 303.5,129.5 C 304.167,129.5 304.833,129.5 305.5,129.5C 306.391,130.11 307.391,130.443 308.5,130.5C 310.23,131.026 311.564,132.026 312.5,133.5C 309.994,132.25 307.327,131.584 304.5,131.5C 304.221,136.595 304.555,141.595 305.5,146.5C 304.833,146.5 304.167,146.5 303.5,146.5C 303.5,140.833 303.5,135.167 303.5,129.5 Z"/></g>
<g><path style="opacity:1" fill="#b81a17" d="M 391.5,117.5 C 392.5,117.5 393.5,117.5 394.5,117.5C 395.023,120.028 396.023,122.361 397.5,124.5C 396.233,126.428 395.566,128.261 395.5,130C 397.397,131.11 399.23,131.276 401,130.5C 403.158,133.95 405.658,134.283 408.5,131.5C 405.869,129.995 406.203,129.329 409.5,129.5C 409.5,127.167 409.5,124.833 409.5,122.5C 412.699,124.978 413.199,127.978 411,131.5C 401.364,136.306 393.864,143.306 388.5,152.5C 388.993,150.194 389.326,147.861 389.5,145.5C 390.5,145.5 391.5,145.5 392.5,145.5C 392.67,144.178 392.337,143.011 391.5,142C 392.793,141.51 394.127,141.343 395.5,141.5C 395.5,140.5 395.5,139.5 395.5,138.5C 397.711,138.033 399.711,137.033 401.5,135.5C 401.333,135.167 401.167,134.833 401,134.5C 398.974,135.019 396.974,135.353 395,135.5C 393.737,133.203 391.903,132.37 389.5,133C 377.946,144.934 372.613,159.101 373.5,175.5C 373.5,170.167 373.5,164.833 373.5,159.5C 376.528,144.961 384.194,133.461 396.5,125C 394.699,122.557 393.032,120.057 391.5,117.5 Z"/></g>
<g><path style="opacity:1" fill="#d45c5c" d="M 244.5,125.5 C 244.178,127.722 244.845,129.556 246.5,131C 250.58,133.029 254.246,135.529 257.5,138.5C 253.757,140.066 250.424,139.399 247.5,136.5C 245.5,137.167 243.5,137.833 241.5,138.5C 239.137,137.319 236.803,137.319 234.5,138.5C 229.292,137.182 229.292,135.682 234.5,134C 235.738,133.31 235.738,132.81 234.5,132.5C 236.181,130.992 238.181,129.992 240.5,129.5C 241.5,129.5 242.5,129.5 243.5,129.5C 243.232,127.901 243.566,126.568 244.5,125.5 Z"/></g>
<g><path style="opacity:1" fill="#d23e3e" d="M 234.5,132.5 C 235.738,132.81 235.738,133.31 234.5,134C 229.292,135.682 229.292,137.182 234.5,138.5C 236.803,137.319 239.137,137.319 241.5,138.5C 243.5,137.833 245.5,137.167 247.5,136.5C 250.424,139.399 253.757,140.066 257.5,138.5C 259.027,138.427 260.027,139.094 260.5,140.5C 259.687,142.261 258.687,143.928 257.5,145.5C 255.952,145.179 255.285,144.179 255.5,142.5C 247.18,143.832 238.847,143.832 230.5,142.5C 228.202,142.732 226.035,143.399 224,144.5C 222.877,142.9 221.377,141.9 219.5,141.5C 224.299,138.263 229.299,135.263 234.5,132.5 Z"/></g>
<g><path style="opacity:1" fill="#4f1616" d="M 322.5,142.5 C 325.164,144.484 326.831,147.151 327.5,150.5C 325.336,148.178 323.669,145.511 322.5,142.5 Z"/></g>
<g><path style="opacity:1" fill="#cb1f1e" d="M 219.5,141.5 C 221.377,141.9 222.877,142.9 224,144.5C 226.035,143.399 228.202,142.732 230.5,142.5C 238.847,143.832 247.18,143.832 255.5,142.5C 255.285,144.179 255.952,145.179 257.5,145.5C 257.64,147.124 256.973,148.29 255.5,149C 244.836,149.167 234.169,149.001 223.5,148.5C 223.719,149.675 223.386,150.675 222.5,151.5C 220.673,149.513 219.673,147.179 219.5,144.5C 217.435,144.517 215.435,144.85 213.5,145.5C 215.147,143.674 217.147,142.34 219.5,141.5 Z"/></g>
<g><path style="opacity:1" fill="#4a4545" d="M 183.5,145.5 C 189.074,147.453 195.074,148.12 201.5,147.5C 195.355,148.49 189.022,148.823 182.5,148.5C 182.263,147.209 182.596,146.209 183.5,145.5 Z"/></g>
<g><path style="opacity:1" fill="#1a1717" d="M 303.5,146.5 C 304.167,146.5 304.833,146.5 305.5,146.5C 305.5,147.833 305.5,149.167 305.5,150.5C 294.247,150.025 282.913,150.025 271.5,150.5C 271.5,149.5 271.5,148.5 271.5,147.5C 282.185,147.61 292.852,147.277 303.5,146.5 Z"/></g>
<g><path style="opacity:1" fill="#080303" d="M 201.5,147.5 C 204.167,147.5 206.833,147.5 209.5,147.5C 209.5,148.5 209.5,149.5 209.5,150.5C 200.083,150.195 190.75,150.528 181.5,151.5C 181.263,150.209 181.596,149.209 182.5,148.5C 189.022,148.823 195.355,148.49 201.5,147.5 Z"/></g>
<g><path style="opacity:1" fill="#c60b0b" d="M 260.5,140.5 C 264.683,142.087 268.35,144.421 271.5,147.5C 271.5,148.5 271.5,149.5 271.5,150.5C 268.461,160.962 264.461,170.962 259.5,180.5C 257.517,180.157 256.183,180.824 255.5,182.5C 253.833,182.5 252.167,182.5 250.5,182.5C 250.5,181.167 250.5,179.833 250.5,178.5C 240.773,177.855 231.106,176.855 221.5,175.5C 221.719,176.675 221.386,177.675 220.5,178.5C 218.589,172 216.089,165.667 213,159.5C 210.895,154.68 211.062,150.013 213.5,145.5C 215.435,144.85 217.435,144.517 219.5,144.5C 219.673,147.179 220.673,149.513 222.5,151.5C 223.386,150.675 223.719,149.675 223.5,148.5C 234.169,149.001 244.836,149.167 255.5,149C 256.973,148.29 257.64,147.124 257.5,145.5C 258.687,143.928 259.687,142.261 260.5,140.5 Z"/></g>
<g><path style="opacity:1" fill="#fdfcfb" d="M 305.5,150.5 C 310.731,161.297 316.731,171.631 323.5,181.5C 318.56,192.38 313.894,203.38 309.5,214.5C 303.5,214.5 297.5,214.5 291.5,214.5C 287.069,214.769 282.735,214.436 278.5,213.5C 272.557,203.717 266.39,194.05 260,184.5C 259.517,183.552 259.351,182.552 259.5,181.5C 259.5,181.167 259.5,180.833 259.5,180.5C 264.461,170.962 268.461,160.962 271.5,150.5C 282.913,150.025 294.247,150.025 305.5,150.5 Z"/></g>
<g><path style="opacity:1" fill="#fcfbfb" d="M 209.5,150.5 C 211.726,160.404 214.726,170.071 218.5,179.5C 218.833,180.167 219.167,180.833 219.5,181.5C 213.512,192.139 207.512,202.806 201.5,213.5C 193.174,213.024 184.84,212.691 176.5,212.5C 173.03,202.091 169.364,191.758 165.5,181.5C 166.471,179.517 167.471,177.517 168.5,175.5C 169.6,174.395 170.267,173.062 170.5,171.5C 174.685,165.13 178.352,158.464 181.5,151.5C 190.75,150.528 200.083,150.195 209.5,150.5 Z"/></g>
<g><path style="opacity:1" fill="#471a1b" d="M 327.5,150.5 C 330.207,153.247 331.873,156.58 332.5,160.5C 330.326,157.485 328.659,154.151 327.5,150.5 Z"/></g>
<g><path style="opacity:1" fill="#bf2e2b" d="M 183.5,137.5 C 183.5,140.167 183.5,142.833 183.5,145.5C 182.596,146.209 182.263,147.209 182.5,148.5C 181.596,149.209 181.263,150.209 181.5,151.5C 178.352,158.464 174.685,165.13 170.5,171.5C 170.81,167.732 171.643,164.065 173,160.5C 173.333,160.833 173.667,161.167 174,161.5C 174.333,160.5 174.667,159.5 175,158.5C 175.333,158.833 175.667,159.167 176,159.5C 176.483,158.552 176.649,157.552 176.5,156.5C 175.022,156.238 173.689,156.571 172.5,157.5C 170.058,158.934 168.392,160.934 167.5,163.5C 167.53,160.148 168.863,157.482 171.5,155.5C 176.358,152 179.025,147.333 179.5,141.5C 179.833,139.167 181.167,137.833 183.5,137.5 Z"/></g>
<g><path style="opacity:1" fill="#bf5252" d="M 179.5,141.5 C 179.025,147.333 176.358,152 171.5,155.5C 172.59,150.744 174.59,146.411 177.5,142.5C 178.167,142.167 178.833,141.833 179.5,141.5 Z"/></g>
<g><path style="opacity:1" fill="#502b27" d="M 176.5,142.5 C 176.833,142.5 177.167,142.5 177.5,142.5C 174.59,146.411 172.59,150.744 171.5,155.5C 168.863,157.482 167.53,160.148 167.5,163.5C 166.503,163.47 165.836,163.97 165.5,165C 164.433,168.716 163.099,172.216 161.5,175.5C 161.5,175.167 161.5,174.833 161.5,174.5C 162.964,167.941 165.131,161.607 168,155.5C 170.303,150.721 173.136,146.387 176.5,142.5 Z"/></g>
<g><path style="opacity:1" fill="#c20e0d" d="M 312.5,133.5 C 315.009,134.921 317.343,136.588 319.5,138.5C 321.262,139.262 322.262,140.596 322.5,142.5C 323.669,145.511 325.336,148.178 327.5,150.5C 328.659,154.151 330.326,157.485 332.5,160.5C 332.345,163.716 333.345,166.383 335.5,168.5C 335.351,171.607 335.851,174.607 337,177.5C 337.464,176.906 337.631,176.239 337.5,175.5C 337.833,175.5 338.167,175.5 338.5,175.5C 338.5,176.5 338.5,177.5 338.5,178.5C 337.599,179.29 336.932,180.29 336.5,181.5C 333.167,181.5 329.833,181.5 326.5,181.5C 325.5,181.5 324.5,181.5 323.5,181.5C 316.731,171.631 310.731,161.297 305.5,150.5C 305.5,149.167 305.5,147.833 305.5,146.5C 304.555,141.595 304.221,136.595 304.5,131.5C 307.327,131.584 309.994,132.25 312.5,133.5 Z"/></g>
<g><path style="opacity:1" fill="#c61413" d="M 170.5,171.5 C 170.267,173.062 169.6,174.395 168.5,175.5C 167.417,175.539 166.417,175.873 165.5,176.5C 165.167,175.5 164.833,174.5 164.5,173.5C 165.867,170.255 166.867,166.922 167.5,163.5C 168.392,160.934 170.058,158.934 172.5,157.5C 173.689,156.571 175.022,156.238 176.5,156.5C 176.649,157.552 176.483,158.552 176,159.5C 175.667,159.167 175.333,158.833 175,158.5C 174.667,159.5 174.333,160.5 174,161.5C 173.667,161.167 173.333,160.833 173,160.5C 171.643,164.065 170.81,167.732 170.5,171.5 Z"/></g>
<g><path style="opacity:1" fill="#551413" d="M 332.5,160.5 C 334.267,162.792 335.267,165.458 335.5,168.5C 333.345,166.383 332.345,163.716 332.5,160.5 Z"/></g>
<g><path style="opacity:1" fill="#ed9295" d="M 125.5,161.5 C 126.485,165.634 126.818,169.968 126.5,174.5C 138.167,174.5 149.833,174.5 161.5,174.5C 161.5,174.833 161.5,175.167 161.5,175.5C 160.833,175.5 160.167,175.5 159.5,175.5C 148.167,175.5 136.833,175.5 125.5,175.5C 125.5,170.833 125.5,166.167 125.5,161.5 Z"/></g>
<g><path style="opacity:1" fill="#4a1214" d="M 335.5,168.5 C 336.738,170.214 337.405,172.214 337.5,174.5C 337.5,174.833 337.5,175.167 337.5,175.5C 337.631,176.239 337.464,176.906 337,177.5C 335.851,174.607 335.351,171.607 335.5,168.5 Z"/></g>
<g><path style="opacity:1" fill="#eb9193" d="M 373.5,159.5 C 373.5,164.833 373.5,170.167 373.5,175.5C 361.833,175.5 350.167,175.5 338.5,175.5C 338.167,175.5 337.833,175.5 337.5,175.5C 337.5,175.167 337.5,174.833 337.5,174.5C 349.167,174.5 360.833,174.5 372.5,174.5C 372.179,169.305 372.513,164.305 373.5,159.5 Z"/></g>
<g><path style="opacity:1" fill="#b11718" d="M 387.5,155.5 C 385.099,166.644 385.765,177.644 389.5,188.5C 388.85,188.196 388.183,187.863 387.5,187.5C 383.701,178.389 382.867,169.056 385,159.5C 385.608,157.934 386.442,156.6 387.5,155.5 Z"/></g>
<g><path style="opacity:1" fill="#c50d0c" d="M 104.5,121.5 C 103.972,122.721 103.305,123.887 102.5,125C 115.15,134.155 122.816,146.321 125.5,161.5C 125.5,166.167 125.5,170.833 125.5,175.5C 125.5,175.833 125.5,176.167 125.5,176.5C 121.318,194.544 115.651,212.044 108.5,229C 109.448,229.483 110.448,229.649 111.5,229.5C 111.5,229.833 111.5,230.167 111.5,230.5C 110.833,230.5 110.167,230.5 109.5,230.5C 105.167,231.167 100.833,231.833 96.5,232.5C 96.9926,230.194 97.3259,227.861 97.5,225.5C 101.556,212.832 105.723,200.165 110,187.5C 118.023,164.395 111.856,146.395 91.5,133.5C 87.346,128.739 87.846,124.406 93,120.5C 93.49,119.207 93.6567,117.873 93.5,116.5C 95.5,116.5 97.5,116.5 99.5,116.5C 99.888,113.121 100.555,109.788 101.5,106.5C 103.923,105.288 104.923,103.288 104.5,100.5C 107.903,99.315 110.903,100.148 113.5,103C 112.833,103.333 112.167,103.667 111.5,104C 111.847,107.818 110.347,110.984 107,113.5C 105.39,115.939 104.556,118.606 104.5,121.5 Z"/></g>
<g><path style="opacity:1" fill="#fe3131" d="M 125.5,176.5 C 136.5,176.5 147.5,176.5 158.5,176.5C 158.334,186.839 158.5,197.172 159,207.5C 159.037,209.974 159.87,211.974 161.5,213.5C 161.5,214.5 161.5,215.5 161.5,216.5C 161.5,217.833 161.5,219.167 161.5,220.5C 158.15,220.335 154.817,220.502 151.5,221C 150.584,221.278 149.918,221.778 149.5,222.5C 136.347,222.799 123.68,225.132 111.5,229.5C 110.448,229.649 109.448,229.483 108.5,229C 115.651,212.044 121.318,194.544 125.5,176.5 Z"/></g>
<g><path style="opacity:1" fill="#aa1514" d="M 167.5,163.5 C 166.867,166.922 165.867,170.255 164.5,173.5C 164.833,174.5 165.167,175.5 165.5,176.5C 166.417,175.873 167.417,175.539 168.5,175.5C 167.471,177.517 166.471,179.517 165.5,181.5C 163.766,182.562 162.099,182.562 160.5,181.5C 160.675,179.379 160.341,177.379 159.5,175.5C 160.167,175.5 160.833,175.5 161.5,175.5C 163.099,172.216 164.433,168.716 165.5,165C 165.836,163.97 166.503,163.47 167.5,163.5 Z"/></g>
<g><path style="opacity:1" fill="#fd3130" d="M 373.5,176.5 C 377.669,194.506 383.336,212.006 390.5,229C 389.906,229.464 389.239,229.631 388.5,229.5C 382.417,227.815 376.417,226.148 370.5,224.5C 369.4,223.442 368.066,222.608 366.5,222C 357.931,220.975 349.431,219.808 341,218.5C 340.5,204.504 340.333,190.504 340.5,176.5C 351.5,176.5 362.5,176.5 373.5,176.5 Z"/></g>
<g><path style="opacity:1" fill="#c42524" d="M 213.5,145.5 C 211.062,150.013 210.895,154.68 213,159.5C 216.089,165.667 218.589,172 220.5,178.5C 221.386,177.675 221.719,176.675 221.5,175.5C 231.106,176.855 240.773,177.855 250.5,178.5C 250.5,179.833 250.5,181.167 250.5,182.5C 252.167,182.5 253.833,182.5 255.5,182.5C 254.551,183.152 253.385,183.486 252,183.5C 249.293,182.798 246.793,181.631 244.5,180C 238.742,179.692 233.075,178.858 227.5,177.5C 224.494,178.179 221.494,178.846 218.5,179.5C 214.726,170.071 211.726,160.404 209.5,150.5C 209.5,149.5 209.5,148.5 209.5,147.5C 210.514,146.326 211.847,145.66 213.5,145.5 Z"/></g>
<g><path style="opacity:1" fill="#c94644" d="M 255.5,182.5 C 256.183,180.824 257.517,180.157 259.5,180.5C 259.5,180.833 259.5,181.167 259.5,181.5C 257.5,181.5 256.5,182.5 256.5,184.5C 244.833,184.5 233.167,184.5 221.5,184.5C 222.491,182.877 221.824,181.877 219.5,181.5C 219.167,180.833 218.833,180.167 218.5,179.5C 221.494,178.846 224.494,178.179 227.5,177.5C 233.075,178.858 238.742,179.692 244.5,180C 246.793,181.631 249.293,182.798 252,183.5C 253.385,183.486 254.551,183.152 255.5,182.5 Z"/></g>
<g><path style="opacity:1" fill="#f8f6f5" d="M 326.5,181.5 C 329.833,181.5 333.167,181.5 336.5,181.5C 337.017,185.808 337.351,190.141 337.5,194.5C 337.019,202.57 336.019,210.57 334.5,218.5C 326.9,218.468 319.566,217.468 312.5,215.5C 316.973,204.081 321.639,192.748 326.5,181.5 Z"/></g>
<g><path style="opacity:1" fill="#171515" d="M 219.5,181.5 C 221.824,181.877 222.491,182.877 221.5,184.5C 215.752,194.997 209.752,205.33 203.5,215.5C 202.167,215.5 201.5,214.833 201.5,213.5C 207.512,202.806 213.512,192.139 219.5,181.5 Z"/></g>
<g><path style="opacity:1" fill="#fdfbfa" d="M 221.5,184.5 C 233.167,184.5 244.833,184.5 256.5,184.5C 262.598,194.374 268.931,204.041 275.5,213.5C 251.659,214.261 227.659,214.928 203.5,215.5C 209.752,205.33 215.752,194.997 221.5,184.5 Z"/></g>
<g><path style="opacity:1" fill="#c70a0a" d="M 388.5,152.5 C 388.737,153.791 388.404,154.791 387.5,155.5C 386.442,156.6 385.608,157.934 385,159.5C 382.867,169.056 383.701,178.389 387.5,187.5C 388.183,187.863 388.85,188.196 389.5,188.5C 392.572,199.05 396.239,209.383 400.5,219.5C 399.876,219.917 399.543,220.584 399.5,221.5C 400.969,225.043 401.969,228.709 402.5,232.5C 400.167,232.5 397.833,232.5 395.5,232.5C 393.412,230.98 391.078,229.98 388.5,229.5C 389.239,229.631 389.906,229.464 390.5,229C 383.336,212.006 377.669,194.506 373.5,176.5C 373.5,176.167 373.5,175.833 373.5,175.5C 372.613,159.101 377.946,144.934 389.5,133C 391.903,132.37 393.737,133.203 395,135.5C 396.974,135.353 398.974,135.019 401,134.5C 401.167,134.833 401.333,135.167 401.5,135.5C 399.711,137.033 397.711,138.033 395.5,138.5C 395.5,139.5 395.5,140.5 395.5,141.5C 394.127,141.343 392.793,141.51 391.5,142C 392.337,143.011 392.67,144.178 392.5,145.5C 391.5,145.5 390.5,145.5 389.5,145.5C 389.326,147.861 388.993,150.194 388.5,152.5 Z"/></g>
<g><path style="opacity:1" fill="#151413" d="M 323.5,181.5 C 324.5,181.5 325.5,181.5 326.5,181.5C 321.639,192.748 316.973,204.081 312.5,215.5C 311.105,216.815 310.105,216.481 309.5,214.5C 313.894,203.38 318.56,192.38 323.5,181.5 Z"/></g>
<g><path style="opacity:1" fill="#f5f4f3" d="M 174.5,213.5 C 174.5,214.833 174.5,216.167 174.5,217.5C 171.018,217.828 167.685,217.828 164.5,217.5C 162.55,206.592 162.05,195.592 163,184.5C 166.887,194.255 170.721,203.922 174.5,213.5 Z"/></g>
<g><path style="opacity:1" fill="#d13a39" d="M 125.5,176.5 C 125.5,176.167 125.5,175.833 125.5,175.5C 136.833,175.5 148.167,175.5 159.5,175.5C 160.341,177.379 160.675,179.379 160.5,181.5C 159.131,192.082 159.464,202.749 161.5,213.5C 159.87,211.974 159.037,209.974 159,207.5C 158.5,197.172 158.334,186.839 158.5,176.5C 147.5,176.5 136.5,176.5 125.5,176.5 Z"/></g>
<g><path style="opacity:1" fill="#191717" d="M 259.5,181.5 C 259.351,182.552 259.517,183.552 260,184.5C 266.39,194.05 272.557,203.717 278.5,213.5C 277.652,214.625 276.652,214.625 275.5,213.5C 268.931,204.041 262.598,194.374 256.5,184.5C 256.5,182.5 257.5,181.5 259.5,181.5 Z"/></g>
<g><path style="opacity:1" fill="#221615" d="M 160.5,181.5 C 162.099,182.562 163.766,182.562 165.5,181.5C 169.364,191.758 173.03,202.091 176.5,212.5C 175.833,212.833 175.167,213.167 174.5,213.5C 170.721,203.922 166.887,194.255 163,184.5C 162.05,195.592 162.55,206.592 164.5,217.5C 164.44,218.043 164.107,218.376 163.5,218.5C 162.818,217.757 162.151,217.091 161.5,216.5C 161.5,215.5 161.5,214.5 161.5,213.5C 159.464,202.749 159.131,192.082 160.5,181.5 Z"/></g>
<g><path style="opacity:1" fill="#1f0f0e" d="M 338.5,178.5 C 339.421,188.127 339.755,197.794 339.5,207.5C 338.239,210.258 337.406,213.258 337,216.5C 336.583,217.756 335.75,218.423 334.5,218.5C 336.019,210.57 337.019,202.57 337.5,194.5C 337.351,190.141 337.017,185.808 336.5,181.5C 336.932,180.29 337.599,179.29 338.5,178.5 Z"/></g>
<g><path style="opacity:1" fill="#ba1d1b" d="M 176.5,212.5 C 184.84,212.691 193.174,213.024 201.5,213.5C 201.5,214.833 202.167,215.5 203.5,215.5C 203.5,216.167 203.833,216.5 204.5,216.5C 204.5,216.833 204.5,217.167 204.5,217.5C 202.833,217.5 201.167,217.5 199.5,217.5C 191.986,217.796 184.653,218.462 177.5,219.5C 175.833,219.5 174.167,219.5 172.5,219.5C 173.167,218.833 173.833,218.167 174.5,217.5C 174.5,216.167 174.5,214.833 174.5,213.5C 175.167,213.167 175.833,212.833 176.5,212.5 Z"/></g>
<g><path style="opacity:1" fill="#95403d" d="M 275.5,213.5 C 276.652,214.625 277.652,214.625 278.5,213.5C 282.735,214.436 287.069,214.769 291.5,214.5C 287.5,215.167 283.5,215.833 279.5,216.5C 254.5,216.5 229.5,216.5 204.5,216.5C 203.833,216.5 203.5,216.167 203.5,215.5C 227.659,214.928 251.659,214.261 275.5,213.5 Z"/></g>
<g><path style="opacity:1" fill="#fde6e6" d="M 204.5,217.5 C 204.5,217.167 204.5,216.833 204.5,216.5C 229.5,216.5 254.5,216.5 279.5,216.5C 296.493,217.306 313.493,218.473 330.5,220C 334.988,220.76 339.322,221.594 343.5,222.5C 338.971,222.761 334.471,223.095 330,223.5C 329.626,222.584 329.126,221.75 328.5,221C 287.285,217.966 245.952,216.8 204.5,217.5 Z"/></g>
<g><path style="opacity:1" fill="#fefdfd" d="M 199.5,217.5 C 201.167,217.5 202.833,217.5 204.5,217.5C 245.952,216.8 287.285,217.966 328.5,221C 329.126,221.75 329.626,222.584 330,223.5C 334.471,223.095 338.971,222.761 343.5,222.5C 361.03,224.787 378.364,228.121 395.5,232.5C 404.31,235.619 412.977,239.452 421.5,244C 427.955,247.941 432.289,253.441 434.5,260.5C 434.83,278.674 434.497,296.674 433.5,314.5C 429.675,309.515 425.008,305.348 419.5,302C 406.707,295.637 393.374,290.803 379.5,287.5C 355.382,282.731 331.049,279.398 306.5,277.5C 303.797,276.037 300.797,275.204 297.5,275C 281,274.833 264.5,274.667 248,274.5C 231.153,274.5 214.653,275.167 198.5,276.5C 168.374,277.974 138.707,282.474 109.5,290C 102.351,292.191 95.3508,294.691 88.5,297.5C 82.364,300.067 76.6973,303.4 71.5,307.5C 68.8324,309.336 66.6657,311.669 65,314.5C 64.3333,295.5 64.3333,276.5 65,257.5C 68.8333,251 74,245.833 80.5,242C 89.8978,237.261 99.5644,233.428 109.5,230.5C 110.167,230.5 110.833,230.5 111.5,230.5C 124.157,227.176 136.823,224.51 149.5,222.5C 157.336,221.793 165.003,220.793 172.5,219.5C 174.167,219.5 175.833,219.5 177.5,219.5C 184.175,219.666 190.842,219.5 197.5,219C 198.416,218.722 199.082,218.222 199.5,217.5 Z"/></g>
<g><path style="opacity:1" fill="#fcd2d2" d="M 199.5,217.5 C 199.082,218.222 198.416,218.722 197.5,219C 190.842,219.5 184.175,219.666 177.5,219.5C 184.653,218.462 191.986,217.796 199.5,217.5 Z"/></g>
<g><path style="opacity:1" fill="#ab312e" d="M 339.5,207.5 C 339.77,211.85 339.103,216.017 337.5,220C 348.662,221.095 359.662,222.595 370.5,224.5C 376.417,226.148 382.417,227.815 388.5,229.5C 391.078,229.98 393.412,230.98 395.5,232.5C 378.364,228.121 361.03,224.787 343.5,222.5C 339.322,221.594 334.988,220.76 330.5,220C 313.493,218.473 296.493,217.306 279.5,216.5C 283.5,215.833 287.5,215.167 291.5,214.5C 297.5,214.5 303.5,214.5 309.5,214.5C 310.105,216.481 311.105,216.815 312.5,215.5C 319.566,217.468 326.9,218.468 334.5,218.5C 335.75,218.423 336.583,217.756 337,216.5C 337.406,213.258 338.239,210.258 339.5,207.5 Z"/></g>
<g><path style="opacity:1" fill="#a83938" d="M 161.5,216.5 C 162.151,217.091 162.818,217.757 163.5,218.5C 164.107,218.376 164.44,218.043 164.5,217.5C 167.685,217.828 171.018,217.828 174.5,217.5C 173.833,218.167 173.167,218.833 172.5,219.5C 165.003,220.793 157.336,221.793 149.5,222.5C 149.918,221.778 150.584,221.278 151.5,221C 154.817,220.502 158.15,220.335 161.5,220.5C 161.5,219.167 161.5,217.833 161.5,216.5 Z"/></g>
<g><path style="opacity:1" fill="#eb3837" d="M 338.5,175.5 C 350.167,175.5 361.833,175.5 373.5,175.5C 373.5,175.833 373.5,176.167 373.5,176.5C 362.5,176.5 351.5,176.5 340.5,176.5C 340.333,190.504 340.5,204.504 341,218.5C 349.431,219.808 357.931,220.975 366.5,222C 368.066,222.608 369.4,223.442 370.5,224.5C 359.662,222.595 348.662,221.095 337.5,220C 339.103,216.017 339.77,211.85 339.5,207.5C 339.755,197.794 339.421,188.127 338.5,178.5C 338.5,177.5 338.5,176.5 338.5,175.5 Z"/></g>
<g><path style="opacity:1" fill="#b52d28" d="M 149.5,222.5 C 136.823,224.51 124.157,227.176 111.5,230.5C 111.5,230.167 111.5,229.833 111.5,229.5C 123.68,225.132 136.347,222.799 149.5,222.5 Z"/></g>
<g><path style="opacity:1" fill="#af332e" d="M 97.5,225.5 C 97.3259,227.861 96.9926,230.194 96.5,232.5C 100.833,231.833 105.167,231.167 109.5,230.5C 99.5644,233.428 89.8978,237.261 80.5,242C 74,245.833 68.8333,251 65,257.5C 64.3333,276.5 64.3333,295.5 65,314.5C 66.6657,311.669 68.8324,309.336 71.5,307.5C 72.1667,307.5 72.8333,307.5 73.5,307.5C 72.8333,308.5 72.1667,309.5 71.5,310.5C 70.5,310.833 69.8333,311.5 69.5,312.5C 68.5,312.833 67.8333,313.5 67.5,314.5C 67.1667,315.167 66.8333,315.833 66.5,316.5C 64.7757,319.345 63.4423,322.345 62.5,325.5C 62.5,310.833 62.5,296.167 62.5,281.5C 60.8333,281.5 59.1667,281.5 57.5,281.5C 53.426,281.218 49.426,280.552 45.5,279.5C 42.7699,278.183 39.9365,278.183 37,279.5C 36.5017,282.817 36.335,286.15 36.5,289.5C 35.8333,290.167 35.1667,290.833 34.5,291.5C 33.2748,286.564 33.6081,281.731 35.5,277C 39.8333,276.333 44.1667,276.333 48.5,277C 52.7823,278.157 57.1157,278.99 61.5,279.5C 57.628,263.597 62.2946,251.097 75.5,242C 81.3791,238.894 87.3791,236.06 93.5,233.5C 95.0382,230.852 96.3715,228.185 97.5,225.5 Z"/></g>
<g><path style="opacity:1" fill="#fce1e0" d="M 306.5,277.5 C 300.155,277.347 293.822,277.014 287.5,276.5C 257.993,275.266 228.327,275.266 198.5,276.5C 214.653,275.167 231.153,274.5 248,274.5C 264.5,274.667 281,274.833 297.5,275C 300.797,275.204 303.797,276.037 306.5,277.5 Z"/></g>
<g><path style="opacity:1" fill="#f63535" d="M 271.5,276.5 C 287.513,277.675 303.513,279.009 319.5,280.5C 317.866,281.161 316.033,281.494 314,281.5C 307,280.833 300,280.167 293,279.5C 279.286,280.388 267.286,280.388 257,279.5C 254.106,280.78 250.939,281.446 247.5,281.5C 244.5,281.333 241.5,281.167 238.5,281C 238,280.5 237.5,280 237,279.5C 235.333,279.833 233.667,280.167 232,280.5C 230.82,279.316 229.32,278.649 227.5,278.5C 202.942,280.124 178.609,281.791 154.5,283.5C 193.086,277.133 232.086,274.799 271.5,276.5 Z"/></g>
<g><path style="opacity:1" fill="#fe3131" d="M 319.5,280.5 C 320.5,280.5 321.5,280.5 322.5,280.5C 324.811,282.068 327.478,282.902 330.5,283C 338.384,283.376 346.217,284.209 354,285.5C 359.31,287.565 364.81,289.232 370.5,290.5C 371.167,290.167 371.833,289.833 372.5,289.5C 374.029,291.707 374.695,294.207 374.5,297C 374.167,298.833 373.833,300.667 373.5,302.5C 371.303,304.528 369.303,306.695 367.5,309C 369.967,312.405 371.3,311.905 371.5,307.5C 372.833,307.5 374.167,307.5 375.5,307.5C 375.156,314.082 375.823,320.416 377.5,326.5C 377.925,329.119 378.925,331.453 380.5,333.5C 367.967,346.849 353.301,357.349 336.5,365C 315.372,374.064 294.372,383.398 273.5,393C 264.489,398.669 256.489,405.502 249.5,413.5C 241.903,405.072 233.236,397.906 223.5,392C 202.238,382.707 180.904,373.373 159.5,364C 144.302,356.302 130.635,346.469 118.5,334.5C 119.32,332.86 120.153,331.193 121,329.5C 121.5,315.837 121.667,302.171 121.5,288.5C 132.417,286.292 143.417,284.625 154.5,283.5C 178.609,281.791 202.942,280.124 227.5,278.5C 229.32,278.649 230.82,279.316 232,280.5C 233.667,280.167 235.333,279.833 237,279.5C 237.5,280 238,280.5 238.5,281C 241.5,281.167 244.5,281.333 247.5,281.5C 250.939,281.446 254.106,280.78 257,279.5C 267.286,280.388 279.286,280.388 293,279.5C 300,280.167 307,280.833 314,281.5C 316.033,281.494 317.866,281.161 319.5,280.5 Z"/></g>
<g><path style="opacity:1" fill="#fdfbfa" d="M 45.5,279.5 C 49.426,280.552 53.426,281.218 57.5,281.5C 58.5676,282.434 59.901,282.768 61.5,282.5C 61.1706,297.676 61.5039,312.676 62.5,327.5C 62.8333,331.167 64.8333,333.167 68.5,333.5C 71.1873,333.664 73.854,333.497 76.5,333C 88.4155,328.54 100.415,324.373 112.5,320.5C 115.079,320.394 117.412,321.061 119.5,322.5C 120.859,328.961 118.525,333.461 112.5,336C 107.682,337.869 102.682,338.869 97.5,339C 89.8406,339.5 82.1739,339.666 74.5,339.5C 68.3923,338.077 62.0589,337.411 55.5,337.5C 50.2328,337.287 45.2328,337.954 40.5,339.5C 39.8333,339.5 39.1667,339.5 38.5,339.5C 37.3377,320.338 37.171,301.004 38,281.5C 40.1354,279.722 42.6354,279.055 45.5,279.5 Z"/></g>
<g><path style="opacity:1" fill="#ef8688" d="M 57.5,281.5 C 59.1667,281.5 60.8333,281.5 62.5,281.5C 62.5,296.167 62.5,310.833 62.5,325.5C 62.5,326.167 62.5,326.833 62.5,327.5C 61.5039,312.676 61.1706,297.676 61.5,282.5C 59.901,282.768 58.5676,282.434 57.5,281.5 Z"/></g>
<g><path style="opacity:1" fill="#d48585" d="M 434.5,260.5 C 435.833,279.167 435.833,297.833 434.5,316.5C 434.167,315.833 433.833,315.167 433.5,314.5C 434.497,296.674 434.83,278.674 434.5,260.5 Z"/></g>
<g><path style="opacity:1" fill="#fec5c6" d="M 45.5,279.5 C 42.6354,279.055 40.1354,279.722 38,281.5C 37.171,301.004 37.3377,320.338 38.5,339.5C 38.1583,340.338 37.4916,340.672 36.5,340.5C 36.5,323.5 36.5,306.5 36.5,289.5C 36.335,286.15 36.5017,282.817 37,279.5C 39.9365,278.183 42.7699,278.183 45.5,279.5 Z"/></g>
<g><path style="opacity:1" fill="#d59494" d="M 111.5,291.5 C 111.173,300.682 111.507,309.682 112.5,318.5C 112.5,318.833 112.5,319.167 112.5,319.5C 110.5,319.5 108.5,319.5 106.5,319.5C 106.5,310.833 106.5,302.167 106.5,293.5C 108.167,292.833 109.833,292.167 111.5,291.5 Z"/></g>
<g><path style="opacity:1" fill="#eac7c6" d="M 111.5,291.5 C 112.167,291.5 112.833,291.5 113.5,291.5C 113.827,300.682 113.493,309.682 112.5,318.5C 111.507,309.682 111.173,300.682 111.5,291.5 Z"/></g>
<g><path style="opacity:1" fill="#fef3ef" d="M 117.5,290.5 C 119.473,299.775 120.14,309.442 119.5,319.5C 117.527,310.225 116.86,300.558 117.5,290.5 Z"/></g>
<g><path style="opacity:1" fill="#ffe3e4" d="M 100.5,295.5 C 100.832,304.525 100.498,313.525 99.5,322.5C 98.502,313.859 98.1686,305.192 98.5,296.5C 98.8417,295.662 99.5084,295.328 100.5,295.5 Z"/></g>
<g><path style="opacity:1" fill="#fff1f0" d="M 103.5,294.5 C 103.5,303.5 103.5,312.5 103.5,321.5C 101.53,313.231 100.864,304.565 101.5,295.5C 101.842,294.662 102.508,294.328 103.5,294.5 Z"/></g>
<g><path style="opacity:1" fill="#e18b8a" d="M 92.5,298.5 C 93.209,297.596 94.209,297.263 95.5,297.5C 95.5,306.167 95.5,314.833 95.5,323.5C 94.8333,323.833 94.1667,324.167 93.5,324.5C 93.8264,315.651 93.493,306.984 92.5,298.5 Z"/></g>
<g><path style="opacity:1" fill="#ffd0d2" d="M 116.5,290.5 C 116.832,299.857 116.498,309.19 115.5,318.5C 114.502,309.525 114.168,300.525 114.5,291.5C 114.842,290.662 115.508,290.328 116.5,290.5 Z"/></g>
<g><path style="opacity:1" fill="#f63837" d="M 322.5,280.5 C 340.746,281.987 358.746,284.82 376.5,289C 377.489,301.42 377.822,313.92 377.5,326.5C 375.823,320.416 375.156,314.082 375.5,307.5C 374.167,307.5 372.833,307.5 371.5,307.5C 371.3,311.905 369.967,312.405 367.5,309C 369.303,306.695 371.303,304.528 373.5,302.5C 373.833,300.667 374.167,298.833 374.5,297C 374.695,294.207 374.029,291.707 372.5,289.5C 371.833,289.833 371.167,290.167 370.5,290.5C 364.81,289.232 359.31,287.565 354,285.5C 346.217,284.209 338.384,283.376 330.5,283C 327.478,282.902 324.811,282.068 322.5,280.5 Z"/></g>
<g><path style="opacity:1" fill="#9c3f3d" d="M 88.5,297.5 C 87.4937,298.396 87.4937,299.062 88.5,299.5C 88.5,308.5 88.5,317.5 88.5,326.5C 88.5,327.167 88.1667,327.5 87.5,327.5C 86.8333,291.5 86.1667,291.5 85.5,327.5C 85.1667,327.5 84.8333,327.5 84.5,327.5C 84.8312,319.14 84.4979,310.807 83.5,302.5C 82.502,311.141 82.1686,319.808 82.5,328.5C 82.1667,328.5 81.8333,328.5 81.5,328.5C 81.8312,320.14 81.4979,311.807 80.5,303.5C 79.502,312.141 79.1686,320.808 79.5,329.5C 79.1667,329.5 78.8333,329.5 78.5,329.5C 78.831,321.472 78.4977,313.472 77.5,305.5C 76.8933,305.624 76.56,305.957 76.5,306.5C 75.609,307.11 74.609,307.443 73.5,307.5C 72.8333,307.5 72.1667,307.5 71.5,307.5C 76.6973,303.4 82.364,300.067 88.5,297.5 Z"/></g>
<g><path style="opacity:1" fill="#ffe2e3" d="M 84.5,327.5 C 84.1583,328.338 83.4916,328.672 82.5,328.5C 82.1686,319.808 82.502,311.141 83.5,302.5C 84.4979,310.807 84.8312,319.14 84.5,327.5 Z"/></g>
<g><path style="opacity:1" fill="#ffc4c5" d="M 92.5,298.5 C 93.493,306.984 93.8264,315.651 93.5,324.5C 92.2196,325.931 90.5529,326.598 88.5,326.5C 88.5,317.5 88.5,308.5 88.5,299.5C 88.8333,299.5 89.1667,299.5 89.5,299.5C 90.1666,307.676 90.8333,316.01 91.5,324.5C 92.498,315.859 92.8314,307.192 92.5,298.5 Z"/></g>
<g><path style="opacity:1" fill="#f6d9d7" d="M 97.5,296.5 C 98.1377,305.895 97.4711,314.895 95.5,323.5C 95.5,314.833 95.5,306.167 95.5,297.5C 95.8417,296.662 96.5084,296.328 97.5,296.5 Z"/></g>
<g><path style="opacity:1" fill="#ffd9d7" d="M 105.5,293.5 C 105.833,293.5 106.167,293.5 106.5,293.5C 106.5,302.167 106.5,310.833 106.5,319.5C 106.158,320.338 105.492,320.672 104.5,320.5C 104.196,311.416 104.529,302.416 105.5,293.5 Z"/></g>
<g><path style="opacity:1" fill="#bf8a8c" d="M 89.5,299.5 C 90.209,298.596 91.209,298.263 92.5,298.5C 92.8314,307.192 92.498,315.859 91.5,324.5C 90.8333,316.01 90.1666,307.676 89.5,299.5 Z"/></g>
<g><path style="opacity:1" fill="#964645" d="M 105.5,293.5 C 104.529,302.416 104.196,311.416 104.5,320.5C 104.5,321.167 104.167,321.5 103.5,321.5C 103.5,312.5 103.5,303.5 103.5,294.5C 103.842,293.662 104.508,293.328 105.5,293.5 Z"/></g>
<g><path style="opacity:1" fill="#feeae8" d="M 81.5,328.5 C 81.1583,329.338 80.4916,329.672 79.5,329.5C 79.1686,320.808 79.502,312.141 80.5,303.5C 81.4979,311.807 81.8312,320.14 81.5,328.5 Z"/></g>
<g><path style="opacity:1" fill="#ffc4c5" d="M 78.5,329.5 C 78.1583,330.338 77.4916,330.672 76.5,330.5C 76.5,322.5 76.5,314.5 76.5,306.5C 76.56,305.957 76.8933,305.624 77.5,305.5C 78.4977,313.472 78.831,321.472 78.5,329.5 Z"/></g>
<g><path style="opacity:1" fill="#fbdfdd" d="M 87.5,327.5 C 86.8333,327.5 86.1667,327.5 85.5,327.5C 86.1667,291.5 86.8333,291.5 87.5,327.5 Z"/></g>
<g><path style="opacity:1" fill="#9a4140" d="M 116.5,290.5 C 116.833,290.5 117.167,290.5 117.5,290.5C 116.86,300.558 117.527,310.225 119.5,319.5C 119.5,320.5 119.5,321.5 119.5,322.5C 117.412,321.061 115.079,320.394 112.5,320.5C 112.5,320.167 112.5,319.833 112.5,319.5C 112.5,319.167 112.5,318.833 112.5,318.5C 113.493,309.682 113.827,300.682 113.5,291.5C 113.833,291.5 114.167,291.5 114.5,291.5C 114.168,300.525 114.502,309.525 115.5,318.5C 116.498,309.19 116.832,299.857 116.5,290.5 Z"/></g>
<g><path style="opacity:1" fill="#9a3936" d="M 36.5,289.5 C 36.5,306.5 36.5,323.5 36.5,340.5C 35.5269,342.948 35.1936,345.615 35.5,348.5C 34.5052,337.346 34.1719,326.012 34.5,314.5C 32.2646,314.795 30.2646,314.461 28.5,313.5C 30.924,313.808 33.2573,313.474 35.5,312.5C 35.3764,311.893 35.0431,311.56 34.5,311.5C 34.5,304.833 34.5,298.167 34.5,291.5C 35.1667,290.833 35.8333,290.167 36.5,289.5 Z"/></g>
<g><path style="opacity:1" fill="#9d3330" d="M 100.5,295.5 C 100.833,295.5 101.167,295.5 101.5,295.5C 100.864,304.565 101.53,313.231 103.5,321.5C 104.167,321.5 104.5,321.167 104.5,320.5C 105.492,320.672 106.158,320.338 106.5,319.5C 108.5,319.5 110.5,319.5 112.5,319.5C 112.5,319.833 112.5,320.167 112.5,320.5C 100.415,324.373 88.4155,328.54 76.5,333C 73.854,333.497 71.1873,333.664 68.5,333.5C 66.9689,332.075 67.3023,331.409 69.5,331.5C 70.1667,331.5 70.8333,331.5 71.5,331.5C 73.2915,331.634 74.9582,331.301 76.5,330.5C 77.4916,330.672 78.1583,330.338 78.5,329.5C 78.8333,329.5 79.1667,329.5 79.5,329.5C 80.4916,329.672 81.1583,329.338 81.5,328.5C 81.8333,328.5 82.1667,328.5 82.5,328.5C 83.4916,328.672 84.1583,328.338 84.5,327.5C 84.8333,327.5 85.1667,327.5 85.5,327.5C 86.1667,327.5 86.8333,327.5 87.5,327.5C 88.1667,327.5 88.5,327.167 88.5,326.5C 90.5529,326.598 92.2196,325.931 93.5,324.5C 94.1667,324.167 94.8333,323.833 95.5,323.5C 97.4711,314.895 98.1377,305.895 97.5,296.5C 97.8333,296.5 98.1667,296.5 98.5,296.5C 98.1686,305.192 98.502,313.859 99.5,322.5C 100.498,313.525 100.832,304.525 100.5,295.5 Z"/></g>
<g><path style="opacity:1" fill="#da9594" d="M 76.5,306.5 C 76.5,314.5 76.5,322.5 76.5,330.5C 74.9582,331.301 73.2915,331.634 71.5,331.5C 71.5,324.5 71.5,317.5 71.5,310.5C 72.1667,309.5 72.8333,308.5 73.5,307.5C 74.609,307.443 75.609,307.11 76.5,306.5 Z"/></g>
<g><path style="opacity:1" fill="#ad2d29" d="M 287.5,276.5 C 282.167,276.5 276.833,276.5 271.5,276.5C 232.086,274.799 193.086,277.133 154.5,283.5C 143.417,284.625 132.417,286.292 121.5,288.5C 121.667,302.171 121.5,315.837 121,329.5C 120.153,331.193 119.32,332.86 118.5,334.5C 114.759,336.028 111.425,338.028 108.5,340.5C 104.19,341.08 99.8566,341.414 95.5,341.5C 95.421,348.211 95.421,354.711 95.5,361C 93.2754,367.788 88.6088,371.788 81.5,373C 56.5277,377.608 32.1944,374.608 8.5,364C 7.83333,363 7.16667,362 6.5,361C 11.0948,353.144 15.4282,345.144 19.5,337C 15.5466,329.594 11.7133,322.094 8,314.5C 6.57214,309.261 8.57214,307.261 14,308.5C 20.8076,309.695 27.641,310.695 34.5,311.5C 35.0431,311.56 35.3764,311.893 35.5,312.5C 33.2573,313.474 30.924,313.808 28.5,313.5C 22.2619,311.827 15.9285,311.327 9.5,312C 13.8409,320.349 18.1742,328.682 22.5,337C 18.5544,345.059 14.2211,352.892 9.5,360.5C 12.3478,363.093 15.6811,364.926 19.5,366C 37.1268,371.254 55.1268,373.254 73.5,372C 78.9312,371.523 83.9312,369.856 88.5,367C 95.9,356.725 93.4,351.559 81,351.5C 72.1487,352.781 63.3154,354.281 54.5,356C 50.1667,356.667 45.8333,356.667 41.5,356C 38.1434,354.488 36.1434,351.988 35.5,348.5C 35.1936,345.615 35.5269,342.948 36.5,340.5C 37.4916,340.672 38.1583,340.338 38.5,339.5C 39.1667,339.5 39.8333,339.5 40.5,339.5C 40.5,340.167 40.8333,340.5 41.5,340.5C 41.5,340.833 41.5,341.167 41.5,341.5C 40.209,341.263 39.209,341.596 38.5,342.5C 37.0069,343.312 36.3402,344.645 36.5,346.5C 36.4357,348.557 37.1024,350.223 38.5,351.5C 38.9731,352.906 39.9731,353.573 41.5,353.5C 42.1667,354.833 42.8333,354.833 43.5,353.5C 43.8333,353.5 44.1667,353.5 44.5,353.5C 45.1667,354.833 45.8333,354.833 46.5,353.5C 46.8333,353.5 47.1667,353.5 47.5,353.5C 48.1667,354.833 48.8333,354.833 49.5,353.5C 49.8333,353.5 50.1667,353.5 50.5,353.5C 50.8417,354.338 51.5084,354.672 52.5,354.5C 54.2161,354.371 55.8828,354.038 57.5,353.5C 58.1667,353.5 58.8333,353.5 59.5,353.5C 60.1667,353.5 60.5,353.167 60.5,352.5C 62.4228,348.971 63.0894,344.971 62.5,340.5C 62.8333,340.5 63.1667,340.5 63.5,340.5C 63.1758,344.555 63.5091,348.555 64.5,352.5C 65.1067,352.376 65.44,352.043 65.5,351.5C 65.8333,351.5 66.1667,351.5 66.5,351.5C 67.1667,351.5 67.8333,351.5 68.5,351.5C 69.791,351.737 70.791,351.404 71.5,350.5C 72.1667,350.5 72.8333,350.5 73.5,350.5C 74.7079,349.766 76.0413,349.433 77.5,349.5C 78.4767,346.713 78.81,343.713 78.5,340.5C 76.1667,340.5 73.8333,340.5 71.5,340.5C 72.209,339.596 73.209,339.263 74.5,339.5C 82.1739,339.666 89.8406,339.5 97.5,339C 102.682,338.869 107.682,337.869 112.5,336C 118.525,333.461 120.859,328.961 119.5,322.5C 119.5,321.5 119.5,320.5 119.5,319.5C 120.14,309.442 119.473,299.775 117.5,290.5C 117.167,290.5 116.833,290.5 116.5,290.5C 115.508,290.328 114.842,290.662 114.5,291.5C 114.167,291.5 113.833,291.5 113.5,291.5C 112.833,291.5 112.167,291.5 111.5,291.5C 109.833,292.167 108.167,292.833 106.5,293.5C 106.167,293.5 105.833,293.5 105.5,293.5C 104.508,293.328 103.842,293.662 103.5,294.5C 102.508,294.328 101.842,294.662 101.5,295.5C 101.167,295.5 100.833,295.5 100.5,295.5C 99.5084,295.328 98.8417,295.662 98.5,296.5C 98.1667,296.5 97.8333,296.5 97.5,296.5C 96.5084,296.328 95.8417,296.662 95.5,297.5C 94.209,297.263 93.209,297.596 92.5,298.5C 91.209,298.263 90.209,298.596 89.5,299.5C 89.1667,299.5 88.8333,299.5 88.5,299.5C 87.4937,299.062 87.4937,298.396 88.5,297.5C 95.3508,294.691 102.351,292.191 109.5,290C 138.707,282.474 168.374,277.974 198.5,276.5C 228.327,275.266 257.993,275.266 287.5,276.5 Z"/></g>
<g><path style="opacity:1" fill="#b45753" d="M 69.5,312.5 C 69.5,318.833 69.5,325.167 69.5,331.5C 67.3023,331.409 66.9689,332.075 68.5,333.5C 64.8333,333.167 62.8333,331.167 62.5,327.5C 62.5,326.833 62.5,326.167 62.5,325.5C 63.4423,322.345 64.7757,319.345 66.5,316.5C 66.1734,321.214 66.5067,325.88 67.5,330.5C 68.8147,325.014 68.8147,319.68 67.5,314.5C 67.8333,313.5 68.5,312.833 69.5,312.5 Z"/></g>
<g><path style="opacity:1" fill="#f0d0ce" d="M 71.5,310.5 C 71.5,317.5 71.5,324.5 71.5,331.5C 70.8333,331.5 70.1667,331.5 69.5,331.5C 69.5,325.167 69.5,318.833 69.5,312.5C 69.8333,311.5 70.5,310.833 71.5,310.5 Z"/></g>
<g><path style="opacity:1" fill="#ffdddd" d="M 67.5,314.5 C 68.8147,319.68 68.8147,325.014 67.5,330.5C 66.5067,325.88 66.1734,321.214 66.5,316.5C 66.8333,315.833 67.1667,315.167 67.5,314.5 Z"/></g>
<g><path style="opacity:1" fill="#fdf9f8" d="M 28.5,313.5 C 30.2646,314.461 32.2646,314.795 34.5,314.5C 34.1719,326.012 34.5052,337.346 35.5,348.5C 36.1434,351.988 38.1434,354.488 41.5,356C 45.8333,356.667 50.1667,356.667 54.5,356C 63.3154,354.281 72.1487,352.781 81,351.5C 93.4,351.559 95.9,356.725 88.5,367C 83.9312,369.856 78.9312,371.523 73.5,372C 55.1268,373.254 37.1268,371.254 19.5,366C 15.6811,364.926 12.3478,363.093 9.5,360.5C 14.2211,352.892 18.5544,345.059 22.5,337C 18.1742,328.682 13.8409,320.349 9.5,312C 15.9285,311.327 22.2619,311.827 28.5,313.5 Z"/></g>
<g><path style="opacity:1" fill="#a03e3d" d="M 74.5,339.5 C 73.209,339.263 72.209,339.596 71.5,340.5C 70.2227,341.694 69.5561,343.36 69.5,345.5C 69.5561,347.64 70.2227,349.306 71.5,350.5C 70.791,351.404 69.791,351.737 68.5,351.5C 67.8333,336.833 67.1667,336.833 66.5,351.5C 66.1667,351.5 65.8333,351.5 65.5,351.5C 65.5,347.833 65.5,344.167 65.5,340.5C 61.3656,339.515 57.0323,339.182 52.5,339.5C 50.5636,343.715 49.8969,348.381 50.5,353.5C 50.1667,353.5 49.8333,353.5 49.5,353.5C 48.8333,336.167 48.1667,336.167 47.5,353.5C 47.1667,353.5 46.8333,353.5 46.5,353.5C 45.8333,336.167 45.1667,336.167 44.5,353.5C 44.1667,353.5 43.8333,353.5 43.5,353.5C 44.0969,348.706 43.4302,344.373 41.5,340.5C 40.8333,340.5 40.5,340.167 40.5,339.5C 45.2328,337.954 50.2328,337.287 55.5,337.5C 62.0589,337.411 68.3923,338.077 74.5,339.5 Z"/></g>
<g><path style="opacity:1" fill="#e88f90" d="M 71.5,340.5 C 73.8333,340.5 76.1667,340.5 78.5,340.5C 78.81,343.713 78.4767,346.713 77.5,349.5C 77.5,346.833 77.5,344.167 77.5,341.5C 76.1667,341.5 74.8333,341.5 73.5,341.5C 73.5,344.5 73.5,347.5 73.5,350.5C 72.8333,350.5 72.1667,350.5 71.5,350.5C 71.5,347.167 71.5,343.833 71.5,340.5 Z"/></g>
<g><path style="opacity:1" fill="#d08c8a" d="M 52.5,339.5 C 57.0323,339.182 61.3656,339.515 65.5,340.5C 64.8333,340.5 64.1667,340.5 63.5,340.5C 63.1667,340.5 62.8333,340.5 62.5,340.5C 60.5772,344.029 59.9106,348.029 60.5,352.5C 60.5,353.167 60.1667,353.5 59.5,353.5C 58.8333,336.167 58.1667,336.167 57.5,353.5C 55.8828,354.038 54.2161,354.371 52.5,354.5C 52.5,349.5 52.5,344.5 52.5,339.5 Z"/></g>
<g><path style="opacity:1" fill="#fff2ed" d="M 63.5,340.5 C 64.1667,340.5 64.8333,340.5 65.5,340.5C 65.5,344.167 65.5,347.833 65.5,351.5C 65.44,352.043 65.1067,352.376 64.5,352.5C 63.5091,348.555 63.1758,344.555 63.5,340.5 Z"/></g>
<g><path style="opacity:1" fill="#c35f5f" d="M 79.5,341.5 C 83.6344,340.515 87.9677,340.182 92.5,340.5C 92.8226,344.226 92.4892,347.893 91.5,351.5C 90.8933,351.376 90.56,351.043 90.5,350.5C 90.8174,347.428 90.4841,344.428 89.5,341.5C 88.52,344.086 88.1866,346.753 88.5,349.5C 88.1667,349.5 87.8333,349.5 87.5,349.5C 86.8333,338.833 86.1667,338.833 85.5,349.5C 85.1667,349.5 84.8333,349.5 84.5,349.5C 83.8333,338.833 83.1667,338.833 82.5,349.5C 82.1667,349.5 81.8333,349.5 81.5,349.5C 82.0356,346.302 81.369,343.635 79.5,341.5 Z"/></g>
<g><path style="opacity:1" fill="#fcddda" d="M 87.5,349.5 C 86.8333,349.5 86.1667,349.5 85.5,349.5C 86.1667,338.833 86.8333,338.833 87.5,349.5 Z"/></g>
<g><path style="opacity:1" fill="#ffeff0" d="M 49.5,353.5 C 48.8333,354.833 48.1667,354.833 47.5,353.5C 48.1667,336.167 48.8333,336.167 49.5,353.5 Z"/></g>
<g><path style="opacity:1" fill="#ffdadd" d="M 84.5,349.5 C 83.8333,349.5 83.1667,349.5 82.5,349.5C 83.1667,338.833 83.8333,338.833 84.5,349.5 Z"/></g>
<g><path style="opacity:1" fill="#febbb9" d="M 90.5,350.5 C 89.8333,350.167 89.1667,349.833 88.5,349.5C 88.1866,346.753 88.52,344.086 89.5,341.5C 90.4841,344.428 90.8174,347.428 90.5,350.5 Z"/></g>
<g><path style="opacity:1" fill="#fad8d1" d="M 41.5,340.5 C 43.4302,344.373 44.0969,348.706 43.5,353.5C 42.8333,354.833 42.1667,354.833 41.5,353.5C 41.5,349.5 41.5,345.5 41.5,341.5C 41.5,341.167 41.5,340.833 41.5,340.5 Z"/></g>
<g><path style="opacity:1" fill="#deb3b1" d="M 77.5,349.5 C 76.0413,349.433 74.7079,349.766 73.5,350.5C 73.5,347.5 73.5,344.5 73.5,341.5C 74.8333,341.5 76.1667,341.5 77.5,341.5C 77.5,344.167 77.5,346.833 77.5,349.5 Z"/></g>
<g><path style="opacity:1" fill="#ffece8" d="M 79.5,341.5 C 81.369,343.635 82.0356,346.302 81.5,349.5C 79.631,347.365 78.9644,344.698 79.5,341.5 Z"/></g>
<g><path style="opacity:1" fill="#ffc8c7" d="M 52.5,339.5 C 52.5,344.5 52.5,349.5 52.5,354.5C 51.5084,354.672 50.8417,354.338 50.5,353.5C 49.8969,348.381 50.5636,343.715 52.5,339.5 Z"/></g>
<g><path style="opacity:1" fill="#ebc9c9" d="M 59.5,353.5 C 58.8333,353.5 58.1667,353.5 57.5,353.5C 58.1667,336.167 58.8333,336.167 59.5,353.5 Z"/></g>
<g><path style="opacity:1" fill="#ffd2d2" d="M 62.5,340.5 C 63.0894,344.971 62.4228,348.971 60.5,352.5C 59.9106,348.029 60.5772,344.029 62.5,340.5 Z"/></g>
<g><path style="opacity:1" fill="#da7d7e" d="M 38.5,342.5 C 38.5,345.5 38.5,348.5 38.5,351.5C 37.1024,350.223 36.4357,348.557 36.5,346.5C 36.3402,344.645 37.0069,343.312 38.5,342.5 Z"/></g>
<g><path style="opacity:1" fill="#ffdbe0" d="M 68.5,351.5 C 67.8333,351.5 67.1667,351.5 66.5,351.5C 67.1667,336.833 67.8333,336.833 68.5,351.5 Z"/></g>
<g><path style="opacity:1" fill="#efcfcc" d="M 71.5,340.5 C 71.5,343.833 71.5,347.167 71.5,350.5C 70.2227,349.306 69.5561,347.64 69.5,345.5C 69.5561,343.36 70.2227,341.694 71.5,340.5 Z"/></g>
<g><path style="opacity:1" fill="#ec9c9f" d="M 41.5,341.5 C 41.5,345.5 41.5,349.5 41.5,353.5C 39.9731,353.573 38.9731,352.906 38.5,351.5C 38.5,348.5 38.5,345.5 38.5,342.5C 39.209,341.596 40.209,341.263 41.5,341.5 Z"/></g>
<g><path style="opacity:1" fill="#ffe2e4" d="M 46.5,353.5 C 45.8333,354.833 45.1667,354.833 44.5,353.5C 45.1667,336.167 45.8333,336.167 46.5,353.5 Z"/></g>
<g><path style="opacity:1" fill="#af2f29" d="M 400.5,219.5 C 401.557,224.398 403.223,229.065 405.5,233.5C 417.02,236.996 426.52,243.329 434,252.5C 438.37,260.729 439.536,269.396 437.5,278.5C 445.168,277.167 452.835,275.833 460.5,274.5C 462.741,275.032 464.241,276.365 465,278.5C 465.819,288.744 465.652,298.91 464.5,309C 465.263,309.944 466.263,310.444 467.5,310.5C 475.277,308.113 483.111,307.447 491,308.5C 491.667,310.167 491.667,311.833 491,313.5C 487.271,321.125 483.438,328.625 479.5,336C 484.133,344.43 488.299,352.93 492,361.5C 488.863,363.986 485.363,365.819 481.5,367C 461.126,373.345 440.459,375.345 419.5,373C 412.292,371.406 406.959,367.406 403.5,361C 403.575,354.377 403.575,347.544 403.5,340.5C 400.116,340.66 396.783,340.327 393.5,339.5C 391.301,340.861 389.301,342.527 387.5,344.5C 387.961,342.45 388.628,340.45 389.5,338.5C 386.378,337.018 383.378,335.351 380.5,333.5C 378.925,331.453 377.925,329.119 377.5,326.5C 377.822,313.92 377.489,301.42 376.5,289C 358.746,284.82 340.746,281.987 322.5,280.5C 321.5,280.5 320.5,280.5 319.5,280.5C 303.513,279.009 287.513,277.675 271.5,276.5C 276.833,276.5 282.167,276.5 287.5,276.5C 293.822,277.014 300.155,277.347 306.5,277.5C 331.049,279.398 355.382,282.731 379.5,287.5C 379.833,288.167 380.167,288.833 380.5,289.5C 379.173,293.951 378.506,298.784 378.5,304C 378.833,308.833 379.167,313.667 379.5,318.5C 380.183,318.137 380.85,317.804 381.5,317.5C 382.5,317.5 383.5,317.5 384.5,317.5C 385.167,317.5 385.833,317.5 386.5,317.5C 386.833,317.5 387.167,317.5 387.5,317.5C 387.5,318.167 387.5,318.833 387.5,319.5C 382.173,318.175 379.506,320.175 379.5,325.5C 379.748,331.254 382.748,334.754 388.5,336C 395.94,337.094 403.44,337.594 411,337.5C 426.189,336.585 441.356,336.585 456.5,337.5C 457.506,338.396 457.506,339.062 456.5,339.5C 455.833,339.5 455.167,339.5 454.5,339.5C 453.081,338.549 451.415,338.216 449.5,338.5C 448.833,338.5 448.167,338.5 447.5,338.5C 447.167,338.5 446.833,338.5 446.5,338.5C 445.508,338.328 444.842,338.662 444.5,339.5C 444.167,339.5 443.833,339.5 443.5,339.5C 442.833,338.167 442.167,338.167 441.5,339.5C 441.167,339.5 440.833,339.5 440.5,339.5C 438.833,339.5 437.167,339.5 435.5,339.5C 434.833,339.5 434.167,339.5 433.5,339.5C 432.833,339.5 432.167,339.5 431.5,339.5C 431.167,339.5 430.833,339.5 430.5,339.5C 429.223,340.694 428.556,342.36 428.5,344.5C 428.667,346.167 428.833,347.833 429,349.5C 429.383,350.056 429.883,350.389 430.5,350.5C 429.791,351.404 428.791,351.737 427.5,351.5C 426.5,351.5 425.5,351.5 424.5,351.5C 422.969,350.075 423.302,349.409 425.5,349.5C 426.777,348.306 427.444,346.64 427.5,344.5C 427.444,342.36 426.777,340.694 425.5,339.5C 425.167,339.5 424.833,339.5 424.5,339.5C 423.833,339.5 423.167,339.5 422.5,339.5C 422.167,339.5 421.833,339.5 421.5,339.5C 419.167,339.5 416.833,339.5 414.5,339.5C 411.615,339.194 408.948,339.527 406.5,340.5C 406.335,343.85 406.502,347.183 407,350.5C 407.383,349.944 407.883,349.611 408.5,349.5C 409.209,350.404 410.209,350.737 411.5,350.5C 409.909,351.219 408.409,352.219 407,353.5C 405.326,361.148 408.159,366.315 415.5,369C 441.126,373.771 465.793,370.771 489.5,360C 485.04,352.247 480.706,344.414 476.5,336.5C 480.69,327.953 485.024,319.453 489.5,311C 481.026,310.664 472.693,311.497 464.5,313.5C 463.833,313.5 463.167,313.5 462.5,313.5C 462.828,301.655 462.495,289.988 461.5,278.5C 460.207,277.842 458.707,277.508 457,277.5C 450.7,279.282 444.2,280.282 437.5,280.5C 437.667,296.17 437.5,311.837 437,327.5C 435.552,332.144 432.385,334.144 427.5,333.5C 426.391,332.71 425.058,332.21 423.5,332C 424.094,331.536 424.761,331.369 425.5,331.5C 426.167,331.5 426.833,331.5 427.5,331.5C 427.833,331.5 428.167,331.5 428.5,331.5C 429.492,331.672 430.158,331.338 430.5,330.5C 430.833,330.5 431.167,330.5 431.5,330.5C 432.492,330.672 433.158,330.338 433.5,329.5C 436.046,326.201 436.046,322.868 433.5,319.5C 433.443,318.391 433.11,317.391 432.5,316.5C 433.167,316.5 433.833,316.5 434.5,316.5C 435.833,297.833 435.833,279.167 434.5,260.5C 432.289,253.441 427.955,247.941 421.5,244C 412.977,239.452 404.31,235.619 395.5,232.5C 397.833,232.5 400.167,232.5 402.5,232.5C 401.969,228.709 400.969,225.043 399.5,221.5C 399.543,220.584 399.876,219.917 400.5,219.5 Z"/></g>
<g><path style="opacity:1" fill="#9d3d3a" d="M 406.5,340.5 C 408.948,339.527 411.615,339.194 414.5,339.5C 412.758,342.145 412.091,345.145 412.5,348.5C 414.833,348.5 417.167,348.5 419.5,348.5C 421.369,346.365 422.036,343.698 421.5,340.5C 421.5,340.167 421.5,339.833 421.5,339.5C 421.833,339.5 422.167,339.5 422.5,339.5C 423.167,351.5 423.833,351.5 424.5,339.5C 424.833,339.5 425.167,339.5 425.5,339.5C 425.5,342.833 425.5,346.167 425.5,349.5C 423.302,349.409 422.969,350.075 424.5,351.5C 420.202,350.8 415.869,350.467 411.5,350.5C 410.209,350.737 409.209,350.404 408.5,349.5C 409.055,345.988 408.388,342.988 406.5,340.5 Z"/></g>
<g><path style="opacity:1" fill="#a43b38" d="M 462.5,313.5 C 463.167,313.5 463.833,313.5 464.5,313.5C 464.939,325.909 464.439,338.242 463,350.5C 461.457,352.378 459.624,353.878 457.5,355C 448.511,356.068 439.845,355.235 431.5,352.5C 432.568,351.566 433.901,351.232 435.5,351.5C 436.93,351.421 438.264,351.754 439.5,352.5C 440.492,348.217 440.826,343.884 440.5,339.5C 440.833,339.5 441.167,339.5 441.5,339.5C 442.167,356.833 442.833,356.833 443.5,339.5C 443.833,339.5 444.167,339.5 444.5,339.5C 444.173,344.214 444.507,348.88 445.5,353.5C 446.494,348.544 446.827,343.544 446.5,338.5C 446.833,338.5 447.167,338.5 447.5,338.5C 446.892,343.944 447.558,348.944 449.5,353.5C 450.167,353.5 450.833,353.5 451.5,353.5C 452.5,353.5 453.5,353.5 454.5,353.5C 456.436,349.285 457.103,344.619 456.5,339.5C 457.506,339.062 457.506,338.396 456.5,337.5C 457.833,337.833 459.167,338.167 460.5,338.5C 460.56,339.043 460.893,339.376 461.5,339.5C 462.498,330.859 462.831,322.192 462.5,313.5 Z"/></g>
<g><path style="opacity:1" fill="#fbdddb" d="M 457.5,340.5 C 458.787,341.871 459.453,343.705 459.5,346C 459.596,348.375 459.096,350.541 458,352.5C 457.501,348.514 457.334,344.514 457.5,340.5 Z"/></g>
<g><path style="opacity:1" fill="#d0a19e" d="M 454.5,339.5 C 454.5,344.167 454.5,348.833 454.5,353.5C 453.5,353.5 452.5,353.5 451.5,353.5C 451.5,348.833 451.5,344.167 451.5,339.5C 452.5,339.5 453.5,339.5 454.5,339.5 Z"/></g>
<g><path style="opacity:1" fill="#febbbd" d="M 454.5,339.5 C 455.167,339.5 455.833,339.5 456.5,339.5C 457.103,344.619 456.436,349.285 454.5,353.5C 454.5,348.833 454.5,344.167 454.5,339.5 Z"/></g>
<g><path style="opacity:1" fill="#e1b7b7" d="M 435.5,339.5 C 437.167,339.5 438.833,339.5 440.5,339.5C 440.826,343.884 440.492,348.217 439.5,352.5C 438.264,351.754 436.93,351.421 435.5,351.5C 435.5,347.5 435.5,343.5 435.5,339.5 Z"/></g>
<g><path style="opacity:1" fill="#ffd0d2" d="M 430.5,339.5 C 430.5,343.167 430.5,346.833 430.5,350.5C 429.883,350.389 429.383,350.056 429,349.5C 428.833,347.833 428.667,346.167 428.5,344.5C 428.556,342.36 429.223,340.694 430.5,339.5 Z"/></g>
<g><path style="opacity:1" fill="#ffdedf" d="M 446.5,338.5 C 446.827,343.544 446.494,348.544 445.5,353.5C 444.507,348.88 444.173,344.214 444.5,339.5C 444.842,338.662 445.508,338.328 446.5,338.5 Z"/></g>
<g><path style="opacity:1" fill="#b76667" d="M 430.5,339.5 C 430.833,339.5 431.167,339.5 431.5,339.5C 432.167,354.167 432.833,354.167 433.5,339.5C 434.167,339.5 434.833,339.5 435.5,339.5C 435.5,343.5 435.5,347.5 435.5,351.5C 433.901,351.232 432.568,351.566 431.5,352.5C 429.901,352.768 428.568,352.434 427.5,351.5C 428.791,351.737 429.791,351.404 430.5,350.5C 430.5,346.833 430.5,343.167 430.5,339.5 Z"/></g>
<g><path style="opacity:1" fill="#f5dad8" d="M 431.5,339.5 C 432.167,339.5 432.833,339.5 433.5,339.5C 432.833,354.167 432.167,354.167 431.5,339.5 Z"/></g>
<g><path style="opacity:1" fill="#ffcbc8" d="M 460.5,341.5 C 461.88,341.962 462.547,342.962 462.5,344.5C 462.101,346.197 461.601,347.863 461,349.5C 460.503,346.854 460.336,344.187 460.5,341.5 Z"/></g>
<g><path style="opacity:1" fill="#f9d8db" d="M 447.5,338.5 C 448.167,338.5 448.833,338.5 449.5,338.5C 449.5,343.5 449.5,348.5 449.5,353.5C 447.558,348.944 446.892,343.944 447.5,338.5 Z"/></g>
<g><path style="opacity:1" fill="#fff4eb" d="M 425.5,339.5 C 426.777,340.694 427.444,342.36 427.5,344.5C 427.444,346.64 426.777,348.306 425.5,349.5C 425.5,346.167 425.5,342.833 425.5,339.5 Z"/></g>
<g><path style="opacity:1" fill="#ffe5ea" d="M 409.5,340.5 C 410.748,341.334 411.415,342.667 411.5,344.5C 411.167,345.833 410.833,347.167 410.5,348.5C 409.52,345.914 409.187,343.247 409.5,340.5 Z"/></g>
<g><path style="opacity:1" fill="#d07573" d="M 449.5,338.5 C 451.415,338.216 453.081,338.549 454.5,339.5C 453.5,339.5 452.5,339.5 451.5,339.5C 451.5,344.167 451.5,348.833 451.5,353.5C 450.833,353.5 450.167,353.5 449.5,353.5C 449.5,348.5 449.5,343.5 449.5,338.5 Z"/></g>
<g><path style="opacity:1" fill="#ffd3d6" d="M 422.5,339.5 C 423.167,339.5 423.833,339.5 424.5,339.5C 423.833,351.5 423.167,351.5 422.5,339.5 Z"/></g>
<g><path style="opacity:1" fill="#f2cfce" d="M 421.5,340.5 C 422.036,343.698 421.369,346.365 419.5,348.5C 418.964,345.302 419.631,342.635 421.5,340.5 Z"/></g>
<g><path style="opacity:1" fill="#dc9895" d="M 414.5,339.5 C 416.833,339.5 419.167,339.5 421.5,339.5C 421.5,339.833 421.5,340.167 421.5,340.5C 419.631,342.635 418.964,345.302 419.5,348.5C 417.167,348.5 414.833,348.5 412.5,348.5C 412.091,345.145 412.758,342.145 414.5,339.5 Z"/></g>
<g><path style="opacity:1" fill="#ffedec" d="M 443.5,339.5 C 442.833,356.833 442.167,356.833 441.5,339.5C 442.167,338.167 442.833,338.167 443.5,339.5 Z"/></g>
<g><path style="opacity:1" fill="#ffe1dd" d="M 406.5,340.5 C 408.388,342.988 409.055,345.988 408.5,349.5C 407.883,349.611 407.383,349.944 407,350.5C 406.502,347.183 406.335,343.85 406.5,340.5 Z"/></g>
<g><path style="opacity:1" fill="#a03b38" d="M 379.5,287.5 C 393.374,290.803 406.707,295.637 419.5,302C 425.008,305.348 429.675,309.515 433.5,314.5C 433.833,315.167 434.167,315.833 434.5,316.5C 433.833,316.5 433.167,316.5 432.5,316.5C 431.499,320.396 431.166,325.063 431.5,330.5C 431.167,330.5 430.833,330.5 430.5,330.5C 430.955,323.986 430.455,317.653 429,311.5C 428.5,318.158 428.334,324.825 428.5,331.5C 428.167,331.5 427.833,331.5 427.5,331.5C 426.833,302.167 426.167,302.167 425.5,331.5C 424.761,331.369 424.094,331.536 423.5,332C 425.058,332.21 426.391,332.71 427.5,333.5C 421.669,332.725 416.002,331.225 410.5,329C 402.995,325.335 395.328,322.168 387.5,319.5C 387.5,318.833 387.5,318.167 387.5,317.5C 388.825,313.724 389.491,309.557 389.5,305C 389.499,300.653 389.166,296.486 388.5,292.5C 388.158,291.662 387.492,291.328 386.5,291.5C 385.833,291.5 385.167,291.5 384.5,291.5C 383.609,290.89 382.609,290.557 381.5,290.5C 380.833,290.5 380.5,290.167 380.5,289.5C 380.167,288.833 379.833,288.167 379.5,287.5 Z"/></g>
<g><path style="opacity:1" fill="#ffd0cc" d="M 430.5,330.5 C 430.158,331.338 429.492,331.672 428.5,331.5C 428.334,324.825 428.5,318.158 429,311.5C 430.455,317.653 430.955,323.986 430.5,330.5 Z"/></g>
<g><path style="opacity:1" fill="#fef4f5" d="M 427.5,331.5 C 426.833,331.5 426.167,331.5 425.5,331.5C 426.167,302.167 426.833,302.167 427.5,331.5 Z"/></g>
<g><path style="opacity:1" fill="#efc4c0" d="M 432.5,316.5 C 433.11,317.391 433.443,318.391 433.5,319.5C 433.5,322.833 433.5,326.167 433.5,329.5C 433.158,330.338 432.492,330.672 431.5,330.5C 431.166,325.063 431.499,320.396 432.5,316.5 Z"/></g>
<g><path style="opacity:1" fill="#eed3d0" d="M 419.5,304.5 C 420.117,304.611 420.617,304.944 421,305.5C 421.167,309.5 421.333,313.5 421.5,317.5C 421.491,321.893 420.824,325.893 419.5,329.5C 419.5,321.167 419.5,312.833 419.5,304.5 Z"/></g>
<g><path style="opacity:1" fill="#ffd7d8" d="M 422.5,306.5 C 423.117,306.611 423.617,306.944 424,307.5C 424.831,315.188 424.665,322.855 423.5,330.5C 422.502,322.528 422.169,314.528 422.5,306.5 Z"/></g>
<g><path style="opacity:1" fill="#cd9c9d" d="M 414.5,301.5 C 415.71,301.932 416.71,302.599 417.5,303.5C 417.826,312.017 417.493,320.35 416.5,328.5C 415.833,328.167 415.167,327.833 414.5,327.5C 414.5,318.833 414.5,310.167 414.5,301.5 Z"/></g>
<g><path style="opacity:1" fill="#fdfaf9" d="M 411.5,350.5 C 415.869,350.467 420.202,350.8 424.5,351.5C 425.5,351.5 426.5,351.5 427.5,351.5C 428.568,352.434 429.901,352.768 431.5,352.5C 439.845,355.235 448.511,356.068 457.5,355C 459.624,353.878 461.457,352.378 463,350.5C 464.439,338.242 464.939,325.909 464.5,313.5C 472.693,311.497 481.026,310.664 489.5,311C 485.024,319.453 480.69,327.953 476.5,336.5C 480.706,344.414 485.04,352.247 489.5,360C 465.793,370.771 441.126,373.771 415.5,369C 408.159,366.315 405.326,361.148 407,353.5C 408.409,352.219 409.909,351.219 411.5,350.5 Z"/></g>
<g><path style="opacity:1" fill="#d27c7b" d="M 417.5,303.5 C 418.492,303.328 419.158,303.662 419.5,304.5C 419.5,312.833 419.5,321.167 419.5,329.5C 418.209,329.737 417.209,329.404 416.5,328.5C 417.493,320.35 417.826,312.017 417.5,303.5 Z"/></g>
<g><path style="opacity:1" fill="#fae5e5" d="M 395.5,294.5 C 395.826,303.017 395.493,311.35 394.5,319.5C 393.834,315.514 393.501,311.347 393.5,307C 393.509,302.443 394.175,298.276 395.5,294.5 Z"/></g>
<g><path style="opacity:1" fill="#fff6f3" d="M 388.5,292.5 C 389.166,296.486 389.499,300.653 389.5,305C 389.491,309.557 388.825,313.724 387.5,317.5C 387.174,308.983 387.507,300.65 388.5,292.5 Z"/></g>
<g><path style="opacity:1" fill="#cc7879" d="M 395.5,294.5 C 396.791,294.263 397.791,294.596 398.5,295.5C 397.507,303.65 397.174,311.983 397.5,320.5C 396.209,320.737 395.209,320.404 394.5,319.5C 395.493,311.35 395.826,303.017 395.5,294.5 Z"/></g>
<g><path style="opacity:1" fill="#ffcccd" d="M 384.5,291.5 C 385.167,291.5 385.833,291.5 386.5,291.5C 386.5,300.167 386.5,308.833 386.5,317.5C 385.833,317.5 385.167,317.5 384.5,317.5C 384.5,308.833 384.5,300.167 384.5,291.5 Z"/></g>
<g><path style="opacity:1" fill="#ca9c9a" d="M 381.5,290.5 C 382.609,290.557 383.609,290.89 384.5,291.5C 384.5,300.167 384.5,308.833 384.5,317.5C 383.5,317.5 382.5,317.5 381.5,317.5C 381.5,308.5 381.5,299.5 381.5,290.5 Z"/></g>
<g><path style="opacity:1" fill="#fbe0df" d="M 403.5,297.5 C 404.826,301.614 405.493,306.114 405.5,311C 405.333,315.5 405.167,320 405,324.5C 404.617,323.944 404.117,323.611 403.5,323.5C 403.5,314.833 403.5,306.167 403.5,297.5 Z"/></g>
<g><path style="opacity:1" fill="#ab5b5b" d="M 402.5,297.5 C 402.833,297.5 403.167,297.5 403.5,297.5C 403.5,306.167 403.5,314.833 403.5,323.5C 402.508,323.672 401.842,323.338 401.5,322.5C 402.493,314.35 402.826,306.017 402.5,297.5 Z"/></g>
<g><path style="opacity:1" fill="#ffbdbc" d="M 401.5,296.5 C 402.167,296.5 402.5,296.833 402.5,297.5C 402.826,306.017 402.493,314.35 401.5,322.5C 401.167,322.5 400.833,322.5 400.5,322.5C 400.174,313.651 400.507,304.984 401.5,296.5 Z"/></g>
<g><path style="opacity:1" fill="#d0a09d" d="M 398.5,295.5 C 399.791,295.263 400.791,295.596 401.5,296.5C 400.507,304.984 400.174,313.651 400.5,322.5C 399.29,322.068 398.29,321.401 397.5,320.5C 397.174,311.983 397.507,303.65 398.5,295.5 Z"/></g>
<g><path style="opacity:1" fill="#fee9e7" d="M 409.5,299.5 C 410.826,303.614 411.493,308.114 411.5,313C 411.167,317.5 410.833,322 410.5,326.5C 409.502,317.525 409.168,308.525 409.5,299.5 Z"/></g>
<g><path style="opacity:1" fill="#ffd6d6" d="M 414.5,301.5 C 414.5,310.167 414.5,318.833 414.5,327.5C 413.175,323.555 412.508,319.222 412.5,314.5C 412.508,309.778 413.175,305.445 414.5,301.5 Z"/></g>
<g><path style="opacity:1" fill="#914546" d="M 386.5,291.5 C 387.492,291.328 388.158,291.662 388.5,292.5C 387.507,300.65 387.174,308.983 387.5,317.5C 387.167,317.5 386.833,317.5 386.5,317.5C 386.5,308.833 386.5,300.167 386.5,291.5 Z"/></g>
<g><path style="opacity:1" fill="#ffe2e2" d="M 406.5,298.5 C 407.826,302.614 408.493,307.114 408.5,312C 408.333,316.5 408.167,321 408,325.5C 406.53,316.668 406.03,307.668 406.5,298.5 Z"/></g>
<g><path style="opacity:1" fill="#ffe2e3" d="M 390.5,293.5 C 391.825,297.276 392.491,301.443 392.5,306C 392.167,310.167 391.833,314.333 391.5,318.5C 390.502,310.193 390.169,301.86 390.5,293.5 Z"/></g>
<g><path style="opacity:1" fill="#ed797a" d="M 380.5,289.5 C 380.5,290.167 380.833,290.5 381.5,290.5C 381.5,299.5 381.5,308.5 381.5,317.5C 380.85,317.804 380.183,318.137 379.5,318.5C 379.167,313.667 378.833,308.833 378.5,304C 378.506,298.784 379.173,293.951 380.5,289.5 Z"/></g>
<g><path style="opacity:1" fill="#ffbbbc" d="M 461.5,278.5 C 462.495,289.988 462.828,301.655 462.5,313.5C 462.831,322.192 462.498,330.859 461.5,339.5C 460.893,339.376 460.56,339.043 460.5,338.5C 461.497,318.674 461.83,298.674 461.5,278.5 Z"/></g>
<g><path style="opacity:1" fill="#fefbfb" d="M 461.5,278.5 C 461.83,298.674 461.497,318.674 460.5,338.5C 459.167,338.167 457.833,337.833 456.5,337.5C 441.356,336.585 426.189,336.585 411,337.5C 403.44,337.594 395.94,337.094 388.5,336C 382.748,334.754 379.748,331.254 379.5,325.5C 379.506,320.175 382.173,318.175 387.5,319.5C 395.328,322.168 402.995,325.335 410.5,329C 416.002,331.225 421.669,332.725 427.5,333.5C 432.385,334.144 435.552,332.144 437,327.5C 437.5,311.837 437.667,296.17 437.5,280.5C 444.2,280.282 450.7,279.282 457,277.5C 458.707,277.508 460.207,277.842 461.5,278.5 Z"/></g>
<g><path style="opacity:1" fill="#da6b6a" d="M 433.5,319.5 C 436.046,322.868 436.046,326.201 433.5,329.5C 433.5,326.167 433.5,322.833 433.5,319.5 Z"/></g>
<g><path style="opacity:1" fill="#c50b0b" d="M 380.5,333.5 C 383.378,335.351 386.378,337.018 389.5,338.5C 388.628,340.45 387.961,342.45 387.5,344.5C 373.839,358.846 357.839,370.013 339.5,378C 316.589,387.188 294.255,397.521 272.5,409C 264.37,415.284 258.37,423.118 254.5,432.5C 251.223,432.784 248.057,432.451 245,431.5C 244.038,425.736 241.372,421.07 237,417.5C 235.991,415.975 235.491,414.308 235.5,412.5C 232.892,412.6 230.558,411.933 228.5,410.5C 223.359,407.093 218.026,403.926 212.5,401C 187.325,390.745 162.658,379.412 138.5,367C 132.221,363.054 126.221,358.721 120.5,354C 115.921,349.926 111.921,345.426 108.5,340.5C 111.425,338.028 114.759,336.028 118.5,334.5C 130.635,346.469 144.302,356.302 159.5,364C 180.904,373.373 202.238,382.707 223.5,392C 233.236,397.906 241.903,405.072 249.5,413.5C 256.489,405.502 264.489,398.669 273.5,393C 294.372,383.398 315.372,374.064 336.5,365C 353.301,357.349 367.967,346.849 380.5,333.5 Z"/></g>
<g><path style="opacity:1" fill="#ac191c" d="M 228.5,410.5 C 230.558,411.933 232.892,412.6 235.5,412.5C 235.491,414.308 235.991,415.975 237,417.5C 241.372,421.07 244.038,425.736 245,431.5C 248.057,432.451 251.223,432.784 254.5,432.5C 251.4,434.95 248.066,435.117 244.5,433C 241.23,423.934 235.897,416.434 228.5,410.5 Z"/></g>
</svg>
