<?xml version="1.0" encoding="UTF-8"?>
<!DOCTYPE svg PUBLIC "-//W3C//DTD SVG 1.1//EN" "http://www.w3.org/Graphics/SVG/1.1/DTD/svg11.dtd">
<svg xmlns="http://www.w3.org/2000/svg" version="1.1" width="500px" height="500px" style="shape-rendering:geometricPrecision; text-rendering:geometricPrecision; image-rendering:optimizeQuality; fill-rule:evenodd; clip-rule:evenodd" xmlns:xlink="http://www.w3.org/1999/xlink">
<g><path style="opacity:1" fill="#13315c" d="M 360.5,52.5 C 358.702,49.969 357.535,46.969 357,43.5C 356.501,37.5092 356.334,31.5092 356.5,25.5C 285.499,25.3333 214.499,25.5 143.5,26C 142.93,28.7555 141.93,31.2555 140.5,33.5C 140.5,30.5 140.5,27.5 140.5,24.5C 212.833,24.5 285.167,24.5 357.5,24.5C 357.192,33.9841 358.192,43.3174 360.5,52.5 Z"/></g>
<g><path style="opacity:1" fill="#ec8229" d="M 159.5,56.5 C 160.391,57.1098 161.391,57.4431 162.5,57.5C 169.202,61.8615 176.202,65.8615 183.5,69.5C 183.973,70.9063 184.973,71.573 186.5,71.5C 188.678,72.6566 190.678,73.9899 192.5,75.5C 191.833,75.5 191.167,75.5 190.5,75.5C 188.143,75.6633 185.81,75.4966 183.5,75C 185.912,72.9646 185.245,71.9646 181.5,72C 181.833,71.6667 182.167,71.3333 182.5,71C 180.559,70.6964 178.893,69.8631 177.5,68.5C 176.109,69.6446 174.776,69.6446 173.5,68.5C 174.025,67.8076 174.692,67.3076 175.5,67C 170.243,64.1201 167.243,65.6201 166.5,71.5C 164.147,70.6597 162.147,69.3264 160.5,67.5C 157.671,64.5058 155.337,61.1725 153.5,57.5C 153.868,56.09 154.701,55.09 156,54.5C 156.816,55.8228 157.983,56.4894 159.5,56.5 Z"/></g>
<g><path style="opacity:1" fill="#28325b" d="M 162.5,57.5 C 164.801,58.0604 167.134,58.5604 169.5,59C 169.167,59.3333 168.833,59.6667 168.5,60C 172.473,60.9813 176.14,62.648 179.5,65C 181.441,65.7429 183.274,65.5762 185,64.5C 185.492,65.549 185.326,66.549 184.5,67.5C 185.776,68.6446 187.109,68.6446 188.5,67.5C 190.637,68.7381 191.971,70.5714 192.5,73C 194.74,73.977 197.073,74.477 199.5,74.5C 199.831,76.3224 200.498,77.9891 201.5,79.5C 198.352,78.4242 195.352,77.0909 192.5,75.5C 190.678,73.9899 188.678,72.6566 186.5,71.5C 186.027,70.0937 185.027,69.427 183.5,69.5C 176.202,65.8615 169.202,61.8615 162.5,57.5 Z"/></g>
<g><path style="opacity:1" fill="#113367" d="M 136.5,56.5 C 139.655,56.7252 139.988,58.2252 137.5,61C 138.38,62.3561 138.714,63.8561 138.5,65.5C 134.488,64.8874 132.488,66.5541 132.5,70.5C 134.591,70.3184 136.591,70.6518 138.5,71.5C 139.252,67.4943 140.918,64.161 143.5,61.5C 144.873,61.3433 146.207,61.51 147.5,62C 143.393,65.9375 144.06,67.7708 149.5,67.5C 149.291,66.914 148.957,66.414 148.5,66C 150.016,64.103 150.683,61.9363 150.5,59.5C 153.564,62.5703 156.897,65.2369 160.5,67.5C 162.147,69.3264 164.147,70.6597 166.5,71.5C 166.5,71.8333 166.5,72.1667 166.5,72.5C 165.848,73.7251 164.681,74.3917 163,74.5C 159.924,73.3056 156.757,72.639 153.5,72.5C 152.167,72.1667 150.833,71.8333 149.5,71.5C 148.167,70.8333 146.833,70.1667 145.5,69.5C 144.535,66.9152 143.201,66.4152 141.5,68C 142.606,69.8582 143.606,71.6915 144.5,73.5C 145.11,74.391 145.443,75.391 145.5,76.5C 144.5,76.5 143.5,76.5 142.5,76.5C 142.721,72.2046 141.388,71.5379 138.5,74.5C 134.3,72.473 131.966,73.8064 131.5,78.5C 130.833,77.1667 130.167,75.8333 129.5,74.5C 129.466,77.443 129.133,80.443 128.5,83.5C 127.833,82.1667 127.167,80.8333 126.5,79.5C 121.682,84.8186 116.682,89.9853 111.5,95C 109.423,96.705 107.09,97.8717 104.5,98.5C 119.35,87.655 130.016,73.655 136.5,56.5 Z"/></g>
<g><path style="opacity:1" fill="#af855c" d="M 145.5,69.5 C 144.566,70.5676 144.232,71.901 144.5,73.5C 143.606,71.6915 142.606,69.8582 141.5,68C 143.201,66.4152 144.535,66.9152 145.5,69.5 Z"/></g>
<g><path style="opacity:1" fill="#b37543" d="M 149.5,72.5 C 149.5,72.1667 149.5,71.8333 149.5,71.5C 150.833,71.8333 152.167,72.1667 153.5,72.5C 157.864,74.7683 162.53,76.1017 167.5,76.5C 167.167,76.5 166.833,76.5 166.5,76.5C 160.214,77.1032 154.548,75.7698 149.5,72.5 Z"/></g>
<g><path style="opacity:1" fill="#e78b31" d="M 145.5,69.5 C 146.833,70.1667 148.167,70.8333 149.5,71.5C 149.5,71.8333 149.5,72.1667 149.5,72.5C 149.5,74.8333 149.5,77.1667 149.5,79.5C 148.167,78.5 146.833,77.5 145.5,76.5C 145.443,75.391 145.11,74.391 144.5,73.5C 144.232,71.901 144.566,70.5676 145.5,69.5 Z"/></g>
<g><path style="opacity:1" fill="#f87318" d="M 190.5,75.5 C 190.461,76.5832 190.127,77.5832 189.5,78.5C 190.325,79.3857 191.325,79.719 192.5,79.5C 192.286,81.1439 192.62,82.6439 193.5,84C 191.699,84.3173 191.366,84.984 192.5,86C 189.491,88.677 186.824,91.677 184.5,95C 181.083,97.7554 177.416,100.089 173.5,102C 174.428,102.388 175.095,103.055 175.5,104C 174.66,105.171 173.827,106.338 173,107.5C 172.667,107.167 172.333,106.833 172,106.5C 171.691,107.766 171.191,108.933 170.5,110C 167.801,109.562 165.135,109.728 162.5,110.5C 163.602,111.176 164.602,111.842 165.5,112.5C 162.14,112.384 158.807,112.051 155.5,111.5C 155.167,111.5 154.833,111.5 154.5,111.5C 154.389,110.883 154.056,110.383 153.5,110C 154.571,109.148 155.571,108.315 156.5,107.5C 160.019,107.741 162.685,106.407 164.5,103.5C 165.167,103.5 165.5,103.167 165.5,102.5C 166.833,102.167 168.167,101.833 169.5,101.5C 172.113,100.905 172.113,100.071 169.5,99C 159.852,99.3471 150.852,97.3471 142.5,93C 153.506,92.0975 164.506,91.2642 175.5,90.5C 175.64,88.8762 174.973,87.7096 173.5,87C 165.09,85.3467 157.09,82.8467 149.5,79.5C 149.5,77.1667 149.5,74.8333 149.5,72.5C 154.548,75.7698 160.214,77.1032 166.5,76.5C 166.611,77.1174 166.944,77.6174 167.5,78C 170.974,78.3007 174.308,79.134 177.5,80.5C 179.957,78.9991 179.957,77.3324 177.5,75.5C 173.826,74.1526 170.159,72.8193 166.5,71.5C 167.243,65.6201 170.243,64.1201 175.5,67C 174.692,67.3076 174.025,67.8076 173.5,68.5C 174.776,69.6446 176.109,69.6446 177.5,68.5C 178.893,69.8631 180.559,70.6964 182.5,71C 182.167,71.3333 181.833,71.6667 181.5,72C 185.245,71.9646 185.912,72.9646 183.5,75C 185.81,75.4966 188.143,75.6633 190.5,75.5 Z"/></g>
<g><path style="opacity:1" fill="#da7731" d="M 166.5,72.5 C 166.5,72.1667 166.5,71.8333 166.5,71.5C 170.159,72.8193 173.826,74.1526 177.5,75.5C 179.957,77.3324 179.957,78.9991 177.5,80.5C 174.308,79.134 170.974,78.3007 167.5,78C 166.944,77.6174 166.611,77.1174 166.5,76.5C 166.833,76.5 167.167,76.5 167.5,76.5C 169.54,77.5192 171.54,77.5192 173.5,76.5C 171.578,74.4177 169.245,73.0844 166.5,72.5 Z"/></g>
<g><path style="opacity:1" fill="#053371" d="M 360.5,52.5 C 373.99,91.2577 401.324,110.924 442.5,111.5C 442.667,141.169 442.5,170.835 442,200.5C 440.637,201.893 439.804,203.559 439.5,205.5C 440.04,209.661 440.707,213.661 441.5,217.5C 423.733,322.688 369.733,403.188 279.5,459C 269.552,464.558 259.385,469.724 249,474.5C 183.396,444.229 132.396,397.895 96,335.5C 72.732,293.427 59.232,248.427 55.5,200.5C 54.6597,171.175 54.3264,141.842 54.5,112.5C 59.8437,112.666 65.1771,112.499 70.5,112C 71.7375,111.768 72.7375,111.268 73.5,110.5C 84.3173,107.932 94.6506,103.932 104.5,98.5C 107.09,97.8717 109.423,96.705 111.5,95C 116.682,89.9853 121.682,84.8186 126.5,79.5C 127.167,80.8333 127.833,82.1667 128.5,83.5C 129.133,80.443 129.466,77.443 129.5,74.5C 130.167,75.8333 130.833,77.1667 131.5,78.5C 131.966,73.8064 134.3,72.473 138.5,74.5C 141.388,71.5379 142.721,72.2046 142.5,76.5C 143.5,76.5 144.5,76.5 145.5,76.5C 146.833,77.5 148.167,78.5 149.5,79.5C 152.907,83.3686 157.241,85.3686 162.5,85.5C 164.515,86.9238 166.848,87.5905 169.5,87.5C 170.043,87.56 170.376,87.8933 170.5,88.5C 166.893,89.4892 163.226,89.8226 159.5,89.5C 152.137,89.1694 144.803,89.5027 137.5,90.5C 137.624,91.1067 137.957,91.44 138.5,91.5C 140.979,94.3183 143.979,96.3183 147.5,97.5C 148.058,98.7899 149.058,99.6232 150.5,100C 153.167,100.333 155.833,100.667 158.5,101C 158.957,101.414 159.291,101.914 159.5,102.5C 158.37,103.622 157.703,104.956 157.5,106.5C 157.167,106.5 156.833,106.5 156.5,106.5C 154.167,106.5 151.833,106.5 149.5,106.5C 149.567,109.766 147.901,111.266 144.5,111C 145.795,113.665 147.795,114.998 150.5,115C 147.649,113.119 147.982,112.285 151.5,112.5C 154.056,113.524 156.723,114.358 159.5,115C 155.659,119.02 156.659,120.186 162.5,118.5C 162.291,117.914 161.957,117.414 161.5,117C 166.823,116.501 172.156,116.334 177.5,116.5C 177.5,117.5 177.5,118.5 177.5,119.5C 177.167,120.167 176.833,120.833 176.5,121.5C 176.167,121.5 175.833,121.5 175.5,121.5C 173.716,121.893 172.05,122.559 170.5,123.5C 169.596,124.209 169.263,125.209 169.5,126.5C 175.026,126.821 180.36,126.488 185.5,125.5C 188.5,125.5 191.5,125.5 194.5,125.5C 195.167,127.5 195.833,129.5 196.5,131.5C 194.102,134.541 191.102,136.874 187.5,138.5C 188.833,138.833 190.167,139.167 191.5,139.5C 198.203,139.192 203.536,136.526 207.5,131.5C 208.833,130.833 210.167,130.167 211.5,129.5C 213.736,128.611 215.736,127.278 217.5,125.5C 218.172,126.949 218.839,128.282 219.5,129.5C 219.259,131.898 219.926,133.898 221.5,135.5C 222.494,140.656 223.494,145.823 224.5,151C 224.42,153.708 224.087,156.375 223.5,159C 224.577,160.543 225.911,160.543 227.5,159C 228.252,158.329 228.586,157.496 228.5,156.5C 228.833,155.833 229.167,155.167 229.5,154.5C 230.458,154.047 231.292,153.381 232,152.5C 232.497,154.81 232.663,157.143 232.5,159.5C 231.179,162.723 229.846,166.056 228.5,169.5C 229.955,172.755 231.122,176.755 232,181.5C 232.406,185.34 232.239,189.173 231.5,193C 231.629,194.981 232.296,196.647 233.5,198C 232.029,200.243 231.029,202.743 230.5,205.5C 229.833,205.167 229.167,204.833 228.5,204.5C 181.315,206.322 133.982,207.156 86.5,207C 85.9415,207.725 85.6082,208.558 85.5,209.5C 85.8561,214.972 86.8561,220.305 88.5,225.5C 86.8586,230.397 87.1919,235.064 89.5,239.5C 88.7582,241.35 87.7582,242.016 86.5,241.5C 87.5901,243.003 88.7567,243.336 90,242.5C 90.3333,243.833 90.6667,245.167 91,246.5C 91.3333,246.167 91.6667,245.833 92,245.5C 92.2784,246.416 92.7784,247.082 93.5,247.5C 93.2594,249.898 93.9261,251.898 95.5,253.5C 95.3284,254.492 95.6618,255.158 96.5,255.5C 97.1495,257.435 97.4828,259.435 97.5,261.5C 97.427,263.027 98.0937,264.027 99.5,264.5C 99.4003,267.108 100.067,269.442 101.5,271.5C 101.12,273.698 101.787,275.365 103.5,276.5C 105.738,284.441 108.738,292.108 112.5,299.5C 112.66,301.153 113.326,302.486 114.5,303.5C 114.755,305.967 115.755,307.967 117.5,309.5C 117.5,309.833 117.5,310.167 117.5,310.5C 117.427,312.027 118.094,313.027 119.5,313.5C 119.328,314.492 119.662,315.158 120.5,315.5C 120.75,317.674 121.75,319.341 123.5,320.5C 124.6,321.605 125.267,322.938 125.5,324.5C 125.427,326.027 126.094,327.027 127.5,327.5C 129.898,330.571 131.898,333.905 133.5,337.5C 133.908,341.573 135.908,344.573 139.5,346.5C 139.833,347.5 140.5,348.167 141.5,348.5C 142.529,351.891 144.529,354.557 147.5,356.5C 150.411,359.99 153.078,363.656 155.5,367.5C 157.43,371.1 160.097,374.1 163.5,376.5C 166.833,379.5 170.167,382.5 173.5,385.5C 173.833,386.5 174.5,387.167 175.5,387.5C 177.9,390.903 180.9,393.57 184.5,395.5C 186.239,398.243 188.573,400.243 191.5,401.5C 193.239,404.243 195.573,406.243 198.5,407.5C 201.52,410.516 204.854,413.183 208.5,415.5C 208.973,416.906 209.973,417.573 211.5,417.5C 213.147,419.326 215.147,420.66 217.5,421.5C 219.975,424.241 222.975,426.241 226.5,427.5C 228.147,429.326 230.147,430.66 232.5,431.5C 232.973,432.906 233.973,433.573 235.5,433.5C 236.605,434.6 237.938,435.267 239.5,435.5C 239.973,436.906 240.973,437.573 242.5,437.5C 242.833,437.5 243.167,437.5 243.5,437.5C 244.768,439.387 246.601,440.387 249,440.5C 250.376,440.316 251.209,439.649 251.5,438.5C 253.153,438.34 254.486,437.674 255.5,436.5C 256.833,436.167 258.167,435.833 259.5,435.5C 261.678,434.343 263.678,433.01 265.5,431.5C 267.853,430.66 269.853,429.326 271.5,427.5C 276.585,423.744 281.918,420.411 287.5,417.5C 288.833,416.833 289.833,415.833 290.5,414.5C 292.184,413.473 293.851,412.473 295.5,411.5C 298.349,410.825 300.349,409.158 301.5,406.5C 301.842,405.662 302.508,405.328 303.5,405.5C 305.833,403.833 307.833,401.833 309.5,399.5C 311.749,398.92 313.415,397.587 314.5,395.5C 321.444,390.225 327.777,384.225 333.5,377.5C 333.427,375.973 334.094,374.973 335.5,374.5C 337.935,373.73 339.269,372.063 339.5,369.5C 340.5,369.5 341.5,369.5 342.5,369.5C 342.433,368.041 342.766,366.708 343.5,365.5C 345.688,361.793 348.355,358.46 351.5,355.5C 353.104,354.713 353.771,353.38 353.5,351.5C 356.5,347.5 359.5,343.5 362.5,339.5C 364.664,337.178 366.331,334.511 367.5,331.5C 369.326,329.853 370.66,327.853 371.5,325.5C 372.906,325.027 373.573,324.027 373.5,322.5C 375.104,321.713 375.771,320.38 375.5,318.5C 377.104,317.713 377.771,316.38 377.5,314.5C 378.906,314.027 379.573,313.027 379.5,311.5C 379.893,309.716 380.559,308.05 381.5,306.5C 382.857,305.41 383.857,304.076 384.5,302.5C 387.359,299.538 389.026,295.871 389.5,291.5C 390.422,287.738 391.755,284.071 393.5,280.5C 394.496,280.586 395.329,280.252 396,279.5C 396.395,276.793 396.895,274.127 397.5,271.5C 397.4,268.892 398.067,266.558 399.5,264.5C 399.5,263.833 399.5,263.167 399.5,262.5C 401.074,260.898 401.741,258.898 401.5,256.5C 401.5,255.833 401.5,255.167 401.5,254.5C 403.822,249.512 405.155,244.179 405.5,238.5C 406.167,237.5 406.833,236.5 407.5,235.5C 408.161,234.282 408.828,232.949 409.5,231.5C 410.224,226.142 411.057,220.809 412,215.5C 412.777,212.571 412.61,209.737 411.5,207C 357.168,206.5 302.834,206.333 248.5,206.5C 247.326,203.955 246.326,200.955 245.5,197.5C 244.074,188.039 244.741,178.705 247.5,169.5C 247.5,169.167 247.5,168.833 247.5,168.5C 249.472,165.916 250.472,162.916 250.5,159.5C 252.284,157.052 253.617,154.385 254.5,151.5C 255.492,149.544 256.492,147.544 257.5,145.5C 258.167,144.167 258.833,142.833 259.5,141.5C 261.897,138.691 263.23,135.358 263.5,131.5C 264.15,131.196 264.817,130.863 265.5,130.5C 266.452,132.045 266.785,133.712 266.5,135.5C 265.85,137.435 265.517,139.435 265.5,141.5C 265.5,145.5 265.5,149.5 265.5,153.5C 266.048,155.394 267.048,157.06 268.5,158.5C 269.484,155.572 269.817,152.572 269.5,149.5C 269.878,147.079 270.545,144.746 271.5,142.5C 272.929,139.607 274.763,136.941 277,134.5C 277.49,130.216 278.99,126.549 281.5,123.5C 281.833,124.5 282.5,125.167 283.5,125.5C 285.239,128.243 287.573,130.243 290.5,131.5C 290.973,132.906 291.973,133.573 293.5,133.5C 298.07,138.706 303.736,140.373 310.5,138.5C 308.972,137.139 307.305,135.972 305.5,135C 302.302,130.974 298.968,127.141 295.5,123.5C 295.5,122.833 295.5,122.167 295.5,121.5C 295.328,120.508 295.662,119.842 296.5,119.5C 297.167,119.5 297.833,119.5 298.5,119.5C 300.102,121.074 302.102,121.741 304.5,121.5C 305.609,121.557 306.609,121.89 307.5,122.5C 307.842,123.338 308.508,123.672 309.5,123.5C 311.102,125.074 313.102,125.741 315.5,125.5C 318.833,125.5 322.167,125.5 325.5,125.5C 328.205,125.62 328.872,124.62 327.5,122.5C 326.311,121.571 324.978,121.238 323.5,121.5C 320.185,119.192 316.851,116.859 313.5,114.5C 322.475,113.502 331.475,113.168 340.5,113.5C 342.403,113.204 344.07,112.537 345.5,111.5C 345.5,111.167 345.5,110.833 345.5,110.5C 348.767,109.969 349.1,108.969 346.5,107.5C 343.391,106.868 341.057,105.868 339.5,104.5C 339.5,103.167 339.5,101.833 339.5,100.5C 339.5,100.167 339.5,99.8333 339.5,99.5C 339.833,99.5 340.167,99.5 340.5,99.5C 342.857,99.6633 345.19,99.4966 347.5,99C 350.409,98.1498 353.076,96.9831 355.5,95.5C 356.778,95.2178 357.778,94.5511 358.5,93.5C 359.452,92.548 360.452,91.548 361.5,90.5C 358.844,89.3855 356.177,89.3855 353.5,90.5C 347.5,90.1667 341.5,89.8333 335.5,89.5C 333.833,89.5 332.167,89.5 330.5,89.5C 331.827,87.8184 333.494,86.4851 335.5,85.5C 338.89,84.9767 342.223,84.1434 345.5,83C 346.056,82.6174 346.389,82.1174 346.5,81.5C 349.367,81.6308 351.033,80.2974 351.5,77.5C 351.833,76.5 352.5,75.8333 353.5,75.5C 354.978,73.3547 356.312,71.0213 357.5,68.5C 357,68.1667 356.5,67.8333 356,67.5C 353.037,69.0603 350.204,70.7269 347.5,72.5C 342.071,74.567 336.404,75.9003 330.5,76.5C 329.127,76.6567 327.793,76.49 326.5,76C 327.056,75.6174 327.389,75.1174 327.5,74.5C 329.674,74.2503 331.341,73.2503 332.5,71.5C 334.027,71.573 335.027,70.9063 335.5,69.5C 335.842,68.6618 336.508,68.3284 337.5,68.5C 339.404,68.2624 340.738,67.2624 341.5,65.5C 345.833,64.5 348.5,61.8333 349.5,57.5C 349.5,56.8333 349.5,56.1667 349.5,55.5C 351.213,54.3646 351.88,52.698 351.5,50.5C 352.634,48.0336 352.801,45.367 352,42.5C 350.539,41.1175 349.706,41.4508 349.5,43.5C 348.833,45.1667 348.167,46.8333 347.5,48.5C 344.833,50.5 342.5,52.8333 340.5,55.5C 338.973,55.427 337.973,56.0937 337.5,57.5C 334.802,57.8449 332.802,59.1782 331.5,61.5C 328.833,62.5 326.167,63.5 323.5,64.5C 314.105,67.5171 306.105,72.5171 299.5,79.5C 297.596,79.7376 296.262,80.7376 295.5,82.5C 294.833,82.5 294.167,82.5 293.5,82.5C 291.856,82.7135 290.356,82.3802 289,81.5C 288.1,82.7702 286.934,83.7702 285.5,84.5C 286.506,85.3957 286.506,86.0623 285.5,86.5C 284.795,83.911 284.795,81.2443 285.5,78.5C 285.5,78.1667 285.5,77.8333 285.5,77.5C 286.151,76.9094 286.818,76.2427 287.5,75.5C 287.833,72.8333 288.167,70.1667 288.5,67.5C 288.478,64.4098 287.812,61.7432 286.5,59.5C 286.167,59.5 285.833,59.5 285.5,59.5C 285.741,57.1016 285.074,55.1016 283.5,53.5C 282.921,50.6689 281.588,48.3356 279.5,46.5C 278.457,43.9438 276.79,41.7772 274.5,40C 271.597,37.9143 268.597,36.081 265.5,34.5C 264.833,33.8333 264.167,33.1667 263.5,32.5C 261.383,30.3455 258.716,29.3455 255.5,29.5C 246.154,27.3582 237.154,28.5248 228.5,33C 226.559,33.7429 224.726,33.5762 223,32.5C 221.561,34.0139 220.061,34.3473 218.5,33.5C 218.167,33.8333 217.833,34.1667 217.5,34.5C 218.167,35.1667 218.833,35.8333 219.5,36.5C 215.864,38.2069 215.864,39.3736 219.5,40C 218.284,41.594 216.951,43.094 215.5,44.5C 217.185,47.094 219.018,47.094 221,44.5C 221.5,44.8333 222,45.1667 222.5,45.5C 221.147,46.5237 220.48,47.857 220.5,49.5C 219.325,49.281 218.325,49.6143 217.5,50.5C 218.127,51.4168 218.461,52.4168 218.5,53.5C 218.167,54.1667 217.833,54.8333 217.5,55.5C 216.5,55.5 215.5,55.5 214.5,55.5C 213.028,63.0452 212.195,70.7119 212,78.5C 211.71,76.9559 211.044,75.6226 210,74.5C 209.818,77.2263 209.318,79.8929 208.5,82.5C 206.423,80.9182 204.09,79.9182 201.5,79.5C 200.498,77.9891 199.831,76.3224 199.5,74.5C 197.073,74.477 194.74,73.977 192.5,73C 191.971,70.5714 190.637,68.7381 188.5,67.5C 187.109,68.6446 185.776,68.6446 184.5,67.5C 185.326,66.549 185.492,65.549 185,64.5C 183.274,65.5762 181.441,65.7429 179.5,65C 176.14,62.648 172.473,60.9813 168.5,60C 168.833,59.6667 169.167,59.3333 169.5,59C 167.134,58.5604 164.801,58.0604 162.5,57.5C 161.089,55.086 159.089,53.4194 156.5,52.5C 154.5,51.1667 152.833,49.5 151.5,47.5C 151.771,45.6203 151.104,44.287 149.5,43.5C 149.459,41.2547 148.625,40.5881 147,41.5C 146.333,46.5 146.333,51.5 147,56.5C 147.759,58.0629 148.926,59.0629 150.5,59.5C 150.683,61.9363 150.016,64.103 148.5,66C 148.957,66.414 149.291,66.914 149.5,67.5C 144.06,67.7708 143.393,65.9375 147.5,62C 146.207,61.51 144.873,61.3433 143.5,61.5C 140.918,64.161 139.252,67.4943 138.5,71.5C 136.591,70.6518 134.591,70.3184 132.5,70.5C 132.488,66.5541 134.488,64.8874 138.5,65.5C 138.714,63.8561 138.38,62.3561 137.5,61C 139.988,58.2252 139.655,56.7252 136.5,56.5C 138.349,48.9239 139.682,41.2573 140.5,33.5C 141.93,31.2555 142.93,28.7555 143.5,26C 214.499,25.5 285.499,25.3333 356.5,25.5C 356.334,31.5092 356.501,37.5092 357,43.5C 357.535,46.969 358.702,49.969 360.5,52.5 Z"/></g>
<g><path style="opacity:1" fill="#8c2737" d="M 358.5,93.5 C 357.448,91.744 355.781,91.0773 353.5,91.5C 353.5,91.1667 353.5,90.8333 353.5,90.5C 356.177,89.3855 358.844,89.3855 361.5,90.5C 360.452,91.548 359.452,92.548 358.5,93.5 Z"/></g>
<g><path style="opacity:1" fill="#592444" d="M 335.5,89.5 C 341.5,89.8333 347.5,90.1667 353.5,90.5C 353.5,90.8333 353.5,91.1667 353.5,91.5C 347.274,91.6123 341.274,90.9457 335.5,89.5 Z"/></g>
<g><path style="opacity:1" fill="#0e326f" d="M 259.5,44.5 C 260.708,45.2341 262.041,45.5674 263.5,45.5C 264.055,47.7288 265.389,49.3954 267.5,50.5C 269.781,51.2766 271.948,52.2766 274,53.5C 274.333,53.1667 274.667,52.8333 275,52.5C 276.039,53.7101 277.206,54.7101 278.5,55.5C 278.916,58.4059 279.582,61.2393 280.5,64C 280.333,65.1667 280.167,66.3333 280,67.5C 279.808,65.4233 279.308,63.4233 278.5,61.5C 277.398,64.1903 277.564,66.8569 279,69.5C 279.333,69.1667 279.667,68.8333 280,68.5C 280.667,74.1667 280.667,79.8333 280,85.5C 279.07,87.9361 277.903,90.2695 276.5,92.5C 277.243,93.1818 277.909,93.8485 278.5,94.5C 277.075,95.922 276.075,97.5887 275.5,99.5C 274.167,99.5 273.5,100.167 273.5,101.5C 272.167,102.167 271.167,103.167 270.5,104.5C 268.441,107.026 266.941,110.026 266,113.5C 265.722,112.584 265.222,111.918 264.5,111.5C 264.167,111.5 263.833,111.5 263.5,111.5C 263.5,111.167 263.5,110.833 263.5,110.5C 262.977,107.11 262.143,103.777 261,100.5C 260.617,99.944 260.117,99.6107 259.5,99.5C 259.59,96.8478 258.924,94.5145 257.5,92.5C 257.5,92.1667 257.5,91.8333 257.5,91.5C 256.377,86.7782 256.377,82.1116 257.5,77.5C 258.167,77.1667 258.833,76.8333 259.5,76.5C 262.471,73.1924 265.471,69.859 268.5,66.5C 270.027,66.573 271.027,65.9063 271.5,64.5C 272.478,64.189 273.145,63.5223 273.5,62.5C 270.232,61.513 266.898,61.1796 263.5,61.5C 258.156,61.334 252.823,61.5006 247.5,62C 246.244,62.4169 245.577,63.2502 245.5,64.5C 244.306,65.2719 243.306,66.2719 242.5,67.5C 239.741,68.6424 237.074,69.9757 234.5,71.5C 232.708,71.366 231.042,71.6993 229.5,72.5C 226.753,72.1866 224.086,72.52 221.5,73.5C 221.855,74.5223 222.522,75.189 223.5,75.5C 225.588,76.9395 227.921,77.6061 230.5,77.5C 233.713,77.19 236.713,77.5233 239.5,78.5C 242.272,88.8707 243.272,99.5374 242.5,110.5C 240.708,110.634 239.042,110.301 237.5,109.5C 237.155,106.802 235.822,104.802 233.5,103.5C 232.581,100.911 230.914,98.9108 228.5,97.5C 227.151,96.0475 225.485,95.0475 223.5,94.5C 222.833,93.5 222.167,92.5 221.5,91.5C 220.71,90.2058 219.71,89.0391 218.5,88C 218.593,81.2636 218.76,74.4302 219,67.5C 220.125,64.2165 221.125,60.8831 222,57.5C 225.371,54.2975 228.538,50.9641 231.5,47.5C 231.842,46.6618 232.508,46.3284 233.5,46.5C 242.071,44.9102 250.737,44.2435 259.5,44.5 Z"/></g>
<g><path style="opacity:1" fill="#c62626" d="M 326.5,87.5 C 327.183,89.1765 328.517,89.8432 330.5,89.5C 332.167,89.5 333.833,89.5 335.5,89.5C 341.274,90.9457 347.274,91.6123 353.5,91.5C 355.781,91.0773 357.448,91.744 358.5,93.5C 357.778,94.5511 356.778,95.2178 355.5,95.5C 355.804,94.8501 356.137,94.1835 356.5,93.5C 345.263,92.9406 334.263,91.6072 323.5,89.5C 323.821,87.9519 324.821,87.2852 326.5,87.5 Z"/></g>
<g><path style="opacity:1" fill="#bc3f38" d="M 288.5,87.5 C 287.556,89.6879 285.889,91.0212 283.5,91.5C 284.539,89.4689 286.205,88.1355 288.5,87.5 Z"/></g>
<g><path style="opacity:1" fill="#d16036" d="M 211.5,86.5 C 212.167,86.5 212.833,86.5 213.5,86.5C 215.689,88.9002 218.356,90.5669 221.5,91.5C 222.167,92.5 222.833,93.5 223.5,94.5C 219.828,92.4905 216.161,90.4905 212.5,88.5C 212.167,87.8333 211.833,87.1667 211.5,86.5 Z"/></g>
<g><path style="opacity:1" fill="#37354d" d="M 159.5,89.5 C 158.048,90.3019 156.382,90.8019 154.5,91C 148.965,91.2377 143.632,91.4044 138.5,91.5C 137.957,91.44 137.624,91.1067 137.5,90.5C 144.803,89.5027 152.137,89.1694 159.5,89.5 Z"/></g>
<g><path style="opacity:1" fill="#522340" d="M 335.5,85.5 C 333.494,86.4851 331.827,87.8184 330.5,89.5C 328.517,89.8432 327.183,89.1765 326.5,87.5C 327.791,87.7373 328.791,87.404 329.5,86.5C 331.435,85.8505 333.435,85.5172 335.5,85.5 Z"/></g>
<g><path style="opacity:1" fill="#dd512a" d="M 246.5,86.5 C 247.125,97.0918 246.125,107.425 243.5,117.5C 242.818,118.243 242.151,118.909 241.5,119.5C 244.26,107.911 244.76,96.2444 243,84.5C 242.284,82.1209 241.117,80.1209 239.5,78.5C 236.713,77.5233 233.713,77.19 230.5,77.5C 230.5,77.1667 230.5,76.8333 230.5,76.5C 234.571,76.7662 238.571,76.4328 242.5,75.5C 242.861,79.3569 243.694,83.3569 245,87.5C 245.383,86.944 245.883,86.6107 246.5,86.5 Z"/></g>
<g><path style="opacity:1" fill="#fb1c07" d="M 323.5,89.5 C 334.263,91.6072 345.263,92.9406 356.5,93.5C 356.137,94.1835 355.804,94.8501 355.5,95.5C 350.129,96.101 345.129,97.4343 340.5,99.5C 340.167,99.5 339.833,99.5 339.5,99.5C 336.102,99.1796 332.768,99.513 329.5,100.5C 330.94,101.952 332.606,102.952 334.5,103.5C 337.074,105.024 339.741,106.358 342.5,107.5C 342.5,108.167 342.833,108.5 343.5,108.5C 342.652,110.093 341.319,111.26 339.5,112C 330.298,112.793 321.131,112.626 312,111.5C 311.5,111.833 311,112.167 310.5,112.5C 312.679,115.65 314.346,118.983 315.5,122.5C 312.833,122.5 310.167,122.5 307.5,122.5C 306.609,121.89 305.609,121.557 304.5,121.5C 304.5,120.833 304.167,120.5 303.5,120.5C 302.448,118.744 300.781,118.077 298.5,118.5C 298.194,115.722 297.194,113.222 295.5,111C 295.667,110.167 295.833,109.333 296,108.5C 303.658,100.835 311.325,93.1683 319,85.5C 320.699,86.7044 322.199,88.0378 323.5,89.5 Z"/></g>
<g><path style="opacity:1" fill="#2a2f5c" d="M 278.5,55.5 C 279.143,57.0764 280.143,58.4097 281.5,59.5C 281.5,60.1667 281.5,60.8333 281.5,61.5C 282.229,66.1304 282.563,70.7971 282.5,75.5C 281.795,78.2443 281.795,80.911 282.5,83.5C 283.325,81.6404 284.325,79.9738 285.5,78.5C 284.795,81.2443 284.795,83.911 285.5,86.5C 286.506,86.0623 286.506,85.3957 285.5,84.5C 286.934,83.7702 288.1,82.7702 289,81.5C 290.356,82.3802 291.856,82.7135 293.5,82.5C 292.027,84.3947 290.36,86.0613 288.5,87.5C 286.205,88.1355 284.539,89.4689 283.5,91.5C 281.589,92.075 279.922,93.075 278.5,94.5C 277.909,93.8485 277.243,93.1818 276.5,92.5C 277.903,90.2695 279.07,87.9361 280,85.5C 280.667,79.8333 280.667,74.1667 280,68.5C 279.667,68.8333 279.333,69.1667 279,69.5C 277.564,66.8569 277.398,64.1903 278.5,61.5C 279.308,63.4233 279.808,65.4233 280,67.5C 280.167,66.3333 280.333,65.1667 280.5,64C 279.582,61.2393 278.916,58.4059 278.5,55.5 Z"/></g>
<g><path style="opacity:1" fill="#8d634e" d="M 162.5,85.5 C 165.152,85.4095 167.485,86.0762 169.5,87.5C 166.848,87.5905 164.515,86.9238 162.5,85.5 Z"/></g>
<g><path style="opacity:1" fill="#d02926" d="M 346.5,81.5 C 346.389,82.1174 346.056,82.6174 345.5,83C 342.223,84.1434 338.89,84.9767 335.5,85.5C 333.435,85.5172 331.435,85.8505 329.5,86.5C 334.806,84.3798 340.473,82.7131 346.5,81.5 Z"/></g>
<g><path style="opacity:1" fill="#6d2544" d="M 351.5,77.5 C 351.033,80.2974 349.367,81.6308 346.5,81.5C 348.142,80.197 349.809,78.8637 351.5,77.5 Z"/></g>
<g><path style="opacity:1" fill="#963938" d="M 299.5,79.5 C 298.738,81.2624 297.404,82.2624 295.5,82.5C 296.262,80.7376 297.596,79.7376 299.5,79.5 Z"/></g>
<g><path style="opacity:1" fill="#ac4a44" d="M 282.5,75.5 C 282.833,75.5 283.167,75.5 283.5,75.5C 283.938,76.5063 284.604,76.5063 285.5,75.5C 285.5,76.1667 285.5,76.8333 285.5,77.5C 285.5,77.8333 285.5,78.1667 285.5,78.5C 284.325,79.9738 283.325,81.6404 282.5,83.5C 281.795,80.911 281.795,78.2443 282.5,75.5 Z"/></g>
<g><path style="opacity:1" fill="#ce783c" d="M 149.5,79.5 C 157.09,82.8467 165.09,85.3467 173.5,87C 174.973,87.7096 175.64,88.8762 175.5,90.5C 164.506,91.2642 153.506,92.0975 142.5,93C 150.852,97.3471 159.852,99.3471 169.5,99C 172.113,100.071 172.113,100.905 169.5,101.5C 169.082,100.778 168.416,100.278 167.5,100C 164.854,99.5026 162.187,99.3359 159.5,99.5C 155.3,99.8099 151.3,99.1432 147.5,97.5C 143.979,96.3183 140.979,94.3183 138.5,91.5C 143.632,91.4044 148.965,91.2377 154.5,91C 156.382,90.8019 158.048,90.3019 159.5,89.5C 163.226,89.8226 166.893,89.4892 170.5,88.5C 170.376,87.8933 170.043,87.56 169.5,87.5C 167.485,86.0762 165.152,85.4095 162.5,85.5C 157.241,85.3686 152.907,83.3686 149.5,79.5 Z"/></g>
<g><path style="opacity:1" fill="#fa290a" d="M 349.5,55.5 C 349.5,56.1667 349.5,56.8333 349.5,57.5C 346.825,60.2094 344.158,62.8761 341.5,65.5C 339.596,65.7376 338.262,66.7376 337.5,68.5C 336.508,68.3284 335.842,68.6618 335.5,69.5C 333.973,69.427 332.973,70.0937 332.5,71.5C 330.326,71.7497 328.659,72.7497 327.5,74.5C 326.005,74.4148 325.005,75.0815 324.5,76.5C 326.396,77.4656 328.396,77.7989 330.5,77.5C 334.871,77.1252 339.204,76.4585 343.5,75.5C 345.884,74.9892 347.884,73.9892 349.5,72.5C 351.044,72.2969 352.378,71.6302 353.5,70.5C 354.434,72.0948 354.434,73.7615 353.5,75.5C 352.5,75.8333 351.833,76.5 351.5,77.5C 349.809,78.8637 348.142,80.197 346.5,81.5C 340.473,82.7131 334.806,84.3798 329.5,86.5C 328.791,87.404 327.791,87.7373 326.5,87.5C 324.821,87.2852 323.821,87.9519 323.5,89.5C 322.199,88.0378 320.699,86.7044 319,85.5C 311.325,93.1683 303.658,100.835 296,108.5C 295.833,109.333 295.667,110.167 295.5,111C 297.194,113.222 298.194,115.722 298.5,118.5C 300.781,118.077 302.448,118.744 303.5,120.5C 301.958,119.699 300.292,119.366 298.5,119.5C 297.833,119.5 297.167,119.5 296.5,119.5C 295.347,117.07 294.347,117.07 293.5,119.5C 293.747,120.713 294.414,121.38 295.5,121.5C 295.5,122.167 295.5,122.833 295.5,123.5C 297.568,126.092 298.901,129.092 299.5,132.5C 303.272,133.889 303.272,134.889 299.5,135.5C 297.307,135.281 295.307,134.615 293.5,133.5C 291.973,133.573 290.973,132.906 290.5,131.5C 288.761,128.757 286.427,126.757 283.5,125.5C 282.5,125.167 281.833,124.5 281.5,123.5C 280.448,121.744 278.781,121.077 276.5,121.5C 276.665,124.518 276.498,127.518 276,130.5C 274.334,129.66 274.167,130.16 275.5,132C 274.128,132.402 272.795,132.902 271.5,133.5C 270.502,124.859 270.169,116.192 270.5,107.5C 271.492,105.544 272.492,103.544 273.5,101.5C 273.5,100.167 274.167,99.5 275.5,99.5C 278.5,97.1667 281.167,94.5 283.5,91.5C 285.889,91.0212 287.556,89.6879 288.5,87.5C 290.36,86.0613 292.027,84.3947 293.5,82.5C 294.167,82.5 294.833,82.5 295.5,82.5C 297.404,82.2624 298.738,81.2624 299.5,79.5C 301.011,78.4975 302.678,77.8308 304.5,77.5C 307.183,75.6643 310.183,74.6643 313.5,74.5C 313.5,73.5 313.5,72.5 313.5,71.5C 317.243,71.3738 320.243,69.8738 322.5,67C 326.21,66.1708 329.21,64.3375 331.5,61.5C 333.853,60.6597 335.853,59.3264 337.5,57.5C 337.973,56.0937 338.973,55.427 340.5,55.5C 343.833,54.1667 346.167,51.8333 347.5,48.5C 348.458,48.0472 349.292,47.3805 350,46.5C 350.634,49.5547 350.468,52.5547 349.5,55.5 Z"/></g>
<g><path style="opacity:1" fill="#72273a" d="M 327.5,74.5 C 327.389,75.1174 327.056,75.6174 326.5,76C 327.793,76.49 329.127,76.6567 330.5,76.5C 330.5,76.8333 330.5,77.1667 330.5,77.5C 328.396,77.7989 326.396,77.4656 324.5,76.5C 325.005,75.0815 326.005,74.4148 327.5,74.5 Z"/></g>
<g><path style="opacity:1" fill="#d73927" d="M 313.5,71.5 C 313.5,72.5 313.5,73.5 313.5,74.5C 310.183,74.6643 307.183,75.6643 304.5,77.5C 306.592,74.2773 309.592,72.2773 313.5,71.5 Z"/></g>
<g><path style="opacity:1" fill="#a84a3c" d="M 259.5,73.5 C 259.5,74.5 259.5,75.5 259.5,76.5C 258.833,76.8333 258.167,77.1667 257.5,77.5C 257.66,75.847 258.326,74.5137 259.5,73.5 Z"/></g>
<g><path style="opacity:1" fill="#f65215" d="M 271.5,64.5 C 269.973,64.427 268.973,65.0937 268.5,66.5C 265.233,68.4273 262.233,70.7606 259.5,73.5C 258.326,74.5137 257.66,75.847 257.5,77.5C 256.377,82.1116 256.377,86.7782 257.5,91.5C 256.85,91.1961 256.183,90.8627 255.5,90.5C 254.833,86.5 254.167,82.5 253.5,78.5C 251.012,79.0248 248.679,79.8581 246.5,81C 247.807,82.9435 247.807,84.7768 246.5,86.5C 245.883,86.6107 245.383,86.944 245,87.5C 243.694,83.3569 242.861,79.3569 242.5,75.5C 238.571,76.4328 234.571,76.7662 230.5,76.5C 225.339,75.1613 225.672,74.328 231.5,74C 232.942,73.6232 233.942,72.7899 234.5,71.5C 237.074,69.9757 239.741,68.6424 242.5,67.5C 244.848,67.4077 246.514,66.4077 247.5,64.5C 254.326,63.8593 261.16,63.1926 268,62.5C 269.681,62.6083 270.848,63.2749 271.5,64.5 Z"/></g>
<g><path style="opacity:1" fill="#d12c23" d="M 347.5,72.5 C 348.167,72.5 348.833,72.5 349.5,72.5C 347.884,73.9892 345.884,74.9892 343.5,75.5C 339.204,76.4585 334.871,77.1252 330.5,77.5C 330.5,77.1667 330.5,76.8333 330.5,76.5C 336.404,75.9003 342.071,74.567 347.5,72.5 Z"/></g>
<g><path style="opacity:1" fill="#a15e4e" d="M 214.5,65.5 C 214.201,67.604 214.534,69.604 215.5,71.5C 216.172,70.0508 216.839,68.7175 217.5,67.5C 217.666,72.5111 217.499,77.5111 217,82.5C 216.617,81.944 216.117,81.6107 215.5,81.5C 214.837,77.5097 214.17,73.5097 213.5,69.5C 213.511,67.9549 213.844,66.6216 214.5,65.5 Z"/></g>
<g><path style="opacity:1" fill="#223161" d="M 217.5,55.5 C 215.753,58.5343 214.753,61.8676 214.5,65.5C 213.844,66.6216 213.511,67.9549 213.5,69.5C 214.17,73.5097 214.837,77.5097 215.5,81.5C 216.038,83.1172 216.371,84.7839 216.5,86.5C 215.5,86.5 214.5,86.5 213.5,86.5C 212.833,86.5 212.167,86.5 211.5,86.5C 207.817,84.6591 204.484,82.3258 201.5,79.5C 204.09,79.9182 206.423,80.9182 208.5,82.5C 209.318,79.8929 209.818,77.2263 210,74.5C 211.044,75.6226 211.71,76.9559 212,78.5C 212.195,70.7119 213.028,63.0452 214.5,55.5C 215.5,55.5 216.5,55.5 217.5,55.5 Z"/></g>
<g><path style="opacity:1" fill="#2d3047" d="M 153.5,72.5 C 156.757,72.639 159.924,73.3056 163,74.5C 164.681,74.3917 165.848,73.7251 166.5,72.5C 169.245,73.0844 171.578,74.4177 173.5,76.5C 171.54,77.5192 169.54,77.5192 167.5,76.5C 162.53,76.1017 157.864,74.7683 153.5,72.5 Z"/></g>
<g><path style="opacity:1" fill="#bd5f3e" d="M 234.5,71.5 C 233.942,72.7899 232.942,73.6232 231.5,74C 225.672,74.328 225.339,75.1613 230.5,76.5C 230.5,76.8333 230.5,77.1667 230.5,77.5C 227.921,77.6061 225.588,76.9395 223.5,75.5C 225.156,73.9397 227.156,72.9397 229.5,72.5C 231.042,71.6993 232.708,71.366 234.5,71.5 Z"/></g>
<g><path style="opacity:1" fill="#993040" d="M 332.5,71.5 C 331.341,73.2503 329.674,74.2503 327.5,74.5C 328.659,72.7497 330.326,71.7497 332.5,71.5 Z"/></g>
<g><path style="opacity:1" fill="#5f4656" d="M 229.5,72.5 C 227.156,72.9397 225.156,73.9397 223.5,75.5C 222.522,75.189 221.855,74.5223 221.5,73.5C 224.086,72.52 226.753,72.1866 229.5,72.5 Z"/></g>
<g><path style="opacity:1" fill="#853133" d="M 335.5,69.5 C 335.027,70.9063 334.027,71.573 332.5,71.5C 332.973,70.0937 333.973,69.427 335.5,69.5 Z"/></g>
<g><path style="opacity:1" fill="#382b50" d="M 323.5,64.5 C 322.205,65.4884 320.872,66.4884 319.5,67.5C 317.973,67.427 316.973,68.0937 316.5,69.5C 314.973,69.427 313.973,70.0937 313.5,71.5C 309.592,72.2773 306.592,74.2773 304.5,77.5C 302.678,77.8308 301.011,78.4975 299.5,79.5C 306.105,72.5171 314.105,67.5171 323.5,64.5 Z"/></g>
<g><path style="opacity:1" fill="#814249" d="M 281.5,61.5 C 282.222,61.9175 282.722,62.5842 283,63.5C 283.499,67.4862 283.666,71.4862 283.5,75.5C 283.167,75.5 282.833,75.5 282.5,75.5C 282.563,70.7971 282.229,66.1304 281.5,61.5 Z"/></g>
<g><path style="opacity:1" fill="#4e2f49" d="M 268.5,66.5 C 265.471,69.859 262.471,73.1924 259.5,76.5C 259.5,75.5 259.5,74.5 259.5,73.5C 262.233,70.7606 265.233,68.4273 268.5,66.5 Z"/></g>
<g><path style="opacity:1" fill="#40354c" d="M 231.5,47.5 C 228.538,50.9641 225.371,54.2975 222,57.5C 221.125,60.8831 220.125,64.2165 219,67.5C 218.76,74.4302 218.593,81.2636 218.5,88C 219.71,89.0391 220.71,90.2058 221.5,91.5C 218.356,90.5669 215.689,88.9002 213.5,86.5C 214.5,86.5 215.5,86.5 216.5,86.5C 216.371,84.7839 216.038,83.1172 215.5,81.5C 216.117,81.6107 216.617,81.944 217,82.5C 217.499,77.5111 217.666,72.5111 217.5,67.5C 218.646,58.3561 223.313,51.6894 231.5,47.5 Z"/></g>
<g><path style="opacity:1" fill="#81574c" d="M 183.5,69.5 C 185.027,69.427 186.027,70.0937 186.5,71.5C 184.973,71.573 183.973,70.9063 183.5,69.5 Z"/></g>
<g><path style="opacity:1" fill="#b32a33" d="M 353.5,75.5 C 354.434,73.7615 354.434,72.0948 353.5,70.5C 352.378,71.6302 351.044,72.2969 349.5,72.5C 348.833,72.5 348.167,72.5 347.5,72.5C 350.204,70.7269 353.037,69.0603 356,67.5C 356.5,67.8333 357,68.1667 357.5,68.5C 356.312,71.0213 354.978,73.3547 353.5,75.5 Z"/></g>
<g><path style="opacity:1" fill="#a13d3d" d="M 319.5,67.5 C 319.027,68.9063 318.027,69.573 316.5,69.5C 316.973,68.0937 317.973,67.427 319.5,67.5 Z"/></g>
<g><path style="opacity:1" fill="#752c35" d="M 341.5,65.5 C 340.738,67.2624 339.404,68.2624 337.5,68.5C 338.262,66.7376 339.596,65.7376 341.5,65.5 Z"/></g>
<g><path style="opacity:1" fill="#b05946" d="M 245.5,64.5 C 246.167,64.5 246.833,64.5 247.5,64.5C 246.514,66.4077 244.848,67.4077 242.5,67.5C 243.306,66.2719 244.306,65.2719 245.5,64.5 Z"/></g>
<g><path style="opacity:1" fill="#2c2a56" d="M 286.5,59.5 C 287.812,61.7432 288.478,64.4098 288.5,67.5C 288.167,70.1667 287.833,72.8333 287.5,75.5C 286.818,76.2427 286.151,76.9094 285.5,77.5C 285.5,76.8333 285.5,76.1667 285.5,75.5C 286.4,70.228 286.733,64.8947 286.5,59.5 Z"/></g>
<g><path style="opacity:1" fill="#8f4743" d="M 271.5,64.5 C 271.027,65.9063 270.027,66.573 268.5,66.5C 268.973,65.0937 269.973,64.427 271.5,64.5 Z"/></g>
<g><path style="opacity:1" fill="#d84d2c" d="M 283.5,53.5 C 283.259,55.8984 283.926,57.8984 285.5,59.5C 285.833,59.5 286.167,59.5 286.5,59.5C 286.733,64.8947 286.4,70.228 285.5,75.5C 284.604,76.5063 283.938,76.5063 283.5,75.5C 283.666,71.4862 283.499,67.4862 283,63.5C 282.722,62.5842 282.222,61.9175 281.5,61.5C 281.5,60.8333 281.5,60.1667 281.5,59.5C 280.85,57.5648 280.517,55.5648 280.5,53.5C 281.5,53.5 282.5,53.5 283.5,53.5 Z"/></g>
<g><path style="opacity:1" fill="#cd3a2a" d="M 331.5,61.5 C 329.21,64.3375 326.21,66.1708 322.5,67C 320.243,69.8738 317.243,71.3738 313.5,71.5C 313.973,70.0937 314.973,69.427 316.5,69.5C 318.027,69.573 319.027,68.9063 319.5,67.5C 320.872,66.4884 322.205,65.4884 323.5,64.5C 326.167,63.5 328.833,62.5 331.5,61.5 Z"/></g>
<g><path style="opacity:1" fill="#582643" d="M 349.5,57.5 C 348.5,61.8333 345.833,64.5 341.5,65.5C 344.158,62.8761 346.825,60.2094 349.5,57.5 Z"/></g>
<g><path style="opacity:1" fill="#be5841" d="M 263.5,61.5 C 266.898,61.1796 270.232,61.513 273.5,62.5C 273.145,63.5223 272.478,64.189 271.5,64.5C 270.848,63.2749 269.681,62.6083 268,62.5C 261.16,63.1926 254.326,63.8593 247.5,64.5C 252.735,62.9944 258.068,61.9944 263.5,61.5 Z"/></g>
<g><path style="opacity:1" fill="#392a3f" d="M 263.5,61.5 C 258.068,61.9944 252.735,62.9944 247.5,64.5C 246.833,64.5 246.167,64.5 245.5,64.5C 245.577,63.2502 246.244,62.4169 247.5,62C 252.823,61.5006 258.156,61.334 263.5,61.5 Z"/></g>
<g><path style="opacity:1" fill="#a7383c" d="M 337.5,57.5 C 335.853,59.3264 333.853,60.6597 331.5,61.5C 332.802,59.1782 334.802,57.8449 337.5,57.5 Z"/></g>
<g><path style="opacity:1" fill="#a74739" d="M 283.5,53.5 C 285.074,55.1016 285.741,57.1016 285.5,59.5C 283.926,57.8984 283.259,55.8984 283.5,53.5 Z"/></g>
<g><path style="opacity:1" fill="#3f3946" d="M 156.5,52.5 C 159.089,53.4194 161.089,55.086 162.5,57.5C 161.391,57.4431 160.391,57.1098 159.5,56.5C 158.5,55.1667 157.5,53.8333 156.5,52.5 Z"/></g>
<g><path style="opacity:1" fill="#383d4e" d="M 149.5,43.5 C 148.883,43.3893 148.383,43.056 148,42.5C 146.891,48.4989 147.725,54.1656 150.5,59.5C 148.926,59.0629 147.759,58.0629 147,56.5C 146.333,51.5 146.333,46.5 147,41.5C 148.625,40.5881 149.459,41.2547 149.5,43.5 Z"/></g>
<g><path style="opacity:1" fill="#df8f3a" d="M 149.5,43.5 C 149.66,45.153 150.326,46.4863 151.5,47.5C 152.833,49.5 154.5,51.1667 156.5,52.5C 157.5,53.8333 158.5,55.1667 159.5,56.5C 157.983,56.4894 156.816,55.8228 156,54.5C 154.701,55.09 153.868,56.09 153.5,57.5C 155.337,61.1725 157.671,64.5058 160.5,67.5C 156.897,65.2369 153.564,62.5703 150.5,59.5C 147.725,54.1656 146.891,48.4989 148,42.5C 148.383,43.056 148.883,43.3893 149.5,43.5 Z"/></g>
<g><path style="opacity:1" fill="#bd3730" d="M 347.5,48.5 C 346.167,51.8333 343.833,54.1667 340.5,55.5C 342.5,52.8333 344.833,50.5 347.5,48.5 Z"/></g>
<g><path style="opacity:1" fill="#cd5233" d="M 279.5,46.5 C 281.588,48.3356 282.921,50.6689 283.5,53.5C 282.5,53.5 281.5,53.5 280.5,53.5C 280.517,55.5648 280.85,57.5648 281.5,59.5C 280.143,58.4097 279.143,57.0764 278.5,55.5C 277.962,53.8828 277.629,52.2161 277.5,50.5C 278.151,51.0906 278.818,51.7573 279.5,52.5C 280.519,50.5405 280.519,48.5405 279.5,46.5 Z"/></g>
<g><path style="opacity:1" fill="#ac694a" d="M 226.5,45.5 C 224.157,48.2072 221.823,50.8739 219.5,53.5C 220.45,49.5865 222.783,46.9198 226.5,45.5 Z"/></g>
<g><path style="opacity:1" fill="#bd3632" d="M 349.5,43.5 C 351.344,45.2789 352.01,47.6122 351.5,50.5C 351.88,52.698 351.213,54.3646 349.5,55.5C 350.468,52.5547 350.634,49.5547 350,46.5C 349.292,47.3805 348.458,48.0472 347.5,48.5C 348.167,46.8333 348.833,45.1667 349.5,43.5 Z"/></g>
<g><path style="opacity:1" fill="#76384b" d="M 351.5,50.5 C 352.01,47.6122 351.344,45.2789 349.5,43.5C 349.706,41.4508 350.539,41.1175 352,42.5C 352.801,45.367 352.634,48.0336 351.5,50.5 Z"/></g>
<g><path style="opacity:1" fill="#353a3d" d="M 149.5,43.5 C 151.104,44.287 151.771,45.6203 151.5,47.5C 150.326,46.4863 149.66,45.153 149.5,43.5 Z"/></g>
<g><path style="opacity:1" fill="#232e54" d="M 259.5,44.5 C 250.737,44.2435 242.071,44.9102 233.5,46.5C 235.181,44.9925 237.181,43.9925 239.5,43.5C 246.406,41.8575 253.072,42.1909 259.5,44.5 Z"/></g>
<g><path style="opacity:1" fill="#ab5d46" d="M 255.5,39.5 C 259.99,40.9895 263.99,43.3228 267.5,46.5C 267.167,46.8333 266.833,47.1667 266.5,47.5C 265.482,46.8075 264.482,46.1408 263.5,45.5C 262.041,45.5674 260.708,45.2341 259.5,44.5C 253.072,42.1909 246.406,41.8575 239.5,43.5C 244.991,42.3275 250.324,40.9942 255.5,39.5 Z"/></g>
<g><path style="opacity:1" fill="#da6e35" d="M 249.5,38.5 C 251.435,39.1495 253.435,39.4828 255.5,39.5C 250.324,40.9942 244.991,42.3275 239.5,43.5C 237.181,43.9925 235.181,44.9925 233.5,46.5C 232.508,46.3284 231.842,46.6618 231.5,47.5C 223.313,51.6894 218.646,58.3561 217.5,67.5C 216.839,68.7175 216.172,70.0508 215.5,71.5C 214.534,69.604 214.201,67.604 214.5,65.5C 214.753,61.8676 215.753,58.5343 217.5,55.5C 217.833,54.8333 218.167,54.1667 218.5,53.5C 218.833,53.5 219.167,53.5 219.5,53.5C 221.823,50.8739 224.157,48.2072 226.5,45.5C 226.953,44.5416 227.619,43.7083 228.5,43C 231.53,41.7159 234.53,40.5492 237.5,39.5C 241.434,38.6403 245.434,38.307 249.5,38.5 Z"/></g>
<g><path style="opacity:1" fill="#e85b22" d="M 265.5,34.5 C 268.597,36.081 271.597,37.9143 274.5,40C 276.79,41.7772 278.457,43.9438 279.5,46.5C 280.519,48.5405 280.519,50.5405 279.5,52.5C 278.818,51.7573 278.151,51.0906 277.5,50.5C 274.194,47.8605 271.194,44.8605 268.5,41.5C 266.143,39.2553 263.476,37.2553 260.5,35.5C 262.045,34.5481 263.712,34.2148 265.5,34.5 Z"/></g>
<g><path style="opacity:1" fill="#343156" d="M 250.5,33.5 C 250.5,33.8333 250.5,34.1667 250.5,34.5C 252.631,35.3138 254.964,35.8138 257.5,36C 260.973,38.3179 264.639,40.1512 268.5,41.5C 271.194,44.8605 274.194,47.8605 277.5,50.5C 277.629,52.2161 277.962,53.8828 278.5,55.5C 277.206,54.7101 276.039,53.7101 275,52.5C 274.667,52.8333 274.333,53.1667 274,53.5C 271.948,52.2766 269.781,51.2766 267.5,50.5C 265.389,49.3954 264.055,47.7288 263.5,45.5C 264.482,46.1408 265.482,46.8075 266.5,47.5C 266.833,47.1667 267.167,46.8333 267.5,46.5C 263.99,43.3228 259.99,40.9895 255.5,39.5C 253.435,39.4828 251.435,39.1495 249.5,38.5C 247.735,37.5386 245.735,37.2053 243.5,37.5C 244.609,36.71 245.942,36.21 247.5,36C 245.5,35.8333 243.5,35.6667 241.5,35.5C 236.687,35.9118 232.021,36.9118 227.5,38.5C 228.833,37.5 230.167,36.5 231.5,35.5C 237.717,33.8982 244.051,33.2315 250.5,33.5 Z"/></g>
<g><path style="opacity:1" fill="#b57956" d="M 231.5,33.5 C 230.494,34.3957 230.494,35.0623 231.5,35.5C 230.167,36.5 228.833,37.5 227.5,38.5C 226.391,38.5569 225.391,38.8902 224.5,39.5C 223.833,39.5 223.5,39.1667 223.5,38.5C 225.822,36.336 228.489,34.6693 231.5,33.5 Z"/></g>
<g><path style="opacity:1" fill="#1b3160" d="M 255.5,29.5 C 250.156,29.334 244.823,29.5006 239.5,30C 238.263,30.2321 237.263,30.7321 236.5,31.5C 234.678,31.8308 233.011,32.4975 231.5,33.5C 228.489,34.6693 225.822,36.336 223.5,38.5C 221.243,39.5618 220.077,41.2285 220,43.5C 221.667,42.2668 223.167,40.9335 224.5,39.5C 225.391,38.8902 226.391,38.5569 227.5,38.5C 232.021,36.9118 236.687,35.9118 241.5,35.5C 243.5,35.6667 245.5,35.8333 247.5,36C 245.942,36.21 244.609,36.71 243.5,37.5C 240.99,37.0535 238.99,37.7202 237.5,39.5C 234.53,40.5492 231.53,41.7159 228.5,43C 227.619,43.7083 226.953,44.5416 226.5,45.5C 222.783,46.9198 220.45,49.5865 219.5,53.5C 219.167,53.5 218.833,53.5 218.5,53.5C 218.461,52.4168 218.127,51.4168 217.5,50.5C 218.325,49.6143 219.325,49.281 220.5,49.5C 220.48,47.857 221.147,46.5237 222.5,45.5C 222,45.1667 221.5,44.8333 221,44.5C 219.018,47.094 217.185,47.094 215.5,44.5C 216.951,43.094 218.284,41.594 219.5,40C 215.864,39.3736 215.864,38.2069 219.5,36.5C 218.833,35.8333 218.167,35.1667 217.5,34.5C 217.833,34.1667 218.167,33.8333 218.5,33.5C 220.061,34.3473 221.561,34.0139 223,32.5C 224.726,33.5762 226.559,33.7429 228.5,33C 237.154,28.5248 246.154,27.3582 255.5,29.5 Z"/></g>
<g><path style="opacity:1" fill="#7c666c" d="M 223.5,38.5 C 223.5,39.1667 223.833,39.5 224.5,39.5C 223.167,40.9335 221.667,42.2668 220,43.5C 220.077,41.2285 221.243,39.5618 223.5,38.5 Z"/></g>
<g><path style="opacity:1" fill="#4b3334" d="M 243.5,37.5 C 245.735,37.2053 247.735,37.5386 249.5,38.5C 245.434,38.307 241.434,38.6403 237.5,39.5C 238.99,37.7202 240.99,37.0535 243.5,37.5 Z"/></g>
<g><path style="opacity:1" fill="#d96234" d="M 261.5,32.5 C 262.167,32.5 262.833,32.5 263.5,32.5C 264.167,33.1667 264.833,33.8333 265.5,34.5C 263.712,34.2148 262.045,34.5481 260.5,35.5C 263.476,37.2553 266.143,39.2553 268.5,41.5C 264.639,40.1512 260.973,38.3179 257.5,36C 254.964,35.8138 252.631,35.3138 250.5,34.5C 254.387,34.3541 258.054,33.6874 261.5,32.5 Z"/></g>
<g><path style="opacity:1" fill="#db7337" d="M 243.5,30.5 C 243.389,31.1174 243.056,31.6174 242.5,32C 245.365,32.1829 248.031,32.6829 250.5,33.5C 244.051,33.2315 237.717,33.8982 231.5,35.5C 230.494,35.0623 230.494,34.3957 231.5,33.5C 233.011,32.4975 234.678,31.8308 236.5,31.5C 238.903,31.552 241.236,31.2186 243.5,30.5 Z"/></g>
<g><path style="opacity:1" fill="#f0691e" d="M 243.5,30.5 C 249.622,30.2683 255.622,30.9349 261.5,32.5C 258.054,33.6874 254.387,34.3541 250.5,34.5C 250.5,34.1667 250.5,33.8333 250.5,33.5C 248.031,32.6829 245.365,32.1829 242.5,32C 243.056,31.6174 243.389,31.1174 243.5,30.5 Z"/></g>
<g><path style="opacity:1" fill="#392f41" d="M 255.5,29.5 C 258.716,29.3455 261.383,30.3455 263.5,32.5C 262.833,32.5 262.167,32.5 261.5,32.5C 259.5,31.5 257.5,30.5 255.5,29.5 Z"/></g>
<g><path style="opacity:1" fill="#b56744" d="M 255.5,29.5 C 257.5,30.5 259.5,31.5 261.5,32.5C 255.622,30.9349 249.622,30.2683 243.5,30.5C 241.236,31.2186 238.903,31.552 236.5,31.5C 237.263,30.7321 238.263,30.2321 239.5,30C 244.823,29.5006 250.156,29.334 255.5,29.5 Z"/></g>
<g><path style="opacity:1" fill="#f86615" d="M 190.5,75.5 C 191.167,75.5 191.833,75.5 192.5,75.5C 195.352,77.0909 198.352,78.4242 201.5,79.5C 204.484,82.3258 207.817,84.6591 211.5,86.5C 211.833,87.1667 212.167,87.8333 212.5,88.5C 209.931,87.5804 207.597,88.2471 205.5,90.5C 207.398,91.7345 209.065,91.4011 210.5,89.5C 211.833,90.8333 211.833,92.1667 210.5,93.5C 205.033,97.4659 200.033,101.966 195.5,107C 192.124,107.307 190.79,109.14 191.5,112.5C 183.319,112.022 174.652,112.022 165.5,112.5C 164.602,111.842 163.602,111.176 162.5,110.5C 165.135,109.728 167.801,109.562 170.5,110C 171.191,108.933 171.691,107.766 172,106.5C 172.333,106.833 172.667,107.167 173,107.5C 173.827,106.338 174.66,105.171 175.5,104C 175.095,103.055 174.428,102.388 173.5,102C 177.416,100.089 181.083,97.7554 184.5,95C 186.824,91.677 189.491,88.677 192.5,86C 191.366,84.984 191.699,84.3173 193.5,84C 192.62,82.6439 192.286,81.1439 192.5,79.5C 191.325,79.719 190.325,79.3857 189.5,78.5C 190.127,77.5832 190.461,76.5832 190.5,75.5 Z"/></g>
<g><path style="opacity:1" fill="#be4036" d="M 283.5,91.5 C 281.167,94.5 278.5,97.1667 275.5,99.5C 276.075,97.5887 277.075,95.922 278.5,94.5C 279.922,93.075 281.589,92.075 283.5,91.5 Z"/></g>
<g><path style="opacity:1" fill="#f95713" d="M 212.5,88.5 C 216.161,90.4905 219.828,92.4905 223.5,94.5C 225.485,95.0475 227.151,96.0475 228.5,97.5C 228.557,98.609 228.89,99.609 229.5,100.5C 227.473,100.338 225.473,100.505 223.5,101C 221.355,104.312 218.688,107.146 215.5,109.5C 214.349,112.465 212.682,115.131 210.5,117.5C 209.334,115.635 209.667,113.968 211.5,112.5C 210.167,111.167 208.833,111.167 207.5,112.5C 207.417,114.092 207.751,115.759 208.5,117.5C 208.253,118.713 207.586,119.38 206.5,119.5C 206.38,118.414 205.713,117.747 204.5,117.5C 200.882,118.346 197.215,118.68 193.5,118.5C 193.5,119.5 193.5,120.5 193.5,121.5C 193.158,122.338 192.492,122.672 191.5,122.5C 187.396,123.477 183.23,124.143 179,124.5C 176.967,124.494 175.134,124.161 173.5,123.5C 174.833,123.5 175.5,122.833 175.5,121.5C 175.833,121.5 176.167,121.5 176.5,121.5C 178.027,121.573 179.027,120.906 179.5,119.5C 183.527,118.653 187.194,116.987 190.5,114.5C 191.609,115.59 192.609,115.59 193.5,114.5C 193.145,113.478 192.478,112.811 191.5,112.5C 190.79,109.14 192.124,107.307 195.5,107C 200.033,101.966 205.033,97.4659 210.5,93.5C 211.833,92.1667 211.833,90.8333 210.5,89.5C 209.065,91.4011 207.398,91.7345 205.5,90.5C 207.597,88.2471 209.931,87.5804 212.5,88.5 Z"/></g>
<g><path style="opacity:1" fill="#c6493b" d="M 257.5,92.5 C 258.924,94.5145 259.59,96.8478 259.5,99.5C 258.076,97.4855 257.41,95.1522 257.5,92.5 Z"/></g>
<g><path style="opacity:1" fill="#af503c" d="M 228.5,97.5 C 230.914,98.9108 232.581,100.911 233.5,103.5C 232.167,102.5 230.833,101.5 229.5,100.5C 228.89,99.609 228.557,98.609 228.5,97.5 Z"/></g>
<g><path style="opacity:1" fill="#b6212c" d="M 355.5,95.5 C 353.076,96.9831 350.409,98.1498 347.5,99C 345.19,99.4966 342.857,99.6633 340.5,99.5C 345.129,97.4343 350.129,96.101 355.5,95.5 Z"/></g>
<g><path style="opacity:1" fill="#7d5242" d="M 159.5,99.5 C 162.187,99.3359 164.854,99.5026 167.5,100C 168.416,100.278 169.082,100.778 169.5,101.5C 168.167,101.833 166.833,102.167 165.5,102.5C 163.844,100.94 161.844,99.9397 159.5,99.5 Z"/></g>
<g><path style="opacity:1" fill="#89283b" d="M 339.5,99.5 C 339.5,99.8333 339.5,100.167 339.5,100.5C 337.801,100.34 336.134,100.506 334.5,101C 333.402,101.77 333.402,102.603 334.5,103.5C 332.606,102.952 330.94,101.952 329.5,100.5C 332.768,99.513 336.102,99.1796 339.5,99.5 Z"/></g>
<g><path style="opacity:1" fill="#352858" d="M 339.5,100.5 C 339.5,101.833 339.5,103.167 339.5,104.5C 341.057,105.868 343.391,106.868 346.5,107.5C 345.167,107.5 343.833,107.5 342.5,107.5C 339.741,106.358 337.074,105.024 334.5,103.5C 333.402,102.603 333.402,101.77 334.5,101C 336.134,100.506 337.801,100.34 339.5,100.5 Z"/></g>
<g><path style="opacity:1" fill="#273053" d="M 147.5,97.5 C 151.3,99.1432 155.3,99.8099 159.5,99.5C 161.844,99.9397 163.844,100.94 165.5,102.5C 165.5,103.167 165.167,103.5 164.5,103.5C 162.278,104.688 159.945,105.688 157.5,106.5C 157.703,104.956 158.37,103.622 159.5,102.5C 159.291,101.914 158.957,101.414 158.5,101C 155.833,100.667 153.167,100.333 150.5,100C 149.058,99.6232 148.058,98.7899 147.5,97.5 Z"/></g>
<g><path style="opacity:1" fill="#a73c3b" d="M 273.5,101.5 C 272.492,103.544 271.492,105.544 270.5,107.5C 270.5,106.5 270.5,105.5 270.5,104.5C 271.167,103.167 272.167,102.167 273.5,101.5 Z"/></g>
<g><path style="opacity:1" fill="#c36e42" d="M 164.5,103.5 C 162.685,106.407 160.019,107.741 156.5,107.5C 156.5,107.167 156.5,106.833 156.5,106.5C 156.833,106.5 157.167,106.5 157.5,106.5C 159.945,105.688 162.278,104.688 164.5,103.5 Z"/></g>
<g><path style="opacity:1" fill="#ac403a" d="M 259.5,99.5 C 260.117,99.6107 260.617,99.944 261,100.5C 262.143,103.777 262.977,107.11 263.5,110.5C 263.167,110.5 262.833,110.5 262.5,110.5C 261.122,106.95 260.122,103.283 259.5,99.5 Z"/></g>
<g><path style="opacity:1" fill="#a32037" d="M 342.5,107.5 C 343.833,107.5 345.167,107.5 346.5,107.5C 349.1,108.969 348.767,109.969 345.5,110.5C 345.5,109.167 344.833,108.5 343.5,108.5C 342.833,108.5 342.5,108.167 342.5,107.5 Z"/></g>
<g><path style="opacity:1" fill="#b87352" d="M 156.5,107.5 C 155.571,108.315 154.571,109.148 153.5,110C 154.056,110.383 154.389,110.883 154.5,111.5C 152.804,111.315 151.471,110.481 150.5,109C 152.345,107.872 154.345,107.372 156.5,107.5 Z"/></g>
<g><path style="opacity:1" fill="#f93a0d" d="M 257.5,91.5 C 257.5,91.8333 257.5,92.1667 257.5,92.5C 257.41,95.1522 258.076,97.4855 259.5,99.5C 260.122,103.283 261.122,106.95 262.5,110.5C 262.5,117.5 262.5,124.5 262.5,131.5C 261.424,134.871 260.424,138.204 259.5,141.5C 258.833,142.833 258.167,144.167 257.5,145.5C 257.167,145.5 256.833,145.5 256.5,145.5C 257.484,141.224 258.317,136.891 259,132.5C 259.654,133.696 260.154,133.696 260.5,132.5C 259.675,131.614 258.675,131.281 257.5,131.5C 258.003,126.828 258.169,122.161 258,117.5C 255.908,120.373 254.908,123.707 255,127.5C 250.503,132.83 245.669,137.83 240.5,142.5C 239.914,142.291 239.414,141.957 239,141.5C 236.402,146.975 235.902,152.642 237.5,158.5C 236.675,159.386 235.675,159.719 234.5,159.5C 234.5,157.167 234.5,154.833 234.5,152.5C 235.477,149.713 235.81,146.713 235.5,143.5C 237.213,142.365 237.88,140.698 237.5,138.5C 237.5,137.833 237.5,137.167 237.5,136.5C 238.657,133.727 239.324,130.727 239.5,127.5C 240.167,124.833 240.833,122.167 241.5,119.5C 242.151,118.909 242.818,118.243 243.5,117.5C 246.125,107.425 247.125,97.0918 246.5,86.5C 247.807,84.7768 247.807,82.9435 246.5,81C 248.679,79.8581 251.012,79.0248 253.5,78.5C 254.167,82.5 254.833,86.5 255.5,90.5C 256.183,90.8627 256.85,91.1961 257.5,91.5 Z"/></g>
<g><path style="opacity:1" fill="#6d213e" d="M 345.5,111.5 C 344.07,112.537 342.403,113.204 340.5,113.5C 341.635,111.787 343.302,111.12 345.5,111.5 Z"/></g>
<g><path style="opacity:1" fill="#ce6336" d="M 155.5,111.5 C 158.807,112.051 162.14,112.384 165.5,112.5C 174.652,112.022 183.319,112.022 191.5,112.5C 192.478,112.811 193.145,113.478 193.5,114.5C 192.609,115.59 191.609,115.59 190.5,114.5C 187.194,116.987 183.527,118.653 179.5,119.5C 181.5,117.833 183.5,116.167 185.5,114.5C 186.756,114.539 187.756,114.039 188.5,113C 186.288,112.211 184.288,112.378 182.5,113.5C 175.523,114.457 168.523,114.623 161.5,114C 159.277,113.434 157.277,112.6 155.5,111.5 Z"/></g>
<g><path style="opacity:1" fill="#632b22" d="M 182.5,113.5 C 184.288,112.378 186.288,112.211 188.5,113C 187.756,114.039 186.756,114.539 185.5,114.5C 184.791,113.596 183.791,113.263 182.5,113.5 Z"/></g>
<g><path style="opacity:1" fill="#d74c2e" d="M 233.5,103.5 C 235.822,104.802 237.155,106.802 237.5,109.5C 237.5,113.5 237.5,117.5 237.5,121.5C 237.167,121.5 236.833,121.5 236.5,121.5C 236.666,117.486 236.499,113.486 236,109.5C 235.667,109.833 235.333,110.167 235,110.5C 234.802,108.618 234.302,106.952 233.5,105.5C 233.5,104.833 233.5,104.167 233.5,103.5 Z"/></g>
<g><path style="opacity:1" fill="#2f2a53" d="M 270.5,104.5 C 270.5,105.5 270.5,106.5 270.5,107.5C 269.596,108.209 269.263,109.209 269.5,110.5C 268.771,118.036 268.105,125.702 267.5,133.5C 267.5,134.167 267.5,134.833 267.5,135.5C 267.167,135.5 266.833,135.5 266.5,135.5C 266.785,133.712 266.452,132.045 265.5,130.5C 264.817,130.863 264.15,131.196 263.5,131.5C 263.833,130.167 264.167,128.833 264.5,127.5C 265.702,122.311 265.702,116.977 264.5,111.5C 265.222,111.918 265.722,112.584 266,113.5C 266.941,110.026 268.441,107.026 270.5,104.5 Z"/></g>
<g><path style="opacity:1" fill="#f84d12" d="M 229.5,100.5 C 230.833,101.5 232.167,102.5 233.5,103.5C 233.5,104.167 233.5,104.833 233.5,105.5C 231.797,104.34 231.131,105.007 231.5,107.5C 227.743,107.286 227.076,108.286 229.5,110.5C 227.922,111.298 226.256,111.798 224.5,112C 225.603,113.68 225.27,115.18 223.5,116.5C 222.167,115.5 220.833,114.5 219.5,113.5C 217.043,115.001 217.043,116.668 219.5,118.5C 221.078,119.298 222.744,119.798 224.5,120C 224,120.5 223.5,121 223,121.5C 222.333,124.833 222.333,128.167 223,131.5C 224.081,129.233 225.581,129.066 227.5,131C 224.875,133.196 223.875,136.03 224.5,139.5C 223.5,138.167 222.5,136.833 221.5,135.5C 221.483,133.435 221.15,131.435 220.5,129.5C 220.5,126.833 220.5,124.167 220.5,121.5C 218.821,121.285 217.821,121.952 217.5,123.5C 215.167,125.167 213.167,127.167 211.5,129.5C 210.167,130.167 208.833,130.833 207.5,131.5C 204.268,133.033 201.102,134.699 198,136.5C 197.167,136.333 196.333,136.167 195.5,136C 196.582,134.67 197.249,133.17 197.5,131.5C 198.906,131.027 199.573,130.027 199.5,128.5C 202.044,127.292 203.378,125.292 203.5,122.5C 203.5,121.833 203.833,121.5 204.5,121.5C 205.833,121.5 206.5,120.833 206.5,119.5C 207.586,119.38 208.253,118.713 208.5,117.5C 207.751,115.759 207.417,114.092 207.5,112.5C 208.833,111.167 210.167,111.167 211.5,112.5C 209.667,113.968 209.334,115.635 210.5,117.5C 212.682,115.131 214.349,112.465 215.5,109.5C 218.688,107.146 221.355,104.312 223.5,101C 225.473,100.505 227.473,100.338 229.5,100.5 Z"/></g>
<g><path style="opacity:1" fill="#1b3062" d="M 156.5,106.5 C 156.5,106.833 156.5,107.167 156.5,107.5C 154.345,107.372 152.345,107.872 150.5,109C 151.471,110.481 152.804,111.315 154.5,111.5C 154.833,111.5 155.167,111.5 155.5,111.5C 157.277,112.6 159.277,113.434 161.5,114C 168.523,114.623 175.523,114.457 182.5,113.5C 183.791,113.263 184.791,113.596 185.5,114.5C 183.5,116.167 181.5,117.833 179.5,119.5C 178.833,119.5 178.167,119.5 177.5,119.5C 177.5,118.5 177.5,117.5 177.5,116.5C 172.156,116.334 166.823,116.501 161.5,117C 161.957,117.414 162.291,117.914 162.5,118.5C 156.659,120.186 155.659,119.02 159.5,115C 156.723,114.358 154.056,113.524 151.5,112.5C 147.982,112.285 147.649,113.119 150.5,115C 147.795,114.998 145.795,113.665 144.5,111C 147.901,111.266 149.567,109.766 149.5,106.5C 151.833,106.5 154.167,106.5 156.5,106.5 Z"/></g>
<g><path style="opacity:1" fill="#da542d" d="M 206.5,119.5 C 206.5,120.833 205.833,121.5 204.5,121.5C 204.209,120.351 203.376,119.684 202,119.5C 199.13,120.093 196.297,120.759 193.5,121.5C 193.5,120.5 193.5,119.5 193.5,118.5C 197.215,118.68 200.882,118.346 204.5,117.5C 205.713,117.747 206.38,118.414 206.5,119.5 Z"/></g>
<g><path style="opacity:1" fill="#6b263a" d="M 263.5,111.5 C 263.833,111.5 264.167,111.5 264.5,111.5C 265.702,116.977 265.702,122.311 264.5,127.5C 264.608,122.13 264.275,116.797 263.5,111.5 Z"/></g>
<g><path style="opacity:1" fill="#932331" d="M 296.5,119.5 C 295.662,119.842 295.328,120.508 295.5,121.5C 294.414,121.38 293.747,120.713 293.5,119.5C 294.347,117.07 295.347,117.07 296.5,119.5 Z"/></g>
<g><path style="opacity:1" fill="#ab2c33" d="M 298.5,119.5 C 300.292,119.366 301.958,119.699 303.5,120.5C 304.167,120.5 304.5,120.833 304.5,121.5C 302.102,121.741 300.102,121.074 298.5,119.5 Z"/></g>
<g><path style="opacity:1" fill="#a0574d" d="M 177.5,119.5 C 178.167,119.5 178.833,119.5 179.5,119.5C 179.027,120.906 178.027,121.573 176.5,121.5C 176.833,120.833 177.167,120.167 177.5,119.5 Z"/></g>
<g><path style="opacity:1" fill="#3e2b4d" d="M 239.5,78.5 C 241.117,80.1209 242.284,82.1209 243,84.5C 244.76,96.2444 244.26,107.911 241.5,119.5C 240.833,122.167 240.167,124.833 239.5,127.5C 237.882,130.171 237.215,133.171 237.5,136.5C 237.5,137.167 237.5,137.833 237.5,138.5C 236.833,138.833 236.167,139.167 235.5,139.5C 235.5,136.833 235.5,134.167 235.5,131.5C 235.5,130.5 235.5,129.5 235.5,128.5C 236.924,126.485 237.59,124.152 237.5,121.5C 237.5,117.5 237.5,113.5 237.5,109.5C 239.042,110.301 240.708,110.634 242.5,110.5C 243.272,99.5374 242.272,88.8707 239.5,78.5 Z"/></g>
<g><path style="opacity:1" fill="#de1c1b" d="M 343.5,108.5 C 344.833,108.5 345.5,109.167 345.5,110.5C 345.5,110.833 345.5,111.167 345.5,111.5C 343.302,111.12 341.635,111.787 340.5,113.5C 331.475,113.168 322.475,113.502 313.5,114.5C 316.851,116.859 320.185,119.192 323.5,121.5C 324.429,122.315 325.429,123.148 326.5,124C 325.944,124.383 325.611,124.883 325.5,125.5C 322.167,125.5 318.833,125.5 315.5,125.5C 313.898,123.926 311.898,123.259 309.5,123.5C 308.508,123.672 307.842,123.338 307.5,122.5C 310.167,122.5 312.833,122.5 315.5,122.5C 314.346,118.983 312.679,115.65 310.5,112.5C 311,112.167 311.5,111.833 312,111.5C 321.131,112.626 330.298,112.793 339.5,112C 341.319,111.26 342.652,110.093 343.5,108.5 Z"/></g>
<g><path style="opacity:1" fill="#a2685e" d="M 175.5,121.5 C 175.5,122.833 174.833,123.5 173.5,123.5C 172.833,123.833 172.167,124.167 171.5,124.5C 170.833,124.5 170.5,124.167 170.5,123.5C 172.05,122.559 173.716,121.893 175.5,121.5 Z"/></g>
<g><path style="opacity:1" fill="#da3a2a" d="M 262.5,110.5 C 262.833,110.5 263.167,110.5 263.5,110.5C 263.5,110.833 263.5,111.167 263.5,111.5C 264.275,116.797 264.608,122.13 264.5,127.5C 264.167,128.833 263.833,130.167 263.5,131.5C 263.167,131.5 262.833,131.5 262.5,131.5C 262.5,124.5 262.5,117.5 262.5,110.5 Z"/></g>
<g><path style="opacity:1" fill="#b55a3e" d="M 191.5,122.5 C 189.5,123.5 187.5,124.5 185.5,125.5C 180.637,125.819 175.97,125.486 171.5,124.5C 172.167,124.167 172.833,123.833 173.5,123.5C 175.134,124.161 176.967,124.494 179,124.5C 183.23,124.143 187.396,123.477 191.5,122.5 Z"/></g>
<g><path style="opacity:1" fill="#8c3744" d="M 269.5,110.5 C 269.666,117.841 269.5,125.174 269,132.5C 268.617,133.056 268.117,133.389 267.5,133.5C 268.105,125.702 268.771,118.036 269.5,110.5 Z"/></g>
<g><path style="opacity:1" fill="#7d203b" d="M 309.5,123.5 C 311.898,123.259 313.898,123.926 315.5,125.5C 313.102,125.741 311.102,125.074 309.5,123.5 Z"/></g>
<g><path style="opacity:1" fill="#672548" d="M 323.5,121.5 C 324.978,121.238 326.311,121.571 327.5,122.5C 328.872,124.62 328.205,125.62 325.5,125.5C 325.611,124.883 325.944,124.383 326.5,124C 325.429,123.148 324.429,122.315 323.5,121.5 Z"/></g>
<g><path style="opacity:1" fill="#313050" d="M 170.5,123.5 C 170.5,124.167 170.833,124.5 171.5,124.5C 175.97,125.486 180.637,125.819 185.5,125.5C 180.36,126.488 175.026,126.821 169.5,126.5C 169.263,125.209 169.596,124.209 170.5,123.5 Z"/></g>
<g><path style="opacity:1" fill="#1f3161" d="M 204.5,121.5 C 203.833,121.5 203.5,121.833 203.5,122.5C 201.782,124.223 200.449,126.223 199.5,128.5C 198.094,128.973 197.427,129.973 197.5,131.5C 197.167,131.5 196.833,131.5 196.5,131.5C 195.833,129.5 195.167,127.5 194.5,125.5C 191.5,125.5 188.5,125.5 185.5,125.5C 187.5,124.5 189.5,123.5 191.5,122.5C 192.492,122.672 193.158,122.338 193.5,121.5C 196.297,120.759 199.13,120.093 202,119.5C 203.376,119.684 204.209,120.351 204.5,121.5 Z"/></g>
<g><path style="opacity:1" fill="#a7412f" d="M 220.5,129.5 C 220.167,129.5 219.833,129.5 219.5,129.5C 219.975,126.918 219.308,124.918 217.5,123.5C 217.821,121.952 218.821,121.285 220.5,121.5C 220.5,124.167 220.5,126.833 220.5,129.5 Z"/></g>
<g><path style="opacity:1" fill="#fa400e" d="M 233.5,105.5 C 234.302,106.952 234.802,108.618 235,110.5C 235.333,110.167 235.667,109.833 236,109.5C 236.499,113.486 236.666,117.486 236.5,121.5C 236.007,123.806 235.674,126.139 235.5,128.5C 235.5,129.5 235.5,130.5 235.5,131.5C 234.549,132.919 234.216,134.585 234.5,136.5C 233.883,136.611 233.383,136.944 233,137.5C 232.418,142.655 231.251,147.655 229.5,152.5C 229.5,152.833 229.5,153.167 229.5,153.5C 228.542,153.953 227.708,154.619 227,155.5C 226.817,152.635 226.317,149.969 225.5,147.5C 225.599,144.763 225.265,142.096 224.5,139.5C 223.875,136.03 224.875,133.196 227.5,131C 225.581,129.066 224.081,129.233 223,131.5C 222.333,128.167 222.333,124.833 223,121.5C 223.5,121 224,120.5 224.5,120C 222.744,119.798 221.078,119.298 219.5,118.5C 217.043,116.668 217.043,115.001 219.5,113.5C 220.833,114.5 222.167,115.5 223.5,116.5C 225.27,115.18 225.603,113.68 224.5,112C 226.256,111.798 227.922,111.298 229.5,110.5C 227.076,108.286 227.743,107.286 231.5,107.5C 231.131,105.007 231.797,104.34 233.5,105.5 Z"/></g>
<g><path style="opacity:1" fill="#a62e36" d="M 283.5,125.5 C 286.427,126.757 288.761,128.757 290.5,131.5C 287.573,130.243 285.239,128.243 283.5,125.5 Z"/></g>
<g><path style="opacity:1" fill="#a04e41" d="M 203.5,122.5 C 203.378,125.292 202.044,127.292 199.5,128.5C 200.449,126.223 201.782,124.223 203.5,122.5 Z"/></g>
<g><path style="opacity:1" fill="#a14442" d="M 236.5,121.5 C 236.833,121.5 237.167,121.5 237.5,121.5C 237.59,124.152 236.924,126.485 235.5,128.5C 235.674,126.139 236.007,123.806 236.5,121.5 Z"/></g>
<g><path style="opacity:1" fill="#fb2909" d="M 256.5,145.5 C 255.4,146.605 254.733,147.938 254.5,149.5C 251.254,147.972 250.588,148.806 252.5,152C 251.14,154.27 250.473,156.77 250.5,159.5C 248.69,162.145 247.69,165.145 247.5,168.5C 247.5,168.833 247.5,169.167 247.5,169.5C 245.769,170.985 244.769,172.985 244.5,175.5C 242.535,182.76 241.868,190.427 242.5,198.5C 242.762,199.978 242.429,201.311 241.5,202.5C 240.943,200.668 239.943,199.335 238.5,198.5C 237.793,193.343 236.627,188.343 235,183.5C 234.5,175.507 234.334,167.507 234.5,159.5C 235.675,159.719 236.675,159.386 237.5,158.5C 235.902,152.642 236.402,146.975 239,141.5C 239.414,141.957 239.914,142.291 240.5,142.5C 245.669,137.83 250.503,132.83 255,127.5C 254.908,123.707 255.908,120.373 258,117.5C 258.169,122.161 258.003,126.828 257.5,131.5C 258.675,131.281 259.675,131.614 260.5,132.5C 260.154,133.696 259.654,133.696 259,132.5C 258.317,136.891 257.484,141.224 256.5,145.5 Z"/></g>
<g><path style="opacity:1" fill="#3e2a4a" d="M 217.5,123.5 C 219.308,124.918 219.975,126.918 219.5,129.5C 218.839,128.282 218.172,126.949 217.5,125.5C 215.736,127.278 213.736,128.611 211.5,129.5C 213.167,127.167 215.167,125.167 217.5,123.5 Z"/></g>
<g><path style="opacity:1" fill="#9d4d3c" d="M 199.5,128.5 C 199.573,130.027 198.906,131.027 197.5,131.5C 197.427,129.973 198.094,128.973 199.5,128.5 Z"/></g>
<g><path style="opacity:1" fill="#4a2d46" d="M 219.5,129.5 C 219.833,129.5 220.167,129.5 220.5,129.5C 221.15,131.435 221.483,133.435 221.5,135.5C 219.926,133.898 219.259,131.898 219.5,129.5 Z"/></g>
<g><path style="opacity:1" fill="#ea2b18" d="M 270.5,107.5 C 270.169,116.192 270.502,124.859 271.5,133.5C 272.795,132.902 274.128,132.402 275.5,132C 274.167,130.16 274.334,129.66 276,130.5C 276.498,127.518 276.665,124.518 276.5,121.5C 278.781,121.077 280.448,121.744 281.5,123.5C 278.99,126.549 277.49,130.216 277,134.5C 274.763,136.941 272.929,139.607 271.5,142.5C 270.85,142.804 270.183,143.137 269.5,143.5C 268.604,146.144 267.771,148.81 267,151.5C 266.502,148.183 266.335,144.85 266.5,141.5C 267.15,139.565 267.483,137.565 267.5,135.5C 267.5,134.833 267.5,134.167 267.5,133.5C 268.117,133.389 268.617,133.056 269,132.5C 269.5,125.174 269.666,117.841 269.5,110.5C 269.263,109.209 269.596,108.209 270.5,107.5 Z"/></g>
<g><path style="opacity:1" fill="#652b40" d="M 262.5,131.5 C 262.833,131.5 263.167,131.5 263.5,131.5C 263.23,135.358 261.897,138.691 259.5,141.5C 260.424,138.204 261.424,134.871 262.5,131.5 Z"/></g>
<g><path style="opacity:1" fill="#9a3d37" d="M 239.5,127.5 C 239.324,130.727 238.657,133.727 237.5,136.5C 237.215,133.171 237.882,130.171 239.5,127.5 Z"/></g>
<g><path style="opacity:1" fill="#da1f1f" d="M 295.5,123.5 C 298.968,127.141 302.302,130.974 305.5,135C 307.305,135.972 308.972,137.139 310.5,138.5C 303.736,140.373 298.07,138.706 293.5,133.5C 295.307,134.615 297.307,135.281 299.5,135.5C 303.272,134.889 303.272,133.889 299.5,132.5C 298.901,129.092 297.568,126.092 295.5,123.5 Z"/></g>
<g><path style="opacity:1" fill="#ce5433" d="M 196.5,131.5 C 196.833,131.5 197.167,131.5 197.5,131.5C 197.249,133.17 196.582,134.67 195.5,136C 196.333,136.167 197.167,136.333 198,136.5C 201.102,134.699 204.268,133.033 207.5,131.5C 203.536,136.526 198.203,139.192 191.5,139.5C 190.167,139.167 188.833,138.833 187.5,138.5C 191.102,136.874 194.102,134.541 196.5,131.5 Z"/></g>
<g><path style="opacity:1" fill="#8a2f34" d="M 235.5,131.5 C 235.5,134.167 235.5,136.833 235.5,139.5C 234.833,139.833 234.167,140.167 233.5,140.5C 233.833,139.167 234.167,137.833 234.5,136.5C 234.216,134.585 234.549,132.919 235.5,131.5 Z"/></g>
<g><path style="opacity:1" fill="#8d2c3a" d="M 266.5,135.5 C 266.833,135.5 267.167,135.5 267.5,135.5C 267.483,137.565 267.15,139.565 266.5,141.5C 266.167,141.5 265.833,141.5 265.5,141.5C 265.517,139.435 265.85,137.435 266.5,135.5 Z"/></g>
<g><path style="opacity:1" fill="#8d3133" d="M 237.5,138.5 C 237.88,140.698 237.213,142.365 235.5,143.5C 235.5,142.167 235.5,140.833 235.5,139.5C 236.167,139.167 236.833,138.833 237.5,138.5 Z"/></g>
<g><path style="opacity:1" fill="#c62d2e" d="M 265.5,141.5 C 265.833,141.5 266.167,141.5 266.5,141.5C 266.335,144.85 266.502,148.183 267,151.5C 267.771,148.81 268.604,146.144 269.5,143.5C 270.183,143.137 270.85,142.804 271.5,142.5C 270.545,144.746 269.878,147.079 269.5,149.5C 268.732,150.263 268.232,151.263 268,152.5C 267.329,153.252 266.496,153.586 265.5,153.5C 265.5,149.5 265.5,145.5 265.5,141.5 Z"/></g>
<g><path style="opacity:1" fill="#c04036" d="M 234.5,136.5 C 234.167,137.833 233.833,139.167 233.5,140.5C 233.274,144.292 232.44,147.959 231,151.5C 230.617,152.056 230.117,152.389 229.5,152.5C 231.251,147.655 232.418,142.655 233,137.5C 233.383,136.944 233.883,136.611 234.5,136.5 Z"/></g>
<g><path style="opacity:1" fill="#903335" d="M 256.5,145.5 C 256.833,145.5 257.167,145.5 257.5,145.5C 256.492,147.544 255.492,149.544 254.5,151.5C 254.5,150.833 254.5,150.167 254.5,149.5C 254.733,147.938 255.4,146.605 256.5,145.5 Z"/></g>
<g><path style="opacity:1" fill="#382c52" d="M 221.5,135.5 C 222.5,136.833 223.5,138.167 224.5,139.5C 225.265,142.096 225.599,144.763 225.5,147.5C 225.18,150.898 225.513,154.232 226.5,157.5C 227.183,157.137 227.85,156.804 228.5,156.5C 228.586,157.496 228.252,158.329 227.5,159C 225.911,160.543 224.577,160.543 223.5,159C 224.087,156.375 224.42,153.708 224.5,151C 223.494,145.823 222.494,140.656 221.5,135.5 Z"/></g>
<g><path style="opacity:1" fill="#d33026" d="M 254.5,149.5 C 254.5,150.167 254.5,150.833 254.5,151.5C 253.617,154.385 252.284,157.052 250.5,159.5C 250.473,156.77 251.14,154.27 252.5,152C 250.588,148.806 251.254,147.972 254.5,149.5 Z"/></g>
<g><path style="opacity:1" fill="#4c2b4e" d="M 235.5,139.5 C 235.5,140.833 235.5,142.167 235.5,143.5C 235.81,146.713 235.477,149.713 234.5,152.5C 233.507,161.318 233.173,170.318 233.5,179.5C 232.509,173.021 232.176,166.354 232.5,159.5C 232.663,157.143 232.497,154.81 232,152.5C 231.292,153.381 230.458,154.047 229.5,154.5C 229.5,154.167 229.5,153.833 229.5,153.5C 229.5,153.167 229.5,152.833 229.5,152.5C 230.117,152.389 230.617,152.056 231,151.5C 232.44,147.959 233.274,144.292 233.5,140.5C 234.167,140.167 234.833,139.833 235.5,139.5 Z"/></g>
<g><path style="opacity:1" fill="#a13a39" d="M 225.5,147.5 C 226.317,149.969 226.817,152.635 227,155.5C 227.708,154.619 228.542,153.953 229.5,153.5C 229.5,153.833 229.5,154.167 229.5,154.5C 229.167,155.167 228.833,155.833 228.5,156.5C 227.85,156.804 227.183,157.137 226.5,157.5C 225.513,154.232 225.18,150.898 225.5,147.5 Z"/></g>
<g><path style="opacity:1" fill="#6e2e49" d="M 269.5,149.5 C 269.817,152.572 269.484,155.572 268.5,158.5C 267.048,157.06 266.048,155.394 265.5,153.5C 266.496,153.586 267.329,153.252 268,152.5C 268.232,151.263 268.732,150.263 269.5,149.5 Z"/></g>
<g><path style="opacity:1" fill="#0a3163" d="M 442.5,111.5 C 443.833,124.483 444.499,137.816 444.5,151.5C 444.949,173.58 443.949,195.58 441.5,217.5C 440.707,213.661 440.04,209.661 439.5,205.5C 439.804,203.559 440.637,201.893 442,200.5C 442.5,170.835 442.667,141.169 442.5,111.5 Z"/></g>
<g><path style="opacity:1" fill="#5c2345" d="M 250.5,159.5 C 250.472,162.916 249.472,165.916 247.5,168.5C 247.69,165.145 248.69,162.145 250.5,159.5 Z"/></g>
<g><path style="opacity:0.467" fill="#173b6c" d="M 73.5,110.5 C 72.7375,111.268 71.7375,111.768 70.5,112C 65.1771,112.499 59.8437,112.666 54.5,112.5C 54.3264,141.842 54.6597,171.175 55.5,200.5C 54.6733,195.349 54.1733,190.016 54,184.5C 53.5,160.169 53.3334,135.836 53.5,111.5C 60.1741,111.287 66.8407,110.954 73.5,110.5 Z"/></g>
<g><path style="opacity:1" fill="#d12b28" d="M 234.5,152.5 C 234.5,154.833 234.5,157.167 234.5,159.5C 234.334,167.507 234.5,175.507 235,183.5C 236.627,188.343 237.793,193.343 238.5,198.5C 239.11,199.391 239.443,200.391 239.5,201.5C 235.976,194.753 233.976,187.42 233.5,179.5C 233.173,170.318 233.507,161.318 234.5,152.5 Z"/></g>
<g><path style="opacity:1" fill="#75283f" d="M 247.5,169.5 C 244.741,178.705 244.074,188.039 245.5,197.5C 245.5,198.167 245.5,198.833 245.5,199.5C 244.778,199.082 244.278,198.416 244,197.5C 243.274,190.131 243.441,182.798 244.5,175.5C 244.769,172.985 245.769,170.985 247.5,169.5 Z"/></g>
<g><path style="opacity:1" fill="#262a5f" d="M 232.5,159.5 C 232.176,166.354 232.509,173.021 233.5,179.5C 233.976,187.42 235.976,194.753 239.5,201.5C 239.5,202.167 239.5,202.833 239.5,203.5C 240.038,205.117 240.371,206.784 240.5,208.5C 189.331,208.168 138.331,208.501 87.5,209.5C 87.1936,212.385 87.5269,215.052 88.5,217.5C 88.5,217.833 88.5,218.167 88.5,218.5C 88.9629,221.482 89.2962,224.482 89.5,227.5C 89.4095,230.152 90.0762,232.485 91.5,234.5C 92.0067,238.86 92.6734,243.193 93.5,247.5C 92.7784,247.082 92.2784,246.416 92,245.5C 91.6667,245.833 91.3333,246.167 91,246.5C 90.6667,245.167 90.3333,243.833 90,242.5C 88.7567,243.336 87.5901,243.003 86.5,241.5C 87.7582,242.016 88.7582,241.35 89.5,239.5C 87.1919,235.064 86.8586,230.397 88.5,225.5C 86.8561,220.305 85.8561,214.972 85.5,209.5C 85.6082,208.558 85.9415,207.725 86.5,207C 133.982,207.156 181.315,206.322 228.5,204.5C 229.167,204.833 229.833,205.167 230.5,205.5C 231.029,202.743 232.029,200.243 233.5,198C 232.296,196.647 231.629,194.981 231.5,193C 232.239,189.173 232.406,185.34 232,181.5C 231.122,176.755 229.955,172.755 228.5,169.5C 229.846,166.056 231.179,162.723 232.5,159.5 Z"/></g>
<g><path style="opacity:1" fill="#1e2b62" d="M 248.5,206.5 C 302.834,206.333 357.168,206.5 411.5,207C 412.61,209.737 412.777,212.571 412,215.5C 411.057,220.809 410.224,226.142 409.5,231.5C 408.828,232.949 408.161,234.282 407.5,235.5C 407.5,234.167 407.5,232.833 407.5,231.5C 408.487,226.883 409.154,222.216 409.5,217.5C 411.482,214.627 411.815,211.627 410.5,208.5C 356.5,207.833 302.5,207.167 248.5,206.5 Z"/></g>
<g><path style="opacity:1" fill="#391d4a" d="M 245.5,197.5 C 246.326,200.955 247.326,203.955 248.5,206.5C 302.5,207.167 356.5,207.833 410.5,208.5C 356.5,208.5 302.5,208.5 248.5,208.5C 245.925,206.155 244.925,203.155 245.5,199.5C 245.5,198.833 245.5,198.167 245.5,197.5 Z"/></g>
<g><path style="opacity:1" fill="#86203f" d="M 239.5,203.5 C 241.28,204.99 241.946,206.99 241.5,209.5C 190.167,209.5 138.833,209.5 87.5,209.5C 138.331,208.501 189.331,208.168 240.5,208.5C 240.371,206.784 240.038,205.117 239.5,203.5 Z"/></g>
<g><path style="opacity:1" fill="#862040" d="M 248.5,208.5 C 302.5,208.5 356.5,208.5 410.5,208.5C 411.815,211.627 411.482,214.627 409.5,217.5C 409.833,214.833 410.167,212.167 410.5,209.5C 356.331,209.832 302.331,209.499 248.5,208.5 Z"/></g>
<g><path style="opacity:1" fill="#d00c1e" d="M 87.5,209.5 C 138.833,209.5 190.167,209.5 241.5,209.5C 190.669,210.499 139.669,210.832 88.5,210.5C 88.5,212.833 88.5,215.167 88.5,217.5C 87.5269,215.052 87.1936,212.385 87.5,209.5 Z"/></g>
<g><path style="opacity:1" fill="#d0101e" d="M 244.5,175.5 C 243.441,182.798 243.274,190.131 244,197.5C 244.278,198.416 244.778,199.082 245.5,199.5C 244.925,203.155 245.925,206.155 248.5,208.5C 302.331,209.499 356.331,209.832 410.5,209.5C 410.167,212.167 409.833,214.833 409.5,217.5C 409.154,222.216 408.487,226.883 407.5,231.5C 407.167,231.5 406.833,231.5 406.5,231.5C 407.493,224.538 408.16,217.538 408.5,210.5C 354.499,210.667 300.499,210.5 246.5,210C 245.114,206.102 243.78,202.268 242.5,198.5C 241.868,190.427 242.535,182.76 244.5,175.5 Z"/></g>
<g><path style="opacity:1" fill="#ef0107" d="M 238.5,198.5 C 239.943,199.335 240.943,200.668 241.5,202.5C 242.429,201.311 242.762,199.978 242.5,198.5C 243.78,202.268 245.114,206.102 246.5,210C 300.499,210.5 354.499,210.667 408.5,210.5C 408.16,217.538 407.493,224.538 406.5,231.5C 406.5,231.833 406.5,232.167 406.5,232.5C 405.883,232.611 405.383,232.944 405,233.5C 403.67,240.482 402.504,247.482 401.5,254.5C 401.5,255.167 401.5,255.833 401.5,256.5C 399.926,258.102 399.259,260.102 399.5,262.5C 399.5,263.167 399.5,263.833 399.5,264.5C 396.908,266.036 395.908,268.369 396.5,271.5C 395.181,274.31 394.181,277.31 393.5,280.5C 391.755,284.071 390.422,287.738 389.5,291.5C 387.933,293.625 386.6,295.958 385.5,298.5C 382.871,300.381 381.537,303.047 381.5,306.5C 380.559,308.05 379.893,309.716 379.5,311.5C 378.094,311.973 377.427,312.973 377.5,314.5C 376.326,315.514 375.66,316.847 375.5,318.5C 374.326,319.514 373.66,320.847 373.5,322.5C 372.094,322.973 371.427,323.973 371.5,325.5C 369.178,326.802 367.845,328.802 367.5,331.5C 365.605,332.973 363.939,334.64 362.5,336.5C 361.034,337.347 360.2,338.68 360,340.5C 359.667,340.167 359.333,339.833 359,339.5C 358.667,340.833 358.333,342.167 358,343.5C 356.951,342.483 355.784,342.316 354.5,343C 355.973,343.71 356.64,344.876 356.5,346.5C 355.325,346.281 354.325,346.614 353.5,347.5C 351.871,351.622 349.205,354.788 345.5,357C 345.957,357.414 346.291,357.914 346.5,358.5C 344.833,359.167 343.167,359.833 341.5,360.5C 342.428,361.768 342.595,363.101 342,364.5C 341.586,364.043 341.086,363.709 340.5,363.5C 339.289,364.274 339.289,365.107 340.5,366C 339.552,366.483 338.552,366.649 337.5,366.5C 337.5,367.833 337.5,369.167 337.5,370.5C 336.4,371.605 335.733,372.938 335.5,374.5C 334.094,374.973 333.427,375.973 333.5,377.5C 326.556,382.775 320.223,388.775 314.5,395.5C 312.251,396.08 310.585,397.413 309.5,399.5C 306.5,400.5 304.5,402.5 303.5,405.5C 302.508,405.328 301.842,405.662 301.5,406.5C 298.865,407.473 296.865,409.14 295.5,411.5C 293.851,412.473 292.184,413.473 290.5,414.5C 288.5,414.5 287.5,415.5 287.5,417.5C 281.918,420.411 276.585,423.744 271.5,427.5C 268.802,427.845 266.802,429.178 265.5,431.5C 262.487,431.581 260.487,432.914 259.5,435.5C 258.167,435.833 256.833,436.167 255.5,436.5C 254.141,435.993 253.141,434.993 252.5,433.5C 251.209,435.097 249.709,436.43 248,437.5C 246.365,437.122 244.865,436.456 243.5,435.5C 244.025,434.808 244.692,434.308 245.5,434C 243.189,434.155 240.856,434.155 238.5,434C 235.131,430.379 231.131,428.213 226.5,427.5C 224.598,423.943 221.598,421.943 217.5,421.5C 215.147,420.66 213.147,419.326 211.5,417.5C 211.027,416.094 210.027,415.427 208.5,415.5C 204.854,413.183 201.52,410.516 198.5,407.5C 196.761,404.757 194.427,402.757 191.5,401.5C 189.761,398.757 187.427,396.757 184.5,395.5C 182.1,392.097 179.1,389.43 175.5,387.5C 174.5,387.167 173.833,386.5 173.5,385.5C 172.067,383.442 171.4,381.108 171.5,378.5C 168.159,379.157 166.159,377.824 165.5,374.5C 164.583,373.873 163.583,373.539 162.5,373.5C 160.167,371.5 157.833,369.5 155.5,367.5C 153.078,363.656 150.411,359.99 147.5,356.5C 147.38,352.385 145.38,349.719 141.5,348.5C 140.5,348.167 139.833,347.5 139.5,346.5C 137.462,343.474 135.462,340.474 133.5,337.5C 131.898,333.905 129.898,330.571 127.5,327.5C 127.573,325.973 126.906,324.973 125.5,324.5C 125.267,322.938 124.6,321.605 123.5,320.5C 123.25,318.326 122.25,316.659 120.5,315.5C 119.662,315.158 119.328,314.492 119.5,313.5C 119.573,311.973 118.906,310.973 117.5,310.5C 117.5,310.167 117.5,309.833 117.5,309.5C 117.379,306.895 116.379,304.895 114.5,303.5C 114.771,301.62 114.104,300.287 112.5,299.5C 112.658,296.639 111.992,293.972 110.5,291.5C 110.68,290.446 111.013,289.446 111.5,288.5C 110.119,286.365 109.119,284.032 108.5,281.5C 107.914,281.709 107.414,282.043 107,282.5C 106.405,281.101 106.572,279.768 107.5,278.5C 106.675,277.614 105.675,277.281 104.5,277.5C 104.843,275.517 104.176,274.183 102.5,273.5C 102.672,272.508 102.338,271.842 101.5,271.5C 100.067,269.442 99.4003,267.108 99.5,264.5C 99.573,262.973 98.9063,261.973 97.5,261.5C 97.4828,259.435 97.1495,257.435 96.5,255.5C 96.8285,251.646 96.1618,247.979 94.5,244.5C 94.4296,242.334 95.0962,242.001 96.5,243.5C 97.5,242.5 98.5,241.5 99.5,240.5C 98.0095,239.756 96.5095,239.09 95,238.5C 94.1345,234.361 92.6345,230.695 90.5,227.5C 90.7847,224.171 90.1181,221.171 88.5,218.5C 88.5,218.167 88.5,217.833 88.5,217.5C 88.5,215.167 88.5,212.833 88.5,210.5C 139.669,210.832 190.669,210.499 241.5,209.5C 241.946,206.99 241.28,204.99 239.5,203.5C 239.5,202.833 239.5,202.167 239.5,201.5C 239.443,200.391 239.11,199.391 238.5,198.5 Z"/></g>
<g><path style="opacity:1" fill="#bb152a" d="M 88.5,218.5 C 90.1181,221.171 90.7847,224.171 90.5,227.5C 90.1667,227.5 89.8333,227.5 89.5,227.5C 89.2962,224.482 88.9629,221.482 88.5,218.5 Z"/></g>
<g><path style="opacity:1" fill="#89193a" d="M 89.5,227.5 C 89.8333,227.5 90.1667,227.5 90.5,227.5C 90.9926,229.806 91.3259,232.139 91.5,234.5C 90.0762,232.485 89.4095,230.152 89.5,227.5 Z"/></g>
<g><path style="opacity:1" fill="#c31225" d="M 406.5,232.5 C 405.85,234.435 405.517,236.435 405.5,238.5C 405.155,244.179 403.822,249.512 401.5,254.5C 402.504,247.482 403.67,240.482 405,233.5C 405.383,232.944 405.883,232.611 406.5,232.5 Z"/></g>
<g><path style="opacity:1" fill="#941638" d="M 406.5,231.5 C 406.833,231.5 407.167,231.5 407.5,231.5C 407.5,232.833 407.5,234.167 407.5,235.5C 406.833,236.5 406.167,237.5 405.5,238.5C 405.517,236.435 405.85,234.435 406.5,232.5C 406.5,232.167 406.5,231.833 406.5,231.5 Z"/></g>
<g><path style="opacity:1" fill="#dc0916" d="M 90.5,227.5 C 92.6345,230.695 94.1345,234.361 95,238.5C 96.5095,239.09 98.0095,239.756 99.5,240.5C 98.5,241.5 97.5,242.5 96.5,243.5C 95.0962,242.001 94.4296,242.334 94.5,244.5C 96.1618,247.979 96.8285,251.646 96.5,255.5C 95.6618,255.158 95.3284,254.492 95.5,253.5C 95.7406,251.102 95.0739,249.102 93.5,247.5C 92.6734,243.193 92.0067,238.86 91.5,234.5C 91.3259,232.139 90.9926,229.806 90.5,227.5 Z"/></g>
<g><path style="opacity:1" fill="#5c1d45" d="M 93.5,247.5 C 95.0739,249.102 95.7406,251.102 95.5,253.5C 93.9261,251.898 93.2594,249.898 93.5,247.5 Z"/></g>
<g><path style="opacity:1" fill="#7a1b3b" d="M 401.5,256.5 C 401.741,258.898 401.074,260.898 399.5,262.5C 399.259,260.102 399.926,258.102 401.5,256.5 Z"/></g>
<g><path style="opacity:1" fill="#8c1c38" d="M 97.5,261.5 C 98.9063,261.973 99.573,262.973 99.5,264.5C 98.0937,264.027 97.427,263.027 97.5,261.5 Z"/></g>
<g><path style="opacity:1" fill="#9d1632" d="M 399.5,264.5 C 398.067,266.558 397.4,268.892 397.5,271.5C 397.167,271.5 396.833,271.5 396.5,271.5C 395.908,268.369 396.908,266.036 399.5,264.5 Z"/></g>
<g><path style="opacity:1" fill="#921636" d="M 101.5,271.5 C 102.338,271.842 102.672,272.508 102.5,273.5C 103.11,274.391 103.443,275.391 103.5,276.5C 101.787,275.365 101.12,273.698 101.5,271.5 Z"/></g>
<g><path style="opacity:1" fill="#462555" d="M 396.5,271.5 C 396.833,271.5 397.167,271.5 397.5,271.5C 396.895,274.127 396.395,276.793 396,279.5C 395.329,280.252 394.496,280.586 393.5,280.5C 394.181,277.31 395.181,274.31 396.5,271.5 Z"/></g>
<g><path style="opacity:1" fill="#d90a18" d="M 102.5,273.5 C 104.176,274.183 104.843,275.517 104.5,277.5C 105.675,277.281 106.675,277.614 107.5,278.5C 106.572,279.768 106.405,281.101 107,282.5C 107.414,282.043 107.914,281.709 108.5,281.5C 109.119,284.032 110.119,286.365 111.5,288.5C 111.013,289.446 110.68,290.446 110.5,291.5C 111.992,293.972 112.658,296.639 112.5,299.5C 108.738,292.108 105.738,284.441 103.5,276.5C 103.443,275.391 103.11,274.391 102.5,273.5 Z"/></g>
<g><path style="opacity:1" fill="#452353" d="M 389.5,291.5 C 389.026,295.871 387.359,299.538 384.5,302.5C 384.833,301.167 385.167,299.833 385.5,298.5C 386.6,295.958 387.933,293.625 389.5,291.5 Z"/></g>
<g><path style="opacity:1" fill="#b5142b" d="M 385.5,298.5 C 385.167,299.833 384.833,301.167 384.5,302.5C 383.857,304.076 382.857,305.41 381.5,306.5C 381.537,303.047 382.871,300.381 385.5,298.5 Z"/></g>
<g><path style="opacity:1" fill="#9f1735" d="M 112.5,299.5 C 114.104,300.287 114.771,301.62 114.5,303.5C 113.326,302.486 112.66,301.153 112.5,299.5 Z"/></g>
<g><path style="opacity:1" fill="#961b38" d="M 114.5,303.5 C 116.379,304.895 117.379,306.895 117.5,309.5C 115.755,307.967 114.755,305.967 114.5,303.5 Z"/></g>
<g><path style="opacity:1" fill="#821941" d="M 117.5,310.5 C 118.906,310.973 119.573,311.973 119.5,313.5C 118.094,313.027 117.427,312.027 117.5,310.5 Z"/></g>
<g><path style="opacity:1" fill="#881c37" d="M 379.5,311.5 C 379.573,313.027 378.906,314.027 377.5,314.5C 377.427,312.973 378.094,311.973 379.5,311.5 Z"/></g>
<g><path style="opacity:1" fill="#991738" d="M 120.5,315.5 C 122.25,316.659 123.25,318.326 123.5,320.5C 121.75,319.341 120.75,317.674 120.5,315.5 Z"/></g>
<g><path style="opacity:1" fill="#7e1b3b" d="M 377.5,314.5 C 377.771,316.38 377.104,317.713 375.5,318.5C 375.66,316.847 376.326,315.514 377.5,314.5 Z"/></g>
<g><path style="opacity:1" fill="#6e1c3a" d="M 375.5,318.5 C 375.771,320.38 375.104,321.713 373.5,322.5C 373.66,320.847 374.326,319.514 375.5,318.5 Z"/></g>
<g><path style="opacity:1" fill="#7e1d3d" d="M 373.5,322.5 C 373.573,324.027 372.906,325.027 371.5,325.5C 371.427,323.973 372.094,322.973 373.5,322.5 Z"/></g>
<g><path style="opacity:1" fill="#8a2135" d="M 125.5,324.5 C 126.906,324.973 127.573,325.973 127.5,327.5C 126.094,327.027 125.427,326.027 125.5,324.5 Z"/></g>
<g><path style="opacity:1" fill="#971739" d="M 371.5,325.5 C 370.66,327.853 369.326,329.853 367.5,331.5C 367.845,328.802 369.178,326.802 371.5,325.5 Z"/></g>
<g><path style="opacity:1" fill="#a7172e" d="M 367.5,331.5 C 366.331,334.511 364.664,337.178 362.5,339.5C 362.5,338.5 362.5,337.5 362.5,336.5C 363.939,334.64 365.605,332.973 367.5,331.5 Z"/></g>
<g><path style="opacity:1" fill="#582049" d="M 133.5,337.5 C 135.462,340.474 137.462,343.474 139.5,346.5C 135.908,344.573 133.908,341.573 133.5,337.5 Z"/></g>
<g><path style="opacity:1" fill="#dd0915" d="M 362.5,336.5 C 362.5,337.5 362.5,338.5 362.5,339.5C 359.5,343.5 356.5,347.5 353.5,351.5C 352.326,352.514 351.66,353.847 351.5,355.5C 348.355,358.46 345.688,361.793 343.5,365.5C 341.736,366.326 340.402,367.659 339.5,369.5C 338.833,369.833 338.167,370.167 337.5,370.5C 337.5,369.167 337.5,367.833 337.5,366.5C 338.552,366.649 339.552,366.483 340.5,366C 339.289,365.107 339.289,364.274 340.5,363.5C 341.086,363.709 341.586,364.043 342,364.5C 342.595,363.101 342.428,361.768 341.5,360.5C 343.167,359.833 344.833,359.167 346.5,358.5C 346.291,357.914 345.957,357.414 345.5,357C 349.205,354.788 351.871,351.622 353.5,347.5C 354.325,346.614 355.325,346.281 356.5,346.5C 356.64,344.876 355.973,343.71 354.5,343C 355.784,342.316 356.951,342.483 358,343.5C 358.333,342.167 358.667,340.833 359,339.5C 359.333,339.833 359.667,340.167 360,340.5C 360.2,338.68 361.034,337.347 362.5,336.5 Z"/></g>
<g><path style="opacity:1" fill="#ab172c" d="M 141.5,348.5 C 145.38,349.719 147.38,352.385 147.5,356.5C 144.529,354.557 142.529,351.891 141.5,348.5 Z"/></g>
<g><path style="opacity:1" fill="#7a1e36" d="M 353.5,351.5 C 353.771,353.38 353.104,354.713 351.5,355.5C 351.66,353.847 352.326,352.514 353.5,351.5 Z"/></g>
<g><path style="opacity:1" fill="#532048" d="M 155.5,367.5 C 157.833,369.5 160.167,371.5 162.5,373.5C 163.11,374.391 163.443,375.391 163.5,376.5C 160.097,374.1 157.43,371.1 155.5,367.5 Z"/></g>
<g><path style="opacity:1" fill="#58214f" d="M 343.5,365.5 C 342.766,366.708 342.433,368.041 342.5,369.5C 341.5,369.5 340.5,369.5 339.5,369.5C 340.402,367.659 341.736,366.326 343.5,365.5 Z"/></g>
<g><path style="opacity:1" fill="#5f2242" d="M 339.5,369.5 C 339.269,372.063 337.935,373.73 335.5,374.5C 335.733,372.938 336.4,371.605 337.5,370.5C 338.167,370.167 338.833,369.833 339.5,369.5 Z"/></g>
<g><path style="opacity:1" fill="#cc0e1f" d="M 162.5,373.5 C 163.583,373.539 164.583,373.873 165.5,374.5C 166.159,377.824 168.159,379.157 171.5,378.5C 171.4,381.108 172.067,383.442 173.5,385.5C 170.167,382.5 166.833,379.5 163.5,376.5C 163.443,375.391 163.11,374.391 162.5,373.5 Z"/></g>
<g><path style="opacity:1" fill="#a9162d" d="M 175.5,387.5 C 179.1,389.43 182.1,392.097 184.5,395.5C 180.9,393.57 177.9,390.903 175.5,387.5 Z"/></g>
<g><path style="opacity:1" fill="#562049" d="M 333.5,377.5 C 327.777,384.225 321.444,390.225 314.5,395.5C 320.223,388.775 326.556,382.775 333.5,377.5 Z"/></g>
<g><path style="opacity:1" fill="#b0142b" d="M 184.5,395.5 C 187.427,396.757 189.761,398.757 191.5,401.5C 188.573,400.243 186.239,398.243 184.5,395.5 Z"/></g>
<g><path style="opacity:1" fill="#681a42" d="M 314.5,395.5 C 313.415,397.587 311.749,398.92 309.5,399.5C 310.585,397.413 312.251,396.08 314.5,395.5 Z"/></g>
<g><path style="opacity:1" fill="#af1527" d="M 191.5,401.5 C 194.427,402.757 196.761,404.757 198.5,407.5C 195.573,406.243 193.239,404.243 191.5,401.5 Z"/></g>
<g><path style="opacity:1" fill="#6f1f3f" d="M 309.5,399.5 C 307.833,401.833 305.833,403.833 303.5,405.5C 304.5,402.5 306.5,400.5 309.5,399.5 Z"/></g>
<g><path style="opacity:1" fill="#54224e" d="M 301.5,406.5 C 300.349,409.158 298.349,410.825 295.5,411.5C 296.865,409.14 298.865,407.473 301.5,406.5 Z"/></g>
<g><path style="opacity:1" fill="#8f1b34" d="M 208.5,415.5 C 210.027,415.427 211.027,416.094 211.5,417.5C 209.973,417.573 208.973,416.906 208.5,415.5 Z"/></g>
<g><path style="opacity:1" fill="#801b45" d="M 290.5,414.5 C 289.833,415.833 288.833,416.833 287.5,417.5C 287.5,415.5 288.5,414.5 290.5,414.5 Z"/></g>
<g><path style="opacity:1" fill="#bc1423" d="M 217.5,421.5 C 221.598,421.943 224.598,423.943 226.5,427.5C 222.975,426.241 219.975,424.241 217.5,421.5 Z"/></g>
<g><path style="opacity:1" fill="#9c1836" d="M 271.5,427.5 C 269.853,429.326 267.853,430.66 265.5,431.5C 266.802,429.178 268.802,427.845 271.5,427.5 Z"/></g>
<g><path style="opacity:1" fill="#87173c" d="M 232.5,431.5 C 234.027,431.427 235.027,432.094 235.5,433.5C 233.973,433.573 232.973,432.906 232.5,431.5 Z"/></g>
<g><path style="opacity:1" fill="#921935" d="M 265.5,431.5 C 263.678,433.01 261.678,434.343 259.5,435.5C 260.487,432.914 262.487,431.581 265.5,431.5 Z"/></g>
<g><path style="opacity:1" fill="#dd0916" d="M 226.5,427.5 C 231.131,428.213 235.131,430.379 238.5,434C 240.856,434.155 243.189,434.155 245.5,434C 244.692,434.308 244.025,434.808 243.5,435.5C 244.865,436.456 246.365,437.122 248,437.5C 249.709,436.43 251.209,435.097 252.5,433.5C 253.141,434.993 254.141,435.993 255.5,436.5C 254.486,437.674 253.153,438.34 251.5,438.5C 248.763,438.599 246.096,438.265 243.5,437.5C 243.167,437.5 242.833,437.5 242.5,437.5C 242.027,436.094 241.027,435.427 239.5,435.5C 237.938,435.267 236.605,434.6 235.5,433.5C 235.027,432.094 234.027,431.427 232.5,431.5C 230.147,430.66 228.147,429.326 226.5,427.5 Z"/></g>
<g><path style="opacity:1" fill="#881838" d="M 239.5,435.5 C 241.027,435.427 242.027,436.094 242.5,437.5C 240.973,437.573 239.973,436.906 239.5,435.5 Z"/></g>
<g><path style="opacity:1" fill="#ae162f" d="M 243.5,437.5 C 246.096,438.265 248.763,438.599 251.5,438.5C 251.209,439.649 250.376,440.316 249,440.5C 246.601,440.387 244.768,439.387 243.5,437.5 Z"/></g>
</svg>
