<?xml version="1.0" encoding="UTF-8"?>
<!DOCTYPE svg PUBLIC "-//W3C//DTD SVG 1.1//EN" "http://www.w3.org/Graphics/SVG/1.1/DTD/svg11.dtd">
<svg xmlns="http://www.w3.org/2000/svg" version="1.1" width="500px" height="500px" style="shape-rendering:geometricPrecision; text-rendering:geometricPrecision; image-rendering:optimizeQuality; fill-rule:evenodd; clip-rule:evenodd" xmlns:xlink="http://www.w3.org/1999/xlink">
<g><path style="opacity:0.639" fill="#0a041b" d="M 181.5,39.5 C 175.641,38.9287 169.975,37.5953 164.5,35.5C 163.833,35.8333 163.167,36.1667 162.5,36.5C 161.304,36.1543 161.304,35.6543 162.5,35C 160.109,34.7132 157.776,34.2132 155.5,33.5C 154.479,34.0016 154.312,34.6683 155,35.5C 158.112,38.1009 160.612,41.1009 162.5,44.5C 158.202,40.7036 154.036,36.7036 150,32.5C 149.312,31.6683 149.479,31.0016 150.5,30.5C 161.081,33.0575 171.414,36.0575 181.5,39.5 Z"/></g>
<g><path style="opacity:0.995" fill="#050103" d="M 231.5,42.5 C 236.703,45.3561 241.369,49.0228 245.5,53.5C 247.768,52.4557 250.101,52.289 252.5,53C 285.079,70.8596 319.413,84.1929 355.5,93C 377.138,96.7078 398.638,100.874 420,105.5C 419.799,144.25 417.799,182.916 414,221.5C 409.404,251.559 401.237,280.559 389.5,308.5C 387.491,310.058 385.824,312.058 384.5,314.5C 383.82,316.889 382.986,319.222 382,321.5C 381.085,320.672 380.419,319.672 380,318.5C 379.667,318.833 379.333,319.167 379,319.5C 378.398,316.779 378.565,314.113 379.5,311.5C 386.688,298.056 391.855,283.722 395,268.5C 395.835,261.485 396.668,254.485 397.5,247.5C 397.75,246.078 398.583,245.078 400,244.5C 402.724,229.676 404.224,214.676 404.5,199.5C 404.966,193.509 405.299,187.509 405.5,181.5C 405.5,177.833 405.5,174.167 405.5,170.5C 406.604,159.012 407.271,147.345 407.5,135.5C 407.5,129.5 407.5,123.5 407.5,117.5C 403.462,117.042 399.462,116.376 395.5,115.5C 394.833,115.5 394.167,115.5 393.5,115.5C 391.095,114.232 388.428,113.565 385.5,113.5C 382.721,113.721 380.054,113.388 377.5,112.5C 363.914,108.323 349.914,105.323 335.5,103.5C 322.751,99.8117 310.084,95.8117 297.5,91.5C 284.333,84.8702 271,78.5369 257.5,72.5C 255.583,70.6674 253.749,68.6674 252,66.5C 251.279,62.6578 249.613,59.3245 247,56.5C 241.638,51.9676 236.472,47.301 231.5,42.5 Z"/></g>
<g><path style="opacity:1" fill="#210a13" d="M 231.5,42.5 C 236.472,47.301 241.638,51.9676 247,56.5C 249.613,59.3245 251.279,62.6578 252,66.5C 253.749,68.6674 255.583,70.6674 257.5,72.5C 256.835,76.4227 257.335,80.4227 259,84.5C 259.671,85.2524 260.504,85.5858 261.5,85.5C 262.167,86.1667 262.833,86.8333 263.5,87.5C 262.022,87.238 260.689,87.5713 259.5,88.5C 260.374,90.7466 260.708,93.0799 260.5,95.5C 266.064,95.898 271.397,96.898 276.5,98.5C 273.028,99.6903 269.695,99.1903 266.5,97C 264.167,96.3333 261.833,96.3333 259.5,97C 261.847,98.0859 261.847,99.4192 259.5,101C 259.645,101.772 259.978,102.439 260.5,103C 258.735,105.517 257.069,108.017 255.5,110.5C 254.609,111.11 253.609,111.443 252.5,111.5C 251.325,111.281 250.325,111.614 249.5,112.5C 250.569,115.539 251.735,118.539 253,121.5C 253.671,120.748 254.504,120.414 255.5,120.5C 254.817,122.176 253.483,122.843 251.5,122.5C 251.082,125.439 249.582,127.772 247,129.5C 246.536,128.906 246.369,128.239 246.5,127.5C 247.043,127.44 247.376,127.107 247.5,126.5C 246.423,124.271 245.756,121.937 245.5,119.5C 241.832,120.556 238.165,121.722 234.5,123C 231.854,123.497 229.187,123.664 226.5,123.5C 226.5,123.167 226.5,122.833 226.5,122.5C 232.96,121.631 238.626,119.131 243.5,115C 242.153,110.423 240.153,106.257 237.5,102.5C 233.071,105.849 228.071,107.183 222.5,106.5C 222.167,106.5 221.833,106.5 221.5,106.5C 221.158,105.662 220.492,105.328 219.5,105.5C 219.5,104.833 219.833,104.5 220.5,104.5C 226.034,105.183 231.034,103.849 235.5,100.5C 236.631,98.9255 236.798,97.2588 236,95.5C 233.766,89.3618 230.766,83.6951 227,78.5C 223.518,81.1579 219.684,83.1579 215.5,84.5C 213.585,84.7845 211.919,84.4511 210.5,83.5C 211.791,83.7373 212.791,83.404 213.5,82.5C 218.512,81.3289 222.512,78.6622 225.5,74.5C 223.582,70.9961 221.416,67.6628 219,64.5C 216.013,61.0393 212.513,60.5393 208.5,63C 205.761,64.0259 203.428,65.5259 201.5,67.5C 200.167,67.5 199.5,66.8333 199.5,65.5C 202.554,63.1295 205.887,61.1295 209.5,59.5C 210.833,58.8333 210.833,58.1667 209.5,57.5C 204.712,55.0225 199.879,52.6891 195,50.5C 192.628,52.7032 190.461,55.0365 188.5,57.5C 187.662,57.1583 187.328,56.4916 187.5,55.5C 188.74,54.027 189.74,52.3604 190.5,50.5C 188.465,48.8053 186.132,47.472 183.5,46.5C 182.145,47.1882 181.145,48.1882 180.5,49.5C 179.833,49.5 179.5,49.1667 179.5,48.5C 179.67,47.1779 179.337,46.0113 178.5,45C 176.121,44.3861 173.788,44.0528 171.5,44C 172.044,44.7172 172.711,45.2172 173.5,45.5C 175.226,47.2279 176.559,49.2279 177.5,51.5C 177.389,52.1174 177.056,52.6174 176.5,53C 180.508,55.8416 183.841,59.3416 186.5,63.5C 187.78,65.7016 187.78,67.8683 186.5,70C 187.803,73.044 190.136,74.2107 193.5,73.5C 193.351,74.552 193.517,75.552 194,76.5C 194.667,77.8333 195.333,77.8333 196,76.5C 196.635,77.9663 197.469,79.2997 198.5,80.5C 197.572,81.7678 197.405,83.1011 198,84.5C 199.545,83.1787 200.711,83.5121 201.5,85.5C 200.5,86.3333 199.5,87.1667 198.5,88C 202.333,89.0233 202.333,90.1899 198.5,91.5C 196.772,87.9347 195.272,84.2681 194,80.5C 193.241,78.9371 192.074,77.9371 190.5,77.5C 181.947,65.9378 172.613,54.9378 162.5,44.5C 160.612,41.1009 158.112,38.1009 155,35.5C 154.312,34.6683 154.479,34.0016 155.5,33.5C 157.776,34.2132 160.109,34.7132 162.5,35C 161.304,35.6543 161.304,36.1543 162.5,36.5C 163.167,36.1667 163.833,35.8333 164.5,35.5C 169.975,37.5953 175.641,38.9287 181.5,39.5C 189.565,40.9663 197.231,43.6329 204.5,47.5C 204.833,47.1667 205.167,46.8333 205.5,46.5C 200.77,36.7077 195.77,27.0411 190.5,17.5C 190.833,17.1667 191.167,16.8333 191.5,16.5C 205.683,24.0456 219.016,32.7122 231.5,42.5 Z"/></g>
<g><path style="opacity:1" fill="#f8f6f1" d="M 199.5,65.5 C 196.375,62.0347 192.708,59.3681 188.5,57.5C 190.461,55.0365 192.628,52.7032 195,50.5C 199.879,52.6891 204.712,55.0225 209.5,57.5C 210.833,58.1667 210.833,58.8333 209.5,59.5C 205.887,61.1295 202.554,63.1295 199.5,65.5 Z"/></g>
<g><path style="opacity:1" fill="#f7f5f0" d="M 229.5,59.5 C 227.237,55.8971 224.57,52.5638 221.5,49.5C 222.815,48.5244 224.148,47.5244 225.5,46.5C 228.807,48.6404 231.974,50.9737 235,53.5C 235.198,57.1437 233.365,59.1437 229.5,59.5 Z"/></g>
<g><path style="opacity:1" fill="#f8f5ec" d="M 187.5,55.5 C 185.142,53.4707 182.808,51.4707 180.5,49.5C 181.145,48.1882 182.145,47.1882 183.5,46.5C 186.132,47.472 188.465,48.8053 190.5,50.5C 189.74,52.3604 188.74,54.027 187.5,55.5 Z"/></g>
<g><path style="opacity:1" fill="#efe8d9" d="M 179.5,48.5 C 177.5,47.5 175.5,46.5 173.5,45.5C 172.711,45.2172 172.044,44.7172 171.5,44C 173.788,44.0528 176.121,44.3861 178.5,45C 179.337,46.0113 179.67,47.1779 179.5,48.5 Z"/></g>
<g><path style="opacity:1" fill="#f0eae5" d="M 219.5,47.5 C 216.833,45.8333 214.167,44.1667 211.5,42.5C 210.307,39.9476 208.973,37.4476 207.5,35C 212.56,37.1253 217.394,39.9587 222,43.5C 222.279,45.4122 221.446,46.7456 219.5,47.5 Z"/></g>
<g><path style="opacity:1" fill="#faf7f2" d="M 237.5,74.5 C 236.827,69.8195 235.161,65.4861 232.5,61.5C 234.317,59.1577 236.65,57.991 239.5,58C 242.762,60.592 245.262,63.7587 247,67.5C 247.711,69.3668 247.211,70.8668 245.5,72C 242.846,72.9406 240.179,73.7739 237.5,74.5 Z"/></g>
<g><path style="opacity:1" fill="#fbf9f5" d="M 213.5,82.5 C 210.26,76.9229 206.26,71.9229 201.5,67.5C 203.428,65.5259 205.761,64.0259 208.5,63C 212.513,60.5393 216.013,61.0393 219,64.5C 221.416,67.6628 223.582,70.9961 225.5,74.5C 222.512,78.6622 218.512,81.3289 213.5,82.5 Z"/></g>
<g><path style="opacity:1" fill="#ead538" d="M 211.5,42.5 C 214.167,44.1667 216.833,45.8333 219.5,47.5C 216.526,52.9171 217.193,53.5838 221.5,49.5C 224.57,52.5638 227.237,55.8971 229.5,59.5C 229.082,60.2216 228.416,60.7216 227.5,61C 229.134,61.4935 230.801,61.6602 232.5,61.5C 235.161,65.4861 236.827,69.8195 237.5,74.5C 236.933,75.4202 237.599,75.7535 239.5,75.5C 240.829,79.4719 242.162,83.4719 243.5,87.5C 243.833,88.5 244.5,89.1667 245.5,89.5C 246.654,94.2855 247.987,98.9522 249.5,103.5C 248.458,104.791 247.292,104.791 246,103.5C 240.5,88.1661 233.167,73.8328 224,60.5C 221.961,58.1255 219.628,56.1255 217,54.5C 215.426,50.3544 213.593,46.3544 211.5,42.5 Z"/></g>
<g><path style="opacity:1" fill="#f8f5f0" d="M 243.5,87.5 C 242.162,83.4719 240.829,79.4719 239.5,75.5C 242.667,75.5999 245.667,74.9332 248.5,73.5C 251.306,77.1438 251.973,81.1438 250.5,85.5C 248.382,86.9459 246.049,87.6126 243.5,87.5 Z"/></g>
<g><path style="opacity:1" fill="#efd823" d="M 173.5,45.5 C 175.5,46.5 177.5,47.5 179.5,48.5C 179.5,49.1667 179.833,49.5 180.5,49.5C 182.808,51.4707 185.142,53.4707 187.5,55.5C 187.328,56.4916 187.662,57.1583 188.5,57.5C 192.708,59.3681 196.375,62.0347 199.5,65.5C 199.5,66.8333 200.167,67.5 201.5,67.5C 206.26,71.9229 210.26,76.9229 213.5,82.5C 212.791,83.404 211.791,83.7373 210.5,83.5C 209.325,83.281 208.325,83.6143 207.5,84.5C 210.086,85.48 212.753,85.8134 215.5,85.5C 215.62,88.5779 216.62,91.2446 218.5,93.5C 214.981,94.8077 211.315,94.8077 207.5,93.5C 199.932,77.6718 189.932,63.6718 177.5,51.5C 176.559,49.2279 175.226,47.2279 173.5,45.5 Z"/></g>
<g><path style="opacity:0.999" fill="#090102" d="M 190.5,77.5 C 192.074,77.9371 193.241,78.9371 194,80.5C 195.272,84.2681 196.772,87.9347 198.5,91.5C 197.29,91.9321 196.29,92.5987 195.5,93.5C 184.755,97.192 174.088,100.859 163.5,104.5C 141.352,109.023 119.019,112.856 96.5,116C 95.5842,116.278 94.9175,116.778 94.5,117.5C 93.1745,121.445 92.5079,125.778 92.5,130.5C 93.1386,142.826 93.4719,155.16 93.5,167.5C 93.1391,176.395 93.8058,185.061 95.5,193.5C 95.5,196.5 95.5,199.5 95.5,202.5C 95.4379,207.076 96.1045,211.409 97.5,215.5C 97.7201,223.6 98.7201,231.6 100.5,239.5C 100.629,241.216 100.962,242.883 101.5,244.5C 103.323,253.063 104.823,261.73 106,270.5C 106.47,272.774 107.47,274.774 109,276.5C 109.333,279.833 109.667,283.167 110,286.5C 110.701,288.762 111.868,289.762 113.5,289.5C 110.867,290.884 110.867,292.218 113.5,293.5C 114.48,296.086 114.813,298.753 114.5,301.5C 117.856,310.364 122.69,318.364 129,325.5C 129.36,327.608 130.027,329.608 131,331.5C 134.713,335.708 138.213,340.041 141.5,344.5C 145.265,351.79 149.932,358.457 155.5,364.5C 165.203,378.375 176.203,391.208 188.5,403C 198.458,410.623 208.125,418.623 217.5,427C 223.391,430.776 229.391,434.276 235.5,437.5C 235.953,438.458 236.619,439.292 237.5,440C 240.377,440.956 243.044,442.289 245.5,444C 248.538,444.885 251.205,444.385 253.5,442.5C 258.928,440.247 264.262,437.747 269.5,435C 296.575,416.754 320.242,394.921 340.5,369.5C 347.16,360.822 353.494,351.822 359.5,342.5C 362.235,340.382 363.235,337.716 362.5,334.5C 363.833,333.833 365.167,333.167 366.5,332.5C 371.122,325.571 375.455,318.571 379.5,311.5C 378.565,314.113 378.398,316.779 379,319.5C 379.333,319.167 379.667,318.833 380,318.5C 380.419,319.672 381.085,320.672 382,321.5C 382.986,319.222 383.82,316.889 384.5,314.5C 385.824,312.058 387.491,310.058 389.5,308.5C 362.262,370.571 319.595,419.071 261.5,454C 257.259,455.704 253.093,457.538 249,459.5C 237.506,454.001 226.339,447.834 215.5,441C 138.457,383.13 94.2907,305.963 83,209.5C 79.8498,174.55 78.6832,139.55 79.5,104.5C 109.875,100.16 139.875,93.993 169.5,86C 176.995,84.0112 183.995,81.1778 190.5,77.5 Z"/></g>
<g><path style="opacity:1" fill="#f6f3f1" d="M 220.5,104.5 C 220.5,103.833 220.167,103.5 219.5,103.5C 219.702,101.05 219.369,98.717 218.5,96.5C 220.942,94.7742 223.609,93.2742 226.5,92C 223.826,92.1529 221.16,92.6529 218.5,93.5C 216.62,91.2446 215.62,88.5779 215.5,85.5C 215.5,85.1667 215.5,84.8333 215.5,84.5C 219.684,83.1579 223.518,81.1579 227,78.5C 230.766,83.6951 233.766,89.3618 236,95.5C 236.798,97.2588 236.631,98.9255 235.5,100.5C 231.034,103.849 226.034,105.183 220.5,104.5 Z"/></g>
<g><path style="opacity:1" fill="#a28123" d="M 210.5,83.5 C 211.919,84.4511 213.585,84.7845 215.5,84.5C 215.5,84.8333 215.5,85.1667 215.5,85.5C 212.753,85.8134 210.086,85.48 207.5,84.5C 208.325,83.6143 209.325,83.281 210.5,83.5 Z"/></g>
<g><path style="opacity:1" fill="#ca2e10" d="M 257.5,72.5 C 271,78.5369 284.333,84.8702 297.5,91.5C 289.877,89.824 283.211,86.9906 277.5,83C 271.172,81.3374 265.172,78.8374 259.5,75.5C 258.669,79.0405 259.336,82.3738 261.5,85.5C 260.504,85.5858 259.671,85.2524 259,84.5C 257.335,80.4227 256.835,76.4227 257.5,72.5 Z"/></g>
<g><path style="opacity:1" fill="#f8f5f1" d="M 249.5,103.5 C 247.987,98.9522 246.654,94.2855 245.5,89.5C 248.106,88.8641 250.606,88.8641 253,89.5C 254.363,93.7612 254.696,98.0946 254,102.5C 252.644,103.38 251.144,103.714 249.5,103.5 Z"/></g>
<g><path style="opacity:1" fill="#0b0102" d="M 263.5,87.5 C 270.374,90.121 277.04,93.121 283.5,96.5C 284.23,98.045 285.563,98.8784 287.5,99C 283.797,99.5787 280.131,99.412 276.5,98.5C 271.397,96.898 266.064,95.898 260.5,95.5C 260.708,93.0799 260.374,90.7466 259.5,88.5C 260.689,87.5713 262.022,87.238 263.5,87.5 Z"/></g>
<g><path style="opacity:1" fill="#b92916" d="M 200.5,95.5 C 203.78,99.6987 202.78,102.365 197.5,103.5C 199.856,101.443 200.856,98.776 200.5,95.5 Z"/></g>
<g><path style="opacity:1" fill="#84660f" d="M 219.5,103.5 C 220.167,103.5 220.5,103.833 220.5,104.5C 219.833,104.5 219.5,104.833 219.5,105.5C 214.371,104.386 214.371,103.719 219.5,103.5 Z"/></g>
<g><path style="opacity:1" fill="#f8f6f7" d="M 226.5,122.5 C 225.626,117.037 224.293,111.704 222.5,106.5C 228.071,107.183 233.071,105.849 237.5,102.5C 240.153,106.257 242.153,110.423 243.5,115C 238.626,119.131 232.96,121.631 226.5,122.5 Z"/></g>
<g><path style="opacity:1" fill="#270500" d="M 335.5,103.5 C 349.914,105.323 363.914,108.323 377.5,112.5C 370.817,111.491 364.15,110.491 357.5,109.5C 355.898,107.926 353.898,107.259 351.5,107.5C 345.906,106.786 340.573,105.453 335.5,103.5 Z"/></g>
<g><path style="opacity:1" fill="#e5d9c3" d="M 251.5,109.5 C 251.443,108.391 251.11,107.391 250.5,106.5C 256.706,105.42 257.039,106.42 251.5,109.5 Z"/></g>
<g><path style="opacity:1" fill="#f92b03" d="M 195.5,93.5 C 197.781,93.0773 199.448,93.744 200.5,95.5C 200.856,98.776 199.856,101.443 197.5,103.5C 190.344,106.218 183.011,108.551 175.5,110.5C 173.473,110.338 171.473,110.505 169.5,111C 163.633,113.014 157.966,114.847 152.5,116.5C 152.167,116.5 151.833,116.5 151.5,116.5C 147.486,116.334 143.486,116.501 139.5,117C 128.203,119.372 116.869,121.539 105.5,123.5C 102.943,123.558 100.61,122.891 98.5,121.5C 100.627,119.829 102.627,118.163 104.5,116.5C 119.18,114.442 133.847,112.276 148.5,110C 153.96,109.211 158.96,107.378 163.5,104.5C 174.088,100.859 184.755,97.192 195.5,93.5 Z"/></g>
<g><path style="opacity:1" fill="#ddc75b" d="M 250.5,106.5 C 251.11,107.391 251.443,108.391 251.5,109.5C 249.654,109.778 248.32,109.111 247.5,107.5C 248.325,106.614 249.325,106.281 250.5,106.5 Z"/></g>
<g><path style="opacity:1" fill="#c12a10" d="M 307.5,105.5 C 316.898,107.93 326.398,110.263 336,112.5C 337.942,112.959 339.442,113.959 340.5,115.5C 333.382,114.304 326.382,112.637 319.5,110.5C 315.349,109.227 311.349,107.56 307.5,105.5 Z"/></g>
<g><path style="opacity:1" fill="#76130b" d="M 351.5,107.5 C 353.898,107.259 355.898,107.926 357.5,109.5C 355.102,109.741 353.102,109.074 351.5,107.5 Z"/></g>
<g><path style="opacity:1" fill="#c42d0f" d="M 175.5,110.5 C 173.5,111.5 171.5,112.5 169.5,113.5C 166.097,113.851 162.763,114.518 159.5,115.5C 157.097,115.448 154.764,115.781 152.5,116.5C 157.966,114.847 163.633,113.014 169.5,111C 171.473,110.505 173.473,110.338 175.5,110.5 Z"/></g>
<g><path style="opacity:1" fill="#fefbd0" d="M 221.5,106.5 C 221.833,106.5 222.167,106.5 222.5,106.5C 224.293,111.704 225.626,117.037 226.5,122.5C 226.5,122.833 226.5,123.167 226.5,123.5C 226.5,124.833 226.5,126.167 226.5,127.5C 224.431,120.722 222.764,113.722 221.5,106.5 Z"/></g>
<g><path style="opacity:1" fill="#ba2910" d="M 163.5,104.5 C 158.96,107.378 153.96,109.211 148.5,110C 133.847,112.276 119.18,114.442 104.5,116.5C 101.236,117.324 97.9023,117.658 94.5,117.5C 94.9175,116.778 95.5842,116.278 96.5,116C 119.019,112.856 141.352,109.023 163.5,104.5 Z"/></g>
<g><path style="opacity:1" fill="#f72c03" d="M 297.5,91.5 C 310.084,95.8117 322.751,99.8117 335.5,103.5C 340.573,105.453 345.906,106.786 351.5,107.5C 353.102,109.074 355.102,109.741 357.5,109.5C 364.15,110.491 370.817,111.491 377.5,112.5C 380.054,113.388 382.721,113.721 385.5,113.5C 387.838,115.04 390.505,115.706 393.5,115.5C 394.167,115.5 394.833,115.5 395.5,115.5C 398.539,118.193 402.206,119.193 406.5,118.5C 405.704,128.479 405.371,138.479 405.5,148.5C 405.5,148.833 405.5,149.167 405.5,149.5C 404.67,157.99 404.17,166.657 404,175.5C 402.478,178.082 401.644,180.915 401.5,184C 402.049,188.482 402.382,192.982 402.5,197.5C 401.5,207.5 400.5,217.5 399.5,227.5C 398.479,226.099 397.479,224.765 396.5,223.5C 395.549,222.081 395.216,220.415 395.5,218.5C 395.5,217.167 395.5,215.833 395.5,214.5C 394.025,204.119 394.191,193.786 396,183.5C 396.5,163.836 396.667,144.169 396.5,124.5C 378.322,120.708 359.989,117.708 341.5,115.5C 341.167,115.5 340.833,115.5 340.5,115.5C 339.442,113.959 337.942,112.959 336,112.5C 326.398,110.263 316.898,107.93 307.5,105.5C 299.152,103.275 291.152,100.275 283.5,96.5C 277.04,93.121 270.374,90.121 263.5,87.5C 262.833,86.8333 262.167,86.1667 261.5,85.5C 259.336,82.3738 258.669,79.0405 259.5,75.5C 265.172,78.8374 271.172,81.3374 277.5,83C 283.211,86.9906 289.877,89.824 297.5,91.5 Z"/></g>
<g><path style="opacity:1" fill="#060001" d="M 319.5,110.5 C 326.382,112.637 333.382,114.304 340.5,115.5C 340.833,115.5 341.167,115.5 341.5,115.5C 345.59,117.108 349.923,118.275 354.5,119C 364.87,120.587 375.204,122.087 385.5,123.5C 387.515,124.924 389.848,125.59 392.5,125.5C 393.5,125.5 394.5,125.5 395.5,125.5C 394.47,148.822 393.804,172.156 393.5,195.5C 392.596,196.209 392.263,197.209 392.5,198.5C 391.25,198.423 390.417,197.756 390,196.5C 389.506,194.866 389.34,193.199 389.5,191.5C 388.448,191.649 387.448,191.483 386.5,191C 385.478,188.455 384.312,185.955 383,183.5C 381.989,182.663 380.822,182.33 379.5,182.5C 379.786,180.723 380.453,179.056 381.5,177.5C 377.745,170.991 374.245,164.324 371,157.5C 370.241,155.937 369.074,154.937 367.5,154.5C 365.372,151.87 363.039,149.37 360.5,147C 359.551,146.383 358.718,146.549 358,147.5C 356.243,143.997 354.409,140.664 352.5,137.5C 348.513,135.424 344.18,134.091 339.5,133.5C 339.586,132.504 339.252,131.671 338.5,131C 339.91,130.632 340.91,129.799 341.5,128.5C 333.882,122.11 325.215,116.277 315.5,111C 316.793,110.51 318.127,110.343 319.5,110.5 Z"/></g>
<g><path style="opacity:1" fill="#80190b" d="M 385.5,113.5 C 388.428,113.565 391.095,114.232 393.5,115.5C 390.505,115.706 387.838,115.04 385.5,113.5 Z"/></g>
<g><path style="opacity:1" fill="#040001" d="M 148.5,135.5 C 145.345,137.319 143.345,139.985 142.5,143.5C 140.61,143.297 139.11,143.963 138,145.5C 133.189,151.109 128.856,157.109 125,163.5C 124.178,165.788 123.511,168.122 123,170.5C 116.544,176.382 112.878,183.716 112,192.5C 110.936,194.959 109.602,197.292 108,199.5C 106.758,183.968 105.758,168.302 105,152.5C 104.617,151.944 104.117,151.611 103.5,151.5C 103.5,142.5 103.5,133.5 103.5,124.5C 115.595,123.481 127.595,121.814 139.5,119.5C 143.79,119.802 147.79,119.136 151.5,117.5C 154.428,117.435 157.095,116.768 159.5,115.5C 162.763,114.518 166.097,113.851 169.5,113.5C 175.602,112.244 181.602,110.578 187.5,108.5C 188.932,108.733 189.432,109.4 189,110.5C 181.373,113.526 173.54,117.026 165.5,121C 159.302,125.405 153.635,130.238 148.5,135.5 Z"/></g>
<g><path style="opacity:1" fill="#5a0906" d="M 159.5,115.5 C 157.095,116.768 154.428,117.435 151.5,117.5C 151.5,117.167 151.5,116.833 151.5,116.5C 151.833,116.5 152.167,116.5 152.5,116.5C 154.764,115.781 157.097,115.448 159.5,115.5 Z"/></g>
<g><path style="opacity:1" fill="#e7d853" d="M 252.5,111.5 C 253.784,114.402 254.784,117.402 255.5,120.5C 254.504,120.414 253.671,120.748 253,121.5C 251.735,118.539 250.569,115.539 249.5,112.5C 250.325,111.614 251.325,111.281 252.5,111.5 Z"/></g>
<g><path style="opacity:1" fill="#c02a0d" d="M 395.5,115.5 C 399.462,116.376 403.462,117.042 407.5,117.5C 407.5,123.5 407.5,129.5 407.5,135.5C 406.833,139.833 406.167,144.167 405.5,148.5C 405.371,138.479 405.704,128.479 406.5,118.5C 402.206,119.193 398.539,118.193 395.5,115.5 Z"/></g>
<g><path style="opacity:1" fill="#470703" d="M 151.5,117.5 C 147.79,119.136 143.79,119.802 139.5,119.5C 143.21,117.864 147.21,117.198 151.5,117.5 Z"/></g>
<g><path style="opacity:1" fill="#ccbcb2" d="M 255.5,110.5 C 256.782,113.936 256.782,117.269 255.5,120.5C 254.784,117.402 253.784,114.402 252.5,111.5C 253.609,111.443 254.609,111.11 255.5,110.5 Z"/></g>
<g><path style="opacity:1" fill="#fc2b01" d="M 104.5,188.5 C 104.687,197.861 104.354,207.195 103.5,216.5C 103.5,218.5 103.5,220.5 103.5,222.5C 102.883,222.611 102.383,222.944 102,223.5C 101.667,226.5 101.333,229.5 101,232.5C 97.1921,201.388 95.0254,170.054 94.5,138.5C 94.3338,132.491 94.5005,126.491 95,120.5C 96.7547,121.67 97.7547,123.337 98,125.5C 98.6667,126.833 99.3333,126.833 100,125.5C 101.423,144.454 102.423,163.454 103,182.5C 103.191,184.708 103.691,186.708 104.5,188.5 Z"/></g>
<g><path style="opacity:1" fill="#df2d0b" d="M 104.5,116.5 C 102.627,118.163 100.627,119.829 98.5,121.5C 100.61,122.891 102.943,123.558 105.5,123.5C 116.869,121.539 128.203,119.372 139.5,117C 143.486,116.501 147.486,116.334 151.5,116.5C 151.5,116.833 151.5,117.167 151.5,117.5C 147.21,117.198 143.21,117.864 139.5,119.5C 127.595,121.814 115.595,123.481 103.5,124.5C 103.5,133.5 103.5,142.5 103.5,151.5C 103.344,159.529 103.677,167.529 104.5,175.5C 104.5,179.833 104.5,184.167 104.5,188.5C 103.691,186.708 103.191,184.708 103,182.5C 102.423,163.454 101.423,144.454 100,125.5C 99.3333,126.833 98.6667,126.833 98,125.5C 97.7547,123.337 96.7547,121.67 95,120.5C 94.5005,126.491 94.3338,132.491 94.5,138.5C 93.1901,131.599 93.1901,124.599 94.5,117.5C 97.9023,117.658 101.236,117.324 104.5,116.5 Z"/></g>
<g><path style="opacity:1" fill="#25070b" d="M 177.5,51.5 C 189.932,63.6718 199.932,77.6718 207.5,93.5C 211.315,94.8077 214.981,94.8077 218.5,93.5C 221.16,92.6529 223.826,92.1529 226.5,92C 223.609,93.2742 220.942,94.7742 218.5,96.5C 215.086,96.7358 211.753,97.4025 208.5,98.5C 211.099,104.23 212.766,110.23 213.5,116.5C 214.707,118.449 216.373,119.949 218.5,121C 217.062,121.219 215.729,121.719 214.5,122.5C 216.264,129.264 220.598,133.264 227.5,134.5C 232.474,134.755 237.141,133.755 241.5,131.5C 242.529,132.126 243.529,132.959 244.5,134C 248.383,133.635 251.549,131.802 254,128.5C 254.483,127.552 254.649,126.552 254.5,125.5C 264.973,124.642 275.473,124.642 286,125.5C 288.5,127.667 291,129.833 293.5,132C 298.663,133.346 303.33,135.012 307.5,137C 306.376,137.249 305.376,137.749 304.5,138.5C 305.961,140.517 307.294,142.517 308.5,144.5C 293.866,131.01 276.533,125.177 256.5,127C 245.867,141.215 232.533,144.549 216.5,137C 212.994,134.66 209.994,131.826 207.5,128.5C 201.949,130.905 196.283,132.905 190.5,134.5C 191.635,132.787 193.302,132.12 195.5,132.5C 195.52,130.857 194.853,129.524 193.5,128.5C 194.5,127.5 195.5,126.5 196.5,125.5C 197.747,127.006 197.747,128.506 196.5,130C 202.093,130.926 203.426,129.093 200.5,124.5C 201.246,123.264 201.579,121.93 201.5,120.5C 200.167,120.5 198.833,120.5 197.5,120.5C 197.719,121.675 197.386,122.675 196.5,123.5C 195.232,122.572 193.899,122.405 192.5,123C 193.711,123.893 193.711,124.726 192.5,125.5C 189.532,124.818 186.866,125.651 184.5,128C 183.207,128.49 181.873,128.657 180.5,128.5C 182.927,126.442 185.593,124.609 188.5,123C 194.223,119.967 200.223,117.801 206.5,116.5C 207.092,113.359 206.092,111.026 203.5,109.5C 181.583,117.431 162.583,129.765 146.5,146.5C 147.069,142.748 149.069,139.915 152.5,138C 150.934,137.392 149.6,136.558 148.5,135.5C 153.635,130.238 159.302,125.405 165.5,121C 173.54,117.026 181.373,113.526 189,110.5C 189.432,109.4 188.932,108.733 187.5,108.5C 181.602,110.578 175.602,112.244 169.5,113.5C 171.5,112.5 173.5,111.5 175.5,110.5C 183.011,108.551 190.344,106.218 197.5,103.5C 202.78,102.365 203.78,99.6987 200.5,95.5C 199.448,93.744 197.781,93.0773 195.5,93.5C 196.29,92.5987 197.29,91.9321 198.5,91.5C 202.333,90.1899 202.333,89.0233 198.5,88C 199.5,87.1667 200.5,86.3333 201.5,85.5C 200.711,83.5121 199.545,83.1787 198,84.5C 197.405,83.1011 197.572,81.7678 198.5,80.5C 197.469,79.2997 196.635,77.9663 196,76.5C 195.333,77.8333 194.667,77.8333 194,76.5C 193.517,75.552 193.351,74.552 193.5,73.5C 190.136,74.2107 187.803,73.044 186.5,70C 187.78,67.8683 187.78,65.7016 186.5,63.5C 183.841,59.3416 180.508,55.8416 176.5,53C 177.056,52.6174 177.389,52.1174 177.5,51.5 Z"/></g>
<g><path style="opacity:1" fill="#f9f7f6" d="M 246.5,127.5 C 244.809,128.864 243.142,130.197 241.5,131.5C 237.141,133.755 232.474,134.755 227.5,134.5C 227.552,132.097 227.219,129.764 226.5,127.5C 226.5,126.167 226.5,124.833 226.5,123.5C 229.187,123.664 231.854,123.497 234.5,123C 238.165,121.722 241.832,120.556 245.5,119.5C 245.756,121.937 246.423,124.271 247.5,126.5C 247.376,127.107 247.043,127.44 246.5,127.5 Z"/></g>
<g><path style="opacity:1" fill="#660b05" d="M 385.5,123.5 C 388.152,123.41 390.485,124.076 392.5,125.5C 389.848,125.59 387.515,124.924 385.5,123.5 Z"/></g>
<g><path style="opacity:1" fill="#edd725" d="M 218.5,96.5 C 219.369,98.717 219.702,101.05 219.5,103.5C 214.371,103.719 214.371,104.386 219.5,105.5C 220.492,105.328 221.158,105.662 221.5,106.5C 222.764,113.722 224.431,120.722 226.5,127.5C 227.219,129.764 227.552,132.097 227.5,134.5C 220.598,133.264 216.264,129.264 214.5,122.5C 215.729,121.719 217.062,121.219 218.5,121C 216.373,119.949 214.707,118.449 213.5,116.5C 212.766,110.23 211.099,104.23 208.5,98.5C 211.753,97.4025 215.086,96.7358 218.5,96.5 Z"/></g>
<g><path style="opacity:1" fill="#fba80c" d="M 308.5,144.5 C 309.026,146.23 310.026,147.564 311.5,148.5C 313.491,151.137 315.491,153.804 317.5,156.5C 315.488,158.455 313.154,159.955 310.5,161C 320.586,161.819 330.253,160.152 339.5,156C 348.035,154.175 354.868,156.675 360,163.5C 360.497,166.146 360.664,168.813 360.5,171.5C 359.662,171.842 359.328,172.508 359.5,173.5C 359.167,173.5 358.833,173.5 358.5,173.5C 354.292,171.858 349.959,170.358 345.5,169C 333.505,169.19 321.505,169.19 309.5,169C 302.973,167.73 296.639,165.897 290.5,163.5C 290.709,162.914 291.043,162.414 291.5,162C 295.346,160.331 299.346,159.164 303.5,158.5C 301.17,156.007 298.503,154.007 295.5,152.5C 293.141,151.663 291.141,150.163 289.5,148C 287.846,147.392 286.179,146.892 284.5,146.5C 275.978,145.081 267.311,143.747 258.5,142.5C 256.863,146.412 257.529,149.746 260.5,152.5C 260.5,152.833 260.5,153.167 260.5,153.5C 261.141,154.482 261.807,155.482 262.5,156.5C 252.763,157.517 243.097,159.017 233.5,161C 222.269,164.642 210.936,167.975 199.5,171C 190.827,172.956 182.16,172.956 173.5,171C 171.128,169.156 168.794,167.322 166.5,165.5C 166.709,164.914 167.043,164.414 167.5,164C 175.139,163.268 181.806,160.435 187.5,155.5C 189.833,153.833 191.833,151.833 193.5,149.5C 195.317,148.781 195.984,147.781 195.5,146.5C 191.156,148.96 186.489,149.96 181.5,149.5C 177.988,147.332 175.655,144.332 174.5,140.5C 180.129,139.071 185.463,137.071 190.5,134.5C 196.283,132.905 201.949,130.905 207.5,128.5C 209.994,131.826 212.994,134.66 216.5,137C 232.533,144.549 245.867,141.215 256.5,127C 276.533,125.177 293.866,131.01 308.5,144.5 Z"/></g>
<g><path style="opacity:1" fill="#22030f" d="M 276.5,98.5 C 280.131,99.412 283.797,99.5787 287.5,99C 285.563,98.8784 284.23,98.045 283.5,96.5C 291.152,100.275 299.152,103.275 307.5,105.5C 311.349,107.56 315.349,109.227 319.5,110.5C 318.127,110.343 316.793,110.51 315.5,111C 325.215,116.277 333.882,122.11 341.5,128.5C 340.91,129.799 339.91,130.632 338.5,131C 339.252,131.671 339.586,132.504 339.5,133.5C 344.18,134.091 348.513,135.424 352.5,137.5C 354.409,140.664 356.243,143.997 358,147.5C 358.718,146.549 359.551,146.383 360.5,147C 363.039,149.37 365.372,151.87 367.5,154.5C 367.315,156.89 365.982,157.89 363.5,157.5C 360.994,157.665 359.161,156.665 358,154.5C 357.261,155.574 356.261,156.241 355,156.5C 348.634,154.542 342.134,154.042 335.5,155C 332.771,156.904 329.771,158.071 326.5,158.5C 324.68,158.351 323.18,157.684 322,156.5C 320.989,157.337 319.822,157.67 318.5,157.5C 318.617,155.516 317.95,153.85 316.5,152.5C 317.428,151.232 317.595,149.899 317,148.5C 315.374,148.854 313.541,148.854 311.5,148.5C 310.026,147.564 309.026,146.23 308.5,144.5C 307.294,142.517 305.961,140.517 304.5,138.5C 305.376,137.749 306.376,137.249 307.5,137C 303.33,135.012 298.663,133.346 293.5,132C 291,129.833 288.5,127.667 286,125.5C 275.473,124.642 264.973,124.642 254.5,125.5C 254.649,126.552 254.483,127.552 254,128.5C 251.549,131.802 248.383,133.635 244.5,134C 243.529,132.959 242.529,132.126 241.5,131.5C 243.142,130.197 244.809,128.864 246.5,127.5C 246.369,128.239 246.536,128.906 247,129.5C 249.582,127.772 251.082,125.439 251.5,122.5C 253.483,122.843 254.817,122.176 255.5,120.5C 256.782,117.269 256.782,113.936 255.5,110.5C 257.069,108.017 258.735,105.517 260.5,103C 259.978,102.439 259.645,101.772 259.5,101C 261.847,99.4192 261.847,98.0859 259.5,97C 261.833,96.3333 264.167,96.3333 266.5,97C 269.695,99.1903 273.028,99.6903 276.5,98.5 Z"/></g>
<g><path style="opacity:1" fill="#f3a518" d="M 279.5,105.5 C 290.571,107.69 301.238,111.19 311.5,116C 321.247,121.262 330.58,127.095 339.5,133.5C 345.635,138.803 351.302,144.636 356.5,151C 353.259,150.377 349.926,149.71 346.5,149C 326.735,129.949 303.401,117.449 276.5,111.5C 276.389,110.883 276.056,110.383 275.5,110C 271.886,109.055 268.219,108.388 264.5,108C 263.663,106.989 263.33,105.822 263.5,104.5C 268.845,104.687 274.178,105.02 279.5,105.5 Z"/></g>
<g><path style="opacity:1" fill="#d99325" d="M 279.5,105.5 C 274.178,105.02 268.845,104.687 263.5,104.5C 263.33,105.822 263.663,106.989 264.5,108C 268.219,108.388 271.886,109.055 275.5,110C 276.056,110.383 276.389,110.883 276.5,111.5C 271.81,110.862 267.144,110.029 262.5,109C 261.577,106.959 261.244,104.792 261.5,102.5C 267.791,102.495 273.791,103.495 279.5,105.5 Z"/></g>
<g><path style="opacity:1" fill="#ee7a18" d="M 284.5,146.5 C 278.132,146.17 271.798,146.504 265.5,147.5C 264.09,148.569 263.09,149.903 262.5,151.5C 262.167,151.5 261.833,151.5 261.5,151.5C 260.833,151.5 260.5,151.833 260.5,152.5C 257.529,149.746 256.863,146.412 258.5,142.5C 267.311,143.747 275.978,145.081 284.5,146.5 Z"/></g>
<g><path style="opacity:1" fill="#d8722c" d="M 284.5,146.5 C 286.179,146.892 287.846,147.392 289.5,148C 291.141,150.163 293.141,151.663 295.5,152.5C 295.833,153.167 296.167,153.833 296.5,154.5C 291.56,151.703 286.226,150.037 280.5,149.5C 277.024,148.357 273.358,148.19 269.5,149C 266.178,149.182 263.844,150.016 262.5,151.5C 263.09,149.903 264.09,148.569 265.5,147.5C 271.798,146.504 278.132,146.17 284.5,146.5 Z"/></g>
<g><path style="opacity:1" fill="#3e0702" d="M 193.5,149.5 C 187.465,150.761 181.465,152.094 175.5,153.5C 176.975,151.31 178.975,149.977 181.5,149.5C 186.489,149.96 191.156,148.96 195.5,146.5C 195.984,147.781 195.317,148.781 193.5,149.5 Z"/></g>
<g><path style="opacity:1" fill="#280910" d="M 280.5,149.5 C 286.226,150.037 291.56,151.703 296.5,154.5C 297.091,155.151 297.757,155.818 298.5,156.5C 298.043,157.298 297.376,157.631 296.5,157.5C 294.435,157.517 292.435,157.85 290.5,158.5C 281.75,158.15 273.75,155.65 266.5,151C 271.118,150.006 275.785,149.506 280.5,149.5 Z"/></g>
<g><path style="opacity:1" fill="#390804" d="M 280.5,149.5 C 275.785,149.506 271.118,150.006 266.5,151C 273.75,155.65 281.75,158.15 290.5,158.5C 288.205,160.385 285.538,160.885 282.5,160C 275.305,157.349 268.305,154.516 261.5,151.5C 261.833,151.5 262.167,151.5 262.5,151.5C 263.844,150.016 266.178,149.182 269.5,149C 273.358,148.19 277.024,148.357 280.5,149.5 Z"/></g>
<g><path style="opacity:1" fill="#811d0b" d="M 407.5,135.5 C 407.271,147.345 406.604,159.012 405.5,170.5C 405.5,163.5 405.5,156.5 405.5,149.5C 405.5,149.167 405.5,148.833 405.5,148.5C 406.167,144.167 406.833,139.833 407.5,135.5 Z"/></g>
<g><path style="opacity:1" fill="#d87232" d="M 261.5,151.5 C 268.305,154.516 275.305,157.349 282.5,160C 285.538,160.885 288.205,160.385 290.5,158.5C 292.435,157.85 294.435,157.517 296.5,157.5C 293.13,159.738 289.463,161.405 285.5,162.5C 279.626,160.648 273.792,158.648 268,156.5C 265.204,158.43 263.537,157.763 263,154.5C 262.329,153.748 261.496,153.414 260.5,153.5C 260.5,153.167 260.5,152.833 260.5,152.5C 260.5,151.833 260.833,151.5 261.5,151.5 Z"/></g>
<g><path style="opacity:1" fill="#ee761e" d="M 187.5,155.5 C 181.806,160.435 175.139,163.268 167.5,164C 167.043,164.414 166.709,164.914 166.5,165.5C 168.794,167.322 171.128,169.156 173.5,171C 182.16,172.956 190.827,172.956 199.5,171C 210.936,167.975 222.269,164.642 233.5,161C 243.097,159.017 252.763,157.517 262.5,156.5C 261.807,155.482 261.141,154.482 260.5,153.5C 261.496,153.414 262.329,153.748 263,154.5C 263.537,157.763 265.204,158.43 268,156.5C 273.792,158.648 279.626,160.648 285.5,162.5C 289.463,161.405 293.13,159.738 296.5,157.5C 297.376,157.631 298.043,157.298 298.5,156.5C 297.757,155.818 297.091,155.151 296.5,154.5C 296.167,153.833 295.833,153.167 295.5,152.5C 298.503,154.007 301.17,156.007 303.5,158.5C 299.346,159.164 295.346,160.331 291.5,162C 291.043,162.414 290.709,162.914 290.5,163.5C 296.639,165.897 302.973,167.73 309.5,169C 321.505,169.19 333.505,169.19 345.5,169C 349.959,170.358 354.292,171.858 358.5,173.5C 357.847,174.807 357.18,176.14 356.5,177.5C 336.914,179.841 317.247,181.008 297.5,181C 296.944,181.383 296.611,181.883 296.5,182.5C 295.833,182.5 295.167,182.5 294.5,182.5C 283.168,177.722 272.502,178.888 262.5,186C 263.056,186.383 263.389,186.883 263.5,187.5C 255.426,187.851 248.093,190.351 241.5,195C 242.833,195.667 244.167,196.333 245.5,197C 243.676,197.66 242.343,198.827 241.5,200.5C 243.394,201.227 246.061,201.227 249.5,200.5C 249.617,202.484 248.95,204.15 247.5,205.5C 246.956,213.292 245.956,220.959 244.5,228.5C 241.562,230.934 238.729,233.601 236,236.5C 232.565,232.555 228.732,229.222 224.5,226.5C 226.599,221.714 228.432,216.714 230,211.5C 237.844,200.487 236.011,198.82 224.5,206.5C 215.034,210.31 207.368,216.31 201.5,224.5C 200.559,222.228 199.226,220.228 197.5,218.5C 201.012,208.154 207.012,199.488 215.5,192.5C 205.195,190.822 196.195,193.489 188.5,200.5C 185.525,200.713 182.858,201.713 180.5,203.5C 180.167,203.167 179.833,202.833 179.5,202.5C 178.861,198.301 177.694,194.301 176,190.5C 175.444,192.595 174.944,192.762 174.5,191C 175.517,188.85 176.85,187.017 178.5,185.5C 181.173,184.297 183.84,184.297 186.5,185.5C 187.604,184.369 187.271,183.535 185.5,183C 189.139,181.675 192.806,180.508 196.5,179.5C 196.657,178.127 196.49,176.793 196,175.5C 192.594,175.919 188.928,176.253 185,176.5C 179.836,175.63 174.67,174.797 169.5,174C 170.672,173.581 171.672,172.915 172.5,172C 170.524,171.812 168.524,171.979 166.5,172.5C 163.989,171.345 161.322,170.678 158.5,170.5C 155.911,169.581 153.911,167.914 152.5,165.5C 152.953,164.542 153.619,163.708 154.5,163C 156.833,162.667 159.167,162.333 161.5,162C 167.432,157.745 174.099,155.578 181.5,155.5C 181.5,154.5 181.5,153.5 181.5,152.5C 183.5,152.5 185.5,152.5 187.5,152.5C 187.5,153.5 187.5,154.5 187.5,155.5 Z"/></g>
<g><path style="opacity:1" fill="#f2e7ee" d="M 279.5,153.5 C 282.68,152.429 285.68,153.095 288.5,155.5C 284.958,157.078 281.958,156.412 279.5,153.5 Z"/></g>
<g><path style="opacity:1" fill="#d36f2d" d="M 193.5,149.5 C 191.833,151.833 189.833,153.833 187.5,155.5C 187.5,154.5 187.5,153.5 187.5,152.5C 185.5,152.5 183.5,152.5 181.5,152.5C 181.5,153.5 181.5,154.5 181.5,155.5C 174.099,155.578 167.432,157.745 161.5,162C 159.167,162.333 156.833,162.667 154.5,163C 153.619,163.708 152.953,164.542 152.5,165.5C 151.355,164.207 151.689,163.041 153.5,162C 161.05,159.433 168.384,156.6 175.5,153.5C 181.465,152.094 187.465,150.761 193.5,149.5 Z"/></g>
<g><path style="opacity:1" fill="#5b1c03" d="M 348.5,161.5 C 350.264,160.288 351.93,160.621 353.5,162.5C 351.603,163.652 349.936,163.319 348.5,161.5 Z"/></g>
<g><path style="opacity:1" fill="#210310" d="M 190.5,134.5 C 185.463,137.071 180.129,139.071 174.5,140.5C 175.655,144.332 177.988,147.332 181.5,149.5C 178.975,149.977 176.975,151.31 175.5,153.5C 168.384,156.6 161.05,159.433 153.5,162C 151.689,163.041 151.355,164.207 152.5,165.5C 153.911,167.914 155.911,169.581 158.5,170.5C 162.453,173.974 167.12,176.14 172.5,177C 179.167,177.333 185.833,177.667 192.5,178C 187.326,179.751 182.659,182.251 178.5,185.5C 175.484,186.343 172.817,187.843 170.5,190C 171.381,190.708 172.047,191.542 172.5,192.5C 173.371,195.564 174.538,198.564 176,201.5C 176.495,203.473 176.662,205.473 176.5,207.5C 177.5,207.5 178.5,207.5 179.5,207.5C 179.5,209.833 179.5,212.167 179.5,214.5C 183.094,215.055 186.761,216.222 190.5,218C 189.619,218.708 188.953,219.542 188.5,220.5C 185.792,219.551 183.126,219.551 180.5,220.5C 177.564,227.592 175.564,234.592 174.5,241.5C 176.019,242.41 177.685,243.243 179.5,244C 176.971,245.682 174.304,247.182 171.5,248.5C 169.775,247.985 168.108,247.318 166.5,246.5C 167.309,244.929 167.643,243.262 167.5,241.5C 168.639,234.976 170.472,228.643 173,222.5C 173.497,220.19 173.663,217.857 173.5,215.5C 169.434,214.178 165.267,214.178 161,215.5C 157.946,229.804 157.779,244.137 160.5,258.5C 160.247,260.858 159.914,263.192 159.5,265.5C 160.5,265.5 161.5,265.5 162.5,265.5C 161.741,270.313 163.075,274.313 166.5,277.5C 172.518,292.876 181.518,306.21 193.5,317.5C 199.81,325.32 205.977,333.32 212,341.5C 213.122,343.407 213.955,345.407 214.5,347.5C 215.143,352.45 216.643,357.117 219,361.5C 219.644,355.062 220.478,355.229 221.5,362C 222.031,363.718 222.698,363.885 223.5,362.5C 227.388,361.275 230.388,358.941 232.5,355.5C 234.044,355.297 235.378,354.63 236.5,353.5C 237.445,356.788 238.112,360.121 238.5,363.5C 241.797,363.329 242.131,363.995 239.5,365.5C 238.571,366.689 238.238,368.022 238.5,369.5C 239.791,369.737 240.791,369.404 241.5,368.5C 244.656,369.551 247.656,369.551 250.5,368.5C 253.147,365.883 255.314,362.883 257,359.5C 257.085,362.361 256.251,365.028 254.5,367.5C 260.486,368.338 266.486,368.172 272.5,367C 273.308,366.692 273.975,366.192 274.5,365.5C 276.176,354.358 275.509,343.358 272.5,332.5C 271.737,329.859 271.57,327.192 272,324.5C 272.671,325.252 273.504,325.586 274.5,325.5C 275.159,328.455 275.492,331.455 275.5,334.5C 276.5,334.5 277.5,334.5 278.5,334.5C 278.5,337.833 278.5,341.167 278.5,344.5C 279.5,344.5 280.5,344.5 281.5,344.5C 281.968,348.131 281.301,351.465 279.5,354.5C 280.443,359.1 280.777,363.767 280.5,368.5C 282.308,368.491 283.975,368.991 285.5,370C 284.584,370.278 283.918,370.778 283.5,371.5C 282.432,372.434 281.099,372.768 279.5,372.5C 262.55,374.545 245.55,374.878 228.5,373.5C 225.05,372.47 221.717,371.137 218.5,369.5C 214.868,370.35 211.201,370.35 207.5,369.5C 160.783,352.946 131.283,320.613 119,272.5C 117.404,265.923 116.57,259.256 116.5,252.5C 116.334,246.158 116.5,239.825 117,233.5C 118.142,224.724 119.308,216.057 120.5,207.5C 120.5,207.167 120.5,206.833 120.5,206.5C 125.424,194.765 130.757,183.098 136.5,171.5C 147.217,153.117 161.883,138.783 180.5,128.5C 181.873,128.657 183.207,128.49 184.5,128C 186.866,125.651 189.532,124.818 192.5,125.5C 193.711,124.726 193.711,123.893 192.5,123C 193.899,122.405 195.232,122.572 196.5,123.5C 197.386,122.675 197.719,121.675 197.5,120.5C 198.833,120.5 200.167,120.5 201.5,120.5C 201.579,121.93 201.246,123.264 200.5,124.5C 203.426,129.093 202.093,130.926 196.5,130C 197.747,128.506 197.747,127.006 196.5,125.5C 195.5,126.5 194.5,127.5 193.5,128.5C 194.853,129.524 195.52,130.857 195.5,132.5C 193.302,132.12 191.635,132.787 190.5,134.5 Z"/></g>
<g><path style="opacity:1" fill="#24040c" d="M 311.5,148.5 C 313.541,148.854 315.374,148.854 317,148.5C 317.595,149.899 317.428,151.232 316.5,152.5C 317.95,153.85 318.617,155.516 318.5,157.5C 319.822,157.67 320.989,157.337 322,156.5C 323.18,157.684 324.68,158.351 326.5,158.5C 329.771,158.071 332.771,156.904 335.5,155C 342.134,154.042 348.634,154.542 355,156.5C 356.261,156.241 357.261,155.574 358,154.5C 359.161,156.665 360.994,157.665 363.5,157.5C 365.982,157.89 367.315,156.89 367.5,154.5C 369.074,154.937 370.241,155.937 371,157.5C 374.245,164.324 377.745,170.991 381.5,177.5C 380.453,179.056 379.786,180.723 379.5,182.5C 380.822,182.33 381.989,182.663 383,183.5C 384.312,185.955 385.478,188.455 386.5,191C 387.448,191.483 388.448,191.649 389.5,191.5C 389.34,193.199 389.506,194.866 390,196.5C 390.417,197.756 391.25,198.423 392.5,198.5C 392.5,203.5 392.5,208.5 392.5,213.5C 394.357,224.997 396.023,236.331 397.5,247.5C 396.668,254.485 395.835,261.485 395,268.5C 391.855,283.722 386.688,298.056 379.5,311.5C 375.455,318.571 371.122,325.571 366.5,332.5C 365.167,333.167 363.833,333.833 362.5,334.5C 363.235,337.716 362.235,340.382 359.5,342.5C 359.565,342.062 359.399,341.728 359,341.5C 351.905,349.1 344.405,356.1 336.5,362.5C 333.522,363.478 331.522,365.478 330.5,368.5C 328.833,369.833 327.167,371.167 325.5,372.5C 325.38,371.414 324.713,370.747 323.5,370.5C 321.139,372.012 318.639,373.346 316,374.5C 314.7,373.293 313.2,372.626 311.5,372.5C 311.703,374.39 311.037,375.89 309.5,377C 304.903,378.316 300.236,379.316 295.5,380C 295.833,380.333 296.167,380.667 296.5,381C 294.89,382.495 293.224,382.661 291.5,381.5C 285.981,384.949 279.314,387.116 271.5,388C 257.526,389.429 243.526,389.763 229.5,389C 215.196,385.884 201.196,381.717 187.5,376.5C 186.359,375.575 186.359,374.741 187.5,374C 182.852,372.333 178.185,370.667 173.5,369C 172.382,367.926 171.382,366.76 170.5,365.5C 169.614,366.325 169.281,367.325 169.5,368.5C 160.255,360.43 151.089,352.097 142,343.5C 141.601,343.728 141.435,344.062 141.5,344.5C 138.213,340.041 134.713,335.708 131,331.5C 130.027,329.608 129.36,327.608 129,325.5C 122.69,318.364 117.856,310.364 114.5,301.5C 115.5,301.5 116.5,301.5 117.5,301.5C 114.996,290.475 112.163,279.475 109,268.5C 108.501,264.179 108.334,259.846 108.5,255.5C 116.291,311.455 145.958,350.955 197.5,374C 207.2,377.758 217.2,380.258 227.5,381.5C 234.103,382.994 240.936,383.661 248,383.5C 252.68,383.499 257.18,383.166 261.5,382.5C 316.153,375.994 355.32,347.994 379,298.5C 397.507,252.488 393.84,208.488 368,166.5C 366.013,170.071 365.513,173.737 366.5,177.5C 365.252,176.666 364.585,175.333 364.5,173.5C 364.845,171.434 365.012,169.434 365,167.5C 364.282,166.549 363.449,166.383 362.5,167C 361.901,168.622 361.234,170.122 360.5,171.5C 360.664,168.813 360.497,166.146 360,163.5C 354.868,156.675 348.035,154.175 339.5,156C 330.253,160.152 320.586,161.819 310.5,161C 313.154,159.955 315.488,158.455 317.5,156.5C 315.491,153.804 313.491,151.137 311.5,148.5 Z"/></g>
<g><path style="opacity:1" fill="#c22a0f" d="M 341.5,115.5 C 359.989,117.708 378.322,120.708 396.5,124.5C 396.667,144.169 396.5,163.836 396,183.5C 394.191,193.786 394.025,204.119 395.5,214.5C 394.732,213.737 394.232,212.737 394,211.5C 393.501,206.177 393.334,200.844 393.5,195.5C 393.804,172.156 394.47,148.822 395.5,125.5C 394.5,125.5 393.5,125.5 392.5,125.5C 390.485,124.076 388.152,123.41 385.5,123.5C 375.204,122.087 364.87,120.587 354.5,119C 349.923,118.275 345.59,117.108 341.5,115.5 Z"/></g>
<g><path style="opacity:1" fill="#e2300d" d="M 405.5,149.5 C 405.5,156.5 405.5,163.5 405.5,170.5C 405.5,174.167 405.5,177.833 405.5,181.5C 404.883,181.611 404.383,181.944 404,182.5C 403.501,188.157 403.334,193.824 403.5,199.5C 402.826,212.916 401.493,226.249 399.5,239.5C 397.875,236.109 396.875,232.442 396.5,228.5C 396.5,226.833 396.5,225.167 396.5,223.5C 397.479,224.765 398.479,226.099 399.5,227.5C 400.5,217.5 401.5,207.5 402.5,197.5C 402.382,192.982 402.049,188.482 401.5,184C 401.644,180.915 402.478,178.082 404,175.5C 404.17,166.657 404.67,157.99 405.5,149.5 Z"/></g>
<g><path style="opacity:1" fill="#470501" d="M 93.5,167.5 C 94.512,175.991 95.1786,184.657 95.5,193.5C 93.8058,185.061 93.1391,176.395 93.5,167.5 Z"/></g>
<g><path style="opacity:1" fill="#d33213" d="M 94.5,117.5 C 93.1901,124.599 93.1901,131.599 94.5,138.5C 95.0254,170.054 97.1921,201.388 101,232.5C 101.333,229.5 101.667,226.5 102,223.5C 102.383,222.944 102.883,222.611 103.5,222.5C 103.365,228.584 102.365,234.25 100.5,239.5C 98.7201,231.6 97.7201,223.6 97.5,215.5C 97.7204,210.9 97.0538,206.567 95.5,202.5C 95.5,199.5 95.5,196.5 95.5,193.5C 95.1786,184.657 94.512,175.991 93.5,167.5C 93.4719,155.16 93.1386,142.826 92.5,130.5C 92.5079,125.778 93.1745,121.445 94.5,117.5 Z"/></g>
<g><path style="opacity:1" fill="#912011" d="M 405.5,181.5 C 405.299,187.509 404.966,193.509 404.5,199.5C 404.167,199.5 403.833,199.5 403.5,199.5C 403.334,193.824 403.501,188.157 404,182.5C 404.383,181.944 404.883,181.611 405.5,181.5 Z"/></g>
<g><path style="opacity:1" fill="#b82710" d="M 104.5,175.5 C 105.881,188.019 106.214,200.686 105.5,213.5C 104.833,214.5 104.167,215.5 103.5,216.5C 104.354,207.195 104.687,197.861 104.5,188.5C 104.5,184.167 104.5,179.833 104.5,175.5 Z"/></g>
<g><path style="opacity:1" fill="#902110" d="M 95.5,202.5 C 97.0538,206.567 97.7204,210.9 97.5,215.5C 96.1045,211.409 95.4379,207.076 95.5,202.5 Z"/></g>
<g><path style="opacity:1" fill="#72120a" d="M 393.5,195.5 C 393.334,200.844 393.501,206.177 394,211.5C 394.232,212.737 394.732,213.737 395.5,214.5C 395.5,215.833 395.5,217.167 395.5,218.5C 394.687,216.739 393.687,215.072 392.5,213.5C 392.5,208.5 392.5,203.5 392.5,198.5C 392.263,197.209 392.596,196.209 393.5,195.5 Z"/></g>
<g><path style="opacity:1" fill="#340702" d="M 403.5,199.5 C 403.833,199.5 404.167,199.5 404.5,199.5C 404.224,214.676 402.724,229.676 400,244.5C 398.583,245.078 397.75,246.078 397.5,247.5C 396.023,236.331 394.357,224.997 392.5,213.5C 393.687,215.072 394.687,216.739 395.5,218.5C 395.216,220.415 395.549,222.081 396.5,223.5C 396.5,225.167 396.5,226.833 396.5,228.5C 396.173,233.544 396.506,238.544 397.5,243.5C 398.705,242.423 399.372,241.09 399.5,239.5C 401.493,226.249 402.826,212.916 403.5,199.5 Z"/></g>
<g><path style="opacity:1" fill="#51070a" d="M 105.5,213.5 C 104.795,222.152 104.128,230.819 103.5,239.5C 103.444,241.64 102.777,243.306 101.5,244.5C 100.962,242.883 100.629,241.216 100.5,239.5C 102.365,234.25 103.365,228.584 103.5,222.5C 103.5,220.5 103.5,218.5 103.5,216.5C 104.167,215.5 104.833,214.5 105.5,213.5 Z"/></g>
<g><path style="opacity:1" fill="#23040d" d="M 148.5,135.5 C 149.6,136.558 150.934,137.392 152.5,138C 149.069,139.915 147.069,142.748 146.5,146.5C 118.756,177.39 106.09,213.724 108.5,255.5C 108.334,259.846 108.501,264.179 109,268.5C 112.163,279.475 114.996,290.475 117.5,301.5C 116.5,301.5 115.5,301.5 114.5,301.5C 114.813,298.753 114.48,296.086 113.5,293.5C 110.867,292.218 110.867,290.884 113.5,289.5C 111.868,289.762 110.701,288.762 110,286.5C 109.667,283.167 109.333,279.833 109,276.5C 107.47,274.774 106.47,272.774 106,270.5C 104.823,261.73 103.323,253.063 101.5,244.5C 102.777,243.306 103.444,241.64 103.5,239.5C 104.128,230.819 104.795,222.152 105.5,213.5C 106.214,200.686 105.881,188.019 104.5,175.5C 103.677,167.529 103.344,159.529 103.5,151.5C 104.117,151.611 104.617,151.944 105,152.5C 105.758,168.302 106.758,183.968 108,199.5C 109.602,197.292 110.936,194.959 112,192.5C 112.878,183.716 116.544,176.382 123,170.5C 123.511,168.122 124.178,165.788 125,163.5C 128.856,157.109 133.189,151.109 138,145.5C 139.11,143.963 140.61,143.297 142.5,143.5C 143.345,139.985 145.345,137.319 148.5,135.5 Z"/></g>
<g><path style="opacity:1" fill="#8d291e" d="M 396.5,228.5 C 396.875,232.442 397.875,236.109 399.5,239.5C 399.372,241.09 398.705,242.423 397.5,243.5C 396.506,238.544 396.173,233.544 396.5,228.5 Z"/></g>
<g><path style="opacity:1" fill="#f2a418" d="M 180.5,128.5 C 161.883,138.783 147.217,153.117 136.5,171.5C 128.767,181.973 123.433,193.64 120.5,206.5C 120.5,206.833 120.5,207.167 120.5,207.5C 115.712,222.21 114.379,237.21 116.5,252.5C 116.57,259.256 117.404,265.923 119,272.5C 131.283,320.613 160.783,352.946 207.5,369.5C 224.801,376.037 242.801,378.203 261.5,376C 267.851,375.944 273.851,374.777 279.5,372.5C 281.099,372.768 282.432,372.434 283.5,371.5C 308.881,365.483 330.214,352.816 347.5,333.5C 368.942,311.267 380.609,284.6 382.5,253.5C 385.974,226.357 380.641,201.024 366.5,177.5C 365.513,173.737 366.013,170.071 368,166.5C 393.84,208.488 397.507,252.488 379,298.5C 355.32,347.994 316.153,375.994 261.5,382.5C 250.148,382.627 238.815,382.294 227.5,381.5C 217.2,380.258 207.2,377.758 197.5,374C 145.958,350.955 116.291,311.455 108.5,255.5C 106.09,213.724 118.756,177.39 146.5,146.5C 162.583,129.765 181.583,117.431 203.5,109.5C 206.092,111.026 207.092,113.359 206.5,116.5C 200.223,117.801 194.223,119.967 188.5,123C 185.593,124.609 182.927,126.442 180.5,128.5 Z"/></g>
<g><path style="opacity:1" fill="#3e1005" d="M 223.5,362.5 C 222.698,363.885 222.031,363.718 221.5,362C 220.478,355.229 219.644,355.062 219,361.5C 216.643,357.117 215.143,352.45 214.5,347.5C 216.163,349.493 217.33,351.826 218,354.5C 218.312,349.427 216.978,344.76 214,340.5C 207.68,331.687 200.847,323.353 193.5,315.5C 190.531,311.572 188.698,307.239 188,302.5C 190.245,307.997 193.245,312.997 197,317.5C 206.912,326.405 214.912,336.738 221,348.5C 221.803,353.315 222.637,357.981 223.5,362.5 Z"/></g>
<g><path style="opacity:1" fill="#310a06" d="M 331.5,316.5 C 333.551,319.041 336.217,320.875 339.5,322C 339.034,323.299 339.034,324.799 339.5,326.5C 339.167,326.5 338.833,326.5 338.5,326.5C 338.388,323.023 336.721,321.523 333.5,322C 322.942,327.437 312.942,333.603 303.5,340.5C 305.457,337.554 308.124,335.221 311.5,333.5C 312.386,332.675 312.719,331.675 312.5,330.5C 308.35,332.653 304.016,334.319 299.5,335.5C 297.924,330.311 295.424,325.977 292,322.5C 296.357,325.357 299.857,329.023 302.5,333.5C 303.027,330.692 303.027,328.025 302.5,325.5C 304.395,326.973 306.061,328.64 307.5,330.5C 315.563,325.807 323.563,321.14 331.5,316.5 Z"/></g>
<g><path style="opacity:1" fill="#28060b" d="M 218.5,268.5 C 220.63,274.078 223.796,279.078 228,283.5C 228.107,279.63 227.607,275.797 226.5,272C 227.176,270.317 228.176,270.15 229.5,271.5C 234.102,274.476 238.769,277.476 243.5,280.5C 243.833,280.333 244.167,280.167 244.5,280C 240.569,276.229 236.236,273.062 231.5,270.5C 232.251,269.427 233.251,269.26 234.5,270C 238.963,272.3 243.296,274.8 247.5,277.5C 248.521,276.998 248.688,276.332 248,275.5C 246.229,274.696 244.729,273.529 243.5,272C 246.472,272.052 249.305,272.886 252,274.5C 253.981,273.35 255.814,272.016 257.5,270.5C 255.866,273.238 256.533,275.238 259.5,276.5C 254.759,281.052 249.759,285.385 244.5,289.5C 240.858,287.025 237.358,284.358 234,281.5C 233.333,284.167 233.333,286.833 234,289.5C 237.063,292.076 240.229,294.409 243.5,296.5C 247.734,300.629 252.401,304.296 257.5,307.5C 257.833,307 258.167,306.5 258.5,306C 256.856,302.641 256.356,299.141 257,295.5C 258.33,296.582 259.83,297.249 261.5,297.5C 264.077,299.79 267.077,300.956 270.5,301C 268.266,299.25 265.932,297.75 263.5,296.5C 262.031,294.895 262.365,294.395 264.5,295C 269.239,297.243 273.572,300.077 277.5,303.5C 277.833,303.167 278.167,302.833 278.5,302.5C 274.25,297.822 274.583,296.989 279.5,300C 280.833,300.667 282.167,300.667 283.5,300C 289.008,296.246 295.008,293.58 301.5,292C 299.907,291.051 298.574,289.885 297.5,288.5C 300.914,288.736 304.247,289.402 307.5,290.5C 306.833,291.167 306.167,291.833 305.5,292.5C 307.396,293.466 309.396,293.799 311.5,293.5C 311.5,294.833 311.5,296.167 311.5,297.5C 306.561,295.347 301.895,296.014 297.5,299.5C 290.029,302.734 283.029,306.734 276.5,311.5C 272.451,310.641 268.784,308.975 265.5,306.5C 264.353,308.765 264.186,311.098 265,313.5C 267.037,315.706 269.203,317.706 271.5,319.5C 272.529,321.517 273.529,323.517 274.5,325.5C 273.504,325.586 272.671,325.252 272,324.5C 271.57,327.192 271.737,329.859 272.5,332.5C 269.411,328.232 266.077,324.066 262.5,320C 248.422,309.926 234.922,299.093 222,287.5C 218.691,283.213 216.191,278.547 214.5,273.5C 215.265,274.66 216.265,275.66 217.5,276.5C 218.48,273.914 218.813,271.247 218.5,268.5 Z"/></g>
<g><path style="opacity:1" fill="#d7712a" d="M 297.5,299.5 C 296.952,302.084 295.285,303.084 292.5,302.5C 292.385,304.947 291.385,306.947 289.5,308.5C 286.592,309.954 283.592,311.454 280.5,313C 277.469,313.495 274.469,313.329 271.5,312.5C 271.5,314.833 271.5,317.167 271.5,319.5C 269.203,317.706 267.037,315.706 265,313.5C 264.186,311.098 264.353,308.765 265.5,306.5C 268.784,308.975 272.451,310.641 276.5,311.5C 283.029,306.734 290.029,302.734 297.5,299.5 Z"/></g>
<g><path style="opacity:1" fill="#f8a712" d="M 320.5,305.5 C 324.5,308.833 328.167,312.5 331.5,316.5C 323.563,321.14 315.563,325.807 307.5,330.5C 306.061,328.64 304.395,326.973 302.5,325.5C 303.027,328.025 303.027,330.692 302.5,333.5C 299.857,329.023 296.357,325.357 292,322.5C 295.424,325.977 297.924,330.311 299.5,335.5C 294.322,329.179 287.822,324.512 280,321.5C 281.212,328.067 281.545,334.733 281,341.5C 280.156,337.789 279.156,334.123 278,330.5C 277.303,328.416 276.136,326.749 274.5,325.5C 273.529,323.517 272.529,321.517 271.5,319.5C 271.5,317.167 271.5,314.833 271.5,312.5C 274.469,313.329 277.469,313.495 280.5,313C 283.592,311.454 286.592,309.954 289.5,308.5C 299.741,306.585 310.075,305.585 320.5,305.5 Z"/></g>
<g><path style="opacity:1" fill="#ea7620" d="M 311.5,297.5 C 314.5,300.167 317.5,302.833 320.5,305.5C 310.075,305.585 299.741,306.585 289.5,308.5C 291.385,306.947 292.385,304.947 292.5,302.5C 295.285,303.084 296.952,302.084 297.5,299.5C 301.895,296.014 306.561,295.347 311.5,297.5 Z"/></g>
<g><path style="opacity:1" fill="#e67622" d="M 281.5,281.5 C 274.46,281.413 267.46,281.913 260.5,283C 254.439,285.061 250.439,289.061 248.5,295C 246.953,295.333 245.62,294.833 244.5,293.5C 243.614,294.325 243.281,295.325 243.5,296.5C 240.229,294.409 237.063,292.076 234,289.5C 233.333,286.833 233.333,284.167 234,281.5C 237.358,284.358 240.858,287.025 244.5,289.5C 249.759,285.385 254.759,281.052 259.5,276.5C 262.041,275.312 264.541,273.978 267,272.5C 272.301,274.893 277.134,277.893 281.5,281.5 Z"/></g>
<g><path style="opacity:1" fill="#f9a711" d="M 281.5,281.5 C 282.873,281.343 284.207,281.51 285.5,282C 289.155,284.827 293.155,286.993 297.5,288.5C 298.574,289.885 299.907,291.051 301.5,292C 295.008,293.58 289.008,296.246 283.5,300C 282.167,300.667 280.833,300.667 279.5,300C 274.583,296.989 274.25,297.822 278.5,302.5C 278.167,302.833 277.833,303.167 277.5,303.5C 273.572,300.077 269.239,297.243 264.5,295C 262.365,294.395 262.031,294.895 263.5,296.5C 263.158,297.338 262.492,297.672 261.5,297.5C 259.83,297.249 258.33,296.582 257,295.5C 256.356,299.141 256.856,302.641 258.5,306C 258.167,306.5 257.833,307 257.5,307.5C 252.401,304.296 247.734,300.629 243.5,296.5C 243.281,295.325 243.614,294.325 244.5,293.5C 245.62,294.833 246.953,295.333 248.5,295C 250.439,289.061 254.439,285.061 260.5,283C 267.46,281.913 274.46,281.413 281.5,281.5 Z"/></g>
<g><path style="opacity:1" fill="#c28537" d="M 263.5,296.5 C 265.932,297.75 268.266,299.25 270.5,301C 267.077,300.956 264.077,299.79 261.5,297.5C 262.492,297.672 263.158,297.338 263.5,296.5 Z"/></g>
<g><path style="opacity:1" fill="#d99938" d="M 231.5,270.5 C 236.236,273.062 240.569,276.229 244.5,280C 244.167,280.167 243.833,280.333 243.5,280.5C 238.769,277.476 234.102,274.476 229.5,271.5C 230.492,271.672 231.158,271.338 231.5,270.5 Z"/></g>
<g><path style="opacity:1" fill="#fba80b" d="M 211.5,268.5 C 212.313,270.261 213.313,271.928 214.5,273.5C 216.191,278.547 218.691,283.213 222,287.5C 234.922,299.093 248.422,309.926 262.5,320C 266.077,324.066 269.411,328.232 272.5,332.5C 275.509,343.358 276.176,354.358 274.5,365.5C 273.975,366.192 273.308,366.692 272.5,367C 266.486,368.172 260.486,368.338 254.5,367.5C 256.251,365.028 257.085,362.361 257,359.5C 255.314,362.883 253.147,365.883 250.5,368.5C 249.127,368.657 247.793,368.49 246.5,368C 250.663,364.522 252.663,360.356 252.5,355.5C 251.351,355.209 250.684,354.376 250.5,353C 251.889,345.721 251.389,338.555 249,331.5C 248.586,331.957 248.086,332.291 247.5,332.5C 246.672,337.132 246.172,341.798 246,346.5C 245.5,344.5 245,342.5 244.5,340.5C 244.253,339.287 243.586,338.62 242.5,338.5C 241.251,335.91 239.584,333.576 237.5,331.5C 234.833,328.167 231.833,325.167 228.5,322.5C 224.211,318.864 219.544,316.03 214.5,314C 218.695,317.03 222.361,320.53 225.5,324.5C 227.432,327.366 229.099,330.366 230.5,333.5C 232.205,340.014 232.871,346.681 232.5,353.5C 232.5,354.167 232.5,354.833 232.5,355.5C 230.388,358.941 227.388,361.275 223.5,362.5C 222.637,357.981 221.803,353.315 221,348.5C 214.912,336.738 206.912,326.405 197,317.5C 193.245,312.997 190.245,307.997 188,302.5C 188.698,307.239 190.531,311.572 193.5,315.5C 193.5,316.167 193.5,316.833 193.5,317.5C 181.518,306.21 172.518,292.876 166.5,277.5C 165.833,274.833 165.167,272.167 164.5,269.5C 164.308,266.191 165.641,263.691 168.5,262C 177.453,255.849 186.453,249.683 195.5,243.5C 195.833,244.5 196.167,245.5 196.5,246.5C 194.561,255.452 192.895,264.452 191.5,273.5C 191.833,275.167 192.167,276.833 192.5,278.5C 198.413,274.377 204.746,271.043 211.5,268.5 Z"/></g>
<g><path style="opacity:1" fill="#431704" d="M 228.5,322.5 C 226.821,322.285 225.821,322.952 225.5,324.5C 222.361,320.53 218.695,317.03 214.5,314C 219.544,316.03 224.211,318.864 228.5,322.5 Z"/></g>
<g><path style="opacity:1" fill="#f6a615" d="M 243.5,263.5 C 245.382,264.751 247.382,265.918 249.5,267C 252.797,267.204 255.797,268.037 258.5,269.5C 258.5,270.167 258.167,270.5 257.5,270.5C 255.814,272.016 253.981,273.35 252,274.5C 249.305,272.886 246.472,272.052 243.5,272C 244.729,273.529 246.229,274.696 248,275.5C 248.688,276.332 248.521,276.998 247.5,277.5C 243.296,274.8 238.963,272.3 234.5,270C 233.251,269.26 232.251,269.427 231.5,270.5C 231.158,271.338 230.492,271.672 229.5,271.5C 228.176,270.15 227.176,270.317 226.5,272C 227.607,275.797 228.107,279.63 228,283.5C 223.796,279.078 220.63,274.078 218.5,268.5C 217.962,266.883 217.629,265.216 217.5,263.5C 221.501,261.378 225.667,259.378 230,257.5C 234.621,259.304 239.121,261.304 243.5,263.5 Z"/></g>
<g><path style="opacity:1" fill="#d4722d" d="M 251.5,261.5 C 253.812,263.636 256.312,265.636 259,267.5C 259.692,268.437 259.525,269.103 258.5,269.5C 255.797,268.037 252.797,267.204 249.5,267C 247.382,265.918 245.382,264.751 243.5,263.5C 239.209,257.969 237.376,251.636 238,244.5C 236.556,246.155 234.722,246.822 232.5,246.5C 235.179,244.399 238.012,242.399 241,240.5C 238.093,248.557 239.426,255.89 245,262.5C 245.167,262.167 245.333,261.833 245.5,261.5C 243.517,258.397 242.684,255.064 243,251.5C 244.948,255.613 247.781,258.946 251.5,261.5 Z"/></g>
<g><path style="opacity:1" fill="#340804" d="M 200.5,265.5 C 199.685,266.837 198.518,267.837 197,268.5C 199.775,256.995 202.942,245.495 206.5,234C 206.612,232.338 205.946,231.171 204.5,230.5C 201.976,231.592 199.643,232.926 197.5,234.5C 197.414,233.504 197.748,232.671 198.5,232C 200.58,231.211 202.414,230.044 204,228.5C 206.371,230.835 208.538,233.335 210.5,236C 209.437,237.188 208.103,237.688 206.5,237.5C 204.205,246.416 201.538,255.249 198.5,264C 198.836,265.03 199.503,265.53 200.5,265.5 Z"/></g>
<g><path style="opacity:1" fill="#eb7620" d="M 243.5,263.5 C 239.121,261.304 234.621,259.304 230,257.5C 225.667,259.378 221.501,261.378 217.5,263.5C 216.62,261.863 215.954,260.03 215.5,258C 215.639,256.699 216.305,255.866 217.5,255.5C 222.255,252.075 227.255,249.075 232.5,246.5C 234.722,246.822 236.556,246.155 238,244.5C 237.376,251.636 239.209,257.969 243.5,263.5 Z"/></g>
<g><path style="opacity:1" fill="#220310" d="M 219.5,231.5 C 217.5,231.5 215.5,231.5 213.5,231.5C 212.074,238.435 210.074,245.101 207.5,251.5C 206.479,251.899 206.146,253.233 206.5,255.5C 211.418,253.708 216.084,251.375 220.5,248.5C 221.167,248.667 221.833,248.833 222.5,249C 219.979,250.558 218.312,252.725 217.5,255.5C 216.305,255.866 215.639,256.699 215.5,258C 215.954,260.03 216.62,261.863 217.5,263.5C 217.629,265.216 217.962,266.883 218.5,268.5C 218.813,271.247 218.48,273.914 217.5,276.5C 216.265,275.66 215.265,274.66 214.5,273.5C 213.313,271.928 212.313,270.261 211.5,268.5C 211.849,265.537 210.849,263.204 208.5,261.5C 205.807,262.847 203.14,264.18 200.5,265.5C 199.503,265.53 198.836,265.03 198.5,264C 201.538,255.249 204.205,246.416 206.5,237.5C 208.103,237.688 209.437,237.188 210.5,236C 208.538,233.335 206.371,230.835 204,228.5C 202.414,230.044 200.58,231.211 198.5,232C 197.748,232.671 197.414,233.504 197.5,234.5C 195.143,234.663 192.81,234.497 190.5,234C 191.905,232.731 193.571,232.231 195.5,232.5C 195.98,229.995 196.98,227.662 198.5,225.5C 199.325,224.614 200.325,224.281 201.5,224.5C 202.708,225.782 204.042,225.782 205.5,224.5C 209.498,216.286 211.831,216.62 212.5,225.5C 213.978,225.238 215.311,225.571 216.5,226.5C 217.554,228.201 218.554,229.868 219.5,231.5 Z"/></g>
<g><path style="opacity:1" fill="#e97620" d="M 200.5,265.5 C 203.14,264.18 205.807,262.847 208.5,261.5C 210.849,263.204 211.849,265.537 211.5,268.5C 204.746,271.043 198.413,274.377 192.5,278.5C 192.167,276.833 191.833,275.167 191.5,273.5C 192.895,264.452 194.561,255.452 196.5,246.5C 196.167,245.5 195.833,244.5 195.5,243.5C 186.453,249.683 177.453,255.849 168.5,262C 165.641,263.691 164.308,266.191 164.5,269.5C 163.128,265.377 162.628,261.043 163,256.5C 174.649,249.267 186.149,241.934 197.5,234.5C 199.643,232.926 201.976,231.592 204.5,230.5C 205.946,231.171 206.612,232.338 206.5,234C 202.942,245.495 199.775,256.995 197,268.5C 198.518,267.837 199.685,266.837 200.5,265.5 Z"/></g>
<g><path style="opacity:1" fill="#2c090b" d="M 172.5,192.5 C 176.385,196.289 178.051,200.955 177.5,206.5C 180.466,205.602 183.3,204.269 186,202.5C 186.399,202.728 186.565,203.062 186.5,203.5C 184.387,206.216 182.387,209.05 180.5,212C 186.52,213.284 192.187,215.45 197.5,218.5C 199.226,220.228 200.559,222.228 201.5,224.5C 200.325,224.281 199.325,224.614 198.5,225.5C 196.98,227.662 195.98,229.995 195.5,232.5C 193.571,232.231 191.905,232.731 190.5,234C 192.81,234.497 195.143,234.663 197.5,234.5C 186.149,241.934 174.649,249.267 163,256.5C 162.628,261.043 163.128,265.377 164.5,269.5C 165.167,272.167 165.833,274.833 166.5,277.5C 163.075,274.313 161.741,270.313 162.5,265.5C 161.5,265.5 160.5,265.5 159.5,265.5C 159.914,263.192 160.247,260.858 160.5,258.5C 157.779,244.137 157.946,229.804 161,215.5C 165.267,214.178 169.434,214.178 173.5,215.5C 169.833,215.5 166.167,215.5 162.5,215.5C 161.225,228.147 161.225,240.814 162.5,253.5C 164.415,249.486 166.081,245.486 167.5,241.5C 167.643,243.262 167.309,244.929 166.5,246.5C 168.108,247.318 169.775,247.985 171.5,248.5C 174.304,247.182 176.971,245.682 179.5,244C 177.685,243.243 176.019,242.41 174.5,241.5C 175.167,241.167 175.833,240.833 176.5,240.5C 182.553,236.386 188.72,232.386 195,228.5C 194.923,226.228 193.757,224.562 191.5,223.5C 190.694,222.272 189.694,221.272 188.5,220.5C 188.953,219.542 189.619,218.708 190.5,218C 186.761,216.222 183.094,215.055 179.5,214.5C 179.5,212.167 179.5,209.833 179.5,207.5C 178.5,207.5 177.5,207.5 176.5,207.5C 176.662,205.473 176.495,203.473 176,201.5C 174.538,198.564 173.371,195.564 172.5,192.5 Z"/></g>
<g><path style="opacity:1" fill="#ebd532" d="M 223.5,234.5 C 226.241,235.439 228.241,237.273 229.5,240C 223.444,244.358 217.11,248.192 210.5,251.5C 213.69,244.974 218.024,239.308 223.5,234.5 Z"/></g>
<g><path style="opacity:1" fill="#29070a" d="M 224.5,206.5 C 219.8,211.905 216.134,217.905 213.5,224.5C 217.197,225.008 220.864,225.674 224.5,226.5C 228.732,229.222 232.565,232.555 236,236.5C 238.729,233.601 241.562,230.934 244.5,228.5C 245.5,227.833 246.5,227.167 247.5,226.5C 244.284,230.481 240.951,234.481 237.5,238.5C 238.967,238.723 240.467,239.056 242,239.5C 243.383,242.688 243.549,245.854 242.5,249C 244.521,249.513 246.021,250.68 247,252.5C 248.048,255.756 249.548,258.756 251.5,261.5C 247.781,258.946 244.948,255.613 243,251.5C 242.684,255.064 243.517,258.397 245.5,261.5C 245.333,261.833 245.167,262.167 245,262.5C 239.426,255.89 238.093,248.557 241,240.5C 238.012,242.399 235.179,244.399 232.5,246.5C 227.255,249.075 222.255,252.075 217.5,255.5C 218.312,252.725 219.979,250.558 222.5,249C 221.833,248.833 221.167,248.667 220.5,248.5C 216.084,251.375 211.418,253.708 206.5,255.5C 206.146,253.233 206.479,251.899 207.5,251.5C 208.26,253.985 209.26,253.985 210.5,251.5C 217.11,248.192 223.444,244.358 229.5,240C 228.241,237.273 226.241,235.439 223.5,234.5C 221.924,233.857 220.59,232.857 219.5,231.5C 218.554,229.868 217.554,228.201 216.5,226.5C 215.311,225.571 213.978,225.238 212.5,225.5C 211.831,216.62 209.498,216.286 205.5,224.5C 204.042,225.782 202.708,225.782 201.5,224.5C 207.368,216.31 215.034,210.31 224.5,206.5 Z"/></g>
<g><path style="opacity:1" fill="#e3ce4a" d="M 191.5,223.5 C 193.757,224.562 194.923,226.228 195,228.5C 188.72,232.386 182.553,236.386 176.5,240.5C 177.072,238.745 177.906,237.078 179,235.5C 183.398,231.662 187.565,227.662 191.5,223.5 Z"/></g>
<g><path style="opacity:1" fill="#e67427" d="M 173.5,215.5 C 173.663,217.857 173.497,220.19 173,222.5C 170.472,228.643 168.639,234.976 167.5,241.5C 166.081,245.486 164.415,249.486 162.5,253.5C 161.225,240.814 161.225,228.147 162.5,215.5C 166.167,215.5 169.833,215.5 173.5,215.5 Z"/></g>
<g><path style="opacity:1" fill="#f2efe6" d="M 219.5,231.5 C 220.59,232.857 221.924,233.857 223.5,234.5C 218.024,239.308 213.69,244.974 210.5,251.5C 209.26,253.985 208.26,253.985 207.5,251.5C 210.074,245.101 212.074,238.435 213.5,231.5C 215.5,231.5 217.5,231.5 219.5,231.5 Z"/></g>
<g><path style="opacity:1" fill="#360d02" d="M 120.5,207.5 C 119.308,216.057 118.142,224.724 117,233.5C 116.5,239.825 116.334,246.158 116.5,252.5C 114.379,237.21 115.712,222.21 120.5,207.5 Z"/></g>
<g><path style="opacity:1" fill="#f6f3ef" d="M 188.5,220.5 C 189.694,221.272 190.694,222.272 191.5,223.5C 187.565,227.662 183.398,231.662 179,235.5C 177.906,237.078 177.072,238.745 176.5,240.5C 175.833,240.833 175.167,241.167 174.5,241.5C 175.564,234.592 177.564,227.592 180.5,220.5C 183.126,219.551 185.792,219.551 188.5,220.5 Z"/></g>
<g><path style="opacity:1" fill="#f9a711" d="M 224.5,226.5 C 220.864,225.674 217.197,225.008 213.5,224.5C 216.134,217.905 219.8,211.905 224.5,206.5C 236.011,198.82 237.844,200.487 230,211.5C 228.432,216.714 226.599,221.714 224.5,226.5 Z"/></g>
<g><path style="opacity:1" fill="#27080a" d="M 366.5,177.5 C 380.641,201.024 385.974,226.357 382.5,253.5C 382.629,243.479 382.296,233.479 381.5,223.5C 380.167,223.5 378.833,223.5 377.5,223.5C 377.82,226.898 377.487,230.232 376.5,233.5C 375.498,226.512 375.498,219.679 376.5,213C 375.061,212.009 374.061,210.676 373.5,209C 377.014,205.444 377.181,201.61 374,197.5C 373.581,198.672 372.915,199.672 372,200.5C 371.272,197.77 371.438,195.103 372.5,192.5C 371.194,191.088 370.36,189.421 370,187.5C 368.399,191.036 366.566,190.869 364.5,187C 365.76,185.887 366.927,185.72 368,186.5C 368.167,186 368.333,185.5 368.5,185C 366.915,182.744 366.248,180.244 366.5,177.5 Z"/></g>
<g><path style="opacity:1" fill="#ce6c2d" d="M 251.5,199.5 C 250.342,204.13 249.176,208.797 248,213.5C 247.501,217.821 247.334,222.154 247.5,226.5C 246.5,227.167 245.5,227.833 244.5,228.5C 245.956,220.959 246.956,213.292 247.5,205.5C 248.95,204.15 249.617,202.484 249.5,200.5C 246.061,201.227 243.394,201.227 241.5,200.5C 244.764,199.676 248.098,199.342 251.5,199.5 Z"/></g>
<g><path style="opacity:1" fill="#faa70f" d="M 197.5,218.5 C 192.187,215.45 186.52,213.284 180.5,212C 182.387,209.05 184.387,206.216 186.5,203.5C 187.401,202.71 188.068,201.71 188.5,200.5C 196.195,193.489 205.195,190.822 215.5,192.5C 207.012,199.488 201.012,208.154 197.5,218.5 Z"/></g>
<g><path style="opacity:1" fill="#e4cf37" d="M 169.5,201.5 C 170.473,203.948 170.806,206.615 170.5,209.5C 161.988,209.2 153.655,208.533 145.5,207.5C 153.233,204.567 161.233,202.567 169.5,201.5 Z"/></g>
<g><path style="opacity:1" fill="#f7f3ea" d="M 169.5,201.5 C 161.233,202.567 153.233,204.567 145.5,207.5C 151.171,202.506 157.171,197.839 163.5,193.5C 166.672,195.332 168.672,197.999 169.5,201.5 Z"/></g>
<g><path style="opacity:1" fill="#d66f2c" d="M 178.5,185.5 C 176.85,187.017 175.517,188.85 174.5,191C 174.944,192.762 175.444,192.595 176,190.5C 177.694,194.301 178.861,198.301 179.5,202.5C 179.833,202.833 180.167,203.167 180.5,203.5C 182.858,201.713 185.525,200.713 188.5,200.5C 188.068,201.71 187.401,202.71 186.5,203.5C 186.565,203.062 186.399,202.728 186,202.5C 183.3,204.269 180.466,205.602 177.5,206.5C 178.051,200.955 176.385,196.289 172.5,192.5C 172.047,191.542 171.381,190.708 170.5,190C 172.817,187.843 175.484,186.343 178.5,185.5 Z"/></g>
<g><path style="opacity:1" fill="#210310" d="M 366.5,177.5 C 366.248,180.244 366.915,182.744 368.5,185C 368.333,185.5 368.167,186 368,186.5C 366.927,185.72 365.76,185.887 364.5,187C 366.566,190.869 368.399,191.036 370,187.5C 370.36,189.421 371.194,191.088 372.5,192.5C 371.438,195.103 371.272,197.77 372,200.5C 372.915,199.672 373.581,198.672 374,197.5C 377.181,201.61 377.014,205.444 373.5,209C 374.061,210.676 375.061,212.009 376.5,213C 375.498,219.679 375.498,226.512 376.5,233.5C 377.487,230.232 377.82,226.898 377.5,223.5C 378.833,223.5 380.167,223.5 381.5,223.5C 382.296,233.479 382.629,243.479 382.5,253.5C 380.609,284.6 368.942,311.267 347.5,333.5C 345.143,333.663 342.81,333.497 340.5,333C 341.308,332.692 341.975,332.192 342.5,331.5C 342.216,329.241 341.216,327.574 339.5,326.5C 339.034,324.799 339.034,323.299 339.5,322C 336.217,320.875 333.551,319.041 331.5,316.5C 328.167,312.5 324.5,308.833 320.5,305.5C 317.5,302.833 314.5,300.167 311.5,297.5C 311.5,296.167 311.5,294.833 311.5,293.5C 309.396,293.799 307.396,293.466 305.5,292.5C 306.167,291.833 306.833,291.167 307.5,290.5C 304.247,289.402 300.914,288.736 297.5,288.5C 293.155,286.993 289.155,284.827 285.5,282C 284.207,281.51 282.873,281.343 281.5,281.5C 277.134,277.893 272.301,274.893 267,272.5C 264.541,273.978 262.041,275.312 259.5,276.5C 256.533,275.238 255.866,273.238 257.5,270.5C 258.167,270.5 258.5,270.167 258.5,269.5C 259.525,269.103 259.692,268.437 259,267.5C 256.312,265.636 253.812,263.636 251.5,261.5C 249.548,258.756 248.048,255.756 247,252.5C 246.021,250.68 244.521,249.513 242.5,249C 243.549,245.854 243.383,242.688 242,239.5C 240.467,239.056 238.967,238.723 237.5,238.5C 240.951,234.481 244.284,230.481 247.5,226.5C 247.334,222.154 247.501,217.821 248,213.5C 249.176,208.797 250.342,204.13 251.5,199.5C 250.993,198.141 249.993,197.141 248.5,196.5C 249.484,194.52 250.817,192.853 252.5,191.5C 259.285,188.635 266.285,187.968 273.5,189.5C 280.766,187.509 288.099,185.842 295.5,184.5C 308.41,183.763 321.243,182.763 334,181.5C 334.232,182.737 334.732,183.737 335.5,184.5C 335.6,187.667 334.933,190.667 333.5,193.5C 338.906,192.766 342.239,189.432 343.5,183.5C 344.043,183.44 344.376,183.107 344.5,182.5C 343.271,181.719 341.938,181.219 340.5,181C 346.514,180.76 352.514,180.76 358.5,181C 360.34,178.174 361.006,175.007 360.5,171.5C 361.234,170.122 361.901,168.622 362.5,167C 363.449,166.383 364.282,166.549 365,167.5C 365.012,169.434 364.845,171.434 364.5,173.5C 364.585,175.333 365.252,176.666 366.5,177.5 Z"/></g>
<g><path style="opacity:1" fill="#e87423" d="M 255.5,205.5 C 256.494,215.655 260.828,224.155 268.5,231C 271.856,231.872 274.856,233.372 277.5,235.5C 286.86,244.194 295.86,253.194 304.5,262.5C 308.187,264.789 312.187,265.123 316.5,263.5C 317.167,263.833 317.833,264.167 318.5,264.5C 314.037,273.376 307.371,275.543 298.5,271C 288.833,262.667 279.833,253.667 271.5,244C 261.699,240.534 255.865,233.7 254,223.5C 253.333,218.5 253.333,213.5 254,208.5C 254.232,207.263 254.732,206.263 255.5,205.5 Z"/></g>
<g><path style="opacity:1" fill="#f6eff4" d="M 324.5,252.5 C 325.376,252.369 326.043,252.702 326.5,253.5C 325.666,258.186 322.999,260.352 318.5,260C 317.549,259.282 317.383,258.449 318,257.5C 320.352,255.97 322.519,254.303 324.5,252.5 Z"/></g>
<g><path style="opacity:1" fill="#f5eef2" d="M 313.5,253.5 C 314.477,256.287 314.81,259.287 314.5,262.5C 311.436,262.856 308.769,262.023 306.5,260C 308.729,257.6 311.063,255.433 313.5,253.5 Z"/></g>
<g><path style="opacity:1" fill="#f3eef0" d="M 306.5,248.5 C 307.573,257.427 304.907,258.593 298.5,252C 301.476,251.295 304.142,250.129 306.5,248.5 Z"/></g>
<g><path style="opacity:1" fill="#f0e8ed" d="M 322.5,243.5 C 323.247,246.391 322.247,248.891 319.5,251C 317.165,251.507 315.165,250.84 313.5,249C 316.865,247.656 319.865,245.823 322.5,243.5 Z"/></g>
<g><path style="opacity:1" fill="#e3d9db" d="M 289.5,243.5 C 291.948,242.527 294.615,242.194 297.5,242.5C 297.664,245.187 297.497,247.854 297,250.5C 294.63,247.961 292.13,245.628 289.5,243.5 Z"/></g>
<g><path style="opacity:1" fill="#27080a" d="M 266.5,215.5 C 265.499,216.789 265.666,218.122 267,219.5C 268.333,220.833 269.667,222.167 271,223.5C 271.464,222.906 271.631,222.239 271.5,221.5C 272.822,221.67 273.989,221.337 275,220.5C 275.483,221.448 275.649,222.448 275.5,223.5C 277.599,224.231 279.599,224.231 281.5,223.5C 278.833,221.833 278.833,220.167 281.5,218.5C 280.065,217.071 279.065,215.405 278.5,213.5C 278.818,212.353 279.484,211.519 280.5,211C 284.002,210.306 287.336,210.806 290.5,212.5C 288.777,214.868 288.11,217.534 288.5,220.5C 295.158,219.164 297.825,221.83 296.5,228.5C 298.144,228.714 299.644,228.38 301,227.5C 301.71,228.973 302.876,229.64 304.5,229.5C 304.201,231.604 304.534,233.604 305.5,235.5C 306.967,235.277 308.467,234.944 310,234.5C 314.217,237.4 315.55,241.4 314,246.5C 313.023,247.774 312.189,247.774 311.5,246.5C 312.833,244.167 312.833,241.833 311.5,239.5C 309.307,238.203 306.973,238.203 304.5,239.5C 304.624,240.107 304.957,240.44 305.5,240.5C 306.833,242.167 308.167,243.833 309.5,245.5C 305.511,242.359 301.345,239.359 297,236.5C 295.883,237.949 295.216,239.616 295,241.5C 294.25,240.874 293.416,240.374 292.5,240C 291.875,237.2 291.208,234.366 290.5,231.5C 287.702,232.953 284.702,233.953 281.5,234.5C 281.624,235.107 281.957,235.44 282.5,235.5C 284.167,237.833 286.167,239.833 288.5,241.5C 288.351,242.552 288.517,243.552 289,244.5C 295.206,249.853 300.373,255.853 304.5,262.5C 295.86,253.194 286.86,244.194 277.5,235.5C 274.871,232.369 272.038,229.369 269,226.5C 266.566,223.205 264.899,219.538 264,215.5C 264.801,208.21 265.134,200.877 265,193.5C 261.706,196.109 258.873,199.109 256.5,202.5C 257.532,196.801 260.865,193.468 266.5,192.5C 266.413,200.415 266.413,208.082 266.5,215.5 Z"/></g>
<g><path style="opacity:1" fill="#91742a" d="M 311.5,239.5 C 312.833,241.833 312.833,244.167 311.5,246.5C 310.833,246.5 310.5,246.167 310.5,245.5C 311.461,243.735 311.795,241.735 311.5,239.5 Z"/></g>
<g><path style="opacity:1" fill="#e7d030" d="M 311.5,239.5 C 311.795,241.735 311.461,243.735 310.5,245.5C 310.167,245.5 309.833,245.5 309.5,245.5C 308.167,243.833 306.833,242.167 305.5,240.5C 307.265,239.539 309.265,239.205 311.5,239.5 Z"/></g>
<g><path style="opacity:1" fill="#634919" d="M 311.5,239.5 C 309.265,239.205 307.265,239.539 305.5,240.5C 304.957,240.44 304.624,240.107 304.5,239.5C 306.973,238.203 309.307,238.203 311.5,239.5 Z"/></g>
<g><path style="opacity:1" fill="#e4cf3c" d="M 296.5,231.5 C 298.607,230.532 300.941,230.198 303.5,230.5C 303.808,232.924 303.474,235.257 302.5,237.5C 300.493,235.467 298.493,233.467 296.5,231.5 Z"/></g>
<g><path style="opacity:1" fill="#f2ecf0" d="M 288.5,241.5 C 286.167,239.833 284.167,237.833 282.5,235.5C 284.265,234.539 286.265,234.205 288.5,234.5C 288.5,236.833 288.5,239.167 288.5,241.5 Z"/></g>
<g><path style="opacity:1" fill="#eee7ea" d="M 273.5,226.5 C 280.005,224.174 282.171,226.507 280,233.5C 277.6,231.271 275.433,228.937 273.5,226.5 Z"/></g>
<g><path style="opacity:1" fill="#d5bc2f" d="M 288.5,221.5 C 290.861,221.674 293.194,222.007 295.5,222.5C 295.808,224.924 295.474,227.257 294.5,229.5C 292.007,227.17 290.007,224.503 288.5,221.5 Z"/></g>
<g><path style="opacity:1" fill="#f1eaec" d="M 266.5,215.5 C 270.446,215.488 272.113,217.488 271.5,221.5C 271.631,222.239 271.464,222.906 271,223.5C 269.667,222.167 268.333,220.833 267,219.5C 265.666,218.122 265.499,216.789 266.5,215.5 Z"/></g>
<g><path style="opacity:1" fill="#d2bd35" d="M 280.5,212.5 C 282.5,212.5 284.5,212.5 286.5,212.5C 286.664,215.187 286.497,217.854 286,220.5C 283.139,218.483 281.305,215.817 280.5,212.5 Z"/></g>
<g><path style="opacity:1" fill="#f4a519" d="M 277.5,235.5 C 274.856,233.372 271.856,231.872 268.5,231C 260.828,224.155 256.494,215.655 255.5,205.5C 255.557,204.391 255.89,203.391 256.5,202.5C 258.873,199.109 261.706,196.109 265,193.5C 265.134,200.877 264.801,208.21 264,215.5C 264.899,219.538 266.566,223.205 269,226.5C 272.038,229.369 274.871,232.369 277.5,235.5 Z"/></g>
<g><path style="opacity:1" fill="#ece5e9" d="M 283.5,187.5 C 285.527,187.338 287.527,187.505 289.5,188C 288.268,190.975 286.434,193.475 284,195.5C 278.705,192.719 278.538,190.052 283.5,187.5 Z"/></g>
<g><path style="opacity:1" fill="#3b0e0b" d="M 360.5,171.5 C 361.006,175.007 360.34,178.174 358.5,181C 352.514,180.76 346.514,180.76 340.5,181C 341.938,181.219 343.271,181.719 344.5,182.5C 344.376,183.107 344.043,183.44 343.5,183.5C 342.378,182.844 341.045,182.511 339.5,182.5C 337.667,182.585 336.334,183.252 335.5,184.5C 334.732,183.737 334.232,182.737 334,181.5C 321.243,182.763 308.41,183.763 295.5,184.5C 288.099,185.842 280.766,187.509 273.5,189.5C 266.285,187.968 259.285,188.635 252.5,191.5C 250.817,192.853 249.484,194.52 248.5,196.5C 249.993,197.141 250.993,198.141 251.5,199.5C 248.098,199.342 244.764,199.676 241.5,200.5C 242.343,198.827 243.676,197.66 245.5,197C 244.167,196.333 242.833,195.667 241.5,195C 248.093,190.351 255.426,187.851 263.5,187.5C 267.24,187.241 270.906,187.574 274.5,188.5C 281.12,185.828 287.787,183.828 294.5,182.5C 295.167,182.5 295.833,182.5 296.5,182.5C 312.891,182.349 329.224,181.349 345.5,179.5C 348.532,179.597 351.532,179.931 354.5,180.5C 357.865,179.453 359.532,177.119 359.5,173.5C 359.328,172.508 359.662,171.842 360.5,171.5 Z"/></g>
<g><path style="opacity:1" fill="#e9e1e6" d="M 296.5,185.5 C 298.604,185.201 300.604,185.534 302.5,186.5C 300.833,189.167 299.167,191.833 297.5,194.5C 295.095,192.358 293.762,189.691 293.5,186.5C 294.791,186.737 295.791,186.404 296.5,185.5 Z"/></g>
<g><path style="opacity:1" fill="#f2ebee" d="M 307.5,185.5 C 310.167,185.5 312.833,185.5 315.5,185.5C 314.096,195.549 311.429,195.549 307.5,185.5 Z"/></g>
<g><path style="opacity:1" fill="#dfd7dc" d="M 323.5,183.5 C 325.857,183.337 328.19,183.503 330.5,184C 329.521,186.137 328.188,187.971 326.5,189.5C 324.684,188.185 323.017,186.685 321.5,185C 322.416,184.722 323.082,184.222 323.5,183.5 Z"/></g>
<g><path style="opacity:1" fill="#f7f2f5" d="M 349.5,182.5 C 352.712,182.106 355.046,183.272 356.5,186C 355.23,190.107 352.564,192.607 348.5,193.5C 349.114,189.865 349.448,186.198 349.5,182.5 Z"/></g>
<g><path style="opacity:1" fill="#f8f5f6" d="M 343.5,183.5 C 342.239,189.432 338.906,192.766 333.5,193.5C 334.933,190.667 335.6,187.667 335.5,184.5C 336.334,183.252 337.667,182.585 339.5,182.5C 341.045,182.511 342.378,182.844 343.5,183.5 Z"/></g>
<g><path style="opacity:1" fill="#f7a616" d="M 294.5,182.5 C 287.787,183.828 281.12,185.828 274.5,188.5C 270.906,187.574 267.24,187.241 263.5,187.5C 263.389,186.883 263.056,186.383 262.5,186C 272.502,178.888 283.168,177.722 294.5,182.5 Z"/></g>
<g><path style="opacity:1" fill="#d97231" d="M 358.5,173.5 C 358.833,173.5 359.167,173.5 359.5,173.5C 359.532,177.119 357.865,179.453 354.5,180.5C 351.532,179.931 348.532,179.597 345.5,179.5C 329.224,181.349 312.891,182.349 296.5,182.5C 296.611,181.883 296.944,181.383 297.5,181C 317.247,181.008 336.914,179.841 356.5,177.5C 357.18,176.14 357.847,174.807 358.5,173.5 Z"/></g>
<g><path style="opacity:1" fill="#340b03" d="M 136.5,171.5 C 130.757,183.098 125.424,194.765 120.5,206.5C 123.433,193.64 128.767,181.973 136.5,171.5 Z"/></g>
<g><path style="opacity:1" fill="#dd722a" d="M 158.5,170.5 C 161.322,170.678 163.989,171.345 166.5,172.5C 168.524,171.979 170.524,171.812 172.5,172C 171.672,172.915 170.672,173.581 169.5,174C 174.67,174.797 179.836,175.63 185,176.5C 188.928,176.253 192.594,175.919 196,175.5C 196.49,176.793 196.657,178.127 196.5,179.5C 192.806,180.508 189.139,181.675 185.5,183C 187.271,183.535 187.604,184.369 186.5,185.5C 183.84,184.297 181.173,184.297 178.5,185.5C 182.659,182.251 187.326,179.751 192.5,178C 185.833,177.667 179.167,177.333 172.5,177C 167.12,176.14 162.453,173.974 158.5,170.5 Z"/></g>
<g><path style="opacity:1" fill="#cd913c" d="M 193.5,315.5 C 200.847,323.353 207.68,331.687 214,340.5C 216.978,344.76 218.312,349.427 218,354.5C 217.33,351.826 216.163,349.493 214.5,347.5C 213.955,345.407 213.122,343.407 212,341.5C 205.977,333.32 199.81,325.32 193.5,317.5C 193.5,316.833 193.5,316.167 193.5,315.5 Z"/></g>
<g><path style="opacity:1" fill="#e67422" d="M 338.5,326.5 C 324.575,333.593 311.575,342.093 299.5,352C 298.5,352.667 297.5,352.667 296.5,352C 295.792,349.411 294.459,347.245 292.5,345.5C 288.808,351.564 285.141,357.564 281.5,363.5C 281.335,360.15 281.502,356.817 282,353.5C 286.699,348.072 289.033,341.738 289,334.5C 293.167,337.501 295.834,341.501 297,346.5C 299.664,345.002 301.83,343.002 303.5,340.5C 312.942,333.603 322.942,327.437 333.5,322C 336.721,321.523 338.388,323.023 338.5,326.5 Z"/></g>
<g><path style="opacity:1" fill="#d49125" d="M 230.5,333.5 C 232.025,336.079 233.359,338.746 234.5,341.5C 234.665,344.85 234.498,348.183 234,351.5C 233.722,352.416 233.222,353.082 232.5,353.5C 232.871,346.681 232.205,340.014 230.5,333.5 Z"/></g>
<g><path style="opacity:1" fill="#22030f" d="M 228.5,322.5 C 231.833,325.167 234.833,328.167 237.5,331.5C 238.864,334.668 239.697,338.001 240,341.5C 240.414,341.957 240.914,342.291 241.5,342.5C 242.492,346.783 242.826,351.116 242.5,355.5C 241.325,355.719 240.325,355.386 239.5,354.5C 237.424,350.77 236.257,346.77 236,342.5C 235.617,341.944 235.117,341.611 234.5,341.5C 233.359,338.746 232.025,336.079 230.5,333.5C 229.099,330.366 227.432,327.366 225.5,324.5C 225.821,322.952 226.821,322.285 228.5,322.5 Z"/></g>
<g><path style="opacity:1" fill="#26060b" d="M 299.5,335.5 C 304.016,334.319 308.35,332.653 312.5,330.5C 312.719,331.675 312.386,332.675 311.5,333.5C 308.124,335.221 305.457,337.554 303.5,340.5C 301.83,343.002 299.664,345.002 297,346.5C 295.834,341.501 293.167,337.501 289,334.5C 289.033,341.738 286.699,348.072 282,353.5C 281.502,356.817 281.335,360.15 281.5,363.5C 281.735,364.097 282.235,364.43 283,364.5C 304.693,358.242 323.527,347.242 339.5,331.5C 340.666,329.833 340.666,328.166 339.5,326.5C 341.216,327.574 342.216,329.241 342.5,331.5C 341.975,332.192 341.308,332.692 340.5,333C 342.81,333.497 345.143,333.663 347.5,333.5C 330.214,352.816 308.881,365.483 283.5,371.5C 283.918,370.778 284.584,370.278 285.5,370C 283.975,368.991 282.308,368.491 280.5,368.5C 280.777,363.767 280.443,359.1 279.5,354.5C 281.301,351.465 281.968,348.131 281.5,344.5C 280.5,344.5 279.5,344.5 278.5,344.5C 278.5,341.167 278.5,337.833 278.5,334.5C 277.5,334.5 276.5,334.5 275.5,334.5C 275.492,331.455 275.159,328.455 274.5,325.5C 276.136,326.749 277.303,328.416 278,330.5C 279.156,334.123 280.156,337.789 281,341.5C 281.545,334.733 281.212,328.067 280,321.5C 287.822,324.512 294.322,329.179 299.5,335.5 Z"/></g>
<g><path style="opacity:1" fill="#f8a611" d="M 338.5,326.5 C 338.833,326.5 339.167,326.5 339.5,326.5C 340.666,328.166 340.666,329.833 339.5,331.5C 323.527,347.242 304.693,358.242 283,364.5C 282.235,364.43 281.735,364.097 281.5,363.5C 285.141,357.564 288.808,351.564 292.5,345.5C 294.459,347.245 295.792,349.411 296.5,352C 297.5,352.667 298.5,352.667 299.5,352C 311.575,342.093 324.575,333.593 338.5,326.5 Z"/></g>
<g><path style="opacity:1" fill="#e19b2a" d="M 252.5,355.5 C 249.998,360.851 246.331,365.184 241.5,368.5C 240.761,368.631 240.094,368.464 239.5,368C 249.629,358.65 252.462,347.483 248,334.5C 250.092,344.432 248.092,353.432 242,361.5C 243.005,356.964 243.839,352.297 244.5,347.5C 244.298,344.361 243.631,341.361 242.5,338.5C 243.586,338.62 244.253,339.287 244.5,340.5C 245,342.5 245.5,344.5 246,346.5C 246.172,341.798 246.672,337.132 247.5,332.5C 248.086,332.291 248.586,331.957 249,331.5C 251.389,338.555 251.889,345.721 250.5,353C 250.684,354.376 251.351,355.209 252.5,355.5 Z"/></g>
<g><path style="opacity:1" fill="#d93010" d="M 359.5,342.5 C 353.494,351.822 347.16,360.822 340.5,369.5C 340.5,368.5 340.5,367.5 340.5,366.5C 337.452,366.506 336.952,365.506 339,363.5C 339.71,364.973 340.876,365.64 342.5,365.5C 342.357,363.738 342.691,362.071 343.5,360.5C 343,360.167 342.5,359.833 342,359.5C 340.269,360.741 338.436,361.741 336.5,362.5C 344.405,356.1 351.905,349.1 359,341.5C 359.399,341.728 359.565,342.062 359.5,342.5 Z"/></g>
<g><path style="opacity:1" fill="#cd2e13" d="M 169.5,368.5 C 170.11,369.391 170.443,370.391 170.5,371.5C 169.312,370.316 168.145,370.316 167,371.5C 166.667,369.833 166.333,368.167 166,366.5C 162.016,362.866 157.682,359.533 153,356.5C 153.429,359.171 154.263,361.838 155.5,364.5C 149.932,358.457 145.265,351.79 141.5,344.5C 141.435,344.062 141.601,343.728 142,343.5C 151.089,352.097 160.255,360.43 169.5,368.5 Z"/></g>
<g><path style="opacity:1" fill="#3f1203" d="M 252.5,355.5 C 252.663,360.356 250.663,364.522 246.5,368C 247.793,368.49 249.127,368.657 250.5,368.5C 247.656,369.551 244.656,369.551 241.5,368.5C 246.331,365.184 249.998,360.851 252.5,355.5 Z"/></g>
<g><path style="opacity:1" fill="#2e0905" d="M 237.5,331.5 C 239.584,333.576 241.251,335.91 242.5,338.5C 243.631,341.361 244.298,344.361 244.5,347.5C 243.839,352.297 243.005,356.964 242,361.5C 248.092,353.432 250.092,344.432 248,334.5C 252.462,347.483 249.629,358.65 239.5,368C 240.094,368.464 240.761,368.631 241.5,368.5C 240.791,369.404 239.791,369.737 238.5,369.5C 238.238,368.022 238.571,366.689 239.5,365.5C 242.131,363.995 241.797,363.329 238.5,363.5C 238.112,360.121 237.445,356.788 236.5,353.5C 235.378,354.63 234.044,355.297 232.5,355.5C 232.5,354.833 232.5,354.167 232.5,353.5C 233.222,353.082 233.722,352.416 234,351.5C 234.498,348.183 234.665,344.85 234.5,341.5C 235.117,341.611 235.617,341.944 236,342.5C 236.257,346.77 237.424,350.77 239.5,354.5C 240.325,355.386 241.325,355.719 242.5,355.5C 242.826,351.116 242.492,346.783 241.5,342.5C 240.914,342.291 240.414,341.957 240,341.5C 239.697,338.001 238.864,334.668 237.5,331.5 Z"/></g>
<g><path style="opacity:1" fill="#f12d06" d="M 170.5,371.5 C 178.298,379.798 186.298,387.965 194.5,396C 202.128,401.96 209.462,408.293 216.5,415C 225.911,421.029 235.244,427.029 244.5,433C 246.833,433.667 249.167,433.667 251.5,433C 260.382,428.396 269.049,423.563 277.5,418.5C 278.833,418.5 280.167,418.5 281.5,418.5C 282.702,415.944 284.369,413.611 286.5,411.5C 293.062,407.61 298.729,402.61 303.5,396.5C 306.938,394.241 310.271,391.741 313.5,389C 314.337,387.989 314.67,386.822 314.5,385.5C 321.214,381.12 326.548,375.453 330.5,368.5C 331.522,365.478 333.522,363.478 336.5,362.5C 338.436,361.741 340.269,360.741 342,359.5C 342.5,359.833 343,360.167 343.5,360.5C 342.691,362.071 342.357,363.738 342.5,365.5C 340.876,365.64 339.71,364.973 339,363.5C 336.952,365.506 337.452,366.506 340.5,366.5C 340.5,367.5 340.5,368.5 340.5,369.5C 320.242,394.921 296.575,416.754 269.5,435C 264.262,437.747 258.928,440.247 253.5,442.5C 250.482,442.665 247.482,442.498 244.5,442C 242.027,439.453 239.027,437.953 235.5,437.5C 229.391,434.276 223.391,430.776 217.5,427C 208.125,418.623 198.458,410.623 188.5,403C 176.203,391.208 165.203,378.375 155.5,364.5C 154.263,361.838 153.429,359.171 153,356.5C 157.682,359.533 162.016,362.866 166,366.5C 166.333,368.167 166.667,369.833 167,371.5C 168.145,370.316 169.312,370.316 170.5,371.5 Z"/></g>
<g><path style="opacity:1" fill="#bb290e" d="M 286.5,411.5 C 284.369,413.611 282.702,415.944 281.5,418.5C 280.167,418.5 278.833,418.5 277.5,418.5C 279.879,415.465 282.879,413.131 286.5,411.5 Z"/></g>
<g><path style="opacity:1" fill="#aa2710" d="M 303.5,396.5 C 298.729,402.61 293.062,407.61 286.5,411.5C 291.864,406.135 297.531,401.135 303.5,396.5 Z"/></g>
<g><path style="opacity:1" fill="#ad2910" d="M 314.5,385.5 C 314.67,386.822 314.337,387.989 313.5,389C 310.271,391.741 306.938,394.241 303.5,396.5C 306.833,392.5 310.5,388.833 314.5,385.5 Z"/></g>
<g><path style="opacity:1" fill="#b32a12" d="M 330.5,368.5 C 326.548,375.453 321.214,381.12 314.5,385.5C 318.542,381.46 322.209,377.127 325.5,372.5C 327.167,371.167 328.833,369.833 330.5,368.5 Z"/></g>
<g><path style="opacity:1" fill="#060001" d="M 325.5,372.5 C 322.209,377.127 318.542,381.46 314.5,385.5C 310.5,388.833 306.833,392.5 303.5,396.5C 297.531,401.135 291.864,406.135 286.5,411.5C 282.879,413.131 279.879,415.465 277.5,418.5C 269.049,423.563 260.382,428.396 251.5,433C 249.167,433.667 246.833,433.667 244.5,433C 235.244,427.029 225.911,421.029 216.5,415C 209.462,408.293 202.128,401.96 194.5,396C 186.298,387.965 178.298,379.798 170.5,371.5C 170.443,370.391 170.11,369.391 169.5,368.5C 169.281,367.325 169.614,366.325 170.5,365.5C 171.382,366.76 172.382,367.926 173.5,369C 178.185,370.667 182.852,372.333 187.5,374C 186.359,374.741 186.359,375.575 187.5,376.5C 201.196,381.717 215.196,385.884 229.5,389C 243.526,389.763 257.526,389.429 271.5,388C 279.314,387.116 285.981,384.949 291.5,381.5C 293.224,382.661 294.89,382.495 296.5,381C 296.167,380.667 295.833,380.333 295.5,380C 300.236,379.316 304.903,378.316 309.5,377C 311.037,375.89 311.703,374.39 311.5,372.5C 313.2,372.626 314.7,373.293 316,374.5C 318.639,373.346 321.139,372.012 323.5,370.5C 324.713,370.747 325.38,371.414 325.5,372.5 Z"/></g>
<g><path style="opacity:1" fill="#af7015" d="M 227.5,381.5 C 238.815,382.294 250.148,382.627 261.5,382.5C 257.18,383.166 252.68,383.499 248,383.5C 240.936,383.661 234.103,382.994 227.5,381.5 Z"/></g>
<g><path style="opacity:1" fill="#300b02" d="M 207.5,369.5 C 211.201,370.35 214.868,370.35 218.5,369.5C 221.717,371.137 225.05,372.47 228.5,373.5C 245.55,374.878 262.55,374.545 279.5,372.5C 273.851,374.777 267.851,375.944 261.5,376C 242.801,378.203 224.801,376.037 207.5,369.5 Z"/></g>
<g><path style="opacity:1" fill="#aa260f" d="M 235.5,437.5 C 239.027,437.953 242.027,439.453 244.5,442C 247.482,442.498 250.482,442.665 253.5,442.5C 251.205,444.385 248.538,444.885 245.5,444C 243.044,442.289 240.377,440.956 237.5,440C 236.619,439.292 235.953,438.458 235.5,437.5 Z"/></g>
</svg>
