<?xml version="1.0" encoding="UTF-8"?>
<!DOCTYPE svg PUBLIC "-//W3C//DTD SVG 1.1//EN" "http://www.w3.org/Graphics/SVG/1.1/DTD/svg11.dtd">
<svg xmlns="http://www.w3.org/2000/svg" version="1.1" width="500px" height="500px" style="shape-rendering:geometricPrecision; text-rendering:geometricPrecision; image-rendering:optimizeQuality; fill-rule:evenodd; clip-rule:evenodd" xmlns:xlink="http://www.w3.org/1999/xlink">
<g><path style="opacity:1" fill="#020302" d="M 367.5,343.5 C 368.811,339.674 371.144,336.507 374.5,334C 374.167,333.667 373.833,333.333 373.5,333C 374.552,331.881 375.719,331.381 377,331.5C 377.292,329.674 377.125,327.841 376.5,326C 377.418,323.914 378.085,321.747 378.5,319.5C 380.226,317.18 380.893,314.513 380.5,311.5C 380.414,310.504 380.748,309.671 381.5,309C 380.167,308.667 378.833,308.333 377.5,308C 379.02,305.448 378.687,303.282 376.5,301.5C 375.107,297.49 373.607,293.49 372,289.5C 367.422,288.126 363.255,286.126 359.5,283.5C 358.432,282.566 357.099,282.232 355.5,282.5C 355.116,280.335 355.783,278.668 357.5,277.5C 360.521,279.423 363.854,280.423 367.5,280.5C 371.144,280.859 374.477,282.025 377.5,284C 378.282,286.672 379.282,289.172 380.5,291.5C 380.5,291.833 380.5,292.167 380.5,292.5C 381.03,294.924 381.864,297.257 383,299.5C 383.667,300.833 384.333,300.833 385,299.5C 392.281,285.292 398.114,270.626 402.5,255.5C 404.239,252.252 405.406,248.586 406,244.5C 406.595,236.835 407.095,229.168 407.5,221.5C 407.5,219.5 407.5,217.5 407.5,215.5C 408.232,214.192 409.066,212.858 410,211.5C 410.5,204.842 410.666,198.175 410.5,191.5C 410.5,189.167 410.5,186.833 410.5,184.5C 412.491,167.893 413.824,151.226 414.5,134.5C 413.325,134.281 412.325,134.614 411.5,135.5C 410.009,139.8 408.676,144.133 407.5,148.5C 407.5,148.833 407.5,149.167 407.5,149.5C 405.38,155.073 402.713,160.407 399.5,165.5C 382.502,182.499 363.502,196.832 342.5,208.5C 343.637,213.276 343.637,218.276 342.5,223.5C 341.18,225.463 339.846,227.463 338.5,229.5C 336.569,230.259 335.069,231.593 334,233.5C 333.943,231.09 332.776,229.756 330.5,229.5C 333.759,225.327 335.593,220.66 336,215.5C 334.883,213.876 333.383,212.876 331.5,212.5C 309.592,220.229 287.259,225.562 264.5,228.5C 251.829,228.333 239.162,228.5 226.5,229C 234.551,234.044 241.717,240.211 248,247.5C 249.861,249.888 251.194,252.554 252,255.5C 253.564,251.445 255.731,247.779 258.5,244.5C 265.216,238.286 272.383,232.619 280,227.5C 276.409,235.02 273.075,242.686 270,250.5C 275.067,245.775 280.901,242.275 287.5,240C 297.928,236.074 308.595,233.407 319.5,232C 317.399,238.299 314.899,244.465 312,250.5C 299.539,262.32 284.705,267.153 267.5,265C 262.358,263.101 257.025,262.267 251.5,262.5C 243.447,263.182 235.447,264.182 227.5,265.5C 213.474,265.567 201.641,260.567 192,250.5C 189.211,245.466 187.211,240.132 186,234.5C 184.833,233.333 183.667,232.167 182.5,231C 199.215,233.905 215.215,239.238 230.5,247C 231.667,248.167 232.833,249.333 234,250.5C 231.276,243.041 227.943,235.708 224,228.5C 223.329,227.748 222.496,227.414 221.5,227.5C 203.97,226.088 186.637,223.422 169.5,219.5C 169.167,219.833 168.833,220.167 168.5,220.5C 171.344,226.198 174.677,231.531 178.5,236.5C 179.5,237.833 180.5,239.167 181.5,240.5C 180.167,240.5 178.833,240.5 177.5,240.5C 177.57,247.554 180.237,253.387 185.5,258C 183.613,258.163 182.113,257.329 181,255.5C 181.667,257.5 182.333,259.5 183,261.5C 181.315,259.983 179.815,258.316 178.5,256.5C 177.758,258.108 177.591,259.775 178,261.5C 177.333,260.833 176.667,260.167 176,259.5C 176.048,261.926 175.881,264.259 175.5,266.5C 180.6,276.701 187.6,285.368 196.5,292.5C 198.316,294.137 200.316,295.637 202.5,297C 198.06,298.386 194.06,300.553 190.5,303.5C 193.349,309.198 196.182,314.864 199,320.5C 199.667,321.5 199.667,322.5 199,323.5C 198.392,321.934 197.558,320.6 196.5,319.5C 191.443,309.241 184.776,300.075 176.5,292C 172.751,292.192 169.084,293.025 165.5,294.5C 163.99,293.272 162.49,293.272 161,294.5C 159.272,293.648 159.105,292.648 160.5,291.5C 162.048,291.179 162.715,290.179 162.5,288.5C 165.636,289.021 167.97,288.021 169.5,285.5C 171.284,285.107 172.95,284.441 174.5,283.5C 175.686,282.295 175.686,280.961 174.5,279.5C 174.5,278.5 174.5,277.5 174.5,276.5C 168.601,276.718 162.934,275.884 157.5,274C 158.337,272.989 158.67,271.822 158.5,270.5C 162.328,271.498 165.994,271.498 169.5,270.5C 168.656,266.901 168.323,263.234 168.5,259.5C 169.295,256.577 170.628,253.91 172.5,251.5C 170.921,246.65 170.088,241.65 170,236.5C 165.363,230.894 162.029,224.561 160,217.5C 137.128,209.983 117.628,197.317 101.5,179.5C 100.488,178.128 99.4884,176.795 98.5,175.5C 96.6818,171.922 96.3485,168.255 97.5,164.5C 100.643,160.76 104.643,159.593 109.5,161C 116.446,163.806 123.112,167.139 129.5,171C 133.756,172.807 138.089,174.307 142.5,175.5C 145.105,176.592 147.938,177.259 151,177.5C 153.221,177.607 155.054,176.94 156.5,175.5C 157.117,175.389 157.617,175.056 158,174.5C 158.735,170.187 159.235,165.853 159.5,161.5C 161.719,152.092 163.053,142.425 163.5,132.5C 164.339,126.325 165.006,119.992 165.5,113.5C 166.038,110.811 166.705,108.144 167.5,105.5C 165.561,104.366 163.895,104.7 162.5,106.5C 136.167,115.833 109.833,125.167 83.5,134.5C 83.5,136.167 83.5,137.833 83.5,139.5C 83.1228,144.453 83.7895,149.119 85.5,153.5C 87.5511,176.832 89.5511,200.165 91.5,223.5C 91.7407,228.694 92.4074,233.694 93.5,238.5C 94.2745,242.814 94.9412,247.147 95.5,251.5C 95.7361,254.226 94.9028,256.559 93,258.5C 90.841,256.044 90.0077,256.71 90.5,260.5C 87.7302,251.482 85.8969,242.149 85,232.5C 81.6951,198.481 78.6951,164.481 76,130.5C 106.7,118.544 137.533,106.877 168.5,95.5C 185.744,45.21 220.077,27.0434 271.5,41C 278.914,43.8046 286.247,46.8046 293.5,50C 295,51.5 296.5,53 298,54.5C 306.181,66.863 313.848,79.5297 321,92.5C 354.662,104.772 388.162,117.105 421.5,129.5C 421.833,131.667 422.167,133.833 422.5,136C 419.787,167.178 416.954,198.344 414,229.5C 411.268,258.529 402.435,285.529 387.5,310.5C 388.575,313.438 388.741,316.438 388,319.5C 381.86,328.13 375.026,336.13 367.5,343.5 Z"/></g>
<g><path style="opacity:1" fill="#092407" d="M 192.5,97.5 C 195.146,99.4789 197.479,101.812 199.5,104.5C 199,104.833 198.5,105.167 198,105.5C 194.936,104.435 192.102,103.101 189.5,101.5C 193.186,101.87 194.186,100.537 192.5,97.5 Z"/></g>
<g><path style="opacity:1" fill="#05e74a" d="M 175.5,143.5 C 174.5,143.5 173.5,143.5 172.5,143.5C 174.12,128.36 176.12,113.36 178.5,98.5C 180.5,98.8333 182.5,99.1667 184.5,99.5C 186.05,100.441 187.716,101.107 189.5,101.5C 192.102,103.101 194.936,104.435 198,105.5C 198.5,105.167 199,104.833 199.5,104.5C 197.479,101.812 195.146,99.4789 192.5,97.5C 189.113,94.1168 186.113,90.4502 183.5,86.5C 191.057,71.111 202.724,59.9443 218.5,53C 223.149,51.537 227.815,51.3703 232.5,52.5C 224.385,69.6784 217.552,87.345 212,105.5C 211.771,122.52 211.105,139.52 210,156.5C 199.883,148.353 188.383,144.019 175.5,143.5 Z"/></g>
<g><path style="opacity:1" fill="#1ee043" d="M 367.5,118.5 C 368.681,120.067 370.347,120.901 372.5,121C 370.655,122.128 368.655,122.628 366.5,122.5C 355.847,119.338 345.347,115.671 335,111.5C 334.5,111.667 334,111.833 333.5,112C 341.925,116.213 350.259,120.379 358.5,124.5C 351,124.571 343.667,125.071 336.5,126C 334.98,123.404 334.147,120.571 334,117.5C 333.667,117.833 333.333,118.167 333,118.5C 332.647,115.848 331.48,113.848 329.5,112.5C 328.033,109.479 326.367,106.479 324.5,103.5C 325,103.167 325.5,102.833 326,102.5C 340.112,107.487 353.946,112.821 367.5,118.5 Z"/></g>
<g><path style="opacity:1" fill="#9fd235" d="M 165.5,113.5 C 165.006,119.992 164.339,126.325 163.5,132.5C 163.5,126.833 163.5,121.167 163.5,115.5C 162.167,115.5 160.833,115.5 159.5,115.5C 160.99,113.72 162.99,113.054 165.5,113.5 Z"/></g>
<g><path style="opacity:1" fill="#e4f4ae" d="M 165.5,113.5 C 162.99,113.054 160.99,113.72 159.5,115.5C 156.426,116.302 153.426,117.302 150.5,118.5C 149.791,117.596 148.791,117.263 147.5,117.5C 152.676,114.598 158.343,112.432 164.5,111C 165.38,109.644 165.714,108.144 165.5,106.5C 164.5,106.5 163.5,106.5 162.5,106.5C 163.895,104.7 165.561,104.366 167.5,105.5C 166.705,108.144 166.038,110.811 165.5,113.5 Z"/></g>
<g><path style="opacity:1" fill="#9ffb25" d="M 366.5,122.5 C 366.167,123.167 365.833,123.833 365.5,124.5C 364.5,124.5 363.5,124.5 362.5,124.5C 361.167,124.5 359.833,124.5 358.5,124.5C 350.259,120.379 341.925,116.213 333.5,112C 334,111.833 334.5,111.667 335,111.5C 345.347,115.671 355.847,119.338 366.5,122.5 Z"/></g>
<g><path style="opacity:1" fill="#23c54d" d="M 329.5,112.5 C 331.48,113.848 332.647,115.848 333,118.5C 333.333,118.167 333.667,117.833 334,117.5C 334.147,120.571 334.98,123.404 336.5,126C 343.667,125.071 351,124.571 358.5,124.5C 359.833,124.5 361.167,124.5 362.5,124.5C 353.745,126.716 344.745,127.882 335.5,128C 333.351,122.872 331.351,117.705 329.5,112.5 Z"/></g>
<g><path style="opacity:1" fill="#2ab248" d="M 367.5,118.5 C 371.325,119.074 374.991,120.241 378.5,122C 374.246,123.265 369.912,124.098 365.5,124.5C 365.833,123.833 366.167,123.167 366.5,122.5C 368.655,122.628 370.655,122.128 372.5,121C 370.347,120.901 368.681,120.067 367.5,118.5 Z"/></g>
<g><path style="opacity:1" fill="#aefd0c" d="M 159.5,161.5 C 159.235,165.853 158.735,170.187 158,174.5C 157.617,175.056 157.117,175.389 156.5,175.5C 151.833,175.5 147.167,175.5 142.5,175.5C 138.089,174.307 133.756,172.807 129.5,171C 123.112,167.139 116.446,163.806 109.5,161C 104.643,159.593 100.643,160.76 97.5,164.5C 97.5648,158.75 96.8981,153.083 95.5,147.5C 95.6082,146.558 95.9415,145.725 96.5,145C 110.114,138.406 123.78,131.906 137.5,125.5C 146.024,122.662 154.357,119.662 162.5,116.5C 162.679,118.954 162.013,121.121 160.5,123C 161.788,125.863 162.454,128.863 162.5,132C 160.785,141.76 159.785,151.594 159.5,161.5 Z"/></g>
<g><path style="opacity:1" fill="#b2f42e" d="M 159.5,115.5 C 160.833,115.5 162.167,115.5 163.5,115.5C 163.5,121.167 163.5,126.833 163.5,132.5C 163.053,142.425 161.719,152.092 159.5,161.5C 159.785,151.594 160.785,141.76 162.5,132C 162.454,128.863 161.788,125.863 160.5,123C 162.013,121.121 162.679,118.954 162.5,116.5C 154.357,119.662 146.024,122.662 137.5,125.5C 141.779,122.971 146.112,120.637 150.5,118.5C 153.426,117.302 156.426,116.302 159.5,115.5 Z"/></g>
<g><path style="opacity:1" fill="#b0f328" d="M 162.5,106.5 C 163.5,106.5 164.5,106.5 165.5,106.5C 165.714,108.144 165.38,109.644 164.5,111C 158.343,112.432 152.676,114.598 147.5,117.5C 128.309,124.771 108.976,131.438 89.5,137.5C 92.1228,169.561 95.1228,201.561 98.5,233.5C 99.5916,243.617 101.425,253.617 104,263.5C 108.423,276.257 113.59,288.59 119.5,300.5C 119.824,303.694 118.658,304.694 116,303.5C 106.686,287.041 99.8523,269.707 95.5,251.5C 94.9412,247.147 94.2745,242.814 93.5,238.5C 94.1083,233.056 93.4417,228.056 91.5,223.5C 89.5511,200.165 87.5511,176.832 85.5,153.5C 85.3104,148.63 84.6437,143.964 83.5,139.5C 83.5,137.833 83.5,136.167 83.5,134.5C 109.833,125.167 136.167,115.833 162.5,106.5 Z"/></g>
<g><path style="opacity:1" fill="#1ebb4c" d="M 184.5,99.5 C 182.5,99.1667 180.5,98.8333 178.5,98.5C 176.12,113.36 174.12,128.36 172.5,143.5C 173.5,143.5 174.5,143.5 175.5,143.5C 174.207,145.296 172.707,146.963 171,148.5C 171.686,132.364 173.686,116.364 177,100.5C 177.098,98.3807 177.931,96.714 179.5,95.5C 181.21,96.8872 182.877,98.2206 184.5,99.5 Z"/></g>
<g><path style="opacity:1" fill="#1a2d07" d="M 83.5,139.5 C 84.6437,143.964 85.3104,148.63 85.5,153.5C 83.7895,149.119 83.1228,144.453 83.5,139.5 Z"/></g>
<g><path style="opacity:1" fill="#fafdec" d="M 147.5,117.5 C 148.791,117.263 149.791,117.596 150.5,118.5C 146.112,120.637 141.779,122.971 137.5,125.5C 123.78,131.906 110.114,138.406 96.5,145C 95.9415,145.725 95.6082,146.558 95.5,147.5C 96.8981,153.083 97.5648,158.75 97.5,164.5C 96.3485,168.255 96.6818,171.922 98.5,175.5C 97.8568,186.476 98.8568,197.143 101.5,207.5C 101.5,209.167 101.5,210.833 101.5,212.5C 101.353,217.214 101.686,221.881 102.5,226.5C 102.666,232.176 102.499,237.843 102,243.5C 101.667,243.833 101.333,244.167 101,244.5C 100.758,240.57 99.9251,236.903 98.5,233.5C 95.1228,201.561 92.1228,169.561 89.5,137.5C 108.976,131.438 128.309,124.771 147.5,117.5 Z"/></g>
<g><path style="opacity:1" fill="#13de4a" d="M 410.5,184.5 C 409.883,184.611 409.383,184.944 409,185.5C 407.112,200.096 405.945,214.763 405.5,229.5C 405.152,238.25 404.152,246.917 402.5,255.5C 398.114,270.626 392.281,285.292 385,299.5C 384.333,300.833 383.667,300.833 383,299.5C 381.864,297.257 381.03,294.924 380.5,292.5C 380.833,292.5 381.167,292.5 381.5,292.5C 381.56,293.043 381.893,293.376 382.5,293.5C 383.719,292.737 384.719,291.737 385.5,290.5C 387.975,284.207 390.475,277.874 393,271.5C 394.011,270.663 395.178,270.33 396.5,270.5C 396.335,266.818 396.501,263.152 397,259.5C 397.333,260.833 397.667,262.167 398,263.5C 398.471,261.754 399.138,260.087 400,258.5C 401.331,241.842 402.665,225.175 404,208.5C 404.413,205.768 405.08,203.101 406,200.5C 406.391,187.615 407.224,174.781 408.5,162C 408.499,157.32 408.166,152.82 407.5,148.5C 408.676,144.133 410.009,139.8 411.5,135.5C 412.325,134.614 413.325,134.281 414.5,134.5C 413.824,151.226 412.491,167.893 410.5,184.5 Z"/></g>
<g><path style="opacity:1" fill="#07e848" d="M 399.5,165.5 C 399.423,199.374 395.923,233.04 389,266.5C 385.873,274.714 383.04,283.048 380.5,291.5C 379.282,289.172 378.282,286.672 377.5,284C 374.477,282.025 371.144,280.859 367.5,280.5C 363.216,278.695 358.882,276.862 354.5,275C 353.944,272.763 352.944,270.763 351.5,269C 347.219,268.202 343.219,268.702 339.5,270.5C 337.712,270.785 336.045,270.452 334.5,269.5C 335.439,265.235 335.772,260.902 335.5,256.5C 333.075,247.268 334.575,238.935 340,231.5C 341.707,229.091 342.54,226.425 342.5,223.5C 343.637,218.276 343.637,213.276 342.5,208.5C 363.502,196.832 382.502,182.499 399.5,165.5 Z"/></g>
<g><path style="opacity:1" fill="#aefd09" d="M 101.5,179.5 C 117.628,197.317 137.128,209.983 160,217.5C 162.029,224.561 165.363,230.894 170,236.5C 170.088,241.65 170.921,246.65 172.5,251.5C 170.628,253.91 169.295,256.577 168.5,259.5C 167.523,262.287 167.19,265.287 167.5,268.5C 162.334,267.574 157.334,267.574 152.5,268.5C 150.993,270.289 149.66,272.289 148.5,274.5C 141.167,277.5 133.833,280.5 126.5,283.5C 124.444,287.333 122.778,291.333 121.5,295.5C 117.741,288.653 114.741,281.32 112.5,273.5C 108.273,253.472 104.94,233.472 102.5,213.5C 102.5,212.833 102.167,212.5 101.5,212.5C 101.5,210.833 101.5,209.167 101.5,207.5C 101.116,200.146 100.45,192.813 99.5,185.5C 99.5391,183.048 100.206,181.048 101.5,179.5 Z"/></g>
<g><path style="opacity:1" fill="#35e930" d="M 407.5,148.5 C 408.166,152.82 408.499,157.32 408.5,162C 407.224,174.781 406.391,187.615 406,200.5C 405.08,203.101 404.413,205.768 404,208.5C 402.665,225.175 401.331,241.842 400,258.5C 399.138,260.087 398.471,261.754 398,263.5C 397.667,262.167 397.333,260.833 397,259.5C 396.501,263.152 396.335,266.818 396.5,270.5C 395.178,270.33 394.011,270.663 393,271.5C 390.475,277.874 387.975,284.207 385.5,290.5C 384.719,291.737 383.719,292.737 382.5,293.5C 381.893,293.376 381.56,293.043 381.5,292.5C 382.931,291.097 384.098,289.431 385,287.5C 388.023,278.765 391.356,270.099 395,261.5C 396.677,251.772 398.677,242.105 401,232.5C 402.796,204.795 404.963,177.128 407.5,149.5C 407.5,149.167 407.5,148.833 407.5,148.5 Z"/></g>
<g><path style="opacity:1" fill="#adfa0c" d="M 250.5,213.5 C 229.171,214.088 208.171,212.255 187.5,208C 182.672,206.9 182.506,205.733 187,204.5C 190.906,205.24 195.073,205.406 199.5,205C 194.816,200.332 189.482,199.499 183.5,202.5C 180.078,199.71 179.411,199.877 181.5,203C 178.953,203.067 176.786,203.901 175,205.5C 172.619,204.565 170.119,204.232 167.5,204.5C 148.856,199.349 132.856,189.849 119.5,176C 127.992,177.373 136.325,179.54 144.5,182.5C 145.678,183.999 147.345,184.999 149.5,185.5C 148.624,186.251 147.624,186.751 146.5,187C 158.406,187.581 170.073,189.415 181.5,192.5C 191.856,194.138 202.19,195.971 212.5,198C 222.638,199.085 232.638,198.418 242.5,196C 259.809,190.453 276.809,184.12 293.5,177C 323.543,163.775 353.543,150.775 383.5,138C 356.674,167.746 324.674,190.08 287.5,205C 275.468,209.258 263.135,212.092 250.5,213.5 Z"/></g>
<g><path style="opacity:1" fill="#8ebf28" d="M 142.5,175.5 C 147.167,175.5 151.833,175.5 156.5,175.5C 155.054,176.94 153.221,177.607 151,177.5C 147.938,177.259 145.105,176.592 142.5,175.5 Z"/></g>
<g><path style="opacity:1" fill="#a3de25" d="M 144.5,182.5 C 157.039,185.383 169.372,188.716 181.5,192.5C 170.073,189.415 158.406,187.581 146.5,187C 147.624,186.751 148.624,186.251 149.5,185.5C 147.345,184.999 145.678,183.999 144.5,182.5 Z"/></g>
<g><path style="opacity:1" fill="#abef1f" d="M 250.5,213.5 C 222.188,216.503 194.521,213.503 167.5,204.5C 170.119,204.232 172.619,204.565 175,205.5C 176.786,203.901 178.953,203.067 181.5,203C 179.411,199.877 180.078,199.71 183.5,202.5C 189.482,199.499 194.816,200.332 199.5,205C 195.073,205.406 190.906,205.24 187,204.5C 182.506,205.733 182.672,206.9 187.5,208C 208.171,212.255 229.171,214.088 250.5,213.5 Z"/></g>
<g><path style="opacity:1" fill="#ebfcb6" d="M 98.5,175.5 C 99.4884,176.795 100.488,178.128 101.5,179.5C 100.206,181.048 99.5391,183.048 99.5,185.5C 100.45,192.813 101.116,200.146 101.5,207.5C 98.8568,197.143 97.8568,186.476 98.5,175.5 Z"/></g>
<g><path style="opacity:1" fill="#1fcc54" d="M 410.5,184.5 C 410.5,186.833 410.5,189.167 410.5,191.5C 408.86,199.283 407.86,207.283 407.5,215.5C 407.5,217.5 407.5,219.5 407.5,221.5C 406.833,224.167 406.167,226.833 405.5,229.5C 405.945,214.763 407.112,200.096 409,185.5C 409.383,184.944 409.883,184.611 410.5,184.5 Z"/></g>
<g><path style="opacity:1" fill="#0b2309" d="M 410.5,191.5 C 410.666,198.175 410.5,204.842 410,211.5C 409.066,212.858 408.232,214.192 407.5,215.5C 407.86,207.283 408.86,199.283 410.5,191.5 Z"/></g>
<g><path style="opacity:1" fill="#f6f8f8" d="M 221.5,227.5 C 222.463,231.101 223.13,234.767 223.5,238.5C 212.96,235.409 202.293,232.576 191.5,230C 185.846,229.074 180.18,228.741 174.5,229C 176,230.5 177.5,232 179,233.5C 179.74,234.749 179.573,235.749 178.5,236.5C 174.677,231.531 171.344,226.198 168.5,220.5C 168.833,220.167 169.167,219.833 169.5,219.5C 186.637,223.422 203.97,226.088 221.5,227.5 Z"/></g>
<g><path style="opacity:1" fill="#b3c7d9" d="M 330.5,229.5 C 328.049,233.124 325.383,236.624 322.5,240C 323.793,240.49 325.127,240.657 326.5,240.5C 326.396,248.211 323.063,254.044 316.5,258C 318.862,257.911 321.028,257.078 323,255.5C 323.5,255.667 324,255.833 324.5,256C 323.5,257 322.5,258 321.5,259C 323.5,258.667 325.5,258.333 327.5,258C 325.5,260 323.5,262 321.5,264C 323.804,263.427 325.971,262.26 328,260.5C 328.167,260.833 328.333,261.167 328.5,261.5C 326.167,264.167 323.833,266.833 321.5,269.5C 321.667,269.833 321.833,270.167 322,270.5C 324,268.5 326,266.5 328,264.5C 328.667,265.5 328.667,266.5 328,267.5C 324.833,271.333 321.667,275.167 318.5,279C 319.28,280.073 319.113,281.24 318,282.5C 313.093,288.078 307.593,292.911 301.5,297C 302.056,297.383 302.389,297.883 302.5,298.5C 299.272,299.414 295.939,299.747 292.5,299.5C 293.167,298.5 293.833,297.5 294.5,296.5C 298.798,294.844 302.131,292.011 304.5,288C 302.857,282.574 300.691,277.407 298,272.5C 296.065,270.898 293.899,269.731 291.5,269C 284.85,268.001 278.183,267.667 271.5,268C 278.2,270.676 284.867,273.342 291.5,276C 288.668,277.908 289.001,278.741 292.5,278.5C 292.5,279.5 292.5,280.5 292.5,281.5C 289.572,282.637 289.238,283.97 291.5,285.5C 291.023,286.478 290.357,287.311 289.5,288C 290.738,287.923 291.738,288.089 292.5,288.5C 290.861,289.916 290.027,291.583 290,293.5C 291.707,291.963 293.207,290.296 294.5,288.5C 296.796,288.804 297.129,289.804 295.5,291.5C 292.45,293.549 290.117,296.216 288.5,299.5C 288.565,299.938 288.399,300.272 288,300.5C 284.924,299.712 281.758,299.212 278.5,299C 281.297,295.201 284.464,291.701 288,288.5C 288.667,287.833 288.667,287.167 288,286.5C 284.823,290.53 280.99,293.53 276.5,295.5C 270.462,292.399 264.295,289.399 258,286.5C 256.699,284.635 256.365,282.635 257,280.5C 258.796,277.073 260.963,273.906 263.5,271C 258.403,268.186 252.903,267.019 247,267.5C 241.085,267.643 235.252,268.31 229.5,269.5C 230.263,268.732 231.263,268.232 232.5,268C 223.4,266.762 214.733,267.929 206.5,271.5C 200.802,267.888 195.302,263.888 190,259.5C 186.86,253.225 184.027,246.891 181.5,240.5C 180.5,239.167 179.5,237.833 178.5,236.5C 179.573,235.749 179.74,234.749 179,233.5C 177.5,232 176,230.5 174.5,229C 180.18,228.741 185.846,229.074 191.5,230C 202.293,232.576 212.96,235.409 223.5,238.5C 223.13,234.767 222.463,231.101 221.5,227.5C 222.496,227.414 223.329,227.748 224,228.5C 227.943,235.708 231.276,243.041 234,250.5C 232.833,249.333 231.667,248.167 230.5,247C 215.215,239.238 199.215,233.905 182.5,231C 183.667,232.167 184.833,233.333 186,234.5C 187.211,240.132 189.211,245.466 192,250.5C 201.641,260.567 213.474,265.567 227.5,265.5C 235.447,264.182 243.447,263.182 251.5,262.5C 257.025,262.267 262.358,263.101 267.5,265C 284.705,267.153 299.539,262.32 312,250.5C 314.899,244.465 317.399,238.299 319.5,232C 308.595,233.407 297.928,236.074 287.5,240C 280.901,242.275 275.067,245.775 270,250.5C 273.075,242.686 276.409,235.02 280,227.5C 272.383,232.619 265.216,238.286 258.5,244.5C 259.463,237.845 263.129,232.678 269.5,229C 267.866,228.506 266.199,228.34 264.5,228.5C 287.259,225.562 309.592,220.229 331.5,212.5C 333.383,212.876 334.883,213.876 336,215.5C 335.593,220.66 333.759,225.327 330.5,229.5 Z"/></g>
<g><path style="opacity:1" fill="#e0fb97" d="M 101.5,212.5 C 102.167,212.5 102.5,212.833 102.5,213.5C 103.2,217.798 103.533,222.131 103.5,226.5C 103.167,226.5 102.833,226.5 102.5,226.5C 101.686,221.881 101.353,217.214 101.5,212.5 Z"/></g>
<g><path style="opacity:1" fill="#87b721" d="M 91.5,223.5 C 93.4417,228.056 94.1083,233.056 93.5,238.5C 92.4074,233.694 91.7407,228.694 91.5,223.5 Z"/></g>
<g><path style="opacity:1" fill="#f4f5f4" d="M 264.5,228.5 C 266.199,228.34 267.866,228.506 269.5,229C 263.129,232.678 259.463,237.845 258.5,244.5C 255.731,247.779 253.564,251.445 252,255.5C 251.194,252.554 249.861,249.888 248,247.5C 241.717,240.211 234.551,234.044 226.5,229C 239.162,228.5 251.829,228.333 264.5,228.5 Z"/></g>
<g><path style="opacity:1" fill="#18ca51" d="M 342.5,223.5 C 342.54,226.425 341.707,229.091 340,231.5C 334.575,238.935 333.075,247.268 335.5,256.5C 333.816,254.983 332.483,253.15 331.5,251C 333.109,246.335 333.942,241.501 334,236.5C 335.723,234.283 337.223,231.95 338.5,229.5C 339.846,227.463 341.18,225.463 342.5,223.5 Z"/></g>
<g><path style="opacity:1" fill="#0a2207" d="M 407.5,221.5 C 407.095,229.168 406.595,236.835 406,244.5C 405.406,248.586 404.239,252.252 402.5,255.5C 404.152,246.917 405.152,238.25 405.5,229.5C 406.167,226.833 406.833,224.167 407.5,221.5 Z"/></g>
<g><path style="opacity:1" fill="#f7fedc" d="M 102.5,226.5 C 102.833,226.5 103.167,226.5 103.5,226.5C 104.41,236.188 105.577,245.855 107,255.5C 108.155,261.837 109.988,267.837 112.5,273.5C 114.741,281.32 117.741,288.653 121.5,295.5C 121.5,295.833 121.5,296.167 121.5,296.5C 121.011,297.995 120.345,299.329 119.5,300.5C 113.59,288.59 108.423,276.257 104,263.5C 101.425,253.617 99.5916,243.617 98.5,233.5C 99.9251,236.903 100.758,240.57 101,244.5C 101.333,244.167 101.667,243.833 102,243.5C 102.499,237.843 102.666,232.176 102.5,226.5 Z"/></g>
<g><path style="opacity:1" fill="#baf53f" d="M 102.5,213.5 C 104.94,233.472 108.273,253.472 112.5,273.5C 109.988,267.837 108.155,261.837 107,255.5C 105.577,245.855 104.41,236.188 103.5,226.5C 103.533,222.131 103.2,217.798 102.5,213.5 Z"/></g>
<g><path style="opacity:1" fill="#aaee1b" d="M 294.5,246.5 C 296.167,246.5 297.833,246.5 299.5,246.5C 299.85,254.985 295.85,258.818 287.5,258C 284.325,256.005 282.658,253.172 282.5,249.5C 286.761,249.102 290.761,248.102 294.5,246.5 Z"/></g>
<g><path style="opacity:1" fill="#acf31a" d="M 204.5,247.5 C 210.188,248.006 215.855,248.672 221.5,249.5C 219.301,258.942 214.134,260.942 206,255.5C 204.748,252.986 204.248,250.32 204.5,247.5 Z"/></g>
<g><path style="opacity:1" fill="#031402" d="M 367.5,280.5 C 363.854,280.423 360.521,279.423 357.5,277.5C 355.783,278.668 355.116,280.335 355.5,282.5C 357.099,282.232 358.432,282.566 359.5,283.5C 356.215,283.269 353.715,284.603 352,287.5C 351.86,285.744 352.36,284.078 353.5,282.5C 352.833,282.167 352.167,281.833 351.5,281.5C 350.287,281.747 349.62,282.414 349.5,283.5C 348.288,284.23 347.288,285.23 346.5,286.5C 346.167,286.167 345.833,285.833 345.5,285.5C 347.184,282.388 347.85,279.054 347.5,275.5C 349.167,275.5 350.833,275.5 352.5,275.5C 352.978,272.722 351.978,270.722 349.5,269.5C 346.242,270.417 342.909,270.751 339.5,270.5C 343.219,268.702 347.219,268.202 351.5,269C 352.944,270.763 353.944,272.763 354.5,275C 358.882,276.862 363.216,278.695 367.5,280.5 Z"/></g>
<g><path style="opacity:1" fill="#9ffe16" d="M 407.5,149.5 C 404.963,177.128 402.796,204.795 401,232.5C 398.677,242.105 396.677,251.772 395,261.5C 391.356,270.099 388.023,278.765 385,287.5C 384.098,289.431 382.931,291.097 381.5,292.5C 381.167,292.5 380.833,292.5 380.5,292.5C 380.5,292.167 380.5,291.833 380.5,291.5C 383.04,283.048 385.873,274.714 389,266.5C 395.923,233.04 399.423,199.374 399.5,165.5C 402.713,160.407 405.38,155.073 407.5,149.5 Z"/></g>
<g><path style="opacity:1" fill="#1db84b" d="M 347.5,275.5 C 347.85,279.054 347.184,282.388 345.5,285.5C 345.833,285.833 346.167,286.167 346.5,286.5C 347.288,285.23 348.288,284.23 349.5,283.5C 347.843,286.089 347.509,288.756 348.5,291.5C 341.634,288.933 334.801,286.267 328,283.5C 327.735,281.837 328.235,280.337 329.5,279C 331.74,278.023 334.073,277.523 336.5,277.5C 333.926,278.464 331.592,279.964 329.5,282C 333.354,283.729 337.354,285.229 341.5,286.5C 344.939,284.634 346.606,281.634 346.5,277.5C 343.5,277.5 340.5,277.5 337.5,277.5C 340.627,276.419 343.96,275.753 347.5,275.5 Z"/></g>
<g><path style="opacity:1" fill="#05e84a" d="M 336.5,277.5 C 336.833,277.5 337.167,277.5 337.5,277.5C 340.5,277.5 343.5,277.5 346.5,277.5C 346.606,281.634 344.939,284.634 341.5,286.5C 337.354,285.229 333.354,283.729 329.5,282C 331.592,279.964 333.926,278.464 336.5,277.5 Z"/></g>
<g><path style="opacity:1" fill="#0de04b" d="M 359.5,283.5 C 363.255,286.126 367.422,288.126 372,289.5C 373.607,293.49 375.107,297.49 376.5,301.5C 377.218,303.137 377.384,304.803 377,306.5C 374,309.5 371,312.5 368,315.5C 367.612,311.781 366.945,308.114 366,304.5C 360.829,299.147 354.996,294.814 348.5,291.5C 347.509,288.756 347.843,286.089 349.5,283.5C 349.62,282.414 350.287,281.747 351.5,281.5C 352.167,281.833 352.833,282.167 353.5,282.5C 352.36,284.078 351.86,285.744 352,287.5C 353.715,284.603 356.215,283.269 359.5,283.5 Z"/></g>
<g><path style="opacity:1" fill="#f8f8f8" d="M 181.5,240.5 C 184.027,246.891 186.86,253.225 190,259.5C 195.302,263.888 200.802,267.888 206.5,271.5C 203.305,276.569 200.972,282.069 199.5,288C 203.938,293.154 208.771,297.988 214,302.5C 214.667,301.833 214.667,301.167 214,300.5C 211.115,297.952 208.615,295.118 206.5,292C 206.833,291.5 207.167,291 207.5,290.5C 208.814,291.313 209.981,292.313 211,293.5C 211.167,293.167 211.333,292.833 211.5,292.5C 210.289,291.126 209.289,289.626 208.5,288C 209.102,286.437 209.935,286.604 211,288.5C 211.167,288.167 211.333,287.833 211.5,287.5C 208.71,284.078 208.877,283.411 212,285.5C 212.333,283.953 211.833,282.62 210.5,281.5C 212.003,281.165 213.336,281.165 214.5,281.5C 210.424,278.533 210.757,276.033 215.5,274C 220.095,272.198 224.762,270.698 229.5,269.5C 235.252,268.31 241.085,267.643 247,267.5C 252.903,267.019 258.403,268.186 263.5,271C 260.963,273.906 258.796,277.073 257,280.5C 256.365,282.635 256.699,284.635 258,286.5C 264.295,289.399 270.462,292.399 276.5,295.5C 280.99,293.53 284.823,290.53 288,286.5C 288.667,287.167 288.667,287.833 288,288.5C 284.464,291.701 281.297,295.201 278.5,299C 281.758,299.212 284.924,299.712 288,300.5C 288.399,300.272 288.565,299.938 288.5,299.5C 289.222,299.918 289.722,300.584 290,301.5C 290.708,300.619 291.542,299.953 292.5,299.5C 295.939,299.747 299.272,299.414 302.5,298.5C 306.957,299.062 310.957,300.729 314.5,303.5C 317.833,298.167 322.167,293.833 327.5,290.5C 332.618,292.898 337.451,294.898 342,296.5C 341.014,301.188 341.848,301.522 344.5,297.5C 344.833,297.833 345.167,298.167 345.5,298.5C 344.167,299.62 343.667,300.953 344,302.5C 345.171,300.384 346.671,299.718 348.5,300.5C 341.827,307.325 342.16,307.825 349.5,302C 350.167,301.333 350.833,301.333 351.5,302C 339.905,311.343 331.905,323.177 327.5,337.5C 326.504,337.414 325.671,337.748 325,338.5C 320.884,346.328 318.384,354.328 317.5,362.5C 316.503,366.488 315.503,370.488 314.5,374.5C 308.086,371.211 301.919,367.544 296,363.5C 295.975,360.083 295.808,356.75 295.5,353.5C 290.551,351.042 286.385,347.708 283,343.5C 263.31,356.431 243.477,356.764 223.5,344.5C 222.927,324.87 215.927,308.036 202.5,294C 200.655,292.872 198.655,292.372 196.5,292.5C 187.6,285.368 180.6,276.701 175.5,266.5C 175.881,264.259 176.048,261.926 176,259.5C 176.667,260.167 177.333,260.833 178,261.5C 177.591,259.775 177.758,258.108 178.5,256.5C 179.815,258.316 181.315,259.983 183,261.5C 182.333,259.5 181.667,257.5 181,255.5C 182.113,257.329 183.613,258.163 185.5,258C 180.237,253.387 177.57,247.554 177.5,240.5C 178.833,240.5 180.167,240.5 181.5,240.5 Z"/></g>
<g><path style="opacity:0.991" fill="#050806" d="M 330.5,229.5 C 332.776,229.756 333.943,231.09 334,233.5C 335.069,231.593 336.569,230.259 338.5,229.5C 337.223,231.95 335.723,234.283 334,236.5C 333.942,241.501 333.109,246.335 331.5,251C 332.483,253.15 333.816,254.983 335.5,256.5C 335.772,260.902 335.439,265.235 334.5,269.5C 336.045,270.452 337.712,270.785 339.5,270.5C 342.909,270.751 346.242,270.417 349.5,269.5C 351.978,270.722 352.978,272.722 352.5,275.5C 350.833,275.5 349.167,275.5 347.5,275.5C 343.96,275.753 340.627,276.419 337.5,277.5C 337.167,277.5 336.833,277.5 336.5,277.5C 334.073,277.523 331.74,278.023 329.5,279C 328.235,280.337 327.735,281.837 328,283.5C 334.801,286.267 341.634,288.933 348.5,291.5C 354.996,294.814 360.829,299.147 366,304.5C 366.945,308.114 367.612,311.781 368,315.5C 371,312.5 374,309.5 377,306.5C 377.384,304.803 377.218,303.137 376.5,301.5C 378.687,303.282 379.02,305.448 377.5,308C 378.833,308.333 380.167,308.667 381.5,309C 380.748,309.671 380.414,310.504 380.5,311.5C 379.849,310.909 379.182,310.243 378.5,309.5C 375.171,311.506 372.171,313.839 369.5,316.5C 368.504,316.414 367.671,316.748 367,317.5C 366.15,322.901 364.983,328.234 363.5,333.5C 363.733,334.932 364.4,335.432 365.5,335C 367.745,332.269 369.745,329.436 371.5,326.5C 374.194,324.473 376.527,322.139 378.5,319.5C 378.085,321.747 377.418,323.914 376.5,326C 377.125,327.841 377.292,329.674 377,331.5C 375.719,331.381 374.552,331.881 373.5,333C 373.833,333.333 374.167,333.667 374.5,334C 371.144,336.507 368.811,339.674 367.5,343.5C 363.203,348.298 358.703,352.965 354,357.5C 349.2,367.947 342.367,376.78 333.5,384C 328.249,387.084 322.915,387.251 317.5,384.5C 302.67,391.838 287.503,398.171 272,403.5C 271.626,404.416 271.126,405.25 270.5,406C 276.939,413.21 281.272,421.543 283.5,431C 281.228,445.488 276.394,458.988 269,471.5C 262.936,462.43 257.269,453.097 252,443.5C 241.275,454.227 228.941,462.561 215,468.5C 213.5,468.333 212.667,467.5 212.5,466C 214.852,454.207 217.018,442.374 219,430.5C 221.553,422.392 225.887,415.392 232,409.5C 231.094,405.241 228.594,402.074 224.5,400C 211.139,396.492 198.472,391.325 186.5,384.5C 176.981,388.172 169.148,385.839 163,377.5C 158.504,371.844 154.504,365.844 151,359.5C 137.351,347.146 125.351,333.479 115,318.5C 108.842,307.518 103.176,296.185 98,284.5C 94.7905,276.706 92.2905,268.706 90.5,260.5C 90.0077,256.71 90.841,256.044 93,258.5C 94.9028,256.559 95.7361,254.226 95.5,251.5C 99.8523,269.707 106.686,287.041 116,303.5C 118.658,304.694 119.824,303.694 119.5,300.5C 120.345,299.329 121.011,297.995 121.5,296.5C 122.837,295.685 123.837,294.518 124.5,293C 125.448,292.517 126.448,292.351 127.5,292.5C 125.95,297.386 124.95,302.386 124.5,307.5C 124.343,308.873 124.51,310.207 125,311.5C 127.102,313.095 128.602,315.095 129.5,317.5C 129.672,318.492 129.338,319.158 128.5,319.5C 126.521,318.188 124.855,316.521 123.5,314.5C 122.479,315.002 122.312,315.668 123,316.5C 128.522,324.201 134.522,331.534 141,338.5C 141.686,334.716 140.519,331.716 137.5,329.5C 138.469,321.252 138.802,312.918 138.5,304.5C 138.932,303.29 139.599,302.29 140.5,301.5C 141.338,301.158 141.672,300.492 141.5,299.5C 145.5,297.5 149.5,295.5 153.5,293.5C 155.833,292.833 158.167,292.167 160.5,291.5C 159.105,292.648 159.272,293.648 161,294.5C 162.49,293.272 163.99,293.272 165.5,294.5C 163.727,295.892 161.727,297.059 159.5,298C 160.056,298.383 160.389,298.883 160.5,299.5C 158.688,298.652 157.188,298.652 156,299.5C 155.383,300.449 155.549,301.282 156.5,302C 155.451,302.492 154.451,302.326 153.5,301.5C 152.328,301.919 151.328,302.585 150.5,303.5C 150.624,304.107 150.957,304.44 151.5,304.5C 159.577,310.751 166.077,318.417 171,327.5C 176.517,337.882 180.35,348.882 182.5,360.5C 182.333,361.833 182.167,363.167 182,364.5C 178.352,346.207 170.685,329.874 159,315.5C 155.799,311.964 152.299,308.797 148.5,306C 144.669,306.528 143.002,308.862 143.5,313C 146.985,337.486 156.985,358.819 173.5,377C 175.677,378.202 178.011,378.702 180.5,378.5C 181.429,374.873 182.263,371.207 183,367.5C 183.97,370.444 184.804,373.444 185.5,376.5C 192.488,373.341 199.154,369.674 205.5,365.5C 206.435,357.601 205.768,349.935 203.5,342.5C 203.212,339.134 203.046,335.8 203,332.5C 205.957,338.87 207.791,345.537 208.5,352.5C 213.963,351.046 217.963,347.713 220.5,342.5C 221.518,343.193 222.518,343.859 223.5,344.5C 243.477,356.764 263.31,356.431 283,343.5C 286.385,347.708 290.551,351.042 295.5,353.5C 295.808,356.75 295.975,360.083 296,363.5C 301.919,367.544 308.086,371.211 314.5,374.5C 315.503,370.488 316.503,366.488 317.5,362.5C 318.942,359.8 319.608,360.134 319.5,363.5C 318.535,367.809 318.369,372.143 319,376.5C 321.963,378.244 325.129,378.744 328.5,378C 338.306,369.249 345.806,358.749 351,346.5C 356.494,334.704 359.494,322.37 360,309.5C 358.71,307.208 357.043,305.208 355,303.5C 342.643,313.869 333.31,326.535 327,341.5C 326.421,340.072 326.588,338.738 327.5,337.5C 331.905,323.177 339.905,311.343 351.5,302C 350.833,301.333 350.167,301.333 349.5,302C 342.16,307.825 341.827,307.325 348.5,300.5C 346.671,299.718 345.171,300.384 344,302.5C 343.667,300.953 344.167,299.62 345.5,298.5C 345.167,298.167 344.833,297.833 344.5,297.5C 341.848,301.522 341.014,301.188 342,296.5C 337.451,294.898 332.618,292.898 327.5,290.5C 322.167,293.833 317.833,298.167 314.5,303.5C 310.957,300.729 306.957,299.062 302.5,298.5C 302.389,297.883 302.056,297.383 301.5,297C 307.593,292.911 313.093,288.078 318,282.5C 319.113,281.24 319.28,280.073 318.5,279C 321.667,275.167 324.833,271.333 328,267.5C 328.667,266.5 328.667,265.5 328,264.5C 326,266.5 324,268.5 322,270.5C 321.833,270.167 321.667,269.833 321.5,269.5C 323.833,266.833 326.167,264.167 328.5,261.5C 328.333,261.167 328.167,260.833 328,260.5C 325.971,262.26 323.804,263.427 321.5,264C 323.5,262 325.5,260 327.5,258C 325.5,258.333 323.5,258.667 321.5,259C 322.5,258 323.5,257 324.5,256C 324,255.833 323.5,255.667 323,255.5C 321.028,257.078 318.862,257.911 316.5,258C 323.063,254.044 326.396,248.211 326.5,240.5C 325.127,240.657 323.793,240.49 322.5,240C 325.383,236.624 328.049,233.124 330.5,229.5 Z"/></g>
<g><path style="opacity:1" fill="#686969" d="M 160.5,299.5 C 160.063,300.372 160.063,301.539 160.5,303C 159.672,303.915 158.672,304.581 157.5,305C 158.451,305.718 158.617,306.551 158,307.5C 156.225,304.847 154.058,303.847 151.5,304.5C 150.957,304.44 150.624,304.107 150.5,303.5C 151.328,302.585 152.328,301.919 153.5,301.5C 154.451,302.326 155.451,302.492 156.5,302C 155.549,301.282 155.383,300.449 156,299.5C 157.188,298.652 158.688,298.652 160.5,299.5 Z"/></g>
<g><path style="opacity:1" fill="#55606a" d="M 295.5,291.5 C 296.376,291.369 297.043,291.702 297.5,292.5C 296.476,293.852 295.476,295.185 294.5,296.5C 293.833,297.5 293.167,298.5 292.5,299.5C 291.542,299.953 290.708,300.619 290,301.5C 289.722,300.584 289.222,299.918 288.5,299.5C 290.117,296.216 292.45,293.549 295.5,291.5 Z"/></g>
<g><path style="opacity:1" fill="#080909" d="M 243.5,291.5 C 261.362,288.842 273.529,295.842 280,312.5C 282.798,330.009 275.965,341.842 259.5,348C 242,350.81 230.167,343.977 224,327.5C 221.355,310.451 227.855,298.451 243.5,291.5 Z"/></g>
<g><path style="opacity:1" fill="#f7f7f7" d="M 196.5,319.5 C 198.257,327.432 200.591,335.099 203.5,342.5C 205.768,349.935 206.435,357.601 205.5,365.5C 199.154,369.674 192.488,373.341 185.5,376.5C 184.804,373.444 183.97,370.444 183,367.5C 182.263,371.207 181.429,374.873 180.5,378.5C 178.011,378.702 175.677,378.202 173.5,377C 156.985,358.819 146.985,337.486 143.5,313C 143.002,308.862 144.669,306.528 148.5,306C 152.299,308.797 155.799,311.964 159,315.5C 170.685,329.874 178.352,346.207 182,364.5C 182.167,363.167 182.333,361.833 182.5,360.5C 180.35,348.882 176.517,337.882 171,327.5C 166.077,318.417 159.577,310.751 151.5,304.5C 154.058,303.847 156.225,304.847 158,307.5C 158.617,306.551 158.451,305.718 157.5,305C 158.672,304.581 159.672,303.915 160.5,303C 160.063,301.539 160.063,300.372 160.5,299.5C 160.389,298.883 160.056,298.383 159.5,298C 161.727,297.059 163.727,295.892 165.5,294.5C 169.084,293.025 172.751,292.192 176.5,292C 184.776,300.075 191.443,309.241 196.5,319.5 Z"/></g>
<g><path style="opacity:1" fill="#10de4c" d="M 153.5,293.5 C 149.5,295.5 145.5,297.5 141.5,299.5C 138.921,296.416 136.087,293.416 133,290.5C 132.383,289.551 132.549,288.718 133.5,288C 138.833,286 144.167,284 149.5,282C 154.663,281.752 158.663,283.919 161.5,288.5C 158.723,290.179 156.056,291.845 153.5,293.5 Z"/></g>
<g><path style="opacity:1" fill="#5e6770" d="M 292.5,281.5 C 294.927,282.279 294.927,283.446 292.5,285C 293.167,285.333 293.833,285.667 294.5,286C 293.226,286.977 293.226,287.811 294.5,288.5C 293.207,290.296 291.707,291.963 290,293.5C 290.027,291.583 290.861,289.916 292.5,288.5C 291.738,288.089 290.738,287.923 289.5,288C 290.357,287.311 291.023,286.478 291.5,285.5C 289.238,283.97 289.572,282.637 292.5,281.5 Z"/></g>
<g><path style="opacity:1" fill="#0fe34d" d="M 174.5,283.5 C 172.95,284.441 171.284,285.107 169.5,285.5C 167.844,286.146 166.177,286.813 164.5,287.5C 162.37,285.918 160.703,283.918 159.5,281.5C 159.586,280.504 159.252,279.671 158.5,279C 163.257,278.19 167.924,278.524 172.5,280C 173.823,280.816 174.489,281.983 174.5,283.5 Z"/></g>
<g><path style="opacity:1" fill="#1fc050" d="M 174.5,279.5 C 175.686,280.961 175.686,282.295 174.5,283.5C 174.489,281.983 173.823,280.816 172.5,280C 167.924,278.524 163.257,278.19 158.5,279C 159.252,279.671 159.586,280.504 159.5,281.5C 156.675,280.522 155.342,278.522 155.5,275.5C 161.947,276.466 168.28,277.8 174.5,279.5 Z"/></g>
<g><path style="opacity:1" fill="#121314" d="M 229.5,269.5 C 224.762,270.698 220.095,272.198 215.5,274C 210.757,276.033 210.424,278.533 214.5,281.5C 213.336,281.165 212.003,281.165 210.5,281.5C 211.833,282.62 212.333,283.953 212,285.5C 208.877,283.411 208.71,284.078 211.5,287.5C 211.333,287.833 211.167,288.167 211,288.5C 209.935,286.604 209.102,286.437 208.5,288C 209.289,289.626 210.289,291.126 211.5,292.5C 211.333,292.833 211.167,293.167 211,293.5C 209.981,292.313 208.814,291.313 207.5,290.5C 207.167,291 206.833,291.5 206.5,292C 208.615,295.118 211.115,297.952 214,300.5C 214.667,301.167 214.667,301.833 214,302.5C 208.771,297.988 203.938,293.154 199.5,288C 200.972,282.069 203.305,276.569 206.5,271.5C 214.733,267.929 223.4,266.762 232.5,268C 231.263,268.232 230.263,268.732 229.5,269.5 Z"/></g>
<g><path style="opacity:1" fill="#041102" d="M 152.5,268.5 C 158.153,269.275 163.82,269.942 169.5,270.5C 165.994,271.498 162.328,271.498 158.5,270.5C 158.67,271.822 158.337,272.989 157.5,274C 162.934,275.884 168.601,276.718 174.5,276.5C 174.5,277.5 174.5,278.5 174.5,279.5C 168.28,277.8 161.947,276.466 155.5,275.5C 155.342,278.522 156.675,280.522 159.5,281.5C 160.703,283.918 162.37,285.918 164.5,287.5C 166.177,286.813 167.844,286.146 169.5,285.5C 167.97,288.021 165.636,289.021 162.5,288.5C 162.715,290.179 162.048,291.179 160.5,291.5C 158.167,292.167 155.833,292.833 153.5,293.5C 156.056,291.845 158.723,290.179 161.5,288.5C 158.663,283.919 154.663,281.752 149.5,282C 144.167,284 138.833,286 133.5,288C 132.549,288.718 132.383,289.551 133,290.5C 136.087,293.416 138.921,296.416 141.5,299.5C 141.672,300.492 141.338,301.158 140.5,301.5C 137.735,298.509 134.569,295.842 131,293.5C 128.349,297.957 126.183,302.623 124.5,307.5C 124.95,302.386 125.95,297.386 127.5,292.5C 126.448,292.351 125.448,292.517 124.5,293C 123.837,294.518 122.837,295.685 121.5,296.5C 121.5,296.167 121.5,295.833 121.5,295.5C 122.778,291.333 124.444,287.333 126.5,283.5C 133.833,280.5 141.167,277.5 148.5,274.5C 149.66,272.289 150.993,270.289 152.5,268.5 Z"/></g>
<g><path style="opacity:1" fill="#0a0c10" d="M 294.5,296.5 C 295.476,295.185 296.476,293.852 297.5,292.5C 297.043,291.702 296.376,291.369 295.5,291.5C 297.129,289.804 296.796,288.804 294.5,288.5C 293.226,287.811 293.226,286.977 294.5,286C 293.833,285.667 293.167,285.333 292.5,285C 294.927,283.446 294.927,282.279 292.5,281.5C 292.5,280.5 292.5,279.5 292.5,278.5C 289.001,278.741 288.668,277.908 291.5,276C 284.867,273.342 278.2,270.676 271.5,268C 278.183,267.667 284.85,268.001 291.5,269C 293.899,269.731 296.065,270.898 298,272.5C 300.691,277.407 302.857,282.574 304.5,288C 302.131,292.011 298.798,294.844 294.5,296.5 Z"/></g>
<g><path style="opacity:1" fill="#8bb829" d="M 168.5,259.5 C 168.323,263.234 168.656,266.901 169.5,270.5C 163.82,269.942 158.153,269.275 152.5,268.5C 157.334,267.574 162.334,267.574 167.5,268.5C 167.19,265.287 167.523,262.287 168.5,259.5 Z"/></g>
<g><path style="opacity:1" fill="#12dc4c" d="M 140.5,301.5 C 139.599,302.29 138.932,303.29 138.5,304.5C 137.048,306.848 136.382,309.514 136.5,312.5C 137.425,316.869 137.425,321.202 136.5,325.5C 134.115,322.788 131.782,320.122 129.5,317.5C 128.602,315.095 127.102,313.095 125,311.5C 124.51,310.207 124.343,308.873 124.5,307.5C 126.183,302.623 128.349,297.957 131,293.5C 134.569,295.842 137.735,298.509 140.5,301.5 Z"/></g>
<g><path style="opacity:1" fill="#96a2ac" d="M 254.5,297.5 C 268.501,300.881 274.501,309.547 272.5,323.5C 271.781,318.675 270.448,314.008 268.5,309.5C 267.864,307.205 266.531,305.539 264.5,304.5C 262.112,301.91 259.112,300.243 255.5,299.5C 255.167,298.833 254.833,298.167 254.5,297.5 Z"/></g>
<g><path style="opacity:1" fill="#394551" d="M 264.5,304.5 C 266.531,305.539 267.864,307.205 268.5,309.5C 266.413,308.415 265.08,306.749 264.5,304.5 Z"/></g>
<g><path style="opacity:1" fill="#131313" d="M 299.5,304.5 C 301.346,304.222 302.68,304.889 303.5,306.5C 296.177,317.481 291.344,329.481 289,342.5C 287.092,341.182 286.258,339.348 286.5,337C 289.041,325.422 293.375,314.589 299.5,304.5 Z"/></g>
<g><path style="opacity:1" fill="#131313" d="M 306.5,305.5 C 307.922,305.709 309.255,306.209 310.5,307C 302.385,319.065 296.885,332.232 294,346.5C 292.092,345.182 291.258,343.348 291.5,341C 294.268,328.187 299.268,316.354 306.5,305.5 Z"/></g>
<g><path style="opacity:1" fill="#262728" d="M 255.5,299.5 C 259.112,300.243 262.112,301.91 264.5,304.5C 262.833,303.833 261.167,303.167 259.5,302.5C 245.17,300.099 236.337,306.099 233,320.5C 234.126,306.878 241.626,299.878 255.5,299.5 Z"/></g>
<g><path style="opacity:1" fill="#b3c4d4" d="M 196.5,292.5 C 198.655,292.372 200.655,292.872 202.5,294C 215.927,308.036 222.927,324.87 223.5,344.5C 222.518,343.859 221.518,343.193 220.5,342.5C 217.963,347.713 213.963,351.046 208.5,352.5C 207.791,345.537 205.957,338.87 203,332.5C 203.046,335.8 203.212,339.134 203.5,342.5C 200.591,335.099 198.257,327.432 196.5,319.5C 197.558,320.6 198.392,321.934 199,323.5C 199.667,322.5 199.667,321.5 199,320.5C 196.182,314.864 193.349,309.198 190.5,303.5C 194.06,300.553 198.06,298.386 202.5,297C 200.316,295.637 198.316,294.137 196.5,292.5 Z"/></g>
<g><path style="opacity:1" fill="#0b1015" d="M 200.5,304.5 C 202.981,304.323 204.814,305.323 206,307.5C 211.601,316.634 215.434,326.468 217.5,337C 217.742,339.348 216.908,341.182 215,342.5C 214.472,338.057 213.472,333.723 212,329.5C 208.332,321.027 204.499,312.694 200.5,304.5 Z"/></g>
<g><path style="opacity:1" fill="#060606" d="M 148.5,311.5 C 153.041,313.202 156.541,316.202 159,320.5C 167.499,333.499 173.832,347.499 178,362.5C 179.225,374.204 175.891,375.537 168,366.5C 157.267,351.638 150.433,335.138 147.5,317C 147.581,315.076 147.914,313.243 148.5,311.5 Z"/></g>
<g><path style="opacity:1" fill="#eeefef" d="M 254.5,297.5 C 254.833,298.167 255.167,298.833 255.5,299.5C 241.626,299.878 234.126,306.878 233,320.5C 236.337,306.099 245.17,300.099 259.5,302.5C 263.642,307.619 266.308,313.453 267.5,320C 266.711,324.083 265.211,327.916 263,331.5C 260.218,333.771 258.051,336.437 256.5,339.5C 236.429,340.245 228.262,330.578 232,310.5C 236.681,301.324 244.181,296.991 254.5,297.5 Z"/></g>
<g><path style="opacity:1" fill="#080808" d="M 247.5,305.5 C 261.818,305.646 267.318,312.646 264,326.5C 259.067,333.491 252.567,335.325 244.5,332C 237.206,326.532 235.706,319.699 240,311.5C 242.478,309.361 244.978,307.361 247.5,305.5 Z"/></g>
<g><path style="opacity:1" fill="#0fe04b" d="M 380.5,311.5 C 380.893,314.513 380.226,317.18 378.5,319.5C 376.527,322.139 374.194,324.473 371.5,326.5C 370.5,326.5 369.5,326.5 368.5,326.5C 368.253,323.061 368.586,319.728 369.5,316.5C 372.171,313.839 375.171,311.506 378.5,309.5C 379.182,310.243 379.849,310.909 380.5,311.5 Z"/></g>
<g><path style="opacity:1" fill="#092207" d="M 138.5,304.5 C 138.802,312.918 138.469,321.252 137.5,329.5C 133.788,326.789 130.788,323.456 128.5,319.5C 129.338,319.158 129.672,318.492 129.5,317.5C 131.782,320.122 134.115,322.788 136.5,325.5C 137.425,321.202 137.425,316.869 136.5,312.5C 136.382,309.514 137.048,306.848 138.5,304.5 Z"/></g>
<g><path style="opacity:1" fill="#080b10" d="M 195.5,305.5 C 197.017,305.511 198.184,306.177 199,307.5C 205.589,318.179 210.089,329.679 212.5,342C 212.532,343.971 211.698,345.471 210,346.5C 207.119,332.239 201.619,319.072 193.5,307C 194.416,306.722 195.082,306.222 195.5,305.5 Z"/></g>
<g><path style="opacity:1" fill="#1aca4f" d="M 369.5,316.5 C 368.586,319.728 368.253,323.061 368.5,326.5C 369.5,326.5 370.5,326.5 371.5,326.5C 369.745,329.436 367.745,332.269 365.5,335C 364.4,335.432 363.733,334.932 363.5,333.5C 364.983,328.234 366.15,322.901 367,317.5C 367.671,316.748 368.504,316.414 369.5,316.5 Z"/></g>
<g><path style="opacity:1" fill="#b7c9d8" d="M 259.5,302.5 C 261.167,303.167 262.833,303.833 264.5,304.5C 265.08,306.749 266.413,308.415 268.5,309.5C 270.448,314.008 271.781,318.675 272.5,323.5C 270.806,332.527 265.473,337.861 256.5,339.5C 258.051,336.437 260.218,333.771 263,331.5C 265.211,327.916 266.711,324.083 267.5,320C 266.308,313.453 263.642,307.619 259.5,302.5 Z"/></g>
<g><path style="opacity:1" fill="#28bc54" d="M 128.5,319.5 C 130.788,323.456 133.788,326.789 137.5,329.5C 140.519,331.716 141.686,334.716 141,338.5C 134.522,331.534 128.522,324.201 123,316.5C 122.312,315.668 122.479,315.002 123.5,314.5C 124.855,316.521 126.521,318.188 128.5,319.5 Z"/></g>
<g><path style="opacity:1" fill="#adbccb" d="M 317.5,362.5 C 318.384,354.328 320.884,346.328 325,338.5C 325.671,337.748 326.504,337.414 327.5,337.5C 326.588,338.738 326.421,340.072 327,341.5C 333.31,326.535 342.643,313.869 355,303.5C 357.043,305.208 358.71,307.208 360,309.5C 359.494,322.37 356.494,334.704 351,346.5C 345.806,358.749 338.306,369.249 328.5,378C 325.129,378.744 321.963,378.244 319,376.5C 318.369,372.143 318.535,367.809 319.5,363.5C 319.608,360.134 318.942,359.8 317.5,362.5 Z"/></g>
<g><path style="opacity:1" fill="#030406" d="M 351.5,310.5 C 355.8,310.725 357.466,313.059 356.5,317.5C 352.947,338.77 343.947,357.27 329.5,373C 327.833,373.667 326.167,373.667 324.5,373C 323.197,362.688 325.03,352.854 330,343.5C 335.186,331.106 342.353,320.106 351.5,310.5 Z"/></g>
<g><path style="opacity:1" fill="#1dc851" d="M 293.5,371.5 C 291.094,370.601 289.094,369.101 287.5,367C 288.493,356.85 284.826,354.35 276.5,359.5C 277.072,357.745 277.906,356.078 279,354.5C 279.837,352.993 281.004,352.493 282.5,353C 284.241,354.62 286.075,356.12 288,357.5C 288.333,360.5 288.667,363.5 289,366.5C 290.707,368.037 292.207,369.704 293.5,371.5 Z"/></g>
<g><path style="opacity:1" fill="#23913f" d="M 229.5,363.5 C 226.784,365.331 225.284,367.997 225,371.5C 224.283,370.956 223.783,370.289 223.5,369.5C 224.097,369.265 224.43,368.765 224.5,368C 222.169,363.673 220.669,359.173 220,354.5C 221.413,357.661 223.08,360.661 225,363.5C 224.957,360.437 224.623,357.437 224,354.5C 225.856,357.556 227.689,360.556 229.5,363.5 Z"/></g>
<g><path style="opacity:1" fill="#03ea48" d="M 293.5,371.5 C 293.278,374.685 291.778,375.685 289,374.5C 288.755,376.663 287.755,378.33 286,379.5C 285.506,381.134 285.34,382.801 285.5,384.5C 282.341,384.519 279.674,383.352 277.5,381C 279.95,377.273 282.283,373.44 284.5,369.5C 283.738,369.089 282.738,368.923 281.5,369C 281.833,368.667 282.167,368.333 282.5,368C 280.939,367.682 279.772,366.849 279,365.5C 278.517,366.448 278.351,367.448 278.5,368.5C 275.104,368.367 274.771,367.367 277.5,365.5C 276.975,364.808 276.308,364.308 275.5,364C 276.38,362.644 276.714,361.144 276.5,359.5C 284.826,354.35 288.493,356.85 287.5,367C 289.094,369.101 291.094,370.601 293.5,371.5 Z"/></g>
<g><path style="opacity:1" fill="#2da74f" d="M 301.5,375.5 C 298.165,378.839 294.165,381.172 289.5,382.5C 288.737,381.732 287.737,381.232 286.5,381C 286.728,380.601 287.062,380.435 287.5,380.5C 292.212,378.804 296.878,377.137 301.5,375.5 Z"/></g>
<g><path style="opacity:1" fill="#10de4c" d="M 223.5,369.5 C 223.783,370.289 224.283,370.956 225,371.5C 225.284,367.997 226.784,365.331 229.5,363.5C 232.639,367.09 235.306,371.09 237.5,375.5C 233.679,377.814 231.346,381.147 230.5,385.5C 223.63,383.43 216.963,380.764 210.5,377.5C 209.304,377.846 209.304,378.346 210.5,379C 214.732,381.275 218.732,383.775 222.5,386.5C 223.348,388.093 224.681,389.26 226.5,390C 222.461,390.048 218.461,389.548 214.5,388.5C 207.662,386.724 201.329,383.89 195.5,380C 202.099,376.452 208.265,372.286 214,367.5C 215.153,364.289 215.82,360.956 216,357.5C 218.761,361.36 221.261,365.36 223.5,369.5 Z"/></g>
<g><path style="opacity:1" fill="#061d03" d="M 301.5,375.5 C 302.222,375.918 302.722,376.584 303,377.5C 303.977,376.226 304.811,376.226 305.5,377.5C 298.307,382.63 290.64,385.63 282.5,386.5C 285.317,385.905 287.65,384.572 289.5,382.5C 294.165,381.172 298.165,378.839 301.5,375.5 Z"/></g>
<g><path style="opacity:1" fill="#061e02" d="M 230.5,385.5 C 229.737,386.268 228.737,386.768 227.5,387C 228.056,387.383 228.389,387.883 228.5,388.5C 226.421,388.029 224.421,387.363 222.5,386.5C 218.732,383.775 214.732,381.275 210.5,379C 209.304,378.346 209.304,377.846 210.5,377.5C 216.963,380.764 223.63,383.43 230.5,385.5 Z"/></g>
<g><path style="opacity:1" fill="#1ea747" d="M 246.5,387.5 C 246.5,386.167 246.5,384.833 246.5,383.5C 244.5,383.5 242.5,383.5 240.5,383.5C 242.493,381.042 244.826,380.875 247.5,383C 248.916,384.915 248.582,386.415 246.5,387.5 Z"/></g>
<g><path style="opacity:1" fill="#21c452" d="M 273.5,381.5 C 274.568,382.434 275.901,382.768 277.5,382.5C 277.238,385.691 275.905,388.358 273.5,390.5C 274.689,391.429 276.022,391.762 277.5,391.5C 276.22,392.931 274.553,393.598 272.5,393.5C 271.705,389.406 273.038,386.239 276.5,384C 274.893,384.019 273.226,384.185 271.5,384.5C 271.285,382.821 271.952,381.821 273.5,381.5 Z"/></g>
<g><path style="opacity:1" fill="#11df4e" d="M 276.5,359.5 C 276.714,361.144 276.38,362.644 275.5,364C 276.308,364.308 276.975,364.808 277.5,365.5C 274.771,367.367 275.104,368.367 278.5,368.5C 278.351,367.448 278.517,366.448 279,365.5C 279.772,366.849 280.939,367.682 282.5,368C 282.167,368.333 281.833,368.667 281.5,369C 282.738,368.923 283.738,369.089 284.5,369.5C 282.283,373.44 279.95,377.273 277.5,381C 279.674,383.352 282.341,384.519 285.5,384.5C 285.34,382.801 285.506,381.134 286,379.5C 287.755,378.33 288.755,376.663 289,374.5C 291.778,375.685 293.278,374.685 293.5,371.5C 294.756,371.461 295.756,371.961 296.5,373C 293.31,375.364 290.31,377.864 287.5,380.5C 287.062,380.435 286.728,380.601 286.5,381C 287.737,381.232 288.737,381.732 289.5,382.5C 287.65,384.572 285.317,385.905 282.5,386.5C 283.029,388.334 282.363,390.001 280.5,391.5C 279.5,391.5 278.5,391.5 277.5,391.5C 276.022,391.762 274.689,391.429 273.5,390.5C 275.905,388.358 277.238,385.691 277.5,382.5C 275.901,382.768 274.568,382.434 273.5,381.5C 275.461,379.037 277.628,376.703 280,374.5C 280.667,373.833 280.667,373.167 280,372.5C 276.236,374.632 272.736,377.132 269.5,380C 268.423,380.47 267.423,380.303 266.5,379.5C 265.859,378.518 265.193,377.518 264.5,376.5C 268.557,370.792 272.557,365.125 276.5,359.5 Z"/></g>
<g><path style="opacity:1" fill="#21b94f" d="M 305.5,377.5 C 307.645,377.917 308.312,378.917 307.5,380.5C 298.809,385.015 289.809,388.682 280.5,391.5C 282.363,390.001 283.029,388.334 282.5,386.5C 290.64,385.63 298.307,382.63 305.5,377.5 Z"/></g>
<g><path style="opacity:1" fill="#1caa47" d="M 239.5,383.5 C 236.994,388.865 235.994,394.531 236.5,400.5C 235.357,397.024 235.19,393.358 236,389.5C 236.424,386.975 237.59,384.975 239.5,383.5 Z"/></g>
<g><path style="opacity:1" fill="#091e07" d="M 273.5,381.5 C 271.952,381.821 271.285,382.821 271.5,384.5C 273.226,384.185 274.893,384.019 276.5,384C 273.038,386.239 271.705,389.406 272.5,393.5C 270.496,390.34 269.329,386.673 269,382.5C 267.583,381.922 266.75,380.922 266.5,379.5C 267.423,380.303 268.423,380.47 269.5,380C 272.736,377.132 276.236,374.632 280,372.5C 280.667,373.167 280.667,373.833 280,374.5C 277.628,376.703 275.461,379.037 273.5,381.5 Z"/></g>
<g><path style="opacity:1" fill="#22bb4d" d="M 222.5,386.5 C 224.421,387.363 226.421,388.029 228.5,388.5C 228.5,389.833 228.5,391.167 228.5,392.5C 223.46,392.15 218.794,390.816 214.5,388.5C 218.461,389.548 222.461,390.048 226.5,390C 224.681,389.26 223.348,388.093 222.5,386.5 Z"/></g>
<g><path style="opacity:1" fill="#05e74a" d="M 261.5,384.5 C 263.61,385.453 264.777,387.119 265,389.5C 265.667,392.833 265.667,396.167 265,399.5C 263.211,401.229 261.044,401.896 258.5,401.5C 256.485,400.076 254.152,399.41 251.5,399.5C 250.588,395.869 250.421,392.203 251,388.5C 252.011,387.663 253.178,387.33 254.5,387.5C 254.5,386.5 254.5,385.5 254.5,384.5C 256.833,384.5 259.167,384.5 261.5,384.5 Z"/></g>
<g><path style="opacity:1" fill="#04e949" d="M 239.5,383.5 C 239.833,383.5 240.167,383.5 240.5,383.5C 242.5,383.5 244.5,383.5 246.5,383.5C 246.5,384.833 246.5,386.167 246.5,387.5C 244.036,391.358 244.036,395.191 246.5,399C 243.381,400.405 240.048,400.905 236.5,400.5C 235.994,394.531 236.994,388.865 239.5,383.5 Z"/></g>
<g><path style="opacity:1" fill="#19c84b" d="M 261.5,384.5 C 259.167,384.5 256.833,384.5 254.5,384.5C 254.5,385.5 254.5,386.5 254.5,387.5C 253.178,387.33 252.011,387.663 251,388.5C 250.421,392.203 250.588,395.869 251.5,399.5C 254.152,399.41 256.485,400.076 258.5,401.5C 250.981,401.825 243.648,401.492 236.5,400.5C 240.048,400.905 243.381,400.405 246.5,399C 244.036,395.191 244.036,391.358 246.5,387.5C 246.347,397.854 247.514,397.854 250,387.5C 251.621,383.509 254.454,381.676 258.5,382C 259.942,382.377 260.942,383.21 261.5,384.5 Z"/></g>
<g><path style="opacity:1" fill="#062e0c" d="M 263.5,409.5 C 261.833,409.5 260.167,409.5 258.5,409.5C 259.302,415.152 259.469,420.818 259,426.5C 257.523,422.571 256.356,418.571 255.5,414.5C 256.117,414.611 256.617,414.944 257,415.5C 257.497,413.19 257.663,410.857 257.5,408.5C 259.735,408.205 261.735,408.539 263.5,409.5 Z"/></g>
<g><path style="opacity:1" fill="#07360c" d="M 235.5,421.5 C 234.243,424.096 233.076,426.763 232,429.5C 231.54,426.696 232.04,424.029 233.5,421.5C 233.376,420.893 233.043,420.56 232.5,420.5C 232.783,419.711 233.283,419.044 234,418.5C 234.232,419.737 234.732,420.737 235.5,421.5 Z"/></g>
<g><path style="opacity:1" fill="#1ac24c" d="M 255.5,414.5 C 256.356,418.571 257.523,422.571 259,426.5C 259.469,420.818 259.302,415.152 258.5,409.5C 260.167,409.5 261.833,409.5 263.5,409.5C 269.371,415.558 273.371,422.725 275.5,431C 273.981,439.22 271.481,447.054 268,454.5C 265.991,452.478 264.491,450.145 263.5,447.5C 265.377,447.9 266.877,448.9 268,450.5C 268.945,450.095 269.612,449.428 270,448.5C 272.731,440.218 273.064,431.884 271,423.5C 269.757,421.167 268.091,420.5 266,421.5C 265.667,418.833 265.333,416.167 265,413.5C 263.981,412.313 262.814,411.313 261.5,410.5C 260.833,416.5 260.167,422.5 259.5,428.5C 257.879,426.847 256.712,424.847 256,422.5C 255.643,426.51 255.81,430.51 256.5,434.5C 254.083,429.391 253.083,423.891 253.5,418C 253.667,414.833 253.833,411.667 254,408.5C 255.128,410.345 255.628,412.345 255.5,414.5 Z"/></g>
<g><path style="opacity:1" fill="#04e949" d="M 263.5,447.5 C 260.912,443.326 258.579,438.993 256.5,434.5C 255.81,430.51 255.643,426.51 256,422.5C 256.712,424.847 257.879,426.847 259.5,428.5C 260.167,422.5 260.833,416.5 261.5,410.5C 262.814,411.313 263.981,412.313 265,413.5C 265.333,416.167 265.667,418.833 266,421.5C 268.091,420.5 269.757,421.167 271,423.5C 273.064,431.884 272.731,440.218 270,448.5C 269.612,449.428 268.945,450.095 268,450.5C 266.877,448.9 265.377,447.9 263.5,447.5 Z"/></g>
<g><path style="opacity:1" fill="#25ba4e" d="M 245.5,435.5 C 245.897,430.041 245.397,424.708 244,419.5C 243.411,421.863 241.911,422.863 239.5,422.5C 239.715,420.821 239.048,419.821 237.5,419.5C 238.696,416.457 240.53,413.791 243,411.5C 242.052,414.411 241.385,417.411 241,420.5C 242.667,418.5 244.333,416.5 246,414.5C 246.879,421.159 247.212,427.826 247,434.5C 246.617,435.056 246.117,435.389 245.5,435.5 Z"/></g>
<g><path style="opacity:1" fill="#03e949" d="M 237.5,419.5 C 239.048,419.821 239.715,420.821 239.5,422.5C 241.911,422.863 243.411,421.863 244,419.5C 245.397,424.708 245.897,430.041 245.5,435.5C 245.445,438.614 244.112,440.948 241.5,442.5C 240.312,441.636 239.145,440.636 238,439.5C 237.506,441.134 237.34,442.801 237.5,444.5C 235.345,444.372 233.345,444.872 231.5,446C 230.359,446.741 230.359,447.575 231.5,448.5C 229.653,449.83 228.153,449.497 227,447.5C 226.217,441.327 226.884,435.327 229,429.5C 229.308,430.308 229.808,430.975 230.5,431.5C 231.736,430.754 233.07,430.421 234.5,430.5C 235.612,426.882 236.612,423.216 237.5,419.5 Z"/></g>
<g><path style="opacity:1" fill="#1ace4e" d="M 237.5,419.5 C 236.612,423.216 235.612,426.882 234.5,430.5C 233.07,430.421 231.736,430.754 230.5,431.5C 229.808,430.975 229.308,430.308 229,429.5C 226.884,435.327 226.217,441.327 227,447.5C 228.153,449.497 229.653,449.83 231.5,448.5C 230.359,447.575 230.359,446.741 231.5,446C 233.345,444.872 235.345,444.372 237.5,444.5C 237.34,442.801 237.506,441.134 238,439.5C 239.145,440.636 240.312,441.636 241.5,442.5C 236.43,447.22 230.763,451.22 224.5,454.5C 224.167,453 223.833,451.5 223.5,450C 224.666,443.172 225.833,436.339 227,429.5C 228.697,426.328 230.53,423.328 232.5,420.5C 233.043,420.56 233.376,420.893 233.5,421.5C 232.04,424.029 231.54,426.696 232,429.5C 233.076,426.763 234.243,424.096 235.5,421.5C 235.833,420.5 236.5,419.833 237.5,419.5 Z"/></g>
</svg>
