<?xml version="1.0" encoding="UTF-8"?>
<!DOCTYPE svg PUBLIC "-//W3C//DTD SVG 1.1//EN" "http://www.w3.org/Graphics/SVG/1.1/DTD/svg11.dtd">
<svg xmlns="http://www.w3.org/2000/svg" version="1.1" width="500px" height="500px" style="shape-rendering:geometricPrecision; text-rendering:geometricPrecision; image-rendering:optimizeQuality; fill-rule:evenodd; clip-rule:evenodd" xmlns:xlink="http://www.w3.org/1999/xlink">
<g><path style="opacity:1" fill="#000000" d="M -0.5,-0.5 C 166.167,-0.5 332.833,-0.5 499.5,-0.5C 499.5,166.167 499.5,332.833 499.5,499.5C 332.833,499.5 166.167,499.5 -0.5,499.5C -0.5,332.833 -0.5,166.167 -0.5,-0.5 Z"/></g>
<g><path style="opacity:1" fill="#a58740" d="M 229.5,55.5 C 295.104,51.1904 350.271,72.8571 395,120.5C 444.753,180.675 456.419,247.675 430,321.5C 399.072,391.573 345.572,432.073 269.5,443C 203.34,447.843 147.84,426.01 103,377.5C 60.6667,325.787 46.6667,267.121 61,201.5C 81.869,130.964 127.369,84.4637 197.5,62C 208.208,59.3587 218.875,57.1921 229.5,55.5 Z"/></g>
<g><path style="opacity:1" fill="#0b0a07" d="M 229.5,60.5 C 310.843,56.4143 372.677,88.7476 415,157.5C 446.242,218.791 446.242,280.125 415,341.5C 374.068,408.892 313.901,441.059 234.5,438C 158.669,429.149 105.169,389.982 74,320.5C 49.2185,251.965 58.5519,188.632 102,130.5C 135.466,90.8477 177.966,67.5144 229.5,60.5 Z"/></g>
<g><path style="opacity:1" fill="#fdfdfd" d="M 228.5,66.5 C 308.089,61.8718 368.589,93.2052 410,160.5C 439.627,219.005 439.961,277.672 411,336.5C 369.968,405.274 309.134,437.107 228.5,432C 166.326,423.017 119.493,391.517 88,337.5C 57.7528,277.97 58.0861,218.636 89,159.5C 120.954,106.718 167.454,75.7182 228.5,66.5 Z"/></g>
<g><path style="opacity:1" fill="#a58744" d="M 281.5,140.5 C 260.121,135.237 238.788,135.237 217.5,140.5C 216.609,139.739 215.942,138.739 215.5,137.5C 225.882,133.187 236.715,131.52 248,132.5C 260.224,131.756 272.057,133.423 283.5,137.5C 282.807,138.518 282.141,139.518 281.5,140.5 Z"/></g>
<g><path style="opacity:1" fill="#080707" d="M 216.5,155.5 C 216.987,156.473 217.487,157.473 218,158.5C 218.198,156.618 218.698,154.952 219.5,153.5C 220.697,157.922 222.197,162.256 224,166.5C 224.333,164.833 224.667,163.167 225,161.5C 240.986,175.802 257.319,176.135 274,162.5C 274.333,163.833 274.667,165.167 275,166.5C 276.505,162.464 278.005,158.464 279.5,154.5C 280.29,155.609 280.79,156.942 281,158.5C 281.513,157.473 282.013,156.473 282.5,155.5C 283.137,152.544 283.637,149.544 284,146.5C 284.667,145.833 285.333,145.167 286,144.5C 286.498,146.527 286.331,148.527 285.5,150.5C 285.482,152.373 285.982,152.706 287,151.5C 288.158,147.203 289.158,142.869 290,138.5C 291,137.5 292,136.5 293,135.5C 303.581,144.967 310.914,156.634 315,170.5C 317.578,180.686 319.245,191.019 320,201.5C 326.72,209.886 333.053,218.553 339,227.5C 342.524,234.243 345.357,241.243 347.5,248.5C 347.125,250.916 346.459,253.25 345.5,255.5C 349.481,264.12 350.481,273.12 348.5,282.5C 346.595,277.691 344.428,273.025 342,268.5C 342.547,273.098 343.047,277.765 343.5,282.5C 343.167,284.5 342.833,286.5 342.5,288.5C 339.833,286.5 337.5,284.167 335.5,281.5C 335.167,281.833 334.833,282.167 334.5,282.5C 337.409,288.011 337.909,293.678 336,299.5C 334,296.167 331.333,293.5 328,291.5C 329.096,296.732 329.929,302.066 330.5,307.5C 330.378,311.878 329.878,316.211 329,320.5C 317.894,336.619 304.06,349.452 287.5,359C 293.002,354.44 296.835,348.94 299,342.5C 297.054,345.42 294.887,348.087 292.5,350.5C 294.588,347.001 296.088,343.335 297,339.5C 291.662,345.67 286.162,351.67 280.5,357.5C 270.953,365.033 260.619,371.367 249.5,376.5C 231.06,367.863 215.56,355.53 203,339.5C 202.333,340.5 202.333,341.5 203,342.5C 205.336,346.187 207.336,349.853 209,353.5C 205.573,350.744 202.907,347.41 201,343.5C 200.346,342.304 199.846,342.304 199.5,343.5C 202.317,348.962 205.983,353.795 210.5,358C 209.833,358.667 209.167,358.667 208.5,358C 194.372,347.539 181.872,335.372 171,321.5C 167.258,311.594 167.758,301.927 172.5,292.5C 168.892,293.215 166.059,295.548 164,299.5C 162.492,297.983 161.658,296.149 161.5,294C 162.507,289.338 163.673,284.838 165,280.5C 162.568,283.688 159.901,286.688 157,289.5C 156.259,282.038 156.593,274.704 158,267.5C 154.891,272.821 152.558,278.488 151,284.5C 148.28,274.356 149.447,264.69 154.5,255.5C 151.969,253.406 151.136,250.739 152,247.5C 154.221,240.172 157.221,233.172 161,226.5C 167,218.5 173,210.5 179,202.5C 180.768,192.19 182.435,181.857 184,171.5C 188.222,157.375 195.722,145.375 206.5,135.5C 207.086,135.709 207.586,136.043 208,136.5C 209.368,141.984 211.034,147.317 213,152.5C 213.167,151.833 213.333,151.167 213.5,150.5C 212.669,148.527 212.502,146.527 213,144.5C 213.667,145.167 214.333,145.833 215,146.5C 215.363,149.544 215.863,152.544 216.5,155.5 Z"/></g>
<g><path style="opacity:1" fill="#030302" d="M 281.5,140.5 C 277.836,148.001 273.169,154.834 267.5,161C 254.986,168.567 242.652,168.233 230.5,160C 225.536,153.901 221.203,147.401 217.5,140.5C 238.788,135.237 260.121,135.237 281.5,140.5 Z"/></g>
<g><path style="opacity:1" fill="#a58846" d="M 182.5,159.5 C 182.44,158.957 182.107,158.624 181.5,158.5C 138.698,194.095 126.198,238.428 144,291.5C 150.267,306.916 159.434,320.249 171.5,331.5C 176.936,337.438 182.603,343.271 188.5,349C 188.167,349.167 187.833,349.333 187.5,349.5C 155.62,328.767 137.12,299.434 132,261.5C 129.18,213.551 147.513,176.218 187,149.5C 185.803,152.899 184.303,156.232 182.5,159.5 Z"/></g>
<g><path style="opacity:1" fill="#a78945" d="M 328.5,330.5 C 330.587,329.415 331.92,327.749 332.5,325.5C 349.321,307.599 359.155,286.266 362,261.5C 364.895,218.966 349.729,184.633 316.5,158.5C 314.547,156.088 313.38,153.421 313,150.5C 362.764,187.467 377.764,235.467 358,294.5C 348.063,318.084 332.23,336.251 310.5,349C 316.73,342.938 322.73,336.771 328.5,330.5 Z"/></g>
<g><path style="opacity:1" fill="#f9f9f8" d="M 311.5,203.5 C 307.657,200.497 303.657,197.664 299.5,195C 301.443,195.305 303.443,195.305 305.5,195C 303,193.167 300.5,191.333 298,189.5C 297.821,186.447 297.321,183.447 296.5,180.5C 295.522,180.977 294.689,181.643 294,182.5C 294.221,178.567 295.888,175.233 299,172.5C 300.667,174.833 302.333,177.167 304,179.5C 303.841,174.192 302.008,169.526 298.5,165.5C 290.745,172.163 285.078,180.33 281.5,190C 286.197,195.887 290.53,202.054 294.5,208.5C 299.752,209.792 304.418,212.126 308.5,215.5C 309.167,215.5 309.5,215.833 309.5,216.5C 315.686,222.205 319.186,229.205 320,237.5C 317.154,233.452 313.321,231.285 308.5,231C 311.807,233.778 313.974,237.278 315,241.5C 316.178,252.258 317.511,262.925 319,273.5C 315.827,280.671 311.827,287.337 307,293.5C 306.567,287.226 307.733,281.226 310.5,275.5C 310.333,275.167 310.167,274.833 310,274.5C 304.251,278.654 299.918,283.987 297,290.5C 294.131,301.25 288.964,310.583 281.5,318.5C 284.121,307.994 285.954,297.328 287,286.5C 291.821,277.027 297.987,268.527 305.5,261C 303.833,260.333 302.167,260.333 300.5,261C 294.377,264.789 289.21,269.622 285,275.5C 285.408,273.039 286.074,270.706 287,268.5C 285.316,270.351 283.483,272.018 281.5,273.5C 278.849,271.35 276.349,269.017 274,266.5C 273.333,267.5 273.333,268.5 274,269.5C 276.372,272.91 278.205,276.577 279.5,280.5C 279.607,282.379 279.107,282.712 278,281.5C 277.501,285.486 277.334,289.486 277.5,293.5C 277.5,293.833 277.5,294.167 277.5,294.5C 276.833,294.5 276.5,294.167 276.5,293.5C 276.657,292.127 276.49,290.793 276,289.5C 270.496,301.004 261.662,305.004 249.5,301.5C 237.308,305.181 228.475,301.181 223,289.5C 223.177,293.196 223.51,296.863 224,300.5C 222.293,298.091 221.46,295.425 221.5,292.5C 221.665,288.818 221.499,285.152 221,281.5C 220.209,282.745 219.709,284.078 219.5,285.5C 219.313,287.564 218.813,289.564 218,291.5C 217.333,289.167 217.333,286.833 218,284.5C 220.473,277.91 223.14,271.577 226,265.5C 223.318,268.35 220.484,271.016 217.5,273.5C 215.517,272.018 213.684,270.351 212,268.5C 212.926,270.706 213.592,273.039 214,275.5C 209.79,269.622 204.623,264.789 198.5,261C 196.833,260.333 195.167,260.333 193.5,261C 200.149,267.312 205.649,274.479 210,282.5C 212.176,294.543 214.676,306.543 217.5,318.5C 210.036,310.583 204.869,301.25 202,290.5C 199.082,283.987 194.749,278.654 189,274.5C 189.607,278.513 190.607,282.513 192,286.5C 192.667,288.833 192.667,291.167 192,293.5C 187.173,287.337 183.173,280.671 180,273.5C 180.888,262.825 182.222,252.158 184,241.5C 185.026,237.278 187.193,233.778 190.5,231C 185.669,231.171 181.836,233.337 179,237.5C 179.814,229.205 183.314,222.205 189.5,216.5C 189.5,215.833 189.833,215.5 190.5,215.5C 195.037,212.063 200.037,209.397 205.5,207.5C 208.722,201.279 212.722,195.612 217.5,190.5C 214.058,180.604 208.391,172.271 200.5,165.5C 196.992,169.526 195.159,174.192 195,179.5C 196.667,177.167 198.333,174.833 200,172.5C 202.796,175.424 204.462,178.757 205,182.5C 204.311,181.643 203.478,180.977 202.5,180.5C 201.679,183.447 201.179,186.447 201,189.5C 198.5,191.333 196,193.167 193.5,195C 195.811,194.845 198.144,194.845 200.5,195C 195.744,197.269 191.41,200.103 187.5,203.5C 185.537,196.307 185.037,188.974 186,181.5C 188.894,172.145 192.56,163.145 197,154.5C 205.919,160.748 214.252,167.748 222,175.5C 224.207,178.078 226.04,180.911 227.5,184C 231.446,183.351 235.446,183.018 239.5,183C 229.361,187.973 221.694,195.473 216.5,205.5C 216.667,205.833 216.833,206.167 217,206.5C 218.626,203.872 220.626,201.539 223,199.5C 221.422,202.657 219.755,205.99 218,209.5C 217.333,210.833 217.333,212.167 218,213.5C 223.316,202.512 224.65,202.846 222,214.5C 223.798,209.19 224.798,209.524 225,215.5C 227.667,216.833 229.667,218.833 231,221.5C 232.659,218.57 232.992,215.57 232,212.5C 238.791,219.777 239.291,227.444 233.5,235.5C 227.785,231.643 221.785,228.309 215.5,225.5C 210.983,227.593 206.983,230.426 203.5,234C 205.821,237.654 208.821,240.654 212.5,243C 219.167,243.333 225.833,243.667 232.5,244C 233.126,244.75 233.626,245.584 234,246.5C 234.333,250.5 234.667,254.5 235,258.5C 240.862,251.474 245.695,243.807 249.5,235.5C 252.817,244.137 257.65,251.803 264,258.5C 264.333,254.5 264.667,250.5 265,246.5C 265.374,245.584 265.874,244.75 266.5,244C 273.167,243.667 279.833,243.333 286.5,243C 290.179,240.654 293.179,237.654 295.5,234C 292.017,230.426 288.017,227.593 283.5,225.5C 277.215,228.309 271.215,231.643 265.5,235.5C 259.707,227.457 260.207,219.79 267,212.5C 266.008,215.57 266.341,218.57 268,221.5C 269.333,218.833 271.333,216.833 274,215.5C 274.202,209.524 275.202,209.19 277,214.5C 277.804,210.93 276.97,207.763 274.5,205C 274.833,204.833 275.167,204.667 275.5,204.5C 277.835,207.166 279.669,210.166 281,213.5C 281.667,212.167 281.667,210.833 281,209.5C 279.245,205.99 277.578,202.657 276,199.5C 278.374,201.539 280.374,203.872 282,206.5C 279.93,200.575 276.43,195.409 271.5,191C 267.5,188.333 263.5,185.667 259.5,183C 263.554,183.018 267.554,183.351 271.5,184C 279.38,171.787 289.546,161.953 302,154.5C 306.44,163.145 310.106,172.145 313,181.5C 313.848,188.942 313.348,196.276 311.5,203.5 Z"/></g>
<g><path style="opacity:1" fill="#919191" d="M 219.5,153.5 C 218.698,154.952 218.198,156.618 218,158.5C 217.487,157.473 216.987,156.473 216.5,155.5C 217.29,154.391 217.79,153.058 218,151.5C 218.717,152.044 219.217,152.711 219.5,153.5 Z"/></g>
<g><path style="opacity:1" fill="#919191" d="M 282.5,155.5 C 282.013,156.473 281.513,157.473 281,158.5C 280.79,156.942 280.29,155.609 279.5,154.5C 279.783,153.711 280.283,153.044 281,152.5C 281.232,153.737 281.732,154.737 282.5,155.5 Z"/></g>
<g><path style="opacity:1" fill="#050403" d="M 182.5,159.5 C 177.505,171.643 175.005,184.309 175,197.5C 170.44,205.393 165.107,212.727 159,219.5C 152.424,229.484 147.924,240.317 145.5,252C 145.439,254.279 146.105,256.279 147.5,258C 142.1,269.262 142.267,280.428 148,291.5C 154.596,305.711 162.429,319.044 171.5,331.5C 159.434,320.249 150.267,306.916 144,291.5C 126.198,238.428 138.698,194.095 181.5,158.5C 182.107,158.624 182.44,158.957 182.5,159.5 Z"/></g>
<g><path style="opacity:1" fill="#060504" d="M 316.5,158.5 C 349.729,184.633 364.895,218.966 362,261.5C 359.155,286.266 349.321,307.599 332.5,325.5C 339.979,314.485 346.479,302.819 352,290.5C 356.682,278.709 356.515,267.042 351.5,255.5C 353.235,248.517 352.402,241.851 349,235.5C 345.667,229.5 342.333,223.5 339,217.5C 334.667,212.167 330.333,206.833 326,201.5C 324.937,186.682 321.77,172.349 316.5,158.5 Z"/></g>
<g><path style="opacity:1" fill="#b1924b" d="M 190.5,215.5 C 189.808,211.4 188.808,207.4 187.5,203.5C 191.41,200.103 195.744,197.269 200.5,195C 198.144,194.845 195.811,194.845 193.5,195C 196,193.167 198.5,191.333 201,189.5C 201.179,186.447 201.679,183.447 202.5,180.5C 203.478,180.977 204.311,181.643 205,182.5C 204.462,178.757 202.796,175.424 200,172.5C 198.333,174.833 196.667,177.167 195,179.5C 195.159,174.192 196.992,169.526 200.5,165.5C 208.391,172.271 214.058,180.604 217.5,190.5C 212.722,195.612 208.722,201.279 205.5,207.5C 200.037,209.397 195.037,212.063 190.5,215.5 Z"/></g>
<g><path style="opacity:1" fill="#b2934b" d="M 311.5,203.5 C 310.192,207.4 309.192,211.4 308.5,215.5C 304.418,212.126 299.752,209.792 294.5,208.5C 290.53,202.054 286.197,195.887 281.5,190C 285.078,180.33 290.745,172.163 298.5,165.5C 302.008,169.526 303.841,174.192 304,179.5C 302.333,177.167 300.667,174.833 299,172.5C 295.888,175.233 294.221,178.567 294,182.5C 294.689,181.643 295.522,180.977 296.5,180.5C 297.321,183.447 297.821,186.447 298,189.5C 300.5,191.333 303,193.167 305.5,195C 303.443,195.305 301.443,195.305 299.5,195C 303.657,197.664 307.657,200.497 311.5,203.5 Z"/></g>
<g><path style="opacity:1" fill="#a88b47" d="M 245.5,194.5 C 249.544,193.958 253.211,194.791 256.5,197C 246.878,196.437 243.711,200.604 247,209.5C 249.344,211.774 252.178,212.941 255.5,213C 243.612,216.453 238.446,211.953 240,199.5C 241.73,197.598 243.563,195.931 245.5,194.5 Z"/></g>
<g><path style="opacity:1" fill="#f8f6f0" d="M 291.5,197.5 C 295.895,200.544 300.562,203.21 305.5,205.5C 306.833,206.833 306.833,208.167 305.5,209.5C 302.397,207.688 299.064,206.688 295.5,206.5C 294.962,203.095 293.629,200.095 291.5,197.5 Z"/></g>
<g><path style="opacity:1" fill="#ac8d46" d="M 189.5,216.5 C 183.314,222.205 179.814,229.205 179,237.5C 181.836,233.337 185.669,231.171 190.5,231C 187.193,233.778 185.026,237.278 184,241.5C 182.222,252.158 180.888,262.825 180,273.5C 183.173,280.671 187.173,287.337 192,293.5C 192.667,291.167 192.667,288.833 192,286.5C 190.607,282.513 189.607,278.513 189,274.5C 194.749,278.654 199.082,283.987 202,290.5C 204.869,301.25 210.036,310.583 217.5,318.5C 219.994,323.653 222.661,328.819 225.5,334C 220.7,332.267 216.034,329.934 211.5,327C 206.667,322.167 201.833,317.333 197,312.5C 193.159,306.822 189.826,300.822 187,294.5C 179.609,284.964 178.942,285.297 185,295.5C 186.023,300.712 187.357,305.712 189,310.5C 187.615,309.449 186.615,308.116 186,306.5C 184.7,298.231 181.033,291.231 175,285.5C 171.859,278.816 170.859,271.816 172,264.5C 177.06,245.01 176.06,244.676 169,263.5C 169.15,257.538 170.65,251.871 173.5,246.5C 171.836,245.777 170.169,246.11 168.5,247.5C 169.234,233.06 176.234,222.726 189.5,216.5 Z"/></g>
<g><path style="opacity:1" fill="#ac8e49" d="M 309.5,216.5 C 322.562,222.868 329.562,233.202 330.5,247.5C 328.831,246.11 327.164,245.777 325.5,246.5C 328.352,251.876 329.852,257.543 330,263.5C 322.95,244.645 321.95,244.978 327,264.5C 328.923,275.494 325.923,284.827 318,292.5C 315.582,297.687 313.582,303.02 312,308.5C 310.039,311.463 307.706,314.129 305,316.5C 304.333,315.833 304.333,315.167 305,314.5C 308.318,311.866 310.651,308.533 312,304.5C 312.715,298.697 314.382,293.364 317,288.5C 311.852,296.93 306.519,305.263 301,313.5C 294.717,320.789 287.551,326.956 279.5,332C 277.598,333.301 275.598,333.968 273.5,334C 276.339,328.819 279.006,323.653 281.5,318.5C 288.964,310.583 294.131,301.25 297,290.5C 299.918,283.987 304.251,278.654 310,274.5C 310.167,274.833 310.333,275.167 310.5,275.5C 307.733,281.226 306.567,287.226 307,293.5C 311.827,287.337 315.827,280.671 319,273.5C 317.511,262.925 316.178,252.258 315,241.5C 313.974,237.278 311.807,233.778 308.5,231C 313.321,231.285 317.154,233.452 320,237.5C 319.186,229.205 315.686,222.205 309.5,216.5 Z"/></g>
<g><path style="opacity:1" fill="#f1f1f1" d="M 211.5,231.5 C 217.923,230.298 223.257,232.131 227.5,237C 220.54,239.944 214.54,238.611 209.5,233C 210.416,232.722 211.082,232.222 211.5,231.5 Z"/></g>
<g><path style="opacity:1" fill="#f0f0f0" d="M 279.5,231.5 C 283.273,231.263 286.94,231.763 290.5,233C 285.553,238.159 279.553,239.826 272.5,238C 271.167,237.333 271.167,236.667 272.5,236C 274.898,234.476 277.231,232.976 279.5,231.5 Z"/></g>
<g><path style="opacity:1" fill="#f3eee3" d="M 321.5,230.5 C 324.942,233.385 326.776,237.051 327,241.5C 323.611,238.611 321.778,234.944 321.5,230.5 Z"/></g>
<g><path style="opacity:1" fill="#b4954f" d="M 105.5,235.5 C 108.273,235.812 110.607,236.978 112.5,239C 109.673,238.584 106.84,239.084 104,240.5C 101.915,239.876 100.082,238.876 98.5,237.5C 100.279,235.656 102.612,234.99 105.5,235.5 Z"/></g>
<g><path style="opacity:1" fill="#ba9d5d" d="M 392.5,234.5 C 397.157,233.994 401.49,234.827 405.5,237C 404.328,237.353 403.162,237.187 402,236.5C 399.558,237.97 397.058,239.304 394.5,240.5C 392.058,239.964 389.725,239.131 387.5,238C 389.233,236.811 390.9,235.644 392.5,234.5 Z"/></g>
<g><path style="opacity:1" fill="#d4c299" d="M 105.5,235.5 C 102.612,234.99 100.279,235.656 98.5,237.5C 96.6862,237.228 94.6862,237.061 92.5,237C 96.7415,234.473 101.075,233.973 105.5,235.5 Z"/></g>
<g><path style="opacity:1" fill="#b79955" d="M 199.5,238.5 C 201.288,238.215 202.955,238.548 204.5,239.5C 206.024,241.858 208.024,243.691 210.5,245C 214.833,245.333 219.167,245.667 223.5,246C 221.12,247.353 218.62,248.519 216,249.5C 213.21,248.868 210.377,248.702 207.5,249C 208.167,248.333 208.833,247.667 209.5,247C 204.139,247.401 199.473,245.901 195.5,242.5C 196.867,241.16 198.2,239.827 199.5,238.5 Z"/></g>
<g><path style="opacity:1" fill="#b69854" d="M 294.5,238.5 C 298.137,238.487 301.137,239.82 303.5,242.5C 299.474,245.765 294.807,247.265 289.5,247C 290.167,247.667 290.833,248.333 291.5,249C 288.623,248.702 285.79,248.868 283,249.5C 280.44,248.47 277.94,247.303 275.5,246C 279.833,245.667 284.167,245.333 288.5,245C 291.409,243.594 293.409,241.428 294.5,238.5 Z"/></g>
<g><path style="opacity:1" fill="#b59752" d="M 88.5,240.5 C 89.0082,242.842 90.0082,245.009 91.5,247C 89.1311,247.536 87.1311,248.703 85.5,250.5C 84.8416,246.797 85.8416,243.463 88.5,240.5 Z"/></g>
<g><path style="opacity:1" fill="#b3944e" d="M 408.5,239.5 C 412.043,242.287 413.543,245.954 413,250.5C 411.167,249.333 409.333,248.167 407.5,247C 408.435,244.619 408.768,242.119 408.5,239.5 Z"/></g>
<g><path style="opacity:1" fill="#b49650" d="M 114.5,242.5 C 117.943,247.404 118.443,252.737 116,258.5C 114.971,255.61 113.805,252.776 112.5,250C 113.871,247.681 114.538,245.181 114.5,242.5 Z"/></g>
<g><path style="opacity:1" fill="#b99c5a" d="M 382.5,243.5 C 383.933,245.519 385.267,247.686 386.5,250C 384.076,252.957 382.909,256.124 383,259.5C 379.945,254.27 379.778,248.936 382.5,243.5 Z"/></g>
<g><path style="opacity:1" fill="#b09148" d="M 396.5,244.5 C 398.555,245.948 400.722,247.281 403,248.5C 403.43,251.192 403.263,253.859 402.5,256.5C 400.181,257.167 397.847,257.334 395.5,257C 394.167,255.333 392.833,253.667 391.5,252C 393.415,249.6 395.081,247.1 396.5,244.5 Z"/></g>
<g><path style="opacity:1" fill="#b19249" d="M 100.5,245.5 C 106.904,248.921 107.737,253.254 103,258.5C 100.876,257.773 98.7094,257.106 96.5,256.5C 95.5742,253.956 94.5742,251.456 93.5,249C 96.1739,248.33 98.5073,247.163 100.5,245.5 Z"/></g>
<g><path style="opacity:1" fill="#bca061" d="M 84.5,253.5 C 85.7693,257.26 88.4359,259.426 92.5,260C 91.9034,261.628 92.2367,263.295 93.5,265C 91.5826,264.973 89.916,264.139 88.5,262.5C 86.1866,259.879 84.8533,256.879 84.5,253.5 Z"/></g>
<g><path style="opacity:1" fill="#b89a58" d="M 411.5,257.5 C 411.821,260.953 410.154,263.62 406.5,265.5C 405.769,263.599 405.769,261.599 406.5,259.5C 408.553,259.598 410.22,258.931 411.5,257.5 Z"/></g>
<g><path style="opacity:1" fill="#b2934b" d="M 105.5,262.5 C 107.857,262.337 110.19,262.503 112.5,263C 108.88,266.648 104.547,268.314 99.5,268C 101.996,266.669 103.996,264.836 105.5,262.5 Z"/></g>
<g><path style="opacity:1" fill="#b59752" d="M 392.5,261.5 C 393.69,263.355 395.023,265.188 396.5,267C 392.152,267.664 388.486,266.331 385.5,263C 388.036,262.814 390.369,262.314 392.5,261.5 Z"/></g>
<g><path style="opacity:1" fill="#ebe2ce" d="M 322.5,271.5 C 323.586,271.62 324.253,272.287 324.5,273.5C 323.639,276.527 322.139,279.194 320,281.5C 320.897,278.284 321.731,274.951 322.5,271.5 Z"/></g>
<g><path style="opacity:1" fill="#101010" d="M 242.5,278.5 C 248.762,277.872 254.762,278.705 260.5,281C 262.869,283.938 263.036,287.104 261,290.5C 253.591,295.512 246.091,295.679 238.5,291C 234.905,285.083 236.238,280.916 242.5,278.5 Z"/></g>
<g><path style="opacity:1" fill="#d4d4d4" d="M 243.5,280.5 C 247.967,280.133 252.3,280.633 256.5,282C 251.427,282.442 246.427,282.776 241.5,283C 242.381,282.292 243.047,281.458 243.5,280.5 Z"/></g>
<g><path style="opacity:1" fill="#747474" d="M 221.5,292.5 C 220.833,290.167 220.167,287.833 219.5,285.5C 219.709,284.078 220.209,282.745 221,281.5C 221.499,285.152 221.665,288.818 221.5,292.5 Z"/></g>
<g><path style="opacity:1" fill="#adadad" d="M 279.5,280.5 C 281.245,283.885 281.745,287.552 281,291.5C 280.489,289.122 279.822,286.788 279,284.5C 278.819,287.695 278.319,290.695 277.5,293.5C 277.334,289.486 277.501,285.486 278,281.5C 279.107,282.712 279.607,282.379 279.5,280.5 Z"/></g>
<g><path style="opacity:1" fill="#b89b59" d="M 152.5,287.5 C 154.328,292.448 156.828,297.114 160,301.5C 161.647,305.422 162.647,309.422 163,313.5C 159.919,307.669 156.585,302.002 153,296.5C 152.502,293.518 152.335,290.518 152.5,287.5 Z"/></g>
<g><path style="opacity:1" fill="#989898" d="M 276.5,293.5 C 276.5,294.167 276.833,294.5 277.5,294.5C 276.955,296.593 276.122,298.593 275,300.5C 274.725,297.942 275.225,295.608 276.5,293.5 Z"/></g>
<g><path style="opacity:1" fill="#aa8d48" d="M 230.5,304.5 C 236.344,309.021 242.678,309.688 249.5,306.5C 256.146,309.669 262.313,309.002 268,304.5C 268.927,308.449 268.094,311.949 265.5,315C 254.79,320.875 244.123,320.875 233.5,315C 231.071,311.959 230.071,308.459 230.5,304.5 Z"/></g>
<g><path style="opacity:1" fill="#f5f0e6" d="M 302.5,303.5 C 303.525,303.897 303.692,304.563 303,305.5C 297.707,313.127 291.374,319.794 284,325.5C 283.333,324.833 283.333,324.167 284,323.5C 289.326,316.01 295.492,309.343 302.5,303.5 Z"/></g>
<g><path style="opacity:1" fill="#f4efe5" d="M 263.5,310.5 C 265.465,310.948 265.798,311.948 264.5,313.5C 262.544,314.548 260.544,315.048 258.5,315C 260.618,313.951 262.284,312.451 263.5,310.5 Z"/></g>
<g><path style="opacity:1" fill="#4b412d" d="M 332.5,325.5 C 331.92,327.749 330.587,329.415 328.5,330.5C 329.08,328.251 330.413,326.585 332.5,325.5 Z"/></g>
<g><path style="opacity:1" fill="#f7f7f7" d="M 248.5,336.5 C 252.627,338.66 256.96,338.994 261.5,337.5C 263.705,349.206 259.705,358.206 249.5,364.5C 241.684,359.357 237.351,352.19 236.5,343C 236.833,341.167 237.167,339.333 237.5,337.5C 240.773,338.585 244.106,338.752 247.5,338C 248.056,337.617 248.389,337.117 248.5,336.5 Z"/></g>
<g><path style="opacity:1" fill="#a68b4c" d="M 292.5,350.5 C 289.759,355.523 285.759,357.856 280.5,357.5C 286.162,351.67 291.662,345.67 297,339.5C 296.088,343.335 294.588,347.001 292.5,350.5 Z"/></g>
<g><path style="opacity:1" fill="#eeeeee" d="M 223.5,346.5 C 226.127,347.105 228.793,347.605 231.5,348C 234.138,356.646 239.138,363.646 246.5,369C 238.447,366.979 231.947,362.479 227,355.5C 225.259,352.691 224.092,349.691 223.5,346.5 Z"/></g>
<g><path style="opacity:1" fill="#ebebeb" d="M 270.5,346.5 C 272.527,346.338 274.527,346.505 276.5,347C 271.567,357.944 263.567,365.277 252.5,369C 256.105,365.64 259.605,362.14 263,358.5C 265.11,355.508 266.443,352.175 267,348.5C 268.302,347.915 269.469,347.249 270.5,346.5 Z"/></g>
</svg>
