<?xml version="1.0" encoding="UTF-8"?>
<!DOCTYPE svg PUBLIC "-//W3C//DTD SVG 1.1//EN" "http://www.w3.org/Graphics/SVG/1.1/DTD/svg11.dtd">
<svg xmlns="http://www.w3.org/2000/svg" version="1.1" width="500px" height="500px" style="shape-rendering:geometricPrecision; text-rendering:geometricPrecision; image-rendering:optimizeQuality; fill-rule:evenodd; clip-rule:evenodd" xmlns:xlink="http://www.w3.org/1999/xlink">
<g><path style="opacity:0.999" fill="#060002" d="M 399.5,68.5 C 399.918,69.2216 400.584,69.7216 401.5,70C 415.742,72.7885 430.075,74.9552 444.5,76.5C 444.769,98.868 444.102,121.201 442.5,143.5C 442.501,149.011 442.834,154.344 443.5,159.5C 441.084,249.61 411.917,329.61 356,399.5C 329.785,428.731 300.285,453.897 267.5,475C 261.513,478.244 255.346,481.077 249,483.5C 235.649,477.242 222.816,470.075 210.5,462C 143.257,412.404 97.4233,347.571 73,267.5C 62.4425,232.889 56.6092,197.556 55.5,161.5C 56.2891,161.217 56.9558,160.717 57.5,160C 54.9784,132.608 54.1451,105.108 55,77.5C 57.0693,76.7362 59.236,76.2362 61.5,76C 62.056,75.6174 62.3893,75.1174 62.5,74.5C 126.691,67.6004 187.025,48.7671 243.5,18C 245.581,17.1313 247.747,16.6313 250,16.5C 270.383,25.853 290.883,35.0197 311.5,44C 340.124,55.1588 369.458,63.3255 399.5,68.5 Z"/></g>
<g><path style="opacity:1" fill="#020000" d="M 425.5,93.5 C 424.499,129.514 422.999,165.514 421,201.5C 408.344,301.346 361.844,381.18 281.5,441C 271.962,446.601 262.296,451.935 252.5,457C 249.5,457.667 246.5,457.667 243.5,457C 234.665,451.415 225.665,446.081 216.5,441C 206.434,431.995 196.1,423.495 185.5,415.5C 127.333,361.362 92.1665,294.695 80,215.5C 79.2376,208.341 78.4043,201.341 77.5,194.5C 77.5,193.5 77.5,192.5 77.5,191.5C 76.6079,173.673 75.6079,156.006 74.5,138.5C 73.5485,123.536 73.2152,108.536 73.5,93.5C 104.828,89.3344 135.828,83.1677 166.5,75C 184.196,69.1042 201.53,62.4375 218.5,55C 228.867,49.9833 239.2,44.8167 249.5,39.5C 275.941,53.2164 303.275,65.0497 331.5,75C 362.325,83.6382 393.659,89.8048 425.5,93.5 Z"/></g>
<g><path style="opacity:1" fill="#760b26" d="M 429.5,91.5 C 427.517,91.1568 426.183,91.8235 425.5,93.5C 393.659,89.8048 362.325,83.6382 331.5,75C 303.275,65.0497 275.941,53.2164 249.5,39.5C 239.2,44.8167 228.867,49.9833 218.5,55C 201.53,62.4375 184.196,69.1042 166.5,75C 135.828,83.1677 104.828,89.3344 73.5,93.5C 73.1788,91.9519 72.1788,91.2852 70.5,91.5C 70.5,103.5 70.5,115.5 70.5,127.5C 69.5048,115.345 69.1714,103.011 69.5,90.5C 99.8512,86.4563 129.851,80.623 159.5,73C 190.511,62.5088 220.511,50.0088 249.5,35.5C 266.84,42.9973 284.173,50.8307 301.5,59C 321.177,66.4478 341.177,73.1144 361.5,79C 383.301,83.6291 405.301,87.2958 427.5,90C 428.416,90.2784 429.082,90.7784 429.5,91.5 Z"/></g>
<g><path style="opacity:0.719" fill="#1a000b" d="M 399.5,68.5 C 414.894,70.461 430.227,72.7943 445.5,75.5C 445.588,103.52 444.922,131.52 443.5,159.5C 442.834,154.344 442.501,149.011 442.5,143.5C 444.102,121.201 444.769,98.868 444.5,76.5C 430.075,74.9552 415.742,72.7885 401.5,70C 400.584,69.7216 399.918,69.2216 399.5,68.5 Z"/></g>
<g><path style="opacity:1" fill="#8a112b" d="M 383.5,143.5 C 384.833,164.833 384.833,186.167 383.5,207.5C 383.5,208.5 383.5,209.5 383.5,210.5C 382.849,211.091 382.182,211.757 381.5,212.5C 380.833,197.339 380.167,182.339 379.5,167.5C 379.5,166.5 379.5,165.5 379.5,164.5C 379.5,163.833 379.5,163.167 379.5,162.5C 379.607,156.12 379.107,149.787 378,143.5C 377.801,141.598 376.967,140.098 375.5,139C 334.898,126.188 294.231,113.688 253.5,101.5C 212.09,113.687 170.757,126.187 129.5,139C 128.079,145.042 127.412,151.209 127.5,157.5C 126.668,174.995 126.168,192.662 126,210.5C 124.796,204.247 124.129,197.914 124,191.5C 123.5,179.505 123.333,167.505 123.5,155.5C 123.5,152.5 123.5,149.5 123.5,146.5C 123.335,143.15 123.502,139.817 124,136.5C 124.5,136 125,135.5 125.5,135C 168.136,122.079 210.636,108.912 253,95.5C 296.441,108.778 339.941,122.111 383.5,135.5C 383.5,138.167 383.5,140.833 383.5,143.5 Z"/></g>
<g><path style="opacity:0.156" fill="#1a000c" d="M 62.5,74.5 C 62.3893,75.1174 62.056,75.6174 61.5,76C 59.236,76.2362 57.0693,76.7362 55,77.5C 54.1451,105.108 54.9784,132.608 57.5,160C 56.9558,160.717 56.2891,161.217 55.5,161.5C 53.899,133.186 53.399,104.853 54,76.5C 56.6865,75.287 59.5198,74.6203 62.5,74.5 Z"/></g>
<g><path style="opacity:1" fill="#980627" d="M 429.5,91.5 C 429.833,91.5 430.167,91.5 430.5,91.5C 430.5,92.8333 430.5,94.1667 430.5,95.5C 429.883,95.6107 429.383,95.944 429,96.5C 428.974,114.59 428.307,132.59 427,150.5C 426.832,131.329 426.332,112.329 425.5,93.5C 426.183,91.8235 427.517,91.1568 429.5,91.5 Z"/></g>
<g><path style="opacity:1" fill="#53071a" d="M 430.5,91.5 C 431.166,97.3238 431.5,103.324 431.5,109.5C 431.649,119.045 430.982,128.378 429.5,137.5C 429.577,123.492 429.911,109.492 430.5,95.5C 430.5,94.1667 430.5,92.8333 430.5,91.5 Z"/></g>
<g><path style="opacity:1" fill="#810d27" d="M 73.5,93.5 C 73.2152,108.536 73.5485,123.536 74.5,138.5C 75.1464,151.212 74.4797,163.545 72.5,175.5C 71.1687,159.531 70.502,143.531 70.5,127.5C 70.5,115.5 70.5,103.5 70.5,91.5C 72.1788,91.2852 73.1788,91.9519 73.5,93.5 Z"/></g>
<g><path style="opacity:1" fill="#040404" d="M 379.5,162.5 C 379.5,163.167 379.5,163.833 379.5,164.5C 374.081,184.425 362.414,199.592 344.5,210C 337.792,213.905 330.792,217.238 323.5,220C 327.504,220.144 331.504,219.811 335.5,219C 344.465,216.507 353.465,214.507 362.5,213C 346.794,229.686 327.461,239.186 304.5,241.5C 309.443,243.153 314.443,244.653 319.5,246C 313.57,248.992 307.237,250.492 300.5,250.5C 295.456,250.173 290.456,250.506 285.5,251.5C 285.624,252.107 285.957,252.44 286.5,252.5C 289.843,253.059 292.843,254.392 295.5,256.5C 288.5,257.167 281.5,257.833 274.5,258.5C 275.605,259.892 276.939,261.059 278.5,262C 274.833,262.333 271.167,262.667 267.5,263C 268.167,264.333 268.833,265.667 269.5,267C 268.451,267.492 267.451,267.326 266.5,266.5C 264.963,271.857 265.796,276.857 269,281.5C 271.692,284.692 274.192,288.025 276.5,291.5C 274.229,292.363 271.895,292.363 269.5,291.5C 268.791,290.596 267.791,290.263 266.5,290.5C 266.5,294.833 266.5,299.167 266.5,303.5C 262.614,302.617 259.947,300.283 258.5,296.5C 256.893,300.162 255.393,303.829 254,307.5C 251.434,303.941 249.768,299.941 249,295.5C 247.641,299.526 244.974,302.193 241,303.5C 240.501,299.514 240.334,295.514 240.5,291.5C 236.796,291.724 233.129,291.89 229.5,292C 237.683,285.467 242.017,276.967 242.5,266.5C 241.178,266.33 240.011,266.663 239,267.5C 238.405,266.101 238.572,264.768 239.5,263.5C 236.215,262.676 232.882,262.176 229.5,262C 230.373,260.955 231.373,260.122 232.5,259.5C 233.043,259.44 233.376,259.107 233.5,258.5C 230.572,257.516 227.572,257.183 224.5,257.5C 219.786,257.827 215.12,257.493 210.5,256.5C 213.706,254.731 217.039,253.231 220.5,252C 213.229,250.818 205.896,250.151 198.5,250C 194.581,249.25 190.915,247.917 187.5,246C 192.536,244.599 197.536,243.099 202.5,241.5C 180.473,238.986 161.807,229.819 146.5,214C 147,213.833 147.5,213.667 148,213.5C 161.118,216.602 174.285,219.102 187.5,221C 164.168,214.602 146.335,201.102 134,180.5C 131.094,175.122 129.427,169.456 129,163.5C 149.505,182.843 173.338,196.677 200.5,205C 209.466,207.658 218.466,210.158 227.5,212.5C 227.833,213 228.167,213.5 228.5,214C 226.011,218.733 225.511,223.566 227,228.5C 228.466,230.325 230.299,230.825 232.5,230C 234.954,223.597 238.787,222.763 244,227.5C 244.973,229.392 245.64,231.392 246,233.5C 247.167,225.333 243.667,221.833 235.5,223C 233.19,224.637 231.69,226.804 231,229.5C 229.16,227.835 228.493,225.835 229,223.5C 231.911,221.84 235.078,220.674 238.5,220C 239.743,218.846 240.743,217.512 241.5,216C 245.749,214.874 250.082,214.208 254.5,214C 250.52,212.126 246.52,212.126 242.5,214C 238.94,216.403 235.273,218.57 231.5,220.5C 230.833,220.167 230.167,219.833 229.5,219.5C 234.019,211.042 241.019,207.876 250.5,210C 256.42,211.76 261.754,214.593 266.5,218.5C 267.648,216.851 268.981,215.351 270.5,214C 305.14,209.129 336.473,196.463 364.5,176C 369.669,171.663 374.669,167.163 379.5,162.5 Z"/></g>
<g><path style="opacity:1" fill="#3c010b" d="M 123.5,146.5 C 123.5,149.5 123.5,152.5 123.5,155.5C 122.506,165.987 122.172,176.654 122.5,187.5C 121.834,182.177 121.501,176.677 121.5,171C 121.327,162.612 121.994,154.445 123.5,146.5 Z"/></g>
<g><path style="opacity:1" fill="#fdfdfd" d="M 379.5,162.5 C 374.669,167.163 369.669,171.663 364.5,176C 336.473,196.463 305.14,209.129 270.5,214C 268.981,215.351 267.648,216.851 266.5,218.5C 261.754,214.593 256.42,211.76 250.5,210C 241.019,207.876 234.019,211.042 229.5,219.5C 230.167,219.833 230.833,220.167 231.5,220.5C 235.273,218.57 238.94,216.403 242.5,214C 246.52,212.126 250.52,212.126 254.5,214C 250.082,214.208 245.749,214.874 241.5,216C 240.743,217.512 239.743,218.846 238.5,220C 235.078,220.674 231.911,221.84 229,223.5C 228.493,225.835 229.16,227.835 231,229.5C 231.69,226.804 233.19,224.637 235.5,223C 243.667,221.833 247.167,225.333 246,233.5C 245.64,231.392 244.973,229.392 244,227.5C 238.787,222.763 234.954,223.597 232.5,230C 230.299,230.825 228.466,230.325 227,228.5C 225.511,223.566 226.011,218.733 228.5,214C 228.167,213.5 227.833,213 227.5,212.5C 218.466,210.158 209.466,207.658 200.5,205C 173.338,196.677 149.505,182.843 129,163.5C 129.427,169.456 131.094,175.122 134,180.5C 146.335,201.102 164.168,214.602 187.5,221C 174.285,219.102 161.118,216.602 148,213.5C 147.5,213.667 147,213.833 146.5,214C 161.807,229.819 180.473,238.986 202.5,241.5C 197.536,243.099 192.536,244.599 187.5,246C 190.915,247.917 194.581,249.25 198.5,250C 205.896,250.151 213.229,250.818 220.5,252C 217.039,253.231 213.706,254.731 210.5,256.5C 215.12,257.493 219.786,257.827 224.5,257.5C 227.167,258.167 229.833,258.833 232.5,259.5C 231.373,260.122 230.373,260.955 229.5,262C 232.882,262.176 236.215,262.676 239.5,263.5C 238.572,264.768 238.405,266.101 239,267.5C 240.011,266.663 241.178,266.33 242.5,266.5C 242.017,276.967 237.683,285.467 229.5,292C 233.129,291.89 236.796,291.724 240.5,291.5C 240.334,295.514 240.501,299.514 241,303.5C 244.974,302.193 247.641,299.526 249,295.5C 249.768,299.941 251.434,303.941 254,307.5C 255.393,303.829 256.893,300.162 258.5,296.5C 259.947,300.283 262.614,302.617 266.5,303.5C 266.869,299.232 267.869,295.232 269.5,291.5C 271.895,292.363 274.229,292.363 276.5,291.5C 274.192,288.025 271.692,284.692 269,281.5C 265.796,276.857 264.963,271.857 266.5,266.5C 267.451,267.326 268.451,267.492 269.5,267C 268.833,265.667 268.167,264.333 267.5,263C 271.167,262.667 274.833,262.333 278.5,262C 276.939,261.059 275.605,259.892 274.5,258.5C 281.5,257.833 288.5,257.167 295.5,256.5C 292.843,254.392 289.843,253.059 286.5,252.5C 291.167,251.833 295.833,251.167 300.5,250.5C 307.237,250.492 313.57,248.992 319.5,246C 314.443,244.653 309.443,243.153 304.5,241.5C 327.461,239.186 346.794,229.686 362.5,213C 353.465,214.507 344.465,216.507 335.5,219C 331.504,219.811 327.504,220.144 323.5,220C 330.792,217.238 337.792,213.905 344.5,210C 362.414,199.592 374.081,184.425 379.5,164.5C 379.5,165.5 379.5,166.5 379.5,167.5C 382.277,217.052 372.11,263.719 349,307.5C 326.503,344.424 294.503,369.09 253,381.5C 202.325,365.156 166.658,332.489 146,283.5C 130.595,242.905 124.428,200.905 127.5,157.5C 127.412,151.209 128.079,145.042 129.5,139C 170.757,126.187 212.09,113.687 253.5,101.5C 294.231,113.688 334.898,126.188 375.5,139C 376.967,140.098 377.801,141.598 378,143.5C 379.107,149.787 379.607,156.12 379.5,162.5 Z"/></g>
<g><path style="opacity:1" fill="#5a081c" d="M 383.5,143.5 C 384.989,153.793 385.655,164.293 385.5,175C 385.639,186.038 384.972,196.871 383.5,207.5C 384.833,186.167 384.833,164.833 383.5,143.5 Z"/></g>
<g><path style="opacity:1" fill="#66091e" d="M 74.5,138.5 C 75.6079,156.006 76.6079,173.673 77.5,191.5C 76.8763,189.166 76.043,186.833 75,184.5C 74.6373,194.171 74.804,203.838 75.5,213.5C 73.9448,201.026 72.9448,188.359 72.5,175.5C 74.4797,163.545 75.1464,151.212 74.5,138.5 Z"/></g>
<g><path style="opacity:1" fill="#870d2a" d="M 77.5,191.5 C 77.5,192.5 77.5,193.5 77.5,194.5C 77.325,201.525 77.6583,208.525 78.5,215.5C 78.3333,216.833 78.1667,218.167 78,219.5C 77.3918,217.934 76.5585,216.6 75.5,215.5C 75.5,214.833 75.5,214.167 75.5,213.5C 74.804,203.838 74.6373,194.171 75,184.5C 76.043,186.833 76.8763,189.166 77.5,191.5 Z"/></g>
<g><path style="opacity:1" fill="#830a26" d="M 425.5,93.5 C 426.332,112.329 426.832,131.329 427,150.5C 428.307,132.59 428.974,114.59 429,96.5C 429.383,95.944 429.883,95.6107 430.5,95.5C 429.911,109.492 429.577,123.492 429.5,137.5C 431.67,206.795 417.17,272.128 386,333.5C 374.931,350.627 363.597,367.627 352,384.5C 341.805,395.36 331.639,406.193 321.5,417C 312.249,424.905 302.915,432.905 293.5,441C 280.205,450.652 266.205,458.986 251.5,466C 249.833,466.667 248.167,466.667 246.5,466C 222.443,454.149 201.11,438.649 182.5,419.5C 181.058,418.18 180.392,416.514 180.5,414.5C 182.216,414.629 183.883,414.962 185.5,415.5C 196.1,423.495 206.434,431.995 216.5,441C 225.665,446.081 234.665,451.415 243.5,457C 246.5,457.667 249.5,457.667 252.5,457C 262.296,451.935 271.962,446.601 281.5,441C 361.844,381.18 408.344,301.346 421,201.5C 422.999,165.514 424.499,129.514 425.5,93.5 Z"/></g>
<g><path style="opacity:1" fill="#89172e" d="M 123.5,155.5 C 123.333,167.505 123.5,179.505 124,191.5C 124.129,197.914 124.796,204.247 126,210.5C 126.168,192.662 126.668,174.995 127.5,157.5C 124.428,200.905 130.595,242.905 146,283.5C 166.658,332.489 202.325,365.156 253,381.5C 294.503,369.09 326.503,344.424 349,307.5C 372.11,263.719 382.277,217.052 379.5,167.5C 380.167,182.339 380.833,197.339 381.5,212.5C 382.182,211.757 382.849,211.091 383.5,210.5C 380.049,250.697 367.549,287.697 346,321.5C 326.128,348.037 300.961,367.87 270.5,381C 264.913,382.917 259.246,384.751 253.5,386.5C 201.66,370.156 164.827,337.156 143,287.5C 129.668,255.529 122.835,222.195 122.5,187.5C 122.172,176.654 122.506,165.987 123.5,155.5 Z"/></g>
<g><path style="opacity:1" fill="#7b7b7b" d="M 269.5,291.5 C 267.869,295.232 266.869,299.232 266.5,303.5C 266.5,299.167 266.5,294.833 266.5,290.5C 267.791,290.263 268.791,290.596 269.5,291.5 Z"/></g>
<g><path style="opacity:1" fill="#7f7f7f" d="M 224.5,257.5 C 227.572,257.183 230.572,257.516 233.5,258.5C 233.376,259.107 233.043,259.44 232.5,259.5C 229.833,258.833 227.167,258.167 224.5,257.5 Z"/></g>
<g><path style="opacity:1" fill="#424242" d="M 300.5,250.5 C 295.833,251.167 291.167,251.833 286.5,252.5C 285.957,252.44 285.624,252.107 285.5,251.5C 290.456,250.506 295.456,250.173 300.5,250.5 Z"/></g>
<g><path style="opacity:1" fill="#7e0b26" d="M 77.5,194.5 C 78.4043,201.341 79.2376,208.341 80,215.5C 92.1665,294.695 127.333,361.362 185.5,415.5C 183.883,414.962 182.216,414.629 180.5,414.5C 180.392,416.514 181.058,418.18 182.5,419.5C 159.06,399.571 139.894,376.238 125,349.5C 110.037,327.633 98.7038,303.967 91,278.5C 84.633,257.842 79.4663,236.842 75.5,215.5C 76.5585,216.6 77.3918,217.934 78,219.5C 78.1667,218.167 78.3333,216.833 78.5,215.5C 77.6583,208.525 77.325,201.525 77.5,194.5 Z"/></g>
<g><path style="opacity:1" fill="#ececec" d="M 248.5,393.5 C 249.497,393.47 250.164,393.97 250.5,395C 251.401,397.871 252.401,400.704 253.5,403.5C 257.796,404.328 262.129,404.828 266.5,405C 262.941,407.606 259.607,410.44 256.5,413.5C 258.139,417.049 258.972,420.716 259,424.5C 255.922,422.045 252.756,419.711 249.5,417.5C 246.244,419.711 243.078,422.045 240,424.5C 240.667,420.5 241.333,416.5 242,412.5C 238.833,410 235.667,407.5 232.5,405C 236.871,404.828 241.204,404.328 245.5,403.5C 246.909,400.273 247.909,396.94 248.5,393.5 Z"/></g>
<g><path style="opacity:1" fill="#eeeeee" d="M 212.5,399.5 C 214.834,401.176 215.834,403.509 215.5,406.5C 218.187,406.336 220.854,406.503 223.5,407C 222.271,408.529 220.771,409.696 219,410.5C 219.198,413.235 219.031,415.901 218.5,418.5C 216.833,417.167 215.167,415.833 213.5,414.5C 211.424,416.288 209.257,417.954 207,419.5C 207.149,417.187 207.649,414.853 208.5,412.5C 207.046,410.543 205.38,408.71 203.5,407C 209.286,407.684 212.286,405.184 212.5,399.5 Z"/></g>
<g><path style="opacity:1" fill="#ececec" d="M 285.5,398.5 C 286.67,400.65 287.67,402.984 288.5,405.5C 296.004,405.522 296.838,407.189 291,410.5C 290.93,413.593 291.264,416.593 292,419.5C 289.743,417.954 287.576,416.288 285.5,414.5C 283.5,416.167 281.5,417.833 279.5,419.5C 279.167,419.167 278.833,418.833 278.5,418.5C 279.96,415.971 280.46,413.304 280,410.5C 278.229,409.696 276.729,408.529 275.5,407C 278.146,406.503 280.813,406.336 283.5,406.5C 283.56,403.659 284.226,400.993 285.5,398.5 Z"/></g>
</svg>
