<?xml version="1.0" encoding="UTF-8"?>
<!DOCTYPE svg PUBLIC "-//W3C//DTD SVG 1.1//EN" "http://www.w3.org/Graphics/SVG/1.1/DTD/svg11.dtd">
<svg xmlns="http://www.w3.org/2000/svg" version="1.1" width="500px" height="500px" style="shape-rendering:geometricPrecision; text-rendering:geometricPrecision; image-rendering:optimizeQuality; fill-rule:evenodd; clip-rule:evenodd" xmlns:xlink="http://www.w3.org/1999/xlink">
<g><path style="opacity:0.314" fill="#7f7e7b" d="M 281.5,13.5 C 284.829,13.2153 287.829,13.8819 290.5,15.5C 287.273,15.3239 284.273,14.6572 281.5,13.5 Z"/></g>
<g><path style="opacity:0.812" fill="#6a6764" d="M 215.5,13.5 C 213.485,14.9238 211.152,15.5905 208.5,15.5C 210.515,14.0762 212.848,13.4095 215.5,13.5 Z"/></g>
<g><path style="opacity:0.996" fill="#0f0d0c" d="M 281.5,13.5 C 284.273,14.6572 287.273,15.3239 290.5,15.5C 364.586,31.1144 417.753,73.1144 450,141.5C 477.608,209.07 474.275,275.07 440,339.5C 396.461,410.04 332.961,446.707 249.5,449.5C 173.702,447.523 113.536,416.19 69,355.5C 25.3533,287.695 18.6866,216.362 49,141.5C 81.2767,73.1054 134.443,31.1054 208.5,15.5C 211.152,15.5905 213.485,14.9238 215.5,13.5C 237.511,10.8646 259.511,10.8646 281.5,13.5 Z"/></g>
<g><path style="opacity:1" fill="#9e7852" d="M 231.5,19.5 C 321.378,16.3413 389.211,53.008 435,129.5C 468.966,196.773 468.966,264.106 435,331.5C 388.365,409.076 319.532,445.576 228.5,441C 146.271,429.41 88.1046,385.91 54,310.5C 25.5331,233.092 36.1997,161.759 86,96.5C 124.322,51.7538 172.822,26.0871 231.5,19.5 Z"/></g>
<g><path style="opacity:1" fill="#0c0402" d="M 229.5,25.5 C 301.827,21.2039 361.661,46.2039 409,100.5C 453.748,158.582 465.748,222.915 445,293.5C 415.355,375.091 357.521,422.257 271.5,435C 195.693,440.527 133.86,414.027 86,355.5C 42.2876,293.819 32.9543,227.152 58,155.5C 84.3129,92.5166 130.146,51.35 195.5,32C 206.828,29.0597 218.162,26.893 229.5,25.5 Z"/></g>
<g><path style="opacity:1" fill="#0c0402" d="M 387.5,273.5 C 365.852,332.296 323.852,365.796 261.5,374C 200.36,376.52 154.193,351.687 123,299.5C 114.558,283.677 109.058,267.01 106.5,249.5C 101.728,192.234 122.062,146.401 167.5,112C 216.315,81.1676 266.649,78.5009 318.5,104C 362.805,129.741 387.639,168.241 393,219.5C 393.871,237.787 392.038,255.787 387.5,273.5 Z"/></g>
<g><path style="opacity:1" fill="#9d7853" d="M 234.5,90.5 C 295.634,87.1432 341.8,111.477 373,163.5C 397.308,214.023 394.641,263.023 365,310.5C 332.123,354.035 288.29,373.868 233.5,370C 177.768,361.729 139.268,331.562 118,279.5C 98.3668,217.094 112.867,164.26 161.5,121C 183.067,104.216 207.401,94.0498 234.5,90.5 Z"/></g>
<g><path style="opacity:1" fill="#070201" d="M 233.5,95.5 C 293.422,91.7052 338.589,115.372 369,166.5C 393.769,219.005 389.103,268.672 355,315.5C 323.054,352.494 282.554,368.994 233.5,365C 187.436,358.236 152.936,334.736 130,294.5C 101.697,232.92 111.197,178.087 158.5,130C 180.247,111.46 205.247,99.9602 233.5,95.5 Z"/></g>
<g><path style="opacity:1" fill="#38281c" d="M 235.5,103.5 C 292.328,100.819 334.828,123.819 363,172.5C 385.151,221.888 380.151,268.222 348,311.5C 309.518,353.806 262.685,366.973 207.5,351C 148.014,325.555 119.847,280.388 123,215.5C 134.604,151.982 172.104,114.649 235.5,103.5 Z"/></g>
<g><path style="opacity:1" fill="#38281c" d="M 446.5,268.5 C 447.905,258.789 448.571,249.289 448.5,240C 447.953,239.075 447.287,238.242 446.5,237.5C 442.245,240.277 440.578,238.944 441.5,233.5C 442.688,224.857 439.022,221.023 430.5,222C 427.172,223.479 424.506,225.645 422.5,228.5C 422.954,225.86 424.121,223.527 426,221.5C 426.579,217.797 426.412,214.131 425.5,210.5C 425.453,207.072 424.287,204.072 422,201.5C 417.877,203.077 415.71,206.077 415.5,210.5C 413.799,210.966 412.299,210.966 411,210.5C 408.935,212.874 409.101,215.04 411.5,217C 408.956,218.092 406.289,218.759 403.5,219C 402.333,219.5 401.5,220.333 401,221.5C 399.989,220.663 398.822,220.33 397.5,220.5C 397.543,224.893 397.043,225.226 396,221.5C 395.369,230.178 395.036,238.844 395,247.5C 395.667,246.833 396.333,246.167 397,245.5C 397.181,250.146 398.014,254.646 399.5,259C 399.32,261.241 398.487,261.741 397,260.5C 395.531,257.342 394.531,254.009 394,250.5C 392.443,256.734 391.443,263.067 391,269.5C 389.595,270.731 388.429,272.064 387.5,273.5C 392.038,255.787 393.871,237.787 393,219.5C 387.639,168.241 362.805,129.741 318.5,104C 266.649,78.5009 216.315,81.1676 167.5,112C 122.062,146.401 101.728,192.234 106.5,249.5C 105.442,248.4 104.608,247.066 104,245.5C 103.824,248.882 103.324,252.215 102.5,255.5C 101.447,254.562 100.78,253.395 100.5,252C 101.742,247.836 101.742,243.669 100.5,239.5C 99.8333,241.5 99.1667,243.5 98.5,245.5C 97.3452,242.554 97.1786,239.554 98,236.5C 100.232,234.703 101.398,232.37 101.5,229.5C 100.478,226.787 100.478,224.12 101.5,221.5C 101.192,220.692 100.692,220.025 100,219.5C 99.51,220.793 99.3433,222.127 99.5,223.5C 98.5,223.5 97.5,223.5 96.5,223.5C 95.8333,223.167 95.1667,222.833 94.5,222.5C 94.5858,221.504 94.2524,220.671 93.5,220C 90.5738,219.782 87.7405,219.282 85,218.5C 84.6393,215.475 84.1393,212.475 83.5,209.5C 82.8999,207.532 81.5666,206.532 79.5,206.5C 79.189,205.522 78.5223,204.855 77.5,204.5C 73.9381,208.848 71.9381,213.848 71.5,219.5C 70.7784,219.918 70.2784,220.584 70,221.5C 67.0964,219.773 63.9297,219.107 60.5,219.5C 60.5,220.5 60.5,221.5 60.5,222.5C 57.2699,222.561 55.4365,224.228 55,227.5C 53.0186,225.641 52.0186,223.308 52,220.5C 51.5464,222.536 50.7131,224.37 49.5,226C 50.5253,234.134 51.3586,242.301 52,250.5C 52.0454,253.334 52.8787,255.834 54.5,258C 53.8629,260.243 53.5296,262.576 53.5,265C 54.1813,271.901 55.1813,278.734 56.5,285.5C 36.395,204.416 56.7283,135.249 117.5,78C 167.123,37.424 223.79,22.424 287.5,33C 366.009,50.8418 417.842,98.0085 443,174.5C 451.412,205.72 452.579,237.053 446.5,268.5 Z"/></g>
<g><path style="opacity:1" fill="#f2d077" d="M 280.5,163.5 C 283.553,162.223 286.386,160.556 289,158.5C 289.49,159.793 289.657,161.127 289.5,162.5C 285.932,169.189 282.932,176.189 280.5,183.5C 259.821,178.168 239.154,178.168 218.5,183.5C 215.319,175.635 211.986,167.801 208.5,160C 208.833,159.5 209.167,159 209.5,158.5C 214.167,161.5 218.833,164.5 223.5,167.5C 225.314,161.658 226.314,155.658 226.5,149.5C 227.552,149.351 228.552,149.517 229.5,150C 232.793,153.639 236.46,156.806 240.5,159.5C 243.262,153.64 246.262,147.974 249.5,142.5C 252.295,147.923 254.962,153.423 257.5,159C 258.167,159.667 258.833,159.667 259.5,159C 262.793,155.361 266.46,152.194 270.5,149.5C 271.192,150.025 271.692,150.692 272,151.5C 272.507,156.889 273.34,162.223 274.5,167.5C 276.565,166.143 278.565,164.81 280.5,163.5 Z"/></g>
<g><path style="opacity:1" fill="#4c3716" d="M 295.5,157.5 C 298.672,153.2 297.672,150.2 292.5,148.5C 288.746,149.852 287.579,152.518 289,156.5C 290.699,157.406 292.533,157.739 294.5,157.5C 293.432,158.434 292.099,158.768 290.5,158.5C 290.768,160.099 290.434,161.432 289.5,162.5C 289.657,161.127 289.49,159.793 289,158.5C 286.386,160.556 283.553,162.223 280.5,163.5C 280.5,162.5 280.5,161.5 280.5,160.5C 282.737,159.551 285.071,158.884 287.5,158.5C 287.5,154.5 287.5,150.5 287.5,146.5C 291.301,146.709 294.801,147.709 298,149.5C 298.667,151.833 298.667,154.167 298,156.5C 297.329,157.252 296.496,157.586 295.5,157.5 Z"/></g>
<g><path style="opacity:1" fill="#efcf7b" d="M 203.5,148.5 C 210.02,148.717 211.687,151.551 208.5,157C 201.416,157.475 199.749,154.642 203.5,148.5 Z"/></g>
<g><path style="opacity:1" fill="#e6c77c" d="M 295.5,157.5 C 295.167,157.5 294.833,157.5 294.5,157.5C 292.533,157.739 290.699,157.406 289,156.5C 287.579,152.518 288.746,149.852 292.5,148.5C 297.672,150.2 298.672,153.2 295.5,157.5 Z"/></g>
<g><path style="opacity:1" fill="#e8cc81" d="M 223.5,138.5 C 230.486,138.331 232.153,141.164 228.5,147C 221.416,147.475 219.749,144.642 223.5,138.5 Z"/></g>
<g><path style="opacity:1" fill="#eacb81" d="M 269.5,138.5 C 276.486,138.331 278.153,141.164 274.5,147C 270.229,148.513 267.895,147.013 267.5,142.5C 267.752,140.927 268.418,139.594 269.5,138.5 Z"/></g>
<g><path style="opacity:1" fill="#eccb79" d="M 246.5,131.5 C 253.676,130.985 255.342,133.818 251.5,140C 244.946,139.957 243.279,137.123 246.5,131.5 Z"/></g>
<g><path style="opacity:1" fill="#a27951" d="M 425.5,210.5 C 426.412,214.131 426.579,217.797 426,221.5C 424.121,223.527 422.954,225.86 422.5,228.5C 421.778,228.918 421.278,229.584 421,230.5C 418.422,226.509 416.255,222.343 414.5,218C 415.011,212.813 417.011,208.313 420.5,204.5C 422.175,206.531 423.841,208.531 425.5,210.5 Z"/></g>
<g><path style="opacity:1" fill="#a37a50" d="M 79.5,206.5 C 85.2387,214.676 84.5721,222.343 77.5,229.5C 75.4887,226.139 73.4887,222.806 71.5,219.5C 71.9381,213.848 73.9381,208.848 77.5,204.5C 78.5223,204.855 79.189,205.522 79.5,206.5 Z"/></g>
<g><path style="opacity:1" fill="#462d16" d="M 79.5,206.5 C 81.5666,206.532 82.8999,207.532 83.5,209.5C 84.1393,212.475 84.6393,215.475 85,218.5C 87.7405,219.282 90.5738,219.782 93.5,220C 94.2524,220.671 94.5858,221.504 94.5,222.5C 85.2504,220.641 79.9171,224.474 78.5,234C 79,234.167 79.5,234.333 80,234.5C 82.2333,230.135 85.7333,228.635 90.5,230C 91.4506,230.718 91.6172,231.551 91,232.5C 89.8668,230.789 88.3668,230.289 86.5,231C 85.5769,233.041 85.2436,235.208 85.5,237.5C 84.0047,237.415 83.0047,238.081 82.5,239.5C 85.2191,244.356 84.2191,248.356 79.5,251.5C 78.8933,251.376 78.56,251.043 78.5,250.5C 78.8972,248.338 80.2305,247.005 82.5,246.5C 81.0471,244.533 80.0471,242.367 79.5,240C 82.0191,237.558 81.3524,236.058 77.5,235.5C 75.8927,235.637 74.5594,236.304 73.5,237.5C 76.3505,240.723 76.0172,243.39 72.5,245.5C 73.0138,243.488 73.1805,241.488 73,239.5C 72.2904,238.027 71.1238,237.36 69.5,237.5C 71.2656,234.226 70.4323,231.893 67,230.5C 65.1183,231.093 64.1183,232.427 64,234.5C 63.3333,233.167 63.3333,231.833 64,230.5C 68.9647,228.565 72.7981,229.899 75.5,234.5C 75.3694,224.72 70.3694,220.72 60.5,222.5C 60.5,221.5 60.5,220.5 60.5,219.5C 63.9297,219.107 67.0964,219.773 70,221.5C 70.2784,220.584 70.7784,219.918 71.5,219.5C 73.4887,222.806 75.4887,226.139 77.5,229.5C 84.5721,222.343 85.2387,214.676 79.5,206.5 Z"/></g>
<g><path style="opacity:1" fill="#38281c" d="M 425.5,210.5 C 423.841,208.531 422.175,206.531 420.5,204.5C 417.011,208.313 415.011,212.813 414.5,218C 416.255,222.343 418.422,226.509 421,230.5C 421.278,229.584 421.778,228.918 422.5,228.5C 422.08,230.674 422.08,232.674 422.5,234.5C 424.277,233.099 425.944,231.599 427.5,230C 429.769,229.242 431.936,229.409 434,230.5C 434.667,231.167 434.667,231.833 434,232.5C 432.604,230.473 430.938,230.14 429,231.5C 427.409,238.077 429.909,240.244 436.5,238C 438.687,236.975 440.354,235.475 441.5,233.5C 440.578,238.944 442.245,240.277 446.5,237.5C 447.287,238.242 447.953,239.075 448.5,240C 448.571,249.289 447.905,258.789 446.5,268.5C 435.222,324.595 405.888,368.429 358.5,400C 298.528,436.04 235.862,441.374 170.5,416C 112.34,390.013 74.3398,346.513 56.5,285.5C 55.1813,278.734 54.1813,271.901 53.5,265C 53.5296,262.576 53.8629,260.243 54.5,258C 52.8787,255.834 52.0454,253.334 52,250.5C 51.3586,242.301 50.5253,234.134 49.5,226C 50.7131,224.37 51.5464,222.536 52,220.5C 52.0186,223.308 53.0186,225.641 55,227.5C 55.4365,224.228 57.2699,222.561 60.5,222.5C 56.0694,226.088 55.4028,230.422 58.5,235.5C 61.7987,239.176 65.4654,239.843 69.5,237.5C 71.1238,237.36 72.2904,238.027 73,239.5C 73.1805,241.488 73.0138,243.488 72.5,245.5C 71.5218,246.297 71.8551,246.964 73.5,247.5C 74.1667,247.167 74.8333,246.833 75.5,246.5C 76.0568,248.332 77.0568,249.665 78.5,250.5C 78.56,251.043 78.8933,251.376 79.5,251.5C 84.2191,248.356 85.2191,244.356 82.5,239.5C 83.0047,238.081 84.0047,237.415 85.5,237.5C 97.2714,239.305 100.938,234.639 96.5,223.5C 97.5,223.5 98.5,223.5 99.5,223.5C 99.3433,222.127 99.51,220.793 100,219.5C 100.692,220.025 101.192,220.692 101.5,221.5C 100.478,224.12 100.478,226.787 101.5,229.5C 101.398,232.37 100.232,234.703 98,236.5C 97.1786,239.554 97.3452,242.554 98.5,245.5C 99.1667,243.5 99.8333,241.5 100.5,239.5C 101.742,243.669 101.742,247.836 100.5,252C 100.78,253.395 101.447,254.562 102.5,255.5C 103.324,252.215 103.824,248.882 104,245.5C 104.608,247.066 105.442,248.4 106.5,249.5C 109.058,267.01 114.558,283.677 123,299.5C 154.193,351.687 200.36,376.52 261.5,374C 323.852,365.796 365.852,332.296 387.5,273.5C 388.429,272.064 389.595,270.731 391,269.5C 391.443,263.067 392.443,256.734 394,250.5C 394.531,254.009 395.531,257.342 397,260.5C 398.487,261.741 399.32,261.241 399.5,259C 398.014,254.646 397.181,250.146 397,245.5C 396.333,246.167 395.667,246.833 395,247.5C 395.036,238.844 395.369,230.178 396,221.5C 397.043,225.226 397.543,224.893 397.5,220.5C 398.822,220.33 399.989,220.663 401,221.5C 401.5,220.333 402.333,219.5 403.5,219C 406.289,218.759 408.956,218.092 411.5,217C 409.101,215.04 408.935,212.874 411,210.5C 412.299,210.966 413.799,210.966 415.5,210.5C 415.71,206.077 417.877,203.077 422,201.5C 424.287,204.072 425.453,207.072 425.5,210.5 Z"/></g>
<g><path style="opacity:1" fill="#a27951" d="M 94.5,222.5 C 95.1667,222.833 95.8333,223.167 96.5,223.5C 100.938,234.639 97.2714,239.305 85.5,237.5C 85.2436,235.208 85.5769,233.041 86.5,231C 88.3668,230.289 89.8668,230.789 91,232.5C 91.6172,231.551 91.4506,230.718 90.5,230C 85.7333,228.635 82.2333,230.135 80,234.5C 79.5,234.333 79,234.167 78.5,234C 79.9171,224.474 85.2504,220.641 94.5,222.5 Z"/></g>
<g><path style="opacity:1" fill="#a07951" d="M 69.5,237.5 C 65.4654,239.843 61.7987,239.176 58.5,235.5C 55.4028,230.422 56.0694,226.088 60.5,222.5C 70.3694,220.72 75.3694,224.72 75.5,234.5C 72.7981,229.899 68.9647,228.565 64,230.5C 63.3333,231.833 63.3333,233.167 64,234.5C 64.1183,232.427 65.1183,231.093 67,230.5C 70.4323,231.893 71.2656,234.226 69.5,237.5 Z"/></g>
<g><path style="opacity:1" fill="#a07952" d="M 441.5,233.5 C 440.354,235.475 438.687,236.975 436.5,238C 429.909,240.244 427.409,238.077 429,231.5C 430.938,230.14 432.604,230.473 434,232.5C 434.667,231.833 434.667,231.167 434,230.5C 431.936,229.409 429.769,229.242 427.5,230C 425.944,231.599 424.277,233.099 422.5,234.5C 422.08,232.674 422.08,230.674 422.5,228.5C 424.506,225.645 427.172,223.479 430.5,222C 439.022,221.023 442.688,224.857 441.5,233.5 Z"/></g>
<g><path style="opacity:1" fill="#a17950" d="M 405.5,221.5 C 414.359,221.69 418.692,226.023 418.5,234.5C 415.974,230.238 412.307,228.738 407.5,230C 406.424,231.726 406.257,233.559 407,235.5C 407.12,232.325 408.62,230.825 411.5,231C 414.167,233.333 414.167,235.667 411.5,238C 402.616,239.116 398.782,235.282 400,226.5C 401.352,224.251 403.185,222.584 405.5,221.5 Z"/></g>
<g><path style="opacity:1" fill="#9e7953" d="M 418.5,235.5 C 421.969,234.887 423.969,236.221 424.5,239.5C 422.143,239.663 419.81,239.497 417.5,239C 417.043,238.586 416.709,238.086 416.5,237.5C 417.243,236.818 417.909,236.151 418.5,235.5 Z"/></g>
<g><path style="opacity:1" fill="#987553" d="M 418.5,240.5 C 420.167,240.5 421.833,240.5 423.5,240.5C 423.261,242.467 423.594,244.301 424.5,246C 423.552,246.483 422.552,246.649 421.5,246.5C 420.968,251.797 420.134,251.797 419,246.5C 417.817,247.731 416.651,247.731 415.5,246.5C 417.571,245.024 418.571,243.024 418.5,240.5 Z"/></g>
<g><path style="opacity:1" fill="#94714f" d="M 78.5,250.5 C 77.0568,249.665 76.0568,248.332 75.5,246.5C 74.8333,246.833 74.1667,247.167 73.5,247.5C 71.8551,246.964 71.5218,246.297 72.5,245.5C 76.0172,243.39 76.3505,240.723 73.5,237.5C 74.5594,236.304 75.8927,235.637 77.5,235.5C 81.3524,236.058 82.0191,237.558 79.5,240C 80.0471,242.367 81.0471,244.533 82.5,246.5C 80.2305,247.005 78.8972,248.338 78.5,250.5 Z"/></g>
<g><path style="opacity:1" fill="#100703" d="M 336.5,161.5 C 337.75,161.577 338.583,162.244 339,163.5C 341.833,171.378 340.666,178.545 335.5,185C 341.529,183.498 347.529,181.665 353.5,179.5C 353.747,184.429 352.747,189.095 350.5,193.5C 352.003,194.052 353.669,194.052 355.5,193.5C 355.577,199.181 353.577,204.015 349.5,208C 363.081,205.837 365.081,209.837 355.5,220C 358.482,220.498 361.482,220.665 364.5,220.5C 363.74,224.027 362.406,227.36 360.5,230.5C 361.428,231.768 361.595,233.101 361,234.5C 359.262,238.241 356.762,241.408 353.5,244C 356.71,245.182 357.21,247.015 355,249.5C 352.933,252.07 350.433,254.07 347.5,255.5C 348.328,256.415 349.328,257.081 350.5,257.5C 351.583,258.365 351.749,259.365 351,260.5C 342.49,267.271 334.657,274.604 327.5,282.5C 322.629,284.372 317.963,286.539 313.5,289C 309.234,289.175 305.234,290.175 301.5,292C 297.747,292.091 294.08,292.258 290.5,292.5C 291.997,296.851 291.33,300.851 288.5,304.5C 291.027,306.605 293.36,308.939 295.5,311.5C 291.772,313.692 288.106,315.859 284.5,318C 286.164,320.651 286.664,323.484 286,326.5C 282.439,328.26 278.939,330.094 275.5,332C 273.287,332.626 271.12,332.459 269,331.5C 266.729,335.201 263.562,336.201 259.5,334.5C 257.177,340.247 253.844,340.914 249.5,336.5C 245.055,340.847 241.555,340.181 239,334.5C 234.813,336.357 231.48,335.357 229,331.5C 226.88,332.459 224.713,332.626 222.5,332C 220.27,329.937 217.603,328.604 214.5,328C 212.069,324.301 212.069,320.468 214.5,316.5C 210.199,316.177 206.532,314.511 203.5,311.5C 205.704,309.133 207.704,306.633 209.5,304C 208.009,300.03 207.009,295.864 206.5,291.5C 204.727,292.087 202.894,292.42 201,292.5C 195.537,291.362 190.037,290.362 184.5,289.5C 180.616,286.596 176.283,284.43 171.5,283C 169.366,280.114 167.032,277.447 164.5,275C 163.167,274.333 161.833,273.667 160.5,273C 159.167,272.333 159.167,271.667 160.5,271C 155.604,267.058 150.937,262.892 146.5,258.5C 147.833,257.5 149.167,256.5 150.5,255.5C 146.435,253.767 143.768,250.767 142.5,246.5C 143.09,245.201 144.09,244.368 145.5,244C 139.849,241.098 137.849,236.931 139.5,231.5C 136.484,228.455 134.818,224.788 134.5,220.5C 137.187,220.664 139.854,220.497 142.5,220C 139.594,216.689 137.927,212.856 137.5,208.5C 141.182,208.665 144.848,208.499 148.5,208C 145.001,204.17 143.334,199.67 143.5,194.5C 145.199,194.66 146.866,194.494 148.5,194C 145.501,189.523 144.834,184.69 146.5,179.5C 151.603,181.217 156.603,183.217 161.5,185.5C 161.833,185.167 162.167,184.833 162.5,184.5C 157.322,178.077 156.322,171.077 159.5,163.5C 160.365,162.417 161.365,162.251 162.5,163C 179.132,176.241 195.299,190.074 211,204.5C 212.944,208.11 215.277,211.443 218,214.5C 220.341,211.329 222.841,208.329 225.5,205.5C 226.602,210.843 227.769,216.176 229,221.5C 229.928,219.665 231.094,219.332 232.5,220.5C 235.003,225.345 238.337,229.511 242.5,233C 246.196,232.658 249.863,232.824 253.5,233.5C 256.655,232.85 259.155,231.183 261,228.5C 262.709,225.582 264.542,222.748 266.5,220C 267.744,219.544 268.577,220.044 269,221.5C 270.754,216.341 272.088,211.007 273,205.5C 276.318,208.134 278.651,211.467 280,215.5C 284.406,208.424 289.572,201.924 295.5,196C 308.833,185.333 322.167,174.667 335.5,164C 336.252,163.329 336.586,162.496 336.5,161.5 Z"/></g>
<g><path style="opacity:1" fill="#eac981" d="M 326.5,258.5 C 325.508,258.672 324.842,258.338 324.5,257.5C 323.251,255.864 321.584,254.697 319.5,254C 318.304,253.346 318.304,252.846 319.5,252.5C 325.167,255 330.833,257.5 336.5,260C 335.667,260.167 334.833,260.333 334,260.5C 331.528,259.678 329.028,259.011 326.5,258.5 Z"/></g>
<g><path style="opacity:1" fill="#533d27" d="M 215.5,257.5 C 219.379,261.965 221.212,267.298 221,273.5C 221.71,274.973 222.876,275.64 224.5,275.5C 213.57,277.647 204.07,274.647 196,266.5C 195.329,267.252 194.496,267.586 193.5,267.5C 194.684,266.312 194.684,265.145 193.5,264C 191.866,263.506 190.199,263.34 188.5,263.5C 189.23,262.288 190.23,261.288 191.5,260.5C 190.873,259.583 190.539,258.583 190.5,257.5C 191.504,255.323 190.838,254.989 188.5,256.5C 188.5,255.5 188.5,254.5 188.5,253.5C 186.5,253.833 184.5,254.167 182.5,254.5C 184.072,253.313 185.739,252.313 187.5,251.5C 188.695,251.678 189.862,252.011 191,252.5C 193.048,250.947 195.215,249.614 197.5,248.5C 199.311,249.809 200.977,251.309 202.5,253C 202.355,253.772 202.022,254.439 201.5,255C 203.751,254.793 206.085,254.627 208.5,254.5C 208.273,257.577 207.273,260.41 205.5,263C 206.591,264.762 207.591,266.596 208.5,268.5C 209.086,268.291 209.586,267.957 210,267.5C 209.591,269.225 209.758,270.892 210.5,272.5C 212.371,271.233 214.204,271.233 216,272.5C 217.022,271.646 217.855,270.646 218.5,269.5C 217.287,265.533 216.287,261.533 215.5,257.5 Z"/></g>
<g><path style="opacity:1" fill="#9a7a4c" d="M 313.5,253.5 C 315.349,254.593 317.016,255.926 318.5,257.5C 316.666,256.506 314.999,256.506 313.5,257.5C 311.847,257.34 310.514,256.674 309.5,255.5C 310.467,254.194 311.801,253.527 313.5,253.5 Z"/></g>
<g><path style="opacity:1" fill="#a17c4f" d="M 185.5,247.5 C 185.833,247.5 186.167,247.5 186.5,247.5C 186.433,248.959 186.766,250.292 187.5,251.5C 185.739,252.313 184.072,253.313 182.5,254.5C 178.267,256.451 173.934,258.117 169.5,259.5C 164.101,263.293 158.434,263.46 152.5,260C 162.851,254.159 173.851,249.993 185.5,247.5 Z"/></g>
<g><path style="opacity:1" fill="#eecc86" d="M 169.5,259.5 C 166.859,260.263 164.192,260.43 161.5,260C 166.916,257.861 172.249,255.528 177.5,253C 178.5,252.333 179.5,252.333 180.5,253C 176.77,255.193 173.103,257.36 169.5,259.5 Z"/></g>
<g><path style="opacity:1" fill="#a27c4f" d="M 313.5,247.5 C 324.476,249.658 334.809,253.492 344.5,259C 345.833,259.667 345.833,260.333 344.5,261C 337.945,263.514 331.945,262.681 326.5,258.5C 329.028,259.011 331.528,259.678 334,260.5C 334.833,260.333 335.667,260.167 336.5,260C 330.833,257.5 325.167,255 319.5,252.5C 318.304,252.846 318.304,253.346 319.5,254C 321.584,254.697 323.251,255.864 324.5,257.5C 320.931,255.881 317.264,254.548 313.5,253.5C 311.022,251.564 311.022,249.564 313.5,247.5 Z"/></g>
<g><path style="opacity:1" fill="#ecc884" d="M 174.5,247.5 C 172.095,248.768 169.428,249.435 166.5,249.5C 162.869,250.412 159.203,250.579 155.5,250C 162.722,247.69 170.055,246.357 177.5,246C 176.263,246.232 175.263,246.732 174.5,247.5 Z"/></g>
<g><path style="opacity:1" fill="#90784b" d="M 320.5,246.5 C 325.176,247.061 329.509,248.394 333.5,250.5C 328.835,249.922 324.501,248.589 320.5,246.5 Z"/></g>
<g><path style="opacity:1" fill="#5e492a" d="M 213.5,253.5 C 214.674,254.514 215.34,255.847 215.5,257.5C 216.287,261.533 217.287,265.533 218.5,269.5C 217.855,270.646 217.022,271.646 216,272.5C 214.204,271.233 212.371,271.233 210.5,272.5C 209.758,270.892 209.591,269.225 210,267.5C 209.586,267.957 209.086,268.291 208.5,268.5C 207.591,266.596 206.591,264.762 205.5,263C 207.273,260.41 208.273,257.577 208.5,254.5C 206.085,254.627 203.751,254.793 201.5,255C 202.022,254.439 202.355,253.772 202.5,253C 200.977,251.309 199.311,249.809 197.5,248.5C 195.215,249.614 193.048,250.947 191,252.5C 189.862,252.011 188.695,251.678 187.5,251.5C 186.766,250.292 186.433,248.959 186.5,247.5C 191.347,247.357 195.68,245.69 199.5,242.5C 202.132,241.56 204.798,241.393 207.5,242C 208.641,242.741 208.641,243.575 207.5,244.5C 205.5,245.167 203.5,245.833 201.5,246.5C 203.909,249.036 206.909,250.536 210.5,251C 209.833,251.667 209.167,252.333 208.5,253C 210.134,253.494 211.801,253.66 213.5,253.5 Z"/></g>
<g><path style="opacity:1" fill="#e8ca81" d="M 334.5,250.5 C 334.167,250.5 333.833,250.5 333.5,250.5C 329.509,248.394 325.176,247.061 320.5,246.5C 320.47,245.503 320.97,244.836 322,244.5C 329.145,246.411 336.312,248.245 343.5,250C 340.518,250.498 337.518,250.665 334.5,250.5 Z"/></g>
<g><path style="opacity:1" fill="#eccd80" d="M 241.5,237.5 C 242.566,239.701 243.233,242.035 243.5,244.5C 242.833,244.5 242.167,244.5 241.5,244.5C 238.801,240.81 236.135,237.143 233.5,233.5C 233.343,232.127 233.51,230.793 234,229.5C 236.028,232.692 238.528,235.359 241.5,237.5 Z"/></g>
<g><path style="opacity:1" fill="#e8c981" d="M 264.5,234.5 C 262.174,237.828 259.841,241.161 257.5,244.5C 256.833,244.5 256.167,244.5 255.5,244.5C 255.448,242.097 255.781,239.764 256.5,237.5C 259.804,235.027 262.638,232.027 265,228.5C 265.49,230.545 265.323,232.545 264.5,234.5 Z"/></g>
<g><path style="opacity:1" fill="#553f29" d="M 202.5,207.5 C 203.222,207.918 203.722,208.584 204,209.5C 204.167,208.833 204.333,208.167 204.5,207.5C 203.638,205.49 203.138,203.49 203,201.5C 206.214,205.306 208.38,209.639 209.5,214.5C 208.518,213.859 207.518,213.193 206.5,212.5C 205.614,213.325 205.281,214.325 205.5,215.5C 203.37,213.873 201.37,212.04 199.5,210C 198.833,209.333 198.167,209.333 197.5,210C 200.036,212.705 202.703,215.205 205.5,217.5C 208.106,218.85 208.106,220.35 205.5,222C 206.533,227.088 207.367,232.255 208,237.5C 209.742,242.894 211.576,248.227 213.5,253.5C 211.801,253.66 210.134,253.494 208.5,253C 209.167,252.333 209.833,251.667 210.5,251C 206.909,250.536 203.909,249.036 201.5,246.5C 203.5,245.833 205.5,245.167 207.5,244.5C 208.641,243.575 208.641,242.741 207.5,242C 204.798,241.393 202.132,241.56 199.5,242.5C 195.68,245.69 191.347,247.357 186.5,247.5C 186.167,247.5 185.833,247.5 185.5,247.5C 187.663,246.531 189.996,245.698 192.5,245C 190.115,244.444 187.782,244.61 185.5,245.5C 184.382,231.416 186.382,217.749 191.5,204.5C 191.5,204.167 191.5,203.833 191.5,203.5C 192.315,202.571 193.148,201.571 194,200.5C 196.998,202.668 199.831,205.001 202.5,207.5 Z"/></g>
<g><path style="opacity:1" fill="#564028" d="M 307.5,204.5 C 309.644,212.412 311.478,220.412 313,228.5C 313.499,234.157 313.666,239.824 313.5,245.5C 310.859,244.737 308.192,244.57 305.5,245C 308.31,245.782 310.977,246.616 313.5,247.5C 311.022,249.564 311.022,251.564 313.5,253.5C 311.801,253.527 310.467,254.194 309.5,255.5C 306.075,255.367 305.742,256.033 308.5,257.5C 308.461,258.583 308.127,259.583 307.5,260.5C 308.243,261.182 308.909,261.849 309.5,262.5C 309.167,262.5 308.833,262.5 308.5,262.5C 303.072,263.211 302.406,265.211 306.5,268.5C 304.956,268.297 303.622,267.63 302.5,266.5C 293.948,274.799 283.948,277.799 272.5,275.5C 274.167,275.5 275.833,275.5 277.5,275.5C 277.316,267.219 279.816,259.886 285,253.5C 286.43,250.647 287.263,247.647 287.5,244.5C 289.328,241.865 290.495,238.865 291,235.5C 291.166,228.02 291.333,220.687 291.5,213.5C 292.799,211.588 293.799,209.588 294.5,207.5C 294.5,208.167 294.833,208.5 295.5,208.5C 298.48,205.856 301.48,203.189 304.5,200.5C 305.521,201.901 306.521,203.235 307.5,204.5 Z"/></g>
<g><path style="opacity:1" fill="#c7b582" d="M 292.5,244.5 C 294.726,243.441 297.059,243.608 299.5,245C 297.153,245.334 294.819,245.167 292.5,244.5 Z"/></g>
<g><path style="opacity:1" fill="#b59e6e" d="M 194.5,220.5 C 197.019,219.206 199.352,219.706 201.5,222C 200.939,223.566 201.606,224.899 203.5,226C 203.018,227.008 202.852,228.175 203,229.5C 201.511,226.969 199.678,224.802 197.5,223C 198.167,222.667 198.833,222.333 199.5,222C 197.753,221.648 196.086,221.148 194.5,220.5 Z"/></g>
<g><path style="opacity:1" fill="#a28b5c" d="M 300.5,219.5 C 301.978,219.238 303.311,219.571 304.5,220.5C 302.922,221.298 301.256,221.798 299.5,222C 300.167,222.333 300.833,222.667 301.5,223C 300.167,223.667 298.833,224.333 297.5,225C 298.654,225.914 298.487,226.747 297,227.5C 296.176,226.192 295.676,224.692 295.5,223C 297.233,221.811 298.9,220.644 300.5,219.5 Z"/></g>
<g><path style="opacity:1" fill="#8b765e" d="M 216.5,223.5 C 215.167,222.167 213.833,220.833 212.5,219.5C 211.859,216.779 211.359,214.112 211,211.5C 213.656,215.144 215.489,219.144 216.5,223.5 Z"/></g>
<g><path style="opacity:1" fill="#a17c4f" d="M 332.5,210.5 C 336.716,209.362 340.716,207.529 344.5,205C 335.883,206.523 327.217,208.189 318.5,210C 316.044,212.159 316.71,212.992 320.5,212.5C 319.192,213.232 317.858,214.066 316.5,215C 329.697,212.943 343.03,212.276 356.5,213C 354.443,216.723 351.443,219.39 347.5,221C 340.842,221.5 334.175,221.666 327.5,221.5C 332.651,220.673 337.984,220.173 343.5,220C 349.946,218.305 349.946,217.472 343.5,217.5C 336.509,218.124 329.509,218.624 322.5,219C 321.167,219.667 319.833,220.333 318.5,221C 320.81,221.497 323.143,221.663 325.5,221.5C 324.737,222.268 323.737,222.768 322.5,223C 334.851,223.362 347.184,224.028 359.5,225C 357.484,228.518 354.484,230.851 350.5,232C 343.609,232.703 336.943,232.203 330.5,230.5C 334.697,230.429 338.863,230.763 343,231.5C 346.012,231.274 348.845,230.441 351.5,229C 342.965,228.791 334.465,228.291 326,227.5C 324.5,228 323,228.5 321.5,229C 323.382,229.198 325.048,229.698 326.5,230.5C 323.729,230.421 321.063,230.921 318.5,232C 331.04,232.109 343.374,233.609 355.5,236.5C 353.909,239.256 351.576,241.089 348.5,242C 344.311,242.812 340.311,242.645 336.5,241.5C 339.874,241.326 343.207,240.826 346.5,240C 338.725,238.543 330.891,237.376 323,236.5C 321.112,236.796 319.278,237.296 317.5,238C 322.015,238.614 326.348,239.448 330.5,240.5C 325.821,240.334 321.155,240.501 316.5,241C 328.517,241.588 340.183,243.921 351.5,248C 346.321,252.854 340.655,253.687 334.5,250.5C 337.518,250.665 340.518,250.498 343.5,250C 336.312,248.245 329.145,246.411 322,244.5C 320.97,244.836 320.47,245.503 320.5,246.5C 318.097,246.552 315.764,246.219 313.5,245.5C 313.666,239.824 313.499,234.157 313,228.5C 311.478,220.412 309.644,212.412 307.5,204.5C 311.392,201.129 315.726,198.296 320.5,196C 330.072,192.296 339.572,188.463 349,184.5C 349.125,189.747 346.959,193.913 342.5,197C 332.383,201.147 322.383,205.48 312.5,210C 321.16,207.325 329.827,204.325 338.5,201C 342.447,199.846 346.447,199.013 350.5,198.5C 347.978,207.444 341.978,211.444 332.5,210.5 Z"/></g>
<g><path style="opacity:1" fill="#ebcb7f" d="M 336.5,241.5 C 334.379,241.675 332.379,241.341 330.5,240.5C 326.348,239.448 322.015,238.614 317.5,238C 319.278,237.296 321.112,236.796 323,236.5C 330.891,237.376 338.725,238.543 346.5,240C 343.207,240.826 339.874,241.326 336.5,241.5 Z"/></g>
<g><path style="opacity:1" fill="#f0ce83" d="M 330.5,230.5 C 329.167,230.5 327.833,230.5 326.5,230.5C 325.048,229.698 323.382,229.198 321.5,229C 323,228.5 324.5,228 326,227.5C 334.465,228.291 342.965,228.791 351.5,229C 348.845,230.441 346.012,231.274 343,231.5C 338.863,230.763 334.697,230.429 330.5,230.5 Z"/></g>
<g><path style="opacity:1" fill="#efcb81" d="M 327.5,221.5 C 326.833,221.5 326.167,221.5 325.5,221.5C 323.143,221.663 320.81,221.497 318.5,221C 319.833,220.333 321.167,219.667 322.5,219C 329.509,218.624 336.509,218.124 343.5,217.5C 349.946,217.472 349.946,218.305 343.5,220C 337.984,220.173 332.651,220.673 327.5,221.5 Z"/></g>
<g><path style="opacity:1" fill="#8a745d" d="M 286.5,218.5 C 285.527,220.139 284.194,221.473 282.5,222.5C 283.428,218.638 284.928,214.971 287,211.5C 287.654,210.304 288.154,210.304 288.5,211.5C 287.423,213.729 286.756,216.063 286.5,218.5 Z"/></g>
<g><path style="opacity:1" fill="#a27c4f" d="M 191.5,204.5 C 186.382,217.749 184.382,231.416 185.5,245.5C 181.864,246.326 178.197,246.992 174.5,247.5C 175.263,246.732 176.263,246.232 177.5,246C 170.055,246.357 162.722,247.69 155.5,250C 159.203,250.579 162.869,250.412 166.5,249.5C 159.832,253.955 153.499,253.455 147.5,248C 158.755,243.638 170.422,241.304 182.5,241C 177.511,240.501 172.511,240.334 167.5,240.5C 171.678,239.594 176.012,238.76 180.5,238C 178.966,237.077 177.299,236.577 175.5,236.5C 167.413,237.34 159.413,238.507 151.5,240C 154.432,240.953 157.432,241.453 160.5,241.5C 153.156,244.118 147.156,242.284 142.5,236C 154.957,233.62 167.623,232.287 180.5,232C 177.568,231.047 174.568,230.547 171.5,230.5C 172.952,229.698 174.618,229.198 176.5,229C 175.391,228.362 174.225,227.862 173,227.5C 164.535,228.291 156.035,228.791 147.5,229C 151.206,230.985 155.206,231.818 159.5,231.5C 151.457,234.266 144.791,232.266 139.5,225.5C 152.124,223.373 164.791,223.04 177.5,224.5C 178.167,224.333 178.833,224.167 179.5,224C 176.69,223.218 174.023,222.384 171.5,221.5C 174.187,221.664 176.854,221.497 179.5,221C 178.328,220.581 177.328,219.915 176.5,219C 167.484,218.432 158.484,218.099 149.5,218C 150.167,218.333 150.833,218.667 151.5,219C 155.94,219.966 160.273,220.799 164.5,221.5C 157.675,222.405 151.342,221.238 145.5,218C 141.553,213.401 143.053,211.568 150,212.5C 158.497,213.055 166.997,213.555 175.5,214C 178.172,214.834 180.839,215.668 183.5,216.5C 184.696,216.154 184.696,215.654 183.5,215C 181.277,214.434 179.277,213.6 177.5,212.5C 183.442,212.788 183.775,211.955 178.5,210C 170.786,208.321 163.12,206.488 155.5,204.5C 154.304,204.846 154.304,205.346 155.5,206C 160.366,208.523 165.366,210.356 170.5,211.5C 164.059,211.712 158.059,210.212 152.5,207C 144.985,200.034 145.985,197.534 155.5,199.5C 164.907,203.358 174.574,206.525 184.5,209C 174.809,204.935 165.142,200.768 155.5,196.5C 151.765,193.365 149.932,189.365 150,184.5C 160.095,188.796 170.261,192.963 180.5,197C 184.224,199.52 187.891,202.02 191.5,204.5 Z"/></g>
<g><path style="opacity:1" fill="#e8c77b" d="M 167.5,240.5 C 165.283,241.369 162.95,241.702 160.5,241.5C 157.432,241.453 154.432,240.953 151.5,240C 159.413,238.507 167.413,237.34 175.5,236.5C 177.299,236.577 178.966,237.077 180.5,238C 176.012,238.76 171.678,239.594 167.5,240.5 Z"/></g>
<g><path style="opacity:1" fill="#eccd82" d="M 171.5,230.5 C 167.466,230.505 163.466,230.838 159.5,231.5C 155.206,231.818 151.206,230.985 147.5,229C 156.035,228.791 164.535,228.291 173,227.5C 174.225,227.862 175.391,228.362 176.5,229C 174.618,229.198 172.952,229.698 171.5,230.5 Z"/></g>
<g><path style="opacity:1" fill="#eccc80" d="M 171.5,221.5 C 169.167,221.5 166.833,221.5 164.5,221.5C 160.273,220.799 155.94,219.966 151.5,219C 150.833,218.667 150.167,218.333 149.5,218C 158.484,218.099 167.484,218.432 176.5,219C 177.328,219.915 178.328,220.581 179.5,221C 176.854,221.497 174.187,221.664 171.5,221.5 Z"/></g>
<g><path style="opacity:1" fill="#ab9969" d="M 205.5,215.5 C 205.5,216.167 205.5,216.833 205.5,217.5C 202.703,215.205 200.036,212.705 197.5,210C 198.167,209.333 198.833,209.333 199.5,210C 201.37,212.04 203.37,213.873 205.5,215.5 Z"/></g>
<g><path style="opacity:1" fill="#90795e" d="M 294.5,207.5 C 293.799,209.588 292.799,211.588 291.5,213.5C 290.833,213.833 290.167,214.167 289.5,214.5C 290.434,210.627 291.934,206.961 294,203.5C 294.654,202.304 295.154,202.304 295.5,203.5C 294.754,204.736 294.421,206.07 294.5,207.5 Z"/></g>
<g><path style="opacity:1" fill="#e9cb80" d="M 177.5,212.5 C 175.097,212.552 172.764,212.219 170.5,211.5C 165.366,210.356 160.366,208.523 155.5,206C 154.304,205.346 154.304,204.846 155.5,204.5C 163.12,206.488 170.786,208.321 178.5,210C 183.775,211.955 183.442,212.788 177.5,212.5 Z"/></g>
<g><path style="opacity:1" fill="#e8c77d" d="M 332.5,210.5 C 328.642,211.294 324.642,211.96 320.5,212.5C 316.71,212.992 316.044,212.159 318.5,210C 327.217,208.189 335.883,206.523 344.5,205C 340.716,207.529 336.716,209.362 332.5,210.5 Z"/></g>
<g><path style="opacity:1" fill="#251308" d="M 155.5,196.5 C 165.142,200.768 174.809,204.935 184.5,209C 174.574,206.525 164.907,203.358 155.5,199.5C 155.5,198.5 155.5,197.5 155.5,196.5 Z"/></g>
<g><path style="opacity:1" fill="#efcd7d" d="M 341.5,192.5 C 342.239,192.369 342.906,192.536 343.5,193C 335.877,199.205 327.211,202.872 317.5,204C 325.408,199.879 333.408,196.045 341.5,192.5 Z"/></g>
<g><path style="opacity:1" fill="#f1ce7e" d="M 156.5,194.5 C 157.251,193.427 158.251,193.26 159.5,194C 166.926,196.547 173.926,199.881 180.5,204C 174.673,203.172 169.007,201.505 163.5,199C 160.798,197.988 158.465,196.488 156.5,194.5 Z"/></g>
<g><path style="opacity:1" fill="#a17b50" d="M 202.5,207.5 C 199.831,205.001 196.998,202.668 194,200.5C 193.148,201.571 192.315,202.571 191.5,203.5C 189.167,201.833 187.167,199.833 185.5,197.5C 186.465,196.279 186.298,194.946 185,193.5C 178.96,187.791 172.626,182.457 166,177.5C 166.764,181.007 168.598,184.007 171.5,186.5C 163.701,182.902 160.701,176.902 162.5,168.5C 173.771,176.935 184.604,185.935 195,195.5C 196.586,197.67 197.92,200.004 199,202.5C 199.333,201.833 199.667,201.167 200,200.5C 201.411,202.65 202.245,204.984 202.5,207.5 Z"/></g>
<g><path style="opacity:1" fill="#ebca81" d="M 318.5,194.5 C 316.041,194.31 314.374,195.31 313.5,197.5C 312.427,196.749 312.26,195.749 313,194.5C 319.382,188.084 326.215,182.584 333.5,178C 329.333,183.5 324.5,188.333 319,192.5C 318.536,193.094 318.369,193.761 318.5,194.5 Z"/></g>
<g><path style="opacity:1" fill="#8b7545" d="M 171.5,186.5 C 175.127,188.794 178.461,191.46 181.5,194.5C 177.296,192.967 173.963,190.3 171.5,186.5 Z"/></g>
<g><path style="opacity:1" fill="#e9c67c" d="M 185.5,197.5 C 183.596,197.262 182.262,196.262 181.5,194.5C 178.461,191.46 175.127,188.794 171.5,186.5C 168.598,184.007 166.764,181.007 166,177.5C 172.626,182.457 178.96,187.791 185,193.5C 186.298,194.946 186.465,196.279 185.5,197.5 Z"/></g>
<g><path style="opacity:1" fill="#e7c97f" d="M 279.5,191.5 C 276.572,191.435 273.905,190.768 271.5,189.5C 263.703,188.508 255.87,187.842 248,187.5C 238.087,188.226 228.254,189.559 218.5,191.5C 218.5,189.833 218.5,188.167 218.5,186.5C 223.008,184.833 227.674,183.667 232.5,183C 242.833,182.333 253.167,182.333 263.5,183C 268.584,183.85 273.584,185.016 278.5,186.5C 279.452,188.045 279.785,189.712 279.5,191.5 Z"/></g>
<g><path style="opacity:1" fill="#f4d175" d="M 271.5,189.5 C 269.337,188.531 267.004,187.698 264.5,187C 250.193,185.815 236.026,186.648 222,189.5C 220.174,188.99 220.007,188.156 221.5,187C 238.075,184.098 254.742,183.765 271.5,186C 273.392,186.973 275.392,187.64 277.5,188C 275.75,189.319 273.75,189.819 271.5,189.5 Z"/></g>
<g><path style="opacity:1" fill="#4d3511" d="M 280.5,183.5 C 280.389,184.117 280.056,184.617 279.5,185C 280.624,185.839 281.291,187.006 281.5,188.5C 281.36,190.03 280.693,191.03 279.5,191.5C 279.785,189.712 279.452,188.045 278.5,186.5C 273.584,185.016 268.584,183.85 263.5,183C 253.167,182.333 242.833,182.333 232.5,183C 227.674,183.667 223.008,184.833 218.5,186.5C 218.5,185.5 218.5,184.5 218.5,183.5C 239.154,178.168 259.821,178.168 280.5,183.5 Z"/></g>
<g><path style="opacity:1" fill="#9e794e" d="M 318.5,194.5 C 318.369,193.761 318.536,193.094 319,192.5C 324.5,188.333 329.333,183.5 333.5,178C 326.215,182.584 319.382,188.084 313,194.5C 312.26,195.749 312.427,196.749 313.5,197.5C 311.5,199.833 309.5,202.167 307.5,204.5C 306.521,203.235 305.521,201.901 304.5,200.5C 301.48,203.189 298.48,205.856 295.5,208.5C 296.17,205.327 297.336,202.327 299,199.5C 299.333,200.167 299.667,200.833 300,201.5C 303.083,196.412 306.917,191.912 311.5,188C 319.759,181.286 327.926,174.452 336,167.5C 337.953,172.385 337.286,177.052 334,181.5C 328.96,186.044 323.794,190.378 318.5,194.5 Z"/></g>
<g><path style="opacity:1" fill="#987c51" d="M 318.5,257.5 C 325.26,260.045 331.927,262.878 338.5,266C 335.298,267.483 331.964,267.817 328.5,267C 327.944,266.617 327.611,266.117 327.5,265.5C 328.552,265.649 329.552,265.483 330.5,265C 326.268,262.725 322.268,260.225 318.5,257.5 Z"/></g>
<g><path style="opacity:1" fill="#debe82" d="M 318.5,257.5 C 322.268,260.225 326.268,262.725 330.5,265C 329.552,265.483 328.552,265.649 327.5,265.5C 322.825,262.83 318.159,260.163 313.5,257.5C 314.999,256.506 316.666,256.506 318.5,257.5 Z"/></g>
<g><path style="opacity:1" fill="#dbbd7f" d="M 185.5,257.5 C 180.869,260.151 176.202,262.818 171.5,265.5C 170.448,265.649 169.448,265.483 168.5,265C 173.167,262.333 177.833,259.667 182.5,257C 183.749,256.26 184.749,256.427 185.5,257.5 Z"/></g>
<g><path style="opacity:1" fill="#9d7e51" d="M 188.5,256.5 C 187.609,257.11 186.609,257.443 185.5,257.5C 184.749,256.427 183.749,256.26 182.5,257C 177.833,259.667 173.167,262.333 168.5,265C 169.448,265.483 170.448,265.649 171.5,265.5C 167.908,268.148 164.242,268.148 160.5,265.5C 168.447,262.86 175.78,259.193 182.5,254.5C 184.5,254.167 186.5,253.833 188.5,253.5C 188.5,254.5 188.5,255.5 188.5,256.5 Z"/></g>
<g><path style="opacity:1" fill="#b9a375" d="M 211.5,259.5 C 212.043,259.56 212.376,259.893 212.5,260.5C 211.667,262.167 210.833,263.833 210,265.5C 209.252,263.16 209.752,261.16 211.5,259.5 Z"/></g>
<g><path style="opacity:1" fill="#3b2a19" d="M 209.5,214.5 C 210.313,216.261 211.313,217.928 212.5,219.5C 213.833,220.833 215.167,222.167 216.5,223.5C 217.87,227.429 219.37,231.429 221,235.5C 221.483,234.552 221.649,233.552 221.5,232.5C 222.985,236.176 225.152,239.509 228,242.5C 226.508,236.177 224.674,229.843 222.5,223.5C 221.52,226.086 221.187,228.753 221.5,231.5C 220.661,229.219 219.661,226.885 218.5,224.5C 220.096,221.544 221.596,218.544 223,215.5C 227.305,228.381 230.471,241.381 232.5,254.5C 230.863,259.096 231.197,263.429 233.5,267.5C 233.167,267.5 232.833,267.5 232.5,267.5C 231.833,267.833 231.167,268.167 230.5,268.5C 230.649,267.448 230.483,266.448 230,265.5C 228.801,268.885 228.634,272.218 229.5,275.5C 227.833,275.5 226.167,275.5 224.5,275.5C 222.876,275.64 221.71,274.973 221,273.5C 221.212,267.298 219.379,261.965 215.5,257.5C 215.34,255.847 214.674,254.514 213.5,253.5C 211.576,248.227 209.742,242.894 208,237.5C 207.367,232.255 206.533,227.088 205.5,222C 208.106,220.35 208.106,218.85 205.5,217.5C 205.5,216.833 205.5,216.167 205.5,215.5C 205.281,214.325 205.614,213.325 206.5,212.5C 207.518,213.193 208.518,213.859 209.5,214.5 Z"/></g>
<g><path style="opacity:1" fill="#806a44" d="M 219.5,254.5 C 221.795,253.072 223.795,253.572 225.5,256C 224.833,256.333 224.167,256.667 223.5,257C 225.107,258.049 225.773,259.549 225.5,261.5C 220.78,261.775 220.446,260.941 224.5,259C 222.779,258.261 221.113,257.427 219.5,256.5C 220.55,255.571 220.55,254.905 219.5,254.5 Z"/></g>
<g><path style="opacity:1" fill="#998355" d="M 225.5,249.5 C 223.754,250.218 223.088,251.218 223.5,252.5C 221.739,251.965 220.406,250.965 219.5,249.5C 220.552,249.649 221.552,249.483 222.5,249C 219.991,247.579 217.657,245.912 215.5,244C 219.161,245.002 222.494,246.835 225.5,249.5 Z"/></g>
<g><path style="opacity:1" fill="#503c1b" d="M 213.5,230.5 C 212.957,230.56 212.624,230.893 212.5,231.5C 214.288,235.104 216.955,237.77 220.5,239.5C 222.125,242.809 223.791,246.143 225.5,249.5C 222.494,246.835 219.161,245.002 215.5,244C 217.657,245.912 219.991,247.579 222.5,249C 221.552,249.483 220.552,249.649 219.5,249.5C 216.213,248.736 213.546,246.903 211.5,244C 212.308,243.692 212.975,243.192 213.5,242.5C 211.913,240.915 211.08,239.248 211,237.5C 210.635,232.328 210.469,227.328 210.5,222.5C 212.841,222.827 214.508,224.493 215.5,227.5C 214.388,228.265 213.721,229.265 213.5,230.5 Z"/></g>
<g><path style="opacity:1" fill="#b8a070" d="M 213.5,237.5 C 216.245,238.737 218.578,240.57 220.5,243C 218.369,242.602 216.369,241.602 214.5,240C 213.748,239.329 213.414,238.496 213.5,237.5 Z"/></g>
<g><path style="opacity:1" fill="#d8be7c" d="M 221.5,232.5 C 221.5,232.167 221.5,231.833 221.5,231.5C 221.187,228.753 221.52,226.086 222.5,223.5C 224.674,229.843 226.508,236.177 228,242.5C 225.152,239.509 222.985,236.176 221.5,232.5 Z"/></g>
<g><path style="opacity:1" fill="#a08e68" d="M 213.5,230.5 C 216.239,233.233 218.573,236.233 220.5,239.5C 216.955,237.77 214.288,235.104 212.5,231.5C 212.624,230.893 212.957,230.56 213.5,230.5 Z"/></g>
<g><path style="opacity:1" fill="#8c754d" d="M 286.5,259.5 C 289.026,261.929 289.859,264.929 289,268.5C 288.667,267.5 288.333,266.5 288,265.5C 287.092,272.483 286.092,272.817 285,266.5C 284.138,268.087 283.471,269.754 283,271.5C 282.833,270.5 282.667,269.5 282.5,268.5C 284.328,265.687 285.661,262.687 286.5,259.5 Z"/></g>
<g><path style="opacity:1" fill="#a98759" d="M 308.5,262.5 C 314.47,267.158 320.47,271.825 326.5,276.5C 324.579,277.641 322.579,277.808 320.5,277C 316.193,273.517 311.527,270.683 306.5,268.5C 302.406,265.211 303.072,263.211 308.5,262.5 Z"/></g>
<g><path style="opacity:1" fill="#9a7a4f" d="M 308.5,257.5 C 316.98,260.903 324.647,265.57 331.5,271.5C 328.191,272.93 325.191,272.596 322.5,270.5C 324.379,270.607 324.712,270.107 323.5,269C 319.633,266.302 315.633,263.802 311.5,261.5C 310.893,261.624 310.56,261.957 310.5,262.5C 310.167,262.5 309.833,262.5 309.5,262.5C 308.909,261.849 308.243,261.182 307.5,260.5C 308.127,259.583 308.461,258.583 308.5,257.5 Z"/></g>
<g><path style="opacity:1" fill="#ceb379" d="M 322.5,270.5 C 318.223,268.218 314.223,265.551 310.5,262.5C 310.56,261.957 310.893,261.624 311.5,261.5C 315.633,263.802 319.633,266.302 323.5,269C 324.712,270.107 324.379,270.607 322.5,270.5 Z"/></g>
<g><path style="opacity:1" fill="#a8895a" d="M 190.5,257.5 C 190.539,258.583 190.873,259.583 191.5,260.5C 190.23,261.288 189.23,262.288 188.5,263.5C 183.899,264.914 179.899,267.414 176.5,271C 173.535,272.498 170.535,272.665 167.5,271.5C 174.353,265.57 182.02,260.903 190.5,257.5 Z"/></g>
<g><path style="opacity:1" fill="#a7875a" d="M 188.5,263.5 C 190.199,263.34 191.866,263.506 193.5,264C 194.684,265.145 194.684,266.312 193.5,267.5C 188.218,270.145 183.218,273.312 178.5,277C 176.098,277.814 173.765,277.647 171.5,276.5C 177.415,272.389 183.082,268.056 188.5,263.5 Z"/></g>
<g><path style="opacity:1" fill="#8f7a63" d="M 232.5,267.5 C 232.5,268.167 232.5,268.833 232.5,269.5C 232.5,271.5 232.5,273.5 232.5,275.5C 232.657,276.873 232.49,278.207 232,279.5C 230.663,275.974 230.163,272.308 230.5,268.5C 231.167,268.167 231.833,267.833 232.5,267.5 Z"/></g>
<g><path style="opacity:1" fill="#3b2919" d="M 291.5,213.5 C 291.333,220.687 291.166,228.02 291,235.5C 290.495,238.865 289.328,241.865 287.5,244.5C 287.263,247.647 286.43,250.647 285,253.5C 279.816,259.886 277.316,267.219 277.5,275.5C 275.833,275.5 274.167,275.5 272.5,275.5C 271.5,275.5 270.5,275.5 269.5,275.5C 269.665,272.15 269.498,268.817 269,265.5C 268.722,264.584 268.222,263.918 267.5,263.5C 266.833,259.167 266.167,254.833 265.5,250.5C 266.117,250.611 266.617,250.944 267,251.5C 268.499,239.504 271.333,227.837 275.5,216.5C 277.317,218.416 278.484,220.749 279,223.5C 279.654,222.304 280.154,222.304 280.5,223.5C 279.155,226.938 277.821,230.271 276.5,233.5C 276.665,230.15 276.498,226.817 276,223.5C 274.068,229.854 272.401,236.188 271,242.5C 273.087,239.93 274.92,237.263 276.5,234.5C 276.369,235.239 276.536,235.906 277,236.5C 279.158,231.841 280.991,227.175 282.5,222.5C 284.194,221.473 285.527,220.139 286.5,218.5C 287.5,217.167 288.5,215.833 289.5,214.5C 290.167,214.167 290.833,213.833 291.5,213.5 Z"/></g>
<g><path style="opacity:1" fill="#4e3b1f" d="M 285.5,238.5 C 286.167,240.5 286.833,242.5 287.5,244.5C 285.351,246.046 283.184,247.712 281,249.5C 281.331,251.019 281.164,252.352 280.5,253.5C 278.03,253.027 275.696,253.861 273.5,256C 274.833,256.667 274.833,257.333 273.5,258C 274.928,258.579 276.262,258.412 277.5,257.5C 277.024,260.249 276.024,263.249 274.5,266.5C 275.025,267.192 275.692,267.692 276.5,268C 274.291,269.691 272.458,269.524 271,267.5C 270.774,264.905 270.274,262.405 269.5,260C 270.293,258.915 270.96,257.748 271.5,256.5C 272.017,252.725 272.017,248.892 271.5,245C 273.134,244.506 274.801,244.34 276.5,244.5C 279.987,243.255 282.987,241.255 285.5,238.5 Z"/></g>
<g><path style="opacity:1" fill="#a69369" d="M 280.5,253.5 C 278.86,254.32 277.193,255.153 275.5,256C 277.343,256.159 278.009,256.659 277.5,257.5C 276.262,258.412 274.928,258.579 273.5,258C 274.833,257.333 274.833,256.667 273.5,256C 275.696,253.861 278.03,253.027 280.5,253.5 Z"/></g>
<g><path style="opacity:1" fill="#b7a377" d="M 285.5,238.5 C 282.987,241.255 279.987,243.255 276.5,244.5C 279.771,241.732 282.938,238.732 286,235.5C 286.47,236.577 286.303,237.577 285.5,238.5 Z"/></g>
<g><path style="opacity:1" fill="#b3a073" d="M 285.5,229.5 C 286.465,230.721 286.298,232.054 285,233.5C 282.667,235.833 280.333,238.167 278,240.5C 277.333,239.833 277.333,239.167 278,238.5C 281.088,235.919 283.588,232.919 285.5,229.5 Z"/></g>
<g><path style="opacity:1" fill="#ddc283" d="M 276.5,233.5 C 276.5,233.833 276.5,234.167 276.5,234.5C 274.92,237.263 273.087,239.93 271,242.5C 272.401,236.188 274.068,229.854 276,223.5C 276.498,226.817 276.665,230.15 276.5,233.5 Z"/></g>
<g><path style="opacity:1" fill="#b39d76" d="M 285.5,223.5 C 286.043,223.56 286.376,223.893 286.5,224.5C 281.886,230.949 281.552,230.616 285.5,223.5 Z"/></g>
<g><path style="opacity:1" fill="#a27f51" d="M 306.5,268.5 C 311.647,272.803 316.98,276.97 322.5,281C 319.137,281.927 316.137,281.427 313.5,279.5C 314.239,279.631 314.906,279.464 315.5,279C 312,276.167 308.5,273.333 305,270.5C 304.833,270.833 304.667,271.167 304.5,271.5C 306.854,273.188 308.854,275.188 310.5,277.5C 310.062,277.435 309.728,277.601 309.5,278C 311.167,279.667 312.833,281.333 314.5,283C 312.388,284.445 310.222,284.278 308,282.5C 307.493,283.996 307.993,285.163 309.5,286C 309.167,286.167 308.833,286.333 308.5,286.5C 305.167,286.5 301.833,286.5 298.5,286.5C 297.304,286.846 297.304,287.346 298.5,288C 294.668,288.435 291.168,287.601 288,285.5C 288.096,289.186 286.596,289.519 283.5,286.5C 281.232,282.807 280.565,282.807 281.5,286.5C 281.043,287.298 280.376,287.631 279.5,287.5C 278.833,287.167 278.167,286.833 277.5,286.5C 277.631,285.761 277.464,285.094 277,284.5C 276.583,285.756 275.75,286.423 274.5,286.5C 272.043,283.249 270.376,279.582 269.5,275.5C 270.5,275.5 271.5,275.5 272.5,275.5C 283.948,277.799 293.948,274.799 302.5,266.5C 303.622,267.63 304.956,268.297 306.5,268.5 Z"/></g>
<g><path style="opacity:1" fill="#debe7a" d="M 313.5,279.5 C 312.5,278.833 311.5,278.167 310.5,277.5C 308.854,275.188 306.854,273.188 304.5,271.5C 304.667,271.167 304.833,270.833 305,270.5C 308.5,273.333 312,276.167 315.5,279C 314.906,279.464 314.239,279.631 313.5,279.5 Z"/></g>
<g><path style="opacity:1" fill="#a68352" d="M 224.5,275.5 C 226.167,275.5 227.833,275.5 229.5,275.5C 228.615,279.866 226.615,283.532 223.5,286.5C 223.071,285.047 222.904,283.381 223,281.5C 221.878,283.407 221.045,285.407 220.5,287.5C 220.167,287.5 219.833,287.5 219.5,287.5C 218.448,287.649 217.448,287.483 216.5,287C 217.183,284.012 216.516,284.178 214.5,287.5C 212.547,288.999 210.88,288.665 209.5,286.5C 206.001,288.577 202.668,288.577 199.5,286.5C 194.184,288.218 193.517,287.384 197.5,284C 197.167,283.833 196.833,283.667 196.5,283.5C 194.25,285.798 191.584,286.631 188.5,286C 189.167,285.333 189.833,284.667 190.5,284C 188.473,284.498 186.473,284.331 184.5,283.5C 187.317,280.182 190.317,277.015 193.5,274C 193.167,273.833 192.833,273.667 192.5,273.5C 189.646,276.188 186.646,278.688 183.5,281C 181.167,281.667 178.833,281.667 176.5,281C 182.354,276.636 188.021,272.136 193.5,267.5C 194.496,267.586 195.329,267.252 196,266.5C 204.07,274.647 213.57,277.647 224.5,275.5 Z"/></g>
<g><path style="opacity:1" fill="#e7c383" d="M 298.5,273.5 C 298.897,272.475 299.563,272.308 300.5,273C 303.167,275.667 305.833,278.333 308.5,281C 307.833,281.667 307.167,281.667 306.5,281C 303.964,278.295 301.297,275.795 298.5,273.5 Z"/></g>
<g><path style="opacity:1" fill="#0c0502" d="M 230.5,268.5 C 230.163,272.308 230.663,275.974 232,279.5C 232.49,278.207 232.657,276.873 232.5,275.5C 233.754,280.35 233.754,285.35 232.5,290.5C 233.388,292.155 233.888,293.822 234,295.5C 230.937,292.924 227.771,290.591 224.5,288.5C 224.167,287.833 223.833,287.167 223.5,286.5C 226.615,283.532 228.615,279.866 229.5,275.5C 228.634,272.218 228.801,268.885 230,265.5C 230.483,266.448 230.649,267.448 230.5,268.5 Z"/></g>
<g><path style="opacity:1" fill="#a37d50" d="M 233.5,233.5 C 236.135,237.143 238.801,240.81 241.5,244.5C 240.391,244.557 239.391,244.89 238.5,245.5C 238.44,244.957 238.107,244.624 237.5,244.5C 237.167,245.5 236.833,246.5 236.5,247.5C 236.84,249.512 237.173,251.512 237.5,253.5C 236.207,252.158 235.374,250.491 235,248.5C 234.041,252.421 235.208,255.588 238.5,258C 240.061,258.318 241.228,259.151 242,260.5C 242.837,258.993 244.004,258.493 245.5,259C 246.479,261.137 247.812,262.971 249.5,264.5C 250.833,262.5 252.167,260.5 253.5,258.5C 254.5,259.167 255.5,259.833 256.5,260.5C 262.119,257.925 264.619,253.592 264,247.5C 263.626,249.491 262.793,251.158 261.5,252.5C 261.5,250.5 261.5,248.5 261.5,246.5C 261.631,245.761 261.464,245.094 261,244.5C 260.014,245.171 258.847,245.171 257.5,244.5C 259.841,241.161 262.174,237.828 264.5,234.5C 264.833,239.833 265.167,245.167 265.5,250.5C 266.167,254.833 266.833,259.167 267.5,263.5C 267.5,268.5 267.5,273.5 267.5,278.5C 266.676,274.688 266.176,270.688 266,266.5C 265.209,267.745 264.709,269.078 264.5,270.5C 261.066,274.506 257.732,278.672 254.5,283C 249.587,285.587 245.42,284.753 242,280.5C 238.659,276.48 235.825,272.147 233.5,267.5C 231.197,263.429 230.863,259.096 232.5,254.5C 232.92,249.472 233.587,244.472 234.5,239.5C 233.844,237.547 233.511,235.547 233.5,233.5 Z"/></g>
<g><path style="opacity:1" fill="#201006" d="M 237.5,253.5 C 238.768,255.387 240.601,256.387 243,256.5C 244.537,255.886 245.87,255.886 247,256.5C 247.717,255.956 248.217,255.289 248.5,254.5C 249.609,254.557 250.609,254.89 251.5,255.5C 253.628,256.629 255.961,256.796 258.5,256C 260.426,255.578 261.426,254.411 261.5,252.5C 262.793,251.158 263.626,249.491 264,247.5C 264.619,253.592 262.119,257.925 256.5,260.5C 255.5,259.833 254.5,259.167 253.5,258.5C 252.167,260.5 250.833,262.5 249.5,264.5C 247.812,262.971 246.479,261.137 245.5,259C 244.004,258.493 242.837,258.993 242,260.5C 241.228,259.151 240.061,258.318 238.5,258C 235.208,255.588 234.041,252.421 235,248.5C 235.374,250.491 236.207,252.158 237.5,253.5 Z"/></g>
<g><path style="opacity:1" fill="#dbc583" d="M 248.5,256.5 C 252.106,257.815 252.272,259.815 249,262.5C 247.388,260.544 247.222,258.544 248.5,256.5 Z"/></g>
<g><path style="opacity:1" fill="#634d31" d="M 238.5,245.5 C 239.72,247.282 240.386,249.282 240.5,251.5C 242.167,251.5 243.833,251.5 245.5,251.5C 246.728,252.306 247.728,253.306 248.5,254.5C 248.217,255.289 247.717,255.956 247,256.5C 245.87,255.886 244.537,255.886 243,256.5C 240.601,256.387 238.768,255.387 237.5,253.5C 237.173,251.512 236.84,249.512 236.5,247.5C 236.833,246.5 237.167,245.5 237.5,244.5C 238.107,244.624 238.44,244.957 238.5,245.5 Z"/></g>
<g><path style="opacity:1" fill="#b3a270" d="M 259.5,247.5 C 260.127,250.864 258.794,252.864 255.5,253.5C 254.287,253.253 253.62,252.586 253.5,251.5C 254.833,251.5 256.167,251.5 257.5,251.5C 257.229,249.62 257.896,248.287 259.5,247.5 Z"/></g>
<g><path style="opacity:1" fill="#584428" d="M 261.5,246.5 C 261.5,248.5 261.5,250.5 261.5,252.5C 261.426,254.411 260.426,255.578 258.5,256C 255.961,256.796 253.628,256.629 251.5,255.5C 250.939,253.934 251.606,252.601 253.5,251.5C 253.62,252.586 254.287,253.253 255.5,253.5C 258.794,252.864 260.127,250.864 259.5,247.5C 259.842,246.662 260.508,246.328 261.5,246.5 Z"/></g>
<g><path style="opacity:1" fill="#2b1a0a" d="M 241.5,244.5 C 242.167,244.5 242.833,244.5 243.5,244.5C 245.982,245.804 247.149,247.804 247,250.5C 245.839,247.349 243.672,245.849 240.5,246C 242.373,247.704 244.04,249.537 245.5,251.5C 243.833,251.5 242.167,251.5 240.5,251.5C 240.386,249.282 239.72,247.282 238.5,245.5C 239.391,244.89 240.391,244.557 241.5,244.5 Z"/></g>
<g><path style="opacity:1" fill="#2c1a0b" d="M 255.5,244.5 C 256.167,244.5 256.833,244.5 257.5,244.5C 258.847,245.171 260.014,245.171 261,244.5C 261.464,245.094 261.631,245.761 261.5,246.5C 260.508,246.328 259.842,246.662 259.5,247.5C 257.896,248.287 257.229,249.62 257.5,251.5C 256.167,251.5 254.833,251.5 253.5,251.5C 254.96,249.537 256.627,247.704 258.5,246C 255.802,245.935 253.636,247.102 252,249.5C 252.077,247.228 253.243,245.562 255.5,244.5 Z"/></g>
<g><path style="opacity:1" fill="#a17e51" d="M 256.5,237.5 C 255.781,239.764 255.448,242.097 255.5,244.5C 253.243,245.562 252.077,247.228 252,249.5C 253.636,247.102 255.802,245.935 258.5,246C 256.627,247.704 254.96,249.537 253.5,251.5C 251.606,252.601 250.939,253.934 251.5,255.5C 250.609,254.89 249.609,254.557 248.5,254.5C 247.728,253.306 246.728,252.306 245.5,251.5C 244.04,249.537 242.373,247.704 240.5,246C 243.672,245.849 245.839,247.349 247,250.5C 247.149,247.804 245.982,245.804 243.5,244.5C 243.233,242.035 242.566,239.701 241.5,237.5C 246.491,236.275 251.491,236.275 256.5,237.5 Z"/></g>
<g><path style="opacity:1" fill="#0e0603" d="M 267.5,263.5 C 268.222,263.918 268.722,264.584 269,265.5C 269.498,268.817 269.665,272.15 269.5,275.5C 270.376,279.582 272.043,283.249 274.5,286.5C 271.928,290.259 268.595,292.759 264.5,294C 265.574,293.261 266.241,292.261 266.5,291C 265.081,286.917 264.581,282.75 265,278.5C 265.977,279.774 266.811,279.774 267.5,278.5C 267.5,273.5 267.5,268.5 267.5,263.5 Z"/></g>
<g><path style="opacity:1" fill="#0d0402" d="M 232.5,267.5 C 232.833,267.5 233.167,267.5 233.5,267.5C 235.825,272.147 238.659,276.48 242,280.5C 245.42,284.753 249.587,285.587 254.5,283C 257.732,278.672 261.066,274.506 264.5,270.5C 262.005,276.33 259.338,282.163 256.5,288C 257.577,290.883 258.41,293.717 259,296.5C 257.414,294.33 256.08,291.996 255,289.5C 252.982,291.35 251.149,293.35 249.5,295.5C 247.517,294.018 245.684,292.351 244,290.5C 242.907,292.349 241.574,294.016 240,295.5C 241.186,292.348 241.519,289.015 241,285.5C 238.392,279.947 235.559,274.613 232.5,269.5C 232.5,268.833 232.5,268.167 232.5,267.5 Z"/></g>
<g><path style="opacity:1" fill="#533f2b" d="M 223.5,286.5 C 223.833,287.167 224.167,287.833 224.5,288.5C 221.516,290.82 219.849,293.82 219.5,297.5C 219.591,295.302 218.925,294.969 217.5,296.5C 217.914,293.257 218.914,290.257 220.5,287.5C 221.045,285.407 221.878,283.407 223,281.5C 222.904,283.381 223.071,285.047 223.5,286.5 Z"/></g>
<g><path style="opacity:1" fill="#463623" d="M 219.5,287.5 C 217.685,290.519 216.019,293.519 214.5,296.5C 214.539,295.417 214.873,294.417 215.5,293.5C 214.675,292.614 213.675,292.281 212.5,292.5C 213.476,291.185 214.476,289.852 215.5,288.5C 215.376,287.893 215.043,287.56 214.5,287.5C 216.516,284.178 217.183,284.012 216.5,287C 217.448,287.483 218.448,287.649 219.5,287.5 Z"/></g>
<g><path style="opacity:1" fill="#4f3d29" d="M 283.5,286.5 C 282.903,286.735 282.57,287.235 282.5,288C 284.797,290.098 286.464,292.598 287.5,295.5C 285.804,293.871 284.804,294.204 284.5,296.5C 282.395,293.788 280.728,290.788 279.5,287.5C 280.376,287.631 281.043,287.298 281.5,286.5C 280.565,282.807 281.232,282.807 283.5,286.5 Z"/></g>
<g><path style="opacity:1" fill="#7e6d47" d="M 212.5,292.5 C 213.675,292.281 214.675,292.614 215.5,293.5C 214.873,294.417 214.539,295.417 214.5,296.5C 213.21,297.058 212.377,298.058 212,299.5C 211.297,297.071 211.463,294.738 212.5,292.5 Z"/></g>
<g><path style="opacity:1" fill="#4d3a27" d="M 267.5,278.5 C 266.811,279.774 265.977,279.774 265,278.5C 264.581,282.75 265.081,286.917 266.5,291C 266.241,292.261 265.574,293.261 264.5,294C 268.595,292.759 271.928,290.259 274.5,286.5C 275.75,286.423 276.583,285.756 277,284.5C 277.464,285.094 277.631,285.761 277.5,286.5C 279.369,289.578 280.702,292.911 281.5,296.5C 280.425,295.438 279.425,295.438 278.5,296.5C 279.519,301.433 278.519,301.766 275.5,297.5C 274.914,297.709 274.414,298.043 274,298.5C 273.751,297.376 273.251,296.376 272.5,295.5C 269.678,297.822 266.512,299.488 263,300.5C 261.395,299.899 260.062,298.899 259,297.5C 257.931,300.208 256.764,302.875 255.5,305.5C 255.833,306.167 256.167,306.833 256.5,307.5C 253.484,308.048 252.817,310.048 254.5,313.5C 253.662,313.842 253.328,314.508 253.5,315.5C 250.673,320.529 250.84,325.529 254,330.5C 254.198,328.618 254.698,326.952 255.5,325.5C 255.393,338.716 253.559,338.716 250,325.5C 249.667,319.833 249.333,314.167 249,308.5C 248.667,314.833 248.333,321.167 248,327.5C 247.311,330.408 246.145,333.075 244.5,335.5C 242.388,331.524 242.055,327.524 243.5,323.5C 244.634,334.014 245.634,333.848 246.5,323C 246.453,320.705 245.787,318.871 244.5,317.5C 245.72,315.716 245.72,314.05 244.5,312.5C 244.496,308.75 243.496,308.083 241.5,310.5C 241.5,310.167 241.5,309.833 241.5,309.5C 242.759,305.247 242.093,301.247 239.5,297.5C 238.126,298.711 236.626,299.711 235,300.5C 231.771,299.47 228.938,297.804 226.5,295.5C 225.749,296.376 225.249,297.376 225,298.5C 223.989,297.663 222.822,297.33 221.5,297.5C 222.213,294.406 223.213,291.406 224.5,288.5C 227.771,290.591 230.937,292.924 234,295.5C 233.888,293.822 233.388,292.155 232.5,290.5C 233.754,285.35 233.754,280.35 232.5,275.5C 232.5,273.5 232.5,271.5 232.5,269.5C 235.559,274.613 238.392,279.947 241,285.5C 241.519,289.015 241.186,292.348 240,295.5C 241.574,294.016 242.907,292.349 244,290.5C 245.684,292.351 247.517,294.018 249.5,295.5C 251.149,293.35 252.982,291.35 255,289.5C 256.08,291.996 257.414,294.33 259,296.5C 258.41,293.717 257.577,290.883 256.5,288C 259.338,282.163 262.005,276.33 264.5,270.5C 264.709,269.078 265.209,267.745 266,266.5C 266.176,270.688 266.676,274.688 267.5,278.5 Z"/></g>
<g><path style="opacity:1" fill="#ccb585" d="M 287.5,295.5 C 287.81,300.452 286.81,300.786 284.5,296.5C 284.804,294.204 285.804,293.871 287.5,295.5 Z"/></g>
<g><path style="opacity:1" fill="#150a01" d="M 224.5,288.5 C 223.213,291.406 222.213,294.406 221.5,297.5C 220.404,301.289 219.737,301.289 219.5,297.5C 219.849,293.82 221.516,290.82 224.5,288.5 Z"/></g>
<g><path style="opacity:1" fill="#523c26" d="M 230.5,301.5 C 226.577,303.916 223.077,306.916 220,310.5C 216.497,311.723 212.997,311.723 209.5,310.5C 210.852,309.476 212.185,308.476 213.5,307.5C 219.488,306.187 224.822,303.52 229.5,299.5C 230.298,299.957 230.631,300.624 230.5,301.5 Z"/></g>
<g><path style="opacity:1" fill="#513e29" d="M 285.5,307.5 C 286.812,308.145 287.812,309.145 288.5,310.5C 285.554,311.655 282.554,311.821 279.5,311C 276.287,307.286 272.621,304.119 268.5,301.5C 267.453,300.922 267.62,300.256 269,299.5C 273.783,303.641 279.283,306.308 285.5,307.5 Z"/></g>
<g><path style="opacity:1" fill="#a27b54" d="M 219.5,297.5 C 219.737,301.289 220.404,301.289 221.5,297.5C 222.822,297.33 223.989,297.663 225,298.5C 225.249,297.376 225.749,296.376 226.5,295.5C 228.938,297.804 231.771,299.47 235,300.5C 236.626,299.711 238.126,298.711 239.5,297.5C 242.093,301.247 242.759,305.247 241.5,309.5C 239.265,312.291 237.265,315.291 235.5,318.5C 233.203,320.294 231.037,322.294 229,324.5C 228.444,322.115 228.61,319.782 229.5,317.5C 231.407,314.025 233.574,310.691 236,307.5C 236.982,306.241 237.315,304.908 237,303.5C 233.167,308.667 229.333,313.833 225.5,319C 222.588,320.373 219.754,321.873 217,323.5C 216.601,323.272 216.435,322.938 216.5,322.5C 219.916,314.669 224.583,307.669 230.5,301.5C 230.631,300.624 230.298,299.957 229.5,299.5C 224.822,303.52 219.488,306.187 213.5,307.5C 215.144,305.519 216.81,303.519 218.5,301.5C 217.691,299.929 217.357,298.262 217.5,296.5C 218.925,294.969 219.591,295.302 219.5,297.5 Z"/></g>
<g><path style="opacity:1" fill="#2a1b10" d="M 229.5,317.5 C 227.833,319.5 226.167,321.5 224.5,323.5C 224.565,323.062 224.399,322.728 224,322.5C 221.573,324.746 218.906,325.412 216,324.5C 215.308,323.563 215.475,322.897 216.5,322.5C 216.435,322.938 216.601,323.272 217,323.5C 219.754,321.873 222.588,320.373 225.5,319C 229.333,313.833 233.167,308.667 237,303.5C 237.315,304.908 236.982,306.241 236,307.5C 233.574,310.691 231.407,314.025 229.5,317.5 Z"/></g>
<g><path style="opacity:1" fill="#a07a53" d="M 281.5,296.5 C 280.986,298.512 280.82,300.512 281,302.5C 282.707,304.037 284.207,305.704 285.5,307.5C 279.283,306.308 273.783,303.641 269,299.5C 267.62,300.256 267.453,300.922 268.5,301.5C 274.378,308.048 279.044,315.381 282.5,323.5C 279.193,321.847 275.86,320.18 272.5,318.5C 268.422,313.343 264.588,308.01 261,302.5C 262.681,307.567 265.348,312.233 269,316.5C 269.5,318.5 270,320.5 270.5,322.5C 270.267,323.932 269.6,324.432 268.5,324C 266.6,321.665 264.6,319.498 262.5,317.5C 261.093,315.692 259.926,313.692 259,311.5C 258.346,310.304 257.846,310.304 257.5,311.5C 258.847,314.559 260.18,317.559 261.5,320.5C 261.808,322.924 261.474,325.257 260.5,327.5C 259.817,327.137 259.15,326.804 258.5,326.5C 256.879,322.257 255.546,317.924 254.5,313.5C 252.817,310.048 253.484,308.048 256.5,307.5C 256.167,306.833 255.833,306.167 255.5,305.5C 256.764,302.875 257.931,300.208 259,297.5C 260.062,298.899 261.395,299.899 263,300.5C 266.512,299.488 269.678,297.822 272.5,295.5C 273.251,296.376 273.751,297.376 274,298.5C 274.414,298.043 274.914,297.709 275.5,297.5C 278.519,301.766 279.519,301.433 278.5,296.5C 279.425,295.438 280.425,295.438 281.5,296.5 Z"/></g>
<g><path style="opacity:1" fill="#39271a" d="M 282.5,323.5 C 282.53,324.497 282.03,325.164 281,325.5C 277.845,324.59 275.178,322.924 273,320.5C 273.359,323.112 273.859,325.779 274.5,328.5C 268.407,327.12 264.407,323.453 262.5,317.5C 264.6,319.498 266.6,321.665 268.5,324C 269.6,324.432 270.267,323.932 270.5,322.5C 270,320.5 269.5,318.5 269,316.5C 265.348,312.233 262.681,307.567 261,302.5C 264.588,308.01 268.422,313.343 272.5,318.5C 275.86,320.18 279.193,321.847 282.5,323.5 Z"/></g>
<g><path style="opacity:1" fill="#a17b55" d="M 244.5,312.5 C 243.12,317.595 241.453,322.595 239.5,327.5C 237.631,325.365 236.964,322.698 237.5,319.5C 239.105,316.622 240.439,313.622 241.5,310.5C 243.496,308.083 244.496,308.75 244.5,312.5 Z"/></g>
<g><path style="opacity:1" fill="#967554" d="M 253.5,315.5 C 254.294,318.802 254.96,322.135 255.5,325.5C 254.698,326.952 254.198,328.618 254,330.5C 250.84,325.529 250.673,320.529 253.5,315.5 Z"/></g>
<g><path style="opacity:1" fill="#503b25" d="M 229.5,317.5 C 228.61,319.782 228.444,322.115 229,324.5C 231.037,322.294 233.203,320.294 235.5,318.5C 233.725,323.943 230.058,327.276 224.5,328.5C 224.5,326.833 224.5,325.167 224.5,323.5C 226.167,321.5 227.833,319.5 229.5,317.5 Z"/></g>
<g><path style="opacity:1" fill="#9b7b59" d="M 244.5,317.5 C 245.787,318.871 246.453,320.705 246.5,323C 245.634,333.848 244.634,334.014 243.5,323.5C 244.15,321.565 244.483,319.565 244.5,317.5 Z"/></g>
<g><path style="opacity:1" fill="#4d3b29" d="M 261.5,320.5 C 264.665,324.159 265.165,328.159 263,332.5C 260.873,330.886 259.373,328.886 258.5,326.5C 259.15,326.804 259.817,327.137 260.5,327.5C 261.474,325.257 261.808,322.924 261.5,320.5 Z"/></g>
<g><path style="opacity:1" fill="#4f3e2c" d="M 237.5,319.5 C 236.964,322.698 237.631,325.365 239.5,327.5C 238.945,329.729 237.611,331.395 235.5,332.5C 233.844,327.693 234.511,323.359 237.5,319.5 Z"/></g>
</svg>
