<?xml version="1.0" encoding="UTF-8"?>
<!DOCTYPE svg PUBLIC "-//W3C//DTD SVG 1.1//EN" "http://www.w3.org/Graphics/SVG/1.1/DTD/svg11.dtd">
<svg xmlns="http://www.w3.org/2000/svg" version="1.1" width="500px" height="500px" style="shape-rendering:geometricPrecision; text-rendering:geometricPrecision; image-rendering:optimizeQuality; fill-rule:evenodd; clip-rule:evenodd" xmlns:xlink="http://www.w3.org/1999/xlink">
<g><path style="opacity:1" fill="#0d49a3" d="M 247.5,34.5 C 253.631,32.8452 257.298,35.0119 258.5,41C 256.651,46.2269 252.985,47.8935 247.5,46C 244.958,42.2368 244.958,38.4035 247.5,34.5 Z"/></g>
<g><path style="opacity:1" fill="#0c48a3" d="M 218.5,43.5 C 226.845,43.6908 229.178,47.5241 225.5,55C 217.95,57.9838 214.45,55.4838 215,47.5C 215.69,45.6498 216.856,44.3164 218.5,43.5 Z"/></g>
<g><path style="opacity:1" fill="#0b47a4" d="M 279.5,43.5 C 285.131,43.299 287.964,45.9656 288,51.5C 284.902,57.3189 280.902,57.9856 276,53.5C 274.581,49.0823 275.748,45.7489 279.5,43.5 Z"/></g>
<g><path style="opacity:1" fill="#0d48a3" d="M 191.5,57.5 C 196.995,56.411 200.329,58.5777 201.5,64C 198.844,70.8713 194.677,72.0379 189,67.5C 187.861,63.5789 188.695,60.2456 191.5,57.5 Z"/></g>
<g><path style="opacity:1" fill="#0c48a5" d="M 305.5,57.5 C 314.351,57.3683 316.684,61.2017 312.5,69C 307.025,71.4306 303.359,69.7639 301.5,64C 302.219,61.3829 303.553,59.2162 305.5,57.5 Z"/></g>
<g><path style="opacity:1" fill="#0349aa" d="M 254.5,54.5 C 253.833,59.1595 253.667,63.8262 254,68.5C 255.011,69.3366 256.178,69.67 257.5,69.5C 257.617,71.4835 256.95,73.1502 255.5,74.5C 255.833,74.8333 256.167,75.1667 256.5,75.5C 257.216,74.689 258.05,74.0223 259,73.5C 260.235,74.6155 261.402,74.6155 262.5,73.5C 262.933,79.0542 264.266,79.5542 266.5,75C 265.949,73.6015 265.616,72.2682 265.5,71C 269.011,68.153 272.511,65.3196 276,62.5C 276.5,62.6667 277,62.8333 277.5,63C 275.513,65.4699 275.013,68.3033 276,71.5C 276.815,69.3772 277.815,67.3772 279,65.5C 279.969,69.4068 281.136,73.2401 282.5,77C 282.156,78.3651 281.489,79.5318 280.5,80.5C 282.942,81.9944 285.609,82.9944 288.5,83.5C 289.36,81.0693 291.027,79.736 293.5,79.5C 291.36,82.8395 289.86,86.5062 289,90.5C 286.229,92.8279 283.062,94.4945 279.5,95.5C 280.529,95.2964 281.529,95.7964 282.5,97C 281.167,97.3333 279.833,97.6667 278.5,98C 282.554,99.9412 282.22,100.775 277.5,100.5C 255.182,96.9025 233.182,98.2359 211.5,104.5C 205.856,93.568 201.189,82.2347 197.5,70.5C 198.873,70.3433 200.207,70.51 201.5,71C 207,74.5 212.5,78 218,81.5C 219.623,73.6775 221.123,65.8441 222.5,58C 228.779,61.5743 234.613,66.0743 240,71.5C 243.757,64.319 247.257,56.9857 250.5,49.5C 251.274,48.2888 252.107,48.2888 253,49.5C 254.009,51.0249 254.509,52.6916 254.5,54.5 Z"/></g>
<g><path style="opacity:1" fill="#0949a5" d="M 254.5,54.5 C 257.303,60.1059 260.136,65.7726 263,71.5C 268.387,66.0743 274.221,61.5743 280.5,58C 281.784,65.9165 283.284,73.7498 285,81.5C 291.373,76.8978 298.207,73.2312 305.5,70.5C 301.544,82.1998 296.711,93.5331 291,104.5C 286.428,103.07 281.928,101.736 277.5,100.5C 282.22,100.775 282.554,99.9412 278.5,98C 279.833,97.6667 281.167,97.3333 282.5,97C 281.529,95.7964 280.529,95.2964 279.5,95.5C 283.062,94.4945 286.229,92.8279 289,90.5C 289.86,86.5062 291.36,82.8395 293.5,79.5C 291.027,79.736 289.36,81.0693 288.5,83.5C 285.609,82.9944 282.942,81.9944 280.5,80.5C 281.489,79.5318 282.156,78.3651 282.5,77C 281.136,73.2401 279.969,69.4068 279,65.5C 277.815,67.3772 276.815,69.3772 276,71.5C 275.013,68.3033 275.513,65.4699 277.5,63C 277,62.8333 276.5,62.6667 276,62.5C 272.511,65.3196 269.011,68.153 265.5,71C 265.616,72.2682 265.949,73.6015 266.5,75C 264.266,79.5542 262.933,79.0542 262.5,73.5C 261.402,74.6155 260.235,74.6155 259,73.5C 258.05,74.0223 257.216,74.689 256.5,75.5C 256.167,75.1667 255.833,74.8333 255.5,74.5C 256.95,73.1502 257.617,71.4835 257.5,69.5C 256.178,69.67 255.011,69.3366 254,68.5C 253.667,63.8262 253.833,59.1595 254.5,54.5 Z"/></g>
<g><path style="opacity:1" fill="#0649a7" d="M 233.5,101.5 C 253.451,100.296 273.117,101.963 292.5,106.5C 292.5,109.167 292.5,111.833 292.5,114.5C 265.172,107.854 237.839,107.854 210.5,114.5C 210.5,111.833 210.5,109.167 210.5,106.5C 218.259,104.684 225.925,103.017 233.5,101.5 Z"/></g>
<g><path style="opacity:1" fill="#0749a6" d="M 235.5,116.5 C 244.173,116.334 252.84,116.5 261.5,117C 259.423,117.192 257.423,117.692 255.5,118.5C 275.305,119.427 275.305,121.26 255.5,124C 248.833,124.333 242.167,124.667 235.5,125C 236.056,125.383 236.389,125.883 236.5,126.5C 190.884,134.283 158.884,159.283 140.5,201.5C 141.84,198.556 141.507,195.889 139.5,193.5C 139.833,193.167 140.167,192.833 140.5,192.5C 141.251,193.376 141.751,194.376 142,195.5C 142.36,193.579 143.194,191.912 144.5,190.5C 143.91,189.201 142.91,188.368 141.5,188C 144.089,186.078 144.589,183.911 143,181.5C 142.019,184.689 140.686,185.022 139,182.5C 138.424,184.377 138.591,186.211 139.5,188C 137.855,189.032 137.522,190.199 138.5,191.5C 136.472,192.549 134.472,193.549 132.5,194.5C 149.39,153.791 179.39,128.291 222.5,118C 226.79,117.077 231.123,116.577 235.5,116.5 Z"/></g>
<g><path style="opacity:1" fill="#0749a5" d="M 479.5,169.5 C 478.551,167.263 477.884,164.929 477.5,162.5C 483.274,162.946 485.941,160.279 485.5,154.5C 485.305,149.625 483.638,145.292 480.5,141.5C 480.167,141.833 479.833,142.167 479.5,142.5C 481.938,144.656 482.105,146.989 480,149.5C 478.69,145.93 477.857,142.263 477.5,138.5C 475.09,138.921 473.257,140.254 472,142.5C 473.284,137.79 475.784,133.624 479.5,130C 479.104,126.782 477.604,124.282 475,122.5C 475.228,125.346 475.895,128.013 477,130.5C 475.933,131.191 474.766,131.691 473.5,132C 472.051,135.116 469.884,137.616 467,139.5C 465.951,138.483 464.784,138.316 463.5,139C 461.886,141.127 459.886,142.627 457.5,143.5C 466.117,135.704 472.617,126.37 477,115.5C 479.267,114.065 481.267,114.398 483,116.5C 490.884,131.181 491.884,146.181 486,161.5C 484.054,164.42 481.887,167.087 479.5,169.5 Z"/></g>
<g><path style="opacity:1" fill="#0349aa" d="M 55.5,155.5 C 55.4606,156.583 55.1272,157.583 54.5,158.5C 55.5,159.167 56.5,159.833 57.5,160.5C 55.8647,161.681 54.198,161.681 52.5,160.5C 51.3279,160.919 50.3279,161.585 49.5,162.5C 51.1667,163.167 52.8333,163.833 54.5,164.5C 56.3279,167.194 58.6613,169.194 61.5,170.5C 59.9255,171.631 58.2588,171.798 56.5,171C 53.7209,169.278 50.7209,168.111 47.5,167.5C 47.6236,169.952 48.6236,171.952 50.5,173.5C 50.3918,174.442 50.0585,175.275 49.5,176C 53.8745,177.878 58.2078,179.878 62.5,182C 63.7472,183.494 63.7472,184.994 62.5,186.5C 60.4706,185.371 60.1373,185.871 61.5,188C 60.6721,188.915 59.6721,189.581 58.5,190C 60.3008,190.317 60.6341,190.984 59.5,192C 57.2028,192.018 54.8695,191.851 52.5,191.5C 39.1993,185.704 27.366,177.704 17,167.5C 9.93613,157.607 7.60279,146.607 10,134.5C 10.9806,127.379 13.4806,120.879 17.5,115C 18.8333,114.333 20.1667,114.333 21.5,115C 29.3446,131.352 40.678,144.852 55.5,155.5 Z"/></g>
<g><path style="opacity:1" fill="#0949a5" d="M 235.5,116.5 C 290.744,112.302 332.577,133.968 361,181.5C 363.41,187.318 366.077,192.985 369,198.5C 370.33,197.418 371.83,196.751 373.5,196.5C 371.898,198.982 369.565,199.815 366.5,199C 364.879,196.834 364.045,194.334 364,191.5C 362.667,193.5 361,195.167 359,196.5C 358.333,198.167 358.333,199.833 359,201.5C 362.045,205.923 362.878,210.589 361.5,215.5C 350.223,173.385 323.889,145.219 282.5,131C 267.355,126.772 252.022,125.272 236.5,126.5C 236.389,125.883 236.056,125.383 235.5,125C 242.167,124.667 248.833,124.333 255.5,124C 275.305,121.26 275.305,119.427 255.5,118.5C 257.423,117.692 259.423,117.192 261.5,117C 252.84,116.5 244.173,116.334 235.5,116.5 Z"/></g>
<g><path style="opacity:1" fill="#0349ab" d="M 479.5,169.5 C 471.628,177.448 462.628,183.948 452.5,189C 442.676,193.745 433.01,198.745 423.5,204C 421.888,204.72 420.388,204.554 419,203.5C 418.403,194.398 419.07,185.398 421,176.5C 432.687,164.98 444.854,153.98 457.5,143.5C 459.886,142.627 461.886,141.127 463.5,139C 464.784,138.316 465.951,138.483 467,139.5C 469.884,137.616 472.051,135.116 473.5,132C 474.766,131.691 475.933,131.191 477,130.5C 475.895,128.013 475.228,125.346 475,122.5C 477.604,124.282 479.104,126.782 479.5,130C 475.784,133.624 473.284,137.79 472,142.5C 473.257,140.254 475.09,138.921 477.5,138.5C 477.857,142.263 478.69,145.93 480,149.5C 482.105,146.989 481.938,144.656 479.5,142.5C 479.833,142.167 480.167,141.833 480.5,141.5C 483.638,145.292 485.305,149.625 485.5,154.5C 485.941,160.279 483.274,162.946 477.5,162.5C 477.884,164.929 478.551,167.263 479.5,169.5 Z"/></g>
<g><path style="opacity:1" fill="#114899" d="M 341.5,225.5 C 341.666,233.507 341.5,241.507 341,249.5C 339.851,246.607 339.351,243.607 339.5,240.5C 336.585,193.159 312.252,163.326 266.5,151C 220.973,145.51 187.806,163.01 167,203.5C 152.167,244.334 160.667,279.501 192.5,309C 205.425,318.799 219.758,325.299 235.5,328.5C 237.042,329.163 238.709,329.83 240.5,330.5C 239.311,331.429 237.978,331.762 236.5,331.5C 201.006,325.837 176.172,306.504 162,273.5C 147.977,229.245 158.81,192.412 194.5,163C 233.751,138.623 272.084,139.956 309.5,167C 327.355,182.542 338.022,202.042 341.5,225.5 Z M 278.5,189.5 C 278.5,190.833 278.5,192.167 278.5,193.5C 273.303,193.909 268.303,193.242 263.5,191.5C 260.321,190.207 256.988,189.54 253.5,189.5C 248.562,188.608 243.562,188.274 238.5,188.5C 238.167,186.5 237.833,184.5 237.5,182.5C 251.915,180.545 265.581,182.879 278.5,189.5 Z M 235.5,189.5 C 226.201,190.321 217.534,192.988 209.5,197.5C 215.476,191.836 222.476,187.669 230.5,185C 234.143,184.168 235.81,185.668 235.5,189.5 Z M 284.5,201.5 C 286.167,203.833 288.167,205.833 290.5,207.5C 291.793,209.296 293.293,210.963 295,212.5C 295.494,214.134 295.66,215.801 295.5,217.5C 294.849,218.091 294.182,218.757 293.5,219.5C 281.401,216.955 273.067,209.955 268.5,198.5C 268.611,197.883 268.944,197.383 269.5,197C 273.167,196.333 276.833,196.333 280.5,197C 281.328,198.992 282.661,200.492 284.5,201.5 Z M 298.5,214.5 C 300.722,214.178 302.556,214.845 304,216.5C 304.744,218.9 305.577,221.233 306.5,223.5C 308.48,230.672 309.48,238.006 309.5,245.5C 307.865,240.357 306.365,235.023 305,229.5C 304.617,228.944 304.117,228.611 303.5,228.5C 302.027,225.553 300.527,222.553 299,219.5C 298.506,217.866 298.34,216.199 298.5,214.5 Z"/></g>
<g><path style="opacity:1" fill="#0449a8" d="M 55.5,155.5 C 63.4839,161.984 70.9839,168.984 78,176.5C 80.1256,185.382 80.7922,194.382 80,203.5C 78.6124,204.554 77.1124,204.72 75.5,204C 67.7715,199.805 60.1048,195.638 52.5,191.5C 54.8695,191.851 57.2028,192.018 59.5,192C 60.6341,190.984 60.3008,190.317 58.5,190C 59.6721,189.581 60.6721,188.915 61.5,188C 60.1373,185.871 60.4706,185.371 62.5,186.5C 63.7472,184.994 63.7472,183.494 62.5,182C 58.2078,179.878 53.8745,177.878 49.5,176C 50.0585,175.275 50.3918,174.442 50.5,173.5C 48.6236,171.952 47.6236,169.952 47.5,167.5C 50.7209,168.111 53.7209,169.278 56.5,171C 58.2588,171.798 59.9255,171.631 61.5,170.5C 58.6613,169.194 56.3279,167.194 54.5,164.5C 52.8333,163.833 51.1667,163.167 49.5,162.5C 50.3279,161.585 51.3279,160.919 52.5,160.5C 54.198,161.681 55.8647,161.681 57.5,160.5C 56.5,159.833 55.5,159.167 54.5,158.5C 55.1272,157.583 55.4606,156.583 55.5,155.5 Z"/></g>
<g><path style="opacity:1" fill="#0a49a3" d="M 78.5,211.5 C 75.1362,212.211 72.8029,211.044 71.5,208C 64.4057,206.537 58.2391,203.37 53,198.5C 52.0497,199.022 51.2164,199.689 50.5,200.5C 49.549,199.674 48.549,199.508 47.5,200C 48.7112,200.893 48.7112,201.726 47.5,202.5C 40.9945,200.623 40.9945,199.29 47.5,198.5C 47.5,197.5 47.5,196.5 47.5,195.5C 46.448,195.649 45.448,195.483 44.5,195C 40.8421,191.339 36.5088,189.005 31.5,188C 32.8333,187.333 32.8333,186.667 31.5,186C 29.8876,185.28 28.3876,185.446 27,186.5C 25.4905,185.91 23.9905,185.244 22.5,184.5C 23.6446,183.109 23.6446,181.776 22.5,180.5C 20.4727,181.861 18.806,183.527 17.5,185.5C 17.9186,186.672 18.5853,187.672 19.5,188.5C 18.624,189.251 17.624,189.751 16.5,190C 16.8333,190.333 17.1667,190.667 17.5,191C 16.2068,191.49 14.8734,191.657 13.5,191.5C 14.6562,194.079 15.6562,196.745 16.5,199.5C 6.74188,190.739 2.57522,179.739 4,166.5C 4.68722,164.445 5.85389,162.779 7.5,161.5C 11.5639,168.069 16.5639,173.903 22.5,179C 39.5106,189.174 56.8439,198.84 74.5,208C 76.0931,208.949 77.4264,210.115 78.5,211.5 Z"/></g>
<g><path style="opacity:1" fill="#0649a6" d="M 129.5,198.5 C 126.797,198.045 124.13,197.378 121.5,196.5C 119.215,197.728 119.382,199.061 122,200.5C 124.434,201.322 126.934,201.656 129.5,201.5C 129.665,205.182 129.499,208.848 129,212.5C 127.317,213.887 126.15,215.553 125.5,217.5C 124.969,215.376 123.635,213.876 121.5,213C 112.339,208.254 103.339,203.254 94.5,198C 89.0955,193.939 85.2622,188.772 83,182.5C 82.3333,178.833 82.3333,175.167 83,171.5C 83.7175,170.549 84.5509,170.383 85.5,171C 99.0536,181.944 113.72,191.11 129.5,198.5 Z"/></g>
<g><path style="opacity:1" fill="#0d4aa3" d="M 310.5,218.5 C 310.949,221.29 310.949,223.956 310.5,226.5C 309.358,225.174 308.024,224.174 306.5,223.5C 305.577,221.233 304.744,218.9 304,216.5C 302.556,214.845 300.722,214.178 298.5,214.5C 297.883,214.611 297.383,214.944 297,215.5C 296.47,211.41 294.303,208.743 290.5,207.5C 288.167,205.833 286.167,203.833 284.5,201.5C 283.85,199.565 283.517,197.565 283.5,195.5C 281.473,195.662 279.473,195.495 277.5,195C 279.632,193.38 279.965,191.546 278.5,189.5C 265.581,182.879 251.915,180.545 237.5,182.5C 237.833,184.5 238.167,186.5 238.5,188.5C 243.562,188.274 248.562,188.608 253.5,189.5C 253.351,190.552 253.517,191.552 254,192.5C 255.518,193.163 256.685,194.163 257.5,195.5C 255.143,195.663 252.81,195.497 250.5,195C 247.741,193.453 245.075,191.787 242.5,190C 240.071,189.297 237.738,189.463 235.5,190.5C 235.5,190.167 235.5,189.833 235.5,189.5C 235.81,185.668 234.143,184.168 230.5,185C 222.476,187.669 215.476,191.836 209.5,197.5C 205.566,199.598 202.4,202.598 200,206.5C 199.743,209.017 200.41,211.35 202,213.5C 207.162,208.554 213.329,205.72 220.5,205C 224.121,198.875 229.121,194.375 235.5,191.5C 235.721,192.735 236.388,193.735 237.5,194.5C 236.139,196.028 234.972,197.695 234,199.5C 231.424,200.461 229.257,201.961 227.5,204C 225.866,204.494 224.199,204.66 222.5,204.5C 222.84,207.676 224.506,209.843 227.5,211C 226.692,211.308 226.025,211.808 225.5,212.5C 226.127,213.417 226.461,214.417 226.5,215.5C 224.274,213.428 222.607,210.928 221.5,208C 213.532,207.895 206.699,210.728 201,216.5C 198.524,222.761 196.358,229.094 194.5,235.5C 193.566,236.568 193.232,237.901 193.5,239.5C 192.167,239.5 190.833,239.5 189.5,239.5C 189.5,240.5 189.5,241.5 189.5,242.5C 189.5,242.833 189.5,243.167 189.5,243.5C 188.677,246.977 188.177,250.644 188,254.5C 186.473,252.779 185.473,250.779 185,248.5C 184.501,243.845 184.334,239.179 184.5,234.5C 187.1,212.123 198.1,195.289 217.5,184C 250.024,169.504 278.191,175.337 302,201.5C 305.904,206.642 308.738,212.309 310.5,218.5 Z M 278.5,189.5 C 278.5,190.833 278.5,192.167 278.5,193.5C 273.303,193.909 268.303,193.242 263.5,191.5C 260.321,190.207 256.988,189.54 253.5,189.5C 248.562,188.608 243.562,188.274 238.5,188.5C 238.167,186.5 237.833,184.5 237.5,182.5C 251.915,180.545 265.581,182.879 278.5,189.5 Z M 235.5,189.5 C 226.201,190.321 217.534,192.988 209.5,197.5C 215.476,191.836 222.476,187.669 230.5,185C 234.143,184.168 235.81,185.668 235.5,189.5 Z M 284.5,201.5 C 286.167,203.833 288.167,205.833 290.5,207.5C 291.793,209.296 293.293,210.963 295,212.5C 295.494,214.134 295.66,215.801 295.5,217.5C 294.849,218.091 294.182,218.757 293.5,219.5C 281.401,216.955 273.067,209.955 268.5,198.5C 268.611,197.883 268.944,197.383 269.5,197C 273.167,196.333 276.833,196.333 280.5,197C 281.328,198.992 282.661,200.492 284.5,201.5 Z"/></g>
<g><path style="opacity:1" fill="#0449ab" d="M 480.5,200.5 C 477.838,201.737 475.171,202.571 472.5,203C 473.731,201.817 473.731,200.651 472.5,199.5C 469.091,196.779 466.091,193.613 463.5,190C 466.961,189.038 469.295,186.872 470.5,183.5C 474.768,180.411 478.934,177.077 483,173.5C 486.122,170.094 488.622,166.26 490.5,162C 491.449,161.383 492.282,161.549 493,162.5C 496.824,173.908 495.158,184.575 488,194.5C 485.894,197.118 483.394,199.118 480.5,200.5 Z"/></g>
<g><path style="opacity:1" fill="#0249ac" d="M 257.5,195.5 C 259.5,195.5 261.5,195.5 263.5,195.5C 264.552,195.351 265.552,195.517 266.5,196C 264.292,196.191 262.292,196.691 260.5,197.5C 259.437,201.639 258.77,205.972 258.5,210.5C 256.933,211.681 256.099,213.347 256,215.5C 254.599,213.808 252.766,213.141 250.5,213.5C 250.5,214.5 250.5,215.5 250.5,216.5C 246.159,214.636 242.325,215.303 239,218.5C 233.699,216.468 233.532,214.468 238.5,212.5C 237.332,210.783 235.665,210.116 233.5,210.5C 233.703,208.362 234.703,206.695 236.5,205.5C 233.549,204.776 230.549,204.943 227.5,206C 229.167,209 230.833,212 232.5,215C 230.527,215.495 228.527,215.662 226.5,215.5C 226.461,214.417 226.127,213.417 225.5,212.5C 226.025,211.808 226.692,211.308 227.5,211C 224.506,209.843 222.84,207.676 222.5,204.5C 224.199,204.66 225.866,204.494 227.5,204C 229.257,201.961 231.424,200.461 234,199.5C 234.972,197.695 236.139,196.028 237.5,194.5C 236.388,193.735 235.721,192.735 235.5,191.5C 235.5,191.167 235.5,190.833 235.5,190.5C 237.738,189.463 240.071,189.297 242.5,190C 245.075,191.787 247.741,193.453 250.5,195C 252.81,195.497 255.143,195.663 257.5,195.5 Z"/></g>
<g><path style="opacity:0.455" fill="#83b1d4" d="M 253.5,189.5 C 256.988,189.54 260.321,190.207 263.5,191.5C 263.5,192.833 263.5,194.167 263.5,195.5C 261.5,195.5 259.5,195.5 257.5,195.5C 256.685,194.163 255.518,193.163 254,192.5C 253.517,191.552 253.351,190.552 253.5,189.5 Z"/></g>
<g><path style="opacity:0.984" fill="#2d5b9f" d="M 278.5,189.5 C 279.965,191.546 279.632,193.38 277.5,195C 279.473,195.495 281.473,195.662 283.5,195.5C 283.517,197.565 283.85,199.565 284.5,201.5C 282.661,200.492 281.328,198.992 280.5,197C 276.833,196.333 273.167,196.333 269.5,197C 268.944,197.383 268.611,197.883 268.5,198.5C 265.904,197.735 263.237,197.401 260.5,197.5C 262.292,196.691 264.292,196.191 266.5,196C 265.552,195.517 264.552,195.351 263.5,195.5C 263.5,194.167 263.5,192.833 263.5,191.5C 268.303,193.242 273.303,193.909 278.5,193.5C 278.5,192.167 278.5,190.833 278.5,189.5 Z"/></g>
<g><path style="opacity:1" fill="#0649a7" d="M 385.5,212.5 C 385.119,213.931 384.119,214.764 382.5,215C 383.308,215.308 383.975,215.808 384.5,216.5C 381.285,217.448 380.952,218.781 383.5,220.5C 382.833,221.167 382.167,221.833 381.5,222.5C 384.957,223.436 387.957,225.103 390.5,227.5C 395.85,225.726 400.85,223.393 405.5,220.5C 403.996,222.836 401.996,224.669 399.5,226C 391.9,230.254 383.9,233.42 375.5,235.5C 376.091,233.804 375.258,232.471 373,231.5C 371.287,232.137 371.121,233.137 372.5,234.5C 371.675,235.386 370.675,235.719 369.5,235.5C 370.916,233.14 370.583,231.14 368.5,229.5C 367.914,229.709 367.414,230.043 367,230.5C 366.794,239.701 366.294,248.868 365.5,258C 366.424,259.15 366.424,260.15 365.5,261C 366.793,261.49 368.127,261.657 369.5,261.5C 369.278,264.685 367.778,265.685 365,264.5C 364.536,265.094 364.369,265.761 364.5,266.5C 362.191,269.779 362.191,273.113 364.5,276.5C 363.809,278.891 362.809,278.891 361.5,276.5C 360.686,278.766 360.186,281.1 360,283.5C 359.667,283.167 359.333,282.833 359,282.5C 357.601,285.363 356.601,288.363 356,291.5C 355.329,292.252 354.496,292.586 353.5,292.5C 365.013,267.575 367.68,241.909 361.5,215.5C 362.878,210.589 362.045,205.923 359,201.5C 358.333,199.833 358.333,198.167 359,196.5C 361,195.167 362.667,193.5 364,191.5C 364.045,194.334 364.879,196.834 366.5,199C 369.565,199.815 371.898,198.982 373.5,196.5C 381.943,191.441 390.61,186.608 399.5,182C 404.454,178.715 409.12,175.048 413.5,171C 414.449,170.383 415.282,170.549 416,171.5C 417.209,177.886 416.209,183.886 413,189.5C 409.466,193.369 405.633,196.869 401.5,200C 392.339,204.746 383.339,209.746 374.5,215C 373.269,216.183 373.269,217.349 374.5,218.5C 378.061,216.221 381.727,214.221 385.5,212.5 Z"/></g>
<g><path style="opacity:1" fill="#0149ad" d="M 78.5,211.5 C 78.38,212.586 77.7133,213.253 76.5,213.5C 71.6018,211.908 66.9351,209.908 62.5,207.5C 59.7024,208.953 56.7024,209.953 53.5,210.5C 50.3638,207.761 47.0305,205.928 43.5,205C 41.8333,204.333 40.1667,204.333 38.5,205C 37.4711,206.698 35.9711,207.532 34,207.5C 30.8843,206.188 27.7176,205.188 24.5,204.5C 21.2957,203.617 18.6291,201.95 16.5,199.5C 15.6562,196.745 14.6562,194.079 13.5,191.5C 14.8734,191.657 16.2068,191.49 17.5,191C 17.1667,190.667 16.8333,190.333 16.5,190C 17.624,189.751 18.624,189.251 19.5,188.5C 18.5853,187.672 17.9186,186.672 17.5,185.5C 18.806,183.527 20.4727,181.861 22.5,180.5C 23.6446,181.776 23.6446,183.109 22.5,184.5C 23.9905,185.244 25.4905,185.91 27,186.5C 28.3876,185.446 29.8876,185.28 31.5,186C 32.8333,186.667 32.8333,187.333 31.5,188C 36.5088,189.005 40.8421,191.339 44.5,195C 45.448,195.483 46.448,195.649 47.5,195.5C 47.5,196.5 47.5,197.5 47.5,198.5C 40.9945,199.29 40.9945,200.623 47.5,202.5C 48.7112,201.726 48.7112,200.893 47.5,200C 48.549,199.508 49.549,199.674 50.5,200.5C 51.2164,199.689 52.0497,199.022 53,198.5C 58.2391,203.37 64.4057,206.537 71.5,208C 72.8029,211.044 75.1362,212.211 78.5,211.5 Z"/></g>
<g><path style="opacity:1" fill="#dfe5ea" d="M 235.5,189.5 C 235.5,189.833 235.5,190.167 235.5,190.5C 235.5,190.833 235.5,191.167 235.5,191.5C 229.121,194.375 224.121,198.875 220.5,205C 213.329,205.72 207.162,208.554 202,213.5C 200.41,211.35 199.743,209.017 200,206.5C 202.4,202.598 205.566,199.598 209.5,197.5C 217.534,192.988 226.201,190.321 235.5,189.5 Z"/></g>
<g><path style="opacity:1" fill="#0449a8" d="M 125.5,217.5 C 125.775,219.758 126.775,220.092 128.5,218.5C 129.795,221.271 130.795,224.104 131.5,227C 129.719,231.609 127.719,236.109 125.5,240.5C 126.5,240.5 127.5,240.5 128.5,240.5C 128.5,241.5 128.5,242.5 128.5,243.5C 124.44,243.979 120.44,244.479 116.5,245C 115.366,243.984 115.699,243.317 117.5,243C 114.466,241.809 112.799,239.642 112.5,236.5C 115.829,236.998 118.995,237.998 122,239.5C 122.781,238.056 122.614,236.723 121.5,235.5C 108.874,232.108 98.0411,225.775 89,216.5C 84.8284,210.148 82.995,203.148 83.5,195.5C 89.2741,196.727 94.2741,199.56 98.5,204C 107.244,208.454 115.744,213.287 124,218.5C 124.383,217.944 124.883,217.611 125.5,217.5 Z"/></g>
<g><path style="opacity:1" fill="#0649a7" d="M 470.5,183.5 C 469.295,186.872 466.961,189.038 463.5,190C 466.091,193.613 469.091,196.779 472.5,199.5C 473.731,200.651 473.731,201.817 472.5,203C 475.171,202.571 477.838,201.737 480.5,200.5C 472.885,206.316 464.551,211.15 455.5,215C 443.502,220.249 431.335,225.082 419,229.5C 418.228,229.355 417.561,229.022 417,228.5C 416.333,224.167 416.333,219.833 417,215.5C 418.122,213.376 419.622,211.543 421.5,210C 437.887,201.142 454.221,192.308 470.5,183.5 Z"/></g>
<g><path style="opacity:1" fill="#0449a9" d="M 24.5,204.5 C 27.7176,205.188 30.8843,206.188 34,207.5C 35.9711,207.532 37.4711,206.698 38.5,205C 40.1667,204.333 41.8333,204.333 43.5,205C 47.0305,205.928 50.3638,207.761 53.5,210.5C 56.7024,209.953 59.7024,208.953 62.5,207.5C 66.9351,209.908 71.6018,211.908 76.5,213.5C 77.7133,213.253 78.38,212.586 78.5,211.5C 80.61,212.453 81.7767,214.119 82,216.5C 82.6667,220.5 82.6667,224.5 82,228.5C 81.4387,229.022 80.772,229.355 80,229.5C 60.5673,222.978 42.0673,214.645 24.5,204.5 Z"/></g>
<g><path style="opacity:0.978" fill="#e7eaeb" d="M 260.5,197.5 C 263.237,197.401 265.904,197.735 268.5,198.5C 273.067,209.955 281.401,216.955 293.5,219.5C 294.182,218.757 294.849,218.091 295.5,217.5C 295.5,222.5 295.5,227.5 295.5,232.5C 292.615,232.194 289.948,232.527 287.5,233.5C 286.833,233.5 286.167,233.5 285.5,233.5C 283.266,233.38 281.099,233.713 279,234.5C 271.414,228.919 264.414,222.586 258,215.5C 257.616,213.803 257.782,212.137 258.5,210.5C 258.77,205.972 259.437,201.639 260.5,197.5 Z"/></g>
<g><path style="opacity:1" fill="#0349aa" d="M 405.5,220.5 C 400.85,223.393 395.85,225.726 390.5,227.5C 387.957,225.103 384.957,223.436 381.5,222.5C 382.167,221.833 382.833,221.167 383.5,220.5C 380.952,218.781 381.285,217.448 384.5,216.5C 383.975,215.808 383.308,215.308 382.5,215C 384.119,214.764 385.119,213.931 385.5,212.5C 394.454,208.018 402.787,202.518 410.5,196C 412.134,195.506 413.801,195.34 415.5,195.5C 416.425,205.759 413.092,214.093 405.5,220.5 Z"/></g>
<g><path style="opacity:1" fill="#1f50a1" d="M 258.5,210.5 C 257.782,212.137 257.616,213.803 258,215.5C 264.414,222.586 271.414,228.919 279,234.5C 281.099,233.713 283.266,233.38 285.5,233.5C 282.317,234.382 279.317,235.715 276.5,237.5C 274.443,233.933 271.777,230.766 268.5,228C 264.2,224.702 260.2,221.035 256.5,217C 248.738,217.649 241.238,219.482 234,222.5C 228.325,229.853 225.492,238.187 225.5,247.5C 224.833,247.5 224.167,247.5 223.5,247.5C 223.544,238.322 226.211,229.988 231.5,222.5C 229.395,220.408 227.728,218.075 226.5,215.5C 228.527,215.662 230.527,215.495 232.5,215C 230.833,212 229.167,209 227.5,206C 230.549,204.943 233.549,204.776 236.5,205.5C 234.703,206.695 233.703,208.362 233.5,210.5C 235.665,210.116 237.332,210.783 238.5,212.5C 233.532,214.468 233.699,216.468 239,218.5C 242.325,215.303 246.159,214.636 250.5,216.5C 250.5,215.5 250.5,214.5 250.5,213.5C 252.766,213.141 254.599,213.808 256,215.5C 256.099,213.347 256.933,211.681 258.5,210.5 Z"/></g>
<g><path style="opacity:1" fill="#0549a9" d="M 14.5,203.5 C 35.9687,216.398 58.6353,226.898 82.5,235C 85.0017,240.996 86.0017,247.162 85.5,253.5C 64.8968,253.001 45.5634,247.501 27.5,237C 19.038,231.227 13.7046,223.393 11.5,213.5C 11.7016,209.898 12.7016,206.565 14.5,203.5 Z"/></g>
<g><path style="opacity:1" fill="#e6e9ea" d="M 226.5,215.5 C 227.728,218.075 229.395,220.408 231.5,222.5C 226.211,229.988 223.544,238.322 223.5,247.5C 223.167,247.5 222.833,247.5 222.5,247.5C 216.399,248.929 210.399,250.429 204.5,252C 199.724,247.264 196.39,241.764 194.5,235.5C 196.358,229.094 198.524,222.761 201,216.5C 206.699,210.728 213.532,207.895 221.5,208C 222.607,210.928 224.274,213.428 226.5,215.5 Z"/></g>
<g><path style="opacity:1" fill="#e8eaea" d="M 276.5,237.5 C 274.935,239.509 273.935,241.843 273.5,244.5C 271.623,249.037 269.957,253.703 268.5,258.5C 261.402,263.922 253.402,266.422 244.5,266C 238.271,259.603 231.938,253.436 225.5,247.5C 225.492,238.187 228.325,229.853 234,222.5C 241.238,219.482 248.738,217.649 256.5,217C 260.2,221.035 264.2,224.702 268.5,228C 271.777,230.766 274.443,233.933 276.5,237.5 Z"/></g>
<g><path style="opacity:1" fill="#0449a9" d="M 481.5,204.5 C 484.48,204.241 486.313,205.574 487,208.5C 487.26,220.804 482.094,230.304 471.5,237C 453.437,247.501 434.103,253.001 413.5,253.5C 412.998,247.162 413.998,240.996 416.5,235C 431.394,229.553 446.061,223.553 460.5,217C 468.225,213.814 475.225,209.647 481.5,204.5 Z"/></g>
<g><path style="opacity:1" fill="#3f66a6" d="M 290.5,207.5 C 294.303,208.743 296.47,211.41 297,215.5C 297.383,214.944 297.883,214.611 298.5,214.5C 298.34,216.199 298.506,217.866 299,219.5C 300.527,222.553 302.027,225.553 303.5,228.5C 301.856,227.634 300.189,227.134 298.5,227C 297.565,229.381 297.232,231.881 297.5,234.5C 294.272,233.586 290.939,233.253 287.5,233.5C 289.948,232.527 292.615,232.194 295.5,232.5C 295.5,227.5 295.5,222.5 295.5,217.5C 295.66,215.801 295.494,214.134 295,212.5C 293.293,210.963 291.793,209.296 290.5,207.5 Z"/></g>
<g><path style="opacity:1" fill="#0449ab" d="M 140.5,201.5 C 140.405,203.786 139.738,205.786 138.5,207.5C 134.358,204.666 132.192,205.999 132,211.5C 131.374,215.778 131.874,219.945 133.5,224C 133.261,234.691 131.928,245.191 129.5,255.5C 123.976,256.99 123.309,255.823 127.5,252C 122.342,248.81 116.675,247.643 110.5,248.5C 93.8655,246.558 85.5321,237.224 85.5,220.5C 90.0729,222.798 94.4062,225.632 98.5,229C 103.387,231.274 108.054,233.774 112.5,236.5C 112.799,239.642 114.466,241.809 117.5,243C 115.699,243.317 115.366,243.984 116.5,245C 120.44,244.479 124.44,243.979 128.5,243.5C 128.5,242.5 128.5,241.5 128.5,240.5C 127.5,240.5 126.5,240.5 125.5,240.5C 127.719,236.109 129.719,231.609 131.5,227C 130.795,224.104 129.795,221.271 128.5,218.5C 126.775,220.092 125.775,219.758 125.5,217.5C 126.15,215.553 127.317,213.887 129,212.5C 129.499,208.848 129.665,205.182 129.5,201.5C 126.934,201.656 124.434,201.322 122,200.5C 119.382,199.061 119.215,197.728 121.5,196.5C 124.13,197.378 126.797,198.045 129.5,198.5C 130.5,197.167 131.5,195.833 132.5,194.5C 134.472,193.549 136.472,192.549 138.5,191.5C 137.522,190.199 137.855,189.032 139.5,188C 138.591,186.211 138.424,184.377 139,182.5C 140.686,185.022 142.019,184.689 143,181.5C 144.589,183.911 144.089,186.078 141.5,188C 142.91,188.368 143.91,189.201 144.5,190.5C 143.194,191.912 142.36,193.579 142,195.5C 141.751,194.376 141.251,193.376 140.5,192.5C 140.167,192.833 139.833,193.167 139.5,193.5C 141.507,195.889 141.84,198.556 140.5,201.5 Z"/></g>
<g><path style="opacity:1" fill="#0249ad" d="M 285.5,233.5 C 286.167,233.5 286.833,233.5 287.5,233.5C 290.939,233.253 294.272,233.586 297.5,234.5C 298.441,236.05 299.107,237.716 299.5,239.5C 300.459,245.138 300.626,250.805 300,256.5C 299.581,257.672 298.915,258.672 298,259.5C 297.259,258.359 296.425,258.359 295.5,259.5C 294.534,261.396 294.201,263.396 294.5,265.5C 289.499,264.938 288.499,262.772 291.5,259C 290.056,257.874 289.39,256.374 289.5,254.5C 290.332,251.518 290.499,248.518 290,245.5C 288.899,247.394 287.566,248.061 286,247.5C 285.818,244.774 285.318,242.107 284.5,239.5C 283.914,239.709 283.414,240.043 283,240.5C 283.237,245.02 282.071,249.02 279.5,252.5C 281.991,253.541 281.991,254.374 279.5,255C 280.313,256.314 281.313,257.481 282.5,258.5C 281.395,259.892 280.061,261.059 278.5,262C 280.108,264.609 282.441,265.942 285.5,266C 283.721,268.822 281.387,269.322 278.5,267.5C 277.19,265.852 275.857,264.186 274.5,262.5C 276.162,261.673 277.495,260.507 278.5,259C 278,258.5 277.5,258 277,257.5C 275.667,258.833 274.333,258.833 273,257.5C 272.466,253.141 272.632,248.808 273.5,244.5C 273.935,241.843 274.935,239.509 276.5,237.5C 279.317,235.715 282.317,234.382 285.5,233.5 Z"/></g>
<g><path style="opacity:1" fill="#144ba0" d="M 310.5,218.5 C 318.628,239.779 316.462,260.113 304,279.5C 298.96,286.041 293.126,291.708 286.5,296.5C 286.912,294.027 285.912,292.694 283.5,292.5C 288.438,288.064 293.271,283.397 298,278.5C 300.619,275.594 302.453,272.261 303.5,268.5C 305.663,265.166 306.996,261.5 307.5,257.5C 305.425,257.302 303.425,257.135 301.5,257C 299.302,260.023 296.969,262.856 294.5,265.5C 294.201,263.396 294.534,261.396 295.5,259.5C 296.425,258.359 297.259,258.359 298,259.5C 298.915,258.672 299.581,257.672 300,256.5C 300.626,250.805 300.459,245.138 299.5,239.5C 300.41,241.019 301.243,242.685 302,244.5C 302.176,247.882 302.676,251.215 303.5,254.5C 305.409,255.348 307.409,255.682 309.5,255.5C 309.5,252.167 309.5,248.833 309.5,245.5C 309.48,238.006 308.48,230.672 306.5,223.5C 308.024,224.174 309.358,225.174 310.5,226.5C 310.949,223.956 310.949,221.29 310.5,218.5 Z"/></g>
<g><path style="opacity:1" fill="#2d5494" d="M 194.5,235.5 C 196.39,241.764 199.724,247.264 204.5,252C 210.399,250.429 216.399,248.929 222.5,247.5C 222.389,248.117 222.056,248.617 221.5,249C 215.554,250.325 209.887,252.158 204.5,254.5C 203.167,253.5 201.833,252.5 200.5,251.5C 198.438,247.721 196.104,244.054 193.5,240.5C 192.14,241.18 190.807,241.847 189.5,242.5C 189.5,241.5 189.5,240.5 189.5,239.5C 190.833,239.5 192.167,239.5 193.5,239.5C 193.232,237.901 193.566,236.568 194.5,235.5 Z"/></g>
<g><path style="opacity:1" fill="#d7e5ee" d="M 303.5,228.5 C 304.117,228.611 304.617,228.944 305,229.5C 306.365,235.023 307.865,240.357 309.5,245.5C 309.5,248.833 309.5,252.167 309.5,255.5C 307.409,255.682 305.409,255.348 303.5,254.5C 302.676,251.215 302.176,247.882 302,244.5C 301.243,242.685 300.41,241.019 299.5,239.5C 299.107,237.716 298.441,236.05 297.5,234.5C 297.232,231.881 297.565,229.381 298.5,227C 300.189,227.134 301.856,227.634 303.5,228.5 Z"/></g>
<g><path style="opacity:1" fill="#0a4aa9" d="M 273.5,244.5 C 272.632,248.808 272.466,253.141 273,257.5C 274.333,258.833 275.667,258.833 277,257.5C 277.5,258 278,258.5 278.5,259C 277.495,260.507 276.162,261.673 274.5,262.5C 275.857,264.186 277.19,265.852 278.5,267.5C 275.252,265.597 272.252,263.263 269.5,260.5C 262.295,265.471 254.295,268.305 245.5,269C 244.244,273.192 242.91,277.358 241.5,281.5C 240.326,282.514 239.66,283.847 239.5,285.5C 237.283,286.369 234.95,286.702 232.5,286.5C 225.857,286.286 219.857,284.286 214.5,280.5C 213.5,279.5 212.5,278.5 211.5,277.5C 210.167,275.5 208.833,273.5 207.5,271.5C 205.704,265.981 204.704,260.314 204.5,254.5C 209.887,252.158 215.554,250.325 221.5,249C 222.056,248.617 222.389,248.117 222.5,247.5C 222.833,247.5 223.167,247.5 223.5,247.5C 224.167,247.5 224.833,247.5 225.5,247.5C 231.938,253.436 238.271,259.603 244.5,266C 253.402,266.422 261.402,263.922 268.5,258.5C 269.957,253.703 271.623,249.037 273.5,244.5 Z"/></g>
<g><path style="opacity:1" fill="#0249ac" d="M 65.5,272.5 C 59.0469,272.717 53.0469,271.384 47.5,268.5C 47.4176,266.748 48.2509,265.748 50,265.5C 52.1349,266.881 54.4682,267.881 57,268.5C 58.9424,266.26 61.4424,264.927 64.5,264.5C 63.7579,263.713 62.9246,263.047 62,262.5C 60.2622,263.127 58.4289,263.46 56.5,263.5C 53.9886,263.712 51.8219,263.045 50,261.5C 45.9329,262.929 44.7662,261.596 46.5,257.5C 47.6199,258.833 48.9532,259.333 50.5,259C 52.8458,257.467 53.8458,255.634 53.5,253.5C 58.8263,254.828 64.1596,256.161 69.5,257.5C 70.311,258.216 70.9777,259.05 71.5,260C 70.5761,261.15 70.5761,262.15 71.5,263C 74.5535,263.179 77.5535,263.679 80.5,264.5C 79.538,266.883 80.538,267.883 83.5,267.5C 84.0271,264.769 84.8604,262.102 86,259.5C 88.629,261.335 89.129,263.669 87.5,266.5C 88.8333,267.167 90.1667,267.833 91.5,268.5C 90.1468,269.524 89.4802,270.857 89.5,272.5C 81.5,272.5 73.5,272.5 65.5,272.5 Z"/></g>
<g><path style="opacity:1" fill="#0749a5" d="M 65.5,272.5 C 73.5,272.5 81.5,272.5 89.5,272.5C 89.4802,270.857 90.1468,269.524 91.5,268.5C 90.1667,267.833 88.8333,267.167 87.5,266.5C 89.129,263.669 88.629,261.335 86,259.5C 84.8604,262.102 84.0271,264.769 83.5,267.5C 80.538,267.883 79.538,266.883 80.5,264.5C 77.5535,263.679 74.5535,263.179 71.5,263C 70.5761,262.15 70.5761,261.15 71.5,260C 70.9777,259.05 70.311,258.216 69.5,257.5C 64.1596,256.161 58.8263,254.828 53.5,253.5C 53.8458,255.634 52.8458,257.467 50.5,259C 48.9532,259.333 47.6199,258.833 46.5,257.5C 44.7662,261.596 45.9329,262.929 50,261.5C 51.8219,263.045 53.9886,263.712 56.5,263.5C 58.4289,263.46 60.2622,263.127 62,262.5C 62.9246,263.047 63.7579,263.713 64.5,264.5C 61.4424,264.927 58.9424,266.26 57,268.5C 54.4682,267.881 52.1349,266.881 50,265.5C 48.2509,265.748 47.4176,266.748 47.5,268.5C 37.7724,265.382 33.2724,258.715 34,248.5C 34.8926,247.919 35.8926,247.585 37,247.5C 53.4534,252.822 70.2867,256.322 87.5,258C 88.6667,258.5 89.5,259.333 90,260.5C 92.0895,264.668 93.5895,269.002 94.5,273.5C 84.6522,273.827 74.9856,273.494 65.5,272.5 Z"/></g>
<g><path style="opacity:1" fill="#0549a9" d="M 459.5,247.5 C 461.467,247.261 463.301,247.594 465,248.5C 465.662,258.665 461.162,265.499 451.5,269C 445.71,271.281 439.71,272.614 433.5,273C 423.839,273.5 414.172,273.666 404.5,273.5C 405.074,269.675 406.241,266.009 408,262.5C 408.574,260.508 409.741,259.008 411.5,258C 428.103,256.679 444.103,253.179 459.5,247.5 Z"/></g>
<g><path style="opacity:1" fill="#0848a2" d="M 385.5,277.5 C 385.374,275.8 384.707,274.3 383.5,273C 384.864,269.557 385.531,269.724 385.5,273.5C 387.5,273.5 389.5,273.5 391.5,273.5C 391.808,270.287 390.641,269.287 388,270.5C 382.904,267.587 378.071,267.921 373.5,271.5C 372.833,271.167 372.167,270.833 371.5,270.5C 373.593,268.444 374.926,265.944 375.5,263C 378.146,262.503 380.813,262.336 383.5,262.5C 383.238,261.022 383.571,259.689 384.5,258.5C 397.39,261.545 397.724,260.378 385.5,255C 380.311,254.015 375.311,254.515 370.5,256.5C 370.167,256.167 369.833,255.833 369.5,255.5C 370.518,254.148 371.851,253.148 373.5,252.5C 374.246,251.264 374.579,249.93 374.5,248.5C 379.167,248.5 383.833,248.5 388.5,248.5C 384.164,249.651 379.831,250.985 375.5,252.5C 387.403,253.478 398.236,250.478 408,243.5C 409.885,243.862 410.719,245.029 410.5,247C 408.885,255.282 403.885,260.282 395.5,262C 388.931,263.629 382.265,264.462 375.5,264.5C 375.5,265.5 375.5,266.5 375.5,267.5C 385.018,266.694 394.351,265.194 403.5,263C 402.348,273.284 396.348,278.118 385.5,277.5 Z"/></g>
<g><path style="opacity:1" fill="#bec0bf" d="M 200.5,251.5 C 201.833,252.5 203.167,253.5 204.5,254.5C 204.704,260.314 205.704,265.981 207.5,271.5C 207.963,274.482 208.296,277.482 208.5,280.5C 207.167,280.5 205.833,280.5 204.5,280.5C 204.5,279.5 204.5,278.5 204.5,277.5C 203.178,277.67 202.011,277.337 201,276.5C 194.657,267.137 191.324,256.804 191,245.5C 191.561,244.978 192.228,244.645 193,244.5C 195.508,246.876 198.008,249.209 200.5,251.5 Z"/></g>
<g><path style="opacity:1" fill="#0449aa" d="M 388.5,248.5 C 383.833,248.5 379.167,248.5 374.5,248.5C 374.579,249.93 374.246,251.264 373.5,252.5C 371.851,253.148 370.518,254.148 369.5,255.5C 369.833,255.833 370.167,256.167 370.5,256.5C 375.311,254.515 380.311,254.015 385.5,255C 397.724,260.378 397.39,261.545 384.5,258.5C 383.571,259.689 383.238,261.022 383.5,262.5C 380.813,262.336 378.146,262.503 375.5,263C 374.926,265.944 373.593,268.444 371.5,270.5C 372.167,270.833 372.833,271.167 373.5,271.5C 378.071,267.921 382.904,267.587 388,270.5C 390.641,269.287 391.808,270.287 391.5,273.5C 389.5,273.5 387.5,273.5 385.5,273.5C 385.531,269.724 384.864,269.557 383.5,273C 384.707,274.3 385.374,275.8 385.5,277.5C 382.889,277.354 380.889,276.188 379.5,274C 374.757,273.457 370.09,273.457 365.5,274C 365.771,271.589 365.438,269.089 364.5,266.5C 364.369,265.761 364.536,265.094 365,264.5C 367.778,265.685 369.278,264.685 369.5,261.5C 368.127,261.657 366.793,261.49 365.5,261C 366.424,260.15 366.424,259.15 365.5,258C 366.294,248.868 366.794,239.701 367,230.5C 367.414,230.043 367.914,229.709 368.5,229.5C 370.583,231.14 370.916,233.14 369.5,235.5C 370.675,235.719 371.675,235.386 372.5,234.5C 371.121,233.137 371.287,232.137 373,231.5C 375.258,232.471 376.091,233.804 375.5,235.5C 375.238,236.978 375.571,238.311 376.5,239.5C 389.178,235.664 400.511,229.497 410.5,221C 411.448,220.517 412.448,220.351 413.5,220.5C 414.135,233.367 408.468,242.2 396.5,247C 393.937,248.079 391.271,248.579 388.5,248.5 Z"/></g>
<g><path style="opacity:1" fill="#abbbd1" d="M 200.5,251.5 C 198.008,249.209 195.508,246.876 193,244.5C 192.228,244.645 191.561,244.978 191,245.5C 191.324,256.804 194.657,267.137 201,276.5C 202.011,277.337 203.178,277.67 204.5,277.5C 204.5,278.5 204.5,279.5 204.5,280.5C 205.833,280.5 207.167,280.5 208.5,280.5C 208.296,277.482 207.963,274.482 207.5,271.5C 208.833,273.5 210.167,275.5 211.5,277.5C 210.239,280.099 208.573,282.432 206.5,284.5C 195.188,273.244 189.521,259.577 189.5,243.5C 189.5,243.167 189.5,242.833 189.5,242.5C 190.807,241.847 192.14,241.18 193.5,240.5C 196.104,244.054 198.438,247.721 200.5,251.5 Z"/></g>
<g><path style="opacity:1" fill="#e8eaea" d="M 278.5,267.5 C 280.59,269.39 282.923,271.057 285.5,272.5C 284.65,275.573 283.65,278.573 282.5,281.5C 270.074,285.672 257.407,286.505 244.5,284C 242.881,283.764 241.881,282.931 241.5,281.5C 242.91,277.358 244.244,273.192 245.5,269C 254.295,268.305 262.295,265.471 269.5,260.5C 272.252,263.263 275.252,265.597 278.5,267.5 Z"/></g>
<g><path style="opacity:1" fill="#e4eaeb" d="M 303.5,268.5 C 298.135,273.184 292.135,276.85 285.5,279.5C 286.105,273.24 289.105,268.573 294.5,265.5C 296.969,262.856 299.302,260.023 301.5,257C 303.425,257.135 305.425,257.302 307.5,257.5C 306.996,261.5 305.663,265.166 303.5,268.5 Z"/></g>
<g><path style="opacity:1" fill="#0349aa" d="M 364.5,266.5 C 365.438,269.089 365.771,271.589 365.5,274C 370.09,273.457 374.757,273.457 379.5,274C 380.889,276.188 382.889,277.354 385.5,277.5C 382.265,278.091 378.931,278.424 375.5,278.5C 377.959,279.326 380.459,279.993 383,280.5C 386.789,279.438 390.623,279.271 394.5,280C 395.553,281.749 395.22,283.249 393.5,284.5C 391.321,284.16 389.488,283.16 388,281.5C 387.77,285.213 386.603,285.88 384.5,283.5C 383.524,285.123 384.024,286.457 386,287.5C 386.914,286.346 387.747,286.513 388.5,288C 386.676,290.081 385.009,289.915 383.5,287.5C 380.368,288.978 377.035,289.978 373.5,290.5C 374.246,291.736 374.579,293.07 374.5,294.5C 377.247,294.187 379.914,294.52 382.5,295.5C 379.054,297.278 375.387,298.278 371.5,298.5C 371.5,297.5 371.5,296.5 371.5,295.5C 370.167,295.5 368.833,295.5 367.5,295.5C 367.327,291.83 368.993,289.33 372.5,288C 370.575,286.405 368.575,286.238 366.5,287.5C 362.78,292.895 359.78,298.229 357.5,303.5C 357.62,300.795 356.62,300.128 354.5,301.5C 353.564,296.387 352.231,296.387 350.5,301.5C 353.329,302.825 353.996,304.825 352.5,307.5C 351.094,306.332 349.928,306.665 349,308.5C 348.023,310.74 347.523,313.073 347.5,315.5C 346.167,315.5 344.833,315.5 343.5,315.5C 344.493,318.073 345.326,320.74 346,323.5C 348.333,320.849 350.167,321.016 351.5,324C 350.046,325.713 348.212,326.88 346,327.5C 344.311,325.24 343.144,322.74 342.5,320C 340.953,319.667 339.62,320.167 338.5,321.5C 337.824,320.398 337.158,319.398 336.5,318.5C 342.667,310.167 348.334,301.5 353.5,292.5C 354.496,292.586 355.329,292.252 356,291.5C 356.601,288.363 357.601,285.363 359,282.5C 359.333,282.833 359.667,283.167 360,283.5C 360.186,281.1 360.686,278.766 361.5,276.5C 362.809,278.891 363.809,278.891 364.5,276.5C 362.191,273.113 362.191,269.779 364.5,266.5 Z"/></g>
<g><path style="opacity:1" fill="#0549a9" d="M 110.5,248.5 C 116.675,247.643 122.342,248.81 127.5,252C 123.309,255.823 123.976,256.99 129.5,255.5C 130.263,256.268 131.263,256.768 132.5,257C 131.075,258.714 131.408,260.047 133.5,261C 131.842,261.725 131.342,262.892 132,264.5C 132.667,263.833 133.333,263.167 134,262.5C 132.428,271.828 133.928,280.661 138.5,289C 136.752,289.371 135.086,290.538 133.5,292.5C 132.502,316.328 132.169,340.328 132.5,364.5C 131.761,364.631 131.094,364.464 130.5,364C 131.657,349.241 131.823,334.408 131,319.5C 129.846,315.546 129.013,311.546 128.5,307.5C 125.768,309.035 123.102,310.869 120.5,313C 119.207,313.49 117.873,313.657 116.5,313.5C 118.435,312.19 120.435,310.857 122.5,309.5C 123.583,308.635 123.749,307.635 123,306.5C 117.979,310.927 112.146,313.593 105.5,314.5C 102.567,314.534 99.9,313.701 97.5,312C 96.4829,310.951 96.3162,309.784 97,308.5C 102.886,305.891 108.886,303.558 115,301.5C 118.072,302.036 120.739,303.37 123,305.5C 123.494,303.866 123.66,302.199 123.5,300.5C 117.911,300.917 115.578,298.583 116.5,293.5C 118.988,292.975 121.321,292.142 123.5,291C 114.101,293.466 107.434,290.3 103.5,281.5C 103.709,280.914 104.043,280.414 104.5,280C 108.34,279.594 112.173,279.761 116,280.5C 118.723,280.589 121.223,279.923 123.5,278.5C 117.572,278.578 111.572,278.078 105.5,277C 99.672,274.505 96.0053,270.171 94.5,264C 95.263,263.056 96.263,262.556 97.5,262.5C 105.134,265.127 112.967,266.793 121,267.5C 122.28,267.387 123.113,266.72 123.5,265.5C 113.32,264.882 103.653,262.382 94.5,258C 90.1157,254.509 88.2824,250.009 89,244.5C 89.5613,243.978 90.228,243.645 91,243.5C 100.764,250.478 111.597,253.478 123.5,252.5C 119.169,250.985 114.836,249.651 110.5,248.5 Z"/></g>
<g><path style="opacity:1" fill="#0649a7" d="M 401.5,276.5 C 412.587,276.897 423.587,277.064 434.5,277C 434.822,284.621 431.155,289.621 423.5,292C 413.539,293.54 404.205,291.873 395.5,287C 397.385,283.391 399.385,279.891 401.5,276.5 Z"/></g>
<g><path style="opacity:1" fill="#b8bec8" d="M 303.5,268.5 C 302.453,272.261 300.619,275.594 298,278.5C 293.271,283.397 288.438,288.064 283.5,292.5C 282.167,292.5 280.833,292.5 279.5,292.5C 281.241,288.02 283.241,283.686 285.5,279.5C 292.135,276.85 298.135,273.184 303.5,268.5 Z"/></g>
<g><path style="opacity:0.999" fill="#0748a6" d="M 64.5,276.5 C 75.421,276.899 86.421,277.065 97.5,277C 99.7515,280.168 101.752,283.501 103.5,287C 94.4702,292.004 84.8036,293.671 74.5,292C 67.1053,289.163 63.7719,283.997 64.5,276.5 Z"/></g>
<g><path style="opacity:1" fill="#bdbfc0" d="M 241.5,281.5 C 241.881,282.931 242.881,283.764 244.5,284C 257.407,286.505 270.074,285.672 282.5,281.5C 279.214,289.124 273.547,293.791 265.5,295.5C 261.501,296.338 257.501,296.838 253.5,297C 249.835,295.503 246.502,293.503 243.5,291C 241.536,289.549 240.203,287.716 239.5,285.5C 239.66,283.847 240.326,282.514 241.5,281.5 Z"/></g>
<g><path style="opacity:1" fill="#124898" d="M 341.5,225.5 C 346.25,264.499 332.584,295.332 300.5,318C 280.713,330.451 259.379,334.951 236.5,331.5C 237.978,331.762 239.311,331.429 240.5,330.5C 238.709,329.83 237.042,329.163 235.5,328.5C 278.926,332.208 310.759,314.874 331,276.5C 336.073,264.884 338.906,252.884 339.5,240.5C 339.351,243.607 339.851,246.607 341,249.5C 341.5,241.507 341.666,233.507 341.5,225.5 Z"/></g>
<g><path style="opacity:1" fill="#b9bec4" d="M 214.5,280.5 C 219.857,284.286 225.857,286.286 232.5,286.5C 234.292,287.309 236.292,287.809 238.5,288C 242.277,292.379 246.61,296.046 251.5,299C 249.997,301.991 247.497,303.157 244,302.5C 230.048,301.439 218.215,295.939 208.5,286C 209.74,283.256 211.74,281.423 214.5,280.5 Z"/></g>
<g><path style="opacity:1" fill="#094aa8" d="M 294.5,265.5 C 289.105,268.573 286.105,273.24 285.5,279.5C 283.241,283.686 281.241,288.02 279.5,292.5C 280.833,292.5 282.167,292.5 283.5,292.5C 285.912,292.694 286.912,294.027 286.5,296.5C 279.858,301.153 272.524,304.153 264.5,305.5C 262.143,305.663 259.81,305.497 257.5,305C 256.167,304 256.167,303 257.5,302C 255.866,301.506 254.199,301.34 252.5,301.5C 252.5,300.5 252.5,299.5 252.5,298.5C 256.846,298.666 261.179,298.499 265.5,298C 264.402,297.23 264.402,296.397 265.5,295.5C 273.547,293.791 279.214,289.124 282.5,281.5C 283.65,278.573 284.65,275.573 285.5,272.5C 282.923,271.057 280.59,269.39 278.5,267.5C 281.387,269.322 283.721,268.822 285.5,266C 282.441,265.942 280.108,264.609 278.5,262C 280.061,261.059 281.395,259.892 282.5,258.5C 281.313,257.481 280.313,256.314 279.5,255C 281.991,254.374 281.991,253.541 279.5,252.5C 282.071,249.02 283.237,245.02 283,240.5C 283.414,240.043 283.914,239.709 284.5,239.5C 285.318,242.107 285.818,244.774 286,247.5C 287.566,248.061 288.899,247.394 290,245.5C 290.499,248.518 290.332,251.518 289.5,254.5C 289.39,256.374 290.056,257.874 291.5,259C 288.499,262.772 289.499,264.938 294.5,265.5 Z"/></g>
<g><path style="opacity:1" fill="#0749a6" d="M 392.5,291.5 C 400.263,292.419 407.929,293.919 415.5,296C 416.91,296.368 417.91,297.201 418.5,298.5C 413.033,305.552 406.033,307.385 397.5,304C 393.714,302.607 390.048,300.941 386.5,299C 388.334,296.337 390.334,293.837 392.5,291.5 Z"/></g>
<g><path style="opacity:0.992" fill="#0648a6" d="M 100.5,291.5 C 106.106,291.248 110.106,293.748 112.5,299C 105.172,303.832 97.172,305.832 88.5,305C 84.9059,303.74 82.2392,301.407 80.5,298C 80.9054,297.055 81.572,296.388 82.5,296C 88.7047,294.799 94.7047,293.299 100.5,291.5 Z"/></g>
<g><path style="opacity:1" fill="#154b9e" d="M 184.5,234.5 C 184.334,239.179 184.501,243.845 185,248.5C 185.473,250.779 186.473,252.779 188,254.5C 188.177,250.644 188.677,246.977 189.5,243.5C 189.521,259.577 195.188,273.244 206.5,284.5C 208.573,282.432 210.239,280.099 211.5,277.5C 212.5,278.5 213.5,279.5 214.5,280.5C 211.74,281.423 209.74,283.256 208.5,286C 218.215,295.939 230.048,301.439 244,302.5C 247.497,303.157 249.997,301.991 251.5,299C 246.61,296.046 242.277,292.379 238.5,288C 236.292,287.809 234.292,287.309 232.5,286.5C 234.95,286.702 237.283,286.369 239.5,285.5C 240.203,287.716 241.536,289.549 243.5,291C 246.502,293.503 249.835,295.503 253.5,297C 257.501,296.838 261.501,296.338 265.5,295.5C 264.402,296.397 264.402,297.23 265.5,298C 261.179,298.499 256.846,298.666 252.5,298.5C 252.5,299.5 252.5,300.5 252.5,301.5C 254.199,301.34 255.866,301.506 257.5,302C 256.167,303 256.167,304 257.5,305C 259.81,305.497 262.143,305.663 264.5,305.5C 230.42,311.544 205.253,299.211 189,268.5C 184.312,257.407 182.812,246.074 184.5,234.5 Z"/></g>
<g><path style="opacity:1" fill="#0a49a2" d="M 138.5,207.5 C 128.428,244.742 134.428,279.075 156.5,310.5C 152.813,311.874 151.147,314.541 151.5,318.5C 150.5,318.5 149.5,318.5 148.5,318.5C 148.579,317.07 148.246,315.736 147.5,314.5C 148.376,313.749 149.376,313.249 150.5,313C 150.167,312.667 149.833,312.333 149.5,312C 152.922,310.594 153.255,308.761 150.5,306.5C 149.403,308.229 148.237,309.896 147,311.5C 146.167,326.844 146.334,342.178 147.5,357.5C 149.506,359.508 151.839,360.841 154.5,361.5C 154.5,362.5 154.5,363.5 154.5,364.5C 155.822,364.67 156.989,364.337 158,363.5C 158.5,352.505 158.667,341.505 158.5,330.5C 160.179,330.285 161.179,330.952 161.5,332.5C 160.883,332.389 160.383,332.056 160,331.5C 159.667,343.833 159.333,356.167 159,368.5C 154.667,365.833 150.333,363.167 146,360.5C 145.667,344.833 145.333,329.167 145,313.5C 140.503,306.843 136.67,299.843 133.5,292.5C 135.086,290.538 136.752,289.371 138.5,289C 133.928,280.661 132.428,271.828 134,262.5C 133.333,263.167 132.667,263.833 132,264.5C 131.342,262.892 131.842,261.725 133.5,261C 131.408,260.047 131.075,258.714 132.5,257C 131.263,256.768 130.263,256.268 129.5,255.5C 131.928,245.191 133.261,234.691 133.5,224C 131.874,219.945 131.374,215.778 132,211.5C 132.192,205.999 134.358,204.666 138.5,207.5 Z"/></g>
<g><path style="opacity:0.999" fill="#0748a5" d="M 393.5,284.5 C 392.086,287.56 389.753,289.726 386.5,291C 382.747,291.091 379.08,291.258 375.5,291.5C 377.423,292.308 379.423,292.808 381.5,293C 384.033,294.916 384.033,296.916 381.5,299C 379.655,300.128 377.655,300.628 375.5,300.5C 375.34,302.199 375.506,303.866 376,305.5C 378.261,303.37 380.928,302.036 384,301.5C 389.876,303.52 395.709,305.687 401.5,308C 402.022,308.561 402.355,309.228 402.5,310C 399.188,314.144 394.855,315.478 389.5,314C 384.51,312.335 380.01,309.835 376,306.5C 375.251,307.635 375.417,308.635 376.5,309.5C 380.543,311.516 384.21,314.016 387.5,317C 384.138,320.573 380.138,321.406 375.5,319.5C 376.153,337.532 375.486,355.198 373.5,372.5C 371.334,372.579 369.334,373.246 367.5,374.5C 366.558,374.392 365.725,374.059 365,373.5C 364.751,374.624 364.251,375.624 363.5,376.5C 361.336,375.586 359.336,374.419 357.5,373C 360.128,370.534 363.128,368.701 366.5,367.5C 367.705,366.005 367.705,364.672 366.5,363.5C 366.667,339.498 366.5,315.498 366,291.5C 363.313,297.552 360.146,303.219 356.5,308.5C 356.67,307.178 356.337,306.011 355.5,305C 356.044,304.283 356.711,303.783 357.5,303.5C 359.78,298.229 362.78,292.895 366.5,287.5C 368.575,286.238 370.575,286.405 372.5,288C 368.993,289.33 367.327,291.83 367.5,295.5C 368.833,295.5 370.167,295.5 371.5,295.5C 371.5,296.5 371.5,297.5 371.5,298.5C 375.387,298.278 379.054,297.278 382.5,295.5C 379.914,294.52 377.247,294.187 374.5,294.5C 374.579,293.07 374.246,291.736 373.5,290.5C 377.035,289.978 380.368,288.978 383.5,287.5C 385.009,289.915 386.676,290.081 388.5,288C 387.747,286.513 386.914,286.346 386,287.5C 384.024,286.457 383.524,285.123 384.5,283.5C 386.603,285.88 387.77,285.213 388,281.5C 389.488,283.16 391.321,284.16 393.5,284.5 Z"/></g>
<g><path style="opacity:0.999" fill="#0349ab" d="M 357.5,303.5 C 356.711,303.783 356.044,304.283 355.5,305C 356.337,306.011 356.67,307.178 356.5,308.5C 355.928,310.255 355.094,311.922 354,313.5C 353.667,329.167 353.333,344.833 353,360.5C 348.667,363.167 344.333,365.833 340,368.5C 339.5,356.171 339.333,343.838 339.5,331.5C 336.019,331.107 333.352,328.94 331.5,325C 333.464,323.549 334.797,321.716 335.5,319.5C 335.5,318.833 335.833,318.5 336.5,318.5C 337.158,319.398 337.824,320.398 338.5,321.5C 339.62,320.167 340.953,319.667 342.5,320C 343.144,322.74 344.311,325.24 346,327.5C 348.212,326.88 350.046,325.713 351.5,324C 350.167,321.016 348.333,320.849 346,323.5C 345.326,320.74 344.493,318.073 343.5,315.5C 344.833,315.5 346.167,315.5 347.5,315.5C 347.523,313.073 348.023,310.74 349,308.5C 349.928,306.665 351.094,306.332 352.5,307.5C 353.996,304.825 353.329,302.825 350.5,301.5C 352.231,296.387 353.564,296.387 354.5,301.5C 356.62,300.128 357.62,300.795 357.5,303.5 Z"/></g>
<g><path style="opacity:1" fill="#0449aa" d="M 156.5,310.5 C 167.939,326.04 182.273,338.04 199.5,346.5C 200.513,349.428 199.18,350.762 195.5,350.5C 195.657,351.873 195.49,353.207 195,354.5C 193.644,353.62 192.144,353.286 190.5,353.5C 188.321,353.16 186.488,352.16 185,350.5C 184.667,361.5 184.333,372.5 184,383.5C 179.916,380.874 175.75,378.374 171.5,376C 170.678,364.242 170.178,352.409 170,340.5C 166.667,338.333 163.834,335.666 161.5,332.5C 161.179,330.952 160.179,330.285 158.5,330.5C 158.667,341.505 158.5,352.505 158,363.5C 156.989,364.337 155.822,364.67 154.5,364.5C 154.5,363.5 154.5,362.5 154.5,361.5C 151.839,360.841 149.506,359.508 147.5,357.5C 146.334,342.178 146.167,326.844 147,311.5C 148.237,309.896 149.403,308.229 150.5,306.5C 153.255,308.761 152.922,310.594 149.5,312C 149.833,312.333 150.167,312.667 150.5,313C 149.376,313.249 148.376,313.749 147.5,314.5C 148.246,315.736 148.579,317.07 148.5,318.5C 149.5,318.5 150.5,318.5 151.5,318.5C 151.147,314.541 152.813,311.874 156.5,310.5 Z"/></g>
<g><path style="opacity:1" fill="#0149ae" d="M 279.5,364.5 C 278.833,364.833 278.167,365.167 277.5,365.5C 275.738,365.643 274.071,365.309 272.5,364.5C 266.654,365.611 260.821,366.611 255,367.5C 254.667,384.167 254.333,400.833 254,417.5C 251.282,416.987 248.449,416.987 245.5,417.5C 245.333,406.162 245.5,394.828 246,383.5C 247.146,388.832 247.646,394.332 247.5,400C 247.488,405.412 247.155,410.746 246.5,416C 247.899,416.595 249.232,416.428 250.5,415.5C 251.499,402.183 251.833,388.85 251.5,375.5C 250.5,375.5 249.5,375.5 248.5,375.5C 248.539,377.359 247.706,378.692 246,379.5C 245.505,377.527 245.338,375.527 245.5,373.5C 244.5,373.5 243.5,373.5 242.5,373.5C 242.5,370.833 242.5,368.167 242.5,365.5C 248.262,365.851 253.928,365.351 259.5,364C 252.117,361.793 245.117,362.627 238.5,366.5C 234.689,364.064 230.522,362.398 226,361.5C 225.167,361.833 224.333,362.167 223.5,362.5C 225.139,363.322 226.805,363.989 228.5,364.5C 226.712,365.622 224.712,365.789 222.5,365C 222.435,363.171 222.102,361.338 221.5,359.5C 225.351,360.029 228.851,359.362 232,357.5C 232.5,358 233,358.5 233.5,359C 235.833,359.167 238.167,359.333 240.5,359.5C 248.824,358.593 257.157,358.426 265.5,359C 268.119,359.151 270.453,359.985 272.5,361.5C 275.638,360.129 277.304,357.796 277.5,354.5C 283.308,353.455 288.975,352.289 294.5,351C 293.167,353.667 291.833,356.333 290.5,359C 286.548,360.695 282.881,362.528 279.5,364.5 Z"/></g>
<g><path style="opacity:1" fill="#0949a5" d="M 335.5,319.5 C 334.797,321.716 333.464,323.549 331.5,325C 333.352,328.94 336.019,331.107 339.5,331.5C 335.578,333.915 332.078,336.915 329,340.5C 328.667,352.167 328.333,363.833 328,375.5C 323.667,378.167 319.333,380.833 315,383.5C 314.667,372.5 314.333,361.5 314,350.5C 311.079,352.712 307.912,354.545 304.5,356C 303.843,367.439 303.177,378.939 302.5,390.5C 298.199,392.969 294.033,395.636 290,398.5C 289.667,386.167 289.333,373.833 289,361.5C 286.066,363.193 282.899,364.193 279.5,364.5C 282.881,362.528 286.548,360.695 290.5,359C 291.833,356.333 293.167,353.667 294.5,351C 288.975,352.289 283.308,353.455 277.5,354.5C 277.304,357.796 275.638,360.129 272.5,361.5C 270.453,359.985 268.119,359.151 265.5,359C 257.157,358.426 248.824,358.593 240.5,359.5C 238.167,359.333 235.833,359.167 233.5,359C 233,358.5 232.5,358 232,357.5C 228.851,359.362 225.351,360.029 221.5,359.5C 219.621,359.607 219.288,359.107 220.5,358C 223.167,357.667 225.833,357.333 228.5,357C 223.647,356.33 219.313,354.83 215.5,352.5C 261.794,363.929 301.794,352.929 335.5,319.5 Z"/></g>
<g><path style="opacity:1" fill="#0149ac" d="M 215.5,352.5 C 219.313,354.83 223.647,356.33 228.5,357C 225.833,357.333 223.167,357.667 220.5,358C 219.288,359.107 219.621,359.607 221.5,359.5C 222.102,361.338 222.435,363.171 222.5,365C 224.712,365.789 226.712,365.622 228.5,364.5C 228.295,366.137 228.795,367.804 230,369.5C 230.5,380.161 230.667,390.828 230.5,401.5C 228.473,401.662 226.473,401.495 224.5,401C 224.043,400.586 223.709,400.086 223.5,399.5C 224.724,396.869 225.391,394.035 225.5,391C 225,383.5 224.5,376 224,368.5C 223.865,374.279 223.032,379.946 221.5,385.5C 221.577,387.299 222.077,388.966 223,390.5C 223.333,389.5 223.667,388.5 224,387.5C 224.667,390.167 224.667,392.833 224,395.5C 223.667,394.833 223.333,394.167 223,393.5C 221.938,396.029 221.105,398.696 220.5,401.5C 219.914,401.291 219.414,400.957 219,400.5C 218.667,388.167 218.333,375.833 218,363.5C 214.784,362.538 211.618,361.372 208.5,360C 209.337,358.989 209.67,357.822 209.5,356.5C 206.221,355.969 204.887,353.969 205.5,350.5C 208.658,351.876 211.991,352.542 215.5,352.5 Z"/></g>
<g><path style="opacity:1" fill="#0249ab" d="M 132.5,364.5 C 132.5,364.833 132.5,365.167 132.5,365.5C 130.5,368.167 128.167,370.5 125.5,372.5C 123.514,355.198 122.847,337.532 123.5,319.5C 119.655,321.131 115.988,320.798 112.5,318.5C 111.912,315.695 113.245,314.028 116.5,313.5C 117.873,313.657 119.207,313.49 120.5,313C 123.102,310.869 125.768,309.035 128.5,307.5C 129.013,311.546 129.846,315.546 131,319.5C 131.823,334.408 131.657,349.241 130.5,364C 131.094,364.464 131.761,364.631 132.5,364.5 Z"/></g>
<g><path style="opacity:1" fill="#0b4aa6" d="M 132.5,365.5 C 136.559,367.948 140.725,370.281 145,372.5C 145.333,371.5 145.667,370.5 146,369.5C 150.033,372.364 154.199,375.031 158.5,377.5C 160.719,382.129 164.385,385.129 169.5,386.5C 170.192,385.975 170.692,385.308 171,384.5C 173.479,386.314 175.979,387.981 178.5,389.5C 174.599,388.857 171.266,389.857 168.5,392.5C 167.914,392.291 167.414,391.957 167,391.5C 166.316,392.784 166.483,393.951 167.5,395C 169.441,395.743 171.274,395.576 173,394.5C 173.5,395 174,395.5 174.5,396C 172.292,396.191 170.292,396.691 168.5,397.5C 153.667,389.921 139.334,381.587 125.5,372.5C 128.167,370.5 130.5,368.167 132.5,365.5 Z"/></g>
<g><path style="opacity:1" fill="#0349a9" d="M 277.5,365.5 C 277.667,378.837 277.5,392.171 277,405.5C 272.967,408.364 268.801,411.031 264.5,413.5C 263.501,398.181 263.167,382.848 263.5,367.5C 261.08,367.292 258.747,367.626 256.5,368.5C 255.667,385.157 255.167,401.823 255,418.5C 251.992,421.894 248.826,422.227 245.5,419.5C 244.878,418.373 244.045,417.373 243,416.5C 242.5,402.171 242.333,387.837 242.5,373.5C 243.5,373.5 244.5,373.5 245.5,373.5C 245.338,375.527 245.505,377.527 246,379.5C 247.706,378.692 248.539,377.359 248.5,375.5C 249.5,375.5 250.5,375.5 251.5,375.5C 251.833,388.85 251.499,402.183 250.5,415.5C 249.232,416.428 247.899,416.595 246.5,416C 247.155,410.746 247.488,405.412 247.5,400C 247.646,394.332 247.146,388.832 246,383.5C 245.5,394.828 245.333,406.162 245.5,417.5C 248.449,416.987 251.282,416.987 254,417.5C 254.333,400.833 254.667,384.167 255,367.5C 260.821,366.611 266.654,365.611 272.5,364.5C 274.071,365.309 275.738,365.643 277.5,365.5 Z"/></g>
<g><path style="opacity:1" fill="#0b49a4" d="M 366.5,363.5 C 367.705,364.672 367.705,366.005 366.5,367.5C 363.128,368.701 360.128,370.534 357.5,373C 359.336,374.419 361.336,375.586 363.5,376.5C 364.251,375.624 364.751,374.624 365,373.5C 365.725,374.059 366.558,374.392 367.5,374.5C 369.334,373.246 371.334,372.579 373.5,372.5C 350.034,386.737 326.367,400.737 302.5,414.5C 302.842,411.645 304.509,410.145 307.5,410C 308.618,408.926 309.618,407.76 310.5,406.5C 314.074,405.548 317.407,404.215 320.5,402.5C 320.351,401.448 320.517,400.448 321,399.5C 322.183,400.731 323.349,400.731 324.5,399.5C 323.147,398.476 322.48,397.143 322.5,395.5C 323.93,395.421 325.264,395.754 326.5,396.5C 326.833,396 327.167,395.5 327.5,395C 325.884,392.214 323.551,390.38 320.5,389.5C 323.021,387.981 325.521,386.314 328,384.5C 328.333,385.5 328.667,386.5 329,387.5C 332.082,385.375 335.249,383.375 338.5,381.5C 339.244,380.009 339.91,378.509 340.5,377C 344.75,374.626 348.916,372.126 353,369.5C 353.333,370.5 353.667,371.5 354,372.5C 357.914,370.46 361.748,368.293 365.5,366C 366.252,365.329 366.586,364.496 366.5,363.5 Z"/></g>
<g><path style="opacity:1" fill="#0749a5" d="M 199.5,346.5 C 204.974,348.322 210.308,350.322 215.5,352.5C 211.991,352.542 208.658,351.876 205.5,350.5C 204.887,353.969 206.221,355.969 209.5,356.5C 209.67,357.822 209.337,358.989 208.5,360C 211.618,361.372 214.784,362.538 218,363.5C 218.333,375.833 218.667,388.167 219,400.5C 219.414,400.957 219.914,401.291 220.5,401.5C 221.105,398.696 221.938,396.029 223,393.5C 223.333,394.167 223.667,394.833 224,395.5C 224.667,392.833 224.667,390.167 224,387.5C 223.667,388.5 223.333,389.5 223,390.5C 222.077,388.966 221.577,387.299 221.5,385.5C 223.032,379.946 223.865,374.279 224,368.5C 224.5,376 225,383.5 225.5,391C 225.391,394.035 224.724,396.869 223.5,399.5C 223.709,400.086 224.043,400.586 224.5,401C 226.473,401.495 228.473,401.662 230.5,401.5C 230.667,390.828 230.5,380.161 230,369.5C 228.795,367.804 228.295,366.137 228.5,364.5C 226.805,363.989 225.139,363.322 223.5,362.5C 224.333,362.167 225.167,361.833 226,361.5C 230.522,362.398 234.689,364.064 238.5,366.5C 245.117,362.627 252.117,361.793 259.5,364C 253.928,365.351 248.262,365.851 242.5,365.5C 242.5,368.167 242.5,370.833 242.5,373.5C 242.333,387.837 242.5,402.171 243,416.5C 244.045,417.373 244.878,418.373 245.5,419.5C 243.983,419.489 242.816,418.823 242,417.5C 241.5,400.837 241.333,384.17 241.5,367.5C 238.167,367.5 234.833,367.5 231.5,367.5C 231.667,382.17 231.5,396.837 231,411.5C 226.667,408.833 222.333,406.167 218,403.5C 217.824,390.258 217.324,377.092 216.5,364C 213.851,363.548 211.351,362.714 209,361.5C 208.833,373.514 208.333,385.514 207.5,397.5C 203.167,394.833 198.833,392.167 194.5,389.5C 193.668,378.181 193.168,366.848 193,355.5C 192.005,354.934 191.172,354.267 190.5,353.5C 192.144,353.286 193.644,353.62 195,354.5C 195.49,353.207 195.657,351.873 195.5,350.5C 199.18,350.762 200.513,349.428 199.5,346.5 Z"/></g>
<g><path style="opacity:1" fill="#0649a9" d="M 320.5,389.5 C 323.551,390.38 325.884,392.214 327.5,395C 327.167,395.5 326.833,396 326.5,396.5C 325.264,395.754 323.93,395.421 322.5,395.5C 322.48,397.143 323.147,398.476 324.5,399.5C 323.349,400.731 322.183,400.731 321,399.5C 320.517,400.448 320.351,401.448 320.5,402.5C 317.407,404.215 314.074,405.548 310.5,406.5C 309.618,407.76 308.618,408.926 307.5,410C 304.509,410.145 302.842,411.645 302.5,414.5C 296.669,417.581 291.002,420.915 285.5,424.5C 283.626,423.358 281.793,422.025 280,420.5C 279.818,418.67 280.318,417.003 281.5,415.5C 283.428,413.526 285.761,412.026 288.5,411C 289.167,409.667 289.833,408.333 290.5,407C 294.75,404.626 298.916,402.126 303,399.5C 303.308,400.308 303.808,400.975 304.5,401.5C 307.005,399.747 309.671,398.247 312.5,397C 313.87,395.559 314.87,393.892 315.5,392C 317.078,390.906 318.745,390.072 320.5,389.5 Z"/></g>
<g><path style="opacity:1" fill="#0849a7" d="M 178.5,389.5 C 180.14,390.32 181.807,391.153 183.5,392C 185.238,396.307 188.404,399.141 193,400.5C 193.333,399.833 193.667,399.167 194,398.5C 200.565,401.354 206.065,405.521 210.5,411C 214.833,413.498 219.166,415.332 223.5,416.5C 223.5,417.5 223.5,418.5 223.5,419.5C 221.8,419.374 220.3,418.707 219,417.5C 217.37,418.713 215.536,419.546 213.5,420C 218.014,422.45 222.514,422.617 227,420.5C 229.495,421.114 229.828,422.114 228,423.5C 225.042,425.233 221.875,426.233 218.5,426.5C 201.498,417.335 184.831,407.668 168.5,397.5C 170.292,396.691 172.292,396.191 174.5,396C 174,395.5 173.5,395 173,394.5C 171.274,395.576 169.441,395.743 167.5,395C 166.483,393.951 166.316,392.784 167,391.5C 167.414,391.957 167.914,392.291 168.5,392.5C 171.266,389.857 174.599,388.857 178.5,389.5 Z"/></g>
<g><path style="opacity:1" fill="#0a4aa6" d="M 281.5,415.5 C 280.318,417.003 279.818,418.67 280,420.5C 281.793,422.025 283.626,423.358 285.5,424.5C 273.749,431.578 261.749,438.245 249.5,444.5C 238.65,439.247 228.317,433.247 218.5,426.5C 221.875,426.233 225.042,425.233 228,423.5C 229.828,422.114 229.495,421.114 227,420.5C 222.514,422.617 218.014,422.45 213.5,420C 215.536,419.546 217.37,418.713 219,417.5C 220.3,418.707 221.8,419.374 223.5,419.5C 223.5,418.5 223.5,417.5 223.5,416.5C 228.317,417.902 231.984,420.735 234.5,425C 239.621,426.552 244.621,428.719 249.5,431.5C 253.952,430.283 258.286,428.45 262.5,426C 263.071,424.795 263.738,423.628 264.5,422.5C 269.742,418.456 275.408,416.122 281.5,415.5 Z"/></g>
</svg>
