<?xml version="1.0" encoding="UTF-8"?>
<!DOCTYPE svg PUBLIC "-//W3C//DTD SVG 1.1//EN" "http://www.w3.org/Graphics/SVG/1.1/DTD/svg11.dtd">
<svg xmlns="http://www.w3.org/2000/svg" version="1.1" width="500px" height="500px" style="shape-rendering:geometricPrecision; text-rendering:geometricPrecision; image-rendering:optimizeQuality; fill-rule:evenodd; clip-rule:evenodd" xmlns:xlink="http://www.w3.org/1999/xlink">
<g><path style="opacity:1" fill="#154cb2" d="M 368.5,185.5 C 366.738,181.239 365.571,176.572 365,171.5C 364.667,171.167 364.333,170.833 364,170.5C 363.077,171.759 362.243,173.092 361.5,174.5C 360.958,171.214 359.958,168.214 358.5,165.5C 358.5,164.833 358.5,164.167 358.5,163.5C 358.5,160.167 358.5,156.833 358.5,153.5C 360.318,151.922 361.318,152.422 361.5,155C 360.433,157.869 360.433,160.703 361.5,163.5C 362.696,163.154 362.696,162.654 361.5,162C 362.448,161.517 363.448,161.351 364.5,161.5C 365.133,144.33 364.466,127.33 362.5,110.5C 363.689,109.571 365.022,109.238 366.5,109.5C 366.5,108.167 366.5,106.833 366.5,105.5C 364.712,105.785 363.045,105.452 361.5,104.5C 362.999,103.096 362.666,102.43 360.5,102.5C 359.416,102.685 358.416,103.018 357.5,103.5C 355.435,103.517 353.435,103.85 351.5,104.5C 322.491,88.609 291.491,78.9423 258.5,75.5C 256.842,74.8186 255.175,73.9853 253.5,73C 242.5,72.3333 231.5,72.3333 220.5,73C 219.584,73.2784 218.918,73.7784 218.5,74.5C 214.637,74.5381 210.804,74.2048 207,73.5C 202.292,75.1789 197.459,76.6789 192.5,78C 188.152,78.4155 183.819,78.2488 179.5,77.5C 179.719,78.675 179.386,79.675 178.5,80.5C 175.441,81.4624 172.775,82.7957 170.5,84.5C 168.786,85.7384 166.786,86.405 164.5,86.5C 162.473,86.6621 160.473,86.4955 158.5,86C 159.604,84.8687 159.271,84.0354 157.5,83.5C 154.539,84.1831 154.205,85.0164 156.5,86C 155.91,87.2989 154.91,88.1322 153.5,88.5C 151.41,86.8942 149.076,86.3942 146.5,87C 148.301,87.3173 148.634,87.984 147.5,89C 149.167,89.3333 150.833,89.6667 152.5,90C 148.863,92.3952 145.363,92.8952 142,91.5C 141.544,92.7441 142.044,93.5774 143.5,94C 141.231,94.7581 139.064,94.5914 137,93.5C 136.5,94 136,94.5 135.5,95C 136.337,96.0113 136.67,97.1779 136.5,98.5C 135.035,99.7368 133.368,100.737 131.5,101.5C 129.208,101.756 127.041,101.423 125,100.5C 123.648,102.432 121.815,103.766 119.5,104.5C 118.863,107.107 117.696,109.44 116,111.5C 116.048,108.432 114.881,106.098 112.5,104.5C 113.153,109.223 113.153,114.223 112.5,119.5C 112.167,119.5 111.833,119.5 111.5,119.5C 110.835,115.185 110.168,110.852 109.5,106.5C 109.529,104.971 110.196,103.804 111.5,103C 169.206,67.3251 231.206,57.3251 297.5,73C 322.442,79.8574 345.609,90.3574 367,104.5C 364.791,131.537 365.291,158.537 368.5,185.5 Z"/></g>
<g><path style="opacity:1" fill="#1e4f9f" d="M 258.5,75.5 C 247.85,74.7616 237.183,74.4283 226.5,74.5C 223.833,74.5 221.167,74.5 218.5,74.5C 218.918,73.7784 219.584,73.2784 220.5,73C 231.5,72.3333 242.5,72.3333 253.5,73C 255.175,73.9853 256.842,74.8186 258.5,75.5 Z"/></g>
<g><path style="opacity:1" fill="#f5fbfc" d="M 226.5,74.5 C 237.183,74.4283 247.85,74.7616 258.5,75.5C 291.491,78.9423 322.491,88.609 351.5,104.5C 353.151,105.97 354.985,107.303 357,108.5C 357.168,127.005 357.668,145.338 358.5,163.5C 358.5,164.167 358.5,164.833 358.5,165.5C 358.502,172.52 358.835,179.52 359.5,186.5C 356.833,186.5 354.167,186.5 351.5,186.5C 351.5,186.167 351.5,185.833 351.5,185.5C 349.818,164.874 349.152,144.207 349.5,123.5C 349.823,119.774 349.489,116.107 348.5,112.5C 327.98,100.216 305.98,91.8827 282.5,87.5C 228.281,76.0768 177.281,84.4102 129.5,112.5C 128.883,112.611 128.383,112.944 128,113.5C 128.796,134.85 128.296,156.183 126.5,177.5C 126.439,182.297 125.439,186.631 123.5,190.5C 121.703,189.27 119.703,188.604 117.5,188.5C 117.947,178.804 118.78,169.137 120,159.5C 120.56,142.477 120.56,125.477 120,108.5C 123.814,106.016 127.647,103.682 131.5,101.5C 133.368,100.737 135.035,99.7368 136.5,98.5C 145.901,94.4608 155.235,90.4608 164.5,86.5C 166.786,86.405 168.786,85.7384 170.5,84.5C 188.911,78.9885 207.578,75.6552 226.5,74.5 Z"/></g>
<g><path style="opacity:1" fill="#2152a3" d="M 218.5,74.5 C 221.167,74.5 223.833,74.5 226.5,74.5C 207.578,75.6552 188.911,78.9885 170.5,84.5C 172.775,82.7957 175.441,81.4624 178.5,80.5C 179.386,79.675 179.719,78.675 179.5,77.5C 183.819,78.2488 188.152,78.4155 192.5,78C 197.459,76.6789 202.292,75.1789 207,73.5C 210.804,74.2048 214.637,74.5381 218.5,74.5 Z"/></g>
<g><path style="opacity:1" fill="#427fd4" d="M 282.5,87.5 C 282.611,88.1174 282.944,88.6174 283.5,89C 281.2,89.6583 278.867,90.1583 276.5,90.5C 273.188,89.6208 269.855,89.4541 266.5,90C 268.889,90.7388 270.889,91.9054 272.5,93.5C 224.621,85.9378 179.621,93.9378 137.5,117.5C 136.667,134.157 136.167,150.823 136,167.5C 135.235,178.888 134.068,190.221 132.5,201.5C 131.379,199.259 130.213,196.925 129,194.5C 126.985,193.303 125.151,191.97 123.5,190.5C 125.439,186.631 126.439,182.297 126.5,177.5C 128.068,169.391 128.902,161.058 129,152.5C 129.5,139.171 129.667,125.837 129.5,112.5C 177.281,84.4102 228.281,76.0768 282.5,87.5 Z"/></g>
<g><path style="opacity:1" fill="#014aac" d="M 272.5,93.5 C 275.906,93.9555 279.239,94.6222 282.5,95.5C 269.5,109.167 256.167,122.5 242.5,135.5C 235.825,135.334 229.158,135.5 222.5,136C 217.804,138.231 212.804,139.397 207.5,139.5C 207.5,140.5 207.5,141.5 207.5,142.5C 195.093,145.107 184.427,150.94 175.5,160C 174.451,160.492 173.451,160.326 172.5,159.5C 171.289,160.274 171.289,161.107 172.5,162C 171.975,162.692 171.308,163.192 170.5,163.5C 169.264,162.754 167.93,162.421 166.5,162.5C 167.768,165.126 167.768,167.293 166.5,169C 164.881,171.73 162.548,173.563 159.5,174.5C 158.167,175.5 158.167,176.5 159.5,177.5C 157.722,179.945 156.389,182.611 155.5,185.5C 154.858,182.203 153.691,181.869 152,184.5C 151.333,185.5 151.333,186.5 152,187.5C 153.045,188.373 153.878,189.373 154.5,190.5C 154.5,190.833 154.5,191.167 154.5,191.5C 153.5,191.5 152.5,191.5 151.5,191.5C 151.719,190.325 151.386,189.325 150.5,188.5C 149.246,190.259 149.579,191.759 151.5,193C 146.22,204.564 143.553,216.731 143.5,229.5C 140.772,229.171 138.438,229.837 136.5,231.5C 135.833,231.5 135.167,231.5 134.5,231.5C 131.833,231.5 129.167,231.5 126.5,231.5C 128.936,227.228 129.769,222.561 129,217.5C 128.066,218.858 127.232,220.192 126.5,221.5C 126.5,220.167 126.5,218.833 126.5,217.5C 127.065,215.58 128.065,213.913 129.5,212.5C 131.118,209.112 132.118,205.446 132.5,201.5C 134.068,190.221 135.235,178.888 136,167.5C 136.167,150.823 136.667,134.157 137.5,117.5C 179.621,93.9378 224.621,85.9378 272.5,93.5 Z"/></g>
<g><path style="opacity:1" fill="#184da2" d="M 164.5,86.5 C 155.235,90.4608 145.901,94.4608 136.5,98.5C 136.67,97.1779 136.337,96.0113 135.5,95C 136,94.5 136.5,94 137,93.5C 139.064,94.5914 141.231,94.7581 143.5,94C 142.044,93.5774 141.544,92.7441 142,91.5C 145.363,92.8952 148.863,92.3952 152.5,90C 150.833,89.6667 149.167,89.3333 147.5,89C 148.634,87.984 148.301,87.3173 146.5,87C 149.076,86.3942 151.41,86.8942 153.5,88.5C 154.91,88.1322 155.91,87.2989 156.5,86C 154.205,85.0164 154.539,84.1831 157.5,83.5C 159.271,84.0354 159.604,84.8687 158.5,86C 160.473,86.4955 162.473,86.6621 164.5,86.5 Z"/></g>
<g><path style="opacity:1" fill="#4781d1" d="M 282.5,87.5 C 305.98,91.8827 327.98,100.216 348.5,112.5C 349.489,116.107 349.823,119.774 349.5,123.5C 348.338,140.662 348.171,157.995 349,175.5C 349.885,178.952 350.718,182.286 351.5,185.5C 351.5,185.833 351.5,186.167 351.5,186.5C 351.5,186.833 351.5,187.167 351.5,187.5C 347.785,187.423 344.119,187.756 340.5,188.5C 342.498,184.477 342.998,180.144 342,175.5C 341.617,174.944 341.117,174.611 340.5,174.5C 341.301,172.958 341.634,171.292 341.5,169.5C 340.747,160.854 340.413,152.188 340.5,143.5C 340.666,134.827 340.5,126.16 340,117.5C 337.765,115.798 335.265,114.798 332.5,114.5C 325.822,109.825 318.489,106.492 310.5,104.5C 301.509,100.726 292.175,97.7262 282.5,95.5C 279.239,94.6222 275.906,93.9555 272.5,93.5C 270.889,91.9054 268.889,90.7388 266.5,90C 269.855,89.4541 273.188,89.6208 276.5,90.5C 278.867,90.1583 281.2,89.6583 283.5,89C 282.944,88.6174 282.611,88.1174 282.5,87.5 Z"/></g>
<g><path style="opacity:1" fill="#f5f9f9" d="M 282.5,95.5 C 292.175,97.7262 301.509,100.726 310.5,104.5C 299.5,115.833 288.5,127.167 277.5,138.5C 275.754,140.252 273.754,141.585 271.5,142.5C 262.371,138.475 252.704,136.475 242.5,136.5C 242.5,136.167 242.5,135.833 242.5,135.5C 256.167,122.5 269.5,109.167 282.5,95.5 Z"/></g>
<g><path style="opacity:1" fill="#0249aa" d="M 310.5,104.5 C 318.489,106.492 325.822,109.825 332.5,114.5C 322.833,123.833 313.167,133.167 303.5,142.5C 300.495,142.25 298.662,143.583 298,146.5C 297.586,146.043 297.086,145.709 296.5,145.5C 295.571,146.689 295.238,148.022 295.5,149.5C 288.044,149.44 281.378,147.106 275.5,142.5C 276.63,141.378 277.297,140.044 277.5,138.5C 288.5,127.167 299.5,115.833 310.5,104.5 Z"/></g>
<g><path style="opacity:1" fill="#0149ab" d="M 358.5,153.5 C 358.217,139.144 358.551,124.811 359.5,110.5C 359.314,108.42 358.314,106.92 356.5,106C 357.252,105.329 357.586,104.496 357.5,103.5C 358.416,103.018 359.416,102.685 360.5,102.5C 362.666,102.43 362.999,103.096 361.5,104.5C 363.045,105.452 364.712,105.785 366.5,105.5C 366.5,106.833 366.5,108.167 366.5,109.5C 365.022,109.238 363.689,109.571 362.5,110.5C 364.466,127.33 365.133,144.33 364.5,161.5C 363.448,161.351 362.448,161.517 361.5,162C 362.696,162.654 362.696,163.154 361.5,163.5C 360.433,160.703 360.433,157.869 361.5,155C 361.318,152.422 360.318,151.922 358.5,153.5 Z"/></g>
<g><path style="opacity:1" fill="#f7fafa" d="M 332.5,114.5 C 335.265,114.798 337.765,115.798 340,117.5C 340.5,126.16 340.666,134.827 340.5,143.5C 331.167,152.167 322.167,161.167 313.5,170.5C 306.853,164.856 300.186,159.189 293.5,153.5C 296.833,149.833 300.167,146.167 303.5,142.5C 313.167,133.167 322.833,123.833 332.5,114.5 Z"/></g>
<g><path style="opacity:0.81" fill="#566ae7" d="M 111.5,119.5 C 111.833,119.5 112.167,119.5 112.5,119.5C 112.667,130.505 112.5,141.505 112,152.5C 111.722,153.416 111.222,154.082 110.5,154.5C 111.436,142.871 111.77,131.204 111.5,119.5 Z"/></g>
<g><path style="opacity:1" fill="#1a4f9d" d="M 357.5,103.5 C 357.586,104.496 357.252,105.329 356.5,106C 358.314,106.92 359.314,108.42 359.5,110.5C 358.551,124.811 358.217,139.144 358.5,153.5C 358.5,156.833 358.5,160.167 358.5,163.5C 357.668,145.338 357.168,127.005 357,108.5C 354.985,107.303 353.151,105.97 351.5,104.5C 353.435,103.85 355.435,103.517 357.5,103.5 Z"/></g>
<g><path style="opacity:1" fill="#5a84bb" d="M 129.5,112.5 C 129.667,125.837 129.5,139.171 129,152.5C 128.902,161.058 128.068,169.391 126.5,177.5C 128.296,156.183 128.796,134.85 128,113.5C 128.383,112.944 128.883,112.611 129.5,112.5 Z"/></g>
<g><path style="opacity:1" fill="#3a5c97" d="M 242.5,136.5 C 252.704,136.475 262.371,138.475 271.5,142.5C 271.833,143.167 272.167,143.833 272.5,144.5C 259.277,139.733 245.61,137.733 231.5,138.5C 234.997,137.598 238.663,136.931 242.5,136.5 Z"/></g>
<g><path style="opacity:1" fill="#f0f9fd" d="M 231.5,138.5 C 245.61,137.733 259.277,139.733 272.5,144.5C 279.942,147.387 286.942,151.054 293.5,155.5C 300.833,162.167 307.833,169.167 314.5,176.5C 316.566,180.966 318.9,185.299 321.5,189.5C 321.03,190.693 320.03,191.36 318.5,191.5C 317.5,191.167 316.5,190.833 315.5,190.5C 305.54,171.868 290.874,158.535 271.5,150.5C 271.167,150.5 270.833,150.5 270.5,150.5C 263.439,146.648 255.773,144.481 247.5,144C 239.118,143.227 230.785,143.394 222.5,144.5C 203.557,147.968 187.557,156.634 174.5,170.5C 168.02,176.785 163.02,184.118 159.5,192.5C 153.552,203.29 150.552,214.956 150.5,227.5C 149.167,227.5 147.833,227.5 146.5,227.5C 146.237,214.812 148.904,202.812 154.5,191.5C 154.5,191.167 154.5,190.833 154.5,190.5C 170.975,159.713 196.641,142.379 231.5,138.5 Z"/></g>
<g><path style="opacity:1" fill="#144cab" d="M 131.5,101.5 C 127.647,103.682 123.814,106.016 120,108.5C 120.56,125.477 120.56,142.477 120,159.5C 118.78,169.137 117.947,178.804 117.5,188.5C 116.167,188.5 114.833,188.5 113.5,188.5C 109.727,187.897 106.061,187.23 102.5,186.5C 105.082,186.975 107.082,186.308 108.5,184.5C 109.167,184.5 109.5,184.167 109.5,183.5C 111.461,174.207 111.794,164.874 110.5,155.5C 110.5,155.167 110.5,154.833 110.5,154.5C 111.222,154.082 111.722,153.416 112,152.5C 112.5,141.505 112.667,130.505 112.5,119.5C 113.153,114.223 113.153,109.223 112.5,104.5C 114.881,106.098 116.048,108.432 116,111.5C 117.696,109.44 118.863,107.107 119.5,104.5C 121.815,103.766 123.648,102.432 125,100.5C 127.041,101.423 129.208,101.756 131.5,101.5 Z"/></g>
<g><path style="opacity:1" fill="#174da2" d="M 270.5,150.5 C 261.956,148.23 253.289,146.563 244.5,145.5C 241.937,145.737 241.937,146.237 244.5,147C 241.518,147.498 238.518,147.665 235.5,147.5C 235.5,146.5 235.5,145.5 235.5,144.5C 230.86,143.736 226.86,144.903 223.5,148C 225.936,148.206 227.602,149.373 228.5,151.5C 225.828,150.499 223.162,149.499 220.5,148.5C 220.196,147.85 219.863,147.183 219.5,146.5C 220.602,145.824 221.602,145.158 222.5,144.5C 230.785,143.394 239.118,143.227 247.5,144C 255.773,144.481 263.439,146.648 270.5,150.5 Z"/></g>
<g><path style="opacity:1" fill="#114cab" d="M 270.5,150.5 C 270.833,150.5 271.167,150.5 271.5,150.5C 272.623,152.979 272.623,155.312 271.5,157.5C 260.846,156.85 250.179,156.516 239.5,156.5C 238.833,156.5 238.167,156.5 237.5,156.5C 234.887,154.282 231.887,152.615 228.5,151.5C 227.602,149.373 225.936,148.206 223.5,148C 226.86,144.903 230.86,143.736 235.5,144.5C 235.5,145.5 235.5,146.5 235.5,147.5C 238.518,147.665 241.518,147.498 244.5,147C 241.937,146.237 241.937,145.737 244.5,145.5C 253.289,146.563 261.956,148.23 270.5,150.5 Z"/></g>
<g><path style="opacity:1" fill="#fafdfd" d="M 220.5,148.5 C 223.162,149.499 225.828,150.499 228.5,151.5C 231.887,152.615 234.887,154.282 237.5,156.5C 232.166,164.169 228.166,172.502 225.5,181.5C 220.71,182.204 216.377,183.871 212.5,186.5C 206.002,188.577 200.335,191.91 195.5,196.5C 188.574,192.91 181.574,189.41 174.5,186C 173.748,185.329 173.414,184.496 173.5,183.5C 175.028,180.251 176.361,176.918 177.5,173.5C 179.019,170.979 180.686,168.479 182.5,166C 191.427,159.369 201.093,154.036 211.5,150C 214.432,149.047 217.432,148.547 220.5,148.5 Z"/></g>
<g><path style="opacity:1" fill="#1f56a6" d="M 277.5,138.5 C 277.297,140.044 276.63,141.378 275.5,142.5C 281.378,147.106 288.044,149.44 295.5,149.5C 295.238,148.022 295.571,146.689 296.5,145.5C 297.086,145.709 297.586,146.043 298,146.5C 298.662,143.583 300.495,142.25 303.5,142.5C 300.167,146.167 296.833,149.833 293.5,153.5C 293.5,154.167 293.5,154.833 293.5,155.5C 286.942,151.054 279.942,147.387 272.5,144.5C 272.167,143.833 271.833,143.167 271.5,142.5C 273.754,141.585 275.754,140.252 277.5,138.5 Z"/></g>
<g><path style="opacity:1" fill="#2b559a" d="M 222.5,144.5 C 221.602,145.158 220.602,145.824 219.5,146.5C 219.863,147.183 220.196,147.85 220.5,148.5C 217.432,148.547 214.432,149.047 211.5,150C 201.093,154.036 191.427,159.369 182.5,166C 180.686,168.479 179.019,170.979 177.5,173.5C 177.5,172.5 177.5,171.5 177.5,170.5C 176.5,170.5 175.5,170.5 174.5,170.5C 187.557,156.634 203.557,147.968 222.5,144.5 Z"/></g>
<g><path style="opacity:1" fill="#fbfdfe" d="M 239.5,156.5 C 250.179,156.516 260.846,156.85 271.5,157.5C 279.135,164.302 286.301,171.635 293,179.5C 295.326,182.277 295.826,185.277 294.5,188.5C 292.734,191.188 291.067,194.021 289.5,197C 276.616,199.564 263.783,202.398 251,205.5C 249.357,204.685 247.857,203.685 246.5,202.5C 246.5,202.167 246.5,201.833 246.5,201.5C 240.005,194.837 233.671,188.004 227.5,181C 230.836,172.495 234.836,164.328 239.5,156.5 Z"/></g>
<g><path style="opacity:1" fill="#2b5696" d="M 271.5,150.5 C 290.874,158.535 305.54,171.868 315.5,190.5C 316.5,190.833 317.5,191.167 318.5,191.5C 320.03,191.36 321.03,190.693 321.5,189.5C 322.467,190.806 323.801,191.473 325.5,191.5C 325.263,190.209 325.596,189.209 326.5,188.5C 330.998,189.375 335.665,189.375 340.5,188.5C 344.119,187.756 347.785,187.423 351.5,187.5C 350.5,188.167 349.5,188.833 348.5,189.5C 335.135,190.906 321.801,192.573 308.5,194.5C 308.5,192.833 308.5,191.167 308.5,189.5C 309.482,190.141 310.482,190.807 311.5,191.5C 311.833,191.167 312.167,190.833 312.5,190.5C 303.751,173.918 290.918,161.585 274,153.5C 273.333,154.5 273.333,155.5 274,156.5C 282.782,164.276 290.449,172.942 297,182.5C 300.147,184.65 303.313,186.65 306.5,188.5C 303.423,188.273 300.59,187.273 298,185.5C 296.826,186.544 295.659,187.544 294.5,188.5C 295.826,185.277 295.326,182.277 293,179.5C 286.301,171.635 279.135,164.302 271.5,157.5C 272.623,155.312 272.623,152.979 271.5,150.5 Z"/></g>
<g><path style="opacity:1" fill="#325995" d="M 293.5,153.5 C 300.186,159.189 306.853,164.856 313.5,170.5C 313.5,171.167 313.5,171.833 313.5,172.5C 313.833,173.833 314.167,175.167 314.5,176.5C 307.833,169.167 300.833,162.167 293.5,155.5C 293.5,154.833 293.5,154.167 293.5,153.5 Z"/></g>
<g><path style="opacity:1" fill="#0249ac" d="M 340.5,143.5 C 340.413,152.188 340.747,160.854 341.5,169.5C 339.068,172.074 336.734,174.741 334.5,177.5C 333.311,178.429 331.978,178.762 330.5,178.5C 330.638,182.189 328.972,184.023 325.5,184C 323.781,182.943 321.947,182.11 320,181.5C 319.056,178.653 319.556,176.153 321.5,174C 319.559,173.696 317.893,172.863 316.5,171.5C 315.583,172.127 314.583,172.461 313.5,172.5C 313.5,171.833 313.5,171.167 313.5,170.5C 322.167,161.167 331.167,152.167 340.5,143.5 Z"/></g>
<g><path style="opacity:1" fill="#759dd3" d="M 349.5,123.5 C 349.152,144.207 349.818,164.874 351.5,185.5C 350.718,182.286 349.885,178.952 349,175.5C 348.171,157.995 348.338,140.662 349.5,123.5 Z"/></g>
<g><path style="opacity:1" fill="#4966df" d="M 110.5,155.5 C 111.794,164.874 111.461,174.207 109.5,183.5C 109.833,174.167 110.167,164.833 110.5,155.5 Z"/></g>
<g><path style="opacity:1" fill="#1e56a7" d="M 242.5,135.5 C 242.5,135.833 242.5,136.167 242.5,136.5C 238.663,136.931 234.997,137.598 231.5,138.5C 196.641,142.379 170.975,159.713 154.5,190.5C 153.878,189.373 153.045,188.373 152,187.5C 151.333,186.5 151.333,185.5 152,184.5C 153.691,181.869 154.858,182.203 155.5,185.5C 156.389,182.611 157.722,179.945 159.5,177.5C 158.167,176.5 158.167,175.5 159.5,174.5C 162.548,173.563 164.881,171.73 166.5,169C 167.768,167.293 167.768,165.126 166.5,162.5C 167.93,162.421 169.264,162.754 170.5,163.5C 171.308,163.192 171.975,162.692 172.5,162C 171.289,161.107 171.289,160.274 172.5,159.5C 173.451,160.326 174.451,160.492 175.5,160C 184.427,150.94 195.093,145.107 207.5,142.5C 207.5,141.5 207.5,140.5 207.5,139.5C 212.804,139.397 217.804,138.231 222.5,136C 229.158,135.5 235.825,135.334 242.5,135.5 Z"/></g>
<g><path style="opacity:1" fill="#f2f9fd" d="M 308.5,189.5 C 307.833,189.167 307.167,188.833 306.5,188.5C 303.313,186.65 300.147,184.65 297,182.5C 290.449,172.942 282.782,164.276 274,156.5C 273.333,155.5 273.333,154.5 274,153.5C 290.918,161.585 303.751,173.918 312.5,190.5C 312.167,190.833 311.833,191.167 311.5,191.5C 310.482,190.807 309.482,190.141 308.5,189.5 Z"/></g>
<g><path style="opacity:1" fill="#0f4aa5" d="M 358.5,165.5 C 359.958,168.214 360.958,171.214 361.5,174.5C 362.243,173.092 363.077,171.759 364,170.5C 364.333,170.833 364.667,171.167 365,171.5C 365.571,176.572 366.738,181.239 368.5,185.5C 368.833,185.5 369.167,185.5 369.5,185.5C 374.833,186.167 380.167,186.833 385.5,187.5C 379.5,187.5 373.5,187.5 367.5,187.5C 364.615,187.806 361.948,187.473 359.5,186.5C 358.835,179.52 358.502,172.52 358.5,165.5 Z"/></g>
<g><path style="opacity:1" fill="#2656a8" d="M 341.5,169.5 C 341.634,171.292 341.301,172.958 340.5,174.5C 336.167,179.5 331.5,184.167 326.5,188.5C 325.596,189.209 325.263,190.209 325.5,191.5C 323.801,191.473 322.467,190.806 321.5,189.5C 318.9,185.299 316.566,180.966 314.5,176.5C 314.167,175.167 313.833,173.833 313.5,172.5C 314.583,172.461 315.583,172.127 316.5,171.5C 317.893,172.863 319.559,173.696 321.5,174C 319.556,176.153 319.056,178.653 320,181.5C 321.947,182.11 323.781,182.943 325.5,184C 328.972,184.023 330.638,182.189 330.5,178.5C 331.978,178.762 333.311,178.429 334.5,177.5C 336.734,174.741 339.068,172.074 341.5,169.5 Z"/></g>
<g><path style="opacity:1" fill="#0f4ba5" d="M 174.5,170.5 C 175.5,170.5 176.5,170.5 177.5,170.5C 177.5,171.5 177.5,172.5 177.5,173.5C 176.361,176.918 175.028,180.251 173.5,183.5C 172.596,184.209 172.263,185.209 172.5,186.5C 171.167,186.5 169.833,186.5 168.5,186.5C 168.5,187.5 168.5,188.5 168.5,189.5C 166.833,191.5 165.167,193.5 163.5,195.5C 162.167,195.5 160.833,195.5 159.5,195.5C 159.5,194.5 159.5,193.5 159.5,192.5C 163.02,184.118 168.02,176.785 174.5,170.5 Z"/></g>
<g><path style="opacity:0.691" fill="#1b41b7" d="M 74.5,184.5 C 85.6748,183.36 97.0081,183.36 108.5,184.5C 107.082,186.308 105.082,186.975 102.5,186.5C 101.737,185.732 100.737,185.232 99.5,185C 91.1733,184.5 82.84,184.334 74.5,184.5 Z"/></g>
<g><path style="opacity:1" fill="#0f4991" d="M 73.5,185.5 C 73.5,185.167 73.5,184.833 73.5,184.5C 73.8333,184.5 74.1667,184.5 74.5,184.5C 82.84,184.334 91.1733,184.5 99.5,185C 100.737,185.232 101.737,185.732 102.5,186.5C 92.8657,185.608 83.1991,185.275 73.5,185.5 Z"/></g>
<g><path style="opacity:1" fill="#f3fafb" d="M 340.5,174.5 C 341.117,174.611 341.617,174.944 342,175.5C 342.998,180.144 342.498,184.477 340.5,188.5C 335.665,189.375 330.998,189.375 326.5,188.5C 331.5,184.167 336.167,179.5 340.5,174.5 Z"/></g>
<g><path style="opacity:1" fill="#2351a0" d="M 237.5,156.5 C 238.167,156.5 238.833,156.5 239.5,156.5C 234.836,164.328 230.836,172.495 227.5,181C 233.671,188.004 240.005,194.837 246.5,201.5C 244.518,201.005 242.518,200.505 240.5,200C 241.694,197.342 240.694,196.176 237.5,196.5C 237.649,195.448 237.483,194.448 237,193.5C 234.323,191.155 231.99,188.488 230,185.5C 228.383,186.536 228.216,187.703 229.5,189C 221.933,189.257 221.599,187.757 228.5,184.5C 228.167,183.5 227.5,182.833 226.5,182.5C 221.99,184.256 217.324,185.589 212.5,186.5C 216.377,183.871 220.71,182.204 225.5,181.5C 228.166,172.502 232.166,164.169 237.5,156.5 Z"/></g>
<g><path style="opacity:1" fill="#f9fcfd" d="M 73.5,185.5 C 83.1991,185.275 92.8657,185.608 102.5,186.5C 106.061,187.23 109.727,187.897 113.5,188.5C 122.607,190.44 128.273,195.94 130.5,205C 130.304,206.878 129.971,208.712 129.5,210.5C 128.373,211.122 127.373,211.955 126.5,213C 121.5,213.667 116.5,213.667 111.5,213C 99.5998,209.358 87.5998,206.025 75.5,203C 70.5,202.333 65.5,202.333 60.5,203C 58.2911,204.873 56.4578,207.04 55,209.5C 54.5002,218.494 54.3336,227.494 54.5,236.5C 51.9407,236.198 49.6074,236.532 47.5,237.5C 33.8779,237.43 21.3779,241.097 10,248.5C 12.4048,240.166 15.5714,231.999 19.5,224C 15.797,218.098 11.9637,212.264 8,206.5C 7.33333,205.5 7.33333,204.5 8,203.5C 14.2575,199.122 21.0908,195.955 28.5,194C 43.2671,189.872 58.2671,187.039 73.5,185.5 Z"/></g>
<g><path style="opacity:1" fill="#496ca0" d="M 351.5,186.5 C 354.167,186.5 356.833,186.5 359.5,186.5C 361.948,187.473 364.615,187.806 367.5,187.5C 361.342,188.465 355.008,189.132 348.5,189.5C 349.5,188.833 350.5,188.167 351.5,187.5C 351.5,187.167 351.5,186.833 351.5,186.5 Z"/></g>
<g><path style="opacity:1" fill="#fafdfd" d="M 193.5,207.5 C 193.5,210.167 193.5,212.833 193.5,215.5C 193.5,216.5 193.5,217.5 193.5,218.5C 180.147,221.037 166.814,223.704 153.5,226.5C 152.695,214.681 156.029,204.347 163.5,195.5C 165.167,193.5 166.833,191.5 168.5,189.5C 170.16,187.752 172.16,187.252 174.5,188C 180.375,191.368 186.375,194.535 192.5,197.5C 193.487,200.768 193.82,204.102 193.5,207.5 Z"/></g>
<g><path style="opacity:1" fill="#305b9b" d="M 173.5,183.5 C 173.414,184.496 173.748,185.329 174.5,186C 181.574,189.41 188.574,192.91 195.5,196.5C 195.069,200.337 194.402,204.003 193.5,207.5C 193.82,204.102 193.487,200.768 192.5,197.5C 186.375,194.535 180.375,191.368 174.5,188C 172.16,187.252 170.16,187.752 168.5,189.5C 168.5,188.5 168.5,187.5 168.5,186.5C 169.833,186.5 171.167,186.5 172.5,186.5C 172.263,185.209 172.596,184.209 173.5,183.5 Z"/></g>
<g><path style="opacity:1" fill="#fafdfe" d="M 367.5,187.5 C 373.5,187.5 379.5,187.5 385.5,187.5C 392.293,188.368 398.96,190.201 405.5,193C 408.961,194.643 411.961,196.81 414.5,199.5C 403.536,193.617 391.87,191.284 379.5,192.5C 386.062,193.013 392.395,194.013 398.5,195.5C 395.813,195.336 393.146,195.503 390.5,196C 399.367,196.842 407.367,199.842 414.5,205C 413.906,205.464 413.239,205.631 412.5,205.5C 413.479,207.145 414.812,208.479 416.5,209.5C 415.767,210.087 414.767,210.087 413.5,209.5C 414.463,210.363 414.463,211.03 413.5,211.5C 411.925,210.544 410.258,209.877 408.5,209.5C 410.054,210.895 409.721,211.561 407.5,211.5C 401.987,209.429 396.32,208.596 390.5,209C 399.922,209.803 408.256,213.137 415.5,219C 414.906,219.464 414.239,219.631 413.5,219.5C 408.017,215.166 401.683,212.666 394.5,212C 391.167,211.333 387.833,211.333 384.5,212C 390.368,212.843 396.035,214.01 401.5,215.5C 397.493,214.996 393.493,214.83 389.5,215C 393.672,216.364 398.005,217.364 402.5,218C 406.672,219.588 410.672,221.421 414.5,223.5C 414.953,224.458 415.619,225.292 416.5,226C 415.906,226.464 415.239,226.631 414.5,226.5C 415.458,227.962 416.624,229.295 418,230.5C 418.667,231.167 418.667,231.833 418,232.5C 416.549,230.536 414.716,229.203 412.5,228.5C 413.5,229.833 414.5,231.167 415.5,232.5C 406.062,226.412 395.729,223.912 384.5,225C 396.415,225.305 407.082,228.971 416.5,236C 415.906,236.464 415.239,236.631 414.5,236.5C 415.81,238.148 417.143,239.814 418.5,241.5C 418.333,241.833 418.167,242.167 418,242.5C 416.871,240.859 415.371,239.859 413.5,239.5C 412.341,237.75 410.674,236.75 408.5,236.5C 400.829,232.334 392.495,230.334 383.5,230.5C 381.833,230.833 380.167,231.167 378.5,231.5C 384.865,232.179 391.198,233.012 397.5,234C 394.833,234.333 392.167,234.667 389.5,235C 395.972,236.06 402.305,237.56 408.5,239.5C 409.306,240.728 410.306,241.728 411.5,242.5C 411.167,242.5 410.833,242.5 410.5,242.5C 401.952,238.142 392.952,236.476 383.5,237.5C 393.867,237.902 403.534,240.568 412.5,245.5C 414.909,247.902 416.909,250.569 418.5,253.5C 410.028,245.833 400.028,241.333 388.5,240C 377.167,239.333 365.833,239.333 354.5,240C 351.964,240.186 349.631,240.686 347.5,241.5C 346.167,241.5 344.833,241.5 343.5,241.5C 320.988,244.21 298.655,248.044 276.5,253C 235.905,263.016 195.238,272.183 154.5,280.5C 153.209,280.263 152.209,280.596 151.5,281.5C 136.966,283.015 122.632,285.015 108.5,287.5C 107.5,287.5 106.5,287.5 105.5,287.5C 104.167,287.5 102.833,287.5 101.5,287.5C 89.7954,288.458 78.462,286.958 67.5,283C 64.7339,281.629 62.4006,279.796 60.5,277.5C 71.7504,284.072 84.0837,286.072 97.5,283.5C 94.5113,282.494 91.5113,281.327 88.5,280C 90.8098,279.503 93.1432,279.337 95.5,279.5C 95.6495,278.448 95.4828,277.448 95,276.5C 94.2303,277.598 93.397,277.598 92.5,276.5C 90.4123,275.799 88.4123,274.799 86.5,273.5C 79.5991,273.183 72.9325,271.849 66.5,269.5C 66.0269,268.094 65.0269,267.427 63.5,267.5C 62.537,266.637 62.537,265.97 63.5,265.5C 64.4168,266.127 65.4168,266.461 66.5,266.5C 63.8292,264.066 60.9958,261.733 58,259.5C 57.3333,258.833 57.3333,258.167 58,257.5C 66.0262,265.273 75.5262,268.607 86.5,267.5C 81.1412,266.44 75.8078,265.274 70.5,264C 67.7613,262.974 65.428,261.474 63.5,259.5C 63.8333,259.5 64.1667,259.5 64.5,259.5C 73.4862,263.896 82.8195,265.563 92.5,264.5C 83.1818,263.672 74.1818,261.672 65.5,258.5C 64.3065,257.728 63.3065,256.728 62.5,255.5C 68.5762,258.803 75.0762,260.803 82,261.5C 83.5,261.333 85,261.167 86.5,261C 82.8859,260.055 79.2192,259.388 75.5,259C 72.5243,258.295 69.8577,257.129 67.5,255.5C 77.31,258.272 87.31,259.105 97.5,258C 88.7214,257.91 80.0547,256.91 71.5,255C 66.9637,253.238 62.9637,250.738 59.5,247.5C 59.4346,247.062 59.6012,246.728 60,246.5C 60.8159,247.823 61.9826,248.489 63.5,248.5C 64.911,250.539 66.911,251.539 69.5,251.5C 68.0351,250.263 66.3684,249.263 64.5,248.5C 65.5676,247.566 66.901,247.232 68.5,247.5C 66.6508,246.407 64.9842,245.074 63.5,243.5C 70.7334,247.15 78.4001,248.65 86.5,248C 82.4686,247.519 78.4686,246.853 74.5,246C 70.2131,245.19 66.5464,243.357 63.5,240.5C 63.8333,240.5 64.1667,240.5 64.5,240.5C 74.9576,245.268 85.9576,246.768 97.5,245C 86.0665,245.518 75.0665,243.685 64.5,239.5C 62.1918,237.529 59.8585,235.529 57.5,233.5C 57.5,232.833 57.5,232.167 57.5,231.5C 59.2459,233.252 61.2459,234.585 63.5,235.5C 62.0401,233.537 60.3734,231.704 58.5,230C 60.5676,230.017 62.2343,231.017 63.5,233C 72.4468,238.456 82.1135,240.456 92.5,239C 82.6219,238.749 73.2886,236.416 64.5,232C 63.5,231 62.5,230 61.5,229C 61.7284,228.601 62.0618,228.435 62.5,228.5C 66.3319,231.392 70.6653,233.226 75.5,234C 86.7939,235.293 98.1272,235.793 109.5,235.5C 113.764,235.656 117.764,234.989 121.5,233.5C 126.122,233.844 130.455,233.177 134.5,231.5C 135.167,231.5 135.833,231.5 136.5,231.5C 158.776,228.013 180.776,223.679 202.5,218.5C 215.01,216.132 227.344,213.132 239.5,209.5C 262.789,205.257 285.789,200.257 308.5,194.5C 321.801,192.573 335.135,190.906 348.5,189.5C 355.008,189.132 361.342,188.465 367.5,187.5 Z"/></g>
<g><path style="opacity:1" fill="#034aac" d="M 246.5,201.5 C 246.5,201.833 246.5,202.167 246.5,202.5C 245.686,206.398 243.353,208.731 239.5,209.5C 227.344,213.132 215.01,216.132 202.5,218.5C 199.833,218.5 197.167,218.5 194.5,218.5C 194.737,217.209 194.404,216.209 193.5,215.5C 193.5,212.833 193.5,210.167 193.5,207.5C 194.402,204.003 195.069,200.337 195.5,196.5C 200.335,191.91 206.002,188.577 212.5,186.5C 217.324,185.589 221.99,184.256 226.5,182.5C 227.5,182.833 228.167,183.5 228.5,184.5C 221.599,187.757 221.933,189.257 229.5,189C 228.216,187.703 228.383,186.536 230,185.5C 231.99,188.488 234.323,191.155 237,193.5C 237.483,194.448 237.649,195.448 237.5,196.5C 240.694,196.176 241.694,197.342 240.5,200C 242.518,200.505 244.518,201.005 246.5,201.5 Z"/></g>
<g><path style="opacity:1" fill="#014aad" d="M 306.5,188.5 C 307.167,188.833 307.833,189.167 308.5,189.5C 308.5,191.167 308.5,192.833 308.5,194.5C 303.288,194.354 298.288,194.854 293.5,196C 294.435,193.619 294.768,191.119 294.5,188.5C 295.659,187.544 296.826,186.544 298,185.5C 300.59,187.273 303.423,188.273 306.5,188.5 Z"/></g>
<g><path style="opacity:1" fill="#7896bc" d="M 414.5,199.5 C 415.056,201.509 416.389,203.509 418.5,205.5C 417.491,206.939 417.824,208.272 419.5,209.5C 418.833,209.833 418.167,210.167 417.5,210.5C 419.66,212.093 419.827,213.76 418,215.5C 416.981,214.313 415.814,213.313 414.5,212.5C 413.893,212.624 413.56,212.957 413.5,213.5C 412.577,212.697 411.577,212.53 410.5,213C 413.331,215.001 415.997,217.167 418.5,219.5C 418.833,219.5 419.167,219.5 419.5,219.5C 419.473,224.193 419.473,228.86 419.5,233.5C 417.625,235.078 416.292,234.745 415.5,232.5C 414.5,231.167 413.5,229.833 412.5,228.5C 414.716,229.203 416.549,230.536 418,232.5C 418.667,231.833 418.667,231.167 418,230.5C 416.624,229.295 415.458,227.962 414.5,226.5C 415.239,226.631 415.906,226.464 416.5,226C 415.619,225.292 414.953,224.458 414.5,223.5C 415.239,223.631 415.906,223.464 416.5,223C 415.29,221.961 414.29,220.794 413.5,219.5C 414.239,219.631 414.906,219.464 415.5,219C 408.256,213.137 399.922,209.803 390.5,209C 396.32,208.596 401.987,209.429 407.5,211.5C 409.721,211.561 410.054,210.895 408.5,209.5C 410.258,209.877 411.925,210.544 413.5,211.5C 414.463,211.03 414.463,210.363 413.5,209.5C 414.767,210.087 415.767,210.087 416.5,209.5C 414.812,208.479 413.479,207.145 412.5,205.5C 413.239,205.631 413.906,205.464 414.5,205C 407.367,199.842 399.367,196.842 390.5,196C 393.146,195.503 395.813,195.336 398.5,195.5C 392.395,194.013 386.062,193.013 379.5,192.5C 391.87,191.284 403.536,193.617 414.5,199.5 Z"/></g>
<g><path style="opacity:1" fill="#d2f4fc" d="M 398.5,195.5 C 400.989,195.298 403.323,195.798 405.5,197C 402.942,197.275 400.608,196.775 398.5,195.5 Z"/></g>
<g><path style="opacity:1" fill="#5d7092" d="M 384.5,199.5 C 389.406,198.152 394.406,198.318 399.5,200C 394.512,200.087 389.512,199.92 384.5,199.5 Z"/></g>
<g><path style="opacity:1" fill="#22519b" d="M 113.5,188.5 C 114.833,188.5 116.167,188.5 117.5,188.5C 119.703,188.604 121.703,189.27 123.5,190.5C 125.151,191.97 126.985,193.303 129,194.5C 130.213,196.925 131.379,199.259 132.5,201.5C 132.118,205.446 131.118,209.112 129.5,212.5C 129.5,211.833 129.5,211.167 129.5,210.5C 129.971,208.712 130.304,206.878 130.5,205C 128.273,195.94 122.607,190.44 113.5,188.5 Z"/></g>
<g><path style="opacity:1" fill="#5e799e" d="M 412.5,205.5 C 408.485,204.105 404.485,202.605 400.5,201C 405.236,200.633 409.236,202.133 412.5,205.5 Z"/></g>
<g><path style="opacity:1" fill="#2d5493" d="M 129.5,210.5 C 129.5,211.167 129.5,211.833 129.5,212.5C 128.065,213.913 127.065,215.58 126.5,217.5C 126.631,216.761 126.464,216.094 126,215.5C 120.522,216.733 115.022,216.566 109.5,215C 98.0149,211.061 86.3482,207.728 74.5,205C 70.1667,204.333 65.8333,204.333 61.5,205C 54.9879,211.518 54.9879,218.185 61.5,225C 67.9335,230.034 75.2668,232.701 83.5,233C 93.5224,233.699 103.522,233.532 113.5,232.5C 114.376,232.369 115.043,232.702 115.5,233.5C 113.369,234.169 111.369,234.835 109.5,235.5C 98.1272,235.793 86.7939,235.293 75.5,234C 70.6653,233.226 66.3319,231.392 62.5,228.5C 60.193,227.023 58.3597,225.023 57,222.5C 56.6004,225.884 56.7671,228.884 57.5,231.5C 57.5,232.167 57.5,232.833 57.5,233.5C 57.1661,235.332 57.1661,237.332 57.5,239.5C 56.8333,239.5 56.5,239.833 56.5,240.5C 55.596,239.791 55.2627,238.791 55.5,237.5C 52.8333,237.5 50.1667,237.5 47.5,237.5C 49.6074,236.532 51.9407,236.198 54.5,236.5C 54.3336,227.494 54.5002,218.494 55,209.5C 56.4578,207.04 58.2911,204.873 60.5,203C 65.5,202.333 70.5,202.333 75.5,203C 87.5998,206.025 99.5998,209.358 111.5,213C 116.5,213.667 121.5,213.667 126.5,213C 127.373,211.955 128.373,211.122 129.5,210.5 Z"/></g>
<g><path style="opacity:1" fill="#295397" d="M 294.5,188.5 C 294.768,191.119 294.435,193.619 293.5,196C 298.288,194.854 303.288,194.354 308.5,194.5C 285.789,200.257 262.789,205.257 239.5,209.5C 243.353,208.731 245.686,206.398 246.5,202.5C 247.857,203.685 249.357,204.685 251,205.5C 263.783,202.398 276.616,199.564 289.5,197C 291.067,194.021 292.734,191.188 294.5,188.5 Z"/></g>
<g><path style="opacity:1" fill="#6c87a9" d="M 413.5,209.5 C 406.055,206.224 398.388,203.724 390.5,202C 399.111,201.815 406.778,204.315 413.5,209.5 Z"/></g>
<g><path style="opacity:1" fill="#f9fcfd" d="M 126.5,217.5 C 123.935,221.959 121.935,226.626 120.5,231.5C 117.941,231.198 115.607,231.532 113.5,232.5C 103.522,233.532 93.5224,233.699 83.5,233C 75.2668,232.701 67.9335,230.034 61.5,225C 54.9879,218.185 54.9879,211.518 61.5,205C 65.8333,204.333 70.1667,204.333 74.5,205C 86.3482,207.728 98.0149,211.061 109.5,215C 115.022,216.566 120.522,216.733 126,215.5C 126.464,216.094 126.631,216.761 126.5,217.5 Z"/></g>
<g><path style="opacity:1" fill="#7b91b5" d="M 408.5,209.5 C 398.972,207.31 389.305,205.977 379.5,205.5C 386.516,204.334 393.516,204.5 400.5,206C 403.476,206.705 406.142,207.871 408.5,209.5 Z"/></g>
<g><path style="opacity:1" fill="#4170b3" d="M 418.5,205.5 C 419.117,205.611 419.617,205.944 420,206.5C 420.486,211.124 420.32,215.457 419.5,219.5C 419.167,219.5 418.833,219.5 418.5,219.5C 417.581,216.911 415.914,214.911 413.5,213.5C 413.56,212.957 413.893,212.624 414.5,212.5C 415.814,213.313 416.981,214.313 418,215.5C 419.827,213.76 419.66,212.093 417.5,210.5C 418.167,210.167 418.833,209.833 419.5,209.5C 417.824,208.272 417.491,206.939 418.5,205.5 Z"/></g>
<g><path style="opacity:1" fill="#1d44aa" d="M 369.5,185.5 C 382.569,184.623 395.236,186.456 407.5,191C 415.025,194.677 419.691,200.51 421.5,208.5C 421.5,218.167 421.5,227.833 421.5,237.5C 420.711,237.217 420.044,236.717 419.5,236C 420.774,235.023 420.774,234.189 419.5,233.5C 419.473,228.86 419.473,224.193 419.5,219.5C 420.32,215.457 420.486,211.124 420,206.5C 419.617,205.944 419.117,205.611 418.5,205.5C 416.389,203.509 415.056,201.509 414.5,199.5C 411.961,196.81 408.961,194.643 405.5,193C 398.96,190.201 392.293,188.368 385.5,187.5C 380.167,186.833 374.833,186.167 369.5,185.5 Z"/></g>
<g><path style="opacity:1" fill="#6a87ad" d="M 413.5,219.5 C 409.683,217.59 405.683,216.257 401.5,215.5C 396.035,214.01 390.368,212.843 384.5,212C 387.833,211.333 391.167,211.333 394.5,212C 401.683,212.666 408.017,215.166 413.5,219.5 Z"/></g>
<g><path style="opacity:1" fill="#d9f7ff" d="M 413.5,213.5 C 415.914,214.911 417.581,216.911 418.5,219.5C 415.997,217.167 413.331,215.001 410.5,213C 411.577,212.53 412.577,212.697 413.5,213.5 Z"/></g>
<g><path style="opacity:1" fill="#6e88b3" d="M 405.5,221.5 C 396.865,220.184 388.199,219.018 379.5,218C 386.2,217.447 392.867,217.78 399.5,219C 401.852,219.24 403.852,220.073 405.5,221.5 Z"/></g>
<g><path style="opacity:1" fill="#57749f" d="M 401.5,215.5 C 405.075,217.287 408.741,219.121 412.5,221C 413.381,221.708 414.047,222.542 414.5,223.5C 410.672,221.421 406.672,219.588 402.5,218C 398.005,217.364 393.672,216.364 389.5,215C 393.493,214.83 397.493,214.996 401.5,215.5 Z"/></g>
<g><path style="opacity:1" fill="#c5e8f8" d="M 401.5,215.5 C 405.683,216.257 409.683,217.59 413.5,219.5C 414.29,220.794 415.29,221.961 416.5,223C 415.906,223.464 415.239,223.631 414.5,223.5C 414.047,222.542 413.381,221.708 412.5,221C 408.741,219.121 405.075,217.287 401.5,215.5 Z"/></g>
<g><path style="opacity:1" fill="#5476a3" d="M 412.5,228.5 C 405.476,225.409 398.143,223.243 390.5,222C 393.5,221.333 396.5,221.333 399.5,222C 404.368,223.33 408.701,225.496 412.5,228.5 Z"/></g>
<g><path style="opacity:1" fill="#51699b" d="M 405.5,221.5 C 408.089,221.461 410.089,222.461 411.5,224.5C 409.181,224.008 407.181,223.008 405.5,221.5 Z"/></g>
<g><path style="opacity:1" fill="#1c3cba" d="M 468.5,230.5 C 468.851,228.131 469.018,225.797 469,223.5C 468.329,224.252 467.496,224.586 466.5,224.5C 467.812,222.521 469.479,220.855 471.5,219.5C 472.573,223.699 471.573,227.366 468.5,230.5 Z"/></g>
<g><path style="opacity:1" fill="#3d7dd6" d="M 126.5,231.5 C 125.307,231.03 124.64,230.03 124.5,228.5C 124.886,226.068 125.553,223.734 126.5,221.5C 127.232,220.192 128.066,218.858 129,217.5C 129.769,222.561 128.936,227.228 126.5,231.5 Z"/></g>
<g><path style="opacity:1" fill="#2b59a6" d="M 126.5,217.5 C 126.5,218.833 126.5,220.167 126.5,221.5C 125.553,223.734 124.886,226.068 124.5,228.5C 124.64,230.03 125.307,231.03 126.5,231.5C 129.167,231.5 131.833,231.5 134.5,231.5C 130.455,233.177 126.122,233.844 121.5,233.5C 119.801,233.66 118.134,233.494 116.5,233C 118.058,232.79 119.391,232.29 120.5,231.5C 121.935,226.626 123.935,221.959 126.5,217.5 Z"/></g>
<g><path style="opacity:1" fill="#446692" d="M 411.5,224.5 C 413.027,224.427 414.027,225.094 414.5,226.5C 412.973,226.573 411.973,225.906 411.5,224.5 Z"/></g>
<g><path style="opacity:1" fill="#28559d" d="M 154.5,191.5 C 148.904,202.812 146.237,214.812 146.5,227.5C 147.833,227.5 149.167,227.5 150.5,227.5C 150.552,214.956 153.552,203.29 159.5,192.5C 159.5,193.5 159.5,194.5 159.5,195.5C 160.833,195.5 162.167,195.5 163.5,195.5C 156.029,204.347 152.695,214.681 153.5,226.5C 166.814,223.704 180.147,221.037 193.5,218.5C 193.5,217.5 193.5,216.5 193.5,215.5C 194.404,216.209 194.737,217.209 194.5,218.5C 197.167,218.5 199.833,218.5 202.5,218.5C 180.776,223.679 158.776,228.013 136.5,231.5C 138.438,229.837 140.772,229.171 143.5,229.5C 143.553,216.731 146.22,204.564 151.5,193C 149.579,191.759 149.246,190.259 150.5,188.5C 151.386,189.325 151.719,190.325 151.5,191.5C 152.5,191.5 153.5,191.5 154.5,191.5 Z"/></g>
<g><path style="opacity:1" fill="#6c8bb3" d="M 399.5,229.5 C 396.09,229.543 392.757,229.043 389.5,228C 393.148,227.163 396.481,227.663 399.5,229.5 Z"/></g>
<g><path style="opacity:1" fill="#486da0" d="M 415.5,232.5 C 416.292,234.745 417.625,235.078 419.5,233.5C 420.774,234.189 420.774,235.023 419.5,236C 420.044,236.717 420.711,237.217 421.5,237.5C 424.625,238.479 427.958,238.813 431.5,238.5C 428.713,239.477 425.713,239.81 422.5,239.5C 422.828,250.679 422.495,261.679 421.5,272.5C 421.667,261.495 421.5,250.495 421,239.5C 419.632,240.993 419.465,242.493 420.5,244C 419.906,244.464 419.239,244.631 418.5,244.5C 416.5,243.167 414.833,241.5 413.5,239.5C 415.371,239.859 416.871,240.859 418,242.5C 418.167,242.167 418.333,241.833 418.5,241.5C 417.143,239.814 415.81,238.148 414.5,236.5C 415.239,236.631 415.906,236.464 416.5,236C 407.082,228.971 396.415,225.305 384.5,225C 395.729,223.912 406.062,226.412 415.5,232.5 Z"/></g>
<g><path style="opacity:1" fill="#617ea6" d="M 399.5,229.5 C 404.232,229.627 408.232,231.293 411.5,234.5C 407.408,232.824 403.408,231.157 399.5,229.5 Z"/></g>
<g><path style="opacity:0.969" fill="#243bbc" d="M 421.5,208.5 C 422.494,217.652 422.827,226.985 422.5,236.5C 428.896,236.378 435.229,235.711 441.5,234.5C 438.833,235.833 436.167,237.167 433.5,238.5C 432.833,238.5 432.167,238.5 431.5,238.5C 427.958,238.813 424.625,238.479 421.5,237.5C 421.5,227.833 421.5,218.167 421.5,208.5 Z"/></g>
<g><path style="opacity:1" fill="#738bac" d="M 408.5,236.5 C 405.502,235.658 402.502,235.158 399.5,235C 402.823,236.04 405.823,237.54 408.5,239.5C 402.305,237.56 395.972,236.06 389.5,235C 392.167,234.667 394.833,234.333 397.5,234C 391.198,233.012 384.865,232.179 378.5,231.5C 380.167,231.167 381.833,230.833 383.5,230.5C 392.495,230.334 400.829,232.334 408.5,236.5 Z"/></g>
<g><path style="opacity:1" fill="#1f3cb7" d="M 466.5,224.5 C 465.89,225.391 465.557,226.391 465.5,227.5C 464.833,227.833 464.167,228.167 463.5,228.5C 457.637,230.12 451.97,232.12 446.5,234.5C 444.833,234.5 443.167,234.5 441.5,234.5C 449.906,231.582 458.239,228.248 466.5,224.5 Z"/></g>
<g><path style="opacity:1" fill="#5c80b8" d="M 113.5,232.5 C 115.607,231.532 117.941,231.198 120.5,231.5C 119.391,232.29 118.058,232.79 116.5,233C 118.134,233.494 119.801,233.66 121.5,233.5C 117.764,234.989 113.764,235.656 109.5,235.5C 111.369,234.835 113.369,234.169 115.5,233.5C 115.043,232.702 114.376,232.369 113.5,232.5 Z"/></g>
<g><path style="opacity:1" fill="#274c9d" d="M 463.5,228.5 C 458.333,231.668 452.666,233.668 446.5,234.5C 451.97,232.12 457.637,230.12 463.5,228.5 Z"/></g>
<g><path style="opacity:1" fill="#fafdfd" d="M 419.5,286.5 C 418.833,286.5 418.167,286.5 417.5,286.5C 404.216,287.952 390.883,288.619 377.5,288.5C 376.833,288.5 376.167,288.5 375.5,288.5C 365.7,287.565 357.034,283.898 349.5,277.5C 347.318,273.005 346.985,268.339 348.5,263.5C 352.612,261.137 356.945,260.97 361.5,263C 375.833,268.667 390.167,274.333 404.5,280C 408.5,280.667 412.5,280.667 416.5,280C 419.789,278.59 421.456,276.09 421.5,272.5C 422.495,261.679 422.828,250.679 422.5,239.5C 425.713,239.81 428.713,239.477 431.5,238.5C 432.167,238.5 432.833,238.5 433.5,238.5C 438.228,238.114 442.561,236.781 446.5,234.5C 452.666,233.668 458.333,231.668 463.5,228.5C 464.167,228.167 464.833,227.833 465.5,227.5C 466.65,226.15 467.317,226.316 467.5,228C 464.216,235.232 461.216,242.565 458.5,250C 462.513,256.873 466.347,263.706 470,270.5C 465.789,274.131 460.955,276.631 455.5,278C 443.505,281.501 431.505,284.334 419.5,286.5 Z"/></g>
<g><path style="opacity:1" fill="#5982bc" d="M 57.5,233.5 C 59.8585,235.529 62.1918,237.529 64.5,239.5C 61.8875,238.77 59.5542,238.77 57.5,239.5C 57.1661,237.332 57.1661,235.332 57.5,233.5 Z"/></g>
<g><path style="opacity:1" fill="#5c7caa" d="M 62.5,228.5 C 62.0618,228.435 61.7284,228.601 61.5,229C 62.5,230 63.5,231 64.5,232C 73.2886,236.416 82.6219,238.749 92.5,239C 82.1135,240.456 72.4468,238.456 63.5,233C 62.2343,231.017 60.5676,230.017 58.5,230C 60.3734,231.704 62.0401,233.537 63.5,235.5C 61.2459,234.585 59.2459,233.252 57.5,231.5C 56.7671,228.884 56.6004,225.884 57,222.5C 58.3597,225.023 60.193,227.023 62.5,228.5 Z"/></g>
<g><path style="opacity:1" fill="#5c769c" d="M 411.5,234.5 C 413.027,234.427 414.027,235.094 414.5,236.5C 412.973,236.573 411.973,235.906 411.5,234.5 Z"/></g>
<g><path style="opacity:1" fill="#4c6b96" d="M 408.5,236.5 C 410.674,236.75 412.341,237.75 413.5,239.5C 411.326,239.25 409.659,238.25 408.5,236.5 Z"/></g>
<g><path style="opacity:1" fill="#3057a3" d="M 441.5,234.5 C 443.167,234.5 444.833,234.5 446.5,234.5C 442.561,236.781 438.228,238.114 433.5,238.5C 436.167,237.167 438.833,235.833 441.5,234.5 Z"/></g>
<g><path style="opacity:1" fill="#657fa5" d="M 63.5,235.5 C 70.7695,238.901 78.4361,240.901 86.5,241.5C 77.8554,243.009 70.1887,241.009 63.5,235.5 Z"/></g>
<g><path style="opacity:1" fill="#778ead" d="M 410.5,242.5 C 411.167,243.5 411.833,244.5 412.5,245.5C 403.534,240.568 393.867,237.902 383.5,237.5C 392.952,236.476 401.952,238.142 410.5,242.5 Z"/></g>
<g><path style="opacity:1" fill="#a2c0dd" d="M 64.5,239.5 C 64.5,239.833 64.5,240.167 64.5,240.5C 64.1667,240.5 63.8333,240.5 63.5,240.5C 62.7611,240.369 62.0944,240.536 61.5,241C 62.3805,241.708 63.0472,242.542 63.5,243.5C 64.9842,245.074 66.6508,246.407 68.5,247.5C 66.901,247.232 65.5676,247.566 64.5,248.5C 64.1667,248.5 63.8333,248.5 63.5,248.5C 61.9826,248.489 60.8159,247.823 60,246.5C 59.6012,246.728 59.4346,247.062 59.5,247.5C 59.1667,247.5 58.8333,247.5 58.5,247.5C 58.1961,246.85 57.8627,246.183 57.5,245.5C 60.228,244.682 59.8947,243.348 56.5,241.5C 56.5,241.167 56.5,240.833 56.5,240.5C 56.5,239.833 56.8333,239.5 57.5,239.5C 59.5542,238.77 61.8875,238.77 64.5,239.5 Z"/></g>
<g><path style="opacity:1" fill="#2f5797" d="M 418.5,253.5 C 418.52,255.551 419.187,256.218 420.5,255.5C 420.5,252.833 420.5,250.167 420.5,247.5C 420.145,246.478 419.478,245.811 418.5,245.5C 418.5,245.167 418.5,244.833 418.5,244.5C 419.239,244.631 419.906,244.464 420.5,244C 419.465,242.493 419.632,240.993 421,239.5C 421.5,250.495 421.667,261.495 421.5,272.5C 421.456,276.09 419.789,278.59 416.5,280C 412.5,280.667 408.5,280.667 404.5,280C 390.167,274.333 375.833,268.667 361.5,263C 356.945,260.97 352.612,261.137 348.5,263.5C 348.194,260.615 348.527,257.948 349.5,255.5C 349.833,255.5 350.167,255.5 350.5,255.5C 351.796,250.938 352.462,246.271 352.5,241.5C 350.833,241.5 349.167,241.5 347.5,241.5C 349.631,240.686 351.964,240.186 354.5,240C 365.833,239.333 377.167,239.333 388.5,240C 400.028,241.333 410.028,245.833 418.5,253.5 Z"/></g>
<g><path style="opacity:1" fill="#fafcfd" d="M 350.5,255.5 C 352.876,251.595 353.876,247.261 353.5,242.5C 371.55,240 389.217,241.5 406.5,247C 417.925,253.347 422.091,262.847 419,275.5C 418.097,276.701 416.931,277.535 415.5,278C 412.167,278.667 408.833,278.667 405.5,278C 390.397,272.283 375.397,266.283 360.5,260C 357.183,259.502 353.85,259.335 350.5,259.5C 350.5,258.167 350.5,256.833 350.5,255.5 Z"/></g>
<g><path style="opacity:1" fill="#52719c" d="M 408.5,239.5 C 410.937,239.886 412.937,241.053 414.5,243C 413.423,243.47 412.423,243.303 411.5,242.5C 410.306,241.728 409.306,240.728 408.5,239.5 Z"/></g>
<g><path style="opacity:1" fill="#c5e2f4" d="M 408.5,236.5 C 409.659,238.25 411.326,239.25 413.5,239.5C 414.833,241.5 416.5,243.167 418.5,244.5C 418.5,244.833 418.5,245.167 418.5,245.5C 417.761,245.369 417.094,245.536 416.5,246C 417.451,246.718 417.617,247.551 417,248.5C 415.871,246.859 414.371,245.859 412.5,245.5C 411.833,244.5 411.167,243.5 410.5,242.5C 410.833,242.5 411.167,242.5 411.5,242.5C 412.423,243.303 413.423,243.47 414.5,243C 412.937,241.053 410.937,239.886 408.5,239.5C 405.823,237.54 402.823,236.04 399.5,235C 402.502,235.158 405.502,235.658 408.5,236.5 Z"/></g>
<g><path style="opacity:1" fill="#2446a7" d="M 73.5,184.5 C 73.5,184.833 73.5,185.167 73.5,185.5C 58.2671,187.039 43.2671,189.872 28.5,194C 21.0908,195.955 14.2575,199.122 8,203.5C 7.33333,204.5 7.33333,205.5 8,206.5C 11.9637,212.264 15.797,218.098 19.5,224C 15.5714,231.999 12.4048,240.166 10,248.5C 21.3779,241.097 33.8779,237.43 47.5,237.5C 50.1667,237.5 52.8333,237.5 55.5,237.5C 55.2627,238.791 55.596,239.791 56.5,240.5C 56.5,240.833 56.5,241.167 56.5,241.5C 56.1872,245.042 56.5206,248.375 57.5,251.5C 56.1667,252.833 56.1667,254.167 57.5,255.5C 56.3683,260.715 56.3683,265.715 57.5,270.5C 57.7329,272.062 58.3995,273.395 59.5,274.5C 58.2848,275.779 58.6182,276.779 60.5,277.5C 62.4006,279.796 64.7339,281.629 67.5,283C 78.462,286.958 89.7954,288.458 101.5,287.5C 94.6866,288.491 87.6866,288.825 80.5,288.5C 71.0677,288.2 63.2344,284.533 57,277.5C 55.3953,274.352 54.3953,271.019 54,267.5C 54.2677,258.126 54.1011,248.793 53.5,239.5C 38.6398,239.215 24.6398,242.715 11.5,250C 9.98252,251.685 8.31585,253.185 6.5,254.5C 5.5,254.167 4.83333,253.5 4.5,252.5C 8.69614,243.243 12.6961,233.91 16.5,224.5C 12.6405,217.955 8.6405,211.455 4.5,205C 5.4533,203.045 6.78663,201.378 8.5,200C 29.1046,190.577 50.7713,185.411 73.5,184.5 Z"/></g>
<g><path style="opacity:1" fill="#58749f" d="M 63.5,240.5 C 66.5464,243.357 70.2131,245.19 74.5,246C 78.4686,246.853 82.4686,247.519 86.5,248C 78.4001,248.65 70.7334,247.15 63.5,243.5C 63.0472,242.542 62.3805,241.708 61.5,241C 62.0944,240.536 62.7611,240.369 63.5,240.5 Z"/></g>
<g><path style="opacity:1" fill="#4e6c94" d="M 64.5,240.5 C 64.5,240.167 64.5,239.833 64.5,239.5C 75.0665,243.685 86.0665,245.518 97.5,245C 85.9576,246.768 74.9576,245.268 64.5,240.5 Z"/></g>
<g><path style="opacity:0.933" fill="#294ba2" d="M 468.5,230.5 C 466.131,237.102 463.465,243.602 460.5,250C 463.609,255.44 467.109,260.607 471,265.5C 472.301,267.365 472.635,269.365 472,271.5C 462.297,278.461 451.464,282.794 439.5,284.5C 436.813,284.336 434.146,284.503 431.5,285C 430.584,285.278 429.918,285.778 429.5,286.5C 426.167,286.5 422.833,286.5 419.5,286.5C 431.505,284.334 443.505,281.501 455.5,278C 460.955,276.631 465.789,274.131 470,270.5C 466.347,263.706 462.513,256.873 458.5,250C 461.216,242.565 464.216,235.232 467.5,228C 467.317,226.316 466.65,226.15 465.5,227.5C 465.557,226.391 465.89,225.391 466.5,224.5C 467.496,224.586 468.329,224.252 469,223.5C 469.018,225.797 468.851,228.131 468.5,230.5 Z"/></g>
<g><path style="opacity:1" fill="#497bc0" d="M 56.5,241.5 C 59.8947,243.348 60.228,244.682 57.5,245.5C 57.8627,246.183 58.1961,246.85 58.5,247.5C 58.5674,248.959 58.2341,250.292 57.5,251.5C 56.5206,248.375 56.1872,245.042 56.5,241.5 Z"/></g>
<g><path style="opacity:1" fill="#64799f" d="M 63.5,248.5 C 63.8333,248.5 64.1667,248.5 64.5,248.5C 66.3684,249.263 68.0351,250.263 69.5,251.5C 66.911,251.539 64.911,250.539 63.5,248.5 Z"/></g>
<g><path style="opacity:1" fill="#788fac" d="M 68.5,247.5 C 76.4013,249.296 84.4013,250.629 92.5,251.5C 91.6667,251.833 90.8333,252.167 90,252.5C 85.8555,251.836 81.6888,251.336 77.5,251C 74.135,250.495 71.135,249.328 68.5,247.5 Z"/></g>
<g><path style="opacity:1" fill="#fafdfd" d="M 329.5,249.5 C 328.5,253.501 327.5,257.501 326.5,261.5C 319.758,278.969 309.091,293.636 294.5,305.5C 282.533,313.653 269.533,319.319 255.5,322.5C 235.582,325.885 216.582,323.218 198.5,314.5C 192.641,311.407 186.975,308.074 181.5,304.5C 173.754,298.09 167.087,290.757 161.5,282.5C 161.5,281.833 161.5,281.167 161.5,280.5C 171.842,278.865 182.176,277.032 192.5,275C 229.138,266.539 265.805,258.206 302.5,250C 311.411,248.14 320.411,246.973 329.5,246.5C 329.5,247.5 329.5,248.5 329.5,249.5 Z"/></g>
<g><path style="opacity:1" fill="#759dce" d="M 412.5,245.5 C 414.371,245.859 415.871,246.859 417,248.5C 417.617,247.551 417.451,246.718 416.5,246C 417.094,245.536 417.761,245.369 418.5,245.5C 419.478,245.811 420.145,246.478 420.5,247.5C 420.5,250.167 420.5,252.833 420.5,255.5C 419.187,256.218 418.52,255.551 418.5,253.5C 416.909,250.569 414.909,247.902 412.5,245.5 Z"/></g>
<g><path style="opacity:1" fill="#6d88b2" d="M 69.5,251.5 C 75.111,252.696 80.7776,253.696 86.5,254.5C 81.061,255.647 75.7277,255.147 70.5,253C 69.944,252.617 69.6107,252.117 69.5,251.5 Z"/></g>
<g><path style="opacity:1" fill="#0a4cab" d="M 343.5,241.5 C 344.833,241.5 346.167,241.5 347.5,241.5C 349.167,241.5 350.833,241.5 352.5,241.5C 352.462,246.271 351.796,250.938 350.5,255.5C 350.167,255.5 349.833,255.5 349.5,255.5C 349.389,254.883 349.056,254.383 348.5,254C 344.129,253.172 339.795,253.339 335.5,254.5C 336.833,255.167 338.167,255.833 339.5,256.5C 337.363,257.08 335.53,258.08 334,259.5C 333.586,259.043 333.086,258.709 332.5,258.5C 330.703,260.918 329.036,263.251 327.5,265.5C 326.766,264.292 326.433,262.959 326.5,261.5C 327.5,257.501 328.5,253.501 329.5,249.5C 330.801,248.116 330.801,246.616 329.5,245C 331.899,244.289 334.232,244.456 336.5,245.5C 339.349,244.914 341.682,243.58 343.5,241.5 Z"/></g>
<g><path style="opacity:1" fill="#7897be" d="M 58.5,247.5 C 58.8333,247.5 59.1667,247.5 59.5,247.5C 62.9637,250.738 66.9637,253.238 71.5,255C 80.0547,256.91 88.7214,257.91 97.5,258C 87.31,259.105 77.31,258.272 67.5,255.5C 65.2433,255.038 63.2433,254.038 61.5,252.5C 61.1667,252.667 60.8333,252.833 60.5,253C 61.3805,253.708 62.0472,254.542 62.5,255.5C 63.3065,256.728 64.3065,257.728 65.5,258.5C 64.8333,258.5 64.5,258.833 64.5,259.5C 64.1667,259.5 63.8333,259.5 63.5,259.5C 61.2459,258.585 59.2459,257.252 57.5,255.5C 56.1667,254.167 56.1667,252.833 57.5,251.5C 58.2341,250.292 58.5674,248.959 58.5,247.5 Z"/></g>
<g><path style="opacity:1" fill="#617da9" d="M 67.5,255.5 C 69.8577,257.129 72.5243,258.295 75.5,259C 79.2192,259.388 82.8859,260.055 86.5,261C 85,261.167 83.5,261.333 82,261.5C 75.0762,260.803 68.5762,258.803 62.5,255.5C 62.0472,254.542 61.3805,253.708 60.5,253C 60.8333,252.833 61.1667,252.667 61.5,252.5C 63.2433,254.038 65.2433,255.038 67.5,255.5 Z"/></g>
<g><path style="opacity:1" fill="#647ea0" d="M 64.5,259.5 C 64.5,258.833 64.8333,258.5 65.5,258.5C 74.1818,261.672 83.1818,263.672 92.5,264.5C 82.8195,265.563 73.4862,263.896 64.5,259.5 Z"/></g>
<g><path style="opacity:1" fill="#6688bb" d="M 57.5,255.5 C 59.2459,257.252 61.2459,258.585 63.5,259.5C 65.428,261.474 67.7613,262.974 70.5,264C 75.8078,265.274 81.1412,266.44 86.5,267.5C 75.5262,268.607 66.0262,265.273 58,257.5C 57.3333,258.167 57.3333,258.833 58,259.5C 60.9958,261.733 63.8292,264.066 66.5,266.5C 65.4168,266.461 64.4168,266.127 63.5,265.5C 62.537,265.97 62.537,266.637 63.5,267.5C 61.9826,267.489 60.8159,266.823 60,265.5C 59.7003,267.066 60.2003,268.399 61.5,269.5C 60.7611,269.369 60.0944,269.536 59.5,270C 60.7101,271.039 61.7101,272.206 62.5,273.5C 60.5887,272.925 58.922,271.925 57.5,270.5C 56.3683,265.715 56.3683,260.715 57.5,255.5 Z"/></g>
<g><path style="opacity:1" fill="#536e97" d="M 66.5,266.5 C 76.5649,269.693 86.8982,271.193 97.5,271C 87.2502,272.269 77.2502,271.269 67.5,268C 66.944,267.617 66.6107,267.117 66.5,266.5 Z"/></g>
<g><path style="opacity:1" fill="#5c72a6" d="M 63.5,267.5 C 65.0269,267.427 66.0269,268.094 66.5,269.5C 64.9731,269.573 63.9731,268.906 63.5,267.5 Z"/></g>
<g><path style="opacity:1" fill="#315999" d="M 343.5,241.5 C 341.682,243.58 339.349,244.914 336.5,245.5C 334.232,244.456 331.899,244.289 329.5,245C 330.801,246.616 330.801,248.116 329.5,249.5C 329.5,248.5 329.5,247.5 329.5,246.5C 320.411,246.973 311.411,248.14 302.5,250C 265.805,258.206 229.138,266.539 192.5,275C 182.176,277.032 171.842,278.865 161.5,280.5C 159.167,280.5 156.833,280.5 154.5,280.5C 195.238,272.183 235.905,263.016 276.5,253C 298.655,248.044 320.988,244.21 343.5,241.5 Z"/></g>
<g><path style="opacity:1" fill="#56739b" d="M 66.5,269.5 C 72.9325,271.849 79.5991,273.183 86.5,273.5C 80.0758,274.832 73.7424,273.999 67.5,271C 66.944,270.617 66.6107,270.117 66.5,269.5 Z"/></g>
<g><path style="opacity:1" fill="#1d498a" d="M 254.5,271.5 C 256.288,271.215 257.955,271.548 259.5,272.5C 259.043,273.298 258.376,273.631 257.5,273.5C 256.172,274.91 256.505,276.076 258.5,277C 257.376,277.249 256.376,277.749 255.5,278.5C 256.077,280.55 257.41,281.55 259.5,281.5C 258.448,283.256 256.781,283.923 254.5,283.5C 254.5,279.5 254.5,275.5 254.5,271.5 Z"/></g>
<g><path style="opacity:1" fill="#2557a1" d="M 326.5,261.5 C 326.433,262.959 326.766,264.292 327.5,265.5C 323.67,273.842 319.17,281.842 314,289.5C 308.532,293.967 303.365,298.8 298.5,304C 297.255,304.791 295.922,305.291 294.5,305.5C 309.091,293.636 319.758,278.969 326.5,261.5 Z"/></g>
<g><path style="opacity:1" fill="#024aac" d="M 349.5,255.5 C 348.527,257.948 348.194,260.615 348.5,263.5C 346.985,268.339 347.318,273.005 349.5,277.5C 349.5,278.167 349.5,278.833 349.5,279.5C 346.942,284.609 344.442,289.942 342,295.5C 335.793,301.375 329.293,306.875 322.5,312C 297.989,327.092 272.989,341.425 247.5,355C 244.64,357.36 241.64,359.527 238.5,361.5C 228.597,355.392 218.931,349.058 209.5,342.5C 215.167,336.5 220.833,330.5 226.5,324.5C 235.839,324.666 245.173,324.5 254.5,324C 255.056,323.617 255.389,323.117 255.5,322.5C 264.488,321.672 273.155,319.505 281.5,316C 286.04,312.582 290.374,309.082 294.5,305.5C 295.922,305.291 297.255,304.791 298.5,304C 303.365,298.8 308.532,293.967 314,289.5C 319.17,281.842 323.67,273.842 327.5,265.5C 329.036,263.251 330.703,260.918 332.5,258.5C 333.086,258.709 333.586,259.043 334,259.5C 335.53,258.08 337.363,257.08 339.5,256.5C 338.167,255.833 336.833,255.167 335.5,254.5C 339.795,253.339 344.129,253.172 348.5,254C 349.056,254.383 349.389,254.883 349.5,255.5 Z"/></g>
<g><path style="opacity:1" fill="#e1f4fa" d="M 63.5,267.5 C 63.9731,268.906 64.9731,269.573 66.5,269.5C 66.6107,270.117 66.944,270.617 67.5,271C 73.7424,273.999 80.0758,274.832 86.5,273.5C 88.4123,274.799 90.4123,275.799 92.5,276.5C 93.397,277.598 94.2303,277.598 95,276.5C 95.4828,277.448 95.6495,278.448 95.5,279.5C 93.1432,279.337 90.8098,279.503 88.5,280C 91.5113,281.327 94.5113,282.494 97.5,283.5C 83.7276,284.555 71.061,281.555 59.5,274.5C 58.3995,273.395 57.7329,272.062 57.5,270.5C 58.922,271.925 60.5887,272.925 62.5,273.5C 61.7101,272.206 60.7101,271.039 59.5,270C 60.0944,269.536 60.7611,269.369 61.5,269.5C 60.2003,268.399 59.7003,267.066 60,265.5C 60.8159,266.823 61.9826,267.489 63.5,267.5 Z"/></g>
<g><path style="opacity:1" fill="#738cb1" d="M 92.5,276.5 C 91.6661,277.748 90.3328,278.415 88.5,278.5C 83.7493,278.084 79.0826,277.25 74.5,276C 80.4871,275.964 86.4871,276.131 92.5,276.5 Z"/></g>
<g><path style="opacity:1" fill="#6583ac" d="M 62.5,273.5 C 70.1082,277.07 78.1082,279.403 86.5,280.5C 85.5,280.833 84.5,281.167 83.5,281.5C 79.5013,280.667 75.5013,279.834 71.5,279C 67.8193,278.128 64.8193,276.294 62.5,273.5 Z"/></g>
<g><path style="opacity:1" fill="#4f7098" d="M 61.5,269.5 C 65.3691,271.601 69.3691,273.434 73.5,275C 68.6247,275.062 64.6247,273.229 61.5,269.5 Z"/></g>
<g><path style="opacity:1" fill="#5c83bc" d="M 257.5,273.5 C 257.904,274.756 258.571,275.923 259.5,277C 258.978,277.95 258.311,278.784 257.5,279.5C 258.243,280.182 258.909,280.849 259.5,281.5C 257.41,281.55 256.077,280.55 255.5,278.5C 256.376,277.749 257.376,277.249 258.5,277C 256.505,276.076 256.172,274.91 257.5,273.5 Z"/></g>
<g><path style="opacity:1" fill="#164a93" d="M 227.5,271.5 C 227.719,272.675 227.386,273.675 226.5,274.5C 225.604,273.494 224.938,273.494 224.5,274.5C 226.986,276.578 227.986,279.245 227.5,282.5C 223.739,284.275 222.406,283.275 223.5,279.5C 224.192,280.025 224.692,280.692 225,281.5C 225.722,279.339 225.055,277.672 223,276.5C 222.506,274.866 222.34,273.199 222.5,271.5C 224.167,271.5 225.833,271.5 227.5,271.5 Z"/></g>
<g><path style="opacity:1" fill="#57729a" d="M 59.5,274.5 C 71.061,281.555 83.7276,284.555 97.5,283.5C 84.0837,286.072 71.7504,284.072 60.5,277.5C 58.6182,276.779 58.2848,275.779 59.5,274.5 Z"/></g>
<g><path style="opacity:1" fill="#edf6fc" d="M 236.5,271.5 C 236.176,275.555 236.509,279.555 237.5,283.5C 238.738,279.689 239.404,279.689 239.5,283.5C 240.5,283.5 241.5,283.5 242.5,283.5C 242.5,279.5 242.5,275.5 242.5,271.5C 243.222,271.918 243.722,272.584 244,273.5C 244.374,272.584 244.874,271.75 245.5,271C 248.555,270.366 251.555,270.532 254.5,271.5C 254.5,275.5 254.5,279.5 254.5,283.5C 253.679,280.359 253.179,277.025 253,273.5C 252.617,272.944 252.117,272.611 251.5,272.5C 249.661,271.248 247.828,271.248 246,272.5C 245.333,275.833 245.333,279.167 246,282.5C 246.383,283.056 246.883,283.389 247.5,283.5C 245.633,285.812 245.133,288.479 246,291.5C 247.676,292.061 249.009,293.061 250,294.5C 250.282,298.039 250.782,301.539 251.5,305C 251.01,307.346 250.343,309.513 249.5,311.5C 249.5,310.5 249.5,309.5 249.5,308.5C 248.022,308.762 246.689,308.429 245.5,307.5C 249.089,304.229 250.256,300.229 249,295.5C 243.757,292.531 240.924,294.197 240.5,300.5C 241.833,300.5 243.167,300.5 244.5,300.5C 244.351,299.448 244.517,298.448 245,297.5C 245.667,299.167 245.667,300.833 245,302.5C 242.429,304.976 240.929,307.976 240.5,311.5C 239.242,308.563 239.908,305.896 242.5,303.5C 241.066,302.77 239.9,301.77 239,300.5C 238.902,303.522 238.068,306.189 236.5,308.5C 236.666,304.154 236.499,299.821 236,295.5C 233.333,292.833 230.667,292.833 228,295.5C 227.501,300.155 227.334,304.821 227.5,309.5C 226.678,307.611 225.845,305.611 225,303.5C 224.308,304.025 223.808,304.692 223.5,305.5C 225.534,307.599 225.868,309.932 224.5,312.5C 223.893,312.376 223.56,312.043 223.5,311.5C 224.404,310.791 224.737,309.791 224.5,308.5C 222.801,308.66 221.134,308.494 219.5,308C 222.032,305.471 223.698,302.471 224.5,299C 224.137,296.808 223.137,294.974 221.5,293.5C 222.885,292.426 224.051,291.093 225,289.5C 225.667,290.833 226.333,290.833 227,289.5C 227.333,288.167 227.667,286.833 228,285.5C 228.826,287.405 229.993,287.739 231.5,286.5C 231.291,285.914 230.957,285.414 230.5,285C 231.899,284.405 233.232,284.572 234.5,285.5C 235.8,281.262 235.467,277.262 233.5,273.5C 233.179,271.952 232.179,271.285 230.5,271.5C 230.5,275.5 230.5,279.5 230.5,283.5C 229.778,283.082 229.278,282.416 229,281.5C 228.617,282.056 228.117,282.389 227.5,282.5C 227.986,279.245 226.986,276.578 224.5,274.5C 224.938,273.494 225.604,273.494 226.5,274.5C 227.386,273.675 227.719,272.675 227.5,271.5C 230.5,270.167 233.5,270.167 236.5,271.5 Z"/></g>
<g><path style="opacity:1" fill="#3b639f" d="M 233.5,273.5 C 233.5,276.833 233.5,280.167 233.5,283.5C 232.5,283.5 231.5,283.5 230.5,283.5C 230.5,279.5 230.5,275.5 230.5,271.5C 232.179,271.285 233.179,271.952 233.5,273.5 Z"/></g>
<g><path style="opacity:1" fill="#2c5aa7" d="M 236.5,271.5 C 238.5,271.5 240.5,271.5 242.5,271.5C 242.5,275.5 242.5,279.5 242.5,283.5C 241.5,283.5 240.5,283.5 239.5,283.5C 239.404,279.689 238.738,279.689 237.5,283.5C 236.509,279.555 236.176,275.555 236.5,271.5 Z"/></g>
<g><path style="opacity:1" fill="#82aada" d="M 251.5,275.5 C 250.602,276.158 249.602,276.824 248.5,277.5C 248.624,278.107 248.957,278.44 249.5,278.5C 249.719,279.675 249.386,280.675 248.5,281.5C 247.167,278.833 247.167,276.167 248.5,273.5C 249.265,274.612 250.265,275.279 251.5,275.5 Z"/></g>
<g><path style="opacity:1" fill="#194b95" d="M 251.5,272.5 C 251.5,273.5 251.5,274.5 251.5,275.5C 250.265,275.279 249.265,274.612 248.5,273.5C 247.167,276.167 247.167,278.833 248.5,281.5C 249.386,280.675 249.719,279.675 249.5,278.5C 251.344,279.204 251.844,280.537 251,282.5C 249.989,283.337 248.822,283.67 247.5,283.5C 246.883,283.389 246.383,283.056 246,282.5C 245.333,279.167 245.333,275.833 246,272.5C 247.828,271.248 249.661,271.248 251.5,272.5 Z"/></g>
<g><path style="opacity:1" fill="#26549d" d="M 151.5,281.5 C 144.858,283.425 138.191,285.092 131.5,286.5C 126.662,286.911 121.995,287.578 117.5,288.5C 116.448,288.351 115.448,288.517 114.5,289C 115.38,290.356 115.714,291.856 115.5,293.5C 113.926,291.898 113.259,289.898 113.5,287.5C 111.833,287.5 110.167,287.5 108.5,287.5C 122.632,285.015 136.966,283.015 151.5,281.5 Z"/></g>
<g><path style="opacity:0.871" fill="#1c3ea7" d="M 439.5,284.5 C 436.411,285.785 433.078,286.451 429.5,286.5C 429.918,285.778 430.584,285.278 431.5,285C 434.146,284.503 436.813,284.336 439.5,284.5 Z"/></g>
<g><path style="opacity:1" fill="#064aab" d="M 154.5,280.5 C 156.833,280.5 159.167,280.5 161.5,280.5C 161.5,281.167 161.5,281.833 161.5,282.5C 161.443,283.609 161.11,284.609 160.5,285.5C 155.167,291.5 149.5,297.167 143.5,302.5C 137.672,298.655 133.672,293.321 131.5,286.5C 138.191,285.092 144.858,283.425 151.5,281.5C 152.209,280.596 153.209,280.263 154.5,280.5 Z"/></g>
<g><path style="opacity:1" fill="#315891" d="M 161.5,282.5 C 167.087,290.757 173.754,298.09 181.5,304.5C 180.5,304.5 179.5,304.5 178.5,304.5C 171.815,298.782 165.815,292.449 160.5,285.5C 161.11,284.609 161.443,283.609 161.5,282.5 Z"/></g>
<g><path style="opacity:1" fill="#1f4e9e" d="M 349.5,277.5 C 357.034,283.898 365.7,287.565 375.5,288.5C 372.833,288.5 370.167,288.5 367.5,288.5C 367.578,291.252 367.745,293.918 368,296.5C 365.907,293.956 364.907,290.956 365,287.5C 363.766,290.42 362.766,293.42 362,296.5C 361.292,297.381 360.458,298.047 359.5,298.5C 360.393,295.32 361.393,292.154 362.5,289C 361.184,287.341 359.518,286.175 357.5,285.5C 354.154,284.485 351.487,282.485 349.5,279.5C 349.5,278.833 349.5,278.167 349.5,277.5 Z"/></g>
<g><path style="opacity:1" fill="#2346bf" d="M 101.5,287.5 C 102.833,287.5 104.167,287.5 105.5,287.5C 106.455,289.746 107.122,292.079 107.5,294.5C 106.399,293.152 105.399,291.652 104.5,290C 96.3228,289.829 88.3228,289.329 80.5,288.5C 87.6866,288.825 94.6866,288.491 101.5,287.5 Z"/></g>
<g><path style="opacity:1" fill="#284b8f" d="M 417.5,286.5 C 417.082,287.222 416.416,287.722 415.5,288C 402.683,289.456 390.016,289.622 377.5,288.5C 390.883,288.619 404.216,287.952 417.5,286.5 Z"/></g>
<g><path style="opacity:1" fill="#f7faf9" d="M 160.5,285.5 C 165.815,292.449 171.815,298.782 178.5,304.5C 174.5,309.167 170.167,313.5 165.5,317.5C 157.164,313.997 149.831,308.997 143.5,302.5C 149.5,297.167 155.167,291.5 160.5,285.5 Z"/></g>
<g><path style="opacity:1" fill="#114bac" d="M 105.5,287.5 C 106.5,287.5 107.5,287.5 108.5,287.5C 110.167,287.5 111.833,287.5 113.5,287.5C 113.259,289.898 113.926,291.898 115.5,293.5C 118.142,298.773 121.309,303.773 125,308.5C 132.04,315.264 139.54,321.431 147.5,327C 168.679,340.092 190.346,352.426 212.5,364C 217.916,367.03 222.916,370.53 227.5,374.5C 226.5,374.5 225.5,374.5 224.5,374.5C 224.5,375.833 224.5,377.167 224.5,378.5C 223.127,378.657 221.793,378.49 220.5,378C 222.174,376.494 223.174,374.661 223.5,372.5C 220.5,373.167 217.5,373.833 214.5,374.5C 212.98,371.286 210.98,367.619 208.5,363.5C 205.202,362.377 201.869,362.377 198.5,363.5C 195.407,361.691 192.074,360.691 188.5,360.5C 162.112,348.274 138.279,332.274 117,312.5C 112.723,307.064 109.556,301.064 107.5,294.5C 107.122,292.079 106.455,289.746 105.5,287.5 Z"/></g>
<g><path style="opacity:1" fill="#f5fbfd" d="M 357.5,285.5 C 359.518,286.175 361.184,287.341 362.5,289C 361.393,292.154 360.393,295.32 359.5,298.5C 354.447,306.391 348.114,313.224 340.5,319C 323.943,331.11 306.61,341.943 288.5,351.5C 270.99,359.747 254.657,369.747 239.5,381.5C 235.5,379.167 231.5,376.833 227.5,374.5C 222.916,370.53 217.916,367.03 212.5,364C 190.346,352.426 168.679,340.092 147.5,327C 139.54,321.431 132.04,315.264 125,308.5C 121.309,303.773 118.142,298.773 115.5,293.5C 115.714,291.856 115.38,290.356 114.5,289C 115.448,288.517 116.448,288.351 117.5,288.5C 119.199,288.34 120.866,288.506 122.5,289C 124.54,292.914 126.707,296.748 129,300.5C 136.205,307.373 143.705,313.873 151.5,320C 172.653,333.133 194.319,345.467 216.5,357C 223.969,361.637 231.302,366.47 238.5,371.5C 261.016,356.737 284.349,343.237 308.5,331C 323.455,322.38 336.955,311.88 349,299.5C 351.804,295.557 353.804,291.223 355,286.5C 355.671,285.748 356.504,285.414 357.5,285.5 Z"/></g>
<g><path style="opacity:1" fill="#4580d2" d="M 349.5,279.5 C 351.487,282.485 354.154,284.485 357.5,285.5C 356.504,285.414 355.671,285.748 355,286.5C 353.804,291.223 351.804,295.557 349,299.5C 336.955,311.88 323.455,322.38 308.5,331C 284.349,343.237 261.016,356.737 238.5,371.5C 231.302,366.47 223.969,361.637 216.5,357C 194.319,345.467 172.653,333.133 151.5,320C 143.705,313.873 136.205,307.373 129,300.5C 126.707,296.748 124.54,292.914 122.5,289C 120.866,288.506 119.199,288.34 117.5,288.5C 121.995,287.578 126.662,286.911 131.5,286.5C 133.672,293.321 137.672,298.655 143.5,302.5C 149.831,308.997 157.164,313.997 165.5,317.5C 171.403,322.728 178.069,326.728 185.5,329.5C 192.885,334.861 200.885,339.194 209.5,342.5C 218.931,349.058 228.597,355.392 238.5,361.5C 241.64,359.527 244.64,357.36 247.5,355C 272.989,341.425 297.989,327.092 322.5,312C 329.293,306.875 335.793,301.375 342,295.5C 344.442,289.942 346.942,284.609 349.5,279.5 Z"/></g>
<g><path style="opacity:1" fill="#f7faf9" d="M 198.5,316.5 C 207.158,321.333 216.491,324 226.5,324.5C 220.833,330.5 215.167,336.5 209.5,342.5C 200.885,339.194 192.885,334.861 185.5,329.5C 189.5,324.833 193.833,320.5 198.5,316.5 Z"/></g>
<g><path style="opacity:1" fill="#295394" d="M 198.5,314.5 C 216.582,323.218 235.582,325.885 255.5,322.5C 255.389,323.117 255.056,323.617 254.5,324C 245.173,324.5 235.839,324.666 226.5,324.5C 216.491,324 207.158,321.333 198.5,316.5C 198.5,315.833 198.5,315.167 198.5,314.5 Z"/></g>
<g><path style="opacity:1" fill="#084bab" d="M 178.5,304.5 C 179.5,304.5 180.5,304.5 181.5,304.5C 186.975,308.074 192.641,311.407 198.5,314.5C 198.5,315.167 198.5,315.833 198.5,316.5C 193.833,320.5 189.5,324.833 185.5,329.5C 178.069,326.728 171.403,322.728 165.5,317.5C 170.167,313.5 174.5,309.167 178.5,304.5 Z"/></g>
<g><path style="opacity:1" fill="#2657a1" d="M 294.5,305.5 C 290.374,309.082 286.04,312.582 281.5,316C 273.155,319.505 264.488,321.672 255.5,322.5C 269.533,319.319 282.533,313.653 294.5,305.5 Z"/></g>
<g><path style="opacity:1" fill="#1e4e9d" d="M 249.5,311.5 C 246.5,311.5 243.5,311.5 240.5,311.5C 240.929,307.976 242.429,304.976 245,302.5C 245.667,300.833 245.667,299.167 245,297.5C 244.517,298.448 244.351,299.448 244.5,300.5C 243.167,300.5 241.833,300.5 240.5,300.5C 240.924,294.197 243.757,292.531 249,295.5C 250.256,300.229 249.089,304.229 245.5,307.5C 246.689,308.429 248.022,308.762 249.5,308.5C 249.5,309.5 249.5,310.5 249.5,311.5 Z"/></g>
<g><path style="opacity:1" fill="#1c4e9d" d="M 253.5,294.5 C 256.247,294.187 258.914,294.52 261.5,295.5C 259.955,296.452 258.288,296.785 256.5,296.5C 256.5,297.5 256.5,298.5 256.5,299.5C 257.833,299.5 259.167,299.5 260.5,299.5C 261.117,299.611 261.617,299.944 262,300.5C 262.929,304.244 262.429,307.744 260.5,311C 255.087,312.9 252.753,311.067 253.5,305.5C 254.5,305.5 255.5,305.5 256.5,305.5C 256.281,306.675 256.614,307.675 257.5,308.5C 258.833,306.5 258.833,304.5 257.5,302.5C 256.264,303.246 254.93,303.579 253.5,303.5C 253.5,300.5 253.5,297.5 253.5,294.5 Z"/></g>
<g><path style="opacity:1" fill="#1e50a1" d="M 236.5,308.5 C 236.315,310.89 234.982,311.89 232.5,311.5C 230.486,311.563 228.819,310.897 227.5,309.5C 227.334,304.821 227.501,300.155 228,295.5C 230.667,292.833 233.333,292.833 236,295.5C 236.499,299.821 236.666,304.154 236.5,308.5 Z"/></g>
<g><path style="opacity:1" fill="#b3d3ec" d="M 231.5,297.5 C 232.787,298.871 233.453,300.705 233.5,303C 233.167,304.833 232.833,306.667 232.5,308.5C 231.511,304.893 231.177,301.226 231.5,297.5 Z"/></g>
<g><path style="opacity:1" fill="#214f9c" d="M 221.5,293.5 C 223.137,294.974 224.137,296.808 224.5,299C 223.698,302.471 222.032,305.471 219.5,308C 221.134,308.494 222.801,308.66 224.5,308.5C 224.737,309.791 224.404,310.791 223.5,311.5C 220.833,311.5 218.167,311.5 215.5,311.5C 215.635,307.562 217.135,304.228 220,301.5C 220.781,300.056 220.614,298.723 219.5,297.5C 218.614,298.325 218.281,299.325 218.5,300.5C 217.5,300.5 216.5,300.5 215.5,300.5C 214.677,295.661 216.677,293.327 221.5,293.5 Z"/></g>
<g><path style="opacity:1" fill="#7098d1" d="M 253.5,294.5 C 256.287,293.523 259.287,293.19 262.5,293.5C 262.5,294.833 262.5,296.167 262.5,297.5C 260.801,297.34 259.134,297.506 257.5,298C 258.737,298.232 259.737,298.732 260.5,299.5C 259.167,299.5 257.833,299.5 256.5,299.5C 256.5,298.5 256.5,297.5 256.5,296.5C 258.288,296.785 259.955,296.452 261.5,295.5C 258.914,294.52 256.247,294.187 253.5,294.5 Z"/></g>
<g><path style="opacity:1" fill="#124da1" d="M 288.5,351.5 C 288.306,353.912 286.973,354.912 284.5,354.5C 284.5,355.833 284.5,357.167 284.5,358.5C 285.675,358.281 286.675,358.614 287.5,359.5C 284.772,360.249 282.272,359.582 280,357.5C 278.989,358.337 277.822,358.67 276.5,358.5C 276.5,359.5 276.5,360.5 276.5,361.5C 275.5,361.5 274.5,361.5 273.5,361.5C 273.649,362.552 273.483,363.552 273,364.5C 271,363.167 269,363.167 267,364.5C 266.293,366.081 265.46,367.581 264.5,369C 265.973,369.71 266.64,370.876 266.5,372.5C 263.951,372.559 261.951,371.559 260.5,369.5C 258.085,372.08 255.251,374.08 252,375.5C 251.689,376.742 252.189,377.742 253.5,378.5C 250.871,380.05 249.037,379.384 248,376.5C 245.504,378.953 242.671,380.62 239.5,381.5C 254.657,369.747 270.99,359.747 288.5,351.5 Z"/></g>
<g><path style="opacity:1" fill="#154bb1" d="M 417.5,286.5 C 418.167,286.5 418.833,286.5 419.5,286.5C 422.833,286.5 426.167,286.5 429.5,286.5C 421.752,288.441 413.752,289.607 405.5,290C 394.422,290.619 383.422,290.619 372.5,290C 367.813,303.027 360.147,314.027 349.5,323C 339.383,331.114 328.716,338.448 317.5,345C 292.343,358.073 268.01,372.406 244.5,388C 242.316,390.016 240.316,392.183 238.5,394.5C 234.439,389.639 229.773,385.473 224.5,382C 212.602,374.556 200.602,367.389 188.5,360.5C 192.074,360.691 195.407,361.691 198.5,363.5C 201.869,362.377 205.202,362.377 208.5,363.5C 210.98,367.619 212.98,371.286 214.5,374.5C 217.5,373.833 220.5,373.167 223.5,372.5C 223.174,374.661 222.174,376.494 220.5,378C 221.793,378.49 223.127,378.657 224.5,378.5C 224.5,377.167 224.5,375.833 224.5,374.5C 225.5,374.5 226.5,374.5 227.5,374.5C 231.5,376.833 235.5,379.167 239.5,381.5C 242.671,380.62 245.504,378.953 248,376.5C 249.037,379.384 250.871,380.05 253.5,378.5C 252.189,377.742 251.689,376.742 252,375.5C 255.251,374.08 258.085,372.08 260.5,369.5C 261.951,371.559 263.951,372.559 266.5,372.5C 266.64,370.876 265.973,369.71 264.5,369C 265.46,367.581 266.293,366.081 267,364.5C 269,363.167 271,363.167 273,364.5C 273.483,363.552 273.649,362.552 273.5,361.5C 274.5,361.5 275.5,361.5 276.5,361.5C 276.5,360.5 276.5,359.5 276.5,358.5C 277.822,358.67 278.989,358.337 280,357.5C 282.272,359.582 284.772,360.249 287.5,359.5C 286.675,358.614 285.675,358.281 284.5,358.5C 284.5,357.167 284.5,355.833 284.5,354.5C 286.973,354.912 288.306,353.912 288.5,351.5C 306.61,341.943 323.943,331.11 340.5,319C 348.114,313.224 354.447,306.391 359.5,298.5C 360.458,298.047 361.292,297.381 362,296.5C 362.766,293.42 363.766,290.42 365,287.5C 364.907,290.956 365.907,293.956 368,296.5C 367.745,293.918 367.578,291.252 367.5,288.5C 370.167,288.5 372.833,288.5 375.5,288.5C 376.167,288.5 376.833,288.5 377.5,288.5C 390.016,289.622 402.683,289.456 415.5,288C 416.416,287.722 417.082,287.222 417.5,286.5 Z"/></g>
</svg>
