<?xml version="1.0" encoding="UTF-8"?>
<!DOCTYPE svg PUBLIC "-//W3C//DTD SVG 1.1//EN" "http://www.w3.org/Graphics/SVG/1.1/DTD/svg11.dtd">
<svg xmlns="http://www.w3.org/2000/svg" version="1.1" width="500px" height="500px" style="shape-rendering:geometricPrecision; text-rendering:geometricPrecision; image-rendering:optimizeQuality; fill-rule:evenodd; clip-rule:evenodd" xmlns:xlink="http://www.w3.org/1999/xlink">
<g><path style="opacity:1" fill="#090404" d="M 229.5,32.5 C 297.648,29.001 360.315,45.6676 417.5,82.5C 417.833,83.6667 418.167,84.8333 418.5,86C 415.782,110.816 415.282,135.649 417,160.5C 421.188,197.147 425.188,233.813 429,270.5C 429.961,288.341 428.628,306.008 425,323.5C 421.471,337.895 414.804,350.562 405,361.5C 384.492,379.336 362.325,394.836 338.5,408C 312.85,420.819 288.184,435.152 264.5,451C 258.964,455.504 253.797,460.337 249,465.5C 246.537,462.035 243.704,458.869 240.5,456C 233.833,451.333 227.167,446.667 220.5,442C 192.5,426 164.5,410 136.5,394C 117.917,383.087 101.417,369.587 87,353.5C 76.5346,337.435 70.8679,319.768 70,300.5C 69.2348,283.811 69.5682,267.144 71,250.5C 76.0643,217.653 79.7309,184.653 82,151.5C 83.0122,128.695 82.3455,106.028 80,83.5C 125.344,53.2399 175.177,36.2399 229.5,32.5 Z"/></g>
<g><path style="opacity:1" fill="#f9f9f6" d="M 231.5,43.5 C 294.179,40.8264 352.179,55.8264 405.5,88.5C 405.833,89.5 406.167,90.5 406.5,91.5C 404.601,110.123 404.101,128.79 405,147.5C 406.142,161.156 407.142,174.823 408,188.5C 411.562,210.769 414.562,233.102 417,255.5C 417.906,274.534 417.573,293.534 416,312.5C 413.809,325.207 409.142,336.874 402,347.5C 387.561,362.617 371.394,375.45 353.5,386C 330.457,399.521 307.124,412.521 283.5,425C 271.754,432.248 260.42,440.082 249.5,448.5C 237.673,440.086 225.673,431.919 213.5,424C 189.844,411.507 166.511,398.507 143.5,385C 127.523,375.029 112.69,363.529 99,350.5C 87.8543,335.067 81.8543,317.734 81,298.5C 80.3333,286.833 80.3333,275.167 81,263.5C 83.6823,236.742 87.0156,210.075 91,183.5C 91.5837,173.494 92.2503,163.494 93,153.5C 93.2987,131.807 93.4654,110.141 93.5,88.5C 135.902,62.2545 181.902,47.2545 231.5,43.5 Z"/></g>
<g><path style="opacity:1" fill="#e5d073" d="M 289.5,57.5 C 262.83,56.211 236.163,56.211 209.5,57.5C 214.294,56.27 219.294,55.4367 224.5,55C 240.167,54.3333 255.833,54.3333 271.5,55C 277.706,55.3818 283.706,56.2151 289.5,57.5 Z"/></g>
<g><path style="opacity:1" fill="#edd472" d="M 291.5,57.5 C 303.865,59.0373 315.865,61.704 327.5,65.5C 317.074,64.2483 306.74,62.415 296.5,60C 294.685,59.2432 293.019,58.4098 291.5,57.5 Z"/></g>
<g><path style="opacity:1" fill="#010100" d="M 306.5,72.5 C 288.833,89.5 271.5,106.833 254.5,124.5C 237.182,123.569 220.515,126.402 204.5,133C 205.416,133.278 206.082,133.778 206.5,134.5C 195.784,138.564 185.784,143.897 176.5,150.5C 175.577,149.697 174.577,149.53 173.5,150C 146.092,171.649 130.258,199.816 126,234.5C 126.079,232.264 126.579,230.93 127.5,230.5C 126.298,241.862 126.298,253.196 127.5,264.5C 127.784,266.415 127.451,268.081 126.5,269.5C 126.163,264.462 125.496,259.462 124.5,254.5C 117.146,261.188 110.146,268.188 103.5,275.5C 102.871,270.682 102.871,265.682 103.5,260.5C 104.68,249.522 105.68,238.522 106.5,227.5C 108.321,220.047 109.654,212.38 110.5,204.5C 110.5,203.5 110.5,202.5 110.5,201.5C 112.895,183.034 114.562,164.367 115.5,145.5C 115.176,130.255 115.509,115.089 116.5,100C 148.684,81.8823 183.017,70.7157 219.5,66.5C 243.924,64.7085 268.257,65.5419 292.5,69C 297.465,69.4869 302.132,70.6536 306.5,72.5 Z"/></g>
<g><path style="opacity:1" fill="#fadc5e" d="M 289.5,57.5 C 290.167,57.5 290.833,57.5 291.5,57.5C 293.019,58.4098 294.685,59.2432 296.5,60C 306.74,62.415 317.074,64.2483 327.5,65.5C 349.339,71.4211 370.006,80.0878 389.5,91.5C 384.817,91.1674 380.484,89.8341 376.5,87.5C 373.604,88.3337 372.604,90.0004 373.5,92.5C 376.067,94.928 379.067,96.5946 382.5,97.5C 382.863,98.1835 383.196,98.8501 383.5,99.5C 381.833,98.8333 380.167,98.1667 378.5,97.5C 376.435,97.4828 374.435,97.1495 372.5,96.5C 372.631,95.6236 372.298,94.9569 371.5,94.5C 362.566,89.6955 353.233,86.0289 343.5,83.5C 342.486,82.3263 341.153,81.6596 339.5,81.5C 329.393,76.6353 318.726,73.302 307.5,71.5C 306.192,70.7677 304.858,69.9344 303.5,69C 295.83,67.5932 288.163,66.2599 280.5,65C 261.5,64.3333 242.5,64.3333 223.5,65C 221.942,65.21 220.609,65.71 219.5,66.5C 183.017,70.7157 148.684,81.8823 116.5,100C 115.509,115.089 115.176,130.255 115.5,145.5C 113.949,149.9 113.116,154.566 113,159.5C 112.166,173.505 111.333,187.505 110.5,201.5C 110.5,202.5 110.5,203.5 110.5,204.5C 108.393,207.057 107.059,210.057 106.5,213.5C 101.255,214.421 99.2555,212.254 100.5,207C 102.597,193.295 103.597,179.461 103.5,165.5C 103.5,164.167 103.5,162.833 103.5,161.5C 104.222,161.082 104.722,160.416 105,159.5C 105.753,137.818 105.586,116.152 104.5,94.5C 136.699,74.584 171.699,62.2507 209.5,57.5C 236.163,56.211 262.83,56.211 289.5,57.5 Z"/></g>
<g><path style="opacity:1" fill="#d7c161" d="M 307.5,71.5 C 307.5,71.8333 307.5,72.1667 307.5,72.5C 307.167,72.5 306.833,72.5 306.5,72.5C 302.132,70.6536 297.465,69.4869 292.5,69C 268.257,65.5419 243.924,64.7085 219.5,66.5C 220.609,65.71 221.942,65.21 223.5,65C 242.5,64.3333 261.5,64.3333 280.5,65C 288.163,66.2599 295.83,67.5932 303.5,69C 304.858,69.9344 306.192,70.7677 307.5,71.5 Z"/></g>
<g><path style="opacity:1" fill="#f7f7f5" d="M 306.5,72.5 C 306.833,72.5 307.167,72.5 307.5,72.5C 307.611,73.1174 307.944,73.6174 308.5,74C 310.833,74.3333 313.167,74.6667 315.5,75C 315.167,75.3333 314.833,75.6667 314.5,76C 322.832,77.7959 331.165,79.6292 339.5,81.5C 341.153,81.6596 342.486,82.3263 343.5,83.5C 327.5,99.8333 311.5,116.167 295.5,132.5C 288.116,130.987 280.783,129.154 273.5,127C 267.012,126.216 260.678,125.383 254.5,124.5C 271.5,106.833 288.833,89.5 306.5,72.5 Z"/></g>
<g><path style="opacity:1" fill="#fdf9dc" d="M 307.5,71.5 C 318.726,73.302 329.393,76.6353 339.5,81.5C 331.165,79.6292 322.832,77.7959 314.5,76C 314.833,75.6667 315.167,75.3333 315.5,75C 313.167,74.6667 310.833,74.3333 308.5,74C 307.944,73.6174 307.611,73.1174 307.5,72.5C 307.5,72.1667 307.5,71.8333 307.5,71.5 Z"/></g>
<g><path style="opacity:1" fill="#fdde5b" d="M 389.5,91.5 C 390.71,91.9321 391.71,92.5987 392.5,93.5C 393.995,95.3313 394.662,97.498 394.5,100C 393.224,117.325 393.224,134.491 394.5,151.5C 395.307,157.464 395.64,163.464 395.5,169.5C 395.589,180.184 396.089,190.85 397,201.5C 397.815,207.728 399.315,213.728 401.5,219.5C 401.5,220.167 401.5,220.833 401.5,221.5C 401.748,230.231 402.582,238.898 404,247.5C 404.313,264.974 404.48,282.307 404.5,299.5C 404.86,304.43 404.026,309.097 402,313.5C 401.097,314.701 399.931,315.535 398.5,316C 399.578,316.674 400.245,317.674 400.5,319C 399.921,322.564 399.087,326.064 398,329.5C 397.51,328.207 397.343,326.873 397.5,325.5C 395.833,325.5 394.167,325.5 392.5,325.5C 393.683,320.246 394.35,314.912 394.5,309.5C 398.315,296.247 399.481,282.581 398,268.5C 395.736,250.126 393.569,231.792 391.5,213.5C 390.817,213.137 390.15,212.804 389.5,212.5C 389.5,210.5 389.5,208.5 389.5,206.5C 389.104,191.957 387.604,177.624 385,163.5C 384.832,141.996 384.332,120.663 383.5,99.5C 383.196,98.8501 382.863,98.1835 382.5,97.5C 379.067,96.5946 376.067,94.928 373.5,92.5C 372.604,90.0004 373.604,88.3337 376.5,87.5C 380.484,89.8341 384.817,91.1674 389.5,91.5 Z"/></g>
<g><path style="opacity:1" fill="#dac888" d="M 392.5,93.5 C 393.496,93.4142 394.329,93.7476 395,94.5C 395.499,98.1516 395.665,101.818 395.5,105.5C 394.504,120.658 394.17,135.991 394.5,151.5C 393.224,134.491 393.224,117.325 394.5,100C 394.662,97.498 393.995,95.3313 392.5,93.5 Z"/></g>
<g><path style="opacity:1" fill="#f9f9f6" d="M 372.5,96.5 C 374.435,97.1495 376.435,97.4828 378.5,97.5C 379.508,99.3386 381.008,100.672 383,101.5C 383.5,112.161 383.667,122.828 383.5,133.5C 382.5,133.833 381.833,134.5 381.5,135.5C 369.535,146.965 357.702,158.631 346,170.5C 338.942,161.607 330.775,153.94 321.5,147.5C 338.188,130.146 355.188,113.146 372.5,96.5 Z"/></g>
<g><path style="opacity:1" fill="#ecd573" d="M 378.5,97.5 C 380.167,98.1667 381.833,98.8333 383.5,99.5C 384.332,120.663 384.832,141.996 385,163.5C 387.604,177.624 389.104,191.957 389.5,206.5C 388.732,205.737 388.232,204.737 388,203.5C 387.307,193.298 386.14,183.298 384.5,173.5C 383.817,164.182 383.483,154.849 383.5,145.5C 383.5,141.5 383.5,137.5 383.5,133.5C 383.667,122.828 383.5,112.161 383,101.5C 381.008,100.672 379.508,99.3386 378.5,97.5 Z"/></g>
<g><path style="opacity:1" fill="#1b1b1b" d="M 254.5,124.5 C 260.678,125.383 267.012,126.216 273.5,127C 280.783,129.154 288.116,130.987 295.5,132.5C 297.382,133.751 299.382,134.918 301.5,136C 300.584,136.278 299.918,136.778 299.5,137.5C 268.869,124.273 237.869,123.273 206.5,134.5C 206.082,133.778 205.416,133.278 204.5,133C 220.515,126.402 237.182,123.569 254.5,124.5 Z"/></g>
<g><path style="opacity:1" fill="#fcfcfc" d="M 299.5,137.5 C 345.878,160.209 370.211,197.542 372.5,249.5C 372.204,264.61 369.537,279.277 364.5,293.5C 351.395,324.94 329.395,347.94 298.5,362.5C 290.89,365.146 283.223,367.479 275.5,369.5C 221.882,378.602 179.049,361.268 147,317.5C 136.812,301.094 130.312,283.427 127.5,264.5C 126.298,253.196 126.298,241.862 127.5,230.5C 133.974,197.714 150.307,171.047 176.5,150.5C 185.784,143.897 195.784,138.564 206.5,134.5C 237.869,123.273 268.869,124.273 299.5,137.5 Z"/></g>
<g><path style="opacity:1" fill="#4a3f12" d="M 383.5,133.5 C 383.5,137.5 383.5,141.5 383.5,145.5C 382.833,142.167 382.167,138.833 381.5,135.5C 381.833,134.5 382.5,133.833 383.5,133.5 Z"/></g>
<g><path style="opacity:1" fill="#404040" d="M 249.5,142.5 C 265.643,161.468 274.643,183.468 276.5,208.5C 276.472,212.236 275.972,215.903 275,219.5C 267.901,230.929 261.234,242.596 255,254.5C 251.517,262.806 249.85,271.473 250,280.5C 249.026,266.578 245.026,253.578 238,241.5C 231.286,233.453 226.286,224.453 223,214.5C 223.118,187.269 231.951,163.269 249.5,142.5 Z"/></g>
<g><path style="opacity:1" fill="#e3cd75" d="M 104.5,94.5 C 105.586,116.152 105.753,137.818 105,159.5C 104.722,160.416 104.222,161.082 103.5,161.5C 104.454,138.997 104.787,116.663 104.5,94.5 Z"/></g>
<g><path style="opacity:1" fill="#fffee2" d="M 395.5,105.5 C 395.201,130.865 395.868,156.199 397.5,181.5C 396.833,177.5 396.167,173.5 395.5,169.5C 395.64,163.464 395.307,157.464 394.5,151.5C 394.17,135.991 394.504,120.658 395.5,105.5 Z"/></g>
<g><path style="opacity:1" fill="#d3bd5d" d="M 115.5,145.5 C 114.562,164.367 112.895,183.034 110.5,201.5C 111.333,187.505 112.166,173.505 113,159.5C 113.116,154.566 113.949,149.9 115.5,145.5 Z"/></g>
<g><path style="opacity:1" fill="#1b1b1b" d="M 176.5,150.5 C 150.307,171.047 133.974,197.714 127.5,230.5C 126.579,230.93 126.079,232.264 126,234.5C 130.258,199.816 146.092,171.649 173.5,150C 174.577,149.53 175.577,149.697 176.5,150.5 Z"/></g>
<g><path style="opacity:1" fill="#f9f9f4" d="M 384.5,173.5 C 386.14,183.298 387.307,193.298 388,203.5C 388.232,204.737 388.732,205.737 389.5,206.5C 389.5,208.5 389.5,210.5 389.5,212.5C 389.5,214.167 389.5,215.833 389.5,217.5C 384.187,222.478 378.854,227.478 373.5,232.5C 371.544,220.133 367.878,208.3 362.5,197C 369.659,189.008 376.992,181.174 384.5,173.5 Z"/></g>
<g><path style="opacity:1" fill="#edd77f" d="M 395.5,169.5 C 396.167,173.5 396.833,177.5 397.5,181.5C 398.34,194.22 399.673,206.887 401.5,219.5C 399.315,213.728 397.815,207.728 397,201.5C 396.089,190.85 395.589,180.184 395.5,169.5 Z"/></g>
<g><path style="opacity:1" fill="#efd56a" d="M 103.5,165.5 C 103.597,179.461 102.597,193.295 100.5,207C 99.2555,212.254 101.255,214.421 106.5,213.5C 107.059,210.057 108.393,207.057 110.5,204.5C 109.654,212.38 108.321,220.047 106.5,227.5C 106.823,223.774 106.489,220.107 105.5,216.5C 104.667,217.5 103.833,218.5 103,219.5C 102.691,218.234 102.191,217.067 101.5,216C 100.517,215.409 99.8499,215.743 99.5,217C 98.1329,220.499 98.4662,223.833 100.5,227C 99.1414,228.204 98.1414,229.704 97.5,231.5C 96.7347,237.1 95.4013,242.434 93.5,247.5C 97.1364,220.065 100.47,192.732 103.5,165.5 Z"/></g>
<g><path style="opacity:1" fill="#040303" d="M 343.5,83.5 C 353.233,86.0289 362.566,89.6955 371.5,94.5C 372.298,94.9569 372.631,95.6236 372.5,96.5C 355.188,113.146 338.188,130.146 321.5,147.5C 330.775,153.94 338.942,161.607 346,170.5C 357.702,158.631 369.535,146.965 381.5,135.5C 382.167,138.833 382.833,142.167 383.5,145.5C 383.483,154.849 383.817,164.182 384.5,173.5C 376.992,181.174 369.659,189.008 362.5,197C 367.878,208.3 371.544,220.133 373.5,232.5C 378.854,227.478 384.187,222.478 389.5,217.5C 396.007,247.786 397.673,278.452 394.5,309.5C 392.335,322.659 386.335,333.825 376.5,343C 370.98,347.03 365.647,351.197 360.5,355.5C 330.875,373.987 300.542,391.487 269.5,408C 263.5,412 257.5,416 251.5,420C 250.167,420.667 248.833,420.667 247.5,420C 234.993,412.304 222.66,404.47 210.5,396.5C 217.5,388.833 224.833,381.5 232.5,374.5C 242.688,374.582 253.022,374.416 263.5,374C 268.607,373.512 273.607,372.512 278.5,371C 277.263,370.768 276.263,370.268 275.5,369.5C 283.223,367.479 290.89,365.146 298.5,362.5C 299.583,362.539 300.583,362.873 301.5,363.5C 331.632,349.568 352.965,327.234 365.5,296.5C 364.873,295.583 364.539,294.583 364.5,293.5C 369.537,279.277 372.204,264.61 372.5,249.5C 370.211,197.542 345.878,160.209 299.5,137.5C 299.918,136.778 300.584,136.278 301.5,136C 299.382,134.918 297.382,133.751 295.5,132.5C 311.5,116.167 327.5,99.8333 343.5,83.5 Z"/></g>
<g><path style="opacity:1" fill="#fcdd5b" d="M 106.5,227.5 C 105.68,238.522 104.68,249.522 103.5,260.5C 102.542,260.953 101.708,261.619 101,262.5C 100.022,279.904 100.688,297.237 103,314.5C 103.985,316.175 104.819,317.842 105.5,319.5C 105.833,319.5 106.167,319.5 106.5,319.5C 106.603,322.219 106.269,324.885 105.5,327.5C 105.925,329.38 106.925,330.88 108.5,332C 109.233,333.766 109.567,335.599 109.5,337.5C 107.833,337.5 106.167,337.5 104.5,337.5C 104.657,336.127 104.49,334.793 104,333.5C 103.667,333.833 103.333,334.167 103,334.5C 99.2721,327.936 96.6055,320.936 95,313.5C 92.2747,292.227 91.7747,270.894 93.5,249.5C 93.5,248.833 93.5,248.167 93.5,247.5C 95.4013,242.434 96.7347,237.1 97.5,231.5C 98.1414,229.704 99.1414,228.204 100.5,227C 98.4662,223.833 98.1329,220.499 99.5,217C 99.8499,215.743 100.517,215.409 101.5,216C 102.191,217.067 102.691,218.234 103,219.5C 103.833,218.5 104.667,217.5 105.5,216.5C 106.489,220.107 106.823,223.774 106.5,227.5 Z"/></g>
<g><path style="opacity:1" fill="#414141" d="M 300.5,224.5 C 314.563,223.799 327.063,227.799 338,236.5C 349.492,251.085 350.492,266.418 341,282.5C 329.42,299.024 313.92,304.857 294.5,300C 283.29,293.546 280.456,284.379 286,272.5C 291.159,264.56 297.993,262.726 306.5,267C 314.93,275.101 314.263,282.435 304.5,289C 310.51,288.325 314.01,284.825 315,278.5C 316.21,269.093 312.376,262.593 303.5,259C 288.947,256.36 277.114,260.86 268,272.5C 265.545,276.531 263.879,280.864 263,285.5C 260.165,284.58 257.332,283.58 254.5,282.5C 256.475,252.541 271.808,233.207 300.5,224.5 Z"/></g>
<g><path style="opacity:1" fill="#404040" d="M 185.5,224.5 C 216.635,225.451 236.135,241.118 244,271.5C 245.071,275.181 245.738,278.848 246,282.5C 242.739,283.13 239.572,284.13 236.5,285.5C 230.753,265.447 217.42,256.614 196.5,259C 185.237,263.704 181.737,271.87 186,283.5C 188.133,287.311 191.3,289.145 195.5,289C 188.026,285.88 185.526,280.38 188,272.5C 195.846,262.255 204.179,261.921 213,271.5C 219.208,290.411 212.375,300.744 192.5,302.5C 176.508,300.415 164.342,292.415 156,278.5C 146.792,249.906 156.626,231.906 185.5,224.5 Z"/></g>
<g><path style="opacity:1" fill="#ebd168" d="M 389.5,212.5 C 390.15,212.804 390.817,213.137 391.5,213.5C 393.569,231.792 395.736,250.126 398,268.5C 399.481,282.581 398.315,296.247 394.5,309.5C 397.673,278.452 396.007,247.786 389.5,217.5C 389.5,215.833 389.5,214.167 389.5,212.5 Z"/></g>
<g><path style="opacity:1" fill="#f7f7f4" d="M 126.5,269.5 C 128.502,278.175 130.502,286.842 132.5,295.5C 124.167,303.5 115.833,311.5 107.5,319.5C 107.167,319.5 106.833,319.5 106.5,319.5C 106.167,319.5 105.833,319.5 105.5,319.5C 103.979,308.413 102.979,297.246 102.5,286C 102.537,282.417 102.87,278.917 103.5,275.5C 110.146,268.188 117.146,261.188 124.5,254.5C 125.496,259.462 126.163,264.462 126.5,269.5 Z"/></g>
<g><path style="opacity:1" fill="#424242" d="M 243.5,286.5 C 251.255,286.018 258.589,287.518 265.5,291C 269.552,293.376 270.385,296.543 268,300.5C 260.062,306.185 251.229,308.019 241.5,306C 237.241,304.959 233.741,302.792 231,299.5C 230.333,297.5 230.333,295.5 231,293.5C 234.739,290.219 238.905,287.885 243.5,286.5 Z"/></g>
<g><path style="opacity:1" fill="#eed674" d="M 103.5,260.5 C 102.871,265.682 102.871,270.682 103.5,275.5C 102.87,278.917 102.537,282.417 102.5,286C 102.979,297.246 103.979,308.413 105.5,319.5C 104.819,317.842 103.985,316.175 103,314.5C 100.688,297.237 100.022,279.904 101,262.5C 101.708,261.619 102.542,260.953 103.5,260.5 Z"/></g>
<g><path style="opacity:1" fill="#020101" d="M 132.5,295.5 C 136.64,304.446 141.306,313.113 146.5,321.5C 139.167,329.5 131.5,337.167 123.5,344.5C 117.349,339.181 112.515,332.847 109,325.5C 108.187,323.564 107.687,321.564 107.5,319.5C 115.833,311.5 124.167,303.5 132.5,295.5 Z"/></g>
<g><path style="opacity:1" fill="#424242" d="M 239.5,309.5 C 246.444,310.663 253.444,310.663 260.5,309.5C 259.82,317.289 261.32,324.622 265,331.5C 268.069,334.807 271.902,336.307 276.5,336C 269.153,342.358 262.32,341.858 256,334.5C 256.485,342.563 254.485,349.897 250,356.5C 247.833,354.17 246.166,351.503 245,348.5C 244.248,344.148 243.415,339.815 242.5,335.5C 236.013,341.968 229.346,342.135 222.5,336C 227.572,336.092 231.739,334.258 235,330.5C 237.585,323.74 239.085,316.74 239.5,309.5 Z"/></g>
<g><path style="opacity:1" fill="#f6f6f3" d="M 146.5,321.5 C 154.132,330.467 162.132,339.134 170.5,347.5C 164.474,353.195 158.474,358.861 152.5,364.5C 144.314,359.157 135.98,353.991 127.5,349C 126.267,347.333 124.933,345.833 123.5,344.5C 131.5,337.167 139.167,329.5 146.5,321.5 Z"/></g>
<g><path style="opacity:1" fill="#1a1a1a" d="M 364.5,293.5 C 364.539,294.583 364.873,295.583 365.5,296.5C 352.965,327.234 331.632,349.568 301.5,363.5C 300.583,362.873 299.583,362.539 298.5,362.5C 329.395,347.94 351.395,324.94 364.5,293.5 Z"/></g>
<g><path style="opacity:1" fill="#fcdd5b" d="M 394.5,338.5 C 391.683,342.263 388.349,345.597 384.5,348.5C 380.261,346.908 378.761,348.241 380,352.5C 376.76,354.733 373.593,354.399 370.5,351.5C 371,350.5 371.5,349.5 372,348.5C 379.763,342.74 386.096,335.74 391,327.5C 392.621,331.496 394.121,332.163 395.5,329.5C 395.833,330.333 396.167,331.167 396.5,332C 395.382,334.059 394.715,336.226 394.5,338.5 Z"/></g>
<g><path style="opacity:1" fill="#020101" d="M 170.5,347.5 C 178.554,352.871 186.887,357.871 195.5,362.5C 190.167,368.167 184.833,373.833 179.5,379.5C 170.052,375.277 161.052,370.277 152.5,364.5C 158.474,358.861 164.474,353.195 170.5,347.5 Z"/></g>
<g><path style="opacity:1" fill="#1b1b1b" d="M 127.5,264.5 C 130.312,283.427 136.812,301.094 147,317.5C 179.049,361.268 221.882,378.602 275.5,369.5C 276.263,370.268 277.263,370.768 278.5,371C 273.607,372.512 268.607,373.512 263.5,374C 253.022,374.416 242.688,374.582 232.5,374.5C 220.018,371.289 207.685,367.289 195.5,362.5C 186.887,357.871 178.554,352.871 170.5,347.5C 162.132,339.134 154.132,330.467 146.5,321.5C 141.306,313.113 136.64,304.446 132.5,295.5C 130.502,286.842 128.502,278.175 126.5,269.5C 127.451,268.081 127.784,266.415 127.5,264.5 Z"/></g>
<g><path style="opacity:1" fill="#efd469" d="M 401.5,221.5 C 408.577,254.659 409.077,287.993 403,321.5C 401.19,327.786 398.357,333.453 394.5,338.5C 394.715,336.226 395.382,334.059 396.5,332C 396.167,331.167 395.833,330.333 395.5,329.5C 394.121,332.163 392.621,331.496 391,327.5C 386.096,335.74 379.763,342.74 372,348.5C 371.5,349.5 371,350.5 370.5,351.5C 373.593,354.399 376.76,354.733 380,352.5C 378.761,348.241 380.261,346.908 384.5,348.5C 382.108,353.225 378.441,356.558 373.5,358.5C 373.5,357.5 373.5,356.5 373.5,355.5C 371.253,355.085 369.086,354.418 367,353.5C 364.774,354.033 362.607,354.7 360.5,355.5C 365.647,351.197 370.98,347.03 376.5,343C 386.335,333.825 392.335,322.659 394.5,309.5C 394.35,314.912 393.683,320.246 392.5,325.5C 394.167,325.5 395.833,325.5 397.5,325.5C 397.343,326.873 397.51,328.207 398,329.5C 399.087,326.064 399.921,322.564 400.5,319C 400.245,317.674 399.578,316.674 398.5,316C 399.931,315.535 401.097,314.701 402,313.5C 404.026,309.097 404.86,304.43 404.5,299.5C 404.48,282.307 404.313,264.974 404,247.5C 402.582,238.898 401.748,230.231 401.5,221.5 Z"/></g>
<g><path style="opacity:1" fill="#f8db60" d="M 93.5,249.5 C 91.7747,270.894 92.2747,292.227 95,313.5C 96.6055,320.936 99.2721,327.936 103,334.5C 103.333,334.167 103.667,333.833 104,333.5C 104.49,334.793 104.657,336.127 104.5,337.5C 106.167,337.5 107.833,337.5 109.5,337.5C 109.567,335.599 109.233,333.766 108.5,332C 106.925,330.88 105.925,329.38 105.5,327.5C 106.269,324.885 106.603,322.219 106.5,319.5C 106.833,319.5 107.167,319.5 107.5,319.5C 107.687,321.564 108.187,323.564 109,325.5C 112.515,332.847 117.349,339.181 123.5,344.5C 124.933,345.833 126.267,347.333 127.5,349C 135.98,353.991 144.314,359.157 152.5,364.5C 161.052,370.277 170.052,375.277 179.5,379.5C 181.167,380.833 182.833,382.167 184.5,383.5C 185.716,385.451 187.382,386.951 189.5,388C 193.215,389.295 196.882,390.462 200.5,391.5C 203.558,393.696 206.891,395.362 210.5,396.5C 222.66,404.47 234.993,412.304 247.5,420C 248.833,420.667 250.167,420.667 251.5,420C 257.5,416 263.5,412 269.5,408C 300.542,391.487 330.875,373.987 360.5,355.5C 362.607,354.7 364.774,354.033 367,353.5C 369.086,354.418 371.253,355.085 373.5,355.5C 373.5,356.5 373.5,357.5 373.5,358.5C 368.353,362.803 363.02,366.97 357.5,371C 356.167,371.333 354.833,371.667 353.5,372C 349.823,375.497 345.823,378.497 341.5,381C 317.406,394.551 293.073,407.885 268.5,421C 264.145,425.017 259.478,428.684 254.5,432C 251.97,433.422 249.303,433.755 246.5,433C 222.102,416.798 196.768,402.131 170.5,389C 151.468,378.488 133.468,366.488 116.5,353C 103.037,341.577 95.204,327.077 93,309.5C 90.8715,289.328 91.0382,269.328 93.5,249.5 Z"/></g>
<g><path style="opacity:1" fill="#f9f9f6" d="M 195.5,362.5 C 207.685,367.289 220.018,371.289 232.5,374.5C 224.833,381.5 217.5,388.833 210.5,396.5C 206.891,395.362 203.558,393.696 200.5,391.5C 195.865,387.653 190.532,384.987 184.5,383.5C 182.833,382.167 181.167,380.833 179.5,379.5C 184.833,373.833 190.167,368.167 195.5,362.5 Z"/></g>
<g><path style="opacity:1" fill="#fcf3bd" d="M 184.5,383.5 C 190.532,384.987 195.865,387.653 200.5,391.5C 196.882,390.462 193.215,389.295 189.5,388C 187.382,386.951 185.716,385.451 184.5,383.5 Z"/></g>
</svg>
