<?xml version="1.0" encoding="UTF-8"?>
<!DOCTYPE svg PUBLIC "-//W3C//DTD SVG 1.1//EN" "http://www.w3.org/Graphics/SVG/1.1/DTD/svg11.dtd">
<svg xmlns="http://www.w3.org/2000/svg" version="1.1" width="500px" height="500px" style="shape-rendering:geometricPrecision; text-rendering:geometricPrecision; image-rendering:optimizeQuality; fill-rule:evenodd; clip-rule:evenodd" xmlns:xlink="http://www.w3.org/1999/xlink">
<g><path style="opacity:0.976" fill="#0e080f" d="M 466.5,218.5 C 467.386,234.481 467.719,250.481 467.5,266.5C 467.02,271.822 466.687,277.155 466.5,282.5C 465.043,288.002 463.71,293.669 462.5,299.5C 462.543,300.416 462.876,301.083 463.5,301.5C 462.766,302.708 462.433,304.041 462.5,305.5C 461.414,305.62 460.747,306.287 460.5,307.5C 458.223,315.997 455.556,324.33 452.5,332.5C 425.482,396.016 379.149,438.516 313.5,460C 239.669,479.92 172.336,466.92 111.5,421C 64.78,382.069 38.1134,332.235 31.5,271.5C 31.5,256.833 31.5,242.167 31.5,227.5C 42.8612,139.316 89.5279,78.1492 171.5,44C 252.757,16.6526 326.757,29.6526 393.5,83C 434.208,119.243 458.541,164.409 466.5,218.5 Z"/></g>
<g><path style="opacity:1" fill="#940113" d="M 263.5,42.5 C 334.311,48.4684 388.811,81.1351 427,140.5C 437.429,158.65 445.596,177.65 451.5,197.5C 451.5,198.833 451.5,200.167 451.5,201.5C 454.56,224.699 455.894,248.033 455.5,271.5C 452.806,301.416 443.639,329.083 428,354.5C 406.86,342.017 385.694,329.684 364.5,317.5C 369.334,307.179 373.5,296.512 377,285.5C 391.259,220.227 370.425,169.727 314.5,134C 295.782,123.821 275.782,118.321 254.5,117.5C 253.081,116.549 251.415,116.216 249.5,116.5C 249.5,91.8333 249.5,67.1667 249.5,42.5C 254.167,42.5 258.833,42.5 263.5,42.5 Z"/></g>
<g><path style="opacity:1" fill="#940113" d="M 229.5,42.5 C 235.833,42.5 242.167,42.5 248.5,42.5C 248.5,67.1667 248.5,91.8333 248.5,116.5C 246.585,116.216 244.919,116.549 243.5,117.5C 192.018,121.354 154.352,146.02 130.5,191.5C 129.417,191.539 128.417,191.873 127.5,192.5C 116.88,217.986 113.38,244.653 117,272.5C 117.638,275.601 118.805,278.268 120.5,280.5C 124.38,293.14 129.046,305.474 134.5,317.5C 113.894,328.805 93.5605,340.639 73.5,353C 72.5,353.667 71.5,353.667 70.5,353C 68.6859,350.521 67.0192,348.021 65.5,345.5C 58.9228,331.272 53.4228,316.606 49,301.5C 46.7396,291.605 45.2396,281.605 44.5,271.5C 44.2716,251.817 44.6049,232.15 45.5,212.5C 60.9064,139.503 102.573,87.6695 170.5,57C 189.466,49.3069 209.133,44.4736 229.5,42.5 Z"/></g>
<g><path style="opacity:1" fill="#0f0f0f" d="M 358.5,313.5 C 323.835,365.237 275.835,384.404 214.5,371C 181.597,360.91 156.597,341.076 139.5,311.5C 113.381,258.801 118.881,209.801 156,164.5C 202.259,119.486 254.426,111.319 312.5,140C 365.803,175.214 384.969,224.047 370,286.5C 366.834,295.845 363.001,304.845 358.5,313.5 Z"/></g>
<g><path style="opacity:1" fill="#fafafa" d="M 234.5,128.5 C 286.97,125.15 327.137,145.484 355,189.5C 376.691,232.542 375.357,274.875 351,316.5C 322.338,356.076 283.505,373.909 234.5,370C 181.827,360.753 147.66,330.587 132,279.5C 121.103,224.826 137.936,180.992 182.5,148C 198.654,138.009 215.987,131.509 234.5,128.5 Z"/></g>
<g><path style="opacity:1" fill="#f7f3f3" d="M 454.5,187.5 C 453.12,186.294 451.953,186.627 451,188.5C 450.956,191.475 451.123,194.475 451.5,197.5C 445.596,177.65 437.429,158.65 427,140.5C 388.811,81.1351 334.311,48.4684 263.5,42.5C 252.167,41.1667 240.833,41.1667 229.5,42.5C 209.133,44.4736 189.466,49.3069 170.5,57C 102.573,87.6695 60.9064,139.503 45.5,212.5C 43.1123,223.899 42.1123,235.566 42.5,247.5C 42.6667,253.833 42.8333,260.167 43,266.5C 43.1981,268.382 43.6981,270.048 44.5,271.5C 45.2396,281.605 46.7396,291.605 49,301.5C 53.4228,316.606 58.9228,331.272 65.5,345.5C 63.39,344.547 62.2233,342.881 62,340.5C 61.2564,342.9 60.4231,345.233 59.5,347.5C 31.8215,292.241 27.9882,235.241 48,176.5C 78.5246,100.982 133.691,54.8154 213.5,38C 295.421,27.4102 363.254,53.2436 417,115.5C 433.952,137.066 446.452,161.066 454.5,187.5 Z"/></g>
<g><path style="opacity:1" fill="#b43947" d="M 229.5,42.5 C 240.833,41.1667 252.167,41.1667 263.5,42.5C 258.833,42.5 254.167,42.5 249.5,42.5C 249.5,67.1667 249.5,91.8333 249.5,116.5C 251.415,116.216 253.081,116.549 254.5,117.5C 250.833,117.5 247.167,117.5 243.5,117.5C 244.919,116.549 246.585,116.216 248.5,116.5C 248.5,91.8333 248.5,67.1667 248.5,42.5C 242.167,42.5 235.833,42.5 229.5,42.5 Z"/></g>
<g><path style="opacity:1" fill="#060606" d="M 279.5,242.5 C 279.539,241.244 279.039,240.244 278,239.5C 277.184,244.684 277.35,249.684 278.5,254.5C 278.372,258.881 278.705,263.215 279.5,267.5C 274.302,267.143 270.802,264.476 269,259.5C 267.848,253.23 267.182,246.897 267,240.5C 264.878,245.315 263.878,250.315 264,255.5C 267.854,265.355 273.354,274.188 280.5,282C 279.328,282.419 278.328,283.085 277.5,284C 281.5,289.333 286.167,294 291.5,298C 292.833,298.667 294.167,298.667 295.5,298C 298.52,295.977 300.854,293.31 302.5,290C 305.985,289.703 309.318,290.369 312.5,292C 313.337,293.011 313.67,294.178 313.5,295.5C 309.437,297.929 305.103,300.095 300.5,302C 304.59,302.954 308.423,302.454 312,300.5C 313.979,302.395 315.979,304.395 318,306.5C 319.454,312.468 318.288,313.468 314.5,309.5C 313.389,310.611 312.055,311.278 310.5,311.5C 308.594,309.758 306.26,308.758 303.5,308.5C 302.167,308.667 300.833,308.833 299.5,309C 302.507,310.617 305.341,312.451 308,314.5C 309.31,319.452 308.31,323.785 305,327.5C 304.503,325.19 304.337,322.857 304.5,320.5C 302.801,320.66 301.134,320.494 299.5,320C 297.249,316.075 294.583,312.408 291.5,309C 290.5,308.333 289.5,308.333 288.5,309C 286.561,309.908 285.561,311.408 285.5,313.5C 283.5,313.5 281.5,313.5 279.5,313.5C 279.992,317.29 279.159,317.956 277,315.5C 276.333,312.833 276.333,310.167 277,307.5C 279.071,306.475 281.238,305.642 283.5,305C 284.357,304.311 285.023,303.478 285.5,302.5C 280.149,297.982 275.315,292.982 271,287.5C 270.581,288.672 269.915,289.672 269,290.5C 265.578,285.322 261.911,280.322 258,275.5C 255.127,284.278 254.127,293.278 255,302.5C 255.58,306.426 257.747,307.926 261.5,307C 262.747,305.542 262.747,304.042 261.5,302.5C 263.187,301.432 264.854,301.599 266.5,303C 268.402,305.484 270.235,307.984 272,310.5C 272.534,315.486 270.367,318.819 265.5,320.5C 270.467,321.329 275.467,321.829 280.5,322C 289.512,325.559 292.179,331.725 288.5,340.5C 287.772,335 284.772,331.666 279.5,330.5C 279.67,331.822 279.337,332.989 278.5,334C 269.748,337.266 262.248,335.432 256,328.5C 257.194,332.412 259.361,335.912 262.5,339C 259.612,340.964 256.779,340.797 254,338.5C 251.044,357.997 247.044,358.331 242,339.5C 239.031,342.183 236.198,342.016 233.5,339C 236.962,335.587 239.462,331.754 241,327.5C 234.717,333.594 227.217,336.094 218.5,335C 216.191,330.747 213.691,330.58 211,334.5C 210.667,336.5 210.333,338.5 210,340.5C 205.077,331.496 207.577,325.329 217.5,322C 222.833,321.667 228.167,321.333 233.5,321C 225.959,317.338 224.459,311.838 229,304.5C 230.263,302.203 232.097,301.37 234.5,302C 232.677,306.846 234.344,308.512 239.5,307C 242.813,303.727 244.147,299.727 243.5,295C 243.351,287.966 242.184,281.132 240,274.5C 235.586,279.656 231.919,285.323 229,291.5C 228.085,290.672 227.419,289.672 227,288.5C 221.532,292.967 216.365,297.8 211.5,303C 214.322,304.574 217.156,306.074 220,307.5C 221.116,311.288 220.45,314.622 218,317.5C 217.506,315.866 217.34,314.199 217.5,312.5C 216.127,312.657 214.793,312.49 213.5,312C 211.578,310.124 209.411,308.624 207,307.5C 203.154,311.013 199.654,314.846 196.5,319C 192.269,319.043 190.436,321.21 191,325.5C 187.839,321.191 187.673,316.691 190.5,312C 199.506,309.369 199.506,308.369 190.5,309C 188.698,312.077 186.698,312.243 184.5,309.5C 182.803,310.364 181.637,311.697 181,313.5C 179.433,308.467 180.933,304.633 185.5,302C 189.801,302.363 194.134,302.363 198.5,302C 196.51,300.249 194.177,299.249 191.5,299C 189.879,295.85 187.546,295.016 184.5,296.5C 183.718,294.671 184.384,293.171 186.5,292C 192.539,287.902 196.872,289.236 199.5,296C 201.167,296.833 202.833,297.667 204.5,298.5C 210.115,294.388 215.281,289.722 220,284.5C 220.456,283.256 219.956,282.423 218.5,282C 225.419,273.417 231.085,264.084 235.5,254C 234.125,248.877 232.958,243.71 232,238.5C 231.667,244.5 231.333,250.5 231,256.5C 229.171,262.363 225.338,264.863 219.5,264C 220.38,262.644 220.714,261.144 220.5,259.5C 221.819,252.656 221.819,245.656 220.5,238.5C 219.534,240.396 219.201,242.396 219.5,244.5C 218.419,253.317 216.586,261.984 214,270.5C 211.757,277.415 207.09,281.415 200,282.5C 197.729,282.826 196.229,281.992 195.5,280C 199.254,274.657 202.088,268.824 204,262.5C 206.267,254.478 208.267,246.478 210,238.5C 204.645,250.047 198.145,260.88 190.5,271C 185.001,276.252 179.168,276.752 173,272.5C 172.333,271.167 172.333,269.833 173,268.5C 176.516,266.074 179.849,263.407 183,260.5C 188.623,252.754 194.123,244.921 199.5,237C 194.898,239.88 190.564,243.547 186.5,248C 181.785,251.399 176.785,252.066 171.5,250C 168.868,247.934 168.201,245.434 169.5,242.5C 178.146,239.179 185.813,234.346 192.5,228C 188.216,229.092 183.882,230.425 179.5,232C 170.534,233.36 166.534,229.694 167.5,221C 174.922,220.649 182.256,219.649 189.5,218C 189.957,217.586 190.291,217.086 190.5,216.5C 185.198,215.671 179.864,215.171 174.5,215C 166.518,211.242 164.852,205.742 169.5,198.5C 174.788,202.873 180.955,205.207 188,205.5C 188.833,205.167 189.667,204.833 190.5,204.5C 184.453,201.38 178.953,197.38 174,192.5C 170.611,187.436 170.778,182.603 174.5,178C 178.248,180.724 181.915,184.057 185.5,188C 189.036,190.366 192.703,192.533 196.5,194.5C 196.833,194.167 197.167,193.833 197.5,193.5C 191.744,189.243 187.244,183.909 184,177.5C 181.33,172.014 182.497,167.514 187.5,164C 189.112,163.28 190.612,163.446 192,164.5C 193.736,174.248 199.236,181.081 208.5,185C 217.787,192.183 217.787,199.183 208.5,206C 209.911,208.978 210.911,212.145 211.5,215.5C 213.454,214.149 215.621,213.482 218,213.5C 222.386,214.628 226.719,215.962 231,217.5C 233.759,215.202 236.926,213.535 240.5,212.5C 241.128,210.742 242.128,209.242 243.5,208C 242.833,207.333 242.167,206.667 241.5,206C 247.729,199.676 246.396,195.842 237.5,194.5C 238.912,193.194 240.579,192.36 242.5,192C 238.105,191.737 233.772,192.237 229.5,193.5C 223.468,193.399 220.634,190.399 221,184.5C 221.903,185.701 223.069,186.535 224.5,187C 230.833,187.667 237.167,187.667 243.5,187C 240.493,183.447 236.66,181.28 232,180.5C 230.395,181.101 229.062,182.101 228,183.5C 226.773,179.409 227.606,175.909 230.5,173C 233.997,170.417 237.664,168.084 241.5,166C 244.5,165.333 247.5,165.333 250.5,166C 255.244,168.205 260.077,168.705 265,167.5C 265.332,170.69 263.832,172.69 260.5,173.5C 263.625,178.249 266.625,183.083 269.5,188C 267.922,189.14 266.256,189.64 264.5,189.5C 265.956,195.76 266.956,202.094 267.5,208.5C 265.741,209.754 264.241,209.421 263,207.5C 261.798,209.677 261.298,212.011 261.5,214.5C 263.923,214.424 265.756,215.424 267,217.5C 272.725,213.645 278.891,212.645 285.5,214.5C 286.081,211.625 287.081,208.958 288.5,206.5C 282.456,201.861 281.289,196.194 285,189.5C 291,184.167 297,178.833 303,173.5C 304.75,170.754 305.75,167.754 306,164.5C 310.119,163.056 313.119,164.389 315,168.5C 315.271,174.634 313.271,179.968 309,184.5C 306.131,187.704 302.965,190.537 299.5,193C 300.833,193.667 302.167,193.667 303.5,193C 310.564,188.938 316.731,183.772 322,177.5C 327.216,181.68 327.882,186.68 324,192.5C 322.167,194.333 320.333,196.167 318.5,198C 313.976,200.094 309.642,202.427 305.5,205C 313.742,205.476 321.242,203.309 328,198.5C 330.884,199.424 332.051,201.424 331.5,204.5C 331.649,208.035 330.316,210.868 327.5,213C 320.849,214.735 314.182,216.068 307.5,217C 314.609,220.125 321.943,220.958 329.5,219.5C 332.062,222.853 332.062,226.353 329.5,230C 326.293,231.276 322.959,232.109 319.5,232.5C 314.204,231.289 309.204,229.289 304.5,226.5C 304.167,226.833 303.833,227.167 303.5,227.5C 310.344,232.089 317.01,236.922 323.5,242C 325.473,242.495 327.473,242.662 329.5,242.5C 329.992,251.105 325.992,254.272 317.5,252C 310.541,247.375 304.541,241.708 299.5,235C 298.833,234.333 298.167,234.333 297.5,235C 303.374,243.245 308.874,251.745 314,260.5C 316.333,264.167 319.333,267.167 323,269.5C 322.922,273.752 320.588,275.752 316,275.5C 311.804,274.567 308.137,272.567 305,269.5C 299.143,259.786 293.809,249.786 289,239.5C 291.622,249.329 293.956,259.329 296,269.5C 297.44,273.547 299.274,277.38 301.5,281C 300.771,282.992 299.271,283.826 297,283.5C 291.23,282.405 287.23,279.072 285,273.5C 281.315,263.503 279.481,253.169 279.5,242.5 Z"/></g>
<g><path style="opacity:1" fill="#f8f3f3" d="M 243.5,117.5 C 247.167,117.5 250.833,117.5 254.5,117.5C 275.782,118.321 295.782,123.821 314.5,134C 370.425,169.727 391.259,220.227 377,285.5C 373.5,296.512 369.334,307.179 364.5,317.5C 363.373,316.878 362.373,316.045 361.5,315C 362.517,313.951 362.684,312.784 362,311.5C 360.887,312.305 359.721,312.972 358.5,313.5C 363.001,304.845 366.834,295.845 370,286.5C 384.969,224.047 365.803,175.214 312.5,140C 254.426,111.319 202.259,119.486 156,164.5C 118.881,209.801 113.381,258.801 139.5,311.5C 137.051,312.94 135.385,314.94 134.5,317.5C 129.046,305.474 124.38,293.14 120.5,280.5C 113.677,249.592 117.01,219.926 130.5,191.5C 154.352,146.02 192.018,121.354 243.5,117.5 Z"/></g>
<g><path style="opacity:1" fill="#fdfdfd" d="M 454.5,187.5 C 474.889,262.788 460.389,330.455 411,390.5C 357.736,447.481 292.236,470.981 214.5,461C 144.515,447.806 92.8488,409.972 59.5,347.5C 60.4231,345.233 61.2564,342.9 62,340.5C 62.2233,342.881 63.39,344.547 65.5,345.5C 67.0192,348.021 68.6859,350.521 70.5,353C 71.5,353.667 72.5,353.667 73.5,353C 93.5605,340.639 113.894,328.805 134.5,317.5C 135.385,314.94 137.051,312.94 139.5,311.5C 156.597,341.076 181.597,360.91 214.5,371C 275.835,384.404 323.835,365.237 358.5,313.5C 359.721,312.972 360.887,312.305 362,311.5C 362.684,312.784 362.517,313.951 361.5,315C 362.373,316.045 363.373,316.878 364.5,317.5C 385.694,329.684 406.86,342.017 428,354.5C 443.639,329.083 452.806,301.416 455.5,271.5C 458.958,247.913 457.624,224.58 451.5,201.5C 451.5,200.167 451.5,198.833 451.5,197.5C 451.123,194.475 450.956,191.475 451,188.5C 451.953,186.627 453.12,186.294 454.5,187.5 Z"/></g>
<g><path style="opacity:1" fill="#8a1c26" d="M 130.5,191.5 C 117.01,219.926 113.677,249.592 120.5,280.5C 118.805,278.268 117.638,275.601 117,272.5C 113.38,244.653 116.88,217.986 127.5,192.5C 128.417,191.873 129.417,191.539 130.5,191.5 Z"/></g>
<g><path style="opacity:1" fill="#94272e" d="M 451.5,201.5 C 457.624,224.58 458.958,247.913 455.5,271.5C 455.894,248.033 454.56,224.699 451.5,201.5 Z"/></g>
<g><path style="opacity:1" fill="#fcebee" d="M 66.5,240.5 C 70.0071,239.994 73.1737,240.66 76,242.5C 76.1955,248.016 74.0288,252.516 69.5,256C 71.8098,256.497 74.1432,256.663 76.5,256.5C 76.5,257.5 76.5,258.5 76.5,259.5C 71.7863,259.827 67.1196,259.493 62.5,258.5C 65.8535,254.981 69.0202,251.314 72,247.5C 72.6378,244.07 71.1378,242.737 67.5,243.5C 67.5,244.5 67.5,245.5 67.5,246.5C 66.1667,246.5 64.8333,246.5 63.5,246.5C 63.0283,243.642 64.0283,241.642 66.5,240.5 Z"/></g>
<g><path style="opacity:1" fill="#919191" d="M 279.5,242.5 C 278.517,246.298 278.183,250.298 278.5,254.5C 277.35,249.684 277.184,244.684 278,239.5C 279.039,240.244 279.539,241.244 279.5,242.5 Z"/></g>
<g><path style="opacity:1" fill="#fbe5e9" d="M 423.5,240.5 C 427.5,240.5 431.5,240.5 435.5,240.5C 435.5,241.5 435.5,242.5 435.5,243.5C 432.5,243.5 429.5,243.5 426.5,243.5C 426.343,244.873 426.51,246.207 427,247.5C 428.699,246.594 430.533,246.261 432.5,246.5C 438.591,256.276 435.924,260.443 424.5,259C 422.963,257.89 422.297,256.39 422.5,254.5C 425.261,255.92 428.261,256.587 431.5,256.5C 431.756,254.208 431.423,252.041 430.5,250C 427.821,250.158 425.154,250.658 422.5,251.5C 422.323,247.766 422.656,244.099 423.5,240.5 Z"/></g>
<g><path style="opacity:0.996" fill="#2a1633" d="M 466.5,218.5 C 467.117,218.611 467.617,218.944 468,219.5C 468.175,235.074 468.675,250.574 469.5,266C 469.272,266.399 468.938,266.565 468.5,266.5C 468.167,266.5 467.833,266.5 467.5,266.5C 467.719,250.481 467.386,234.481 466.5,218.5 Z"/></g>
<g><path style="opacity:1" fill="#8a8a8a" d="M 220.5,259.5 C 220.821,254.305 220.487,249.305 219.5,244.5C 219.201,242.396 219.534,240.396 220.5,238.5C 221.819,245.656 221.819,252.656 220.5,259.5 Z"/></g>
<g><path style="opacity:1" fill="#8e1a22" d="M 406.5,240.5 C 404.919,242.142 404.253,244.142 404.5,246.5C 406.668,245.821 408.668,244.821 410.5,243.5C 412.266,243.434 413.266,244.268 413.5,246C 410.75,250.588 407.417,254.755 403.5,258.5C 408.12,259.493 412.786,259.827 417.5,259.5C 417.5,258.5 417.5,257.5 417.5,256.5C 414.813,256.664 412.146,256.497 409.5,256C 414.086,252.942 416.753,248.775 417.5,243.5C 419.426,247.629 418.426,250.962 414.5,253.5C 416.475,254.578 418.308,254.245 420,252.5C 420.333,249.5 420.667,246.5 421,243.5C 421.377,242.058 422.21,241.058 423.5,240.5C 422.656,244.099 422.323,247.766 422.5,251.5C 425.154,250.658 427.821,250.158 430.5,250C 431.423,252.041 431.756,254.208 431.5,256.5C 428.261,256.587 425.261,255.92 422.5,254.5C 422.297,256.39 422.963,257.89 424.5,259C 435.924,260.443 438.591,256.276 432.5,246.5C 434.582,246.624 436.082,247.624 437,249.5C 437.667,252.167 437.667,254.833 437,257.5C 436.5,258.667 435.667,259.5 434.5,260C 429.326,261.282 424.66,260.449 420.5,257.5C 419.713,258.242 419.047,259.075 418.5,260C 413.167,260.667 407.833,260.667 402.5,260C 401.594,258.301 401.261,256.467 401.5,254.5C 402.5,254.5 403.5,254.5 404.5,254.5C 404.5,253.5 404.5,252.5 404.5,251.5C 405.5,251.5 406.5,251.5 407.5,251.5C 407.5,250.5 407.5,249.5 407.5,248.5C 405.856,248.714 404.356,248.38 403,247.5C 402.503,245.19 402.337,242.857 402.5,240.5C 403.833,240.5 405.167,240.5 406.5,240.5 Z"/></g>
<g><path style="opacity:1" fill="#fdeff0" d="M 406.5,240.5 C 410.794,239.807 414.461,240.807 417.5,243.5C 416.753,248.775 414.086,252.942 409.5,256C 412.146,256.497 414.813,256.664 417.5,256.5C 417.5,257.5 417.5,258.5 417.5,259.5C 412.786,259.827 408.12,259.493 403.5,258.5C 407.417,254.755 410.75,250.588 413.5,246C 413.266,244.268 412.266,243.434 410.5,243.5C 408.668,244.821 406.668,245.821 404.5,246.5C 404.253,244.142 404.919,242.142 406.5,240.5 Z"/></g>
<g><path style="opacity:1" fill="#8a1c26" d="M 45.5,212.5 C 44.6049,232.15 44.2716,251.817 44.5,271.5C 43.6981,270.048 43.1981,268.382 43,266.5C 42.8333,260.167 42.6667,253.833 42.5,247.5C 42.1123,235.566 43.1123,223.899 45.5,212.5 Z"/></g>
<g><path style="opacity:1" fill="#fcebeb" d="M 84.5,240.5 C 94.4394,239.987 97.9394,244.654 95,254.5C 94.7265,256.329 93.8932,257.829 92.5,259C 89.8333,259.667 87.1667,259.667 84.5,259C 83.2986,258.097 82.4652,256.931 82,255.5C 81.3333,251.5 81.3333,247.5 82,243.5C 83.045,242.627 83.8783,241.627 84.5,240.5 Z"/></g>
<g><path style="opacity:1" fill="#87101d" d="M 86.5,243.5 C 88.1439,243.286 89.6439,243.62 91,244.5C 91.6667,247.833 91.6667,251.167 91,254.5C 89.6883,256.658 88.0217,256.991 86,255.5C 85.2375,251.413 85.4042,247.413 86.5,243.5 Z"/></g>
<g><path style="opacity:0.923" fill="#190021" d="M 31.5,227.5 C 31.5,242.167 31.5,256.833 31.5,271.5C 29.5458,256.693 29.5458,242.026 31.5,227.5 Z"/></g>
<g><path style="opacity:0.616" fill="#775c7e" d="M 467.5,266.5 C 467.833,266.5 468.167,266.5 468.5,266.5C 468.666,270.846 468.499,275.179 468,279.5C 467.768,280.737 467.268,281.737 466.5,282.5C 466.687,277.155 467.02,271.822 467.5,266.5 Z"/></g>
<g><path style="opacity:0.792" fill="#5a3f62" d="M 466.5,282.5 C 466.291,288.99 465.291,295.323 463.5,301.5C 462.876,301.083 462.543,300.416 462.5,299.5C 463.71,293.669 465.043,288.002 466.5,282.5 Z"/></g>
<g><path style="opacity:0.078" fill="#6e4f73" d="M 462.5,305.5 C 460.332,315.011 456.999,324.011 452.5,332.5C 455.556,324.33 458.223,315.997 460.5,307.5C 460.747,306.287 461.414,305.62 462.5,305.5 Z"/></g>
</svg>
