<?xml version="1.0" encoding="UTF-8"?>
<!DOCTYPE svg PUBLIC "-//W3C//DTD SVG 1.1//EN" "http://www.w3.org/Graphics/SVG/1.1/DTD/svg11.dtd">
<svg xmlns="http://www.w3.org/2000/svg" version="1.1" width="500px" height="500px" style="shape-rendering:geometricPrecision; text-rendering:geometricPrecision; image-rendering:optimizeQuality; fill-rule:evenodd; clip-rule:evenodd" xmlns:xlink="http://www.w3.org/1999/xlink">
<g><path style="opacity:1" fill="#6da6a4" d="M 413.5,277.5 C 411.254,276.545 408.921,275.878 406.5,275.5C 404.036,274.433 401.703,273.1 399.5,271.5C 398.811,259.539 396.644,247.872 393,236.5C 392.617,235.944 392.117,235.611 391.5,235.5C 388.594,228.232 386.427,220.565 385,212.5C 379.139,200.704 375.306,188.371 373.5,175.5C 361.833,175.5 350.167,175.5 338.5,175.5C 337.833,175.5 337.5,175.167 337.5,174.5C 349.167,174.5 360.833,174.5 372.5,174.5C 371.794,153.745 379.794,137.245 396.5,125C 387.918,112.505 379.585,99.8379 371.5,87C 339.284,101.322 307.95,99.3216 277.5,81C 272.833,77.6667 268.167,74.3333 263.5,71C 258.985,66.3181 254.319,61.8181 249.5,57.5C 232.02,76.4598 210.687,88.9598 185.5,95C 171.007,97.447 156.673,96.7804 142.5,93C 137.502,90.656 132.502,88.656 127.5,87C 118.793,99.5777 110.46,112.411 102.5,125.5C 119.285,137.404 127.285,153.737 126.5,174.5C 138.167,174.5 149.833,174.5 161.5,174.5C 161.5,175.167 161.167,175.5 160.5,175.5C 148.833,175.5 137.167,175.5 125.5,175.5C 123.534,182.031 122.201,188.698 121.5,195.5C 120.833,196.833 120.167,198.167 119.5,199.5C 114.048,211.625 109.381,224.125 105.5,237C 104.591,240.466 103.924,243.966 103.5,247.5C 103.5,248.167 103.5,248.833 103.5,249.5C 101.759,255.112 100.426,260.946 99.5,267C 99.5687,268.986 100.235,270.486 101.5,271.5C 98.0968,272.925 94.4302,273.758 90.5,274C 88.6667,274.5 87.5,275.667 87,277.5C 86.6012,277.272 86.4346,276.938 86.5,276.5C 87.0103,267.751 88.177,259.084 90,250.5C 95.8639,229.575 102.531,208.908 110,188.5C 117.719,168.886 113.886,152.053 98.5,138C 94.912,135.623 91.412,133.123 88,130.5C 87.3333,128.5 87.3333,126.5 88,124.5C 99,107.5 110,90.5 121,73.5C 123.243,71.718 125.743,71.218 128.5,72C 151.143,85.6037 174.81,87.6037 199.5,78C 217.748,69.7549 233.082,57.7549 245.5,42C 248.167,41.3333 250.833,41.3333 253.5,42C 272.262,67.051 297.262,81.2177 328.5,84.5C 343.76,84.4679 357.76,80.3012 370.5,72C 373.257,71.218 375.757,71.718 378,73.5C 389,90.5 400,107.5 411,124.5C 411.667,126.5 411.667,128.5 411,130.5C 402.046,135.787 394.713,142.787 389,151.5C 384.503,163.77 384.503,176.103 389,188.5C 395.399,206.363 401.399,224.363 407,242.5C 409.82,254.093 411.987,265.76 413.5,277.5 Z"/></g>
<g><path style="opacity:1" fill="#fdfdfd" d="M 337.5,174.5 C 330.688,147.034 314.688,127.034 289.5,114.5C 261.433,100.824 233.433,101.324 205.5,116C 201.258,118.61 197.258,121.443 193.5,124.5C 186.432,129.233 180.765,135.233 176.5,142.5C 171.572,148.011 167.906,154.345 165.5,161.5C 163.768,165.697 162.435,170.031 161.5,174.5C 149.833,174.5 138.167,174.5 126.5,174.5C 127.285,153.737 119.285,137.404 102.5,125.5C 110.46,112.411 118.793,99.5777 127.5,87C 132.502,88.656 137.502,90.656 142.5,93C 156.673,96.7804 171.007,97.447 185.5,95C 210.687,88.9598 232.02,76.4598 249.5,57.5C 254.319,61.8181 258.985,66.3181 263.5,71C 268.167,74.3333 272.833,77.6667 277.5,81C 307.95,99.3216 339.284,101.322 371.5,87C 379.585,99.8379 387.918,112.505 396.5,125C 379.794,137.245 371.794,153.745 372.5,174.5C 360.833,174.5 349.167,174.5 337.5,174.5 Z"/></g>
<g><path style="opacity:1" fill="#fcfcfc" d="M 288.5,116.5 C 292.852,121.013 297.685,125.013 303,128.5C 303.499,134.491 303.666,140.491 303.5,146.5C 292.495,146.667 281.495,146.5 270.5,146C 266.806,143.822 263.139,141.655 259.5,139.5C 257.664,137.412 255.331,136.079 252.5,135.5C 250.188,133.364 247.688,131.364 245,129.5C 244.51,128.207 244.343,126.873 244.5,125.5C 244.833,120.833 245.167,116.167 245.5,111.5C 251.131,110.374 256.798,109.374 262.5,108.5C 271.631,109.766 280.297,112.433 288.5,116.5 Z"/></g>
<g><path style="opacity:1" fill="#fafafa" d="M 240.5,129.5 C 237.669,130.079 235.336,131.412 233.5,133.5C 228.5,135.664 223.833,138.331 219.5,141.5C 216.057,143.104 212.723,144.938 209.5,147C 200.84,147.5 192.173,147.666 183.5,147.5C 183.335,143.818 183.501,140.152 184,136.5C 188.062,132.269 192.229,128.269 196.5,124.5C 207.697,116.74 220.03,111.406 233.5,108.5C 236.326,109.58 239.159,110.58 242,111.5C 242.62,117.626 242.12,123.626 240.5,129.5 Z"/></g>
<g><path style="opacity:1" fill="#191919" d="M 289.5,114.5 C 288.662,114.842 288.328,115.508 288.5,116.5C 280.297,112.433 271.631,109.766 262.5,108.5C 256.798,109.374 251.131,110.374 245.5,111.5C 245.167,116.167 244.833,120.833 244.5,125.5C 243.566,126.568 243.232,127.901 243.5,129.5C 242.5,129.5 241.5,129.5 240.5,129.5C 242.12,123.626 242.62,117.626 242,111.5C 239.159,110.58 236.326,109.58 233.5,108.5C 220.03,111.406 207.697,116.74 196.5,124.5C 195.5,124.5 194.5,124.5 193.5,124.5C 197.258,121.443 201.258,118.61 205.5,116C 233.433,101.324 261.433,100.824 289.5,114.5 Z"/></g>
<g><path style="opacity:1" fill="#fbfbfb" d="M 176.5,160.5 C 177.401,159.71 178.068,158.71 178.5,157.5C 179.608,155.219 180.942,153.052 182.5,151C 191.412,150.184 200.245,150.35 209,151.5C 212.303,161.741 215.803,171.908 219.5,182C 213.547,192.069 207.714,202.236 202,212.5C 200.6,213.116 199.1,213.449 197.5,213.5C 190.847,212.834 184.181,212.334 177.5,212C 173.023,202.076 169.023,191.909 165.5,181.5C 168.907,174.352 172.574,167.352 176.5,160.5 Z"/></g>
<g><path style="opacity:1" fill="#323232" d="M 178.5,157.5 C 178.068,158.71 177.401,159.71 176.5,160.5C 175.903,159.861 175.07,159.528 174,159.5C 171.178,160.275 168.344,160.942 165.5,161.5C 167.906,154.345 171.572,148.011 176.5,142.5C 177.708,141.766 179.041,141.433 180.5,141.5C 180.295,146.654 179.295,151.654 177.5,156.5C 177.624,157.107 177.957,157.44 178.5,157.5 Z"/></g>
<g><path style="opacity:1" fill="#1baf69" d="M 160.5,175.5 C 158.659,190.316 159.326,204.983 162.5,219.5C 161.043,217.758 159.876,215.758 159,213.5C 158.5,201.171 158.333,188.838 158.5,176.5C 147.833,176.5 137.167,176.5 126.5,176.5C 126.621,183.445 124.954,189.779 121.5,195.5C 122.201,188.698 123.534,182.031 125.5,175.5C 137.167,175.5 148.833,175.5 160.5,175.5 Z"/></g>
<g><path style="opacity:1" fill="#01be62" d="M 162.5,219.5 C 166.272,232.389 172.606,243.722 181.5,253.5C 181.5,254.5 181.5,255.5 181.5,256.5C 179.901,256.232 178.568,256.566 177.5,257.5C 176.833,257.5 176.167,257.5 175.5,257.5C 157.095,258.726 138.929,261.059 121,264.5C 115.728,264.715 112.228,262.382 110.5,257.5C 109.534,259.396 109.201,261.396 109.5,263.5C 107.738,263.643 106.071,263.309 104.5,262.5C 103.808,263.025 103.308,263.692 103,264.5C 102.412,259.472 102.578,254.472 103.5,249.5C 103.5,248.833 103.5,248.167 103.5,247.5C 108.517,236.628 112.684,225.295 116,213.5C 118.943,209.371 120.11,204.704 119.5,199.5C 120.167,198.167 120.833,196.833 121.5,195.5C 124.954,189.779 126.621,183.445 126.5,176.5C 137.167,176.5 147.833,176.5 158.5,176.5C 158.333,188.838 158.5,201.171 159,213.5C 159.876,215.758 161.043,217.758 162.5,219.5 Z"/></g>
<g><path style="opacity:1" fill="#02bd62" d="M 338.5,175.5 C 350.167,175.5 361.833,175.5 373.5,175.5C 375.306,188.371 379.139,200.704 385,212.5C 386.427,220.565 388.594,228.232 391.5,235.5C 391.795,240.438 392.962,245.104 395,249.5C 395.253,254.039 395.753,258.539 396.5,263C 395.632,264.865 395.966,266.698 397.5,268.5C 395.388,269.199 393.388,268.699 391.5,267C 384.594,265.335 377.594,264.502 370.5,264.5C 369.737,263.732 368.737,263.232 367.5,263C 358.047,262.625 348.713,261.459 339.5,259.5C 338.192,258.768 336.858,257.934 335.5,257C 329.804,256.83 324.138,256.33 318.5,255.5C 319.127,254.583 319.461,253.583 319.5,252.5C 336.769,229.755 343.103,204.089 338.5,175.5 Z"/></g>
<g><path style="opacity:1" fill="#070808" d="M 289.5,114.5 C 314.688,127.034 330.688,147.034 337.5,174.5C 337.5,175.167 337.833,175.5 338.5,175.5C 343.103,204.089 336.769,229.755 319.5,252.5C 318.469,253.355 317.303,254.022 316,254.5C 315.235,254.43 314.735,254.097 314.5,253.5C 315.793,251.704 317.293,250.037 319,248.5C 319.483,247.552 319.649,246.552 319.5,245.5C 316.824,244.992 314.157,244.825 311.5,245C 308.29,247.717 304.956,250.217 301.5,252.5C 300.833,252.833 300.167,253.167 299.5,253.5C 287.833,253.5 276.167,253.5 264.5,253.5C 263.038,252.542 261.705,251.376 260.5,250C 247.167,249.333 233.833,249.333 220.5,250C 219.29,251.039 218.29,252.206 217.5,253.5C 209.167,253.5 200.833,253.5 192.5,253.5C 191.833,253.5 191.167,253.5 190.5,253.5C 187.519,249.921 184.019,246.921 180,244.5C 179.5,244.833 179,245.167 178.5,245.5C 179.804,248.13 181.47,250.463 183.5,252.5C 183.158,253.338 182.492,253.672 181.5,253.5C 172.606,243.722 166.272,232.389 162.5,219.5C 159.326,204.983 158.659,190.316 160.5,175.5C 161.167,175.5 161.5,175.167 161.5,174.5C 162.435,170.031 163.768,165.697 165.5,161.5C 168.344,160.942 171.178,160.275 174,159.5C 175.07,159.528 175.903,159.861 176.5,160.5C 172.574,167.352 168.907,174.352 165.5,181.5C 169.023,191.909 173.023,202.076 177.5,212C 184.181,212.334 190.847,212.834 197.5,213.5C 199.1,213.449 200.6,213.116 202,212.5C 207.714,202.236 213.547,192.069 219.5,182C 215.803,171.908 212.303,161.741 209,151.5C 200.245,150.35 191.412,150.184 182.5,151C 180.942,153.052 179.608,155.219 178.5,157.5C 177.957,157.44 177.624,157.107 177.5,156.5C 179.295,151.654 180.295,146.654 180.5,141.5C 179.041,141.433 177.708,141.766 176.5,142.5C 180.765,135.233 186.432,129.233 193.5,124.5C 194.5,124.5 195.5,124.5 196.5,124.5C 192.229,128.269 188.062,132.269 184,136.5C 183.501,140.152 183.335,143.818 183.5,147.5C 192.173,147.666 200.84,147.5 209.5,147C 212.723,144.938 216.057,143.104 219.5,141.5C 221.648,141.389 221.981,142.056 220.5,143.5C 233.45,145.081 246.45,145.748 259.5,145.5C 259.242,143.19 259.242,141.19 259.5,139.5C 263.139,141.655 266.806,143.822 270.5,146C 281.495,146.5 292.495,146.667 303.5,146.5C 303.666,140.491 303.499,134.491 303,128.5C 297.685,125.013 292.852,121.013 288.5,116.5C 288.328,115.508 288.662,114.842 289.5,114.5 Z"/></g>
<g><path style="opacity:1" fill="#f4f4f5" d="M 162.5,184.5 C 171.128,201.23 176.462,219.063 178.5,238C 178.691,239.973 178.024,241.473 176.5,242.5C 170.174,233.839 166.007,224.172 164,213.5C 162.714,203.879 162.214,194.212 162.5,184.5 Z"/></g>
<g><path style="opacity:1" fill="#fcfcfb" d="M 229.5,183.5 C 234.64,184.488 239.974,184.821 245.5,184.5C 249.555,184.176 253.555,184.509 257.5,185.5C 263.333,194.5 269.167,203.5 275,212.5C 276.301,214.365 276.635,216.365 276,218.5C 270.5,227.5 265,236.5 259.5,245.5C 246.513,246.666 233.513,246.833 220.5,246C 214.573,236.146 208.907,226.146 203.5,216C 209.62,205.597 215.62,195.097 221.5,184.5C 224.086,183.52 226.753,183.187 229.5,183.5 Z"/></g>
<g><path style="opacity:1" fill="#3c3c3c" d="M 245.5,184.5 C 239.974,184.821 234.64,184.488 229.5,183.5C 227.963,182.439 224.963,182.106 220.5,182.5C 220.674,180.139 221.007,177.806 221.5,175.5C 231.353,175.298 240.686,177.298 249.5,181.5C 247.668,182.057 246.335,183.057 245.5,184.5 Z"/></g>
<g><path style="opacity:1" fill="#f8f8f8" d="M 326.5,181.5 C 329.833,181.5 333.167,181.5 336.5,181.5C 339.217,203.965 334.383,224.632 322,243.5C 319.667,242.833 317.333,242.167 315,241.5C 313.76,233.337 312.593,225.171 311.5,217C 316.605,205.178 321.605,193.345 326.5,181.5 Z"/></g>
<g><path style="opacity:1" fill="#fbfbfb" d="M 272.5,149.5 C 283.172,149.333 293.839,149.5 304.5,150C 310.667,160.167 316.833,170.333 323,180.5C 319.119,191.617 314.619,202.617 309.5,213.5C 299.517,214.666 289.517,214.832 279.5,214C 273.124,204.081 266.624,194.248 260,184.5C 262.991,172.498 267.157,160.831 272.5,149.5 Z"/></g>
<g><path style="opacity:1" fill="#2f2f2f" d="M 233.5,133.5 C 232.685,134.837 231.518,135.837 230,136.5C 229.383,137.449 229.549,138.282 230.5,139C 236.5,139.333 242.5,139.667 248.5,140C 249.416,140.374 250.25,140.874 251,141.5C 251.5,139.667 252.667,138.5 254.5,138C 253.619,137.292 252.953,136.458 252.5,135.5C 255.331,136.079 257.664,137.412 259.5,139.5C 259.242,141.19 259.242,143.19 259.5,145.5C 246.45,145.748 233.45,145.081 220.5,143.5C 221.981,142.056 221.648,141.389 219.5,141.5C 223.833,138.331 228.5,135.664 233.5,133.5 Z"/></g>
<g><path style="opacity:1" fill="#4e4e4e" d="M 244.5,125.5 C 244.343,126.873 244.51,128.207 245,129.5C 247.688,131.364 250.188,133.364 252.5,135.5C 252.953,136.458 253.619,137.292 254.5,138C 252.667,138.5 251.5,139.667 251,141.5C 250.25,140.874 249.416,140.374 248.5,140C 242.5,139.667 236.5,139.333 230.5,139C 229.549,138.282 229.383,137.449 230,136.5C 231.518,135.837 232.685,134.837 233.5,133.5C 235.336,131.412 237.669,130.079 240.5,129.5C 241.5,129.5 242.5,129.5 243.5,129.5C 243.232,127.901 243.566,126.568 244.5,125.5 Z"/></g>
<g><path style="opacity:1" fill="#29b576" d="M 119.5,199.5 C 120.11,204.704 118.943,209.371 116,213.5C 112.684,225.295 108.517,236.628 103.5,247.5C 103.924,243.966 104.591,240.466 105.5,237C 109.381,224.125 114.048,211.625 119.5,199.5 Z"/></g>
<g><path style="opacity:1" fill="#eff1f1" d="M 190.5,253.5 C 188.05,253.702 185.717,253.369 183.5,252.5C 181.47,250.463 179.804,248.13 178.5,245.5C 179,245.167 179.5,244.833 180,244.5C 184.019,246.921 187.519,249.921 190.5,253.5 Z"/></g>
<g><path style="opacity:1" fill="#f5f8f6" d="M 314.5,253.5 C 309.968,253.818 305.634,253.485 301.5,252.5C 304.956,250.217 308.29,247.717 311.5,245C 314.157,244.825 316.824,244.992 319.5,245.5C 319.649,246.552 319.483,247.552 319,248.5C 317.293,250.037 315.793,251.704 314.5,253.5 Z"/></g>
<g><path style="opacity:1" fill="#eafafa" d="M 264.5,253.5 C 248.833,254.833 233.167,254.833 217.5,253.5C 218.29,252.206 219.29,251.039 220.5,250C 233.833,249.333 247.167,249.333 260.5,250C 261.705,251.376 263.038,252.542 264.5,253.5 Z"/></g>
<g><path style="opacity:1" fill="#3eb88f" d="M 301.5,252.5 C 305.634,253.485 309.968,253.818 314.5,253.5C 314.735,254.097 315.235,254.43 316,254.5C 317.303,254.022 318.469,253.355 319.5,252.5C 319.461,253.583 319.127,254.583 318.5,255.5C 324.138,256.33 329.804,256.83 335.5,257C 336.858,257.934 338.192,258.768 339.5,259.5C 322.149,258.142 304.816,256.642 287.5,255C 291.688,254.824 295.688,254.324 299.5,253.5C 300.167,253.167 300.833,252.833 301.5,252.5 Z"/></g>
<g><path style="opacity:1" fill="#36ac88" d="M 183.5,252.5 C 185.717,253.369 188.05,253.702 190.5,253.5C 191.167,253.5 191.833,253.5 192.5,253.5C 197.316,254.326 202.316,254.826 207.5,255C 197.444,255.346 187.444,256.179 177.5,257.5C 178.568,256.566 179.901,256.232 181.5,256.5C 181.5,255.5 181.5,254.5 181.5,253.5C 182.492,253.672 183.158,253.338 183.5,252.5 Z"/></g>
<g><path style="opacity:1" fill="#339295" d="M 192.5,253.5 C 200.833,253.5 209.167,253.5 217.5,253.5C 233.167,254.833 248.833,254.833 264.5,253.5C 276.167,253.5 287.833,253.5 299.5,253.5C 295.688,254.324 291.688,254.824 287.5,255C 304.816,256.642 322.149,258.142 339.5,259.5C 348.713,261.459 358.047,262.625 367.5,263C 368.737,263.232 369.737,263.732 370.5,264.5C 380.024,266.999 389.691,269.333 399.5,271.5C 401.703,273.1 404.036,274.433 406.5,275.5C 405.833,275.5 405.5,275.833 405.5,276.5C 367.133,264.287 327.8,257.787 287.5,257C 230.271,253.618 173.605,257.451 117.5,268.5C 115.5,268.5 113.5,268.5 111.5,268.5C 120.038,266.385 128.705,264.218 137.5,262C 150.342,260.81 163.009,259.31 175.5,257.5C 176.167,257.5 176.833,257.5 177.5,257.5C 187.444,256.179 197.444,255.346 207.5,255C 202.316,254.826 197.316,254.326 192.5,253.5 Z"/></g>
<g><path style="opacity:1" fill="#fdfefe" d="M 405.5,276.5 C 416.507,280.247 425.674,286.58 433,295.5C 434.128,297.345 434.628,299.345 434.5,301.5C 434.83,319.341 434.497,337.008 433.5,354.5C 426.984,346.228 418.65,340.394 408.5,337C 400.485,333.842 392.485,331.008 384.5,328.5C 384.389,327.883 384.056,327.383 383.5,327C 364.313,323.302 344.98,320.136 325.5,317.5C 324.441,316.304 323.107,315.637 321.5,315.5C 317.03,316.108 312.53,316.441 308,316.5C 274.531,314.515 241.031,314.015 207.5,315C 204.964,315.186 202.631,315.686 200.5,316.5C 174.096,318.257 148.096,321.924 122.5,327.5C 105.381,330.279 89.3813,336.112 74.5,345C 70.6667,347.5 67.5,350.667 65,354.5C 64.5001,336.17 64.3334,317.836 64.5,299.5C 67.5374,292.292 72.5374,286.792 79.5,283C 91.7805,276.856 104.447,272.022 117.5,268.5C 173.605,257.451 230.271,253.618 287.5,257C 327.8,257.787 367.133,264.287 405.5,276.5 Z"/></g>
<g><path style="opacity:1" fill="#14bb73" d="M 103.5,249.5 C 102.578,254.472 102.412,259.472 103,264.5C 103.308,263.692 103.808,263.025 104.5,262.5C 106.071,263.309 107.738,263.643 109.5,263.5C 109.201,261.396 109.534,259.396 110.5,257.5C 112.228,262.382 115.728,264.715 121,264.5C 138.929,261.059 157.095,258.726 175.5,257.5C 163.009,259.31 150.342,260.81 137.5,262C 128.705,264.218 120.038,266.385 111.5,268.5C 108.417,270.025 105.084,271.025 101.5,271.5C 100.235,270.486 99.5687,268.986 99.5,267C 100.426,260.946 101.759,255.112 103.5,249.5 Z"/></g>
<g><path style="opacity:1" fill="#1bb877" d="M 391.5,235.5 C 392.117,235.611 392.617,235.944 393,236.5C 396.644,247.872 398.811,259.539 399.5,271.5C 389.691,269.333 380.024,266.999 370.5,264.5C 377.594,264.502 384.594,265.335 391.5,267C 393.388,268.699 395.388,269.199 397.5,268.5C 395.966,266.698 395.632,264.865 396.5,263C 395.753,258.539 395.253,254.039 395,249.5C 392.962,245.104 391.795,240.438 391.5,235.5 Z"/></g>
<g><path style="opacity:1" fill="#01be62" d="M 294.5,319.5 C 300.245,319.959 305.911,321.125 311.5,323C 315.421,323.203 319.255,323.703 323,324.5C 323.333,324.167 323.667,323.833 324,323.5C 328.486,324.914 331.653,327.247 333.5,330.5C 335.869,328.268 338.536,327.935 341.5,329.5C 344.584,328.793 347.584,327.793 350.5,326.5C 352.444,327.189 354.444,327.689 356.5,328C 357.818,328.694 358.651,329.527 359,330.5C 361.166,329.25 363.499,328.584 366,328.5C 368.761,329.418 371.594,330.084 374.5,330.5C 374.5,333.5 374.5,336.5 374.5,339.5C 369.633,345.728 363.633,350.562 356.5,354C 355.5,355.667 354.167,357 352.5,358C 342.277,361.777 332.277,366.111 322.5,371C 320.5,371.333 318.5,371.667 316.5,372C 313.308,375.095 309.641,377.428 305.5,379C 295.331,383.036 285.331,387.369 275.5,392C 266.288,397.212 258.288,403.878 251.5,412C 246.482,410.96 242.482,408.126 239.5,403.5C 238.375,401.871 237.041,400.371 235.5,399C 228.146,394.302 220.813,389.636 213.5,385C 212.207,384.51 210.873,384.343 209.5,384.5C 208.391,384.443 207.391,384.11 206.5,383.5C 204.058,382.281 201.724,380.781 199.5,379C 186.636,373.545 173.636,368.212 160.5,363C 157.059,359.777 153.059,357.944 148.5,357.5C 142.918,354.589 137.585,351.256 132.5,347.5C 131.972,346.279 131.305,345.113 130.5,344C 124.367,341.46 122.367,336.96 124.5,330.5C 128.807,329.196 133.141,328.029 137.5,327C 157.155,324.841 176.821,322.507 196.5,320C 229.16,318.222 261.827,318.056 294.5,319.5 Z"/></g>
<g><path style="opacity:1" fill="#1fb988" d="M 294.5,319.5 C 261.827,318.056 229.16,318.222 196.5,320C 176.821,322.507 157.155,324.841 137.5,327C 133.141,328.029 128.807,329.196 124.5,330.5C 122.367,336.96 124.367,341.46 130.5,344C 131.305,345.113 131.972,346.279 132.5,347.5C 127.785,345.661 124.119,342.661 121.5,338.5C 121.253,335.061 121.586,331.728 122.5,328.5C 179.537,317.684 236.87,314.684 294.5,319.5 Z"/></g>
<g><path style="opacity:1" fill="#f9fdfd" d="M 45.5,319.5 C 50.7778,320.755 56.1112,321.755 61.5,322.5C 61.1706,337.676 61.5039,352.676 62.5,367.5C 63.2386,372.399 66.0719,374.399 71,373.5C 74.5517,373.359 78.0517,372.859 81.5,372C 91.0565,368.056 100.723,364.389 110.5,361C 119.521,360.131 122.021,363.964 118,372.5C 115.125,375.463 111.625,377.296 107.5,378C 93.5305,379.832 79.5305,379.999 65.5,378.5C 56.4596,378.252 47.4596,378.585 38.5,379.5C 37.1721,359.996 37.1721,340.329 38.5,320.5C 40.7466,319.626 43.0799,319.292 45.5,319.5 Z"/></g>
<g><path style="opacity:1" fill="#2e9a9f" d="M 319.5,319.5 C 311.167,319.5 302.833,319.5 294.5,319.5C 236.87,314.684 179.537,317.684 122.5,328.5C 122.5,328.167 122.5,327.833 122.5,327.5C 148.096,321.924 174.096,318.257 200.5,316.5C 222.157,315.484 243.824,315.318 265.5,316C 283.727,316.036 301.727,317.203 319.5,319.5 Z"/></g>
<g><path style="opacity:1" fill="#d9f8fa" d="M 384.5,328.5 C 382.139,328.326 379.806,327.993 377.5,327.5C 358.383,323.36 339.05,320.694 319.5,319.5C 301.727,317.203 283.727,316.036 265.5,316C 243.824,315.318 222.157,315.484 200.5,316.5C 202.631,315.686 204.964,315.186 207.5,315C 241.031,314.015 274.531,314.515 308,316.5C 312.53,316.441 317.03,316.108 321.5,315.5C 323.107,315.637 324.441,316.304 325.5,317.5C 344.98,320.136 364.313,323.302 383.5,327C 384.056,327.383 384.389,327.883 384.5,328.5 Z"/></g>
<g><path style="opacity:1" fill="#0fbb71" d="M 294.5,319.5 C 302.833,319.5 311.167,319.5 319.5,319.5C 338.707,322.087 358.041,325.421 377.5,329.5C 377.5,332.167 377.5,334.833 377.5,337.5C 376.222,337.782 375.222,338.449 374.5,339.5C 374.5,336.5 374.5,333.5 374.5,330.5C 371.594,330.084 368.761,329.418 366,328.5C 363.499,328.584 361.166,329.25 359,330.5C 358.651,329.527 357.818,328.694 356.5,328C 354.444,327.689 352.444,327.189 350.5,326.5C 347.584,327.793 344.584,328.793 341.5,329.5C 338.536,327.935 335.869,328.268 333.5,330.5C 331.653,327.247 328.486,324.914 324,323.5C 323.667,323.833 323.333,324.167 323,324.5C 319.255,323.703 315.421,323.203 311.5,323C 305.911,321.125 300.245,319.959 294.5,319.5 Z"/></g>
<g><path style="opacity:1" fill="#259b99" d="M 319.5,319.5 C 339.05,320.694 358.383,323.36 377.5,327.5C 377.5,328.167 377.5,328.833 377.5,329.5C 358.041,325.421 338.707,322.087 319.5,319.5 Z"/></g>
<g><path style="opacity:1" fill="#89c5d0" d="M 434.5,301.5 C 435.662,319.662 435.829,337.995 435,356.5C 434.283,355.956 433.783,355.289 433.5,354.5C 434.497,337.008 434.83,319.341 434.5,301.5 Z"/></g>
<g><path style="opacity:1" fill="#b4f8fe" d="M 45.5,319.5 C 43.0799,319.292 40.7466,319.626 38.5,320.5C 37.1721,340.329 37.1721,359.996 38.5,379.5C 38.2172,380.289 37.7172,380.956 37,381.5C 36.3333,360.833 36.3333,340.167 37,319.5C 39.9365,318.183 42.7699,318.183 45.5,319.5 Z"/></g>
<g><path style="opacity:0.808" fill="#348ea0" d="M 111.5,268.5 C 113.5,268.5 115.5,268.5 117.5,268.5C 104.447,272.022 91.7805,276.856 79.5,283C 72.5374,286.792 67.5374,292.292 64.5,299.5C 63.1735,319.706 63.1735,340.039 64.5,360.5C 63.9329,362.982 63.2663,365.316 62.5,367.5C 61.5039,352.676 61.1706,337.676 61.5,322.5C 56.1112,321.755 50.7778,320.755 45.5,319.5C 42.7699,318.183 39.9365,318.183 37,319.5C 36.3333,340.167 36.3333,360.833 37,381.5C 37.7172,380.956 38.2172,380.289 38.5,379.5C 47.4596,378.585 56.4596,378.252 65.5,378.5C 65.5,379.167 65.5,379.833 65.5,380.5C 64.2057,382.048 63.5391,384.048 63.5,386.5C 63.5391,388.952 64.2057,390.952 65.5,392.5C 66.791,392.263 67.791,392.596 68.5,393.5C 59.6146,395.648 50.6146,396.481 41.5,396C 38,395.167 35.8333,393 35,389.5C 34.5001,377.838 34.3335,366.171 34.5,354.5C 27.6471,353.697 20.8138,352.697 14,351.5C 12.5,351.833 11,352.167 9.5,352.5C 14.0884,360.676 18.4218,369.009 22.5,377.5C 18.1667,385.5 13.8333,393.5 9.5,401.5C 9.83333,401.833 10.1667,402.167 10.5,402.5C 31.3227,411.213 52.9894,414.38 75.5,412C 86.3842,411.614 92.0509,406.114 92.5,395.5C 93.6448,394.207 93.3115,393.041 91.5,392C 93.0663,389.07 93.8996,385.903 94,382.5C 94.3826,383.056 94.8826,383.389 95.5,383.5C 95.666,388.844 95.4994,394.177 95,399.5C 94.3932,406.106 90.8932,410.273 84.5,412C 58.3571,417.487 33.0237,414.82 8.5,404C 7.42378,402.274 7.25711,400.441 8,398.5C 12.4769,391.715 16.3102,384.548 19.5,377C 16.0575,369.281 12.2241,361.781 8,354.5C 6.8611,350.189 8.52776,348.189 13,348.5C 20.1068,349.99 27.2735,350.99 34.5,351.5C 34.3335,340.162 34.5001,328.828 35,317.5C 36.9063,316.869 38.9063,316.536 41,316.5C 47.8076,317.695 54.641,318.695 61.5,319.5C 61.3337,312.492 61.5004,305.492 62,298.5C 63.7084,293.588 66.5417,289.421 70.5,286C 75.3656,282.066 80.699,278.9 86.5,276.5C 86.4346,276.938 86.6012,277.272 87,277.5C 87.5,275.667 88.6667,274.5 90.5,274C 94.4302,273.758 98.0968,272.925 101.5,271.5C 105.084,271.025 108.417,270.025 111.5,268.5 Z"/></g>
<g><path style="opacity:1" fill="#f6fdfd" d="M 68.5,393.5 C 75.8003,391.224 83.1337,391.057 90.5,393C 91.0659,393.995 91.7326,394.828 92.5,395.5C 92.0509,406.114 86.3842,411.614 75.5,412C 52.9894,414.38 31.3227,411.213 10.5,402.5C 10.1667,402.167 9.83333,401.833 9.5,401.5C 13.8333,393.5 18.1667,385.5 22.5,377.5C 18.4218,369.009 14.0884,360.676 9.5,352.5C 11,352.167 12.5,351.833 14,351.5C 20.8138,352.697 27.6471,353.697 34.5,354.5C 34.3335,366.171 34.5001,377.838 35,389.5C 35.8333,393 38,395.167 41.5,396C 50.6146,396.481 59.6146,395.648 68.5,393.5 Z"/></g>
<g><path style="opacity:1" fill="#6aa6a3" d="M 377.5,337.5 C 377.823,344.022 377.49,350.355 376.5,356.5C 376.565,356.062 376.399,355.728 376,355.5C 364.412,364.383 351.912,371.883 338.5,378C 317.463,386.566 296.797,395.899 276.5,406C 266.418,412.079 259.251,420.579 255,431.5C 251.333,435.5 247.667,435.5 244,431.5C 239.749,420.579 232.582,412.079 222.5,406C 195.833,393.667 169.167,381.333 142.5,369C 135.632,364.738 128.965,360.238 122.5,355.5C 121.511,350.025 121.178,344.358 121.5,338.5C 124.119,342.661 127.785,345.661 132.5,347.5C 137.585,351.256 142.918,354.589 148.5,357.5C 150.336,359.009 152.336,360.509 154.5,362C 165.511,366.439 176.178,371.439 186.5,377C 193.016,379.672 199.682,381.839 206.5,383.5C 207.391,384.11 208.391,384.443 209.5,384.5C 212.866,388.375 217.199,390.875 222.5,392C 223.257,393.512 224.257,394.846 225.5,396C 230.489,398.04 235.156,400.54 239.5,403.5C 242.482,408.126 246.482,410.96 251.5,412C 258.288,403.878 266.288,397.212 275.5,392C 285.331,387.369 295.331,383.036 305.5,379C 309.641,377.428 313.308,375.095 316.5,372C 318.5,371.667 320.5,371.333 322.5,371C 332.277,366.111 342.277,361.777 352.5,358C 354.167,357 355.5,355.667 356.5,354C 363.633,350.562 369.633,345.728 374.5,339.5C 375.222,338.449 376.222,337.782 377.5,337.5 Z"/></g>
<g><path style="opacity:1" fill="#28b378" d="M 148.5,357.5 C 153.059,357.944 157.059,359.777 160.5,363C 173.636,368.212 186.636,373.545 199.5,379C 201.724,380.781 204.058,382.281 206.5,383.5C 199.682,381.839 193.016,379.672 186.5,377C 176.178,371.439 165.511,366.439 154.5,362C 152.336,360.509 150.336,359.009 148.5,357.5 Z"/></g>
<g><path style="opacity:1" fill="#4899a8" d="M 64.5,299.5 C 64.3334,317.836 64.5001,336.17 65,354.5C 67.5,350.667 70.6667,347.5 74.5,345C 89.3813,336.112 105.381,330.279 122.5,327.5C 122.5,327.833 122.5,328.167 122.5,328.5C 121.586,331.728 121.253,335.061 121.5,338.5C 121.178,344.358 121.511,350.025 122.5,355.5C 125.23,366.118 121.896,373.952 112.5,379C 107.292,380.642 101.959,381.642 96.5,382C 95.944,382.383 95.6107,382.883 95.5,383.5C 94.8826,383.389 94.3826,383.056 94,382.5C 93.8996,385.903 93.0663,389.07 91.5,392C 93.3115,393.041 93.6448,394.207 92.5,395.5C 91.7326,394.828 91.0659,393.995 90.5,393C 83.1337,391.057 75.8003,391.224 68.5,393.5C 67.791,392.596 66.791,392.263 65.5,392.5C 65.5,388.5 65.5,384.5 65.5,380.5C 65.5,379.833 65.5,379.167 65.5,378.5C 79.5305,379.999 93.5305,379.832 107.5,378C 111.625,377.296 115.125,375.463 118,372.5C 122.021,363.964 119.521,360.131 110.5,361C 100.723,364.389 91.0565,368.056 81.5,372C 78.0517,372.859 74.5517,373.359 71,373.5C 66.0719,374.399 63.2386,372.399 62.5,367.5C 63.2663,365.316 63.9329,362.982 64.5,360.5C 63.1735,340.039 63.1735,319.706 64.5,299.5 Z"/></g>
<g><path style="opacity:1" fill="#aad8e0" d="M 76.5,345.5 C 77.8248,349.276 78.4915,353.443 78.5,358C 78.3333,362.167 78.1667,366.333 78,370.5C 75.2809,371.444 72.4475,371.777 69.5,371.5C 69.3337,364.825 69.5004,358.158 70,351.5C 72.3353,349.6 74.502,347.6 76.5,345.5 Z"/></g>
<g><path style="opacity:1" fill="#c8fefe" d="M 67.5,354.5 C 68.8157,360.013 68.8157,365.68 67.5,371.5C 66.2149,365.78 66.2149,360.113 67.5,354.5 Z"/></g>
<g><path style="opacity:1" fill="#dcf6f8" d="M 86.5,340.5 C 87.8218,349.342 87.8218,358.342 86.5,367.5C 85.1968,358.441 85.1968,349.441 86.5,340.5 Z"/></g>
<g><path style="opacity:1" fill="#aadfe7" d="M 92.5,337.5 C 93.8261,341.614 94.4927,346.114 94.5,351C 94.3333,355.5 94.1667,360 94,364.5C 92.4157,365.861 90.5824,366.528 88.5,366.5C 88.5,357.5 88.5,348.5 88.5,339.5C 90.3797,339.771 91.713,339.104 92.5,337.5 Z"/></g>
<g><path style="opacity:1" fill="#d4f0f4" d="M 95.5,336.5 C 96.8261,340.614 97.4927,345.114 97.5,350C 97.1667,354.5 96.8333,359 96.5,363.5C 95.5018,354.525 95.1685,345.525 95.5,336.5 Z"/></g>
<g><path style="opacity:1" fill="#e8fcfe" d="M 80.5,343.5 C 81.8214,352.009 81.8214,360.675 80.5,369.5C 79.198,360.774 79.198,352.108 80.5,343.5 Z"/></g>
<g><path style="opacity:1" fill="#c8fffe" d="M 82.5,342.5 C 83.8255,346.445 84.4921,350.778 84.5,355.5C 84.1667,359.833 83.8333,364.167 83.5,368.5C 82.502,359.859 82.1686,351.192 82.5,342.5 Z"/></g>
<g><path style="opacity:1" fill="#e9fefe" d="M 101.5,334.5 C 102.826,338.614 103.493,343.114 103.5,348C 103.167,352.5 102.833,357 102.5,361.5C 101.502,352.525 101.168,343.525 101.5,334.5 Z"/></g>
<g><path style="opacity:1" fill="#c9fefe" d="M 98.5,335.5 C 99.8261,339.614 100.493,344.114 100.5,349C 100.167,353.5 99.8333,358 99.5,362.5C 98.5018,353.525 98.1685,344.525 98.5,335.5 Z"/></g>
<g><path style="opacity:1" fill="#a6d9e1" d="M 117.5,358.5 C 117.5,358.833 117.5,359.167 117.5,359.5C 114.167,359.5 110.833,359.5 107.5,359.5C 107.334,350.827 107.5,342.16 108,333.5C 109.699,332.594 111.533,332.261 113.5,332.5C 113.334,340.84 113.5,349.173 114,357.5C 114.168,348.814 114.668,340.148 115.5,331.5C 116.167,340.658 116.833,349.658 117.5,358.5 Z"/></g>
<g><path style="opacity:1" fill="#e8fefe" d="M 117.5,359.5 C 117.5,359.167 117.5,358.833 117.5,358.5C 117.168,349.143 117.502,339.81 118.5,330.5C 118.833,335.333 119.167,340.167 119.5,345C 119.494,350.216 118.827,355.049 117.5,359.5 Z"/></g>
<g><path style="opacity:1" fill="#b9f9fe" d="M 105.5,333.5 C 106.822,342.342 106.822,351.342 105.5,360.5C 104.197,351.441 104.197,342.441 105.5,333.5 Z"/></g>
<g><path style="opacity:1" fill="#3b92a3" d="M 405.5,276.5 C 405.5,275.833 405.833,275.5 406.5,275.5C 408.921,275.878 411.254,276.545 413.5,277.5C 432.577,284.652 440.577,298.319 437.5,318.5C 442.588,318.249 447.588,317.416 452.5,316C 456.167,315.333 459.833,315.333 463.5,316C 464.71,318.677 465.377,321.51 465.5,324.5C 464.474,332.709 464.474,341.043 465.5,349.5C 466.5,349.833 467.5,350.167 468.5,350.5C 474.305,349.338 480.139,348.338 486,347.5C 490.472,347.189 492.139,349.189 491,353.5C 486.637,360.893 482.804,368.56 479.5,376.5C 483.061,383.954 486.894,391.288 491,398.5C 491.72,400.112 491.554,401.612 490.5,403C 464.897,414.358 438.564,416.691 411.5,410C 408.667,408.5 406.5,406.333 405,403.5C 403.818,396.229 403.151,388.896 403,381.5C 395.089,380.849 387.589,378.682 380.5,375C 376.898,369.422 375.565,363.255 376.5,356.5C 377.49,350.355 377.823,344.022 377.5,337.5C 377.5,334.833 377.5,332.167 377.5,329.5C 377.5,328.833 377.5,328.167 377.5,327.5C 379.806,327.993 382.139,328.326 384.5,328.5C 392.485,331.008 400.485,333.842 408.5,337C 418.65,340.394 426.984,346.228 433.5,354.5C 433.783,355.289 434.283,355.956 435,356.5C 435.829,337.995 435.662,319.662 434.5,301.5C 434.628,299.345 434.128,297.345 433,295.5C 425.674,286.58 416.507,280.247 405.5,276.5 Z"/></g>
<g><path style="opacity:1" fill="#aee2e8" d="M 431.5,389.5 C 431.5,386.167 431.5,382.833 431.5,379.5C 439.576,378.067 447.576,378.233 455.5,380C 456.467,384.401 456.8,388.901 456.5,393.5C 454.5,393.5 452.5,393.5 450.5,393.5C 450.495,374.881 449.828,374.881 448.5,393.5C 447.672,388.868 447.172,384.202 447,379.5C 446,398.167 445,398.167 444,379.5C 443,396.833 442,396.833 441,379.5C 440,396.833 439,396.833 438,379.5C 437.501,383.486 437.334,387.486 437.5,391.5C 434.99,391.946 432.99,391.28 431.5,389.5 Z"/></g>
<g><path style="opacity:1" fill="#8cc9d2" d="M 431.5,377.5 C 431.5,378.167 431.5,378.833 431.5,379.5C 431.5,382.833 431.5,386.167 431.5,389.5C 430.85,389.804 430.183,390.137 429.5,390.5C 428.833,387.023 428.166,383.689 427.5,380.5C 426.833,379.167 426.167,379.167 425.5,380.5C 424.523,383.287 424.19,386.287 424.5,389.5C 419.483,388.352 414.483,388.352 409.5,389.5C 409.183,386.428 409.516,383.428 410.5,380.5C 412.982,379.933 415.316,379.266 417.5,378.5C 422.07,377.559 426.737,377.226 431.5,377.5 Z"/></g>
<g><path style="opacity:1" fill="#d4f8fc" d="M 431.5,377.5 C 426.737,377.226 422.07,377.559 417.5,378.5C 409.981,378.825 402.648,378.492 395.5,377.5C 411.663,376.845 427.83,376.178 444,375.5C 449.475,375.399 454.809,376.066 460,377.5C 460.667,358.167 460.667,338.833 460,319.5C 456.651,319.254 453.151,319.254 449.5,319.5C 453.468,317.486 457.635,317.152 462,318.5C 462.667,339.167 462.667,359.833 462,380.5C 460.352,379.283 458.519,378.45 456.5,378C 448.173,377.5 439.84,377.334 431.5,377.5 Z"/></g>
<g><path style="opacity:1" fill="#bcfdfe" d="M 428.5,351.5 C 429.117,351.611 429.617,351.944 430,352.5C 430.831,358.859 430.664,365.193 429.5,371.5C 428.503,364.866 428.17,358.2 428.5,351.5 Z"/></g>
<g><path style="opacity:1" fill="#ecfefe" d="M 425.5,349.5 C 426.117,349.611 426.617,349.944 427,350.5C 427.831,357.524 427.664,364.524 426.5,371.5C 425.503,364.197 425.169,356.863 425.5,349.5 Z"/></g>
<g><path style="opacity:1" fill="#c3fefe" d="M 422.5,346.5 C 423.117,346.611 423.617,346.944 424,347.5C 424.831,355.188 424.665,362.855 423.5,370.5C 422.502,362.528 422.169,354.528 422.5,346.5 Z"/></g>
<g><path style="opacity:1" fill="#e6fcfe" d="M 409.5,339.5 C 410.117,339.611 410.617,339.944 411,340.5C 411.832,349.186 411.665,357.853 410.5,366.5C 409.502,357.525 409.168,348.525 409.5,339.5 Z"/></g>
<g><path style="opacity:1" fill="#f5fcfc" d="M 478.5,350.5 C 482.182,350.335 485.848,350.501 489.5,351C 485.039,359.422 480.706,367.922 476.5,376.5C 480.833,384.5 485.167,392.5 489.5,400.5C 466.51,410.778 442.51,413.945 417.5,410C 407.775,407.093 404.775,401.093 408.5,392C 410.534,390.994 412.7,390.494 415,390.5C 423.957,391.281 432.79,392.781 441.5,395C 446.833,395.667 452.167,395.667 457.5,395C 458.308,394.692 458.975,394.192 459.5,393.5C 457.317,389.372 456.984,385.039 458.5,380.5C 459.321,383.447 459.821,386.447 460,389.5C 460.333,387.167 460.667,384.833 461,382.5C 461.333,382.833 461.667,383.167 462,383.5C 461.872,386.486 461.872,389.486 462,392.5C 462.862,390.913 463.529,389.246 464,387.5C 464.5,376.172 464.667,364.838 464.5,353.5C 469.431,353.144 474.098,352.144 478.5,350.5 Z"/></g>
<g><path style="opacity:1" fill="#9cd0d9" d="M 412.5,341.5 C 415.466,342.398 418.3,343.731 421,345.5C 421.832,353.853 421.665,362.187 420.5,370.5C 417.943,369.593 415.443,368.593 413,367.5C 412.5,358.84 412.334,350.173 412.5,341.5 Z"/></g>
<g><path style="opacity:1" fill="#a8d6de" d="M 393.5,334.5 C 395.308,342.44 396.141,350.773 396,359.5C 396.5,351.507 396.666,343.507 396.5,335.5C 398.262,335.357 399.929,335.691 401.5,336.5C 402.498,345.141 402.831,353.808 402.5,362.5C 399.421,362.196 396.587,361.196 394,359.5C 393.5,351.173 393.334,342.84 393.5,334.5 Z"/></g>
<g><path style="opacity:1" fill="#8cd7e2" d="M 387.5,357.5 C 387.5,357.833 387.5,358.167 387.5,358.5C 384.552,358.223 381.719,358.556 379,359.5C 378.5,349.839 378.334,340.172 378.5,330.5C 381.206,330.575 383.873,330.908 386.5,331.5C 386.174,340.349 386.507,349.016 387.5,357.5 Z"/></g>
<g><path style="opacity:1" fill="#dffafb" d="M 403.5,337.5 C 404.826,341.614 405.493,346.114 405.5,351C 405.333,355.5 405.167,360 405,364.5C 403.53,355.668 403.03,346.668 403.5,337.5 Z"/></g>
<g><path style="opacity:1" fill="#c7fdfe" d="M 406.5,338.5 C 407.826,342.614 408.493,347.114 408.5,352C 408.167,356.5 407.833,361 407.5,365.5C 406.502,356.525 406.168,347.525 406.5,338.5 Z"/></g>
<g><path style="opacity:1" fill="#c9fefe" d="M 390.5,333.5 C 391.825,337.445 392.492,341.778 392.5,346.5C 392.167,350.833 391.833,355.167 391.5,359.5C 390.502,350.859 390.169,342.192 390.5,333.5 Z"/></g>
<g><path style="opacity:1" fill="#eefefe" d="M 387.5,358.5 C 387.5,358.167 387.5,357.833 387.5,357.5C 387.169,349.14 387.502,340.807 388.5,332.5C 388.833,336.833 389.167,341.167 389.5,345.5C 389.492,350.222 388.825,354.555 387.5,358.5 Z"/></g>
<g><path style="opacity:1" fill="#fbfefd" d="M 395.5,377.5 C 389.941,377.15 385.108,375.15 381,371.5C 379.517,368.298 379.183,364.964 380,361.5C 381.126,360.056 382.626,359.39 384.5,359.5C 397.258,363.697 409.924,368.197 422.5,373C 426.866,373.886 431.033,373.386 435,371.5C 435.667,370.167 436.333,368.833 437,367.5C 437.5,352.17 437.667,336.837 437.5,321.5C 441.538,321.042 445.538,320.376 449.5,319.5C 453.151,319.254 456.651,319.254 460,319.5C 460.667,338.833 460.667,358.167 460,377.5C 454.809,376.066 449.475,375.399 444,375.5C 427.83,376.178 411.663,376.845 395.5,377.5 Z"/></g>
<g><path style="opacity:1" fill="#ecfcfe" d="M 427.5,380.5 C 426.833,392.5 426.167,392.5 425.5,380.5C 426.167,379.167 426.833,379.167 427.5,380.5 Z"/></g>
<g><path style="opacity:1" fill="#e6fefe" d="M 47.5,380.5 C 48.8048,382.397 49.4714,384.731 49.5,387.5C 49.1667,389.833 48.8333,392.167 48.5,394.5C 47.5067,389.88 47.1734,385.214 47.5,380.5 Z"/></g>
<g><path style="opacity:1" fill="#d9f7fa" d="M 85.5,381.5 C 86.7479,382.334 87.4146,383.667 87.5,385.5C 87.1667,386.833 86.8333,388.167 86.5,389.5C 85.52,386.914 85.1866,384.247 85.5,381.5 Z"/></g>
<g><path style="opacity:1" fill="#c5fefe" d="M 406.5,380.5 C 407.777,381.694 408.444,383.36 408.5,385.5C 408.167,387.167 407.833,388.833 407.5,390.5C 406.513,387.232 406.18,383.898 406.5,380.5 Z"/></g>
<g><path style="opacity:1" fill="#c9fffe" d="M 82.5,381.5 C 83.7479,382.334 84.4146,383.667 84.5,385.5C 84.1667,386.833 83.8333,388.167 83.5,389.5C 82.52,386.914 82.1866,384.247 82.5,381.5 Z"/></g>
<g><path style="opacity:1" fill="#c9fffe" d="M 44.5,380.5 C 45.8048,382.397 46.4714,384.731 46.5,387.5C 46.1667,389.833 45.8333,392.167 45.5,394.5C 44.5067,389.88 44.1734,385.214 44.5,380.5 Z"/></g>
<g><path style="opacity:1" fill="#a3dae1" d="M 50.5,379.5 C 54.1817,379.335 57.8484,379.501 61.5,380C 62.7977,384.118 62.7977,388.285 61.5,392.5C 60.6735,388.541 60.1735,384.541 60,380.5C 59.8275,384.871 59.3275,389.204 58.5,393.5C 55.9159,394.393 53.2492,394.726 50.5,394.5C 50.5,389.5 50.5,384.5 50.5,379.5 Z"/></g>
<g><path style="opacity:1" fill="#92d0db" d="M 40.5,380.5 C 41.5,380.5 42.5,380.5 43.5,380.5C 43.8266,385.214 43.4933,389.88 42.5,394.5C 37.4776,392.455 35.6443,388.789 37,383.5C 38.5185,382.837 39.6851,381.837 40.5,380.5 Z"/></g>
<g><path style="opacity:1" fill="#c9fffe" d="M 66.5,380.5 C 67.7868,381.871 68.4535,383.705 68.5,386C 68.1667,387.833 67.8333,389.667 67.5,391.5C 66.5108,387.893 66.1774,384.226 66.5,380.5 Z"/></g>
<g><path style="opacity:1" fill="#e6fdfe" d="M 79.5,381.5 C 80.7479,382.334 81.4146,383.667 81.5,385.5C 81.1667,386.833 80.8333,388.167 80.5,389.5C 79.52,386.914 79.1866,384.247 79.5,381.5 Z"/></g>
<g><path style="opacity:1" fill="#e8feff" d="M 65.5,380.5 C 65.5,384.5 65.5,388.5 65.5,392.5C 64.2057,390.952 63.5391,388.952 63.5,386.5C 63.5391,384.048 64.2057,382.048 65.5,380.5 Z"/></g>
<g><path style="opacity:1" fill="#a0d6e0" d="M 69.5,380.5 C 72.5448,380.508 75.5448,380.841 78.5,381.5C 78.5,384.5 78.5,387.5 78.5,390.5C 75.4552,390.508 72.4552,390.841 69.5,391.5C 69.5,387.833 69.5,384.167 69.5,380.5 Z"/></g>
<g><path style="opacity:1" fill="#38b383" d="M 209.5,384.5 C 210.873,384.343 212.207,384.51 213.5,385C 220.813,389.636 228.146,394.302 235.5,399C 237.041,400.371 238.375,401.871 239.5,403.5C 235.156,400.54 230.489,398.04 225.5,396C 224.257,394.846 223.257,393.512 222.5,392C 217.199,390.875 212.866,388.375 209.5,384.5 Z"/></g>
</svg>
