<?xml version="1.0" encoding="UTF-8"?>
<!DOCTYPE svg PUBLIC "-//W3C//DTD SVG 1.1//EN" "http://www.w3.org/Graphics/SVG/1.1/DTD/svg11.dtd">
<svg xmlns="http://www.w3.org/2000/svg" version="1.1" width="500px" height="500px" style="shape-rendering:geometricPrecision; text-rendering:geometricPrecision; image-rendering:optimizeQuality; fill-rule:evenodd; clip-rule:evenodd" xmlns:xlink="http://www.w3.org/1999/xlink">
<g><path style="opacity:1" fill="#2e1b37" d="M 272.5,31.5 C 254.489,31.3783 236.489,31.7117 218.5,32.5C 228.617,30.9472 238.951,30.2805 249.5,30.5C 257.341,30.5003 265.007,30.8336 272.5,31.5 Z"/></g>
<g><path style="opacity:1" fill="#f7f6f2" d="M 334.5,53.5 C 332.116,53.4433 329.782,53.7766 327.5,54.5C 325.098,52.951 322.432,52.2843 319.5,52.5C 296.634,45.9515 273.301,42.2849 249.5,41.5C 249.5,50.8333 249.5,60.1667 249.5,69.5C 249.167,69.5 248.833,69.5 248.5,69.5C 248.5,60.1667 248.5,50.8333 248.5,41.5C 242.642,41.1778 236.975,41.5111 231.5,42.5C 219.798,43.12 208.465,45.12 197.5,48.5C 134.157,66.3378 88.3237,105.005 60,164.5C 51.7155,182.305 46.5488,200.971 44.5,220.5C 42.9844,228.78 42.3177,237.28 42.5,246C 42.3177,254.72 42.9844,263.22 44.5,271.5C 46.5176,293.873 52.1843,315.206 61.5,335.5C 63.8357,341.671 66.8357,347.505 70.5,353C 73.1715,352.571 75.8381,351.737 78.5,350.5C 75.7225,354.559 72.0558,355.392 67.5,353C 66.8514,350.519 65.8514,350.186 64.5,352C 65.3567,352.689 66.0233,353.522 66.5,354.5C 65.4104,355.609 65.4104,356.609 66.5,357.5C 69.737,359.015 72.737,358.681 75.5,356.5C 79.8103,358.358 80.1436,359.025 76.5,358.5C 74.3855,359.034 72.5522,360.034 71,361.5C 69.6439,360.62 68.1439,360.286 66.5,360.5C 36.1361,308.913 27.9695,253.913 42,195.5C 63.6576,122.508 110.158,72.6751 181.5,46C 226.518,32.0009 271.518,32.0009 316.5,46C 322.803,48.0377 328.803,50.5377 334.5,53.5 Z"/></g>
<g><path style="opacity:1" fill="#5ee0e4" d="M 319.5,52.5 C 386.941,79.1201 430.774,127.12 451,196.5C 460.024,233.628 459.524,270.628 449.5,307.5C 444.042,323.245 437.375,338.411 429.5,353C 428.167,353.667 426.833,353.667 425.5,353C 420.334,350.252 415.334,347.252 410.5,344C 408.235,342.882 405.901,342.049 403.5,341.5C 437.35,280.812 437.85,219.812 405,158.5C 369.204,101.337 317.371,71.6708 249.5,69.5C 249.5,60.1667 249.5,50.8333 249.5,41.5C 273.301,42.2849 296.634,45.9515 319.5,52.5 Z"/></g>
<g><path style="opacity:1" fill="#171118" d="M 272.5,31.5 C 356.953,42.808 416.786,87.1413 452,164.5C 458.865,181.627 463.698,199.293 466.5,217.5C 465.081,215.849 463.747,214.016 462.5,212C 463.022,211.439 463.355,210.772 463.5,210C 462.815,207.205 462.315,204.372 462,201.5C 461.333,200.167 460.667,200.167 460,201.5C 460.331,203.019 460.164,204.352 459.5,205.5C 442.63,134.309 400.963,83.6421 334.5,53.5C 328.803,50.5377 322.803,48.0377 316.5,46C 271.518,32.0009 226.518,32.0009 181.5,46C 110.158,72.6751 63.6576,122.508 42,195.5C 27.9695,253.913 36.1361,308.913 66.5,360.5C 108.155,425.512 167.822,459.846 245.5,463.5C 336.58,461.51 402.747,420.177 444,339.5C 448.402,329.793 451.902,319.793 454.5,309.5C 454.833,309.5 455.167,309.5 455.5,309.5C 455.051,314.106 456.384,315.106 459.5,312.5C 435.421,386.412 386.421,435.579 312.5,460C 301.702,463.26 290.702,465.426 279.5,466.5C 261.844,467.26 244.177,467.594 226.5,467.5C 137.693,455.182 76.5262,407.515 43,324.5C 39.0665,313.765 36.2331,302.765 34.5,291.5C 32.0909,270.294 31.0909,248.961 31.5,227.5C 31.747,220.356 32.747,213.356 34.5,206.5C 36.0395,204.162 36.7062,201.495 36.5,198.5C 57.2537,119.576 106.254,66.7427 183.5,40C 194.944,36.3886 206.61,33.8886 218.5,32.5C 236.489,31.7117 254.489,31.3783 272.5,31.5 Z"/></g>
<g><path style="opacity:1" fill="#d78d5f" d="M 210.5,73.5 C 200.121,76.4032 189.788,79.7366 179.5,83.5C 188.899,77.7617 199.232,74.4283 210.5,73.5 Z"/></g>
<g><path style="opacity:1" fill="#d58e5d" d="M 231.5,42.5 C 236.975,41.5111 242.642,41.1778 248.5,41.5C 248.5,50.8333 248.5,60.1667 248.5,69.5C 235.803,70.1703 223.137,71.5036 210.5,73.5C 216.312,71.413 222.312,69.913 228.5,69C 234.825,68.5005 241.158,68.3338 247.5,68.5C 247.5,59.8333 247.5,51.1667 247.5,42.5C 242.167,42.5 236.833,42.5 231.5,42.5 Z"/></g>
<g><path style="opacity:1" fill="#f09c69" d="M 231.5,42.5 C 231.082,43.2216 230.416,43.7216 229.5,44C 221.861,44.1821 214.528,45.5154 207.5,48C 204.183,48.4983 200.85,48.665 197.5,48.5C 208.465,45.12 219.798,43.12 231.5,42.5 Z"/></g>
<g><path style="opacity:1" fill="#e08c58" d="M 125.5,119.5 C 118.471,127.525 111.471,135.525 104.5,143.5C 104.351,142.448 104.517,141.448 105,140.5C 107.5,137.5 110,134.5 112.5,131.5C 112.023,130.522 111.357,129.689 110.5,129C 112.134,128.506 113.801,128.34 115.5,128.5C 115.421,127.07 115.754,125.736 116.5,124.5C 119.766,123.216 122.766,121.55 125.5,119.5 Z"/></g>
<g><path style="opacity:1" fill="#fd914d" d="M 231.5,42.5 C 236.833,42.5 242.167,42.5 247.5,42.5C 247.5,51.1667 247.5,59.8333 247.5,68.5C 241.158,68.3338 234.825,68.5005 228.5,69C 222.312,69.913 216.312,71.413 210.5,73.5C 199.232,74.4283 188.899,77.7617 179.5,83.5C 159.619,92.721 141.619,104.721 125.5,119.5C 122.766,121.55 119.766,123.216 116.5,124.5C 115.754,125.736 115.421,127.07 115.5,128.5C 113.801,128.34 112.134,128.506 110.5,129C 111.357,129.689 112.023,130.522 112.5,131.5C 110,134.5 107.5,137.5 105,140.5C 104.517,141.448 104.351,142.448 104.5,143.5C 101.448,145.389 98.4477,147.555 95.5,150C 96.3366,151.011 96.67,152.178 96.5,153.5C 95.5,153.5 94.5,153.5 93.5,153.5C 92.9224,158.73 91.589,163.73 89.5,168.5C 87.4032,173.689 85.0698,178.689 82.5,183.5C 79.5929,189.69 76.7595,196.023 74,202.5C 69.904,222.549 68.5707,242.882 70,263.5C 71.1913,274.23 72.6913,284.896 74.5,295.5C 74.3333,297.5 74.1667,299.5 74,301.5C 72.1644,303.131 72.6644,303.798 75.5,303.5C 75.3505,302.448 75.5172,301.448 76,300.5C 76.4162,302.55 77.5829,303.884 79.5,304.5C 79.5,304.833 79.5,305.167 79.5,305.5C 79.804,308.522 80.304,311.522 81,314.5C 82.9078,317.215 84.2411,320.215 85,323.5C 85.7083,324.381 86.5416,325.047 87.5,325.5C 88.1346,328.493 88.3013,331.493 88,334.5C 85.4117,337.253 82.245,338.919 78.5,339.5C 76.7859,338.391 76.1192,339.058 76.5,341.5C 79.5739,341.127 82.5739,340.461 85.5,339.5C 85.5,341.167 85.5,342.833 85.5,344.5C 82.2672,345.609 78.9338,346.442 75.5,347C 74.2986,347.903 73.4652,349.069 73,350.5C 72.3333,349.167 71.6667,349.167 71,350.5C 69.1125,347.22 69.2791,344.053 71.5,341C 71.1667,340.167 70.8333,339.333 70.5,338.5C 69.5713,339.689 69.238,341.022 69.5,342.5C 65.678,341.82 64.0114,339.487 64.5,335.5C 63.5,335.5 62.5,335.5 61.5,335.5C 52.1843,315.206 46.5176,293.873 44.5,271.5C 44.5,254.5 44.5,237.5 44.5,220.5C 46.5488,200.971 51.7155,182.305 60,164.5C 88.3237,105.005 134.157,66.3378 197.5,48.5C 200.85,48.665 204.183,48.4983 207.5,48C 214.528,45.5154 221.861,44.1821 229.5,44C 230.416,43.7216 231.082,43.2216 231.5,42.5 Z"/></g>
<g><path style="opacity:1" fill="#0f0e0e" d="M 248.5,69.5 C 248.833,69.5 249.167,69.5 249.5,69.5C 317.371,71.6708 369.204,101.337 405,158.5C 437.85,219.812 437.35,280.812 403.5,341.5C 368.736,396.232 318.736,425.232 253.5,428.5C 184.887,427.206 132.22,397.873 95.5,340.5C 93.0843,335.333 90.4176,330.333 87.5,325.5C 85.0177,318.712 82.3511,312.045 79.5,305.5C 79.5,305.167 79.5,304.833 79.5,304.5C 66.8695,263.818 67.8695,223.485 82.5,183.5C 85.0698,178.689 87.4032,173.689 89.5,168.5C 94.0354,159.947 99.0354,151.614 104.5,143.5C 111.471,135.525 118.471,127.525 125.5,119.5C 141.619,104.721 159.619,92.721 179.5,83.5C 189.788,79.7366 200.121,76.4032 210.5,73.5C 223.137,71.5036 235.803,70.1703 248.5,69.5 Z"/></g>
<g><path style="opacity:1" fill="#fcfcfc" d="M 232.5,74.5 C 309.387,71.0146 366.887,102.348 405,168.5C 430.73,222.134 430.73,275.801 405,329.5C 367.47,394.361 310.97,425.528 235.5,423C 173.551,415.663 127.051,385.163 96,331.5C 63.2798,263.731 69.2798,199.731 114,139.5C 144.921,102.288 184.421,80.6209 232.5,74.5 Z"/></g>
<g><path style="opacity:1" fill="#df8b57" d="M 104.5,143.5 C 99.0354,151.614 94.0354,159.947 89.5,168.5C 91.589,163.73 92.9224,158.73 93.5,153.5C 94.5,153.5 95.5,153.5 96.5,153.5C 96.67,152.178 96.3366,151.011 95.5,150C 98.4477,147.555 101.448,145.389 104.5,143.5 Z"/></g>
<g><path style="opacity:1" fill="#f2f7f7" d="M 319.5,52.5 C 322.432,52.2843 325.098,52.951 327.5,54.5C 329.782,53.7766 332.116,53.4433 334.5,53.5C 400.963,83.6421 442.63,134.309 459.5,205.5C 465.859,240.472 464.526,275.138 455.5,309.5C 455.167,309.5 454.833,309.5 454.5,309.5C 454.143,307.411 453.477,305.411 452.5,303.5C 451.141,304.624 450.141,305.958 449.5,307.5C 459.524,270.628 460.024,233.628 451,196.5C 430.774,127.12 386.941,79.1201 319.5,52.5 Z"/></g>
<g><path style="opacity:1" fill="#0b080c" d="M 466.5,217.5 C 467.344,221.099 467.677,224.766 467.5,228.5C 467.667,240.171 467.5,251.838 467,263.5C 465.627,272.785 464.794,282.118 464.5,291.5C 464.5,291.833 464.5,292.167 464.5,292.5C 463.069,292.881 462.236,293.881 462,295.5C 460.805,299.751 460.305,304.085 460.5,308.5C 460.567,309.959 460.234,311.292 459.5,312.5C 456.384,315.106 455.051,314.106 455.5,309.5C 464.526,275.138 465.859,240.472 459.5,205.5C 460.164,204.352 460.331,203.019 460,201.5C 460.667,200.167 461.333,200.167 462,201.5C 462.315,204.372 462.815,207.205 463.5,210C 463.355,210.772 463.022,211.439 462.5,212C 463.747,214.016 465.081,215.849 466.5,217.5 Z"/></g>
<g><path style="opacity:0.796" fill="#59366c" d="M 36.5,198.5 C 36.7062,201.495 36.0395,204.162 34.5,206.5C 34.5651,203.572 35.2318,200.905 36.5,198.5 Z"/></g>
<g><path style="opacity:1" fill="#de8e5b" d="M 82.5,183.5 C 67.8695,223.485 66.8695,263.818 79.5,304.5C 77.5829,303.884 76.4162,302.55 76,300.5C 75.5172,301.448 75.3505,302.448 75.5,303.5C 72.6644,303.798 72.1644,303.131 74,301.5C 74.1667,299.5 74.3333,297.5 74.5,295.5C 72.6913,284.896 71.1913,274.23 70,263.5C 68.5707,242.882 69.904,222.549 74,202.5C 76.7595,196.023 79.5929,189.69 82.5,183.5 Z"/></g>
<g><path style="opacity:1" fill="#f09a68" d="M 44.5,220.5 C 44.5,237.5 44.5,254.5 44.5,271.5C 42.9844,263.22 42.3177,254.72 42.5,246C 42.3177,237.28 42.9844,228.78 44.5,220.5 Z"/></g>
<g><path style="opacity:1" fill="#15101a" d="M 335.5,288.5 C 334.5,288.5 333.5,288.5 332.5,288.5C 332.5,291.167 332.5,293.833 332.5,296.5C 332.335,299.518 332.502,302.518 333,305.5C 339.823,313.478 344.823,322.478 348,332.5C 349.184,342.099 347.351,351.099 342.5,359.5C 344.029,361.188 345.863,362.521 348,363.5C 354.749,374.838 351.582,381.671 338.5,384C 329.833,384.333 321.167,384.667 312.5,385C 307.166,390.446 300.666,392.946 293,392.5C 283.596,393.7 275.762,390.866 269.5,384C 268.5,383.833 267.5,383.667 266.5,383.5C 256.167,384.833 245.833,384.833 235.5,383.5C 231.28,384.205 227.947,386.372 225.5,390C 215.929,392.869 206.263,393.202 196.5,391C 192.957,389.392 189.957,387.058 187.5,384C 177.5,383.667 167.5,383.333 157.5,383C 150.506,379.846 148.339,374.679 151,367.5C 153.006,364.328 155.506,361.662 158.5,359.5C 151.222,346.729 150.722,333.729 157,320.5C 161.233,314.523 165.067,308.356 168.5,302C 168.058,294.459 166.724,287.959 164.5,282.5C 164.776,272.509 166.442,262.842 169.5,253.5C 167.954,247.955 167.12,242.288 167,236.5C 165.266,238.451 163.099,239.451 160.5,239.5C 160.135,233.231 161.802,227.564 165.5,222.5C 161.875,219.377 158.375,216.044 155,212.5C 153.589,210.35 152.755,208.016 152.5,205.5C 155.106,206.136 157.606,206.136 160,205.5C 160.074,201.309 160.907,197.309 162.5,193.5C 160.195,193.308 157.862,192.974 155.5,192.5C 156.174,190.483 157.341,188.817 159,187.5C 159.667,186.5 159.667,185.5 159,184.5C 150.032,176.562 145.366,166.562 145,154.5C 142.954,156.376 141.121,158.376 139.5,160.5C 137.593,145.476 142.926,133.642 155.5,125C 153.043,123.846 153.043,122.512 155.5,121C 166.265,115.311 177.432,114.144 189,117.5C 189.617,116.551 189.451,115.718 188.5,115C 189.025,114.308 189.692,113.808 190.5,113.5C 196.473,115.819 201.807,119.153 206.5,123.5C 210.611,121.427 214.945,120.093 219.5,119.5C 221.976,115.19 225.31,111.69 229.5,109C 230.944,108.219 232.277,108.386 233.5,109.5C 232.04,112.029 231.54,114.696 232,117.5C 243.024,107.701 255.857,104.034 270.5,106.5C 269.91,107.799 268.91,108.632 267.5,109C 274.208,109.041 280.541,110.541 286.5,113.5C 287.833,114.167 287.833,114.833 286.5,115.5C 284.339,116.035 282.339,116.868 280.5,118C 283.208,119.069 285.875,120.236 288.5,121.5C 291.35,119.573 294.017,117.406 296.5,115C 299.561,112.965 302.895,111.799 306.5,111.5C 306.703,113.39 306.037,114.89 304.5,116C 318.213,110.754 331.546,111.921 344.5,119.5C 345.731,120.651 345.731,121.817 344.5,123C 355.797,130.423 361.797,140.923 362.5,154.5C 361.448,154.649 360.448,154.483 359.5,154C 357.983,152.315 356.316,150.815 354.5,149.5C 354.016,155.98 352.85,162.313 351,168.5C 347.876,173.951 344.376,179.117 340.5,184C 342.016,186.024 343.349,188.191 344.5,190.5C 344.192,191.308 343.692,191.975 343,192.5C 341.667,191.833 340.333,191.167 339,190.5C 338.833,190.833 338.667,191.167 338.5,191.5C 340.145,195.325 340.812,199.325 340.5,203.5C 343.167,203.167 345.833,202.833 348.5,202.5C 346.248,210.317 341.582,216.317 334.5,220.5C 338.198,225.564 339.865,231.231 339.5,237.5C 336.901,237.451 334.734,236.451 333,234.5C 332.824,240.113 331.991,245.613 330.5,251C 331.973,260.533 333.807,270.033 336,279.5C 336.805,282.696 336.638,285.696 335.5,288.5 Z"/></g>
<g><path style="opacity:1" fill="#bdaea5" d="M 178.5,193.5 C 176.563,199.398 173.896,205.065 170.5,210.5C 171.32,212.111 172.654,212.778 174.5,212.5C 173.508,219.917 175.841,225.917 181.5,230.5C 183.96,241.965 190.293,250.632 200.5,256.5C 201.167,256.167 201.833,255.833 202.5,255.5C 207.84,260.335 214.007,263.668 221,265.5C 222.676,262.919 224.176,262.919 225.5,265.5C 225.062,265.435 224.728,265.601 224.5,266C 228.352,268.412 228.185,269.579 224,269.5C 215.048,267.473 206.548,264.307 198.5,260C 195.628,257.463 193.128,254.63 191,251.5C 190.956,253.76 191.789,255.76 193.5,257.5C 191.477,258.041 189.477,257.541 187.5,256C 182.468,251.307 178.635,245.807 176,239.5C 175.502,241.527 175.669,243.527 176.5,245.5C 175.214,247.29 173.714,248.957 172,250.5C 169.931,243.793 170.097,237.126 172.5,230.5C 171.998,229.479 171.332,229.312 170.5,230C 168.759,231.62 166.925,233.12 165,234.5C 164.855,229.113 166.689,224.446 170.5,220.5C 165.026,218.427 160.692,214.927 157.5,210C 161.377,209.743 165.043,208.743 168.5,207C 169.696,206.346 169.696,205.846 168.5,205.5C 166.929,206.309 165.262,206.643 163.5,206.5C 162.62,200.555 163.954,195.221 167.5,190.5C 170.934,193.09 174.6,194.09 178.5,193.5 Z"/></g>
<g><path style="opacity:1" fill="#cac7dc" d="M 335.5,185.5 C 337.983,185.73 338.483,186.397 337,187.5C 335.97,187.164 335.47,186.497 335.5,185.5 Z"/></g>
<g><path style="opacity:1" fill="#3d1f1a" d="M 189.5,137.5 C 189.768,139.099 189.434,140.432 188.5,141.5C 188.737,140.209 188.404,139.209 187.5,138.5C 186.106,136.292 184.106,134.792 181.5,134C 168.137,132.342 159.97,138.176 157,151.5C 155.235,159.96 156.901,167.627 162,174.5C 163.129,176.141 164.629,177.141 166.5,177.5C 168.913,179.887 171.58,182.054 174.5,184C 176.439,185.432 177.772,187.265 178.5,189.5C 178.167,189.5 177.833,189.5 177.5,189.5C 173.338,185.183 168.672,181.35 163.5,178C 157.714,172.819 154.714,166.319 154.5,158.5C 154.494,151.52 156.494,145.187 160.5,139.5C 169.671,129.807 179.338,129.14 189.5,137.5 Z"/></g>
<g><path style="opacity:1" fill="#b05e41" d="M 187.5,138.5 C 188.404,139.209 188.737,140.209 188.5,141.5C 187.71,142.794 186.71,143.961 185.5,145C 179.171,146.149 174.838,149.649 172.5,155.5C 172.667,155.833 172.833,156.167 173,156.5C 175.397,153.6 178.23,151.267 181.5,149.5C 181.833,150 182.167,150.5 182.5,151C 181.698,162.467 181.198,173.967 181,185.5C 180.392,187.066 179.558,188.4 178.5,189.5C 177.772,187.265 176.439,185.432 174.5,184C 171.58,182.054 168.913,179.887 166.5,177.5C 168.311,178.822 170.311,179.322 172.5,179C 175.993,171.563 177.493,163.729 177,155.5C 175,157.5 173,159.5 171,161.5C 171.196,157.209 171.363,152.876 171.5,148.5C 172.833,148.5 174.167,148.5 175.5,148.5C 175.105,145.477 176.105,144.477 178.5,145.5C 181.247,142.677 184.247,140.344 187.5,138.5 Z"/></g>
<g><path style="opacity:1" fill="#bfaea7" d="M 149.5,150.5 C 148.82,154.791 150.486,157.457 154.5,158.5C 154.714,166.319 157.714,172.819 163.5,178C 168.672,181.35 173.338,185.183 177.5,189.5C 177.53,190.497 177.03,191.164 176,191.5C 156.978,184.068 148.145,170.401 149.5,150.5 Z"/></g>
<g><path style="opacity:1" fill="#e6844e" d="M 187.5,138.5 C 184.247,140.344 181.247,142.677 178.5,145.5C 176.105,144.477 175.105,145.477 175.5,148.5C 174.167,148.5 172.833,148.5 171.5,148.5C 171.363,152.876 171.196,157.209 171,161.5C 173,159.5 175,157.5 177,155.5C 177.493,163.729 175.993,171.563 172.5,179C 170.311,179.322 168.311,178.822 166.5,177.5C 164.629,177.141 163.129,176.141 162,174.5C 156.901,167.627 155.235,159.96 157,151.5C 159.97,138.176 168.137,132.342 181.5,134C 184.106,134.792 186.106,136.292 187.5,138.5 Z"/></g>
<g><path style="opacity:1" fill="#ddd5ca" d="M 156.5,128.5 C 155.438,132.977 156.771,136.643 160.5,139.5C 156.494,145.187 154.494,151.52 154.5,158.5C 150.486,157.457 148.82,154.791 149.5,150.5C 150.028,149.153 150.195,147.819 150,146.5C 147.037,148.461 144.371,150.794 142,153.5C 142.707,142.75 147.54,134.417 156.5,128.5 Z"/></g>
<g><path style="opacity:1" fill="#fafaf8" d="M 323.5,184.5 C 330.514,179.319 336.68,173.319 342,166.5C 347.47,151.429 343.97,139.095 331.5,129.5C 330.426,128.115 329.093,126.949 327.5,126C 319.235,123.923 312.235,125.923 306.5,132C 305.216,132.684 304.049,132.517 303,131.5C 302.415,132.998 302.915,133.998 304.5,134.5C 309.166,138.487 312.333,143.487 314,149.5C 314.333,159.167 314.667,168.833 315,178.5C 315.746,183.162 317.913,186.995 321.5,190C 325.603,190.287 329.603,189.953 333.5,189C 336.56,193.348 337.893,198.182 337.5,203.5C 335.516,203.617 333.85,202.95 332.5,201.5C 332.167,201.833 331.833,202.167 331.5,202.5C 334.896,205.467 338.896,206.967 343.5,207C 339.767,212.067 335.433,216.4 330.5,220C 332.764,223.861 334.764,227.861 336.5,232C 333.634,230.741 330.634,229.741 327.5,229C 330.141,235.141 330.141,241.308 327.5,247.5C 326.252,246.96 325.085,246.293 324,245.5C 323.667,242.833 323.333,240.167 323,237.5C 322.59,238.901 322.09,240.234 321.5,241.5C 318.658,242.172 316.158,243.506 314,245.5C 313.781,244.062 313.281,242.729 312.5,241.5C 308.077,246.26 303.077,250.26 297.5,253.5C 297.167,253.333 296.833,253.167 296.5,253C 297.5,252 298.5,251 299.5,250C 299.167,249.833 298.833,249.667 298.5,249.5C 292.378,252.808 285.878,255.141 279,256.5C 277.833,256.333 276.667,256.167 275.5,256C 277.326,254.165 278.326,252.331 278.5,250.5C 275.613,252.111 272.613,253.444 269.5,254.5C 268.287,254.253 267.62,253.586 267.5,252.5C 274.957,242.159 281.79,231.825 288,221.5C 288.49,220.207 288.657,218.873 288.5,217.5C 289.5,217.167 290.167,216.5 290.5,215.5C 292.933,214.671 295.267,215.171 297.5,217C 303.042,217.913 308.375,217.246 313.5,215C 319.112,208.633 318.779,202.633 312.5,197C 307.442,194.659 302.442,192.826 297.5,191.5C 299.891,178.885 294.558,173.219 281.5,174.5C 277.234,172.533 276.568,169.7 279.5,166C 274.325,167.347 268.991,167.68 263.5,167C 261.714,166.215 260.214,165.049 259,163.5C 258.751,164.624 258.251,165.624 257.5,166.5C 253.784,164.064 251.284,160.731 250,156.5C 247.667,159.833 245.333,163.167 243,166.5C 242.667,165.5 242.333,164.5 242,163.5C 236.061,169.514 229.228,170.848 221.5,167.5C 220.253,169.006 220.253,170.506 221.5,172C 221.026,173.729 220.026,174.895 218.5,175.5C 205.5,173.167 200.167,178.5 202.5,191.5C 202.53,192.497 202.03,193.164 201,193.5C 195.432,194.128 190.766,196.461 187,200.5C 183.399,206.062 183.899,211.229 188.5,216C 194.976,218.199 201.309,217.865 207.5,215C 210.892,212.425 212.392,208.925 212,204.5C 212.653,201.861 213.82,199.527 215.5,197.5C 218.167,194.5 220.833,191.5 223.5,188.5C 240.452,179.859 257.786,179.192 275.5,186.5C 279.167,189.5 282.5,192.833 285.5,196.5C 288.451,200.943 289.451,205.61 288.5,210.5C 286.544,208.825 285.211,209.158 284.5,211.5C 278.475,214.255 272.141,215.088 265.5,214C 260.017,210.565 259.017,206.065 262.5,200.5C 264.17,197.694 263.837,195.194 261.5,193C 254.113,189.877 246.78,189.877 239.5,193C 237.722,195.135 237.055,197.635 237.5,200.5C 240.597,209.742 237.264,214.742 227.5,215.5C 224.678,215.448 222.011,214.781 219.5,213.5C 217.786,214.609 217.119,213.942 217.5,211.5C 216.749,210.427 215.749,210.26 214.5,211C 213.333,212.167 212.167,213.333 211,214.5C 211.058,216.435 211.891,218.102 213.5,219.5C 219.31,232.132 227.31,243.132 237.5,252.5C 239.167,254.5 240.833,256.5 242.5,258.5C 231.233,257.466 220.733,254.133 211,248.5C 209.437,249.102 209.604,249.935 211.5,251C 203.404,250.191 196.904,246.357 192,239.5C 189.401,233.635 185.401,228.969 180,225.5C 177.451,221.185 176.118,216.519 176,211.5C 175.617,212.056 175.117,212.389 174.5,212.5C 172.654,212.778 171.32,212.111 170.5,210.5C 173.896,205.065 176.563,199.398 178.5,193.5C 181.097,190.644 182.93,187.311 184,183.5C 184.675,175.651 184.508,167.817 183.5,160C 184.089,150.822 188.089,143.489 195.5,138C 193.527,137.505 191.527,137.338 189.5,137.5C 179.338,129.14 169.671,129.807 160.5,139.5C 156.771,136.643 155.438,132.977 156.5,128.5C 160.953,125.278 165.953,123.112 171.5,122C 169.167,121.667 166.833,121.333 164.5,121C 174.909,117.148 184.909,117.981 194.5,123.5C 195.242,121.892 195.409,120.225 195,118.5C 198.678,121.514 202.345,124.514 206,127.5C 210.008,125.412 214.174,123.745 218.5,122.5C 219.196,125.556 220.03,128.556 221,131.5C 220.612,124.653 222.945,118.986 228,114.5C 228.333,118.167 228.667,121.833 229,125.5C 237.299,114.268 248.465,108.768 262.5,109C 259.833,111 257.167,113 254.5,115C 261.567,112.731 268.901,112.064 276.5,113C 277.5,113.333 278.5,113.667 279.5,114C 276.018,115.244 273.018,117.244 270.5,120C 277.338,120.126 283.671,121.959 289.5,125.5C 292.876,122.122 296.543,119.122 300.5,116.5C 300.676,118.672 300.843,121.005 301,123.5C 310.693,115.238 321.526,113.404 333.5,118C 334.634,119.016 334.301,119.683 332.5,120C 345.064,124.397 353.398,132.897 357.5,145.5C 357.333,146.167 357.167,146.833 357,147.5C 354.552,145.002 351.719,143.502 348.5,143C 353.649,164.366 345.983,179.366 325.5,188C 324.365,188.749 323.365,188.583 322.5,187.5C 323.127,186.583 323.461,185.583 323.5,184.5 Z"/></g>
<g><path style="opacity:1" fill="#e1d7cd" d="M 288.5,217.5 C 288.657,218.873 288.49,220.207 288,221.5C 281.79,231.825 274.957,242.159 267.5,252.5C 268.491,248.312 269.158,244.312 269.5,240.5C 276.241,233.1 282.574,225.433 288.5,217.5 Z"/></g>
<g><path style="opacity:1" fill="#ddd7d2" d="M 213.5,219.5 C 214.239,219.369 214.906,219.536 215.5,220C 220.983,228.981 227.983,236.481 236.5,242.5C 236.833,245.833 237.167,249.167 237.5,252.5C 227.31,243.132 219.31,232.132 213.5,219.5 Z"/></g>
<g><path style="opacity:1" fill="#0e0618" d="M 288.5,210.5 C 289.942,211.82 290.608,213.486 290.5,215.5C 290.167,216.5 289.5,217.167 288.5,217.5C 282.574,225.433 276.241,233.1 269.5,240.5C 267.983,240.511 266.816,241.177 266,242.5C 262.346,255.074 254.512,258.574 242.5,253C 239.554,249.931 237.554,246.431 236.5,242.5C 227.983,236.481 220.983,228.981 215.5,220C 214.906,219.536 214.239,219.369 213.5,219.5C 211.891,218.102 211.058,216.435 211,214.5C 212.167,213.333 213.333,212.167 214.5,211C 215.749,210.26 216.749,210.427 217.5,211.5C 215.798,215.054 216.798,217.887 220.5,220C 228.371,224.171 236.371,224.504 244.5,221C 247.391,218.325 249.557,215.158 251,211.5C 254.444,221.976 261.611,225.809 272.5,223C 277.091,221.905 281.091,219.738 284.5,216.5C 285.788,214.701 285.788,213.035 284.5,211.5C 285.211,209.158 286.544,208.825 288.5,210.5 Z"/></g>
<g><path style="opacity:1" fill="#e8a399" d="M 251.5,238.5 C 251.5,239.167 251.833,239.5 252.5,239.5C 255.473,238.476 258.473,238.643 261.5,240C 262.38,241.356 262.714,242.856 262.5,244.5C 261.14,250.178 257.473,252.845 251.5,252.5C 245.561,252.888 241.895,250.221 240.5,244.5C 240.238,243.022 240.571,241.689 241.5,240.5C 244.66,238.973 247.993,238.307 251.5,238.5 Z"/></g>
<g><path style="opacity:1" fill="#b35a54" d="M 251.5,238.5 C 247.993,238.307 244.66,238.973 241.5,240.5C 240.571,241.689 240.238,243.022 240.5,244.5C 239.352,240.019 239.185,235.352 240,230.5C 241.363,224.724 244.363,223.39 249,226.5C 250.154,230.447 250.987,234.447 251.5,238.5 Z"/></g>
<g><path style="opacity:1" fill="#b15754" d="M 262.5,244.5 C 262.714,242.856 262.38,241.356 261.5,240C 258.473,238.643 255.473,238.476 252.5,239.5C 252.334,234.821 252.501,230.155 253,225.5C 258.176,223.952 261.51,225.952 263,231.5C 263.814,236.02 263.647,240.354 262.5,244.5 Z"/></g>
<g><path style="opacity:1" fill="#e1d6cc" d="M 237.5,200.5 C 241.796,203.108 246.129,205.775 250.5,208.5C 254.857,206.103 258.857,203.436 262.5,200.5C 259.017,206.065 260.017,210.565 265.5,214C 272.141,215.088 278.475,214.255 284.5,211.5C 285.788,213.035 285.788,214.701 284.5,216.5C 281.091,219.738 277.091,221.905 272.5,223C 261.611,225.809 254.444,221.976 251,211.5C 249.557,215.158 247.391,218.325 244.5,221C 236.371,224.504 228.371,224.171 220.5,220C 216.798,217.887 215.798,215.054 217.5,211.5C 217.119,213.942 217.786,214.609 219.5,213.5C 222.011,214.781 224.678,215.448 227.5,215.5C 237.264,214.742 240.597,209.742 237.5,200.5 Z"/></g>
<g><path style="opacity:1" fill="#0b0719" d="M 262.5,200.5 C 258.857,203.436 254.857,206.103 250.5,208.5C 246.129,205.775 241.796,203.108 237.5,200.5C 237.055,197.635 237.722,195.135 239.5,193C 246.78,189.877 254.113,189.877 261.5,193C 263.837,195.194 264.17,197.694 262.5,200.5 Z"/></g>
<g><path style="opacity:1" fill="#ebb2a9" d="M 202.5,191.5 C 205.619,195.89 209.952,197.89 215.5,197.5C 213.82,199.527 212.653,201.861 212,204.5C 212.392,208.925 210.892,212.425 207.5,215C 201.309,217.865 194.976,218.199 188.5,216C 183.899,211.229 183.399,206.062 187,200.5C 190.766,196.461 195.432,194.128 201,193.5C 202.03,193.164 202.53,192.497 202.5,191.5 Z"/></g>
<g><path style="opacity:1" fill="#ebb2a9" d="M 297.5,191.5 C 302.442,192.826 307.442,194.659 312.5,197C 318.779,202.633 319.112,208.633 313.5,215C 308.375,217.246 303.042,217.913 297.5,217C 295.267,215.171 292.933,214.671 290.5,215.5C 290.608,213.486 289.942,211.82 288.5,210.5C 289.451,205.61 288.451,200.943 285.5,196.5C 290.487,197.001 294.487,195.335 297.5,191.5 Z"/></g>
<g><path style="opacity:1" fill="#545264" d="M 245.5,193.5 C 250.012,193.149 254.345,193.815 258.5,195.5C 255.304,195.739 253.471,197.406 253,200.5C 252.51,199.207 252.343,197.873 252.5,196.5C 251.167,196.5 249.833,196.5 248.5,196.5C 248.543,200.893 248.043,201.226 247,197.5C 246.097,196.299 244.931,195.465 243.5,195C 244.416,194.722 245.082,194.222 245.5,193.5 Z"/></g>
<g><path style="opacity:1" fill="#0c091a" d="M 218.5,175.5 C 222.655,178.82 224.322,183.154 223.5,188.5C 220.833,191.5 218.167,194.5 215.5,197.5C 209.952,197.89 205.619,195.89 202.5,191.5C 200.167,178.5 205.5,173.167 218.5,175.5 Z"/></g>
<g><path style="opacity:1" fill="#dfe1e9" d="M 214.5,179.5 C 218.35,179.701 219.35,181.534 217.5,185C 212.289,185.546 211.289,183.713 214.5,179.5 Z"/></g>
<g><path style="opacity:1" fill="#090619" d="M 281.5,174.5 C 294.558,173.219 299.891,178.885 297.5,191.5C 294.487,195.335 290.487,197.001 285.5,196.5C 282.5,192.833 279.167,189.5 275.5,186.5C 275.881,181.737 277.881,177.737 281.5,174.5 Z"/></g>
<g><path style="opacity:1" fill="#e5e5ed" d="M 287.5,179.5 C 292.159,179.015 293.492,180.848 291.5,185C 286.728,185.81 285.395,183.977 287.5,179.5 Z"/></g>
<g><path style="opacity:1" fill="#e4d9cd" d="M 281.5,174.5 C 277.881,177.737 275.881,181.737 275.5,186.5C 257.786,179.192 240.452,179.859 223.5,188.5C 224.322,183.154 222.655,178.82 218.5,175.5C 220.026,174.895 221.026,173.729 221.5,172C 220.253,170.506 220.253,169.006 221.5,167.5C 229.228,170.848 236.061,169.514 242,163.5C 242.333,164.5 242.667,165.5 243,166.5C 245.333,163.167 247.667,159.833 250,156.5C 251.284,160.731 253.784,164.064 257.5,166.5C 258.251,165.624 258.751,164.624 259,163.5C 260.214,165.049 261.714,166.215 263.5,167C 268.991,167.68 274.325,167.347 279.5,166C 276.568,169.7 277.234,172.533 281.5,174.5 Z"/></g>
<g><path style="opacity:1" fill="#3c1f1a" d="M 331.5,129.5 C 343.97,139.095 347.47,151.429 342,166.5C 336.68,173.319 330.514,179.319 323.5,184.5C 323.167,184.5 322.833,184.5 322.5,184.5C 322.833,183.833 323.167,183.167 323.5,182.5C 329.146,178.353 334.313,173.687 339,168.5C 345.614,153.698 343.114,140.698 331.5,129.5 Z"/></g>
<g><path style="opacity:1" fill="#aa5d3f" d="M 324.5,146.5 C 326.273,147.314 326.773,148.648 326,150.5C 324.51,148.442 322.51,147.109 320,146.5C 319.833,147.333 319.667,148.167 319.5,149C 320.141,157.815 320.308,166.649 320,175.5C 320.436,178.398 321.603,180.731 323.5,182.5C 323.167,183.167 322.833,183.833 322.5,184.5C 321.883,184.611 321.383,184.944 321,185.5C 319.748,183.999 318.748,182.332 318,180.5C 317.667,170.833 317.333,161.167 317,151.5C 311.524,138.979 314.024,137.312 324.5,146.5 Z"/></g>
<g><path style="opacity:1" fill="#e38350" d="M 331.5,129.5 C 343.114,140.698 345.614,153.698 339,168.5C 334.313,173.687 329.146,178.353 323.5,182.5C 321.603,180.731 320.436,178.398 320,175.5C 320.308,166.649 320.141,157.815 319.5,149C 319.667,148.167 319.833,147.333 320,146.5C 322.51,147.109 324.51,148.442 326,150.5C 326.773,148.648 326.273,147.314 324.5,146.5C 322.446,139.63 317.78,136.464 310.5,137C 309.429,136.148 308.429,135.315 307.5,134.5C 311.167,127.876 316.833,125.376 324.5,127C 326.854,127.847 329.188,128.68 331.5,129.5 Z"/></g>
<g><path style="opacity:1" fill="#452620" d="M 331.5,129.5 C 329.188,128.68 326.854,127.847 324.5,127C 316.833,125.376 311.167,127.876 307.5,134.5C 306.348,133.375 305.348,133.375 304.5,134.5C 302.915,133.998 302.415,132.998 303,131.5C 304.049,132.517 305.216,132.684 306.5,132C 312.235,125.923 319.235,123.923 327.5,126C 329.093,126.949 330.426,128.115 331.5,129.5 Z"/></g>
<g><path style="opacity:1" fill="#c5b5aa" d="M 269.5,240.5 C 269.158,244.312 268.491,248.312 267.5,252.5C 265.389,256.398 262.055,258.565 257.5,259C 252.481,259.498 247.481,259.332 242.5,258.5C 240.833,256.5 239.167,254.5 237.5,252.5C 237.167,249.167 236.833,245.833 236.5,242.5C 237.554,246.431 239.554,249.931 242.5,253C 254.512,258.574 262.346,255.074 266,242.5C 266.816,241.177 267.983,240.511 269.5,240.5 Z"/></g>
<g><path style="opacity:1" fill="#fbfbf9" d="M 325.5,250.5 C 328.176,253.695 329.343,257.362 329,261.5C 328.492,259.096 327.325,258.429 325.5,259.5C 329.985,265.454 332.152,272.12 332,279.5C 329.667,276.5 327.333,273.5 325,270.5C 324.163,268.993 322.996,268.493 321.5,269C 329.036,278.214 331.536,288.714 329,300.5C 322.532,323.071 315.365,345.404 307.5,367.5C 307.804,369.441 308.637,371.107 310,372.5C 311.973,378.786 310.139,383.453 304.5,386.5C 304.346,385.091 304.179,383.424 304,381.5C 303.392,383.066 302.558,384.4 301.5,385.5C 300.636,384.312 299.636,383.145 298.5,382C 294.608,380.36 290.608,379.027 286.5,378C 280.892,375.947 279.226,372.113 281.5,366.5C 278.897,360.089 277.231,353.423 276.5,346.5C 276.361,339.783 278.694,334.117 283.5,329.5C 280.937,329.551 278.271,329.217 275.5,328.5C 274.959,326.465 274.292,324.465 273.5,322.5C 272.893,322.624 272.56,322.957 272.5,323.5C 270.206,326.37 268.872,329.703 268.5,333.5C 267.857,335.076 266.857,336.41 265.5,337.5C 254.535,343.255 243.868,342.588 233.5,335.5C 233.443,334.391 233.11,333.391 232.5,332.5C 232.688,330.897 232.188,329.563 231,328.5C 230.5,336.159 230.334,343.826 230.5,351.5C 230.666,360.173 230.5,368.84 230,377.5C 229.109,381.887 226.609,384.887 222.5,386.5C 221.832,384.537 221.498,382.537 221.5,380.5C 216.507,380.247 211.507,379.913 206.5,379.5C 207.792,377.333 208.625,375 209,372.5C 210.205,371.929 211.372,371.262 212.5,370.5C 212.376,369.893 212.043,369.56 211.5,369.5C 210.508,369.672 209.842,369.338 209.5,368.5C 206.041,359.565 202.541,350.565 199,341.5C 197.764,337.197 198.598,336.197 201.5,338.5C 201.833,338.167 202.167,337.833 202.5,337.5C 194.02,325.946 192.52,313.612 198,300.5C 200.124,299.773 202.291,299.106 204.5,298.5C 205.167,297.167 205.833,295.833 206.5,294.5C 214.672,294.364 222.339,296.197 229.5,300C 241.327,301.875 251.993,299.375 261.5,292.5C 263.691,291.709 265.691,291.709 267.5,292.5C 265.727,294.6 265.394,296.934 266.5,299.5C 273.055,292.775 280.055,286.609 287.5,281C 305.694,277.632 318.36,267.466 325.5,250.5 Z"/></g>
<g><path style="opacity:1" fill="#c1b1a4" d="M 316.5,256.5 C 311.163,265.336 303.997,272.336 295,277.5C 295.387,274.051 293.887,273.551 290.5,276C 282.945,281.604 275.612,287.437 268.5,293.5C 267.893,293.376 267.56,293.043 267.5,292.5C 265.691,291.709 263.691,291.709 261.5,292.5C 254.708,295.707 247.542,297.373 240,297.5C 234.723,298.076 229.89,296.909 225.5,294C 215.005,295.063 205.338,292.896 196.5,287.5C 195.422,289.475 195.755,291.308 197.5,293C 192.321,293.289 187.321,292.456 182.5,290.5C 182.115,301.295 184.115,311.628 188.5,321.5C 188.154,322.696 187.654,322.696 187,321.5C 186.509,327.711 187.509,333.711 190,339.5C 192.3,343.963 194.8,348.296 197.5,352.5C 197.154,353.696 196.654,353.696 196,352.5C 195.833,353.333 195.667,354.167 195.5,355C 196.585,360.272 198.252,365.106 200.5,369.5C 200.167,370.167 199.833,370.833 199.5,371.5C 198.359,374.64 198.192,377.973 199,381.5C 202.057,382.451 205.223,382.784 208.5,382.5C 208.357,384.262 208.691,385.929 209.5,387.5C 203.662,389.922 199.495,388.255 197,382.5C 196.316,383.784 196.483,384.951 197.5,386C 194.54,385.394 192.373,383.561 191,380.5C 191.074,375.05 191.74,369.717 193,364.5C 184.874,343.455 177.54,322.121 171,300.5C 169.879,291.742 170.879,283.408 174,275.5C 171.763,277.647 169.763,279.98 168,282.5C 167.296,273.944 169.796,266.444 175.5,260C 173.255,260.195 171.422,261.362 170,263.5C 169.966,257.901 172.3,253.568 177,250.5C 180.822,253.653 184.655,256.82 188.5,260C 195.169,261.833 201.502,264.5 207.5,268C 212.021,268.729 216.354,270.063 220.5,272C 225.167,272.333 229.833,272.667 234.5,273C 242.43,277.19 250.763,278.356 259.5,276.5C 260.91,276.132 261.91,275.299 262.5,274C 268.833,273 275.167,272 281.5,271C 293.248,266.118 304.915,261.285 316.5,256.5 Z"/></g>
<g><path style="opacity:1" fill="#e4d8cb" d="M 242.5,258.5 C 247.481,259.332 252.481,259.498 257.5,259C 262.055,258.565 265.389,256.398 267.5,252.5C 267.62,253.586 268.287,254.253 269.5,254.5C 272.613,253.444 275.613,252.111 278.5,250.5C 278.326,252.331 277.326,254.165 275.5,256C 276.667,256.167 277.833,256.333 279,256.5C 285.878,255.141 292.378,252.808 298.5,249.5C 298.833,249.667 299.167,249.833 299.5,250C 298.5,251 297.5,252 296.5,253C 296.833,253.167 297.167,253.333 297.5,253.5C 303.077,250.26 308.077,246.26 312.5,241.5C 313.281,242.729 313.781,244.062 314,245.5C 316.158,243.506 318.658,242.172 321.5,241.5C 319.005,249.331 314.005,254.998 306.5,258.5C 306.167,258.167 305.833,257.833 305.5,257.5C 306.963,255.271 307.797,252.937 308,250.5C 299.931,262.284 288.765,268.451 274.5,269C 276.792,267.71 278.792,266.043 280.5,264C 279.906,263.536 279.239,263.369 278.5,263.5C 262.697,271.212 246.363,272.545 229.5,267.5C 227.938,267.267 226.605,266.6 225.5,265.5C 224.176,262.919 222.676,262.919 221,265.5C 214.007,263.668 207.84,260.335 202.5,255.5C 201.833,255.833 201.167,256.167 200.5,256.5C 190.293,250.632 183.96,241.965 181.5,230.5C 175.841,225.917 173.508,219.917 174.5,212.5C 175.117,212.389 175.617,212.056 176,211.5C 176.118,216.519 177.451,221.185 180,225.5C 185.401,228.969 189.401,233.635 192,239.5C 196.904,246.357 203.404,250.191 211.5,251C 209.604,249.935 209.437,249.102 211,248.5C 220.733,254.133 231.233,257.466 242.5,258.5 Z"/></g>
<g><path style="opacity:1" fill="#b6a9a2" d="M 278.5,263.5 C 276.422,266.051 273.756,267.884 270.5,269C 262.753,271.311 256.253,273.144 251,274.5C 243.262,273.642 236.095,271.309 229.5,267.5C 246.363,272.545 262.697,271.212 278.5,263.5 Z"/></g>
<g><path style="opacity:1" fill="#e1d6cc" d="M 325.5,250.5 C 318.36,267.466 305.694,277.632 287.5,281C 280.055,286.609 273.055,292.775 266.5,299.5C 265.394,296.934 265.727,294.6 267.5,292.5C 267.56,293.043 267.893,293.376 268.5,293.5C 275.612,287.437 282.945,281.604 290.5,276C 293.887,273.551 295.387,274.051 295,277.5C 303.997,272.336 311.163,265.336 316.5,256.5C 317.919,253.9 319.585,251.4 321.5,249C 323.352,248.227 324.686,248.727 325.5,250.5 Z"/></g>
<g><path style="opacity:1" fill="#35203d" d="M 31.5,227.5 C 31.0909,248.961 32.0909,270.294 34.5,291.5C 32.7068,284.741 31.5402,277.741 31,270.5C 30.1725,255.994 30.3392,241.661 31.5,227.5 Z"/></g>
<g><path style="opacity:1" fill="#341f3c" d="M 467.5,228.5 C 468.661,242.327 468.827,256.327 468,270.5C 467.329,277.722 466.162,284.722 464.5,291.5C 464.794,282.118 465.627,272.785 467,263.5C 467.5,251.838 467.667,240.171 467.5,228.5 Z"/></g>
<g><path style="opacity:1" fill="#7e7c88" d="M 335.5,288.5 C 334.065,291.028 333.065,293.695 332.5,296.5C 332.5,293.833 332.5,291.167 332.5,288.5C 333.5,288.5 334.5,288.5 335.5,288.5 Z"/></g>
<g><path style="opacity:1" fill="#312139" d="M 464.5,292.5 C 463.768,298.094 462.435,303.427 460.5,308.5C 460.305,304.085 460.805,299.751 462,295.5C 462.236,293.881 463.069,292.881 464.5,292.5 Z"/></g>
<g><path style="opacity:1" fill="#fcfcfc" d="M 454.5,309.5 C 451.902,319.793 448.402,329.793 444,339.5C 402.747,420.177 336.58,461.51 245.5,463.5C 167.822,459.846 108.155,425.512 66.5,360.5C 68.1439,360.286 69.6439,360.62 71,361.5C 72.5522,360.034 74.3855,359.034 76.5,358.5C 80.1436,359.025 79.8103,358.358 75.5,356.5C 72.737,358.681 69.737,359.015 66.5,357.5C 65.4104,356.609 65.4104,355.609 66.5,354.5C 66.0233,353.522 65.3567,352.689 64.5,352C 65.8514,350.186 66.8514,350.519 67.5,353C 72.0558,355.392 75.7225,354.559 78.5,350.5C 83.6649,346.414 89.3315,343.08 95.5,340.5C 132.22,397.873 184.887,427.206 253.5,428.5C 318.736,425.232 368.736,396.232 403.5,341.5C 405.901,342.049 408.235,342.882 410.5,344C 415.334,347.252 420.334,350.252 425.5,353C 426.833,353.667 428.167,353.667 429.5,353C 437.375,338.411 444.042,323.245 449.5,307.5C 450.141,305.958 451.141,304.624 452.5,303.5C 453.477,305.411 454.143,307.411 454.5,309.5 Z"/></g>
<g><path style="opacity:1" fill="#ce875b" d="M 79.5,305.5 C 82.3511,312.045 85.0177,318.712 87.5,325.5C 86.5416,325.047 85.7083,324.381 85,323.5C 84.2411,320.215 82.9078,317.215 81,314.5C 80.304,311.522 79.804,308.522 79.5,305.5 Z"/></g>
<g><path style="opacity:1" fill="#f7f7f6" d="M 330.5,359.5 C 331.902,352.778 330.902,346.445 327.5,340.5C 327.963,337.518 328.296,334.518 328.5,331.5C 329.358,324.329 330.024,316.995 330.5,309.5C 330.435,309.062 330.601,308.728 331,308.5C 340.725,318.604 345.392,330.604 345,344.5C 343.5,349.665 341.333,354.498 338.5,359C 335.854,359.497 333.187,359.664 330.5,359.5 Z"/></g>
<g><path style="opacity:1" fill="#e3d8cb" d="M 261.5,292.5 C 251.993,299.375 241.327,301.875 229.5,300C 222.339,296.197 214.672,294.364 206.5,294.5C 205.833,295.833 205.167,297.167 204.5,298.5C 202.291,299.106 200.124,299.773 198,300.5C 192.52,313.612 194.02,325.946 202.5,337.5C 202.167,337.833 201.833,338.167 201.5,338.5C 198.598,336.197 197.764,337.197 199,341.5C 202.541,350.565 206.041,359.565 209.5,368.5C 206.455,368.508 203.455,368.841 200.5,369.5C 198.252,365.106 196.585,360.272 195.5,355C 195.667,354.167 195.833,353.333 196,352.5C 196.654,353.696 197.154,353.696 197.5,352.5C 194.8,348.296 192.3,343.963 190,339.5C 187.509,333.711 186.509,327.711 187,321.5C 187.654,322.696 188.154,322.696 188.5,321.5C 184.115,311.628 182.115,301.295 182.5,290.5C 187.321,292.456 192.321,293.289 197.5,293C 195.755,291.308 195.422,289.475 196.5,287.5C 205.338,292.896 215.005,295.063 225.5,294C 229.89,296.909 234.723,298.076 240,297.5C 247.542,297.373 254.708,295.707 261.5,292.5 Z"/></g>
<g><path style="opacity:1" fill="#b7adaa" d="M 330.5,309.5 C 330.024,316.995 329.358,324.329 328.5,331.5C 325.827,342.179 320.994,351.846 314,360.5C 319.005,343.32 324.505,326.32 330.5,309.5 Z"/></g>
<g><path style="opacity:1" fill="#bcaa9f" d="M 164.5,314.5 C 165.239,314.369 165.906,314.536 166.5,315C 159.914,329.763 159.914,344.597 166.5,359.5C 164.278,359.822 162.444,359.155 161,357.5C 152.844,342.367 154.011,328.034 164.5,314.5 Z"/></g>
<g><path style="opacity:1" fill="#f49358" d="M 87.5,325.5 C 90.4176,330.333 93.0843,335.333 95.5,340.5C 89.3315,343.08 83.6649,346.414 78.5,350.5C 75.8381,351.737 73.1715,352.571 70.5,353C 66.8357,347.505 63.8357,341.671 61.5,335.5C 62.5,335.5 63.5,335.5 64.5,335.5C 64.0114,339.487 65.678,341.82 69.5,342.5C 69.238,341.022 69.5713,339.689 70.5,338.5C 70.8333,339.333 71.1667,340.167 71.5,341C 69.2791,344.053 69.1125,347.22 71,350.5C 71.6667,349.167 72.3333,349.167 73,350.5C 73.4652,349.069 74.2986,347.903 75.5,347C 78.9338,346.442 82.2672,345.609 85.5,344.5C 85.5,342.833 85.5,341.167 85.5,339.5C 82.5739,340.461 79.5739,341.127 76.5,341.5C 76.1192,339.058 76.7859,338.391 78.5,339.5C 82.245,338.919 85.4117,337.253 88,334.5C 88.3013,331.493 88.1346,328.493 87.5,325.5 Z"/></g>
<g><path style="opacity:1" fill="#a59185" d="M 166.5,359.5 C 159.914,344.597 159.914,329.763 166.5,315C 165.906,314.536 165.239,314.369 164.5,314.5C 165.748,312.351 167.248,310.351 169,308.5C 175.953,326.362 182.286,344.362 188,362.5C 179.163,352.489 173.829,340.822 172,327.5C 171.553,337.709 174.219,347.042 180,355.5C 183.179,359.874 186.346,364.207 189.5,368.5C 188.178,372.274 187.178,376.107 186.5,380C 183.167,380.667 179.833,380.667 176.5,380C 175.718,377.26 175.218,374.426 175,371.5C 173.302,374.396 173.136,377.396 174.5,380.5C 167.106,382.59 162.94,379.924 162,372.5C 162.735,380.542 160.069,381.542 154,375.5C 152.235,368.24 155.069,363.74 162.5,362C 166.548,361.566 170.548,361.566 174.5,362C 171.92,360.856 169.253,360.022 166.5,359.5 Z"/></g>
<g><path style="opacity:1" fill="#5a575e" d="M 232.5,332.5 C 231.833,338.833 231.167,345.167 230.5,351.5C 230.334,343.826 230.5,336.159 231,328.5C 232.188,329.563 232.688,330.897 232.5,332.5 Z"/></g>
<g><path style="opacity:1" fill="#e3d9cb" d="M 233.5,335.5 C 243.868,342.588 254.535,343.255 265.5,337.5C 263.868,346.902 260.201,355.402 254.5,363C 248.16,367.767 241.993,367.6 236,362.5C 234.932,357.094 234.099,351.761 233.5,346.5C 233.5,342.833 233.5,339.167 233.5,335.5 Z"/></g>
<g><path style="opacity:1" fill="#ded3ca" d="M 327.5,340.5 C 330.902,346.445 331.902,352.778 330.5,359.5C 328.9,360.644 327.233,361.811 325.5,363C 326.094,363.464 326.761,363.631 327.5,363.5C 328.092,366.127 328.425,368.794 328.5,371.5C 332.371,371.185 336.038,371.518 339.5,372.5C 338.539,375.055 337.206,377.388 335.5,379.5C 335.046,377.741 335.046,375.741 335.5,373.5C 332.794,373.425 330.127,373.092 327.5,372.5C 326.5,371.833 325.5,371.167 324.5,370.5C 323.092,369.089 322.092,367.423 321.5,365.5C 323.5,361.5 325.5,357.5 327.5,353.5C 326.908,351.577 325.908,349.911 324.5,348.5C 325.129,345.603 326.129,342.936 327.5,340.5 Z"/></g>
<g><path style="opacity:1" fill="#c3b0a1" d="M 268.5,333.5 C 267.587,345.136 267.254,356.803 267.5,368.5C 258.066,373.11 248.399,373.61 238.5,370C 236.416,369.303 234.749,368.136 233.5,366.5C 233.5,359.833 233.5,353.167 233.5,346.5C 234.099,351.761 234.932,357.094 236,362.5C 241.993,367.6 248.16,367.767 254.5,363C 260.201,355.402 263.868,346.902 265.5,337.5C 266.857,336.41 267.857,335.076 268.5,333.5 Z"/></g>
<g><path style="opacity:1" fill="#e1d8ce" d="M 301.5,385.5 C 300.308,387.922 298.308,388.922 295.5,388.5C 294.167,388.333 292.833,388.167 291.5,388C 292.769,385.861 292.769,383.695 291.5,381.5C 290.614,382.325 290.281,383.325 290.5,384.5C 289.839,383.282 289.172,381.949 288.5,380.5C 282.281,380.272 278.114,377.272 276,371.5C 276.781,360.827 276.447,350.16 275,339.5C 271.882,336.93 270.715,333.596 271.5,329.5C 271.833,327.5 272.167,325.5 272.5,323.5C 272.56,322.957 272.893,322.624 273.5,322.5C 274.292,324.465 274.959,326.465 275.5,328.5C 278.271,329.217 280.937,329.551 283.5,329.5C 278.694,334.117 276.361,339.783 276.5,346.5C 277.231,353.423 278.897,360.089 281.5,366.5C 279.226,372.113 280.892,375.947 286.5,378C 290.608,379.027 294.608,380.36 298.5,382C 299.636,383.145 300.636,384.312 301.5,385.5 Z"/></g>
<g><path style="opacity:1" fill="#f9f8f5" d="M 347.5,369.5 C 347.5,370.5 347.5,371.5 347.5,372.5C 344.833,372.5 342.167,372.5 339.5,372.5C 336.038,371.518 332.371,371.185 328.5,371.5C 328.425,368.794 328.092,366.127 327.5,363.5C 333.246,360.888 338.913,361.388 344.5,365C 346.141,366.129 347.141,367.629 347.5,369.5 Z"/></g>
<g><path style="opacity:1" fill="#413834" d="M 209.5,368.5 C 209.842,369.338 210.508,369.672 211.5,369.5C 207.642,370.294 203.642,370.96 199.5,371.5C 199.833,370.833 200.167,370.167 200.5,369.5C 203.455,368.841 206.455,368.508 209.5,368.5 Z"/></g>
<g><path style="opacity:1" fill="#545354" d="M 291.5,368.5 C 294.649,368.211 297.649,368.711 300.5,370C 296.833,370.667 293.167,370.667 289.5,370C 290.416,369.722 291.082,369.222 291.5,368.5 Z"/></g>
<g><path style="opacity:1" fill="#d7ccc4" d="M 211.5,369.5 C 212.043,369.56 212.376,369.893 212.5,370.5C 211.372,371.262 210.205,371.929 209,372.5C 208.625,375 207.792,377.333 206.5,379.5C 211.507,379.913 216.507,380.247 221.5,380.5C 221.498,382.537 221.832,384.537 222.5,386.5C 221.458,387.791 220.292,387.791 219,386.5C 218.808,384.423 218.308,382.423 217.5,380.5C 216.551,383.126 216.551,385.792 217.5,388.5C 211.638,389.805 209.138,387.472 210,381.5C 209.617,382.056 209.117,382.389 208.5,382.5C 205.223,382.784 202.057,382.451 199,381.5C 198.192,377.973 198.359,374.64 199.5,371.5C 203.642,370.96 207.642,370.294 211.5,369.5 Z"/></g>
<g><path style="opacity:1" fill="#bdaa9d" d="M 324.5,348.5 C 325.908,349.911 326.908,351.577 327.5,353.5C 325.5,357.5 323.5,361.5 321.5,365.5C 322.092,367.423 323.092,369.089 324.5,370.5C 325.703,373.173 325.703,375.84 324.5,378.5C 320.893,379.489 317.226,379.823 313.5,379.5C 313.407,375.032 312.907,370.699 312,366.5C 316.929,360.957 321.096,354.957 324.5,348.5 Z"/></g>
<g><path style="opacity:1" fill="#a48f82" d="M 233.5,366.5 C 234.749,368.136 236.416,369.303 238.5,370C 248.399,373.61 258.066,373.11 267.5,368.5C 268.637,372.382 268.637,376.216 267.5,380C 256.833,380.667 246.167,380.667 235.5,380C 233.601,375.822 232.935,371.322 233.5,366.5 Z"/></g>
<g><path style="opacity:1" fill="#b7a7a0" d="M 327.5,372.5 C 330.127,373.092 332.794,373.425 335.5,373.5C 335.046,375.741 335.046,377.741 335.5,379.5C 332.713,380.477 329.713,380.81 326.5,380.5C 327.092,377.873 327.425,375.206 327.5,372.5 Z"/></g>
<g><path style="opacity:1" fill="#d0c9c2" d="M 347.5,369.5 C 348.931,376.736 345.931,379.736 338.5,378.5C 339.348,376.591 339.682,374.591 339.5,372.5C 342.167,372.5 344.833,372.5 347.5,372.5C 347.5,371.5 347.5,370.5 347.5,369.5 Z"/></g>
<g><path style="opacity:1" fill="#bfafa8" d="M 271.5,329.5 C 270.715,333.596 271.882,336.93 275,339.5C 276.447,350.16 276.781,360.827 276,371.5C 278.114,377.272 282.281,380.272 288.5,380.5C 289.172,381.949 289.839,383.282 290.5,384.5C 290.461,385.583 290.127,386.583 289.5,387.5C 287.5,388.833 285.5,388.833 283.5,387.5C 284.724,385.161 284.724,382.828 283.5,380.5C 283.024,383.184 282.024,385.517 280.5,387.5C 276.621,386.456 273.788,384.123 272,380.5C 270.365,363.353 270.199,346.353 271.5,329.5 Z"/></g>
<g><path style="opacity:0.999" fill="#2f1b39" d="M 279.5,466.5 C 277.369,467.314 275.036,467.814 272.5,468C 256.994,468.828 241.661,468.661 226.5,467.5C 244.177,467.594 261.844,467.26 279.5,466.5 Z"/></g>
</svg>
