<?xml version="1.0" encoding="UTF-8"?>
<!DOCTYPE svg PUBLIC "-//W3C//DTD SVG 1.1//EN" "http://www.w3.org/Graphics/SVG/1.1/DTD/svg11.dtd">
<svg xmlns="http://www.w3.org/2000/svg" version="1.1" width="500px" height="500px" style="shape-rendering:geometricPrecision; text-rendering:geometricPrecision; image-rendering:optimizeQuality; fill-rule:evenodd; clip-rule:evenodd" xmlns:xlink="http://www.w3.org/1999/xlink">
<g><path style="opacity:0.961" fill="#050706" d="M 237.5,26.5 C 315.211,25.2059 378.378,54.5392 427,114.5C 473.487,179.292 484.154,249.626 459,325.5C 430.676,397.158 379.51,443.658 305.5,465C 217.969,484.041 143.469,461.208 82,396.5C 27.4939,330.017 13.4939,255.684 40,173.5C 68.7885,100.716 120.955,53.8822 196.5,33C 210.209,30.1584 223.876,27.9918 237.5,26.5 Z"/></g>
<g><path style="opacity:1" fill="#f2f3f2" d="M 231.5,33.5 C 305.638,30.2496 367.138,56.2496 416,111.5C 466.803,176.991 478.47,248.991 451,327.5C 417.937,405.475 359.437,450.975 275.5,464C 198.271,470.823 134.105,445.323 83,387.5C 36.8057,328.034 23.139,261.701 42,188.5C 69.2289,106.938 124.729,56.4381 208.5,37C 216.331,35.9541 223.997,34.7874 231.5,33.5 Z"/></g>
<g><path style="opacity:1" fill="#010101" d="M 229.5,40.5 C 303.258,36.3408 364.091,62.0075 412,117.5C 461.834,183.875 471.501,255.875 441,333.5C 407.046,405.435 350.546,446.602 271.5,457C 182.619,463.145 114.785,428.645 68,353.5C 34.4349,290.405 31.7682,226.072 60,160.5C 95.6101,91.0654 152.11,51.0654 229.5,40.5 Z"/></g>
<g><path style="opacity:1" fill="#f4f4f4" d="M 235.5,114.5 C 306.337,112.557 354.17,144.557 379,210.5C 392.646,266.44 378.479,313.94 336.5,353C 294.918,385.076 249.251,392.409 199.5,375C 144,349.871 115.667,306.704 114.5,245.5C 118.719,189.472 146.052,149.306 196.5,125C 209.336,120.377 222.336,116.877 235.5,114.5 Z"/></g>
<g><path style="opacity:1" fill="#050505" d="M 357.5,185.5 C 372.992,211.013 378.492,238.679 374,268.5C 365.243,314.244 339.743,346.744 297.5,366C 292.118,367.738 286.785,369.572 281.5,371.5C 322.997,343.33 347.497,303.664 355,252.5C 358.346,230.246 359.179,207.913 357.5,185.5 Z"/></g>
<g><path style="opacity:1" fill="#050505" d="M 139.5,187.5 C 139.751,210.097 141.251,232.764 144,255.5C 149.166,288.154 162.166,317.154 183,342.5C 193.389,353.899 205.222,363.399 218.5,371C 178.344,360.185 149.844,335.685 133,297.5C 118.449,259.729 120.615,223.063 139.5,187.5 Z"/></g>
<g><path style="opacity:1" fill="#0d0d0d" d="M 246.5,148.5 C 281.551,158.628 316.551,168.961 351.5,179.5C 355.66,216.568 352.16,252.902 341,288.5C 328.578,325.255 305.078,352.421 270.5,370C 263.677,373.497 256.51,375.997 249,377.5C 204.72,363.889 174.72,335.222 159,291.5C 146.797,255.026 142.964,217.692 147.5,179.5C 180.756,169.747 213.756,159.413 246.5,148.5 Z"/></g>
<g><path style="opacity:1" fill="#f9f9f9" d="M 248.5,154.5 C 280.549,164.294 312.549,174.294 344.5,184.5C 350.131,221.314 346.631,257.314 334,292.5C 318.472,332.697 290.139,359.03 249,371.5C 201.413,355.576 171.413,323.243 159,274.5C 151.262,244.526 149.762,214.359 154.5,184C 185.977,174.228 217.31,164.394 248.5,154.5 Z"/></g>
<g><path style="opacity:1" fill="#4b4b4b" d="M 206.5,327.5 C 211.305,328.487 216.305,328.821 221.5,328.5C 214.93,329.893 208.263,329.726 201.5,328C 203.134,327.506 204.801,327.34 206.5,327.5 Z"/></g>
<g><path style="opacity:1" fill="#adadad" d="M 277.5,201.5 C 278.209,202.404 279.209,202.737 280.5,202.5C 274.651,204.049 268.985,203.215 263.5,200C 262.304,199.346 262.304,198.846 263.5,198.5C 267.8,201.091 272.467,202.091 277.5,201.5 Z"/></g>
<g><path style="opacity:1" fill="#6a6a6a" d="M 300.5,198.5 C 302.859,199.176 305.192,200.009 307.5,201C 301.879,200.711 296.212,200.544 290.5,200.5C 293.833,199.833 297.167,199.167 300.5,198.5 Z"/></g>
<g><path style="opacity:1" fill="#0b0b0b" d="M 300.5,198.5 C 297.167,199.167 293.833,199.833 290.5,200.5C 286.176,200.927 281.842,201.261 277.5,201.5C 272.467,202.091 267.8,201.091 263.5,198.5C 262.304,198.846 262.304,199.346 263.5,200C 268.985,203.215 274.651,204.049 280.5,202.5C 292.501,200.556 302.668,203.89 311,212.5C 312.626,215.058 313.626,217.725 314,220.5C 308.429,214.463 301.596,211.296 293.5,211C 302.825,213.682 309.658,219.182 314,227.5C 310.395,223.279 305.895,220.446 300.5,219C 293.547,217.837 286.547,217.337 279.5,217.5C 274.263,217.432 269.263,216.599 264.5,215C 268.67,217.938 273.337,219.438 278.5,219.5C 305.311,218.814 319.478,231.814 321,258.5C 316.644,246.4 308.144,239.066 295.5,236.5C 294.757,239.169 295.091,241.836 296.5,244.5C 316.619,254.731 322.786,270.397 315,291.5C 317.713,278.642 313.88,268.142 303.5,260C 302.833,259.333 302.167,259.333 301.5,260C 310.013,268.884 312.846,279.384 310,291.5C 309.271,296.021 307.937,300.354 306,304.5C 308.488,294.676 307.821,285.009 304,275.5C 297.667,266.5 291.333,257.5 285,248.5C 285.427,252.381 286.76,256.047 289,259.5C 293.738,264.64 297.738,270.307 301,276.5C 304.174,285.457 304.174,294.457 301,303.5C 297.65,310.864 294.317,318.197 291,325.5C 289.012,321.776 288.179,317.776 288.5,313.5C 291.173,299.854 289.507,286.854 283.5,274.5C 281.887,271.714 280.054,269.047 278,266.5C 279.197,269.899 280.697,273.232 282.5,276.5C 288.972,293.897 285.639,309.064 272.5,322C 262.918,331.125 251.584,336.459 238.5,338C 251.887,332.014 258.887,321.847 259.5,307.5C 257.998,308.083 256.665,308.916 255.5,310C 255.957,310.414 256.291,310.914 256.5,311.5C 247.526,332.321 231.86,340.488 209.5,336C 220.21,335.1 229.543,331.1 237.5,324C 232.559,326.362 227.226,327.862 221.5,328.5C 216.305,328.821 211.305,328.487 206.5,327.5C 224.046,326.928 236.046,318.595 242.5,302.5C 250.259,297.715 252.759,291.048 250,282.5C 249.536,287.096 248.203,291.429 246,295.5C 241.652,301.549 237.485,307.716 233.5,314C 224.553,320.538 214.553,323.871 203.5,324C 215.495,321.594 225.329,315.761 233,306.5C 235.752,301.822 237.085,296.822 237,291.5C 231.555,305.619 221.722,314.786 207.5,319C 217.651,314.538 224.484,307.038 228,296.5C 228.79,293.366 228.457,290.366 227,287.5C 225.299,298.062 220.132,306.562 211.5,313C 206.825,316.34 201.825,319.173 196.5,321.5C 195.304,321.154 195.304,320.654 196.5,320C 207.011,314.139 210.844,305.306 208,293.5C 209.494,294.747 210.994,294.747 212.5,293.5C 211.754,292.264 211.421,290.93 211.5,289.5C 214.32,289.752 216.986,289.252 219.5,288C 220.576,286.274 220.743,284.441 220,282.5C 218.818,284.357 217.151,285.357 215,285.5C 211.512,284.673 208.346,283.173 205.5,281C 202.167,280.333 198.833,280.333 195.5,281C 190.734,284.528 190.234,288.695 194,293.5C 195.351,295.019 196.851,296.352 198.5,297.5C 199.258,296.189 200.258,295.689 201.5,296C 209.904,302.833 209.237,305.167 199.5,303C 189.243,298.984 185.576,291.817 188.5,281.5C 181.142,273.591 177.642,264.258 178,253.5C 179.961,250.537 182.294,247.871 185,245.5C 184.83,240.267 185.997,235.433 188.5,231C 187.483,228.213 187.316,225.38 188,222.5C 191.385,218.783 194.385,214.783 197,210.5C 195.433,203.297 196.767,196.63 201,190.5C 207.657,182.259 216.157,177.259 226.5,175.5C 227.167,175.5 227.5,175.833 227.5,176.5C 219.513,179.655 214.013,185.322 211,193.5C 210.333,195.5 210.333,197.5 211,199.5C 220.515,180.99 235.682,172.824 256.5,175C 246.992,175.421 238.992,179.088 232.5,186C 235.657,184.422 238.99,182.755 242.5,181C 251.05,178.716 259.384,179.383 267.5,183C 273.941,188.222 281.274,191.222 289.5,192C 278.352,194.726 267.685,193.393 257.5,188C 246.135,185.79 236.468,188.79 228.5,197C 223.227,199.39 222.56,198.724 226.5,195C 220.638,195.528 217.472,198.695 217,204.5C 220.848,201.198 225.348,199.698 230.5,200C 235.288,194.024 241.455,190.524 249,189.5C 256.528,191.452 264.028,193.619 271.5,196C 281.215,196.458 290.881,197.292 300.5,198.5 Z"/></g>
<g><path style="opacity:1" fill="#c9c9c9" d="M 269.5,296.5 C 271.506,301.001 270.172,304.334 265.5,306.5C 266.102,303.232 267.436,299.898 269.5,296.5 Z"/></g>
<g><path style="opacity:1" fill="#e0e0e0" d="M 259.5,283.5 C 260.473,285.948 260.806,288.615 260.5,291.5C 259.98,295.538 258.147,298.872 255,301.5C 255.646,298.505 256.646,295.505 258,292.5C 258.696,289.522 259.196,286.522 259.5,283.5 Z"/></g>
<g><path style="opacity:1" fill="#8e8e8e" d="M 260.5,291.5 C 260.806,288.615 260.473,285.948 259.5,283.5C 259.34,281.801 259.506,280.134 260,278.5C 261.724,282.898 261.891,287.231 260.5,291.5 Z"/></g>
<g><path style="opacity:1" fill="#d2d2d2" d="M 276.5,249.5 C 282.718,258.909 289.218,268.242 296,277.5C 298,282.5 298,287.5 296,292.5C 295.954,286.649 294.954,280.983 293,275.5C 288.817,269.138 284.15,263.138 279,257.5C 277.293,255.091 276.46,252.425 276.5,249.5 Z"/></g>
<g><path style="opacity:1" fill="#e4e4e4" d="M 275.5,274.5 C 276.793,275.842 277.626,277.509 278,279.5C 280.397,290.416 278.063,300.083 271,308.5C 271.361,305.076 272.361,301.742 274,298.5C 274.263,290.467 274.763,282.467 275.5,274.5 Z"/></g>
<g><path style="opacity:1" fill="#b3b3b3" d="M 283.5,274.5 C 282.662,274.842 282.328,275.508 282.5,276.5C 280.697,273.232 279.197,269.899 278,266.5C 280.054,269.047 281.887,271.714 283.5,274.5 Z"/></g>
<g><path style="opacity:1" fill="#d4d4d4" d="M 257.5,250.5 C 267.383,259.655 270.217,270.655 266,283.5C 267.055,271.385 264.222,260.385 257.5,250.5 Z"/></g>
<g><path style="opacity:1" fill="#dbdbdb" d="M 182.5,260.5 C 187.224,262.576 190.058,266.242 191,271.5C 191.798,273.259 191.631,274.926 190.5,276.5C 186.235,271.97 183.568,266.637 182.5,260.5 Z"/></g>
<g><path style="opacity:1" fill="#dedede" d="M 259.5,240.5 C 259.897,239.475 260.563,239.308 261.5,240C 267.246,245.323 270.412,251.823 271,259.5C 266.443,253.529 262.61,247.196 259.5,240.5 Z"/></g>
<g><path style="opacity:1" fill="#e7e7e7" d="M 274.5,232.5 C 279.189,235.988 280.689,240.655 279,246.5C 277.09,242.002 275.59,237.336 274.5,232.5 Z"/></g>
<g><path style="opacity:1" fill="#e1e1e1" d="M 263.5,222.5 C 263.56,221.957 263.893,221.624 264.5,221.5C 271.446,225.364 278.446,229.03 285.5,232.5C 289.895,236.615 292.062,241.615 292,247.5C 290.384,242.221 287.551,237.721 283.5,234C 276.643,230.408 269.976,226.574 263.5,222.5 Z"/></g>
<g><path style="opacity:1" fill="#e2e2e2" d="M 255.5,229.5 C 256.721,228.535 258.054,228.702 259.5,230C 264.072,233.195 266.905,237.362 268,242.5C 263.224,238.707 259.057,234.374 255.5,229.5 Z"/></g>
<g><path style="opacity:1" fill="#dbdbdb" d="M 286.5,226.5 C 291.038,226.431 295.038,228.264 298.5,232C 296.155,232.17 293.821,231.837 291.5,231C 289.963,229.293 288.296,227.793 286.5,226.5 Z"/></g>
<g><path style="opacity:1" fill="#d5d5d5" d="M 243.5,220.5 C 250.921,220.829 257.588,223.662 263.5,229C 256.841,226.491 250.174,223.658 243.5,220.5 Z"/></g>
<g><path style="opacity:1" fill="#b4b4b4" d="M 279.5,217.5 C 279.167,218.167 278.833,218.833 278.5,219.5C 273.337,219.438 268.67,217.938 264.5,215C 269.263,216.599 274.263,217.432 279.5,217.5 Z"/></g>
<g><path style="opacity:1" fill="#f4f4f4" d="M 218.5,208.5 C 224.068,208.846 229.568,208.846 235,208.5C 237.828,210.251 240.495,212.251 243,214.5C 243.667,215.167 243.667,215.833 243,216.5C 240.122,215.311 237.288,213.978 234.5,212.5C 233.167,213.167 232.167,214.167 231.5,215.5C 234.714,218.876 238.381,221.71 242.5,224C 240.423,224.192 238.423,224.692 236.5,225.5C 240.696,227.529 243.696,230.696 245.5,235C 243.613,235.163 242.113,234.329 241,232.5C 241.275,241.549 245.109,248.716 252.5,254C 248.874,253.684 245.207,253.184 241.5,252.5C 239.366,252.515 237.366,253.015 235.5,254C 241.811,254.971 246.478,258.304 249.5,264C 246.821,263.782 244.155,263.115 241.5,262C 238.167,261.333 234.833,261.333 231.5,262C 238.649,262.127 243.482,265.294 246,271.5C 239.967,264.271 232.801,262.771 224.5,267C 228.85,267.359 232.184,269.359 234.5,273C 231.867,272.747 229.2,272.747 226.5,273C 223.167,275 219.833,277 216.5,279C 209.057,279.412 202.057,277.746 195.5,274C 192.682,270.662 191.849,266.829 193,262.5C 195.03,260.263 197.53,258.763 200.5,258C 202.607,256.736 203.607,254.903 203.5,252.5C 198.286,253.925 192.952,254.925 187.5,255.5C 186.167,255.167 184.833,254.833 183.5,254.5C 185.592,251.319 187.925,248.319 190.5,245.5C 188.985,242.263 189.319,239.263 191.5,236.5C 192.308,236.808 192.975,237.308 193.5,238C 190.378,243.311 190.878,244.144 195,240.5C 195.667,237.5 195.667,234.5 195,231.5C 192.073,229.981 191.073,227.647 192,224.5C 195.357,220.48 198.691,216.48 202,212.5C 203.559,213.029 205.059,213.696 206.5,214.5C 210.324,211.921 214.324,209.921 218.5,208.5 Z"/></g>
<g><path style="opacity:1" fill="#858585" d="M 216.5,269.5 C 213.167,270.167 209.833,270.833 206.5,271.5C 205.624,271.631 204.957,271.298 204.5,270.5C 208.445,269.509 212.445,269.176 216.5,269.5 Z"/></g>
<g><path style="opacity:1" fill="#131313" d="M 206.5,271.5 C 209.833,270.833 213.167,270.167 216.5,269.5C 216.804,268.85 217.137,268.183 217.5,267.5C 212.533,266.671 207.533,266.171 202.5,266C 208.643,265.366 214.643,264.2 220.5,262.5C 220.719,261.325 220.386,260.325 219.5,259.5C 215.422,261.771 211.088,262.604 206.5,262C 211.298,260.684 215.631,258.517 219.5,255.5C 218.07,252.567 216.07,250.067 213.5,248C 217.691,249.277 222.024,249.944 226.5,250C 229.913,248.923 232.413,246.756 234,243.5C 234.049,249.468 231.049,253.135 225,254.5C 225.141,261.802 222.641,267.969 217.5,273C 213.742,273.313 210.076,272.813 206.5,271.5 Z"/></g>
<g><path style="opacity:1" fill="#212121" d="M 217.5,217.5 C 218.559,219.07 218.059,220.403 216,221.5C 215.505,223.473 215.338,225.473 215.5,227.5C 219.514,227.334 223.514,227.501 227.5,228C 230.387,229.276 231.554,231.443 231,234.5C 227.088,230.407 223.588,230.907 220.5,236C 216.155,236.56 212.488,238.393 209.5,241.5C 209.167,241.167 208.833,240.833 208.5,240.5C 211.142,235.192 212.642,229.525 213,223.5C 214.332,221.34 215.832,219.34 217.5,217.5 Z"/></g>
<g><path style="opacity:1" fill="#c5c5c5" d="M 214.5,232.5 C 219.519,234.505 219.186,235.172 213.5,234.5C 213.863,233.817 214.196,233.15 214.5,232.5 Z"/></g>
<g><path style="opacity:1" fill="#212121" d="M 198.5,220.5 C 199.947,221.134 200.613,222.301 200.5,224C 199.877,227.481 199.377,230.981 199,234.5C 198.501,229.845 198.334,225.179 198.5,220.5 Z"/></g>
<g><path style="opacity:1" fill="#434343" d="M 204.5,221.5 C 205.124,221.917 205.457,222.584 205.5,223.5C 204.936,225.819 204.436,228.153 204,230.5C 203.009,229.57 202.509,228.404 202.5,227C 202.954,225.061 203.621,223.228 204.5,221.5 Z"/></g>
<g><path style="opacity:1" fill="#dbdbdb" d="M 263.5,203.5 C 268.428,208.461 274.428,210.961 281.5,211C 273.181,213.926 267.181,211.426 263.5,203.5 Z"/></g>
<g><path style="opacity:1" fill="#d4d4d4" d="M 206.5,192.5 C 207.239,192.369 207.906,192.536 208.5,193C 207.106,194.739 206.439,196.739 206.5,199C 206.87,200.896 207.037,202.729 207,204.5C 205.092,203.182 204.258,201.348 204.5,199C 204.482,196.558 205.149,194.392 206.5,192.5 Z"/></g>
<g><path style="opacity:1" fill="#e5e5e5" d="M 245.5,196.5 C 258.025,196.619 260.858,201.952 254,212.5C 253.921,219.912 252.755,220.246 250.5,213.5C 251.404,210.289 252.404,207.123 253.5,204C 253.491,202.596 252.991,201.43 252,200.5C 249.286,207.365 247.952,207.032 248,199.5C 235.305,206.746 234.472,205.746 245.5,196.5 Z"/></g>
<g><path style="opacity:1" fill="#929292" d="M 226.5,175.5 C 228.288,174.378 230.288,174.211 232.5,175C 230.846,175.608 229.179,176.108 227.5,176.5C 227.5,175.833 227.167,175.5 226.5,175.5 Z"/></g>
<g><path style="opacity:1" fill="#040404" d="M 234.5,123.5 C 281.583,120.391 319.916,136.891 349.5,173C 316.036,163.071 282.536,152.904 249,142.5C 216.467,152.4 183.967,162.4 151.5,172.5C 150.479,171.998 150.312,171.332 151,170.5C 172.932,144.413 200.765,128.746 234.5,123.5 Z"/></g>
</svg>
