<?xml version="1.0" encoding="UTF-8"?>
<!DOCTYPE svg PUBLIC "-//W3C//DTD SVG 1.1//EN" "http://www.w3.org/Graphics/SVG/1.1/DTD/svg11.dtd">
<svg xmlns="http://www.w3.org/2000/svg" version="1.1" width="500px" height="500px" style="shape-rendering:geometricPrecision; text-rendering:geometricPrecision; image-rendering:optimizeQuality; fill-rule:evenodd; clip-rule:evenodd" xmlns:xlink="http://www.w3.org/1999/xlink">
<g><path style="opacity:1" fill="#020100" d="M 165.5,79.5 C 166.5,79.5 167.5,79.5 168.5,79.5C 169.018,80.5774 169.352,81.7441 169.5,83C 168.086,87.3304 166.253,91.497 164,95.5C 163.663,103.852 167.83,108.685 176.5,110C 184.028,112.062 191.694,112.895 199.5,112.5C 208.986,113.494 218.652,113.827 228.5,113.5C 228.824,106.646 228.491,99.979 227.5,93.5C 223.354,92.353 219.02,92.1864 214.5,93C 212.768,95.2259 211.768,94.8925 211.5,92C 211.8,84.6988 215.467,80.0321 222.5,78C 234.069,77.2442 245.569,76.0775 257,74.5C 258.412,76.161 258.079,77.8277 256,79.5C 255.333,80.5 255.333,81.5 256,82.5C 262.696,92.6781 269.53,102.678 276.5,112.5C 290.409,113.967 304.409,113.467 318.5,111C 321.79,110.275 324.79,109.108 327.5,107.5C 332.051,106.449 334.718,103.615 335.5,99C 334.376,94.2457 332.542,89.7457 330,85.5C 329.505,83.5273 329.338,81.5273 329.5,79.5C 362.306,82.392 391.806,74.0586 418,54.5C 420.751,63.3165 418.585,70.8165 411.5,77C 409.102,78.5242 406.769,80.0242 404.5,81.5C 398.816,83.8972 393.149,86.3972 387.5,89C 395.38,88.1018 403.213,86.6018 411,84.5C 411.5,84.8333 412,85.1667 412.5,85.5C 411.873,86.4168 411.539,87.4168 411.5,88.5C 404.809,99.3641 395.476,107.197 383.5,112C 392.764,111.789 400.93,108.623 408,102.5C 405.093,113.751 398.593,122.585 388.5,129C 379.672,132.665 370.672,135.831 361.5,138.5C 367.484,141.104 373.484,143.604 379.5,146C 370.457,154.021 360.124,159.688 348.5,163C 344.179,163.499 339.846,163.666 335.5,163.5C 331.7,162.221 327.7,161.721 323.5,162C 325.743,163.136 328.076,163.97 330.5,164.5C 333.007,165.892 335.673,166.892 338.5,167.5C 338.53,168.497 338.03,169.164 337,169.5C 324.051,172.347 311.217,171.847 298.5,168C 293.306,165.909 288.639,163.076 284.5,159.5C 283.833,158.167 282.833,157.167 281.5,156.5C 280.488,152.296 278.988,148.296 277,144.5C 269.309,150.698 261.809,157.031 254.5,163.5C 252.606,164.048 250.94,165.048 249.5,166.5C 242.078,160.399 234.411,154.732 226.5,149.5C 225.207,147.704 223.707,146.037 222,144.5C 219.054,156.116 211.888,163.949 200.5,168C 189.041,171.264 177.374,172.264 165.5,171C 163.5,170.167 161.5,169.333 159.5,168.5C 162.348,167.341 165.015,166.008 167.5,164.5C 170.311,164.174 172.978,163.341 175.5,162C 170.652,161.817 165.986,162.317 161.5,163.5C 154.99,163.93 148.656,163.097 142.5,161C 134.351,156.338 126.351,151.505 118.5,146.5C 124.162,143.341 130.162,140.674 136.5,138.5C 127.352,135.795 118.352,132.628 109.5,129C 102.152,122.993 96.3186,115.827 92,107.5C 91.2115,105.835 90.8782,104.169 91,102.5C 98.0867,108.633 106.253,111.8 115.5,112C 102.133,107.13 92.4663,98.2962 86.5,85.5C 86.7352,84.9033 87.2352,84.5699 88,84.5C 95.7694,86.6544 103.603,88.1544 111.5,89C 103.781,85.4715 96.1144,81.9715 88.5,78.5C 80.5204,72.2086 78.0204,64.2086 81,54.5C 105.948,73.2838 134.115,81.6171 165.5,79.5 Z"/></g>
<g><path style="opacity:1" fill="#b48129" d="M 164.5,73.5 C 165.391,74.1098 166.391,74.4431 167.5,74.5C 173.399,77.2034 174.899,81.5367 172,87.5C 171.667,85.1667 171.333,82.8333 171,80.5C 170.329,79.7476 169.496,79.4142 168.5,79.5C 167.5,79.5 166.5,79.5 165.5,79.5C 165.082,78.7784 164.416,78.2784 163.5,78C 152.735,77.4955 142.069,76.4955 131.5,75C 142.674,74.8305 153.674,74.3305 164.5,73.5 Z"/></g>
<g><path style="opacity:1" fill="#947036" d="M 88.5,78.5 C 96.1144,81.9715 103.781,85.4715 111.5,89C 103.603,88.1544 95.7694,86.6544 88,84.5C 87.2352,84.5699 86.7352,84.9033 86.5,85.5C 85.9569,85.44 85.6236,85.1067 85.5,84.5C 86.5,84.1667 87.5,83.8333 88.5,83.5C 91.1541,84.2675 93.8208,84.4342 96.5,84C 93.3315,82.6267 90.6648,80.7934 88.5,78.5 Z"/></g>
<g><path style="opacity:1" fill="#ad7e30" d="M 269.5,92.5 C 271.771,96.8645 274.438,101.031 277.5,105C 283.592,107.532 289.925,108.699 296.5,108.5C 302.206,108.171 307.872,108.505 313.5,109.5C 301.23,111.205 288.896,112.205 276.5,112.5C 269.53,102.678 262.696,92.6781 256,82.5C 255.333,81.5 255.333,80.5 256,79.5C 258.079,77.8277 258.412,76.161 257,74.5C 245.569,76.0775 234.069,77.2442 222.5,78C 215.467,80.0321 211.8,84.6988 211.5,92C 211.768,94.8925 212.768,95.2259 214.5,93C 219.02,92.1864 223.354,92.353 227.5,93.5C 227.5,99.8333 227.5,106.167 227.5,112.5C 218.167,112.5 208.833,112.5 199.5,112.5C 191.694,112.895 184.028,112.062 176.5,110C 167.83,108.685 163.663,103.852 164,95.5C 166.253,91.497 168.086,87.3304 169.5,83C 169.352,81.7441 169.018,80.5774 168.5,79.5C 169.496,79.4142 170.329,79.7476 171,80.5C 171.333,82.8333 171.667,85.1667 172,87.5C 174.899,81.5367 173.399,77.2034 167.5,74.5C 172.214,74.711 174.88,77.211 175.5,82C 173.13,88.2104 170.963,94.3771 169,100.5C 174.289,103.993 180.122,105.659 186.5,105.5C 196.657,108.548 206.99,108.881 217.5,106.5C 219.861,106.326 222.194,105.993 224.5,105.5C 224.5,102.833 224.5,100.167 224.5,97.5C 221.615,97.1936 218.948,97.5269 216.5,98.5C 213.344,99.8712 210.344,99.5379 207.5,97.5C 204.434,82.1634 210.768,73.6634 226.5,72C 232.329,70.6636 238.162,70.4969 244,71.5C 248.788,71.0356 253.455,70.0356 258,68.5C 260.915,69.0828 262.915,70.7495 264,73.5C 263.667,76.8333 263.333,80.1667 263,83.5C 265.176,86.5294 267.343,89.5294 269.5,92.5 Z"/></g>
<g><path style="opacity:0.965" fill="#080301" d="M 269.5,92.5 C 284.279,96.4259 298.945,100.759 313.5,105.5C 307.863,106.697 302.196,107.697 296.5,108.5C 289.925,108.699 283.592,107.532 277.5,105C 274.438,101.031 271.771,96.8645 269.5,92.5 Z"/></g>
<g><path style="opacity:0.987" fill="#0b0401" d="M 207.5,97.5 C 210.344,99.5379 213.344,99.8712 216.5,98.5C 218.5,98.5 220.5,98.5 222.5,98.5C 223.193,102.853 221.526,105.52 217.5,106.5C 206.99,108.881 196.657,108.548 186.5,105.5C 193.977,103.572 200.977,100.905 207.5,97.5 Z"/></g>
<g><path style="opacity:1" fill="#806027" d="M 216.5,98.5 C 218.948,97.5269 221.615,97.1936 224.5,97.5C 224.5,100.167 224.5,102.833 224.5,105.5C 222.194,105.993 219.861,106.326 217.5,106.5C 221.526,105.52 223.193,102.853 222.5,98.5C 220.5,98.5 218.5,98.5 216.5,98.5 Z"/></g>
<g><path style="opacity:1" fill="#9d742f" d="M 313.5,105.5 C 314.833,105.5 316.167,105.5 317.5,105.5C 317.64,107.124 316.973,108.29 315.5,109C 319.473,108.709 323.473,108.209 327.5,107.5C 324.79,109.108 321.79,110.275 318.5,111C 304.409,113.467 290.409,113.967 276.5,112.5C 288.896,112.205 301.23,111.205 313.5,109.5C 307.872,108.505 302.206,108.171 296.5,108.5C 302.196,107.697 307.863,106.697 313.5,105.5 Z"/></g>
<g><path style="opacity:1" fill="#7c5c26" d="M 227.5,93.5 C 228.491,99.979 228.824,106.646 228.5,113.5C 218.652,113.827 208.986,113.494 199.5,112.5C 208.833,112.5 218.167,112.5 227.5,112.5C 227.5,106.167 227.5,99.8333 227.5,93.5 Z"/></g>
<g><path style="opacity:1" fill="#aa7d31" d="M 395.5,131.5 C 391.522,133.489 387.522,135.489 383.5,137.5C 387.856,139.392 392.189,141.058 396.5,142.5C 396.833,143.167 397.167,143.833 397.5,144.5C 395.633,144.045 393.8,143.378 392,142.5C 390.596,142.509 389.43,143.009 388.5,144C 391.091,146.117 393.758,147.95 396.5,149.5C 392.837,148.659 389.17,148.159 385.5,148C 370.685,160.242 354.018,169.075 335.5,174.5C 341.325,171.944 346.992,168.944 352.5,165.5C 346.863,164.337 341.196,164.17 335.5,165C 336.942,165.377 337.942,166.21 338.5,167.5C 335.673,166.892 333.007,165.892 330.5,164.5C 331.919,163.549 333.585,163.216 335.5,163.5C 339.846,163.666 344.179,163.499 348.5,163C 360.124,159.688 370.457,154.021 379.5,146C 373.484,143.604 367.484,141.104 361.5,138.5C 370.672,135.831 379.672,132.665 388.5,129C 398.593,122.585 405.093,113.751 408,102.5C 400.93,108.623 392.764,111.789 383.5,112C 395.476,107.197 404.809,99.3641 411.5,88.5C 413.213,87.3646 413.88,85.698 413.5,83.5C 410.781,83.3975 408.115,83.7308 405.5,84.5C 403.197,84.1237 402.863,83.1237 404.5,81.5C 406.769,80.0242 409.102,78.5242 411.5,77C 418.585,70.8165 420.751,63.3165 418,54.5C 391.806,74.0586 362.306,82.392 329.5,79.5C 329.338,81.5273 329.505,83.5273 330,85.5C 332.542,89.7457 334.376,94.2457 335.5,99C 334.718,103.615 332.051,106.449 327.5,107.5C 323.473,108.209 319.473,108.709 315.5,109C 316.973,108.29 317.64,107.124 317.5,105.5C 322.477,104.844 326.81,102.844 330.5,99.5C 327.203,94.0691 324.869,88.2358 323.5,82C 323.795,79.0766 325.129,76.7432 327.5,75C 362.222,77.2567 393.222,67.7567 420.5,46.5C 422.48,48.7948 423.647,51.4615 424,54.5C 424.667,59.1667 424.667,63.8333 424,68.5C 422.118,76.9279 419.118,84.9279 415,92.5C 415.224,102.109 412.557,110.775 407,118.5C 403.33,123.002 399.497,127.335 395.5,131.5 Z"/></g>
<g><path style="opacity:1" fill="#967138" d="M 404.5,81.5 C 402.863,83.1237 403.197,84.1237 405.5,84.5C 408.115,83.7308 410.781,83.3975 413.5,83.5C 413.88,85.698 413.213,87.3646 411.5,88.5C 411.539,87.4168 411.873,86.4168 412.5,85.5C 412,85.1667 411.5,84.8333 411,84.5C 403.213,86.6018 395.38,88.1018 387.5,89C 393.149,86.3972 398.816,83.8972 404.5,81.5 Z"/></g>
<g><path style="opacity:1" fill="#ab7d32" d="M 164.5,73.5 C 153.674,74.3305 142.674,74.8305 131.5,75C 142.069,76.4955 152.735,77.4955 163.5,78C 164.416,78.2784 165.082,78.7784 165.5,79.5C 134.115,81.6171 105.948,73.2838 81,54.5C 78.0204,64.2086 80.5204,72.2086 88.5,78.5C 90.6648,80.7934 93.3315,82.6267 96.5,84C 93.8208,84.4342 91.1541,84.2675 88.5,83.5C 87.5,83.8333 86.5,84.1667 85.5,84.5C 85.6236,85.1067 85.9569,85.44 86.5,85.5C 92.4663,98.2962 102.133,107.13 115.5,112C 106.253,111.8 98.0867,108.633 91,102.5C 90.8782,104.169 91.2115,105.835 92,107.5C 96.3186,115.827 102.152,122.993 109.5,129C 118.352,132.628 127.352,135.795 136.5,138.5C 130.162,140.674 124.162,143.341 118.5,146.5C 117.596,145.791 117.263,144.791 117.5,143.5C 121.75,142.096 126.083,140.93 130.5,140C 130.957,139.586 131.291,139.086 131.5,138.5C 126.705,136.345 121.705,135.012 116.5,134.5C 117.167,138.5 115.5,140.167 111.5,139.5C 112.808,138.768 114.142,137.934 115.5,137C 111.328,135.412 107.328,133.579 103.5,131.5C 96.3091,124.478 90.4758,116.478 86,107.5C 86.0329,100.326 84.3662,93.6592 81,87.5C 76.2689,76.9804 74.2689,65.9804 75,54.5C 75.6888,51.5919 76.8555,48.9252 78.5,46.5C 94.3051,58.7349 111.972,67.2349 131.5,72C 142.467,73.2087 153.467,73.7087 164.5,73.5 Z"/></g>
<g><path style="opacity:0.964" fill="#040201" d="M 103.5,131.5 C 107.328,133.579 111.328,135.412 115.5,137C 114.142,137.934 112.808,138.768 111.5,139.5C 110.833,139.5 110.167,139.5 109.5,139.5C 106.603,140.129 103.936,141.129 101.5,142.5C 97.4867,141.832 95.4867,143.499 95.5,147.5C 92.7383,178.181 92.905,208.848 96,239.5C 97.2387,249.752 99.072,259.752 101.5,269.5C 101.5,270.167 101.5,270.833 101.5,271.5C 111.15,320.311 133.484,362.144 168.5,397C 191.874,417.94 218.708,432.774 249,441.5C 311.181,422.66 355.181,383.326 381,323.5C 389.512,302.469 395.678,280.803 399.5,258.5C 400.989,253.383 401.989,248.049 402.5,242.5C 403.579,233.533 404.246,224.533 404.5,215.5C 406.055,191.948 405.555,168.281 403,144.5C 400.993,143.331 398.827,142.665 396.5,142.5C 392.189,141.058 387.856,139.392 383.5,137.5C 387.522,135.489 391.522,133.489 395.5,131.5C 401.171,132.626 406.671,134.292 412,136.5C 415.964,165.769 416.464,195.103 413.5,224.5C 413.833,225.167 414.167,225.833 414.5,226.5C 419.992,229.079 425.325,231.912 430.5,235C 424.658,238.421 418.658,241.588 412.5,244.5C 409.427,259.531 406.093,274.531 402.5,289.5C 402.608,290.442 402.941,291.275 403.5,292C 412.657,296.412 421.657,301.078 430.5,306C 416.745,313.294 402.912,320.461 389,327.5C 361.711,390.734 315.211,432.734 249.5,453.5C 184.154,432.319 137.654,390.319 110,327.5C 96.0882,320.461 82.2548,313.294 68.5,306C 78.1667,300.833 87.8333,295.667 97.5,290.5C 93.144,275.719 89.8106,260.719 87.5,245.5C 81.1667,242 74.8333,238.5 68.5,235C 73.6748,231.912 79.0082,229.079 84.5,226.5C 84.8333,225.333 85.1667,224.167 85.5,223C 82.4146,194.062 83.0812,165.228 87.5,136.5C 92.7238,134.425 98.0571,132.758 103.5,131.5 Z"/></g>
<g><path style="opacity:1" fill="#b58129" d="M 101.5,142.5 C 104.187,142.336 106.854,142.503 109.5,143C 109.957,143.414 110.291,143.914 110.5,144.5C 108.833,145.167 107.167,145.833 105.5,146.5C 104.388,147.265 103.721,148.265 103.5,149.5C 102.833,149.5 102.5,149.833 102.5,150.5C 100.858,156.151 99.6916,162.151 99,168.5C 97.7697,192.269 98.7697,215.936 102,239.5C 102.278,240.416 102.778,241.082 103.5,241.5C 103.5,243.167 103.5,244.833 103.5,246.5C 104.205,253.827 104.372,261.16 104,268.5C 103.764,270.119 102.931,271.119 101.5,271.5C 101.5,270.833 101.5,270.167 101.5,269.5C 99.6096,251.372 97.4429,233.372 95,215.5C 94.3333,200.833 94.3333,186.167 95,171.5C 97.0229,163.526 97.6896,155.526 97,147.5C 97.3477,144.658 98.8477,142.991 101.5,142.5 Z"/></g>
<g><path style="opacity:1" fill="#80602d" d="M 402.5,242.5 C 401.989,248.049 400.989,253.383 399.5,258.5C 399.671,253.804 400.171,249.137 401,244.5C 401.278,243.584 401.778,242.918 402.5,242.5 Z"/></g>
<g><path style="opacity:1" fill="#947030" d="M 396.5,142.5 C 398.827,142.665 400.993,143.331 403,144.5C 405.555,168.281 406.055,191.948 404.5,215.5C 404.832,192.124 403.999,168.791 402,145.5C 400.644,144.62 399.144,144.286 397.5,144.5C 397.167,143.833 396.833,143.167 396.5,142.5 Z"/></g>
<g><path style="opacity:1" fill="#9e7533" d="M 102.5,150.5 C 99.6157,180.877 99.949,211.211 103.5,241.5C 102.778,241.082 102.278,240.416 102,239.5C 98.7697,215.936 97.7697,192.269 99,168.5C 99.6916,162.151 100.858,156.151 102.5,150.5 Z"/></g>
<g><path style="opacity:1" fill="#a97c30" d="M 109.5,139.5 C 109.389,140.117 109.056,140.617 108.5,141C 111.155,142.278 113.155,144.278 114.5,147C 116.129,147.585 117.629,148.419 119,149.5C 119.5,149.333 120,149.167 120.5,149C 119.244,148.583 118.577,147.75 118.5,146.5C 126.351,151.505 134.351,156.338 142.5,161C 148.656,163.097 154.99,163.93 161.5,163.5C 163.735,163.205 165.735,163.539 167.5,164.5C 165.015,166.008 162.348,167.341 159.5,168.5C 161.5,169.333 163.5,170.167 165.5,171C 177.374,172.264 189.041,171.264 200.5,168C 211.888,163.949 219.054,156.116 222,144.5C 223.707,146.037 225.207,147.704 226.5,149.5C 225.07,149.579 223.736,149.246 222.5,148.5C 220.946,150.933 220.28,153.6 220.5,156.5C 222.179,156.285 223.179,156.952 223.5,158.5C 219.06,161.763 214.727,165.263 210.5,169C 193.827,176.942 176.493,178.609 158.5,174C 142.06,167.62 127.06,158.954 113.5,148C 110.038,147.54 106.704,148.04 103.5,149.5C 103.721,148.265 104.388,147.265 105.5,146.5C 107.167,145.833 108.833,145.167 110.5,144.5C 110.291,143.914 109.957,143.414 109.5,143C 106.854,142.503 104.187,142.336 101.5,142.5C 103.936,141.129 106.603,140.129 109.5,139.5 Z"/></g>
<g><path style="opacity:1" fill="#aa7d32" d="M 281.5,156.5 C 278.593,154.685 277.259,152.019 277.5,148.5C 272.586,150.3 268.253,153.134 264.5,157C 266.536,157.454 268.37,158.287 270,159.5C 270.945,159.095 271.612,158.428 272,157.5C 272.71,158.973 273.876,159.64 275.5,159.5C 271.461,164.54 266.794,168.873 261.5,172.5C 261.575,169.593 262.409,166.927 264,164.5C 264.71,165.973 265.876,166.64 267.5,166.5C 267.472,164.418 268.139,162.584 269.5,161C 267.567,160.217 266.067,160.717 265,162.5C 263.383,161.464 263.216,160.297 264.5,159C 264,158.833 263.5,158.667 263,158.5C 260.012,160.006 257.179,161.673 254.5,163.5C 261.809,157.031 269.309,150.698 277,144.5C 278.988,148.296 280.488,152.296 281.5,156.5 Z"/></g>
<g><path style="opacity:1" fill="#a27935" d="M 101.5,142.5 C 98.8477,142.991 97.3477,144.658 97,147.5C 97.6896,155.526 97.0229,163.526 95,171.5C 94.3333,186.167 94.3333,200.833 95,215.5C 97.4429,233.372 99.6096,251.372 101.5,269.5C 99.072,259.752 97.2387,249.752 96,239.5C 92.905,208.848 92.7383,178.181 95.5,147.5C 95.4867,143.499 97.4867,141.832 101.5,142.5 Z"/></g>
<g><path style="opacity:1" fill="#b68128" d="M 397.5,144.5 C 399.144,144.286 400.644,144.62 402,145.5C 403.999,168.791 404.832,192.124 404.5,215.5C 402.862,219.876 402.029,224.542 402,229.5C 401.586,229.957 401.086,230.291 400.5,230.5C 399.399,226.753 399.732,223.087 401.5,219.5C 400.68,201.544 400.18,183.544 400,165.5C 398.797,160.124 397.63,154.791 396.5,149.5C 393.758,147.95 391.091,146.117 388.5,144C 389.43,143.009 390.596,142.509 392,142.5C 393.8,143.378 395.633,144.045 397.5,144.5 Z"/></g>
<g><path style="opacity:1" fill="#030100" d="M 223.5,158.5 C 226.596,164.764 231.263,169.598 237.5,173C 242.057,177.054 246.057,181.554 249.5,186.5C 253.148,181.519 257.148,176.853 261.5,172.5C 266.794,168.873 271.461,164.54 275.5,159.5C 275.56,158.957 275.893,158.624 276.5,158.5C 278.186,159.857 279.852,161.19 281.5,162.5C 287.413,168.962 294.746,173.129 303.5,175C 309.12,175.983 314.787,176.483 320.5,176.5C 325.767,176.713 330.767,176.046 335.5,174.5C 354.018,169.075 370.685,160.242 385.5,148C 389.17,148.159 392.837,148.659 396.5,149.5C 401.08,194.287 398.414,238.62 388.5,282.5C 379.222,320.395 361.555,353.729 335.5,382.5C 334.178,382.33 333.011,382.663 332,383.5C 330.591,382.219 329.091,381.219 327.5,380.5C 328.825,376.872 329.659,373.205 330,369.5C 327.872,372.63 325.372,375.463 322.5,378C 317.022,379.933 311.855,382.433 307,385.5C 308.82,377.614 310.154,369.614 311,361.5C 307.309,366.227 304.142,371.227 301.5,376.5C 300.211,378.248 298.711,378.581 297,377.5C 295.562,378.9 294.729,380.567 294.5,382.5C 289.179,386.489 284.179,390.822 279.5,395.5C 276.402,396.216 273.402,397.216 270.5,398.5C 265.913,396.544 261.246,396.211 256.5,397.5C 253.598,398.784 250.598,399.784 247.5,400.5C 245.366,398.967 242.866,398.3 240,398.5C 236.642,398.423 233.475,399.089 230.5,400.5C 230.5,399.833 230.167,399.5 229.5,399.5C 225.407,397.955 221.407,396.121 217.5,394C 212.925,388.754 207.758,384.254 202,380.5C 203.314,384.142 204.981,387.809 207,391.5C 208.5,394.333 210.667,396.5 213.5,398C 208.845,398.499 204.179,398.666 199.5,398.5C 199.167,398.5 198.833,398.5 198.5,398.5C 193.471,397.66 188.804,395.66 184.5,392.5C 184.167,392.667 183.833,392.833 183.5,393C 184.71,394.039 185.71,395.206 186.5,396.5C 186.48,398.143 187.147,399.476 188.5,400.5C 187.675,401.386 186.675,401.719 185.5,401.5C 163.009,384.559 145.176,363.559 132,338.5C 117.836,309.148 108.336,278.481 103.5,246.5C 103.5,244.833 103.5,243.167 103.5,241.5C 99.949,211.211 99.6157,180.877 102.5,150.5C 102.5,149.833 102.833,149.5 103.5,149.5C 106.704,148.04 110.038,147.54 113.5,148C 127.06,158.954 142.06,167.62 158.5,174C 176.493,178.609 193.827,176.942 210.5,169C 214.727,165.263 219.06,161.763 223.5,158.5 Z"/></g>
<g><path style="opacity:1" fill="#957339" d="M 194.5,192.5 C 205.535,192.816 205.868,193.65 195.5,195C 191.568,199.596 191.568,204.263 195.5,209C 198.226,209.182 200.893,209.682 203.5,210.5C 192.502,213.253 188.002,208.92 190,197.5C 191.025,195.313 192.525,193.646 194.5,192.5 Z"/></g>
<g><path style="opacity:1" fill="#8a6f3c" d="M 334.5,192.5 C 337.572,192.183 340.572,192.516 343.5,193.5C 341.257,194.474 338.924,194.808 336.5,194.5C 336.5,196.167 336.5,197.833 336.5,199.5C 344.807,199.28 347.14,202.78 343.5,210C 340.247,211.656 336.913,211.823 333.5,210.5C 336.107,209.682 338.774,209.182 341.5,209C 343.135,202.471 340.468,199.971 333.5,201.5C 333.264,198.391 333.597,195.391 334.5,192.5 Z"/></g>
<g><path style="opacity:1" fill="#a38045" d="M 207.5,192.5 C 210.898,192.18 214.232,192.513 217.5,193.5C 214.914,194.48 212.247,194.813 209.5,194.5C 209.5,196.5 209.5,198.5 209.5,200.5C 220.167,201.167 220.167,201.833 209.5,202.5C 209.5,204.833 209.5,207.167 209.5,209.5C 212.572,209.183 215.572,209.516 218.5,210.5C 214.893,211.489 211.226,211.823 207.5,211.5C 207.5,205.167 207.5,198.833 207.5,192.5 Z"/></g>
<g><path style="opacity:1" fill="#92763f" d="M 319.5,192.5 C 327.91,190.734 330.743,193.734 328,201.5C 325.5,204 323,206.5 320.5,209C 323.882,209.176 327.215,209.676 330.5,210.5C 326.167,211.833 321.833,211.833 317.5,210.5C 320.096,206.981 322.929,203.648 326,200.5C 327.186,194.744 325.02,193.078 319.5,195.5C 318.438,194.575 318.438,193.575 319.5,192.5 Z"/></g>
<g><path style="opacity:1" fill="#927341" d="M 305.5,192.5 C 310.624,191.464 313.79,193.464 315,198.5C 315.925,203.307 314.758,207.474 311.5,211C 307.525,212.379 304.691,211.213 303,207.5C 302.333,203.5 302.333,199.5 303,195.5C 304.045,194.627 304.878,193.627 305.5,192.5 Z"/></g>
<g><path style="opacity:1" fill="#9a7940" d="M 170.5,192.5 C 171.822,192.33 172.989,192.663 174,193.5C 177,198.167 180,202.833 183,207.5C 183.171,202.467 183.671,197.467 184.5,192.5C 185.496,198.798 185.83,205.132 185.5,211.5C 184.178,211.67 183.011,211.337 182,210.5C 179,205.833 176,201.167 173,196.5C 172.829,201.533 172.329,206.533 171.5,211.5C 170.504,205.202 170.17,198.868 170.5,192.5 Z"/></g>
<g><path style="opacity:1" fill="#81652c" d="M 162.5,192.5 C 163.5,192.5 164.5,192.5 165.5,192.5C 165.5,198.833 165.5,205.167 165.5,211.5C 164.5,211.5 163.5,211.5 162.5,211.5C 162.5,205.167 162.5,198.833 162.5,192.5 Z"/></g>
<g><path style="opacity:1" fill="#0b0301" d="M 306.5,194.5 C 308.722,194.178 310.556,194.845 312,196.5C 312.667,199.833 312.667,203.167 312,206.5C 310.776,209.473 308.776,210.14 306,208.5C 303.953,203.617 304.119,198.95 306.5,194.5 Z"/></g>
<g><path style="opacity:1" fill="#987841" d="M 289.5,192.5 C 297.93,191.428 300.43,194.761 297,202.5C 294.833,204.667 292.667,206.833 290.5,209C 293.553,209.179 296.553,209.679 299.5,210.5C 295.555,211.491 291.555,211.824 287.5,211.5C 288.949,207.528 291.449,204.194 295,201.5C 296.582,199.376 296.749,197.21 295.5,195C 292.723,194.949 290.057,194.782 287.5,194.5C 288.243,193.818 288.909,193.151 289.5,192.5 Z"/></g>
<g><path style="opacity:1" fill="#94743e" d="M 149.5,192.5 C 152.5,192.5 155.5,192.5 158.5,192.5C 158.719,193.675 158.386,194.675 157.5,195.5C 154.966,194.212 152.466,194.212 150,195.5C 149.333,196.5 149.333,197.5 150,198.5C 151.932,200.038 154.099,201.205 156.5,202C 161.104,207.774 159.604,210.941 152,211.5C 150.5,211.167 149,210.833 147.5,210.5C 150.107,209.682 152.774,209.182 155.5,209C 156.833,207.333 156.833,205.667 155.5,204C 147.958,202.748 145.958,198.915 149.5,192.5 Z"/></g>
<g><path style="opacity:1" fill="#b07f2d" d="M 218.5,170.5 C 219.552,170.351 220.552,170.517 221.5,171C 223.667,173.833 225.833,176.667 228,179.5C 235.677,186.011 242.844,193.011 249.5,200.5C 256.156,193.011 263.323,186.011 271,179.5C 273.167,176.667 275.333,173.833 277.5,171C 279.845,170.456 281.179,171.456 281.5,174C 279.384,178.399 276.884,182.566 274,186.5C 265.598,194.734 257.431,203.068 249.5,211.5C 241.208,202.708 232.708,194.041 224,185.5C 221.746,181.993 219.746,178.327 218,174.5C 217.421,173.072 217.588,171.738 218.5,170.5 Z"/></g>
<g><path style="opacity:1" fill="#b48229" d="M 335.5,174.5 C 326.161,174.666 316.827,174.5 307.5,174C 303.683,173.529 300.017,172.529 296.5,171C 309.115,172.229 321.782,172.563 334.5,172C 336.519,171.55 338.352,170.717 340,169.5C 340.528,168.184 340.028,167.517 338.5,167.5C 337.942,166.21 336.942,165.377 335.5,165C 341.196,164.17 346.863,164.337 352.5,165.5C 346.992,168.944 341.325,171.944 335.5,174.5 Z"/></g>
<g><path style="opacity:1" fill="#9e7632" d="M 284.5,159.5 C 288.639,163.076 293.306,165.909 298.5,168C 311.217,171.847 324.051,172.347 337,169.5C 338.03,169.164 338.53,168.497 338.5,167.5C 340.028,167.517 340.528,168.184 340,169.5C 338.352,170.717 336.519,171.55 334.5,172C 321.782,172.563 309.115,172.229 296.5,171C 300.017,172.529 303.683,173.529 307.5,174C 316.827,174.5 326.161,174.666 335.5,174.5C 330.767,176.046 325.767,176.713 320.5,176.5C 314.787,176.483 309.12,175.983 303.5,175C 294.746,173.129 287.413,168.962 281.5,162.5C 282.496,162.414 283.329,162.748 284,163.5C 284.49,162.207 284.657,160.873 284.5,159.5 Z"/></g>
<g><path style="opacity:1" fill="#b48029" d="M 226.5,149.5 C 234.411,154.732 242.078,160.399 249.5,166.5C 250.94,165.048 252.606,164.048 254.5,163.5C 257.179,161.673 260.012,160.006 263,158.5C 263.5,158.667 264,158.833 264.5,159C 263.216,160.297 263.383,161.464 265,162.5C 266.067,160.717 267.567,160.217 269.5,161C 268.139,162.584 267.472,164.418 267.5,166.5C 265.876,166.64 264.71,165.973 264,164.5C 262.409,166.927 261.575,169.593 261.5,172.5C 257.148,176.853 253.148,181.519 249.5,186.5C 246.057,181.554 242.057,177.054 237.5,173C 231.263,169.598 226.596,164.764 223.5,158.5C 223.179,156.952 222.179,156.285 220.5,156.5C 220.28,153.6 220.946,150.933 222.5,148.5C 223.736,149.246 225.07,149.579 226.5,149.5 Z"/></g>
<g><path style="opacity:1" fill="#7b633e" d="M 335.5,163.5 C 333.585,163.216 331.919,163.549 330.5,164.5C 328.076,163.97 325.743,163.136 323.5,162C 327.7,161.721 331.7,162.221 335.5,163.5 Z"/></g>
<g><path style="opacity:1" fill="#7a673e" d="M 167.5,164.5 C 165.735,163.539 163.735,163.205 161.5,163.5C 165.986,162.317 170.652,161.817 175.5,162C 172.978,163.341 170.311,164.174 167.5,164.5 Z"/></g>
<g><path style="opacity:1" fill="#b48029" d="M 281.5,156.5 C 282.833,157.167 283.833,158.167 284.5,159.5C 284.657,160.873 284.49,162.207 284,163.5C 283.329,162.748 282.496,162.414 281.5,162.5C 279.852,161.19 278.186,159.857 276.5,158.5C 275.893,158.624 275.56,158.957 275.5,159.5C 273.876,159.64 272.71,158.973 272,157.5C 271.612,158.428 270.945,159.095 270,159.5C 268.37,158.287 266.536,157.454 264.5,157C 268.253,153.134 272.586,150.3 277.5,148.5C 277.259,152.019 278.593,154.685 281.5,156.5 Z"/></g>
<g><path style="opacity:1" fill="#b68128" d="M 118.5,146.5 C 118.577,147.75 119.244,148.583 120.5,149C 120,149.167 119.5,149.333 119,149.5C 117.629,148.419 116.129,147.585 114.5,147C 113.155,144.278 111.155,142.278 108.5,141C 109.056,140.617 109.389,140.117 109.5,139.5C 110.167,139.5 110.833,139.5 111.5,139.5C 115.5,140.167 117.167,138.5 116.5,134.5C 121.705,135.012 126.705,136.345 131.5,138.5C 131.291,139.086 130.957,139.586 130.5,140C 126.083,140.93 121.75,142.096 117.5,143.5C 117.263,144.791 117.596,145.791 118.5,146.5 Z"/></g>
<g><path style="opacity:1" fill="#ab7d2f" d="M 396.5,149.5 C 397.63,154.791 398.797,160.124 400,165.5C 400.18,183.544 400.68,201.544 401.5,219.5C 399.732,223.087 399.399,226.753 400.5,230.5C 401.086,230.291 401.586,229.957 402,229.5C 402.029,224.542 402.862,219.876 404.5,215.5C 404.246,224.533 403.579,233.533 402.5,242.5C 401.778,242.918 401.278,243.584 401,244.5C 400.171,249.137 399.671,253.804 399.5,258.5C 395.678,280.803 389.512,302.469 381,323.5C 355.181,383.326 311.181,422.66 249,441.5C 218.708,432.774 191.874,417.94 168.5,397C 133.484,362.144 111.15,320.311 101.5,271.5C 102.931,271.119 103.764,270.119 104,268.5C 104.372,261.16 104.205,253.827 103.5,246.5C 108.336,278.481 117.836,309.148 132,338.5C 145.176,363.559 163.009,384.559 185.5,401.5C 193.133,408.656 201.8,414.323 211.5,418.5C 223.333,425.563 236,430.897 249.5,434.5C 263.15,430.728 276.15,425.395 288.5,418.5C 305.899,408.768 321.566,396.768 335.5,382.5C 361.555,353.729 379.222,320.395 388.5,282.5C 398.414,238.62 401.08,194.287 396.5,149.5 Z"/></g>
<g><path style="opacity:1" fill="#b07f2d" d="M 247.5,400.5 C 248.609,401.29 249.942,401.79 251.5,402C 248.482,402.499 245.482,402.332 242.5,401.5C 240.97,401.64 239.97,402.307 239.5,403.5C 233.627,407.204 227.627,410.704 221.5,414C 212.617,415.531 204.95,413.198 198.5,407C 205.542,406.731 212.542,406.064 219.5,405C 223.468,403.962 227.135,402.462 230.5,400.5C 233.475,399.089 236.642,398.423 240,398.5C 242.866,398.3 245.366,398.967 247.5,400.5 Z"/></g>
<g><path style="opacity:1" fill="#b68126" d="M 276.5,403.5 C 276.833,403.5 277.167,403.5 277.5,403.5C 278.949,405.164 280.949,405.998 283.5,406C 282.167,406.667 282.167,407.333 283.5,408C 285.167,408.333 286.833,408.667 288.5,409C 289.337,410.011 289.67,411.178 289.5,412.5C 285.089,412.979 280.922,412.312 277,410.5C 276.667,409.167 276.333,407.833 276,406.5C 274.556,408.155 272.722,408.822 270.5,408.5C 269.618,406.916 268.785,405.249 268,403.5C 266.491,402.91 264.991,402.244 263.5,401.5C 264.333,401.167 265.167,400.833 266,400.5C 269.303,402.036 272.803,403.036 276.5,403.5 Z"/></g>
<g><path style="opacity:1" fill="#040101" d="M 274.5,417.5 C 275.404,416.791 275.737,415.791 275.5,414.5C 280.544,414.173 285.544,414.506 290.5,415.5C 289.388,416.265 288.721,417.265 288.5,418.5C 276.15,425.395 263.15,430.728 249.5,434.5C 236,430.897 223.333,425.563 211.5,418.5C 210.942,417.21 209.942,416.377 208.5,416C 215.172,414.913 221.505,415.746 227.5,418.5C 231.94,415.237 236.273,411.737 240.5,408C 243.112,406.111 245.945,404.611 249,403.5C 257.273,407.102 264.44,412.269 270.5,419C 272.066,419.3 273.399,418.8 274.5,417.5 Z"/></g>
<g><path style="opacity:1" fill="#9c7633" d="M 256.5,397.5 C 263.907,397.348 270.574,399.348 276.5,403.5C 272.803,403.036 269.303,402.036 266,400.5C 265.167,400.833 264.333,401.167 263.5,401.5C 264.991,402.244 266.491,402.91 268,403.5C 268.785,405.249 269.618,406.916 270.5,408.5C 267.649,406.495 264.649,404.662 261.5,403C 259.5,402.333 257.5,402.333 255.5,403C 260.672,406.085 265.672,409.419 270.5,413C 272.041,414.371 273.375,415.871 274.5,417.5C 273.399,418.8 272.066,419.3 270.5,419C 264.44,412.269 257.273,407.102 249,403.5C 245.945,404.611 243.112,406.111 240.5,408C 236.273,411.737 231.94,415.237 227.5,418.5C 227.047,417.542 226.381,416.708 225.5,416C 230.833,412 236.167,408 241.5,404C 240.906,403.536 240.239,403.369 239.5,403.5C 239.97,402.307 240.97,401.64 242.5,401.5C 245.482,402.332 248.482,402.499 251.5,402C 249.942,401.79 248.609,401.29 247.5,400.5C 250.598,399.784 253.598,398.784 256.5,397.5 Z"/></g>
<g><path style="opacity:1" fill="#b07e2c" d="M 279.5,395.5 C 281.477,396.149 283.31,396.149 285,395.5C 285.5,395.833 286,396.167 286.5,396.5C 285.624,397.251 284.624,397.751 283.5,398C 288.635,397.92 293.469,398.753 298,400.5C 301.026,397.928 303.859,397.928 306.5,400.5C 305.942,401.79 304.942,402.623 303.5,403C 291.914,404.657 280.914,403.157 270.5,398.5C 273.402,397.216 276.402,396.216 279.5,395.5 Z"/></g>
<g><path style="opacity:1" fill="#ab7c2c" d="M 223.5,401.5 C 214.767,405.098 205.767,405.932 196.5,404C 194.654,402.97 192.987,401.804 191.5,400.5C 193.279,398.656 195.612,397.99 198.5,398.5C 198.833,398.5 199.167,398.5 199.5,398.5C 205.319,399.653 211.319,399.819 217.5,399C 216.396,397.869 216.729,397.035 218.5,396.5C 220.51,397.502 222.51,398.502 224.5,399.5C 224.137,400.183 223.804,400.85 223.5,401.5 Z"/></g>
<g><path style="opacity:1" fill="#150801" d="M 186.5,396.5 C 188.167,397.833 189.833,399.167 191.5,400.5C 192.987,401.804 194.654,402.97 196.5,404C 205.767,405.932 214.767,405.098 223.5,401.5C 225.898,401.741 227.898,401.074 229.5,399.5C 230.167,399.5 230.5,399.833 230.5,400.5C 227.135,402.462 223.468,403.962 219.5,405C 212.542,406.064 205.542,406.731 198.5,407C 204.95,413.198 212.617,415.531 221.5,414C 227.627,410.704 233.627,407.204 239.5,403.5C 240.239,403.369 240.906,403.536 241.5,404C 236.167,408 230.833,412 225.5,416C 226.381,416.708 227.047,417.542 227.5,418.5C 221.505,415.746 215.172,414.913 208.5,416C 209.942,416.377 210.942,417.21 211.5,418.5C 201.8,414.323 193.133,408.656 185.5,401.5C 186.675,401.719 187.675,401.386 188.5,400.5C 187.147,399.476 186.48,398.143 186.5,396.5 Z"/></g>
<g><path style="opacity:1" fill="#a27934" d="M 306.5,400.5 C 303.859,397.928 301.026,397.928 298,400.5C 293.469,398.753 288.635,397.92 283.5,398C 284.624,397.751 285.624,397.251 286.5,396.5C 286,396.167 285.5,395.833 285,395.5C 283.31,396.149 281.477,396.149 279.5,395.5C 284.179,390.822 289.179,386.489 294.5,382.5C 295.898,380.891 297.565,380.058 299.5,380C 296.484,386.368 292.484,392.035 287.5,397C 297.712,399.094 307.045,397.261 315.5,391.5C 315.833,391.667 316.167,391.833 316.5,392C 313.568,395.442 310.235,398.275 306.5,400.5 Z"/></g>
<g><path style="opacity:1" fill="#8b6d36" d="M 198.5,398.5 C 195.612,397.99 193.279,398.656 191.5,400.5C 189.833,399.167 188.167,397.833 186.5,396.5C 185.71,395.206 184.71,394.039 183.5,393C 183.833,392.833 184.167,392.667 184.5,392.5C 188.804,395.66 193.471,397.66 198.5,398.5 Z"/></g>
<g><path style="opacity:1" fill="#a37834" d="M 229.5,399.5 C 227.898,401.074 225.898,401.741 223.5,401.5C 223.804,400.85 224.137,400.183 224.5,399.5C 222.51,398.502 220.51,397.502 218.5,396.5C 216.729,397.035 216.396,397.869 217.5,399C 211.319,399.819 205.319,399.653 199.5,398.5C 204.179,398.666 208.845,398.499 213.5,398C 210.667,396.5 208.5,394.333 207,391.5C 204.981,387.809 203.314,384.142 202,380.5C 207.758,384.254 212.925,388.754 217.5,394C 221.407,396.121 225.407,397.955 229.5,399.5 Z"/></g>
<g><path style="opacity:1" fill="#130701" d="M 301.5,376.5 C 300.511,383.644 297.511,389.811 292.5,395C 302.528,393.406 312.194,390.406 321.5,386C 323.37,383.96 325.37,382.127 327.5,380.5C 329.091,381.219 330.591,382.219 332,383.5C 333.011,382.663 334.178,382.33 335.5,382.5C 321.566,396.768 305.899,408.768 288.5,418.5C 288.721,417.265 289.388,416.265 290.5,415.5C 285.544,414.506 280.544,414.173 275.5,414.5C 275.737,415.791 275.404,416.791 274.5,417.5C 273.375,415.871 272.041,414.371 270.5,413C 265.672,409.419 260.672,406.085 255.5,403C 257.5,402.333 259.5,402.333 261.5,403C 264.649,404.662 267.649,406.495 270.5,408.5C 276.254,413.26 282.921,414.76 290.5,413C 294.211,411.773 297.545,409.94 300.5,407.5C 301.289,407.217 301.956,406.717 302.5,406C 297.511,405.501 292.511,405.334 287.5,405.5C 284.135,404.96 280.802,404.294 277.5,403.5C 277.167,403.5 276.833,403.5 276.5,403.5C 270.574,399.348 263.907,397.348 256.5,397.5C 261.246,396.211 265.913,396.544 270.5,398.5C 280.914,403.157 291.914,404.657 303.5,403C 304.942,402.623 305.942,401.79 306.5,400.5C 310.235,398.275 313.568,395.442 316.5,392C 316.167,391.833 315.833,391.667 315.5,391.5C 307.045,397.261 297.712,399.094 287.5,397C 292.484,392.035 296.484,386.368 299.5,380C 297.565,380.058 295.898,380.891 294.5,382.5C 294.729,380.567 295.562,378.9 297,377.5C 298.711,378.581 300.211,378.248 301.5,376.5 Z"/></g>
<g><path style="opacity:1" fill="#aa7c32" d="M 277.5,403.5 C 280.802,404.294 284.135,404.96 287.5,405.5C 291.833,406.167 296.167,406.833 300.5,407.5C 297.545,409.94 294.211,411.773 290.5,413C 282.921,414.76 276.254,413.26 270.5,408.5C 272.722,408.822 274.556,408.155 276,406.5C 276.333,407.833 276.667,409.167 277,410.5C 280.922,412.312 285.089,412.979 289.5,412.5C 289.67,411.178 289.337,410.011 288.5,409C 286.833,408.667 285.167,408.333 283.5,408C 282.167,407.333 282.167,406.667 283.5,406C 280.949,405.998 278.949,405.164 277.5,403.5 Z"/></g>
<g><path style="opacity:1" fill="#684a17" d="M 287.5,405.5 C 292.511,405.334 297.511,405.501 302.5,406C 301.956,406.717 301.289,407.217 300.5,407.5C 296.167,406.833 291.833,406.167 287.5,405.5 Z"/></g>
<g><path style="opacity:1" fill="#9b7534" d="M 215.5,380.5 C 222.164,383.472 228.831,386.638 235.5,390C 240.165,391.337 244.832,391.503 249.5,390.5C 248.388,389.735 247.721,388.735 247.5,387.5C 252.834,390.199 252.501,392.199 246.5,393.5C 234.662,392.452 224.329,388.118 215.5,380.5 Z"/></g>
<g><path style="opacity:1" fill="#a97c30" d="M 193.5,368.5 C 196.469,373.447 198.635,378.78 200,384.5C 201.54,388.419 203.707,391.919 206.5,395C 196.595,394.522 187.262,391.855 178.5,387C 172.501,382.334 169.835,376.667 170.5,370C 172.257,372.846 174.257,375.512 176.5,378C 182.406,380.974 188.239,384.141 194,387.5C 192.733,384.087 191.9,380.421 191.5,376.5C 190.964,373.302 191.631,370.635 193.5,368.5 Z"/></g>
<g><path style="opacity:1" fill="#a87b2f" d="M 327.5,380.5 C 325.37,382.127 323.37,383.96 321.5,386C 312.194,390.406 302.528,393.406 292.5,395C 297.511,389.811 300.511,383.644 301.5,376.5C 304.142,371.227 307.309,366.227 311,361.5C 310.154,369.614 308.82,377.614 307,385.5C 311.855,382.433 317.022,379.933 322.5,378C 325.372,375.463 327.872,372.63 330,369.5C 329.659,373.205 328.825,376.872 327.5,380.5 Z"/></g>
<g><path style="opacity:1" fill="#b3802a" d="M 247.5,387.5 C 247.721,388.735 248.388,389.735 249.5,390.5C 244.832,391.503 240.165,391.337 235.5,390C 228.831,386.638 222.164,383.472 215.5,380.5C 214.522,380.189 213.855,379.522 213.5,378.5C 214.833,376.5 216.5,374.833 218.5,373.5C 224.976,377.381 231.976,379.548 239.5,380C 242.062,382.733 244.729,385.233 247.5,387.5 Z"/></g>
<g><path style="opacity:1" fill="#ac7c2e" d="M 181.5,365.5 C 181.053,360.949 181.719,356.616 183.5,352.5C 184.167,358.167 184.833,363.833 185.5,369.5C 186.182,370.243 186.849,370.909 187.5,371.5C 188.162,374.148 188.829,376.815 189.5,379.5C 189.167,380.167 188.833,380.833 188.5,381.5C 177.528,376.361 169.361,368.361 164,357.5C 162.723,353.903 162.39,350.236 163,346.5C 166.016,353.535 170.682,359.201 177,363.5C 178.333,365.5 179.667,367.5 181,369.5C 181.49,368.207 181.657,366.873 181.5,365.5 Z"/></g>
<g><path style="opacity:1" fill="#ad7d2e" d="M 294.5,368.5 C 290.506,374.668 285.506,379.835 279.5,384C 278.216,384.684 277.049,384.517 276,383.5C 279.268,378.059 281.601,372.059 283,365.5C 284.992,364.335 286.825,363.002 288.5,361.5C 291.081,360.425 293.247,358.758 295,356.5C 295.333,356.833 295.667,357.167 296,357.5C 296.043,361.217 295.543,364.884 294.5,368.5 Z"/></g>
<g><path style="opacity:1" fill="#a97c30" d="M 316.5,344.5 C 318.067,345.681 318.901,347.347 319,349.5C 319.333,355.167 319.667,360.833 320,366.5C 327.153,360.683 332.819,353.683 337,345.5C 337.946,356.111 334.113,364.611 325.5,371C 320.97,374.362 316.303,377.529 311.5,380.5C 311.167,379.833 310.833,379.167 310.5,378.5C 313.345,367.265 315.345,355.932 316.5,344.5 Z"/></g>
<g><path style="opacity:1" fill="#8b6937" d="M 193.5,368.5 C 191.631,370.635 190.964,373.302 191.5,376.5C 190.389,372.336 189.889,368.003 190,363.5C 191.176,365.196 192.343,366.862 193.5,368.5 Z"/></g>
<g><path style="opacity:1" fill="#937031" d="M 187.5,371.5 C 186.849,370.909 186.182,370.243 185.5,369.5C 184.833,363.833 184.167,358.167 183.5,352.5C 181.719,356.616 181.053,360.949 181.5,365.5C 180,358.492 180.5,351.492 183,344.5C 185.664,353.278 187.164,362.278 187.5,371.5 Z"/></g>
<g><path style="opacity:1" fill="#b48029" d="M 276.5,377.5 C 275.011,381.153 272.344,383.653 268.5,385C 257.175,391.265 247.842,389.099 240.5,378.5C 242.383,374.816 244.05,371.149 245.5,367.5C 246.267,366.828 246.934,365.995 247.5,365C 251.872,364.579 256.205,363.912 260.5,363C 261.496,361.987 262.496,361.154 263.5,360.5C 265.596,362.068 267.262,361.734 268.5,359.5C 269.386,360.325 269.719,361.325 269.5,362.5C 273.469,363.483 276.802,365.483 279.5,368.5C 279.281,369.938 278.781,371.271 278,372.5C 277.667,372.167 277.333,371.833 277,371.5C 276.505,373.473 276.338,375.473 276.5,377.5 Z"/></g>
<g><path style="opacity:1" fill="#a07934" d="M 202.5,342.5 C 201.417,342.461 200.417,342.127 199.5,341.5C 199.167,342.167 198.833,342.833 198.5,343.5C 199.589,351.532 201.756,359.198 205,366.5C 206.835,370.46 209.669,372.46 213.5,372.5C 212.026,368.269 211.026,363.936 210.5,359.5C 211.927,363.687 213.927,367.687 216.5,371.5C 215.577,373.924 214.077,375.924 212,377.5C 201.726,367.288 196.726,354.954 197,340.5C 199.811,338.82 201.644,339.487 202.5,342.5 Z"/></g>
<g><path style="opacity:1" fill="#a47b33" d="M 268.5,356.5 C 271.652,361.24 275.985,364.24 281.5,365.5C 280.979,370.087 279.312,374.087 276.5,377.5C 276.338,375.473 276.505,373.473 277,371.5C 277.333,371.833 277.667,372.167 278,372.5C 278.781,371.271 279.281,369.938 279.5,368.5C 276.802,365.483 273.469,363.483 269.5,362.5C 269.719,361.325 269.386,360.325 268.5,359.5C 267.262,361.734 265.596,362.068 263.5,360.5C 262.496,361.154 261.496,361.987 260.5,363C 256.205,363.912 251.872,364.579 247.5,365C 246.934,365.995 246.267,366.828 245.5,367.5C 245.157,365.517 245.824,364.183 247.5,363.5C 250.662,362.889 253.829,362.222 257,361.5C 260.838,359.66 264.671,357.994 268.5,356.5 Z"/></g>
<g><path style="opacity:1" fill="#a07931" d="M 294.5,368.5 C 295.543,364.884 296.043,361.217 296,357.5C 295.667,357.167 295.333,356.833 295,356.5C 293.247,358.758 291.081,360.425 288.5,361.5C 290.999,358.831 293.332,355.998 295.5,353C 300.017,352.678 301.35,354.678 299.5,359C 298.194,362.45 296.527,365.616 294.5,368.5 Z"/></g>
<g><path style="opacity:1" fill="#271203" d="M 266.5,355.5 C 267.492,355.328 268.158,355.662 268.5,356.5C 264.671,357.994 260.838,359.66 257,361.5C 253.829,362.222 250.662,362.889 247.5,363.5C 246.833,362.833 246.167,362.167 245.5,361.5C 248.385,361.806 251.052,361.473 253.5,360.5C 258.185,359.654 262.519,357.987 266.5,355.5 Z"/></g>
<g><path style="opacity:1" fill="#b48029" d="M 202.5,342.5 C 204.767,345.271 207.267,347.938 210,350.5C 210.498,353.482 210.665,356.482 210.5,359.5C 211.026,363.936 212.026,368.269 213.5,372.5C 209.669,372.46 206.835,370.46 205,366.5C 201.756,359.198 199.589,351.532 198.5,343.5C 198.833,342.833 199.167,342.167 199.5,341.5C 200.417,342.127 201.417,342.461 202.5,342.5 Z"/></g>
<g><path style="opacity:1" fill="#a97b2f" d="M 163.5,320.5 C 166.335,329.161 169.502,337.828 173,346.5C 174.592,338.049 177.926,330.382 183,323.5C 183.089,332.151 181.422,340.485 178,348.5C 177.827,352.541 177.327,356.541 176.5,360.5C 164.141,349.716 159.807,336.382 163.5,320.5 Z"/></g>
<g><path style="opacity:1" fill="#ac7d2e" d="M 336.5,338.5 C 334.653,345.858 330.986,352.192 325.5,357.5C 323.505,351.016 321.839,344.183 320.5,337C 320.437,334.123 321.437,333.289 323.5,334.5C 325.359,337.912 326.526,341.578 327,345.5C 328.667,340.177 330.834,335.177 333.5,330.5C 334.315,329.571 335.148,328.571 336,327.5C 336.499,331.152 336.665,334.818 336.5,338.5 Z"/></g>
<g><path style="opacity:1" fill="#a57d36" d="M 296.5,315.5 C 297.338,315.842 297.672,316.508 297.5,317.5C 299.662,321.14 301.162,325.14 302,329.5C 302.667,336.167 302.667,342.833 302,349.5C 300.688,351.658 299.022,351.991 297,350.5C 296.087,344.169 294.253,338.169 291.5,332.5C 292.292,326.87 292.625,321.203 292.5,315.5C 293.833,315.5 295.167,315.5 296.5,315.5 Z"/></g>
<g><path style="opacity:1" fill="#9a7433" d="M 228.5,332.5 C 228.5,334.167 228.5,335.833 228.5,337.5C 227.835,339.698 227.168,342.031 226.5,344.5C 222.426,345.288 218.426,346.288 214.5,347.5C 217.393,345.305 220.727,343.972 224.5,343.5C 225.65,340.253 226.483,336.92 227,333.5C 227.383,332.944 227.883,332.611 228.5,332.5 Z"/></g>
<g><path style="opacity:1" fill="#b68128" d="M 297.5,317.5 C 299.968,325.208 301.301,333.208 301.5,341.5C 301.333,343.833 301.167,346.167 301,348.5C 300.692,349.308 300.192,349.975 299.5,350.5C 295.513,339.93 293.846,328.93 294.5,317.5C 295.5,317.5 296.5,317.5 297.5,317.5 Z"/></g>
<g><path style="opacity:1" fill="#a27937" d="M 289.5,313.5 C 290.338,313.842 290.672,314.508 290.5,315.5C 290.5,320.833 290.5,326.167 290.5,331.5C 287.615,331.194 284.948,331.527 282.5,332.5C 279.794,332.575 277.127,332.908 274.5,333.5C 271.194,330.86 268.194,327.86 265.5,324.5C 268.111,325.934 270.611,327.601 273,329.5C 274,328.833 275,328.167 276,327.5C 276.5,327.833 277,328.167 277.5,328.5C 275.109,329.809 275.109,330.809 277.5,331.5C 281.138,330.818 284.805,330.318 288.5,330C 289.473,324.593 289.807,319.093 289.5,313.5 Z"/></g>
<g><path style="opacity:1" fill="#9d7633" d="M 323.5,334.5 C 321.437,333.289 320.437,334.123 320.5,337C 321.839,344.183 323.505,351.016 325.5,357.5C 324.878,358.627 324.045,359.627 323,360.5C 322.036,350.151 320.203,339.984 317.5,330C 317.667,328.167 317.833,326.333 318,324.5C 320.112,327.727 321.945,331.06 323.5,334.5 Z"/></g>
<g><path style="opacity:1" fill="#1f0d00" d="M 231.5,328.5 C 231.072,331.785 230.072,334.785 228.5,337.5C 228.5,335.833 228.5,334.167 228.5,332.5C 229.5,331.167 230.5,329.833 231.5,328.5 Z"/></g>
<g><path style="opacity:1" fill="#b68127" d="M 253.5,360.5 C 251.052,361.473 248.385,361.806 245.5,361.5C 243.5,359.167 241.5,356.833 239.5,354.5C 238.771,352.265 237.438,350.431 235.5,349C 234.314,345.567 232.98,342.234 231.5,339C 232.022,338.05 232.689,337.216 233.5,336.5C 232.298,331.603 233.631,327.436 237.5,324C 241.857,323.147 246.191,322.313 250.5,321.5C 250.64,323.124 249.973,324.29 248.5,325C 244.789,325.175 241.122,325.675 237.5,326.5C 235.13,329.626 235.797,330.126 239.5,328C 244.436,326.877 248.936,327.71 253,330.5C 254.333,328.833 255.667,327.167 257,325.5C 259.746,328.724 262.579,331.891 265.5,335C 264.483,336.049 264.316,337.216 265,338.5C 266.718,334.584 267.885,334.917 268.5,339.5C 267.702,344.142 267.036,348.808 266.5,353.5C 265.022,353.238 263.689,353.571 262.5,354.5C 259.872,357.212 256.872,359.212 253.5,360.5 Z"/></g>
<g><path style="opacity:1" fill="#947033" d="M 336.5,338.5 C 336.665,334.818 336.499,331.152 336,327.5C 335.148,328.571 334.315,329.571 333.5,330.5C 335.071,316.183 336.737,316.017 338.5,330C 338.64,333.15 337.973,335.983 336.5,338.5 Z"/></g>
<g><path style="opacity:1" fill="#a77a30" d="M 325.5,320.5 C 325.709,321.922 326.209,323.255 327,324.5C 327.498,321.183 327.665,317.85 327.5,314.5C 328.024,308.413 328.19,302.413 328,296.5C 331.785,300.402 333.618,305.069 333.5,310.5C 332.398,319.31 330.565,327.977 328,336.5C 324.878,329.045 320.545,322.379 315,316.5C 313.279,313.685 312.612,310.685 313,307.5C 317.819,311.301 321.986,315.634 325.5,320.5 Z"/></g>
<g><path style="opacity:1" fill="#2b1403" d="M 296.5,315.5 C 295.167,315.5 293.833,315.5 292.5,315.5C 292.625,321.203 292.292,326.87 291.5,332.5C 288.5,332.5 285.5,332.5 282.5,332.5C 284.948,331.527 287.615,331.194 290.5,331.5C 290.5,326.167 290.5,320.833 290.5,315.5C 292.611,314.258 294.611,314.258 296.5,315.5 Z"/></g>
<g><path style="opacity:1" fill="#261101" d="M 256.5,316.5 C 259.5,319.167 262.5,321.833 265.5,324.5C 268.194,327.86 271.194,330.86 274.5,333.5C 274.167,333.5 273.833,333.5 273.5,333.5C 267.197,328.532 261.197,323.198 255.5,317.5C 256.167,317.5 256.5,317.167 256.5,316.5 Z"/></g>
<g><path style="opacity:1" fill="#af7d2d" d="M 255.5,317.5 C 261.197,323.198 267.197,328.532 273.5,333.5C 270.853,340.76 268.52,348.094 266.5,355.5C 262.519,357.987 258.185,359.654 253.5,360.5C 256.872,359.212 259.872,357.212 262.5,354.5C 263.689,353.571 265.022,353.238 266.5,353.5C 267.036,348.808 267.702,344.142 268.5,339.5C 267.885,334.917 266.718,334.584 265,338.5C 264.316,337.216 264.483,336.049 265.5,335C 262.579,331.891 259.746,328.724 257,325.5C 255.667,327.167 254.333,328.833 253,330.5C 248.936,327.71 244.436,326.877 239.5,328C 235.797,330.126 235.13,329.626 237.5,326.5C 241.122,325.675 244.789,325.175 248.5,325C 249.973,324.29 250.64,323.124 250.5,321.5C 246.191,322.313 241.857,323.147 237.5,324C 233.631,327.436 232.298,331.603 233.5,336.5C 232.689,337.216 232.022,338.05 231.5,339C 232.98,342.234 234.314,345.567 235.5,349C 237.438,350.431 238.771,352.265 239.5,354.5C 235.578,352.085 232.078,349.085 229,345.5C 228.503,342.854 228.336,340.187 228.5,337.5C 230.072,334.785 231.072,331.785 231.5,328.5C 233.266,326.229 235.266,324.063 237.5,322C 243.435,320.183 249.435,318.683 255.5,317.5 Z"/></g>
<g><path style="opacity:1" fill="#533208" d="M 327.5,314.5 C 327.665,317.85 327.498,321.183 327,324.5C 326.209,323.255 325.709,321.922 325.5,320.5C 326.167,318.5 326.833,316.5 327.5,314.5 Z"/></g>
<g><path style="opacity:1" fill="#b58029" d="M 262.5,300.5 C 267.58,300.25 272.58,300.75 277.5,302C 279.734,305.736 282.734,308.57 286.5,310.5C 287.833,311.167 288.833,312.167 289.5,313.5C 289.807,319.093 289.473,324.593 288.5,330C 284.805,330.318 281.138,330.818 277.5,331.5C 275.109,330.809 275.109,329.809 277.5,328.5C 277,328.167 276.5,327.833 276,327.5C 275,328.167 274,328.833 273,329.5C 270.611,327.601 268.111,325.934 265.5,324.5C 262.5,321.833 259.5,319.167 256.5,316.5C 257.654,311.27 258.32,305.936 258.5,300.5C 259.833,300.5 261.167,300.5 262.5,300.5 Z"/></g>
<g><path style="opacity:1" fill="#a57a31" d="M 224.5,310.5 C 223.167,310.5 221.833,310.5 220.5,310.5C 220.5,311.833 220.5,313.167 220.5,314.5C 221.552,314.351 222.552,314.517 223.5,315C 222.354,315.645 221.354,316.478 220.5,317.5C 219.833,315.833 219.167,314.167 218.5,312.5C 215.591,314.356 212.591,316.023 209.5,317.5C 206.308,323.411 204.308,329.745 203.5,336.5C 204.345,339.412 206.012,340.412 208.5,339.5C 209.893,340.863 211.559,341.696 213.5,342C 211.744,342.202 210.078,342.702 208.5,343.5C 209.325,344.386 210.325,344.719 211.5,344.5C 211.5,345.5 211.5,346.5 211.5,347.5C 212.5,347.5 213.5,347.5 214.5,347.5C 213.473,348.848 212.14,349.348 210.5,349C 207.547,345.592 204.713,342.092 202,338.5C 201.592,334.038 202.259,329.705 204,325.5C 204.663,321.965 206.163,318.965 208.5,316.5C 212.199,312.733 216.699,310.4 222,309.5C 223.07,309.528 223.903,309.861 224.5,310.5 Z"/></g>
<g><path style="opacity:1" fill="#ac7d30" d="M 171.5,308.5 C 172.468,310.607 172.802,312.941 172.5,315.5C 172.335,318.518 172.502,321.518 173,324.5C 173.513,323.473 174.013,322.473 174.5,321.5C 175.882,318.606 177.882,316.106 180.5,314C 182.96,312.542 185.127,310.709 187,308.5C 187.388,311.685 186.721,314.685 185,317.5C 179.855,323.306 175.522,329.639 172,336.5C 170.3,331.961 169.133,327.294 168.5,322.5C 168.13,316.075 168.63,309.742 170,303.5C 170.198,305.382 170.698,307.048 171.5,308.5 Z"/></g>
<g><path style="opacity:1" fill="#563502" d="M 172.5,315.5 C 173.167,317.5 173.833,319.5 174.5,321.5C 174.013,322.473 173.513,323.473 173,324.5C 172.502,321.518 172.335,318.518 172.5,315.5 Z"/></g>
<g><path style="opacity:1" fill="#b58028" d="M 224.5,310.5 C 224.833,310.5 225.167,310.5 225.5,310.5C 227.633,315.255 230.633,319.422 234.5,323C 232.84,324.488 231.84,326.321 231.5,328.5C 230.5,329.833 229.5,331.167 228.5,332.5C 227.883,332.611 227.383,332.944 227,333.5C 226.483,336.92 225.65,340.253 224.5,343.5C 220.727,343.972 217.393,345.305 214.5,347.5C 213.5,347.5 212.5,347.5 211.5,347.5C 211.5,346.5 211.5,345.5 211.5,344.5C 210.325,344.719 209.325,344.386 208.5,343.5C 210.078,342.702 211.744,342.202 213.5,342C 211.559,341.696 209.893,340.863 208.5,339.5C 206.012,340.412 204.345,339.412 203.5,336.5C 204.308,329.745 206.308,323.411 209.5,317.5C 212.591,316.023 215.591,314.356 218.5,312.5C 219.167,314.167 219.833,315.833 220.5,317.5C 221.354,316.478 222.354,315.645 223.5,315C 222.552,314.517 221.552,314.351 220.5,314.5C 220.5,313.167 220.5,311.833 220.5,310.5C 221.833,310.5 223.167,310.5 224.5,310.5 Z"/></g>
<g><path style="opacity:1" fill="#a17a39" d="M 211.5,303.5 C 211.315,305.196 210.481,306.529 209,307.5C 208.333,309.167 208.333,310.833 209,312.5C 211.134,309.712 213.968,308.379 217.5,308.5C 214.202,310.485 210.869,312.485 207.5,314.5C 205.71,309.739 207.044,306.072 211.5,303.5 Z"/></g>
<g><path style="opacity:1" fill="#261002" d="M 223.5,307.5 C 224.551,308.222 225.218,309.222 225.5,310.5C 225.167,310.5 224.833,310.5 224.5,310.5C 223.903,309.861 223.07,309.528 222,309.5C 216.699,310.4 212.199,312.733 208.5,316.5C 208.167,315.833 207.833,315.167 207.5,314.5C 210.869,312.485 214.202,310.485 217.5,308.5C 219.5,308.167 221.5,307.833 223.5,307.5 Z"/></g>
<g><path style="opacity:1" fill="#a97d32" d="M 177.5,313.5 C 175.554,308.604 174.887,303.271 175.5,297.5C 176.626,290.885 180.293,286.718 186.5,285C 181.601,290.622 179.434,297.122 180,304.5C 184.384,299.449 189.384,295.116 195,291.5C 195.706,293.971 195.373,296.305 194,298.5C 190.642,302.759 186.475,305.926 181.5,308C 179.561,309.432 178.228,311.265 177.5,313.5 Z"/></g>
<g><path style="opacity:1" fill="#957635" d="M 171.5,308.5 C 170.698,307.048 170.198,305.382 170,303.5C 168.63,309.742 168.13,316.075 168.5,322.5C 164.69,312.955 166.19,304.288 173,296.5C 171.858,300.302 171.358,304.302 171.5,308.5 Z"/></g>
<g><path style="opacity:1" fill="#7e6138" d="M 175.5,297.5 C 174.887,303.271 175.554,308.604 177.5,313.5C 176.928,314.973 176.095,316.307 175,317.5C 174.179,310.654 174.346,303.987 175.5,297.5 Z"/></g>
<g><path style="opacity:1" fill="#b68127" d="M 217.5,308.5 C 213.968,308.379 211.134,309.712 209,312.5C 208.333,310.833 208.333,309.167 209,307.5C 210.481,306.529 211.315,305.196 211.5,303.5C 216.601,299.577 222.101,296.244 228,293.5C 229.059,293.63 229.892,294.13 230.5,295C 228.096,295.508 227.429,296.675 228.5,298.5C 228.154,299.696 227.654,299.696 227,298.5C 225.86,301.102 225.027,303.769 224.5,306.5C 221.772,306.171 219.438,306.837 217.5,308.5 Z"/></g>
<g><path style="opacity:1" fill="#a97c31" d="M 314.5,283.5 C 319.594,286.094 323.094,290.094 325,295.5C 325.667,302.5 325.667,309.5 325,316.5C 323.855,314.074 322.522,311.741 321,309.5C 315.635,305.981 310.635,301.981 306,297.5C 305.187,295.564 304.687,293.564 304.5,291.5C 311.087,294.203 316.587,298.869 321,305.5C 321.212,297.417 318.712,290.25 313.5,284C 313.728,283.601 314.062,283.435 314.5,283.5 Z"/></g>
<g><path style="opacity:1" fill="#956f30" d="M 271.5,291.5 C 274.987,292.483 276.32,294.817 275.5,298.5C 271.486,298.334 267.486,298.501 263.5,299C 268.167,299.333 272.833,299.667 277.5,300C 280.336,303.667 283.336,307.167 286.5,310.5C 282.734,308.57 279.734,305.736 277.5,302C 272.58,300.75 267.58,300.25 262.5,300.5C 260.025,299.869 257.691,298.869 255.5,297.5C 261.484,296.926 267.484,296.593 273.5,296.5C 273.169,294.678 272.502,293.011 271.5,291.5 Z"/></g>
<g><path style="opacity:1" fill="#050101" d="M 245.5,294.5 C 248.936,295.192 252.27,296.192 255.5,297.5C 257.691,298.869 260.025,299.869 262.5,300.5C 261.167,300.5 259.833,300.5 258.5,300.5C 258.32,305.936 257.654,311.27 256.5,316.5C 256.5,317.167 256.167,317.5 255.5,317.5C 249.435,318.683 243.435,320.183 237.5,322C 235.266,324.063 233.266,326.229 231.5,328.5C 231.84,326.321 232.84,324.488 234.5,323C 230.633,319.422 227.633,315.255 225.5,310.5C 225.218,309.222 224.551,308.222 223.5,307.5C 226.352,304.386 229.352,301.22 232.5,298C 234.078,296.906 235.745,296.072 237.5,295.5C 240.127,294.908 242.794,294.575 245.5,294.5 Z"/></g>
<g><path style="opacity:1" fill="#a67c31" d="M 237.5,291.5 C 237.5,292.833 237.5,294.167 237.5,295.5C 235.745,296.072 234.078,296.906 232.5,298C 229.352,301.22 226.352,304.386 223.5,307.5C 221.5,307.833 219.5,308.167 217.5,308.5C 219.438,306.837 221.772,306.171 224.5,306.5C 225.027,303.769 225.86,301.102 227,298.5C 227.654,299.696 228.154,299.696 228.5,298.5C 227.429,296.675 228.096,295.508 230.5,295C 229.892,294.13 229.059,293.63 228,293.5C 222.101,296.244 216.601,299.577 211.5,303.5C 218.321,295.419 226.988,290.419 237.5,288.5C 237.5,289.5 237.5,290.5 237.5,291.5 Z"/></g>
<g><path style="opacity:1" fill="#9d7734" d="M 202.5,275.5 C 203.239,275.369 203.906,275.536 204.5,276C 200.065,280.378 196.232,285.212 193,290.5C 182.192,301.587 180.525,299.92 188,285.5C 192.325,281.268 197.158,277.935 202.5,275.5 Z"/></g>
<g><path style="opacity:1" fill="#190b01" d="M 309.5,281.5 C 311.553,281.402 313.22,282.069 314.5,283.5C 314.062,283.435 313.728,283.601 313.5,284C 318.712,290.25 321.212,297.417 321,305.5C 316.587,298.869 311.087,294.203 304.5,291.5C 303.957,291.44 303.624,291.107 303.5,290.5C 304.612,289.735 305.279,288.735 305.5,287.5C 308.165,291.161 311.498,294.161 315.5,296.5C 315.495,290.912 313.495,285.912 309.5,281.5 Z"/></g>
<g><path style="opacity:1" fill="#332210" d="M 239.5,287.5 C 239.5,289.5 239.5,291.5 239.5,293.5C 241.735,293.205 243.735,293.539 245.5,294.5C 242.794,294.575 240.127,294.908 237.5,295.5C 237.5,294.167 237.5,292.833 237.5,291.5C 238.167,290.167 238.833,288.833 239.5,287.5 Z"/></g>
<g><path style="opacity:1" fill="#a07a37" d="M 270.5,291.5 C 260.712,288.842 250.712,287.842 240.5,288.5C 240.5,289.833 240.5,291.167 240.5,292.5C 245.368,292.24 250.035,293.074 254.5,295C 255.252,295.671 255.586,296.504 255.5,297.5C 252.27,296.192 248.936,295.192 245.5,294.5C 243.735,293.539 241.735,293.205 239.5,293.5C 239.5,291.5 239.5,289.5 239.5,287.5C 250.358,285.485 260.691,286.818 270.5,291.5 Z"/></g>
<g><path style="opacity:1" fill="#b58127" d="M 270.5,291.5 C 270.833,291.5 271.167,291.5 271.5,291.5C 272.502,293.011 273.169,294.678 273.5,296.5C 267.484,296.593 261.484,296.926 255.5,297.5C 255.586,296.504 255.252,295.671 254.5,295C 250.035,293.074 245.368,292.24 240.5,292.5C 240.5,291.167 240.5,289.833 240.5,288.5C 250.712,287.842 260.712,288.842 270.5,291.5 Z"/></g>
<g><path style="opacity:1" fill="#a77a32" d="M 309.5,281.5 C 313.495,285.912 315.495,290.912 315.5,296.5C 311.498,294.161 308.165,291.161 305.5,287.5C 303.164,282.651 299.831,278.484 295.5,275C 300.648,275.944 305.314,278.11 309.5,281.5 Z"/></g>
<g><path style="opacity:1" fill="#b68127" d="M 388.5,282.5 C 389.649,282.209 390.316,281.376 390.5,280C 391.687,273.262 393.52,266.762 396,260.5C 395.562,276.123 392.228,291.123 386,305.5C 385.219,304.271 384.719,302.938 384.5,301.5C 386.827,295.357 388.16,289.024 388.5,282.5 Z"/></g>
</svg>
