<?xml version="1.0" encoding="UTF-8"?>
<!DOCTYPE svg PUBLIC "-//W3C//DTD SVG 1.1//EN" "http://www.w3.org/Graphics/SVG/1.1/DTD/svg11.dtd">
<svg xmlns="http://www.w3.org/2000/svg" version="1.1" width="500px" height="500px" style="shape-rendering:geometricPrecision; text-rendering:geometricPrecision; image-rendering:optimizeQuality; fill-rule:evenodd; clip-rule:evenodd" xmlns:xlink="http://www.w3.org/1999/xlink">
<g><path style="opacity:0.998" fill="#020304" d="M 350.5,70.5 C 368.993,71.4969 387.659,71.8302 406.5,71.5C 406.167,140.002 406.501,208.335 407.5,276.5C 406.192,299.376 400.026,321.043 389,341.5C 375.904,364.281 359.404,384.448 339.5,402C 312.327,425.987 282.327,445.821 249.5,461.5C 208.318,441.659 171.818,415.326 140,382.5C 123.245,364.677 110.245,344.344 101,321.5C 97.2331,310.766 94.5664,299.766 93,288.5C 92.5,222.834 92.3333,157.168 92.5,91.5C 93.2679,90.7375 93.7679,89.7375 94,88.5C 94.4994,82.8431 94.6661,77.1764 94.5,71.5C 112.836,71.6666 131.17,71.4999 149.5,71C 149.661,62.9456 149.661,54.7789 149.5,46.5C 173.006,46.8309 196.339,46.4975 219.5,45.5C 225.899,24.9643 239.565,17.4643 260.5,23C 270.407,27.3208 276.074,34.8208 277.5,45.5C 301.833,45.5 326.167,45.5 350.5,45.5C 350.5,53.8333 350.5,62.1667 350.5,70.5 Z"/></g>
<g><path style="opacity:1" fill="#aec564" d="M 244.5,28.5 C 263.361,28.5237 271.861,37.857 270,56.5C 263.906,69.1635 254.073,73.3302 240.5,69C 227.021,59.688 225.021,48.3547 234.5,35C 237.728,32.5603 241.061,30.3936 244.5,28.5 Z"/></g>
<g><path style="opacity:1" fill="#040602" d="M 249.5,32.5 C 253.458,31.8911 255.624,33.5578 256,37.5C 257.5,39 259,40.5 260.5,42C 261.899,42.5946 263.232,42.4279 264.5,41.5C 265.705,42.5769 266.372,43.9102 266.5,45.5C 266.5,47.5 266.5,49.5 266.5,51.5C 265.209,51.2627 264.209,51.596 263.5,52.5C 262.039,54.3516 261.039,56.5182 260.5,59C 261.956,62.1705 260.956,64.3371 257.5,65.5C 256.712,64.2299 255.712,63.2299 254.5,62.5C 253.081,61.5489 251.415,61.2155 249.5,61.5C 249.5,59.8333 249.5,58.1667 249.5,56.5C 251.027,56.573 252.027,55.9063 252.5,54.5C 253.833,53.8333 254.833,52.8333 255.5,51.5C 256.718,48.467 256.052,45.8004 253.5,43.5C 252.432,42.5655 251.099,42.2322 249.5,42.5C 249.5,40.8333 249.5,39.1667 249.5,37.5C 248.5,37.5 247.5,37.5 246.5,37.5C 246.5,36.5 246.5,35.5 246.5,34.5C 248.179,34.7148 249.179,34.0481 249.5,32.5 Z"/></g>
<g><path style="opacity:1" fill="#131d15" d="M 249.5,32.5 C 249.179,34.0481 248.179,34.7148 246.5,34.5C 246.5,35.5 246.5,36.5 246.5,37.5C 247.5,37.5 248.5,37.5 249.5,37.5C 249.5,39.1667 249.5,40.8333 249.5,42.5C 251.099,42.2322 252.432,42.5655 253.5,43.5C 246.094,41.438 242.928,44.1047 244,51.5C 245.704,53.3734 247.537,55.0401 249.5,56.5C 249.5,58.1667 249.5,59.8333 249.5,61.5C 251.415,61.2155 253.081,61.5489 254.5,62.5C 251.15,62.335 247.817,62.5017 244.5,63C 241.705,66.2562 239.372,65.7562 237.5,61.5C 238.362,58.854 238.195,56.1873 237,53.5C 235.644,52.6198 234.144,52.2865 232.5,52.5C 232.035,48.2076 232.868,44.2076 235,40.5C 236.133,42.2112 237.633,42.7112 239.5,42C 243.19,39.8307 244.857,36.664 244.5,32.5C 246.167,32.5 247.833,32.5 249.5,32.5 Z"/></g>
<g><path style="opacity:0.561" fill="#010a1f" d="M 219.5,45.5 C 196.339,46.4975 173.006,46.8309 149.5,46.5C 149.661,54.7789 149.661,62.9456 149.5,71C 131.17,71.4999 112.836,71.6666 94.5,71.5C 94.6661,77.1764 94.4994,82.8431 94,88.5C 93.7679,89.7375 93.2679,90.7375 92.5,91.5C 92.0378,83.9916 92.5378,76.6583 94,69.5C 112.09,70.4924 130.257,70.8257 148.5,70.5C 148.5,62.1667 148.5,53.8333 148.5,45.5C 172.167,45.5 195.833,45.5 219.5,45.5 Z"/></g>
<g><path style="opacity:1" fill="#a2b76b" d="M 253.5,43.5 C 256.052,45.8004 256.718,48.467 255.5,51.5C 255.729,44.9707 252.729,42.804 246.5,45C 244.213,50.8789 246.213,54.0455 252.5,54.5C 252.027,55.9063 251.027,56.573 249.5,56.5C 247.537,55.0401 245.704,53.3734 244,51.5C 242.928,44.1047 246.094,41.438 253.5,43.5 Z"/></g>
<g><path style="opacity:1" fill="#b4d05f" d="M 255.5,51.5 C 254.833,52.8333 253.833,53.8333 252.5,54.5C 246.213,54.0455 244.213,50.8789 246.5,45C 252.729,42.804 255.729,44.9707 255.5,51.5 Z"/></g>
<g><path style="opacity:1" fill="#5a6728" d="M 266.5,45.5 C 267.468,47.6074 267.802,49.9407 267.5,52.5C 266.167,52.5 264.833,52.5 263.5,52.5C 264.833,52.5 266.167,52.5 267.5,52.5C 267.802,49.9407 267.468,47.6074 266.5,45.5 Z"/></g>
<g><path style="opacity:1" fill="#ebebeb" d="M 299.5,57.5 C 304.989,57.504 306.822,60.1707 305,65.5C 303.267,67.6015 301.267,67.9348 299,66.5C 298.264,63.408 298.431,60.408 299.5,57.5 Z"/></g>
<g><path style="opacity:1" fill="#e1e1e1" d="M 312.5,57.5 C 317.068,57.0826 318.568,59.0826 317,63.5C 316.5,64 316,64.5 315.5,65C 316.624,65.2492 317.624,65.7492 318.5,66.5C 316.257,67.4742 313.924,67.8076 311.5,67.5C 312.668,65.1873 314.002,62.854 315.5,60.5C 315.167,60.1667 314.833,59.8333 314.5,59.5C 311.789,61.8049 311.122,61.1383 312.5,57.5 Z"/></g>
<g><path style="opacity:1" fill="#cdcdcd" d="M 206.5,58.5 C 208.604,58.2011 210.604,58.5344 212.5,59.5C 211.5,60.1667 210.5,60.8333 209.5,61.5C 210.025,62.1924 210.692,62.6924 211.5,63C 210.692,63.3076 210.025,63.8076 209.5,64.5C 210.5,65.1667 211.5,65.8333 212.5,66.5C 210.604,67.4656 208.604,67.7989 206.5,67.5C 206.5,64.5 206.5,61.5 206.5,58.5 Z"/></g>
<g><path style="opacity:1" fill="#222222" d="M 300.5,59.5 C 303.79,60.6562 304.29,62.6562 302,65.5C 300.681,63.7505 300.181,61.7505 300.5,59.5 Z"/></g>
<g><path style="opacity:1" fill="#adadad" d="M 172.5,58.5 C 173.5,58.5 174.5,58.5 175.5,58.5C 175.5,61.5 175.5,64.5 175.5,67.5C 174.5,67.5 173.5,67.5 172.5,67.5C 172.5,64.5 172.5,61.5 172.5,58.5 Z"/></g>
<g><path style="opacity:1" fill="#d4d4d4" d="M 180.5,58.5 C 181.675,58.281 182.675,58.6143 183.5,59.5C 185.231,64.6131 186.564,64.6131 187.5,59.5C 188.48,62.0865 188.813,64.7531 188.5,67.5C 186.408,67.4386 184.908,66.4386 184,64.5C 183.517,65.448 183.351,66.448 183.5,67.5C 182.5,67.5 181.5,67.5 180.5,67.5C 180.5,64.5 180.5,61.5 180.5,58.5 Z"/></g>
<g><path style="opacity:1" fill="#e2e2e2" d="M 162.5,58.5 C 164.665,58.1159 166.332,58.7826 167.5,60.5C 166.397,60.9976 165.397,61.3309 164.5,61.5C 167.279,62.6735 167.946,64.5068 166.5,67C 164.359,67.8837 162.693,67.3837 161.5,65.5C 166.432,65.9105 166.599,64.9105 162,62.5C 161.421,61.0715 161.588,59.7382 162.5,58.5 Z"/></g>
<g><path style="opacity:1" fill="#e8e8e8" d="M 287.5,57.5 C 293.328,58.297 293.995,60.797 289.5,65C 290.624,65.2492 291.624,65.7492 292.5,66.5C 290.167,67.8333 287.833,67.8333 285.5,66.5C 287.167,64.5 288.833,62.5 290.5,60.5C 289.609,59.4104 288.609,59.4104 287.5,60.5C 286.438,59.5754 286.438,58.5754 287.5,57.5 Z"/></g>
<g><path style="opacity:1" fill="#d9d9d9" d="M 195.5,58.5 C 198.278,58.0217 200.278,59.0217 201.5,61.5C 199.674,61.9202 197.674,61.9202 195.5,61.5C 195.33,62.8221 195.663,63.9887 196.5,65C 198.225,64.5913 199.892,64.7579 201.5,65.5C 195.714,68.8876 193.214,67.2209 194,60.5C 194.717,59.9558 195.217,59.2891 195.5,58.5 Z"/></g>
<g><path style="opacity:1" fill="#e3e3e3" d="M 323.5,57.5 C 325.924,57.1924 328.257,57.5258 330.5,58.5C 329.271,59.2811 327.938,59.7811 326.5,60C 330.439,60.9774 331.439,63.3108 329.5,67C 327.359,67.8837 325.693,67.3837 324.5,65.5C 325.391,64.4104 326.391,64.4104 327.5,65.5C 328.833,64.5 328.833,63.5 327.5,62.5C 326.264,63.2458 324.93,63.5792 323.5,63.5C 323.5,61.5 323.5,59.5 323.5,57.5 Z"/></g>
<g><path style="opacity:0.028" fill="#000124" d="M 350.5,70.5 C 369.5,70.5 388.5,70.5 407.5,70.5C 407.5,139.167 407.5,207.833 407.5,276.5C 406.501,208.335 406.167,140.002 406.5,71.5C 387.659,71.8302 368.993,71.4969 350.5,70.5 Z"/></g>
<g><path style="opacity:1" fill="#141f0a" d="M 109.5,118.5 C 203.167,118.5 296.833,118.5 390.5,118.5C 390.5,172.833 390.5,227.167 390.5,281.5C 390.167,281.5 389.833,281.5 389.5,281.5C 389.831,227.595 389.497,173.762 388.5,120C 295.501,119.5 202.501,119.333 109.5,119.5C 109.187,176.852 109.52,234.186 110.5,291.5C 109.833,290.167 109.167,288.833 108.5,287.5C 108.168,230.998 108.501,174.664 109.5,118.5 Z"/></g>
<g><path style="opacity:1" fill="#000000" d="M 389.5,281.5 C 387.414,306.931 378.914,329.931 364,350.5C 339.407,382.767 309.574,408.934 274.5,429C 266.135,433.515 257.802,438.015 249.5,442.5C 209.838,423.754 175.338,398.088 146,365.5C 130.913,347.657 119.747,327.657 112.5,305.5C 111.704,300.853 111.037,296.186 110.5,291.5C 109.52,234.186 109.187,176.852 109.5,119.5C 202.501,119.333 295.501,119.5 388.5,120C 389.497,173.762 389.831,227.595 389.5,281.5 Z"/></g>
<g><path style="opacity:1" fill="#a5d16e" d="M 393.5,289.5 C 394.467,232.846 394.8,176.179 394.5,119.5C 394.5,108.167 394.5,96.8333 394.5,85.5C 363.815,84.841 333.482,85.5077 303.5,87.5C 302.833,87.5 302.167,87.5 301.5,87.5C 236.175,85.5035 170.508,84.8368 104.5,85.5C 104.333,151.168 104.5,216.834 105,282.5C 105.797,287.175 106.63,291.841 107.5,296.5C 108.484,293.572 108.817,290.572 108.5,287.5C 109.167,288.833 109.833,290.167 110.5,291.5C 111.037,296.186 111.704,300.853 112.5,305.5C 111.685,304.571 110.852,303.571 110,302.5C 109.833,303.333 109.667,304.167 109.5,305C 111.024,309.399 112.024,313.899 112.5,318.5C 108.601,308.582 105.768,298.249 104,287.5C 103.5,219.501 103.333,151.501 103.5,83.5C 200.833,83.5 298.167,83.5 395.5,83.5C 395.667,151.501 395.5,219.501 395,287.5C 394.722,288.416 394.222,289.082 393.5,289.5 Z"/></g>
<g><path style="opacity:1" fill="#c1fb7a" d="M 301.5,87.5 C 237.166,87.3333 172.832,87.5 108.5,88C 107.944,88.3826 107.611,88.8826 107.5,89.5C 106.344,96.9887 106.178,104.655 107,112.5C 107.5,113 108,113.5 108.5,114C 172.499,114.064 236.499,113.897 300.5,113.5C 330.997,114.332 361.664,114.832 392.5,115C 392.957,115.414 393.291,115.914 393.5,116.5C 298.668,117.167 204.001,117.833 109.5,118.5C 108.501,174.664 108.168,230.998 108.5,287.5C 108.817,290.572 108.484,293.572 107.5,296.5C 106.63,291.841 105.797,287.175 105,282.5C 104.5,216.834 104.333,151.168 104.5,85.5C 170.508,84.8368 236.175,85.5035 301.5,87.5 Z"/></g>
<g><path style="opacity:1" fill="#ceea98" d="M 107.5,89.5 C 107.175,97.0191 107.508,104.352 108.5,111.5C 137.995,112.498 167.662,112.831 197.5,112.5C 232.167,112.5 266.833,112.5 301.5,112.5C 330.833,112.5 360.167,112.5 389.5,112.5C 360.005,113.498 330.338,113.831 300.5,113.5C 236.499,113.897 172.499,114.064 108.5,114C 108,113.5 107.5,113 107,112.5C 106.178,104.655 106.344,96.9887 107.5,89.5 Z"/></g>
<g><path style="opacity:1" fill="#b393a0" d="M 197.5,88.5 C 197.5,88.8333 197.5,89.1667 197.5,89.5C 168.329,89.1686 139.329,89.502 110.5,90.5C 109.509,97.3134 109.175,104.313 109.5,111.5C 138.833,111.5 168.167,111.5 197.5,111.5C 197.5,111.833 197.5,112.167 197.5,112.5C 167.662,112.831 137.995,112.498 108.5,111.5C 108.186,103.913 108.519,96.4129 109.5,89C 138.831,88.5 168.165,88.3334 197.5,88.5 Z"/></g>
<g><path style="opacity:1" fill="#b879be" d="M 301.5,89.5 C 331.167,89.5 360.833,89.5 390.5,89.5C 390.799,97.253 390.466,104.92 389.5,112.5C 360.167,112.5 330.833,112.5 301.5,112.5C 301.5,104.833 301.5,97.1667 301.5,89.5 Z"/></g>
<g><path style="opacity:1" fill="#be75cb" d="M 197.5,89.5 C 197.5,96.8333 197.5,104.167 197.5,111.5C 168.167,111.5 138.833,111.5 109.5,111.5C 109.175,104.313 109.509,97.3134 110.5,90.5C 139.329,89.502 168.329,89.1686 197.5,89.5 Z"/></g>
<g><path style="opacity:1" fill="#cb6be5" d="M 110.5,90.5 C 139.167,90.5 167.833,90.5 196.5,90.5C 196.5,97.1667 196.5,103.833 196.5,110.5C 167.833,110.5 139.167,110.5 110.5,110.5C 110.5,103.833 110.5,97.1667 110.5,90.5 Z"/></g>
<g><path style="opacity:1" fill="#c6f787" d="M 394.5,119.5 C 393.175,120.953 392.342,120.619 392,118.5C 391.833,173.002 391.333,227.335 390.5,281.5C 390.5,227.167 390.5,172.833 390.5,118.5C 296.833,118.5 203.167,118.5 109.5,118.5C 204.001,117.833 298.668,117.167 393.5,116.5C 393.291,115.914 392.957,115.414 392.5,115C 361.664,114.832 330.997,114.332 300.5,113.5C 330.338,113.831 360.005,113.498 389.5,112.5C 390.824,108.893 391.491,104.893 391.5,100.5C 391.491,96.107 390.824,92.107 389.5,88.5C 361.005,87.502 332.338,87.1687 303.5,87.5C 333.482,85.5077 363.815,84.841 394.5,85.5C 394.5,96.8333 394.5,108.167 394.5,119.5 Z"/></g>
<g><path style="opacity:1" fill="#cb6be5" d="M 302.5,90.5 C 331.167,90.5 359.833,90.5 388.5,90.5C 388.5,97.1667 388.5,103.833 388.5,110.5C 359.833,110.5 331.167,110.5 302.5,110.5C 302.5,103.833 302.5,97.1667 302.5,90.5 Z"/></g>
<g><path style="opacity:1" fill="#000100" d="M 197.5,89.5 C 232.167,89.5 266.833,89.5 301.5,89.5C 301.5,97.1667 301.5,104.833 301.5,112.5C 266.833,112.5 232.167,112.5 197.5,112.5C 197.5,112.167 197.5,111.833 197.5,111.5C 197.5,104.167 197.5,96.8333 197.5,89.5 Z"/></g>
<g><path style="opacity:1" fill="#9a9b79" d="M 197.5,89.5 C 197.5,89.1667 197.5,88.8333 197.5,88.5C 261.5,88.5 325.5,88.5 389.5,88.5C 390.824,92.107 391.491,96.107 391.5,100.5C 391.491,104.893 390.824,108.893 389.5,112.5C 390.466,104.92 390.799,97.253 390.5,89.5C 360.833,89.5 331.167,89.5 301.5,89.5C 266.833,89.5 232.167,89.5 197.5,89.5 Z"/></g>
<g><path style="opacity:1" fill="#d1ed9a" d="M 301.5,87.5 C 302.167,87.5 302.833,87.5 303.5,87.5C 332.338,87.1687 361.005,87.502 389.5,88.5C 325.5,88.5 261.5,88.5 197.5,88.5C 168.165,88.3334 138.831,88.5 109.5,89C 108.519,96.4129 108.186,103.913 108.5,111.5C 107.508,104.352 107.175,97.0191 107.5,89.5C 107.611,88.8826 107.944,88.3826 108.5,88C 172.832,87.5 237.166,87.3333 301.5,87.5 Z"/></g>
<g><path style="opacity:1" fill="#bffd73" d="M 394.5,119.5 C 394.8,176.179 394.467,232.846 393.5,289.5C 393.5,290.167 393.5,290.833 393.5,291.5C 392.837,293.042 392.17,294.709 391.5,296.5C 390.506,291.544 390.173,286.544 390.5,281.5C 391.333,227.335 391.833,173.002 392,118.5C 392.342,120.619 393.175,120.953 394.5,119.5 Z"/></g>
<g><path style="opacity:1" fill="#160d16" d="M 248.5,150.5 C 241.8,146.646 234.8,143.646 227.5,141.5C 226.737,140.732 225.737,140.232 224.5,140C 217.167,139.333 209.833,139.333 202.5,140C 201.584,140.278 200.918,140.778 200.5,141.5C 193.143,142.514 186.476,145.181 180.5,149.5C 181.507,146.642 183.173,144.142 185.5,142C 188.42,141.592 190.754,140.259 192.5,138C 197.497,138.004 202.497,137.171 207.5,135.5C 213.497,136.164 219.997,136.164 227,135.5C 229.493,137.161 232.16,138.494 235,139.5C 238.193,138.374 239.86,139.708 240,143.5C 244.28,143.574 247.113,145.908 248.5,150.5 Z"/></g>
<g><path style="opacity:1" fill="#847c84" d="M 227.5,141.5 C 218.5,140.167 209.5,140.167 200.5,141.5C 200.918,140.778 201.584,140.278 202.5,140C 209.833,139.333 217.167,139.333 224.5,140C 225.737,140.232 226.737,140.732 227.5,141.5 Z"/></g>
<g><path style="opacity:1" fill="#f2eef1" d="M 227.5,141.5 C 234.8,143.646 241.8,146.646 248.5,150.5C 251.736,153.281 254.736,156.281 257.5,159.5C 256.833,160.833 256.167,162.167 255.5,163.5C 253.596,163.262 252.262,162.262 251.5,160.5C 247.755,155.449 242.755,152.115 236.5,150.5C 234.361,148.537 231.861,147.203 229,146.5C 226.183,147.031 223.35,147.364 220.5,147.5C 209.184,145.348 198.184,146.681 187.5,151.5C 179.589,156.906 172.422,163.24 166,170.5C 164.259,173.309 163.092,176.309 162.5,179.5C 161.833,179.5 161.5,179.833 161.5,180.5C 160.833,180.5 160.167,180.5 159.5,180.5C 158.833,180.5 158.167,180.5 157.5,180.5C 158.038,178.883 158.371,177.216 158.5,175.5C 163.985,165.342 171.319,156.675 180.5,149.5C 186.476,145.181 193.143,142.514 200.5,141.5C 209.5,140.167 218.5,140.167 227.5,141.5 Z"/></g>
<g><path style="opacity:1" fill="#c8acb9" d="M 220.5,147.5 C 194.693,146.68 175.36,157.347 162.5,179.5C 163.092,176.309 164.259,173.309 166,170.5C 172.422,163.24 179.589,156.906 187.5,151.5C 198.184,146.681 209.184,145.348 220.5,147.5 Z"/></g>
<g><path style="opacity:1" fill="#e7cec4" d="M 234.5,153.5 C 230.518,151.704 227.018,152.371 224,155.5C 219.993,162.37 218.493,169.703 219.5,177.5C 213.844,178.038 208.511,179.372 203.5,181.5C 202.609,180.89 201.609,180.557 200.5,180.5C 205.336,177.624 210.669,176.291 216.5,176.5C 216.772,169.134 218.439,162.134 221.5,155.5C 225.085,149.736 229.418,149.069 234.5,153.5 Z"/></g>
<g><path style="opacity:1" fill="#b89ca8" d="M 236.5,150.5 C 242.755,152.115 247.755,155.449 251.5,160.5C 247.326,157.912 242.993,155.579 238.5,153.5C 237.833,152.5 237.167,151.5 236.5,150.5 Z"/></g>
<g><path style="opacity:1" fill="#150413" d="M 221.5,155.5 C 218.439,162.134 216.772,169.134 216.5,176.5C 210.669,176.291 205.336,177.624 200.5,180.5C 194.68,182.648 190.014,186.314 186.5,191.5C 185.833,191.167 185.167,190.833 184.5,190.5C 177.86,185.898 170.526,183.398 162.5,183C 161.177,183.816 160.511,184.983 160.5,186.5C 159.371,188.628 159.204,190.961 160,193.5C 161.359,198.422 163.193,203.089 165.5,207.5C 167.763,211.103 170.43,214.436 173.5,217.5C 175.495,219.711 177.828,220.044 180.5,218.5C 180.5,221.833 180.5,225.167 180.5,228.5C 176.87,228.942 175.87,230.776 177.5,234C 176.449,235.577 175.449,237.077 174.5,238.5C 169.433,233.766 165.099,228.432 161.5,222.5C 161.5,222.167 161.5,221.833 161.5,221.5C 158.286,212.343 156.62,203.009 156.5,193.5C 156.414,188.85 157.414,184.517 159.5,180.5C 160.167,180.5 160.833,180.5 161.5,180.5C 164.667,181.586 167.001,180.419 168.5,177C 170.5,177 172.5,177 174.5,177C 175.232,174.05 173.899,172.55 170.5,172.5C 170.5,171.5 170.5,170.5 170.5,169.5C 175.26,171.26 178.26,174.593 179.5,179.5C 184.876,178.791 187.876,175.791 188.5,170.5C 188.351,169.448 188.517,168.448 189,167.5C 191.417,164.568 193.917,161.902 196.5,159.5C 200.269,158.227 203.769,158.227 207,159.5C 208.188,158.437 208.688,157.103 208.5,155.5C 211.325,155.162 213.492,156.162 215,158.5C 215.48,156.867 216.313,155.534 217.5,154.5C 219.375,152.922 220.708,153.255 221.5,155.5 Z"/></g>
<g><path style="opacity:1" fill="#181119" d="M 180.5,149.5 C 171.319,156.675 163.985,165.342 158.5,175.5C 158.703,173.61 158.037,172.11 156.5,171C 157.416,170.626 158.25,170.126 159,169.5C 161.908,161.921 166.408,155.421 172.5,150C 175.146,149.503 177.813,149.336 180.5,149.5 Z"/></g>
<g><path style="opacity:1" fill="#f4b37f" d="M 234.5,153.5 C 235.728,154.306 236.728,155.306 237.5,156.5C 239.105,159.378 240.439,162.378 241.5,165.5C 241.818,170.032 241.485,174.366 240.5,178.5C 240.5,177.833 240.167,177.5 239.5,177.5C 239.38,171.307 237.547,165.64 234,160.5C 232.887,159.695 231.721,159.028 230.5,158.5C 230.103,157.475 229.437,157.308 228.5,158C 226.959,159.579 225.792,161.413 225,163.5C 224.501,168.823 224.334,174.156 224.5,179.5C 223.577,178.697 222.577,178.53 221.5,179C 220.213,180.41 219.046,181.91 218,183.5C 215.029,181.433 211.862,181.1 208.5,182.5C 208.977,183.478 209.643,184.311 210.5,185C 207.214,187.132 206.547,189.965 208.5,193.5C 205.754,190.001 204.087,186.001 203.5,181.5C 208.511,179.372 213.844,178.038 219.5,177.5C 218.493,169.703 219.993,162.37 224,155.5C 227.018,152.371 230.518,151.704 234.5,153.5 Z"/></g>
<g><path style="opacity:1" fill="#ecd9d7" d="M 264.5,165.5 C 265.167,165.5 265.5,165.833 265.5,166.5C 265.5,167.833 265.5,169.167 265.5,170.5C 264.5,170.5 263.5,170.5 262.5,170.5C 261.699,168.958 261.366,167.292 261.5,165.5C 262.5,165.5 263.5,165.5 264.5,165.5 Z"/></g>
<g><path style="opacity:1" fill="#21141e" d="M 236.5,150.5 C 237.167,151.5 237.833,152.5 238.5,153.5C 237.596,154.209 237.263,155.209 237.5,156.5C 236.728,155.306 235.728,154.306 234.5,153.5C 229.418,149.069 225.085,149.736 221.5,155.5C 220.708,153.255 219.375,152.922 217.5,154.5C 216.313,155.534 215.48,156.867 215,158.5C 213.492,156.162 211.325,155.162 208.5,155.5C 208.688,157.103 208.188,158.437 207,159.5C 203.769,158.227 200.269,158.227 196.5,159.5C 193.917,161.902 191.417,164.568 189,167.5C 188.517,168.448 188.351,169.448 188.5,170.5C 183.167,171.167 180.167,174.167 179.5,179.5C 178.26,174.593 175.26,171.26 170.5,169.5C 170.5,170.5 170.5,171.5 170.5,172.5C 173.899,172.55 175.232,174.05 174.5,177C 172.5,177 170.5,177 168.5,177C 167.001,180.419 164.667,181.586 161.5,180.5C 161.5,179.833 161.833,179.5 162.5,179.5C 175.36,157.347 194.693,146.68 220.5,147.5C 223.35,147.364 226.183,147.031 229,146.5C 231.861,147.203 234.361,148.537 236.5,150.5 Z"/></g>
<g><path style="opacity:1" fill="#d9ccda" d="M 217.5,154.5 C 215.535,154.052 215.202,153.052 216.5,151.5C 217.386,152.325 217.719,153.325 217.5,154.5 Z"/></g>
<g><path style="opacity:1" fill="#e3e0e4" d="M 196.5,159.5 C 192.458,161.362 188.792,163.862 185.5,167C 183.655,168.128 181.655,168.628 179.5,168.5C 179.343,167.127 179.51,165.793 180,164.5C 188.131,155.35 198.297,151.017 210.5,151.5C 210.5,152.5 210.5,153.5 210.5,154.5C 205.552,155.653 200.885,157.319 196.5,159.5 Z"/></g>
<g><path style="opacity:1" fill="#978595" d="M 196.5,167.5 C 197.833,167.5 199.167,167.5 200.5,167.5C 200.5,168.5 200.5,169.5 200.5,170.5C 199.167,170.5 197.833,170.5 196.5,170.5C 196.5,169.5 196.5,168.5 196.5,167.5 Z"/></g>
<g><path style="opacity:1" fill="#390b0f" d="M 230.5,158.5 C 227.193,162.596 226.026,167.263 227,172.5C 228.461,171.117 229.294,171.451 229.5,173.5C 228.153,174.171 226.986,174.171 226,173.5C 225.505,175.473 225.338,177.473 225.5,179.5C 225.167,179.5 224.833,179.5 224.5,179.5C 224.334,174.156 224.501,168.823 225,163.5C 225.792,161.413 226.959,159.579 228.5,158C 229.437,157.308 230.103,157.475 230.5,158.5 Z"/></g>
<g><path style="opacity:1" fill="#eae4e9" d="M 188.5,170.5 C 187.876,175.791 184.876,178.791 179.5,179.5C 180.167,174.167 183.167,171.167 188.5,170.5 Z"/></g>
<g><path style="opacity:1" fill="#180513" d="M 238.5,153.5 C 242.993,155.579 247.326,157.912 251.5,160.5C 252.262,162.262 253.596,163.262 255.5,163.5C 256.444,170.458 257.777,177.458 259.5,184.5C 258.325,184.281 257.325,184.614 256.5,185.5C 257.684,187.046 258.684,188.713 259.5,190.5C 259.065,188.458 259.731,186.458 261.5,184.5C 262.518,185.193 263.518,185.859 264.5,186.5C 264.837,189.656 264.837,192.989 264.5,196.5C 263.769,201.438 262.435,206.105 260.5,210.5C 260.656,206.236 259.989,202.236 258.5,198.5C 254.938,198.035 251.605,196.868 248.5,195C 243.211,191.38 238.211,187.38 233.5,183C 230.929,181.546 228.262,180.38 225.5,179.5C 225.338,177.473 225.505,175.473 226,173.5C 226.986,174.171 228.153,174.171 229.5,173.5C 229.596,178.11 230.596,178.444 232.5,174.5C 233.298,176.078 233.798,177.744 234,179.5C 235.553,175.701 236.886,175.701 238,179.5C 238.278,178.584 238.778,177.918 239.5,177.5C 240.167,177.5 240.5,177.833 240.5,178.5C 240.337,180.857 240.503,183.19 241,185.5C 241.689,186.357 242.522,187.023 243.5,187.5C 244.776,180.803 244.609,174.136 243,167.5C 242.722,166.584 242.222,165.918 241.5,165.5C 240.439,162.378 239.105,159.378 237.5,156.5C 237.263,155.209 237.596,154.209 238.5,153.5 Z"/></g>
<g><path style="opacity:1" fill="#de747f" d="M 265.5,166.5 C 268.451,168.732 270.118,171.732 270.5,175.5C 270.5,177.5 270.5,179.5 270.5,181.5C 269.5,181.5 268.5,181.5 267.5,181.5C 265.562,177.957 263.895,174.29 262.5,170.5C 263.5,170.5 264.5,170.5 265.5,170.5C 265.5,169.167 265.5,167.833 265.5,166.5 Z"/></g>
<g><path style="opacity:1" fill="#c13f58" d="M 230.5,158.5 C 231.721,159.028 232.887,159.695 234,160.5C 237.547,165.64 239.38,171.307 239.5,177.5C 238.778,177.918 238.278,178.584 238,179.5C 236.886,175.701 235.553,175.701 234,179.5C 233.798,177.744 233.298,176.078 232.5,174.5C 230.596,178.444 229.596,178.11 229.5,173.5C 229.294,171.451 228.461,171.117 227,172.5C 226.026,167.263 227.193,162.596 230.5,158.5 Z"/></g>
<g><path style="opacity:1" fill="#c1a7b7" d="M 270.5,187.5 C 270.53,188.497 270.03,189.164 269,189.5C 267.357,188.685 265.857,187.685 264.5,186.5C 261.813,181.785 259.646,176.785 258,171.5C 257.11,168.294 257.443,165.294 259,162.5C 259.622,172.405 263.456,180.739 270.5,187.5 Z"/></g>
<g><path style="opacity:1" fill="#c16448" d="M 241.5,165.5 C 242.222,165.918 242.722,166.584 243,167.5C 244.609,174.136 244.776,180.803 243.5,187.5C 242.522,187.023 241.689,186.357 241,185.5C 240.503,183.19 240.337,180.857 240.5,178.5C 241.485,174.366 241.818,170.032 241.5,165.5 Z"/></g>
<g><path style="opacity:1" fill="#874157" d="M 270.5,175.5 C 270.833,175.5 271.167,175.5 271.5,175.5C 271.5,178.5 271.5,181.5 271.5,184.5C 269.596,184.262 268.262,183.262 267.5,181.5C 268.5,181.5 269.5,181.5 270.5,181.5C 270.5,179.5 270.5,177.5 270.5,175.5 Z"/></g>
<g><path style="opacity:1" fill="#ead8ce" d="M 184.5,190.5 C 184.672,191.492 184.338,192.158 183.5,192.5C 179.722,190.108 175.722,187.941 171.5,186C 167.779,185.322 164.112,185.489 160.5,186.5C 160.511,184.983 161.177,183.816 162.5,183C 170.526,183.398 177.86,185.898 184.5,190.5 Z"/></g>
<g><path style="opacity:1" fill="#301825" d="M 257.5,159.5 C 259.279,160.67 260.279,162.336 260.5,164.5C 262.099,164.232 263.432,164.566 264.5,165.5C 263.5,165.5 262.5,165.5 261.5,165.5C 261.366,167.292 261.699,168.958 262.5,170.5C 263.895,174.29 265.562,177.957 267.5,181.5C 268.262,183.262 269.596,184.262 271.5,184.5C 271.443,185.609 271.11,186.609 270.5,187.5C 263.456,180.739 259.622,172.405 259,162.5C 257.443,165.294 257.11,168.294 258,171.5C 259.646,176.785 261.813,181.785 264.5,186.5C 263.518,185.859 262.518,185.193 261.5,184.5C 259.731,186.458 259.065,188.458 259.5,190.5C 258.684,188.713 257.684,187.046 256.5,185.5C 257.325,184.614 258.325,184.281 259.5,184.5C 257.777,177.458 256.444,170.458 255.5,163.5C 256.167,162.167 256.833,160.833 257.5,159.5 Z"/></g>
<g><path style="opacity:1" fill="#f2b07d" d="M 183.5,192.5 C 182.764,194.229 181.43,195.229 179.5,195.5C 176.408,193.287 173.074,191.621 169.5,190.5C 168.432,189.566 167.099,189.232 165.5,189.5C 165.295,197.744 167.962,204.744 173.5,210.5C 174.833,212.167 176.167,213.833 177.5,215.5C 173.497,212.829 169.497,210.162 165.5,207.5C 163.193,203.089 161.359,198.422 160,193.5C 159.204,190.961 159.371,188.628 160.5,186.5C 164.112,185.489 167.779,185.322 171.5,186C 175.722,187.941 179.722,190.108 183.5,192.5 Z"/></g>
<g><path style="opacity:1" fill="#e9d3c4" d="M 225.5,179.5 C 228.262,180.38 230.929,181.546 233.5,183C 238.211,187.38 243.211,191.38 248.5,195C 251.605,196.868 254.938,198.035 258.5,198.5C 257.448,200.256 255.781,200.923 253.5,200.5C 244.089,193.476 234.755,186.476 225.5,179.5 Z"/></g>
<g><path style="opacity:1" fill="#fab577" d="M 224.5,179.5 C 224.833,179.5 225.167,179.5 225.5,179.5C 234.755,186.476 244.089,193.476 253.5,200.5C 254.833,201.833 256.167,203.167 257.5,204.5C 256.774,207.288 255.107,209.288 252.5,210.5C 247.371,205.128 241.037,203.295 233.5,205C 221.758,208.798 213.424,204.965 208.5,193.5C 206.547,189.965 207.214,187.132 210.5,185C 209.643,184.311 208.977,183.478 208.5,182.5C 211.862,181.1 215.029,181.433 218,183.5C 219.046,181.91 220.213,180.41 221.5,179C 222.577,178.53 223.577,178.697 224.5,179.5 Z"/></g>
<g><path style="opacity:1" fill="#e5dce2" d="M 275.5,190.5 C 280.303,190.479 283.636,192.646 285.5,197C 283.635,199.77 280.968,201.27 277.5,201.5C 277.66,199.801 277.494,198.134 277,196.5C 275.197,195.687 273.697,194.52 272.5,193C 273.13,191.69 274.13,190.856 275.5,190.5 Z"/></g>
<g><path style="opacity:1" fill="#faf9fa" d="M 315.5,207.5 C 306.126,216.373 296.293,224.707 286,232.5C 285.329,231.748 284.496,231.414 283.5,231.5C 280.389,227.613 278.056,223.28 276.5,218.5C 276.5,214.833 276.5,211.167 276.5,207.5C 287.306,201.222 298.639,195.889 310.5,191.5C 310.157,197.479 311.823,202.813 315.5,207.5 Z"/></g>
<g><path style="opacity:1" fill="#8c5b3f" d="M 184.5,190.5 C 185.167,190.833 185.833,191.167 186.5,191.5C 186.167,192.167 185.833,192.833 185.5,193.5C 183.619,195.93 182.285,198.596 181.5,201.5C 181.747,199.142 181.081,197.142 179.5,195.5C 181.43,195.229 182.764,194.229 183.5,192.5C 184.338,192.158 184.672,191.492 184.5,190.5 Z"/></g>
<g><path style="opacity:1" fill="#180913" d="M 271.5,175.5 C 272.5,175.5 273.5,175.5 274.5,175.5C 274.335,179.182 274.501,182.848 275,186.5C 279.505,186.35 283.505,188.017 287,191.5C 287.483,192.448 287.649,193.448 287.5,194.5C 290.11,195.502 292.776,195.335 295.5,194C 307.64,187.67 320.973,181.67 335.5,176C 338.833,175.333 342.167,175.333 345.5,176C 346.46,177.419 347.293,178.919 348,180.5C 348.015,182.791 348.182,184.958 348.5,187C 346.431,187.324 346.098,188.158 347.5,189.5C 345.833,190.667 344.167,191.833 342.5,193C 342.833,193.333 343.167,193.667 343.5,194C 340.564,199.278 336.564,203.445 331.5,206.5C 327.827,212.006 323.327,216.672 318,220.5C 317.667,220.167 317.333,219.833 317,219.5C 316.544,220.744 317.044,221.577 318.5,222C 317.167,222.333 315.833,222.667 314.5,223C 310.694,225.895 307.36,229.228 304.5,233C 307.018,238.414 309.351,243.914 311.5,249.5C 311.608,251.563 311.275,253.73 310.5,256C 312.674,259.039 313.341,262.206 312.5,265.5C 311.326,264.486 310.66,263.153 310.5,261.5C 309.77,259.955 308.437,259.122 306.5,259C 308.608,256.984 308.942,254.817 307.5,252.5C 305.656,246.648 303.323,240.981 300.5,235.5C 299.482,236.193 298.482,236.859 297.5,237.5C 296.761,237.631 296.094,237.464 295.5,237C 297.041,235.629 298.375,234.129 299.5,232.5C 306.162,225.734 312.995,219.068 320,212.5C 320.667,211.833 320.667,211.167 320,210.5C 318.385,209.614 316.885,208.614 315.5,207.5C 311.823,202.813 310.157,197.479 310.5,191.5C 298.639,195.889 287.306,201.222 276.5,207.5C 275.167,207.5 273.833,207.5 272.5,207.5C 273.211,205.97 274.211,204.637 275.5,203.5C 276.167,203.5 276.5,203.167 276.5,202.5C 277.167,202.5 277.5,202.167 277.5,201.5C 280.968,201.27 283.635,199.77 285.5,197C 283.636,192.646 280.303,190.479 275.5,190.5C 273.706,189.767 272.039,188.767 270.5,187.5C 271.11,186.609 271.443,185.609 271.5,184.5C 271.5,181.5 271.5,178.5 271.5,175.5 Z"/></g>
<g><path style="opacity:1" fill="#c395a7" d="M 336.5,185.5 C 337.898,188.356 337.398,191.022 335,193.5C 332.43,195.869 329.596,197.869 326.5,199.5C 325.478,199.145 324.811,198.478 324.5,197.5C 330.167,195.167 334.167,191.167 336.5,185.5 Z"/></g>
<g><path style="opacity:1" fill="#e7adaf" d="M 319.5,189.5 C 317.418,189.472 315.584,190.139 314,191.5C 313.536,190.906 313.369,190.239 313.5,189.5C 314.937,188.275 316.604,187.275 318.5,186.5C 319.386,187.325 319.719,188.325 319.5,189.5 Z"/></g>
<g><path style="opacity:1" fill="#ede9ec" d="M 343.5,179.5 C 342.92,181.749 341.587,183.415 339.5,184.5C 336.187,181.971 332.853,182.138 329.5,185C 327.993,185.837 327.493,187.004 328,188.5C 329.918,187.458 331.751,186.292 333.5,185C 334.749,184.26 335.749,184.427 336.5,185.5C 334.167,191.167 330.167,195.167 324.5,197.5C 321.275,193.718 320.942,189.718 323.5,185.5C 328.5,183.333 333.5,181.167 338.5,179C 340.387,178.22 342.054,178.387 343.5,179.5 Z"/></g>
<g><path style="opacity:1" fill="#bb92a5" d="M 343.5,179.5 C 345.958,181.493 346.125,183.826 344,186.5C 341.203,190.418 339.703,189.751 339.5,184.5C 341.587,183.415 342.92,181.749 343.5,179.5 Z"/></g>
<g><path style="opacity:1" fill="#2f1410" d="M 228.5,192.5 C 230.722,192.559 231.722,193.725 231.5,196C 228.92,202.767 224.42,204.267 218,200.5C 217.251,199.365 217.417,198.365 218.5,197.5C 224.469,201.169 227.803,199.503 228.5,192.5 Z"/></g>
<g><path style="opacity:1" fill="#ef6f73" d="M 313.5,189.5 C 313.369,190.239 313.536,190.906 314,191.5C 315.584,190.139 317.418,189.472 319.5,189.5C 319.21,192.785 319.877,195.785 321.5,198.5C 321.285,202.733 319.285,204.066 315.5,202.5C 312.497,198.451 311.831,194.118 313.5,189.5 Z"/></g>
<g><path style="opacity:1" fill="#826478" d="M 336.5,194.5 C 337.525,194.897 337.692,195.563 337,196.5C 335.164,199.379 332.664,200.879 329.5,201C 332.331,199.334 334.664,197.168 336.5,194.5 Z"/></g>
<g><path style="opacity:1" fill="#882d4d" d="M 276.5,202.5 C 276.5,203.167 276.167,203.5 275.5,203.5C 274.414,203.38 273.747,202.713 273.5,201.5C 271.739,196.157 272.572,195.491 276,199.5C 276.483,200.448 276.649,201.448 276.5,202.5 Z"/></g>
<g><path style="opacity:1" fill="#d4beca" d="M 157.5,180.5 C 158.167,180.5 158.833,180.5 159.5,180.5C 157.414,184.517 156.414,188.85 156.5,193.5C 155.934,202 156.767,210.333 159,218.5C 159.377,219.942 160.21,220.942 161.5,221.5C 161.5,221.833 161.5,222.167 161.5,222.5C 161.672,223.492 161.338,224.158 160.5,224.5C 154.759,212.844 152.926,200.511 155,187.5C 155.39,184.896 156.224,182.562 157.5,180.5 Z"/></g>
<g><path style="opacity:1" fill="#321114" d="M 169.5,190.5 C 173.074,191.621 176.408,193.287 179.5,195.5C 181.081,197.142 181.747,199.142 181.5,201.5C 180.511,206.975 180.178,212.642 180.5,218.5C 177.828,220.044 175.495,219.711 173.5,217.5C 175.483,217.843 176.817,217.176 177.5,215.5C 176.167,213.833 174.833,212.167 173.5,210.5C 174.234,209.292 174.567,207.959 174.5,206.5C 175.5,206.5 176.5,206.5 177.5,206.5C 177.703,204.61 177.037,203.11 175.5,202C 176.938,201.781 178.271,201.281 179.5,200.5C 175.88,196.357 171.546,193.19 166.5,191C 167.448,190.517 168.448,190.351 169.5,190.5 Z"/></g>
<g><path style="opacity:1" fill="#c4455c" d="M 321.5,198.5 C 323.814,200.477 326.147,202.477 328.5,204.5C 323.516,209.865 319.183,209.198 315.5,202.5C 319.285,204.066 321.285,202.733 321.5,198.5 Z"/></g>
<g><path style="opacity:1" fill="#bb4154" d="M 169.5,190.5 C 168.448,190.351 167.448,190.517 166.5,191C 171.546,193.19 175.88,196.357 179.5,200.5C 178.271,201.281 176.938,201.781 175.5,202C 177.037,203.11 177.703,204.61 177.5,206.5C 176.5,206.5 175.5,206.5 174.5,206.5C 174.567,207.959 174.234,209.292 173.5,210.5C 167.962,204.744 165.295,197.744 165.5,189.5C 167.099,189.232 168.432,189.566 169.5,190.5 Z"/></g>
<g><path style="opacity:1" fill="#f8f5f4" d="M 200.5,180.5 C 201.609,180.557 202.609,180.89 203.5,181.5C 204.087,186.001 205.754,190.001 208.5,193.5C 213.424,204.965 221.758,208.798 233.5,205C 241.037,203.295 247.371,205.128 252.5,210.5C 250.594,211.482 248.594,212.482 246.5,213.5C 247.889,215.868 249.222,218.201 250.5,220.5C 242.936,229.618 233.603,236.284 222.5,240.5C 220.259,239.7 219.259,238.034 219.5,235.5C 219.662,233.473 219.495,231.473 219,229.5C 217.117,228.347 216.284,226.681 216.5,224.5C 226.698,225.3 231.698,220.633 231.5,210.5C 230.5,210.5 229.5,210.5 228.5,210.5C 229.536,219.975 225.536,223.308 216.5,220.5C 219.651,217.864 220.818,214.531 220,210.5C 214.664,207.506 209.998,208.506 206,213.5C 205.506,220.16 208.673,222.826 215.5,221.5C 214.235,225.556 211.402,227.556 207,227.5C 205.188,227.507 203.688,226.84 202.5,225.5C 201.41,226.391 201.41,227.391 202.5,228.5C 200.257,229.474 197.924,229.808 195.5,229.5C 199.359,224.438 202.193,218.771 204,212.5C 204.667,209.833 204.667,207.167 204,204.5C 202.592,200.943 201.592,197.276 201,193.5C 199.767,190.583 198.267,187.916 196.5,185.5C 192.213,187.623 188.713,190.623 186,194.5C 185.601,194.272 185.435,193.938 185.5,193.5C 185.833,192.833 186.167,192.167 186.5,191.5C 190.014,186.314 194.68,182.648 200.5,180.5 Z"/></g>
<g><path style="opacity:1" fill="#876979" d="M 156.5,193.5 C 156.62,203.009 158.286,212.343 161.5,221.5C 160.21,220.942 159.377,219.942 159,218.5C 156.767,210.333 155.934,202 156.5,193.5 Z"/></g>
<g><path style="opacity:1" fill="#160b15" d="M 158.5,175.5 C 158.371,177.216 158.038,178.883 157.5,180.5C 156.224,182.562 155.39,184.896 155,187.5C 152.926,200.511 154.759,212.844 160.5,224.5C 162.731,229.066 165.731,233.066 169.5,236.5C 169.577,237.75 170.244,238.583 171.5,239C 170.944,239.383 170.611,239.883 170.5,240.5C 167.493,237.661 164.326,234.994 161,232.5C 160.246,229.201 158.579,226.534 156,224.5C 151.621,214.22 149.621,203.553 150,192.5C 150.96,190.02 151.793,187.52 152.5,185C 152.167,184.667 151.833,184.333 151.5,184C 153.915,181.154 156.249,178.32 158.5,175.5 Z"/></g>
<g><path style="opacity:1" fill="#c5624c" d="M 257.5,204.5 C 259.273,205.314 259.773,206.648 259,208.5C 256.882,213.094 254.048,217.094 250.5,220.5C 249.222,218.201 247.889,215.868 246.5,213.5C 248.594,212.482 250.594,211.482 252.5,210.5C 255.107,209.288 256.774,207.288 257.5,204.5 Z"/></g>
<g><path style="opacity:1" fill="#756f75" d="M 272.5,207.5 C 273.833,207.5 275.167,207.5 276.5,207.5C 276.5,211.167 276.5,214.833 276.5,218.5C 275.681,215.695 275.181,212.695 275,209.5C 274.503,212.146 274.336,214.813 274.5,217.5C 273.833,214.833 273.167,212.167 272.5,209.5C 272.5,208.833 272.5,208.167 272.5,207.5 Z"/></g>
<g><path style="opacity:1" fill="#c993a8" d="M 315.5,207.5 C 316.885,208.614 318.385,209.614 320,210.5C 320.667,211.167 320.667,211.833 320,212.5C 312.995,219.068 306.162,225.734 299.5,232.5C 296.901,233.761 294.568,235.427 292.5,237.5C 288.939,236.26 285.939,234.26 283.5,231.5C 284.496,231.414 285.329,231.748 286,232.5C 296.293,224.707 306.126,216.373 315.5,207.5 Z"/></g>
<g><path style="opacity:1" fill="#c3624a" d="M 165.5,207.5 C 169.497,210.162 173.497,212.829 177.5,215.5C 176.817,217.176 175.483,217.843 173.5,217.5C 170.43,214.436 167.763,211.103 165.5,207.5 Z"/></g>
<g><path style="opacity:1" fill="#190e19" d="M 216.5,220.5 C 216.5,221.167 216.167,221.5 215.5,221.5C 208.673,222.826 205.506,220.16 206,213.5C 209.998,208.506 214.664,207.506 220,210.5C 220.818,214.531 219.651,217.864 216.5,220.5 Z"/></g>
<g><path style="opacity:1" fill="#a399a4" d="M 214.5,209.5 C 215.552,209.351 216.552,209.517 217.5,210C 215.344,211.454 213.01,212.121 210.5,212C 211.858,211.066 213.192,210.232 214.5,209.5 Z"/></g>
<g><path style="opacity:1" fill="#f7b378" d="M 195.5,229.5 C 192.378,230.561 189.378,231.895 186.5,233.5C 184.938,231.628 183.938,229.295 183.5,226.5C 182.548,228.045 182.215,229.712 182.5,231.5C 181.506,221.681 181.173,211.681 181.5,201.5C 182.285,198.596 183.619,195.93 185.5,193.5C 185.435,193.938 185.601,194.272 186,194.5C 188.713,190.623 192.213,187.623 196.5,185.5C 198.267,187.916 199.767,190.583 201,193.5C 201.592,197.276 202.592,200.943 204,204.5C 204.667,207.167 204.667,209.833 204,212.5C 202.193,218.771 199.359,224.438 195.5,229.5 Z"/></g>
<g><path style="opacity:1" fill="#321611" d="M 197.5,207.5 C 198.5,207.5 199.5,207.5 200.5,207.5C 201.803,213.523 199.47,217.189 193.5,218.5C 191.337,218.255 189.67,217.255 188.5,215.5C 190.731,215.113 193.064,214.947 195.5,215C 197.113,212.772 197.78,210.272 197.5,207.5 Z"/></g>
<g><path style="opacity:1" fill="#a78c9d" d="M 161.5,222.5 C 165.099,228.432 169.433,233.766 174.5,238.5C 172.716,238.107 171.05,237.441 169.5,236.5C 165.731,233.066 162.731,229.066 160.5,224.5C 161.338,224.158 161.672,223.492 161.5,222.5 Z"/></g>
<g><path style="opacity:1" fill="#9d766a" d="M 181.5,201.5 C 181.173,211.681 181.506,221.681 182.5,231.5C 181.404,235.289 180.737,235.289 180.5,231.5C 180.5,230.5 180.5,229.5 180.5,228.5C 180.5,225.167 180.5,221.833 180.5,218.5C 180.178,212.642 180.511,206.975 181.5,201.5 Z"/></g>
<g><path style="opacity:1" fill="#5f3027" d="M 186.5,233.5 C 184.401,234.612 182.067,235.279 179.5,235.5C 179.232,233.901 179.566,232.568 180.5,231.5C 180.737,235.289 181.404,235.289 182.5,231.5C 182.215,229.712 182.548,228.045 183.5,226.5C 183.938,229.295 184.938,231.628 186.5,233.5 Z"/></g>
<g><path style="opacity:1" fill="#ece8ec" d="M 307.5,252.5 C 307.672,254.492 307.005,256.158 305.5,257.5C 304.349,258.731 303.183,258.731 302,257.5C 300.476,251.69 298.643,246.023 296.5,240.5C 296.685,239.416 297.018,238.416 297.5,237.5C 298.482,236.859 299.482,236.193 300.5,235.5C 303.323,240.981 305.656,246.648 307.5,252.5 Z"/></g>
<g><path style="opacity:1" fill="#f7f4f6" d="M 186.5,237.5 C 185.741,242.827 187.074,247.494 190.5,251.5C 190.5,252.5 190.5,253.5 190.5,254.5C 187.213,255.264 184.546,257.097 182.5,260C 177.984,263.008 172.984,264.174 167.5,263.5C 167.011,262.005 166.345,260.671 165.5,259.5C 165.392,255.753 165.892,252.086 167,248.5C 172.409,242.867 178.909,239.2 186.5,237.5 Z"/></g>
<g><path style="opacity:1" fill="#25171f" d="M 258.5,198.5 C 259.989,202.236 260.656,206.236 260.5,210.5C 250.166,228.828 234.833,240.828 214.5,246.5C 213.167,246.5 211.833,246.5 210.5,246.5C 210.519,244.94 210.852,243.44 211.5,242C 211.095,241.055 210.428,240.388 209.5,240C 212.122,239.077 214.622,237.911 217,236.5C 217.789,234.288 217.622,232.288 216.5,230.5C 215.833,230.167 215.167,229.833 214.5,229.5C 209.679,230.039 205.012,231.205 200.5,233C 199.058,233.377 198.058,234.21 197.5,235.5C 196.71,236.609 196.21,237.942 196,239.5C 195.506,237.866 195.34,236.199 195.5,234.5C 192.261,233.022 189.928,234.022 188.5,237.5C 187.833,237.5 187.167,237.5 186.5,237.5C 178.909,239.2 172.409,242.867 167,248.5C 165.892,252.086 165.392,255.753 165.5,259.5C 164.185,254.029 164.852,248.695 167.5,243.5C 168.5,242.5 169.5,241.5 170.5,240.5C 170.611,239.883 170.944,239.383 171.5,239C 170.244,238.583 169.577,237.75 169.5,236.5C 171.05,237.441 172.716,238.107 174.5,238.5C 175.449,237.077 176.449,235.577 177.5,234C 175.87,230.776 176.87,228.942 180.5,228.5C 180.5,229.5 180.5,230.5 180.5,231.5C 179.566,232.568 179.232,233.901 179.5,235.5C 182.067,235.279 184.401,234.612 186.5,233.5C 189.378,231.895 192.378,230.561 195.5,229.5C 197.924,229.808 200.257,229.474 202.5,228.5C 201.41,227.391 201.41,226.391 202.5,225.5C 203.688,226.84 205.188,227.507 207,227.5C 211.402,227.556 214.235,225.556 215.5,221.5C 216.167,221.5 216.5,221.167 216.5,220.5C 225.536,223.308 229.536,219.975 228.5,210.5C 229.5,210.5 230.5,210.5 231.5,210.5C 231.698,220.633 226.698,225.3 216.5,224.5C 216.284,226.681 217.117,228.347 219,229.5C 219.495,231.473 219.662,233.473 219.5,235.5C 218.119,238.074 216.452,240.574 214.5,243C 217.451,243.022 220.117,242.189 222.5,240.5C 233.603,236.284 242.936,229.618 250.5,220.5C 254.048,217.094 256.882,213.094 259,208.5C 259.773,206.648 259.273,205.314 257.5,204.5C 256.167,203.167 254.833,201.833 253.5,200.5C 255.781,200.923 257.448,200.256 258.5,198.5 Z"/></g>
<g><path style="opacity:1" fill="#bb98a9" d="M 212.5,232.5 C 210.415,237.109 207.415,241.276 203.5,245C 201.537,245.844 200.204,245.344 199.5,243.5C 204.206,241.125 207.54,237.458 209.5,232.5C 210.614,231.224 211.614,231.224 212.5,232.5 Z"/></g>
<g><path style="opacity:1" fill="#b194a6" d="M 214.5,229.5 C 215.167,229.833 215.833,230.167 216.5,230.5C 216.97,233.346 216.137,235.679 214,237.5C 213.648,235.753 213.148,234.086 212.5,232.5C 214.048,232.179 214.715,231.179 214.5,229.5 Z"/></g>
<g><path style="opacity:1" fill="#f4eff2" d="M 214.5,229.5 C 214.715,231.179 214.048,232.179 212.5,232.5C 211.614,231.224 210.614,231.224 209.5,232.5C 207.54,237.458 204.206,241.125 199.5,243.5C 197.777,241.22 197.111,238.553 197.5,235.5C 198.058,234.21 199.058,233.377 200.5,233C 205.012,231.205 209.679,230.039 214.5,229.5 Z"/></g>
<g><path style="opacity:1" fill="#c9adba" d="M 214.5,246.5 C 234.833,240.828 250.166,228.828 260.5,210.5C 262.435,206.105 263.769,201.438 264.5,196.5C 265.309,194.708 265.809,192.708 266,190.5C 267.182,198.135 266.182,205.469 263,212.5C 256.982,223.19 248.815,232.023 238.5,239C 231.403,242.74 224.07,246.074 216.5,249C 214.5,249.667 212.5,249.667 210.5,249C 211.858,248.066 213.192,247.232 214.5,246.5 Z"/></g>
<g><path style="opacity:1" fill="#e86f73" d="M 195.5,234.5 C 194.371,236.628 194.204,238.961 195,241.5C 197.34,245.006 200.174,248.006 203.5,250.5C 199.423,254.461 195.59,254.127 192,249.5C 189.051,246.05 187.884,242.05 188.5,237.5C 189.928,234.022 192.261,233.022 195.5,234.5 Z"/></g>
<g><path style="opacity:1" fill="#311723" d="M 264.5,186.5 C 265.857,187.685 267.357,188.685 269,189.5C 270.03,189.164 270.53,188.497 270.5,187.5C 272.039,188.767 273.706,189.767 275.5,190.5C 274.13,190.856 273.13,191.69 272.5,193C 273.697,194.52 275.197,195.687 277,196.5C 277.494,198.134 277.66,199.801 277.5,201.5C 277.5,202.167 277.167,202.5 276.5,202.5C 276.649,201.448 276.483,200.448 276,199.5C 272.572,195.491 271.739,196.157 273.5,201.5C 273.747,202.713 274.414,203.38 275.5,203.5C 274.211,204.637 273.211,205.97 272.5,207.5C 272.5,208.167 272.5,208.833 272.5,209.5C 272.029,211.579 271.363,213.579 270.5,215.5C 266.727,219.648 265.394,224.315 266.5,229.5C 267.408,236.011 270.741,240.678 276.5,243.5C 278.988,246.199 281.988,246.865 285.5,245.5C 284.975,244.808 284.308,244.308 283.5,244C 286.611,243.556 289.277,242.223 291.5,240C 287.746,238.081 284.412,235.581 281.5,232.5C 277.848,228.192 275.515,223.192 274.5,217.5C 274.336,214.813 274.503,212.146 275,209.5C 275.181,212.695 275.681,215.695 276.5,218.5C 278.056,223.28 280.389,227.613 283.5,231.5C 285.939,234.26 288.939,236.26 292.5,237.5C 294.568,235.427 296.901,233.761 299.5,232.5C 298.375,234.129 297.041,235.629 295.5,237C 296.094,237.464 296.761,237.631 297.5,237.5C 297.018,238.416 296.685,239.416 296.5,240.5C 298.643,246.023 300.476,251.69 302,257.5C 303.183,258.731 304.349,258.731 305.5,257.5C 307.005,256.158 307.672,254.492 307.5,252.5C 308.942,254.817 308.608,256.984 306.5,259C 308.437,259.122 309.77,259.955 310.5,261.5C 308.621,260.659 306.621,260.325 304.5,260.5C 304.851,263.903 305.518,267.237 306.5,270.5C 306.192,272.924 306.526,275.257 307.5,277.5C 308.265,276.388 309.265,275.721 310.5,275.5C 310.688,277.103 310.188,278.437 309,279.5C 306.861,279.222 304.695,279.222 302.5,279.5C 303.851,277.577 304.518,275.41 304.5,273C 303.909,269.473 303.242,265.973 302.5,262.5C 300.436,262.687 298.436,263.187 296.5,264C 295.663,265.011 295.33,266.178 295.5,267.5C 293.936,263.313 292.436,258.98 291,254.5C 290.536,255.094 290.369,255.761 290.5,256.5C 289.696,254.811 288.696,253.145 287.5,251.5C 286.522,251.977 285.689,252.643 285,253.5C 284.506,251.866 284.34,250.199 284.5,248.5C 280.779,248.631 277.446,247.631 274.5,245.5C 269.945,242.032 266.612,237.699 264.5,232.5C 264.372,230.91 263.705,229.577 262.5,228.5C 259.349,232.151 256.016,235.651 252.5,239C 252.728,239.399 253.062,239.565 253.5,239.5C 253.44,240.043 253.107,240.376 252.5,240.5C 251.735,239.388 250.735,238.721 249.5,238.5C 259.205,229.956 266.372,219.622 271,207.5C 271.808,205.421 271.641,203.421 270.5,201.5C 269.614,202.325 269.281,203.325 269.5,204.5C 258.194,230.668 238.527,246.668 210.5,252.5C 208.023,252.051 206.023,252.717 204.5,254.5C 206.743,255.474 209.076,255.808 211.5,255.5C 211.167,256.167 210.833,256.833 210.5,257.5C 207.167,257.5 203.833,257.5 200.5,257.5C 200.232,259.099 200.566,260.432 201.5,261.5C 201.629,263.216 201.962,264.883 202.5,266.5C 201.833,266.5 201.5,266.833 201.5,267.5C 201.167,267.5 200.833,267.5 200.5,267.5C 200.443,266.391 200.11,265.391 199.5,264.5C 199.657,263.127 199.49,261.793 199,260.5C 198,259.167 197,259.167 196,260.5C 195.501,264.486 195.334,268.486 195.5,272.5C 189.649,273.721 183.982,273.388 178.5,271.5C 181.482,271.896 184.149,271.229 186.5,269.5C 185.271,268.719 183.938,268.219 182.5,268C 187.461,264.374 192.128,260.374 196.5,256C 194.34,254.668 192.34,253.168 190.5,251.5C 187.074,247.494 185.741,242.827 186.5,237.5C 187.167,237.5 187.833,237.5 188.5,237.5C 187.884,242.05 189.051,246.05 192,249.5C 195.59,254.127 199.423,254.461 203.5,250.5C 200.174,248.006 197.34,245.006 195,241.5C 194.204,238.961 194.371,236.628 195.5,234.5C 195.34,236.199 195.506,237.866 196,239.5C 196.21,237.942 196.71,236.609 197.5,235.5C 197.111,238.553 197.777,241.22 199.5,243.5C 200.204,245.344 201.537,245.844 203.5,245C 207.415,241.276 210.415,237.109 212.5,232.5C 213.148,234.086 213.648,235.753 214,237.5C 216.137,235.679 216.97,233.346 216.5,230.5C 217.622,232.288 217.789,234.288 217,236.5C 214.622,237.911 212.122,239.077 209.5,240C 210.428,240.388 211.095,241.055 211.5,242C 210.852,243.44 210.519,244.94 210.5,246.5C 211.833,246.5 213.167,246.5 214.5,246.5C 213.192,247.232 211.858,248.066 210.5,249C 212.5,249.667 214.5,249.667 216.5,249C 224.07,246.074 231.403,242.74 238.5,239C 248.815,232.023 256.982,223.19 263,212.5C 266.182,205.469 267.182,198.135 266,190.5C 265.809,192.708 265.309,194.708 264.5,196.5C 264.837,192.989 264.837,189.656 264.5,186.5 Z"/></g>
<g><path style="opacity:1" fill="#70485c" d="M 210.5,257.5 C 211.833,258.167 211.833,258.833 210.5,259.5C 207.713,258.523 204.713,258.19 201.5,258.5C 201.5,259.5 201.5,260.5 201.5,261.5C 200.566,260.432 200.232,259.099 200.5,257.5C 203.833,257.5 207.167,257.5 210.5,257.5 Z"/></g>
<g><path style="opacity:1" fill="#6b2638" d="M 226.5,251.5 C 221.822,253.608 216.822,254.941 211.5,255.5C 209.076,255.808 206.743,255.474 204.5,254.5C 206.023,252.717 208.023,252.051 210.5,252.5C 209.737,253.268 208.737,253.768 207.5,254C 208.667,254.167 209.833,254.333 211,254.5C 216.095,253.101 221.262,252.101 226.5,251.5 Z"/></g>
<g><path style="opacity:1" fill="#d9c2cc" d="M 293.5,242.5 C 296.837,246.858 298.837,251.858 299.5,257.5C 299.279,260.097 298.779,260.097 298,257.5C 296.029,252.612 294.529,247.612 293.5,242.5 Z"/></g>
<g><path style="opacity:1" fill="#c594a8" d="M 293.5,242.5 C 294.529,247.612 296.029,252.612 298,257.5C 298.779,260.097 299.279,260.097 299.5,257.5C 300.434,258.568 300.768,259.901 300.5,261.5C 298.5,261.5 296.5,261.5 294.5,261.5C 292.873,256.78 291.539,251.946 290.5,247C 290.522,244.817 291.522,243.317 293.5,242.5 Z"/></g>
<g><path style="opacity:1" fill="#b28498" d="M 281.5,232.5 C 284.412,235.581 287.746,238.081 291.5,240C 289.277,242.223 286.611,243.556 283.5,244C 284.308,244.308 284.975,244.808 285.5,245.5C 281.988,246.865 278.988,246.199 276.5,243.5C 279.945,242.801 280.278,241.134 277.5,238.5C 279.045,237.548 280.712,237.215 282.5,237.5C 282.371,235.784 282.038,234.117 281.5,232.5 Z"/></g>
<g><path style="opacity:1" fill="#9d4456" d="M 249.5,238.5 C 242.521,243.827 234.855,247.827 226.5,250.5C 237.058,244.627 246.891,237.627 256,229.5C 262.09,222.331 266.923,214.331 270.5,205.5C 270.376,204.893 270.043,204.56 269.5,204.5C 269.281,203.325 269.614,202.325 270.5,201.5C 271.641,203.421 271.808,205.421 271,207.5C 266.372,219.622 259.205,229.956 249.5,238.5 Z"/></g>
<g><path style="opacity:1" fill="#a87e92" d="M 219.5,235.5 C 219.259,238.034 220.259,239.7 222.5,240.5C 220.117,242.189 217.451,243.022 214.5,243C 216.452,240.574 218.119,238.074 219.5,235.5 Z"/></g>
<g><path style="opacity:1" fill="#da939d" d="M 269.5,204.5 C 270.043,204.56 270.376,204.893 270.5,205.5C 266.923,214.331 262.09,222.331 256,229.5C 246.891,237.627 237.058,244.627 226.5,250.5C 226.5,250.833 226.5,251.167 226.5,251.5C 221.262,252.101 216.095,253.101 211,254.5C 209.833,254.333 208.667,254.167 207.5,254C 208.737,253.768 209.737,253.268 210.5,252.5C 238.527,246.668 258.194,230.668 269.5,204.5 Z"/></g>
<g><path style="opacity:1" fill="#b791a2" d="M 264.5,232.5 C 263.12,231.294 261.953,231.627 261,233.5C 259.441,235.217 258.608,237.217 258.5,239.5C 256.833,239.5 255.167,239.5 253.5,239.5C 253.062,239.565 252.728,239.399 252.5,239C 256.016,235.651 259.349,232.151 262.5,228.5C 263.705,229.577 264.372,230.91 264.5,232.5 Z"/></g>
<g><path style="opacity:1" fill="#f9f5f8" d="M 264.5,232.5 C 266.612,237.699 269.945,242.032 274.5,245.5C 277.814,248.323 280.647,251.656 283,255.5C 284.412,259.728 285.246,264.061 285.5,268.5C 282.287,268.19 279.287,268.523 276.5,269.5C 274.833,269.5 273.167,269.5 271.5,269.5C 270.739,265.216 269.405,261.216 267.5,257.5C 266.576,250.319 263.576,244.319 258.5,239.5C 258.608,237.217 259.441,235.217 261,233.5C 261.953,231.627 263.12,231.294 264.5,232.5 Z"/></g>
<g><path style="opacity:1" fill="#b9a0ab" d="M 270.5,215.5 C 269.167,220.167 267.833,224.833 266.5,229.5C 265.394,224.315 266.727,219.648 270.5,215.5 Z"/></g>
<g><path style="opacity:1" fill="#f2edf1" d="M 272.5,209.5 C 273.167,212.167 273.833,214.833 274.5,217.5C 275.515,223.192 277.848,228.192 281.5,232.5C 282.038,234.117 282.371,235.784 282.5,237.5C 280.712,237.215 279.045,237.548 277.5,238.5C 280.278,241.134 279.945,242.801 276.5,243.5C 270.741,240.678 267.408,236.011 266.5,229.5C 267.833,224.833 269.167,220.167 270.5,215.5C 271.363,213.579 272.029,211.579 272.5,209.5 Z"/></g>
<g><path style="opacity:1" fill="#c893a9" d="M 190.5,251.5 C 192.34,253.168 194.34,254.668 196.5,256C 192.128,260.374 187.461,264.374 182.5,268C 183.938,268.219 185.271,268.719 186.5,269.5C 184.149,271.229 181.482,271.896 178.5,271.5C 173.708,270.373 170.041,267.707 167.5,263.5C 172.984,264.174 177.984,263.008 182.5,260C 184.546,257.097 187.213,255.264 190.5,254.5C 190.5,253.5 190.5,252.5 190.5,251.5 Z"/></g>
<g><path style="opacity:1" fill="#c08fa3" d="M 274.5,245.5 C 277.446,247.631 280.779,248.631 284.5,248.5C 284.34,250.199 284.506,251.866 285,253.5C 285.689,252.643 286.522,251.977 287.5,251.5C 288.696,253.145 289.696,254.811 290.5,256.5C 290.5,258.167 290.5,259.833 290.5,261.5C 290.674,263.861 291.007,266.194 291.5,268.5C 289.5,268.5 287.5,268.5 285.5,268.5C 285.246,264.061 284.412,259.728 283,255.5C 280.647,251.656 277.814,248.323 274.5,245.5 Z"/></g>
<g><path style="opacity:1" fill="#ece7eb" d="M 310.5,261.5 C 310.66,263.153 311.326,264.486 312.5,265.5C 312.79,268.785 312.123,271.785 310.5,274.5C 309.5,274.5 308.5,274.5 307.5,274.5C 307.768,272.901 307.434,271.568 306.5,270.5C 305.518,267.237 304.851,263.903 304.5,260.5C 306.621,260.325 308.621,260.659 310.5,261.5 Z"/></g>
<g><path style="opacity:1" fill="#674256" d="M 199.5,264.5 C 198.842,263.602 198.176,262.602 197.5,261.5C 196.513,264.768 196.18,268.102 196.5,271.5C 197.833,271.5 199.167,271.5 200.5,271.5C 200.5,270.167 200.5,268.833 200.5,267.5C 200.833,267.5 201.167,267.5 201.5,267.5C 201.5,269.167 201.5,270.833 201.5,272.5C 199.5,272.5 197.5,272.5 195.5,272.5C 195.334,268.486 195.501,264.486 196,260.5C 197,259.167 198,259.167 199,260.5C 199.49,261.793 199.657,263.127 199.5,264.5 Z"/></g>
<g><path style="opacity:1" fill="#bc8ba2" d="M 199.5,264.5 C 200.11,265.391 200.443,266.391 200.5,267.5C 200.5,268.833 200.5,270.167 200.5,271.5C 199.167,271.5 197.833,271.5 196.5,271.5C 196.18,268.102 196.513,264.768 197.5,261.5C 198.176,262.602 198.842,263.602 199.5,264.5 Z"/></g>
<g><path style="opacity:1" fill="#a97e93" d="M 192.5,263.5 C 194.893,265.762 195.06,268.428 193,271.5C 190.936,272.591 188.769,272.758 186.5,272C 189.371,269.751 191.371,266.918 192.5,263.5 Z"/></g>
<g><path style="opacity:1" fill="#12030f" d="M 167.5,243.5 C 164.852,248.695 164.185,254.029 165.5,259.5C 166.345,260.671 167.011,262.005 167.5,263.5C 170.041,267.707 173.708,270.373 178.5,271.5C 183.982,273.388 189.649,273.721 195.5,272.5C 197.5,272.5 199.5,272.5 201.5,272.5C 201.5,270.833 201.5,269.167 201.5,267.5C 201.5,266.833 201.833,266.5 202.5,266.5C 203.035,270.819 203.535,275.152 204,279.5C 204.5,280.667 205.333,281.5 206.5,282C 205.944,282.383 205.611,282.883 205.5,283.5C 203.935,286.913 202.935,290.58 202.5,294.5C 200.77,295.026 199.436,296.026 198.5,297.5C 198.167,297.5 197.833,297.5 197.5,297.5C 197.84,295.321 198.84,293.488 200.5,292C 200.167,291.667 199.833,291.333 199.5,291C 200.448,290.517 201.448,290.351 202.5,290.5C 204.606,284.645 203.606,279.479 199.5,275C 195.468,274.785 191.634,275.619 188,277.5C 180.648,275.668 173.482,273.334 166.5,270.5C 163.631,267.382 161.798,263.715 161,259.5C 161.582,256.605 161.415,254.105 160.5,252C 162.878,250.085 164.378,247.585 165,244.5C 165.671,243.748 166.504,243.414 167.5,243.5 Z"/></g>
<g><path style="opacity:1" fill="#c696aa" d="M 302.5,279.5 C 301.167,279.5 299.833,279.5 298.5,279.5C 298.102,275.239 297.102,271.239 295.5,267.5C 295.33,266.178 295.663,265.011 296.5,264C 298.436,263.187 300.436,262.687 302.5,262.5C 303.242,265.973 303.909,269.473 304.5,273C 304.518,275.41 303.851,277.577 302.5,279.5 Z"/></g>
<g><path style="opacity:1" fill="#c68fa5" d="M 210.5,259.5 C 209.366,261.966 209.199,264.633 210,267.5C 211.684,271.716 212.851,276.049 213.5,280.5C 211.167,280.5 208.833,280.5 206.5,280.5C 205.533,275.62 204.199,270.954 202.5,266.5C 201.962,264.883 201.629,263.216 201.5,261.5C 201.5,260.5 201.5,259.5 201.5,258.5C 204.713,258.19 207.713,258.523 210.5,259.5 Z"/></g>
<g><path style="opacity:1" fill="#fcfafb" d="M 284.5,283.5 C 288.5,283.5 292.5,283.5 296.5,283.5C 297.167,284.5 297.833,285.5 298.5,286.5C 299.079,289.331 300.412,291.664 302.5,293.5C 304.055,296.94 305.888,300.273 308,303.5C 308.749,304.635 308.583,305.635 307.5,306.5C 299.082,309.208 291.415,313.208 284.5,318.5C 260.805,310.569 237.139,310.569 213.5,318.5C 206.773,312.791 199.106,308.791 190.5,306.5C 192.427,303.233 194.761,300.233 197.5,297.5C 197.833,297.5 198.167,297.5 198.5,297.5C 207.684,295.862 216.684,296.362 225.5,299C 240.732,300.017 254.732,296.351 267.5,288C 273.449,287.516 279.116,286.349 284.5,284.5C 284.5,284.167 284.5,283.833 284.5,283.5 Z"/></g>
<g><path style="opacity:1" fill="#250f1a" d="M 249.5,238.5 C 250.735,238.721 251.735,239.388 252.5,240.5C 253.107,240.376 253.44,240.043 253.5,239.5C 255.167,239.5 256.833,239.5 258.5,239.5C 263.576,244.319 266.576,250.319 267.5,257.5C 268.293,261.88 269.293,266.214 270.5,270.5C 272.735,270.795 274.735,270.461 276.5,269.5C 281.833,269.5 287.167,269.5 292.5,269.5C 292.706,266.505 292.04,263.838 290.5,261.5C 290.5,259.833 290.5,258.167 290.5,256.5C 290.369,255.761 290.536,255.094 291,254.5C 292.436,258.98 293.936,263.313 295.5,267.5C 297.102,271.239 298.102,275.239 298.5,279.5C 299.833,279.5 301.167,279.5 302.5,279.5C 304.695,279.222 306.861,279.222 309,279.5C 310.188,278.437 310.688,277.103 310.5,275.5C 310.5,275.167 310.5,274.833 310.5,274.5C 312.123,271.785 312.79,268.785 312.5,265.5C 313.5,265.5 314.5,265.5 315.5,265.5C 317.213,275.262 313.213,280.762 303.5,282C 301.638,283.366 299.972,284.866 298.5,286.5C 297.833,285.5 297.167,284.5 296.5,283.5C 293.359,282.679 290.025,282.179 286.5,282C 289.695,281.819 292.695,281.319 295.5,280.5C 295.279,277.933 294.612,275.599 293.5,273.5C 293.5,272.833 293.5,272.167 293.5,271.5C 291.359,270.837 289.025,270.503 286.5,270.5C 282.239,270.411 278.239,271.078 274.5,272.5C 274.167,272.5 273.833,272.5 273.5,272.5C 271.983,272.511 270.816,273.177 270,274.5C 269.802,272.618 269.302,270.952 268.5,269.5C 267.204,264.607 265.538,259.94 263.5,255.5C 262.939,251.043 261.272,247.043 258.5,243.5C 257.061,242.937 255.561,242.603 254,242.5C 251.992,242.307 250.492,242.974 249.5,244.5C 238.585,249.781 227.252,254.281 215.5,258C 212.814,260.546 211.814,263.713 212.5,267.5C 215.23,274.855 218.064,282.188 221,289.5C 223.38,292.275 226.213,292.942 229.5,291.5C 229.058,290.261 228.391,289.261 227.5,288.5C 227.715,286.821 227.048,285.821 225.5,285.5C 227.167,284.833 228.833,284.167 230.5,283.5C 234.132,282.016 237.466,280.016 240.5,277.5C 242.5,277.167 244.5,276.833 246.5,276.5C 244.946,277.895 245.279,278.561 247.5,278.5C 252.052,276.707 256.719,275.873 261.5,276C 262.337,277.011 262.67,278.178 262.5,279.5C 263.209,280.404 264.209,280.737 265.5,280.5C 265.365,282.554 266.032,284.221 267.5,285.5C 264.615,285.194 261.948,285.527 259.5,286.5C 250.809,289.23 242.142,292.064 233.5,295C 223.186,294.774 212.853,294.607 202.5,294.5C 202.935,290.58 203.935,286.913 205.5,283.5C 205.611,282.883 205.944,282.383 206.5,282C 205.333,281.5 204.5,280.667 204,279.5C 203.535,275.152 203.035,270.819 202.5,266.5C 204.199,270.954 205.533,275.62 206.5,280.5C 208.833,280.5 211.167,280.5 213.5,280.5C 212.851,276.049 211.684,271.716 210,267.5C 209.199,264.633 209.366,261.966 210.5,259.5C 211.833,258.833 211.833,258.167 210.5,257.5C 210.833,256.833 211.167,256.167 211.5,255.5C 216.822,254.941 221.822,253.608 226.5,251.5C 226.5,251.167 226.5,250.833 226.5,250.5C 234.855,247.827 242.521,243.827 249.5,238.5 Z"/></g>
<g><path style="opacity:1" fill="#a13f56" d="M 205.5,283.5 C 206.167,283.5 206.833,283.5 207.5,283.5C 210.024,282.2 212.691,282.2 215.5,283.5C 216.801,286.427 217.801,289.427 218.5,292.5C 214.167,292.5 209.833,292.5 205.5,292.5C 205.5,289.5 205.5,286.5 205.5,283.5 Z"/></g>
<g><path style="opacity:1" fill="#b88ea2" d="M 212.5,267.5 C 213.675,267.281 214.675,267.614 215.5,268.5C 217.66,274.157 219.827,279.823 222,285.5C 223.264,287.607 225.097,288.607 227.5,288.5C 228.391,289.261 229.058,290.261 229.5,291.5C 226.213,292.942 223.38,292.275 221,289.5C 218.064,282.188 215.23,274.855 212.5,267.5 Z"/></g>
<g><path style="opacity:1" fill="#ec6571" d="M 207.5,283.5 C 209.857,283.337 212.19,283.503 214.5,284C 214.043,284.414 213.709,284.914 213.5,285.5C 215.415,287.071 216.415,289.071 216.5,291.5C 213.482,291.665 210.482,291.498 207.5,291C 206.221,288.502 206.221,286.002 207.5,283.5 Z"/></g>
<g><path style="opacity:1" fill="#c091aa" d="M 244.5,283.5 C 245.249,284.531 245.915,285.698 246.5,287C 243.875,288.163 241.209,289.33 238.5,290.5C 237.575,289.643 236.908,288.643 236.5,287.5C 239.638,286.751 242.305,285.417 244.5,283.5 Z"/></g>
<g><path style="opacity:1" fill="#b46975" d="M 231.5,285.5 C 232.5,285.5 233.5,285.5 234.5,285.5C 235.014,287.512 235.18,289.512 235,291.5C 233.989,292.337 232.822,292.67 231.5,292.5C 230.562,290.09 230.562,287.756 231.5,285.5 Z"/></g>
<g><path style="opacity:1" fill="#87606f" d="M 284.5,283.5 C 284.5,283.833 284.5,284.167 284.5,284.5C 276.21,285.629 267.876,286.296 259.5,286.5C 261.948,285.527 264.615,285.194 267.5,285.5C 273.102,284.425 278.769,283.758 284.5,283.5 Z"/></g>
<g><path style="opacity:1" fill="#e6dee5" d="M 244.5,283.5 C 242.305,285.417 239.638,286.751 236.5,287.5C 236.594,283.757 238.594,281.757 242.5,281.5C 243.713,281.747 244.38,282.414 244.5,283.5 Z"/></g>
<g><path style="opacity:1" fill="#c7a9b7" d="M 250.5,279.5 C 251.833,279.5 253.167,279.5 254.5,279.5C 254.286,281.144 254.62,282.644 255.5,284C 253.726,284.97 251.893,285.804 250,286.5C 246.608,283.86 246.775,281.527 250.5,279.5 Z"/></g>
<g><path style="opacity:1" fill="#27585f" d="M 259.5,277.5 C 260.738,279.214 261.405,281.214 261.5,283.5C 259.011,283.759 257.344,282.759 256.5,280.5C 258.5,280.5 259.5,279.5 259.5,277.5 Z"/></g>
<g><path style="opacity:1" fill="#bf465e" d="M 273.5,273.5 C 273.064,275.746 272.397,277.913 271.5,280C 277.828,280.057 284.161,279.723 290.5,279C 291.953,277.351 292.953,275.518 293.5,273.5C 294.612,275.599 295.279,277.933 295.5,280.5C 286.146,281.07 276.813,281.57 267.5,282C 269.781,279.243 271.781,276.409 273.5,273.5 Z"/></g>
<g><path style="opacity:1" fill="#cba5b5" d="M 224.5,273.5 C 228.459,278.424 232.793,278.757 237.5,274.5C 237.369,275.376 237.702,276.043 238.5,276.5C 239.736,275.754 241.07,275.421 242.5,275.5C 241.833,276.167 241.167,276.833 240.5,277.5C 237.466,280.016 234.132,282.016 230.5,283.5C 227.99,283.946 225.99,283.28 224.5,281.5C 227.097,281.357 229.431,280.523 231.5,279C 227.588,279.024 225.255,277.19 224.5,273.5 Z"/></g>
<g><path style="opacity:1" fill="#c3ced9" d="M 259.5,277.5 C 259.5,279.5 258.5,280.5 256.5,280.5C 256.5,279.5 256.5,278.5 256.5,277.5C 257.5,277.5 258.5,277.5 259.5,277.5 Z"/></g>
<g><path style="opacity:1" fill="#806676" d="M 306.5,270.5 C 307.434,271.568 307.768,272.901 307.5,274.5C 308.5,274.5 309.5,274.5 310.5,274.5C 310.5,274.833 310.5,275.167 310.5,275.5C 309.265,275.721 308.265,276.388 307.5,277.5C 306.526,275.257 306.192,272.924 306.5,270.5 Z"/></g>
<g><path style="opacity:1" fill="#f66d71" d="M 293.5,271.5 C 293.5,272.167 293.5,272.833 293.5,273.5C 292.953,275.518 291.953,277.351 290.5,279C 284.161,279.723 277.828,280.057 271.5,280C 272.397,277.913 273.064,275.746 273.5,273.5C 273.5,273.167 273.5,272.833 273.5,272.5C 273.833,272.5 274.167,272.5 274.5,272.5C 280.822,271.986 287.155,271.653 293.5,271.5 Z"/></g>
<g><path style="opacity:1" fill="#411423" d="M 268.5,269.5 C 269.302,270.952 269.802,272.618 270,274.5C 270.816,273.177 271.983,272.511 273.5,272.5C 273.5,272.833 273.5,273.167 273.5,273.5C 271.781,276.409 269.781,279.243 267.5,282C 276.813,281.57 286.146,281.07 295.5,280.5C 292.695,281.319 289.695,281.819 286.5,282C 290.025,282.179 293.359,282.679 296.5,283.5C 292.5,283.5 288.5,283.5 284.5,283.5C 278.769,283.758 273.102,284.425 267.5,285.5C 266.032,284.221 265.365,282.554 265.5,280.5C 264.209,280.737 263.209,280.404 262.5,279.5C 264.39,279.703 265.89,279.037 267,277.5C 268.252,274.986 268.752,272.32 268.5,269.5 Z"/></g>
<g><path style="opacity:1" fill="#b4899d" d="M 263.5,255.5 C 265.538,259.94 267.204,264.607 268.5,269.5C 268.752,272.32 268.252,274.986 267,277.5C 265.89,279.037 264.39,279.703 262.5,279.5C 262.67,278.178 262.337,277.011 261.5,276C 256.719,275.873 252.052,276.707 247.5,278.5C 245.279,278.561 244.946,277.895 246.5,276.5C 250.223,275.703 253.89,274.703 257.5,273.5C 259.817,274.942 261.984,274.608 264,272.5C 263.875,266.724 263.709,261.057 263.5,255.5 Z"/></g>
<g><path style="opacity:1" fill="#9a6b6e" d="M 293.5,271.5 C 287.155,271.653 280.822,271.986 274.5,272.5C 278.239,271.078 282.239,270.411 286.5,270.5C 289.025,270.503 291.359,270.837 293.5,271.5 Z"/></g>
<g><path style="opacity:1" fill="#68495a" d="M 290.5,261.5 C 292.04,263.838 292.706,266.505 292.5,269.5C 287.167,269.5 281.833,269.5 276.5,269.5C 279.287,268.523 282.287,268.19 285.5,268.5C 287.5,268.5 289.5,268.5 291.5,268.5C 291.007,266.194 290.674,263.861 290.5,261.5 Z"/></g>
<g><path style="opacity:1" fill="#645d66" d="M 267.5,257.5 C 269.405,261.216 270.739,265.216 271.5,269.5C 273.167,269.5 274.833,269.5 276.5,269.5C 274.735,270.461 272.735,270.795 270.5,270.5C 269.293,266.214 268.293,261.88 267.5,257.5 Z"/></g>
<g><path style="opacity:1" fill="#f1ecef" d="M 255.5,255.5 C 255.672,256.492 255.338,257.158 254.5,257.5C 247.896,252.431 244.229,254.097 243.5,262.5C 242.659,263.009 242.159,262.343 242,260.5C 241.204,263.039 241.371,265.372 242.5,267.5C 243.262,269.262 244.596,270.262 246.5,270.5C 246.918,271.222 247.584,271.722 248.5,272C 247.944,272.383 247.611,272.883 247.5,273.5C 246.22,274.931 244.553,275.598 242.5,275.5C 241.07,275.421 239.736,275.754 238.5,276.5C 237.702,276.043 237.369,275.376 237.5,274.5C 241.211,267.587 239.211,263.253 231.5,261.5C 225.067,263.026 222.733,267.026 224.5,273.5C 225.255,277.19 227.588,279.024 231.5,279C 229.431,280.523 227.097,281.357 224.5,281.5C 222.213,276.143 220.213,270.643 218.5,265C 218.759,263.739 219.426,262.739 220.5,262C 229.919,259.09 238.919,255.423 247.5,251C 252.094,249.349 254.76,250.849 255.5,255.5 Z"/></g>
<g><path style="opacity:1" fill="#382d35" d="M 253.5,247.5 C 257.726,253.637 260.726,260.471 262.5,268C 262.069,270.932 260.402,272.766 257.5,273.5C 253.89,274.703 250.223,275.703 246.5,276.5C 244.5,276.833 242.5,277.167 240.5,277.5C 241.167,276.833 241.833,276.167 242.5,275.5C 244.553,275.598 246.22,274.931 247.5,273.5C 251.567,272.886 255.4,271.552 259,269.5C 259.288,264.428 258.121,259.762 255.5,255.5C 254.76,250.849 252.094,249.349 247.5,251C 238.919,255.423 229.919,259.09 220.5,262C 219.426,262.739 218.759,263.739 218.5,265C 220.213,270.643 222.213,276.143 224.5,281.5C 225.99,283.28 227.99,283.946 230.5,283.5C 228.833,284.167 227.167,284.833 225.5,285.5C 223.292,284.106 221.792,282.106 221,279.5C 220.232,275.863 219.066,272.363 217.5,269C 216.327,266.479 216.327,263.979 217.5,261.5C 227.744,257.55 237.744,253.05 247.5,248C 249.473,247.505 251.473,247.338 253.5,247.5 Z"/></g>
<g><path style="opacity:1" fill="#411e28" d="M 237.5,274.5 C 232.793,278.757 228.459,278.424 224.5,273.5C 222.733,267.026 225.067,263.026 231.5,261.5C 239.211,263.253 241.211,267.587 237.5,274.5 Z"/></g>
<g><path style="opacity:1" fill="#af455b" d="M 235.5,265.5 C 238.276,268.51 237.942,271.344 234.5,274C 229.171,275.822 226.504,273.989 226.5,268.5C 226.833,268.5 227.167,268.5 227.5,268.5C 227.33,269.822 227.663,270.989 228.5,272C 233.913,273.9 236.247,272.067 235.5,266.5C 235.5,266.167 235.5,265.833 235.5,265.5 Z"/></g>
<g><path style="opacity:1" fill="#f36e72" d="M 235.5,266.5 C 236.247,272.067 233.913,273.9 228.5,272C 227.663,270.989 227.33,269.822 227.5,268.5C 227.611,267.883 227.944,267.383 228.5,267C 230.81,266.503 233.143,266.337 235.5,266.5 Z"/></g>
<g><path style="opacity:1" fill="#e2c8d4" d="M 255.5,255.5 C 258.121,259.762 259.288,264.428 259,269.5C 255.4,271.552 251.567,272.886 247.5,273.5C 247.611,272.883 247.944,272.383 248.5,272C 247.584,271.722 246.918,271.222 246.5,270.5C 250.044,270.868 253.044,269.868 255.5,267.5C 256.097,267.265 256.43,266.765 256.5,266C 255.984,263.331 255.317,260.831 254.5,258.5C 254.5,258.167 254.5,257.833 254.5,257.5C 255.338,257.158 255.672,256.492 255.5,255.5 Z"/></g>
<g><path style="opacity:1" fill="#684453" d="M 255.5,267.5 C 253.044,269.868 250.044,270.868 246.5,270.5C 244.596,270.262 243.262,269.262 242.5,267.5C 242.511,264.999 243.178,264.832 244.5,267C 248.404,267.288 252.071,267.454 255.5,267.5 Z"/></g>
<g><path style="opacity:1" fill="#e6a2a6" d="M 235.5,265.5 C 235.5,265.833 235.5,266.167 235.5,266.5C 233.143,266.337 230.81,266.503 228.5,267C 227.944,267.383 227.611,267.883 227.5,268.5C 227.167,268.5 226.833,268.5 226.5,268.5C 228.176,263.333 231.176,262.333 235.5,265.5 Z"/></g>
<g><path style="opacity:1" fill="#af8698" d="M 254.5,258.5 C 255.317,260.831 255.984,263.331 256.5,266C 256.43,266.765 256.097,267.265 255.5,267.5C 252.071,267.454 248.404,267.288 244.5,267C 243.178,264.832 242.511,264.999 242.5,267.5C 241.371,265.372 241.204,263.039 242,260.5C 242.159,262.343 242.659,263.009 243.5,262.5C 245.9,265.24 248.9,266.073 252.5,265C 254.229,263.211 254.896,261.044 254.5,258.5 Z"/></g>
<g><path style="opacity:1" fill="#1d1825" d="M 254.5,257.5 C 254.5,257.833 254.5,258.167 254.5,258.5C 254.896,261.044 254.229,263.211 252.5,265C 248.9,266.073 245.9,265.24 243.5,262.5C 244.229,254.097 247.896,252.431 254.5,257.5 Z"/></g>
<g><path style="opacity:1" fill="#3a697a" d="M 246.5,256.5 C 252.158,255.679 253.825,257.846 251.5,263C 246.135,263.784 244.468,261.617 246.5,256.5 Z"/></g>
<g><path style="opacity:1" fill="#d9d0d6" d="M 249.5,244.5 C 249.389,245.117 249.056,245.617 248.5,246C 250.382,246.198 252.048,246.698 253.5,247.5C 251.473,247.338 249.473,247.505 247.5,248C 237.744,253.05 227.744,257.55 217.5,261.5C 216.327,263.979 216.327,266.479 217.5,269C 219.066,272.363 220.232,275.863 221,279.5C 221.792,282.106 223.292,284.106 225.5,285.5C 227.048,285.821 227.715,286.821 227.5,288.5C 225.097,288.607 223.264,287.607 222,285.5C 219.827,279.823 217.66,274.157 215.5,268.5C 214.675,267.614 213.675,267.281 212.5,267.5C 211.814,263.713 212.814,260.546 215.5,258C 227.252,254.281 238.585,249.781 249.5,244.5 Z"/></g>
<g><path style="opacity:1" fill="#eeeaed" d="M 263.5,255.5 C 263.709,261.057 263.875,266.724 264,272.5C 261.984,274.608 259.817,274.942 257.5,273.5C 260.402,272.766 262.069,270.932 262.5,268C 260.726,260.471 257.726,253.637 253.5,247.5C 252.048,246.698 250.382,246.198 248.5,246C 249.056,245.617 249.389,245.117 249.5,244.5C 250.492,242.974 251.992,242.307 254,242.5C 255.561,242.603 257.061,242.937 258.5,243.5C 261.272,247.043 262.939,251.043 263.5,255.5 Z"/></g>
<g><path style="opacity:1" fill="#c091a5" d="M 284.5,284.5 C 279.116,286.349 273.449,287.516 267.5,288C 254.732,296.351 240.732,300.017 225.5,299C 216.684,296.362 207.684,295.862 198.5,297.5C 199.436,296.026 200.77,295.026 202.5,294.5C 212.853,294.607 223.186,294.774 233.5,295C 242.142,292.064 250.809,289.23 259.5,286.5C 267.876,286.296 276.21,285.629 284.5,284.5 Z"/></g>
<g><path style="opacity:1" fill="#180b14" d="M 331.5,347.5 C 332.473,346.209 333.473,346.209 334.5,347.5C 337.292,351.784 337.626,356.117 335.5,360.5C 334.624,361.251 333.624,361.751 332.5,362C 318.333,363.161 304.499,361.994 291,358.5C 288.79,359.749 286.624,359.582 284.5,358C 284.833,357.667 285.167,357.333 285.5,357C 283.89,354.689 282.557,352.189 281.5,349.5C 281.727,347.329 282.06,345.162 282.5,343C 281.253,334.733 276.586,329.066 268.5,326C 259.684,322.934 250.351,321.934 240.5,323C 238.919,323.707 237.419,324.54 236,325.5C 235.667,325.167 235.333,324.833 235,324.5C 233.004,324.996 231.337,325.996 230,327.5C 229.586,327.043 229.086,326.709 228.5,326.5C 221.818,329.272 217.651,333.605 216,339.5C 215.83,345.196 215.33,350.862 214.5,356.5C 209.539,360.305 203.539,362.472 196.5,363C 187.833,363.667 179.167,363.667 170.5,363C 166.52,362.186 163.52,360.019 161.5,356.5C 161.888,354.359 161.888,352.359 161.5,350.5C 162.368,348.204 163.702,347.537 165.5,348.5C 165.215,350.288 165.548,351.955 166.5,353.5C 169.084,354.393 171.751,354.726 174.5,354.5C 172.393,355.468 170.059,355.802 167.5,355.5C 165.952,355.821 165.285,356.821 165.5,358.5C 181.076,359.472 196.409,358.139 211.5,354.5C 212.833,348.833 212.833,343.167 211.5,337.5C 211.833,336.833 212.167,336.167 212.5,335.5C 212.833,335.5 213.167,335.5 213.5,335.5C 215.89,333.733 217.557,331.4 218.5,328.5C 216.57,324.9 213.903,321.9 210.5,319.5C 204.26,313.713 196.927,310.047 188.5,308.5C 189.167,307.833 189.833,307.167 190.5,306.5C 199.106,308.791 206.773,312.791 213.5,318.5C 215.795,321.297 218.295,323.964 221,326.5C 239.259,316.169 257.759,315.835 276.5,325.5C 279.777,323.891 282.444,321.558 284.5,318.5C 291.415,313.208 299.082,309.208 307.5,306.5C 308.583,305.635 308.749,304.635 308,303.5C 305.888,300.273 304.055,296.94 302.5,293.5C 303.117,293.389 303.617,293.056 304,292.5C 308.325,296.08 311.158,300.247 312.5,305C 313.986,307.814 315.653,310.481 317.5,313C 317.043,313.414 316.709,313.914 316.5,314.5C 319.572,321.159 321.405,328.159 322,335.5C 326.795,337.817 330.962,340.984 334.5,345C 333.551,345.617 332.718,345.451 332,344.5C 331.517,345.448 331.351,346.448 331.5,347.5 Z"/></g>
<g><path style="opacity:1" fill="#baec7a" d="M 389.5,281.5 C 389.833,281.5 390.167,281.5 390.5,281.5C 390.173,286.544 390.506,291.544 391.5,296.5C 392.17,294.709 392.837,293.042 393.5,291.5C 390.299,310.944 383.466,328.944 373,345.5C 340.446,390.119 299.113,424.119 249,447.5C 212.108,429.277 179.108,405.61 150,376.5C 133.729,359.63 121.229,340.297 112.5,318.5C 112.024,313.899 111.024,309.399 109.5,305C 109.667,304.167 109.833,303.333 110,302.5C 110.852,303.571 111.685,304.571 112.5,305.5C 119.747,327.657 130.913,347.657 146,365.5C 175.338,398.088 209.838,423.754 249.5,442.5C 257.802,438.015 266.135,433.515 274.5,429C 309.574,408.934 339.407,382.767 364,350.5C 378.914,329.931 387.414,306.931 389.5,281.5 Z"/></g>
<g><path style="opacity:1" fill="#bfb4bf" d="M 332.5,356.5 C 324.548,359.394 316.214,360.227 307.5,359C 300.722,357.812 294.055,356.312 287.5,354.5C 286.15,353.35 286.316,352.683 288,352.5C 293.814,353.745 299.647,354.912 305.5,356C 314.704,356.362 323.704,356.529 332.5,356.5 Z"/></g>
<g><path style="opacity:1" fill="#c7bec9" d="M 211.5,354.5 C 196.409,358.139 181.076,359.472 165.5,358.5C 165.285,356.821 165.952,355.821 167.5,355.5C 181.714,357.313 195.881,356.313 210,352.5C 211.03,352.836 211.53,353.503 211.5,354.5 Z"/></g>
<g><path style="opacity:1" fill="#37252d" d="M 320.5,340.5 C 322.674,340.75 324.341,341.75 325.5,343.5C 321.009,342.885 317.009,343.885 313.5,346.5C 310.818,348.53 309.151,351.197 308.5,354.5C 309.5,354.5 310.5,354.5 311.5,354.5C 318.211,354.713 324.877,354.38 331.5,353.5C 332.091,354.151 332.757,354.818 333.5,355.5C 333.376,356.107 333.043,356.44 332.5,356.5C 323.704,356.529 314.704,356.362 305.5,356C 299.647,354.912 293.814,353.745 288,352.5C 286.316,352.683 286.15,353.35 287.5,354.5C 285.952,354.179 285.285,353.179 285.5,351.5C 287.099,351.768 288.432,351.434 289.5,350.5C 294.012,351.981 298.678,352.648 303.5,352.5C 303.5,351.167 303.5,349.833 303.5,348.5C 304.593,346.651 305.926,344.984 307.5,343.5C 308.167,343.5 308.833,343.5 309.5,343.5C 307.04,346.084 305.873,349.084 306,352.5C 308.932,346.057 313.766,342.057 320.5,340.5 Z"/></g>
<g><path style="opacity:1" fill="#c4b7be" d="M 182.5,345.5 C 186.508,347.173 188.508,350.173 188.5,354.5C 183.833,354.5 179.167,354.5 174.5,354.5C 171.751,354.726 169.084,354.393 166.5,353.5C 165.548,351.955 165.215,350.288 165.5,348.5C 165.833,348.5 166.167,348.5 166.5,348.5C 166.5,349.833 166.5,351.167 166.5,352.5C 172.797,353.32 179.131,353.653 185.5,353.5C 185.428,350.447 184.428,347.781 182.5,345.5 Z"/></g>
<g><path style="opacity:1" fill="#ae8894" d="M 313.5,346.5 C 312.629,349.112 311.963,351.779 311.5,354.5C 310.5,354.5 309.5,354.5 308.5,354.5C 309.151,351.197 310.818,348.53 313.5,346.5 Z"/></g>
<g><path style="opacity:1" fill="#f3f1f3" d="M 325.5,343.5 C 327.754,344.415 329.754,345.748 331.5,347.5C 332.573,349.653 332.573,351.653 331.5,353.5C 324.877,354.38 318.211,354.713 311.5,354.5C 311.963,351.779 312.629,349.112 313.5,346.5C 317.009,343.885 321.009,342.885 325.5,343.5 Z"/></g>
<g><path style="opacity:1" fill="#fbfafb" d="M 171.5,343.5 C 175.372,343.242 179.039,343.909 182.5,345.5C 184.428,347.781 185.428,350.447 185.5,353.5C 179.131,353.653 172.797,353.32 166.5,352.5C 166.5,351.167 166.5,349.833 166.5,348.5C 167.833,346.5 169.5,344.833 171.5,343.5 Z"/></g>
<g><path style="opacity:1" fill="#b88a95" d="M 320.5,340.5 C 313.766,342.057 308.932,346.057 306,352.5C 305.873,349.084 307.04,346.084 309.5,343.5C 311.255,342.928 312.922,342.094 314.5,341C 316.473,340.505 318.473,340.338 320.5,340.5 Z"/></g>
<g><path style="opacity:1" fill="#2f1720" d="M 184.5,315.5 C 191.447,319.265 198.781,322.265 206.5,324.5C 210.215,326.405 214.215,327.738 218.5,328.5C 217.557,331.4 215.89,333.733 213.5,335.5C 214.63,333.685 215.296,331.685 215.5,329.5C 213.139,329.326 210.806,328.993 208.5,328.5C 200.448,325.369 192.448,322.036 184.5,318.5C 181.413,322.181 182.08,324.848 186.5,326.5C 190.894,329.859 195.894,331.859 201.5,332.5C 204.799,334.483 208.466,335.483 212.5,335.5C 212.167,336.167 211.833,336.833 211.5,337.5C 212.833,343.167 212.833,348.833 211.5,354.5C 211.53,353.503 211.03,352.836 210,352.5C 195.881,356.313 181.714,357.313 167.5,355.5C 170.059,355.802 172.393,355.468 174.5,354.5C 179.167,354.5 183.833,354.5 188.5,354.5C 188.508,350.173 186.508,347.173 182.5,345.5C 179.039,343.909 175.372,343.242 171.5,343.5C 173.763,341.582 176.096,339.582 178.5,337.5C 179.795,333.62 179.795,329.786 178.5,326C 179.113,323.853 179.779,321.686 180.5,319.5C 182.216,318.451 183.549,317.118 184.5,315.5 Z"/></g>
<g><path style="opacity:1" fill="#9c5563" d="M 187.5,343.5 C 190.832,345.992 192.332,349.326 192,353.5C 190.343,350.354 188.509,347.354 186.5,344.5C 187.167,344.5 187.5,344.167 187.5,343.5 Z"/></g>
<g><path style="opacity:1" fill="#c696a8" d="M 181.5,328.5 C 181.735,327.903 182.235,327.57 183,327.5C 191.768,332.923 201.268,336.256 211.5,337.5C 211.5,341.833 211.5,346.167 211.5,350.5C 205.748,351.021 200.082,352.021 194.5,353.5C 194.167,351.5 193.833,349.5 193.5,347.5C 196.99,347.755 199.657,346.422 201.5,343.5C 202.631,341.926 202.798,340.259 202,338.5C 195.109,335.305 188.276,331.971 181.5,328.5 Z"/></g>
<g><path style="opacity:1" fill="#c9a3b2" d="M 187.5,343.5 C 187.5,344.167 187.167,344.5 186.5,344.5C 183.401,342.855 180.068,341.688 176.5,341C 180.562,340.121 184.229,340.954 187.5,343.5 Z"/></g>
<g><path style="opacity:1" fill="#c792a7" d="M 312.5,329.5 C 306.886,332.608 301.386,335.941 296,339.5C 295.764,344.661 298.264,347.661 303.5,348.5C 303.5,349.833 303.5,351.167 303.5,352.5C 298.678,352.648 294.012,351.981 289.5,350.5C 288.209,350.737 287.209,350.404 286.5,349.5C 286.5,345.5 286.5,341.5 286.5,337.5C 295.525,335.987 304.192,333.32 312.5,329.5 Z"/></g>
<g><path style="opacity:1" fill="#f7f3f6" d="M 181.5,328.5 C 188.276,331.971 195.109,335.305 202,338.5C 202.798,340.259 202.631,341.926 201.5,343.5C 199.657,346.422 196.99,347.755 193.5,347.5C 190.634,342.637 186.467,339.304 181,337.5C 180.195,334.304 180.362,331.304 181.5,328.5 Z"/></g>
<g><path style="opacity:1" fill="#b34057" d="M 289.5,328.5 C 287.128,331.292 288.128,332.625 292.5,332.5C 296.512,331.497 300.512,330.497 304.5,329.5C 304.389,330.117 304.056,330.617 303.5,331C 297.916,332.451 292.416,333.951 287,335.5C 284.308,334.469 282.808,332.469 282.5,329.5C 284.806,329.007 287.139,328.674 289.5,328.5 Z"/></g>
<g><path style="opacity:1" fill="#baacb6" d="M 317.5,337.5 C 316.791,338.404 315.791,338.737 314.5,338.5C 316.242,335.855 316.909,332.855 316.5,329.5C 315.167,329.5 313.833,329.5 312.5,329.5C 313.751,327.78 315.251,327.447 317,328.5C 317.498,331.482 317.665,334.482 317.5,337.5 Z"/></g>
<g><path style="opacity:1" fill="#af3d58" d="M 208.5,328.5 C 210.806,328.993 213.139,329.326 215.5,329.5C 215.296,331.685 214.63,333.685 213.5,335.5C 213.167,335.5 212.833,335.5 212.5,335.5C 208.466,335.483 204.799,334.483 201.5,332.5C 203.604,332.799 205.604,332.466 207.5,331.5C 208.127,330.583 208.461,329.583 208.5,328.5 Z"/></g>
<g><path style="opacity:1" fill="#f9f5f7" d="M 312.5,329.5 C 313.833,329.5 315.167,329.5 316.5,329.5C 316.909,332.855 316.242,335.855 314.5,338.5C 311.63,339.433 309.296,341.1 307.5,343.5C 305.926,344.984 304.593,346.651 303.5,348.5C 298.264,347.661 295.764,344.661 296,339.5C 301.386,335.941 306.886,332.608 312.5,329.5 Z"/></g>
<g><path style="opacity:1" fill="#32101d" d="M 314.5,318.5 C 316.928,320.614 318.594,323.281 319.5,326.5C 318.896,330.303 318.23,333.969 317.5,337.5C 317.665,334.482 317.498,331.482 317,328.5C 315.251,327.447 313.751,327.78 312.5,329.5C 304.192,333.32 295.525,335.987 286.5,337.5C 286.5,341.5 286.5,345.5 286.5,349.5C 285.834,345.316 285.167,340.982 284.5,336.5C 281.546,334.7 280.879,332.367 282.5,329.5C 282.808,332.469 284.308,334.469 287,335.5C 292.416,333.951 297.916,332.451 303.5,331C 304.056,330.617 304.389,330.117 304.5,329.5C 308.027,328.74 311.36,327.406 314.5,325.5C 315.575,323.189 315.575,320.856 314.5,318.5 Z"/></g>
<g><path style="opacity:1" fill="#f16d6f" d="M 314.5,318.5 C 315.575,320.856 315.575,323.189 314.5,325.5C 311.36,327.406 308.027,328.74 304.5,329.5C 300.512,330.497 296.512,331.497 292.5,332.5C 288.128,332.625 287.128,331.292 289.5,328.5C 297.678,325.026 306.011,321.693 314.5,318.5 Z"/></g>
<g><path style="opacity:1" fill="#f56f74" d="M 208.5,328.5 C 208.461,329.583 208.127,330.583 207.5,331.5C 205.604,332.466 203.604,332.799 201.5,332.5C 196.88,329.695 191.88,327.695 186.5,326.5C 182.08,324.848 181.413,322.181 184.5,318.5C 192.448,322.036 200.448,325.369 208.5,328.5 Z"/></g>
<g><path style="opacity:1" fill="#a53f4d" d="M 186.5,326.5 C 191.88,327.695 196.88,329.695 201.5,332.5C 195.894,331.859 190.894,329.859 186.5,326.5 Z"/></g>
<g><path style="opacity:1" fill="#b8899f" d="M 210.5,319.5 C 213.903,321.9 216.57,324.9 218.5,328.5C 214.215,327.738 210.215,326.405 206.5,324.5C 208.587,323.415 209.92,321.749 210.5,319.5 Z"/></g>
<g><path style="opacity:1" fill="#bc8ea1" d="M 287.5,319.5 C 288.08,321.749 289.413,323.415 291.5,324.5C 278.049,329.81 276.715,328.143 287.5,319.5 Z"/></g>
<g><path style="opacity:1" fill="#ca95a9" d="M 284.5,318.5 C 282.444,321.558 279.777,323.891 276.5,325.5C 257.759,315.835 239.259,316.169 221,326.5C 218.295,323.964 215.795,321.297 213.5,318.5C 237.139,310.569 260.805,310.569 284.5,318.5 Z"/></g>
<g><path style="opacity:1" fill="#f4f1f4" d="M 291.5,324.5 C 289.413,323.415 288.08,321.749 287.5,319.5C 294.359,313.477 302.192,310.143 311,309.5C 312.814,311.715 313.314,314.048 312.5,316.5C 305.632,319.566 298.632,322.233 291.5,324.5 Z"/></g>
<g><path style="opacity:1" fill="#f2eff2" d="M 188.5,308.5 C 196.927,310.047 204.26,313.713 210.5,319.5C 209.92,321.749 208.587,323.415 206.5,324.5C 198.781,322.265 191.447,319.265 184.5,315.5C 185.079,312.669 186.412,310.336 188.5,308.5 Z"/></g>
</svg>
