<?xml version="1.0" encoding="UTF-8"?>
<!DOCTYPE svg PUBLIC "-//W3C//DTD SVG 1.1//EN" "http://www.w3.org/Graphics/SVG/1.1/DTD/svg11.dtd">
<svg xmlns="http://www.w3.org/2000/svg" version="1.1" width="500px" height="500px" style="shape-rendering:geometricPrecision; text-rendering:geometricPrecision; image-rendering:optimizeQuality; fill-rule:evenodd; clip-rule:evenodd" xmlns:xlink="http://www.w3.org/1999/xlink">
<g><path style="opacity:0.925" fill="#0f012d" d="M 253.5,36.5 C 252.539,34.7354 252.205,32.7354 252.5,30.5C 250.5,30.5 248.5,30.5 246.5,30.5C 246.664,33.1873 246.497,35.854 246,38.5C 245.617,39.056 245.117,39.3893 244.5,39.5C 245.817,37.5185 245.817,35.5185 244.5,33.5C 245.328,28.6569 247.995,27.3235 252.5,29.5C 254.447,31.6822 254.781,34.0155 253.5,36.5 Z"/></g>
<g><path style="opacity:0.998" fill="#020106" d="M 253.5,36.5 C 257.581,43.3365 260.581,50.6699 262.5,58.5C 262.137,59.1835 261.804,59.8501 261.5,60.5C 260.867,66.3464 260.867,72.013 261.5,77.5C 261.435,77.9382 261.601,78.2716 262,78.5C 266.878,74.2947 272.378,72.9613 278.5,74.5C 271,82.8222 266.834,92.4888 266,103.5C 268.75,108.438 272.083,109.105 276,105.5C 276.839,101.363 277.673,97.3628 278.5,93.5C 279.222,93.0825 279.722,92.4158 280,91.5C 280.499,87.8484 280.665,84.1817 280.5,80.5C 280.5,80.1667 280.5,79.8333 280.5,79.5C 282.093,73.8171 283.26,67.8171 284,61.5C 283.886,66.6059 284.72,71.2726 286.5,75.5C 286.5,76.5 286.5,77.5 286.5,78.5C 286.334,84.8421 286.5,91.1754 287,97.5C 287.198,99.3817 287.698,101.048 288.5,102.5C 291.318,108.739 294.818,109.072 299,103.5C 302.465,97.5652 305.632,91.5652 308.5,85.5C 309.117,85.3893 309.617,85.056 310,84.5C 310.167,82.5 310.333,80.5 310.5,78.5C 310.461,76.0478 309.794,74.0478 308.5,72.5C 307.305,72.3225 306.138,71.9891 305,71.5C 302.399,72.8499 299.899,74.0166 297.5,75C 296.591,71.2648 297.924,68.4315 301.5,66.5C 303.024,63.4421 305.024,60.7755 307.5,58.5C 307.294,66.2688 311.294,69.6021 319.5,68.5C 322.275,67.9395 324.108,66.2729 325,63.5C 326.188,64.5634 326.688,65.8967 326.5,67.5C 323.922,74.9216 320.589,81.9216 316.5,88.5C 314.461,89.911 313.461,91.911 313.5,94.5C 312.736,97.0177 311.736,99.351 310.5,101.5C 307.284,105.875 305.951,110.875 306.5,116.5C 306.314,120.448 305.648,124.281 304.5,128C 305.729,129.529 307.229,130.696 309,131.5C 311.142,129.091 313.808,127.424 317,126.5C 320.006,128.657 323.173,130.657 326.5,132.5C 327.763,134.029 328.763,135.695 329.5,137.5C 330.974,136.564 331.974,135.23 332.5,133.5C 335.299,132.074 337.966,132.408 340.5,134.5C 341.306,135.997 341.972,137.664 342.5,139.5C 341.194,140.912 340.36,142.579 340,144.5C 338.266,145.249 336.433,145.749 334.5,146C 340.469,150.967 346.135,156.301 351.5,162C 354.873,163.834 358.206,163.667 361.5,161.5C 361.999,158.783 363.165,156.449 365,154.5C 366.409,157.95 368.909,159.45 372.5,159C 371.306,156.342 372.306,155.176 375.5,155.5C 376.937,153.506 378.27,151.339 379.5,149C 374.763,148.115 370.096,147.948 365.5,148.5C 365.082,147.778 364.416,147.278 363.5,147C 359.514,146.501 355.514,146.334 351.5,146.5C 351.31,142.968 351.977,139.635 353.5,136.5C 357.908,135.076 359.574,136.576 358.5,141C 363.731,141.466 368.898,142.3 374,143.5C 374.5,143.167 375,142.833 375.5,142.5C 369.799,140.094 368.299,136.094 371,130.5C 373.642,127.971 376.808,126.971 380.5,127.5C 384.678,125.854 389.011,124.688 393.5,124C 394.056,123.617 394.389,123.117 394.5,122.5C 396.804,121.837 399.137,121.17 401.5,120.5C 402.386,121.325 402.719,122.325 402.5,123.5C 407.006,123.252 410.006,125.252 411.5,129.5C 413.555,130.187 415.221,131.354 416.5,133C 412.852,137.74 411.852,142.907 413.5,148.5C 417.759,148.78 419.426,151.114 418.5,155.5C 416.585,155.216 414.919,155.549 413.5,156.5C 411.767,157.008 411.434,157.841 412.5,159C 411.833,160.333 411.167,161.667 410.5,163C 411.701,163.903 412.535,165.069 413,166.5C 417.686,162.812 422.019,158.812 426,154.5C 427.371,150.054 428.538,145.554 429.5,141C 428.221,136.707 425.721,133.207 422,130.5C 421.175,128.299 421.675,126.466 423.5,125C 426.017,124.743 428.35,125.41 430.5,127C 433.933,130.042 436.766,133.542 439,137.5C 438.291,129.919 439.958,129.586 444,136.5C 443.85,134.494 443.35,132.494 442.5,130.5C 442.5,129.167 442.5,127.833 442.5,126.5C 444.565,126.517 446.565,126.85 448.5,127.5C 451.051,129.578 452.884,132.244 454,135.5C 455.506,139.303 456.506,142.969 457,146.5C 458.716,145.448 459.716,146.114 460,148.5C 463.368,143.354 465.368,137.687 466,131.5C 467.396,129.473 469.062,129.14 471,130.5C 474.84,141.62 473.007,151.787 465.5,161C 466.126,161.75 466.626,162.584 467,163.5C 469.326,160.989 472.159,159.656 475.5,159.5C 475.699,162.941 475.199,166.274 474,169.5C 469.923,172.788 465.756,175.955 461.5,179C 462.684,180.145 462.684,181.312 461.5,182.5C 463.948,183.473 466.615,183.806 469.5,183.5C 469.5,184.5 469.5,185.5 469.5,186.5C 466.637,187.525 463.971,188.858 461.5,190.5C 459.211,191.058 457.211,192.224 455.5,194C 456.527,194.513 457.527,195.013 458.5,195.5C 458.804,196.15 459.137,196.817 459.5,197.5C 462.428,198.484 465.428,198.817 468.5,198.5C 468.657,199.873 468.49,201.207 468,202.5C 467.023,201.226 466.189,201.226 465.5,202.5C 459.455,202.471 453.455,202.304 447.5,202C 446.748,202.671 446.414,203.504 446.5,204.5C 448.833,207.003 450.999,209.669 453,212.5C 453.278,211.584 453.778,210.918 454.5,210.5C 455.117,210.389 455.617,210.056 456,209.5C 458.831,217.802 460.664,217.468 461.5,208.5C 462.509,211.337 464.509,212.67 467.5,212.5C 467.281,211.325 467.614,210.325 468.5,209.5C 469.176,210.602 469.842,211.602 470.5,212.5C 472.717,218.913 471.384,224.247 466.5,228.5C 460.833,228.5 455.167,228.5 449.5,228.5C 449.167,228.5 448.833,228.5 448.5,228.5C 446.372,227.371 444.039,227.204 441.5,228C 440.244,228.417 439.577,229.25 439.5,230.5C 437.892,234.299 438.892,237.299 442.5,239.5C 445.322,236.055 448.656,235.055 452.5,236.5C 454.265,237.461 456.265,237.795 458.5,237.5C 458.421,238.93 458.754,240.264 459.5,241.5C 455.777,242.41 452.443,243.743 449.5,245.5C 450.031,248.237 450.864,250.904 452,253.5C 453.356,254.38 454.856,254.714 456.5,254.5C 458.262,254.643 459.929,254.309 461.5,253.5C 461.833,254 462.167,254.5 462.5,255C 461.293,256.3 460.626,257.8 460.5,259.5C 457.693,260.879 455.026,262.546 452.5,264.5C 449.849,267.091 447.182,269.757 444.5,272.5C 443.791,273.404 442.791,273.737 441.5,273.5C 438.193,272.949 434.86,272.616 431.5,272.5C 422.451,269.627 415.618,263.961 411,255.5C 409.881,256.552 409.381,257.719 409.5,259C 411.188,261.831 411.855,264.664 411.5,267.5C 411.055,270.365 411.722,272.865 413.5,275C 416.482,275.498 419.482,275.665 422.5,275.5C 424.978,278.595 427.978,279.595 431.5,278.5C 431.703,280.39 431.037,281.89 429.5,283C 426.077,284.904 422.41,285.737 418.5,285.5C 415.683,287.286 415.016,289.619 416.5,292.5C 414.5,292.5 412.5,292.5 410.5,292.5C 410.263,293.791 410.596,294.791 411.5,295.5C 413.117,296.038 414.784,296.371 416.5,296.5C 416.5,297.833 416.5,299.167 416.5,300.5C 415.688,301.993 414.355,302.66 412.5,302.5C 410.161,302.331 407.994,301.664 406,300.5C 404.961,301.244 404.461,302.244 404.5,303.5C 405.527,305.184 406.527,306.851 407.5,308.5C 394.958,303.152 382.125,298.485 369,294.5C 367.97,294.164 367.47,293.497 367.5,292.5C 368.28,289.435 370.28,287.768 373.5,287.5C 376.497,288.827 379.497,290.161 382.5,291.5C 383.167,292.5 383.833,293.5 384.5,294.5C 390.608,287.233 391.108,279.566 386,271.5C 385.722,272.416 385.222,273.082 384.5,273.5C 383.094,273.973 382.427,274.973 382.5,276.5C 381.833,276.833 381.167,277.167 380.5,277.5C 379.022,277.762 377.689,277.429 376.5,276.5C 378.038,274.757 379.038,272.757 379.5,270.5C 381.041,266.836 382.041,263.003 382.5,259C 382.691,257.027 382.024,255.527 380.5,254.5C 378.082,255.457 375.916,256.791 374,258.5C 371.876,263.662 370.376,268.995 369.5,274.5C 367.434,277.298 365.934,276.965 365,273.5C 364.051,275.093 362.885,276.426 361.5,277.5C 360.1,276.9 359.1,275.9 358.5,274.5C 357.167,273.167 355.833,273.167 354.5,274.5C 356.962,264.982 358.629,255.315 359.5,245.5C 360.648,241.019 360.815,236.352 360,231.5C 359.631,235.863 359.131,240.196 358.5,244.5C 355.979,260.206 350.145,274.539 341,287.5C 336.914,286.551 332.747,285.884 328.5,285.5C 328.389,284.883 328.056,284.383 327.5,284C 333.169,277.834 337.836,271.001 341.5,263.5C 344.808,257.565 346.308,251.232 346,244.5C 344.961,243.756 344.461,242.756 344.5,241.5C 345.167,241.167 345.833,240.833 346.5,240.5C 347.268,241.263 347.768,242.263 348,243.5C 349.549,240.688 350.382,237.688 350.5,234.5C 352.391,210.069 347.058,187.402 334.5,166.5C 328.798,160.295 322.798,154.128 316.5,148C 313.757,145.962 310.757,144.462 307.5,143.5C 306.936,139.936 304.936,137.603 301.5,136.5C 281.798,125.993 260.798,121.826 238.5,124C 233.403,124.852 228.403,126.019 223.5,127.5C 220.939,128.918 218.272,129.918 215.5,130.5C 193.764,137.026 177.431,150.193 166.5,170C 166.639,171.301 167.305,172.134 168.5,172.5C 169.314,174.273 170.648,174.773 172.5,174C 182.09,165.037 193.424,160.204 206.5,159.5C 206.5,159.833 206.5,160.167 206.5,160.5C 194.198,162.9 183.698,168.566 175,177.5C 173.384,183.081 172.217,188.748 171.5,194.5C 169.344,202.277 167.677,210.277 166.5,218.5C 166.5,218.833 166.5,219.167 166.5,219.5C 162.833,222.5 159.5,225.833 156.5,229.5C 155.206,230.29 154.039,231.29 153,232.5C 153.61,252.133 161.444,269.467 176.5,284.5C 170.189,284.797 164.023,285.797 158,287.5C 148.557,274.679 142.724,260.346 140.5,244.5C 139.851,239.864 139.351,235.198 139,230.5C 138.184,235.684 138.35,240.684 139.5,245.5C 140.12,254.693 141.787,263.693 144.5,272.5C 142.088,272.331 139.921,272.997 138,274.5C 136.862,274.011 135.695,273.678 134.5,273.5C 133.833,273.5 133.5,273.833 133.5,274.5C 132.5,274.5 131.5,274.5 130.5,274.5C 130.279,271.933 129.612,269.599 128.5,267.5C 127.462,264.571 126.296,261.571 125,258.5C 123.355,256.338 121.188,255.005 118.5,254.5C 117.167,255.167 116.167,256.167 115.5,257.5C 116.659,261.136 117.659,264.802 118.5,268.5C 118.421,269.93 118.754,271.264 119.5,272.5C 118.68,274.111 117.346,274.778 115.5,274.5C 114.21,273.942 113.377,272.942 113,271.5C 107.895,279.579 108.395,287.245 114.5,294.5C 115.262,293.372 115.929,292.205 116.5,291C 119.589,290.082 122.589,288.915 125.5,287.5C 128.72,287.768 130.72,289.435 131.5,292.5C 131.53,293.497 131.03,294.164 130,294.5C 115.876,298.818 102.043,303.818 88.5,309.5C 89.4123,306.253 91.4123,303.92 94.5,302.5C 94.1373,301.817 93.8039,301.15 93.5,300.5C 90.4029,300.429 87.0696,300.262 83.5,300C 83.1667,299.667 82.8333,299.333 82.5,299C 84.1193,298.764 85.1193,297.931 85.5,296.5C 85.9175,295.778 86.5842,295.278 87.5,295C 85.1902,294.503 82.8568,294.337 80.5,294.5C 78.5,294.5 76.5,294.5 74.5,294.5C 73.7326,293.828 73.0659,292.995 72.5,292C 74.3513,290.316 76.018,288.483 77.5,286.5C 77.0431,285.702 76.3764,285.369 75.5,285.5C 77.8953,283.092 77.8953,280.759 75.5,278.5C 76.4363,277.026 77.7697,276.026 79.5,275.5C 81.8109,276.497 84.1443,276.997 86.5,277C 87.4108,273.937 87.4108,270.77 86.5,267.5C 87.5648,264.003 88.5648,260.503 89.5,257C 89,256.5 88.5,256 88,255.5C 83.3823,263.961 76.549,269.627 67.5,272.5C 65.6336,271.986 63.8003,271.32 62,270.5C 60.6043,271.394 59.1043,272.061 57.5,272.5C 55.6096,271.388 53.6096,270.554 51.5,270C 52.8333,269 54.1667,268 55.5,267C 59.211,266.825 62.8776,266.325 66.5,265.5C 67.6119,264.735 68.2786,263.735 68.5,262.5C 76.6014,255.97 81.9347,247.637 84.5,237.5C 85.6491,237.209 86.3158,236.376 86.5,235C 87.6166,232.269 88.2833,229.435 88.5,226.5C 87.705,223.577 86.3716,220.91 84.5,218.5C 77.9884,231.042 74.1551,230.375 73,216.5C 72.586,216.043 72.086,215.709 71.5,215.5C 70.4305,216.91 69.0972,217.91 67.5,218.5C 65.1944,218.993 62.861,219.326 60.5,219.5C 60.8551,217.11 61.5217,214.777 62.5,212.5C 62.1667,211.5 61.8333,210.5 61.5,209.5C 59.517,209.815 58.1837,210.815 57.5,212.5C 54.7548,215.038 51.4215,216.538 47.5,217C 48.9839,217.662 50.3172,218.496 51.5,219.5C 53.6674,220.269 55.834,221.269 58,222.5C 58.8893,221.112 59.3893,221.278 59.5,223C 59.0496,224.285 58.3829,225.452 57.5,226.5C 54.6944,227.168 52.0277,227.834 49.5,228.5C 44.7586,230.308 39.7586,230.808 34.5,230C 32.6763,229.34 31.343,228.173 30.5,226.5C 29.8989,223.451 29.3989,220.451 29,217.5C 29.3076,218.308 29.8076,218.975 30.5,219.5C 31.1847,217.219 31.3513,214.886 31,212.5C 32.3561,211.62 33.8561,211.286 35.5,211.5C 35.0773,209.219 35.744,207.552 37.5,206.5C 38.2216,206.918 38.7216,207.584 39,208.5C 39.7253,206.842 40.892,206.342 42.5,207C 44.0412,208.579 45.2078,210.413 46,212.5C 47.6657,209.669 49.8324,207.336 52.5,205.5C 53.3519,203.291 52.3519,201.957 49.5,201.5C 44.5436,202.394 39.5436,202.727 34.5,202.5C 33.4583,201.209 32.2917,201.209 31,202.5C 30.51,201.207 30.3433,199.873 30.5,198.5C 35.6261,199.072 39.9594,197.738 43.5,194.5C 43.0472,193.542 42.3805,192.708 41.5,192C 35.4437,191.211 30.2771,188.711 26,184.5C 25.5172,183.552 25.3505,182.552 25.5,181.5C 29.8076,182.368 34.141,182.534 38.5,182C 36.1088,180.691 36.1088,179.691 38.5,179C 33.7372,176.202 29.2372,173.036 25,169.5C 22.8163,166.265 22.3163,162.931 23.5,159.5C 26.5879,159.377 29.2546,160.377 31.5,162.5C 32.3081,162.192 32.9747,161.692 33.5,161C 27.0376,152.855 24.7042,144.022 26.5,134.5C 27.6594,133.544 28.8261,132.544 30,131.5C 30.5,131.667 31,131.833 31.5,132C 32.2822,134.74 32.7822,137.574 33,140.5C 33.7083,141.381 34.5416,142.047 35.5,142.5C 36.1878,145.057 37.3545,147.391 39,149.5C 39.6838,148.216 39.5171,147.049 38.5,146C 40,143.833 41.1667,144 42,146.5C 43.0808,141.764 44.4141,137.097 46,132.5C 48.344,127.454 52.1773,124.954 57.5,125C 58.0585,125.725 58.3918,126.558 58.5,127.5C 56.9587,130.477 55.792,133.477 55,136.5C 58.7654,129.643 60.432,129.977 60,137.5C 63.0702,131.429 67.7369,127.096 74,124.5C 76.9809,125.443 77.9809,127.443 77,130.5C 73.05,133.265 70.55,136.932 69.5,141.5C 70.5095,145.871 71.6761,150.204 73,154.5C 76.9809,158.812 81.3142,162.812 86,166.5C 88.5932,163.199 88.4266,159.866 85.5,156.5C 84.0821,154.692 82.0821,154.025 79.5,154.5C 79.5,153.5 79.5,152.5 79.5,151.5C 79.4142,150.504 79.7476,149.671 80.5,149C 82.1341,148.506 83.8008,148.34 85.5,148.5C 85.5549,144.702 85.8882,141.202 86.5,138C 84.9186,136.172 83.5853,134.172 82.5,132C 83.8646,130.318 85.3646,130.151 87,131.5C 88.4814,125.864 91.9814,123.364 97.5,124C 96.5494,123.282 96.3828,122.449 97,121.5C 98,121.167 99,120.833 100,120.5C 104.291,122.365 108.791,123.531 113.5,124C 114.984,124.662 116.317,125.496 117.5,126.5C 120.307,128.138 123.307,129.805 126.5,131.5C 127.154,133.115 127.654,134.782 128,136.5C 128.383,135.944 128.883,135.611 129.5,135.5C 128.931,139.329 126.931,141.996 123.5,143.5C 120.402,143.413 120.068,143.913 122.5,145C 120.111,146.139 118.111,147.639 116.5,149.5C 115.833,149.5 115.5,149.833 115.5,150.5C 114.833,150.5 114.167,150.5 113.5,150.5C 112.167,150.833 112.167,151.167 113.5,151.5C 115.017,152.735 116.684,152.735 118.5,151.5C 118.833,152.167 119.167,152.833 119.5,153.5C 118.246,155.334 117.579,157.334 117.5,159.5C 119.827,159.335 121.993,158.669 124,157.5C 124.708,158.381 125.542,159.047 126.5,159.5C 128.703,159.396 130.703,158.73 132.5,157.5C 133.117,157.389 133.617,157.056 134,156.5C 134.05,158.744 134.883,160.411 136.5,161.5C 140.127,163.498 143.794,163.665 147.5,162C 152.5,157 157.5,152 162.5,147C 157.658,143.508 156.158,139.008 158,133.5C 158.708,132.619 159.542,131.953 160.5,131.5C 163.082,131.025 165.082,131.692 166.5,133.5C 167.907,135.308 169.074,137.308 170,139.5C 171.688,138.675 171.855,137.675 170.5,136.5C 171.098,135.205 171.598,133.872 172,132.5C 175.304,131.388 178.137,129.555 180.5,127C 184.328,126.996 187.495,128.496 190,131.5C 191.771,130.696 193.271,129.529 194.5,128C 193.469,123.591 192.802,119.091 192.5,114.5C 192.336,111.813 192.503,109.146 193,106.5C 194.585,105.624 195.585,104.291 196,102.5C 197.697,103.957 199.197,105.623 200.5,107.5C 202.973,108.797 205.307,108.797 207.5,107.5C 209.048,104.385 210.048,101.051 210.5,97.5C 211.117,97.3893 211.617,97.056 212,96.5C 212.822,88.9882 212.655,81.6549 211.5,74.5C 211.433,73.0413 211.766,71.7079 212.5,70.5C 213.166,67.9723 213.832,65.3056 214.5,62.5C 215.183,62.8627 215.85,63.1961 216.5,63.5C 218.098,77.8843 220.264,92.2177 223,106.5C 226.671,109.396 229.671,108.729 232,104.5C 232.667,101.167 232.667,97.8333 232,94.5C 228.983,87.7906 225.483,81.4572 221.5,75.5C 223.265,74.5386 225.265,74.2053 227.5,74.5C 231.797,75.0661 235.297,77.0661 238,80.5C 235.488,69.0472 236.155,57.7138 240,46.5C 241.026,43.7613 242.526,41.428 244.5,39.5C 245.117,39.3893 245.617,39.056 246,38.5C 246.497,35.854 246.664,33.1873 246.5,30.5C 248.5,30.5 250.5,30.5 252.5,30.5C 252.205,32.7354 252.539,34.7354 253.5,36.5 Z M 329.5,137.5 C 329.489,140.001 328.822,140.168 327.5,138C 328.094,137.536 328.761,137.369 329.5,137.5 Z M 382.5,149.5 C 383.791,149.263 384.791,149.596 385.5,150.5C 384.504,150.414 383.671,150.748 383,151.5C 382.536,150.906 382.369,150.239 382.5,149.5 Z M 375.5,155.5 C 376.289,155.783 376.956,156.283 377.5,157C 376.184,157.528 375.517,157.028 375.5,155.5 Z M 51.5,219.5 C 50.3172,218.496 48.9839,217.662 47.5,217C 51.4215,216.538 54.7548,215.038 57.5,212.5C 58.4959,212.586 59.3292,212.252 60,211.5C 59.9137,214.702 58.9137,217.702 57,220.5C 55.3005,219.594 53.4672,219.261 51.5,219.5 Z M 438.5,211.5 C 442.34,214.418 446.673,216.251 451.5,217C 448.594,218.847 445.427,220.014 442,220.5C 440.259,217.691 439.092,214.691 438.5,211.5 Z M 363.5,213.5 C 369.727,216.889 375.561,220.889 381,225.5C 381.497,227.81 381.663,230.143 381.5,232.5C 374.564,231.946 367.731,230.946 361,229.5C 360.333,225.833 360.333,222.167 361,218.5C 362.892,217.383 363.725,215.716 363.5,213.5 Z M 137.5,230.5 C 133.143,230.586 128.81,230.92 124.5,231.5C 122.194,231.993 119.861,232.326 117.5,232.5C 117.337,230.143 117.503,227.81 118,225.5C 123.326,221.335 128.993,217.668 135,214.5C 137.272,217.151 138.438,220.318 138.5,224C 138.434,226.255 138.101,228.422 137.5,230.5 Z M 443.5,257.5 C 443.756,259.792 443.423,261.959 442.5,264C 439.854,264.497 437.187,264.664 434.5,264.5C 425.682,260.009 419.682,253.009 416.5,243.5C 415.108,237.325 413.108,231.325 410.5,225.5C 411.456,223.925 412.123,222.258 412.5,220.5C 413.151,219.909 413.818,219.243 414.5,218.5C 421.111,231.021 424.777,230.354 425.5,216.5C 426.117,216.389 426.617,216.056 427,215.5C 429.564,217.727 432.397,219.561 435.5,221C 433.152,221.346 431.319,222.513 430,224.5C 426.58,231.188 427.246,237.522 432,243.5C 436.075,248.065 439.909,252.732 443.5,257.5 Z M 128.5,267.5 C 127.789,271.325 128.955,274.325 132,276.5C 132.717,275.956 133.217,275.289 133.5,274.5C 133.5,273.833 133.833,273.5 134.5,273.5C 135.812,275.479 137.479,277.145 139.5,278.5C 139.698,275.215 141.365,273.548 144.5,273.5C 145.684,278.202 147.684,282.535 150.5,286.5C 150.106,289.135 148.939,289.801 147,288.5C 145.968,290.145 144.801,290.478 143.5,289.5C 139.591,290.915 135.591,291.915 131.5,292.5C 130.72,289.435 128.72,287.768 125.5,287.5C 122.589,288.915 119.589,290.082 116.5,291C 115.929,292.205 115.262,293.372 114.5,294.5C 108.395,287.245 107.895,279.579 113,271.5C 113.377,272.942 114.21,273.942 115.5,274.5C 117.703,277.439 120.703,279.105 124.5,279.5C 125.308,279.192 125.975,278.692 126.5,278C 123.217,275.228 120.55,272.061 118.5,268.5C 117.659,264.802 116.659,261.136 115.5,257.5C 116.167,256.167 117.167,255.167 118.5,254.5C 121.188,255.005 123.355,256.338 125,258.5C 126.296,261.571 127.462,264.571 128.5,267.5 Z M 379.5,270.5 C 377.4,273.104 375.067,275.604 372.5,278C 373.938,279.241 375.438,279.741 377,279.5C 378.302,278.915 379.469,278.249 380.5,277.5C 381.167,277.167 381.833,276.833 382.5,276.5C 383.906,276.027 384.573,275.027 384.5,273.5C 385.222,273.082 385.722,272.416 386,271.5C 391.108,279.566 390.608,287.233 384.5,294.5C 383.833,293.5 383.167,292.5 382.5,291.5C 379.497,290.161 376.497,288.827 373.5,287.5C 370.28,287.768 368.28,289.435 367.5,292.5C 364.635,292.945 362.135,292.278 360,290.5C 358.657,291.214 357.324,290.88 356,289.5C 355.329,290.252 354.496,290.586 353.5,290.5C 353.225,288.242 352.225,287.908 350.5,289.5C 348.579,287.531 348.579,286.031 350.5,285C 350.167,284.667 349.833,284.333 349.5,284C 351.277,280.791 352.943,277.624 354.5,274.5C 355.833,273.167 357.167,273.167 358.5,274.5C 358.5,275.833 358.5,277.167 358.5,278.5C 359.791,278.737 360.791,278.404 361.5,277.5C 362.885,276.426 364.051,275.093 365,273.5C 365.934,276.965 367.434,277.298 369.5,274.5C 370.376,268.995 371.876,263.662 374,258.5C 375.916,256.791 378.082,255.457 380.5,254.5C 382.024,255.527 382.691,257.027 382.5,259C 382.041,263.003 381.041,266.836 379.5,270.5 Z"/></g>
<g><path style="opacity:1" fill="#070110" d="M 213.5,42.5 C 217.295,41.9585 219.295,43.6252 219.5,47.5C 219.547,49.0377 218.88,50.0377 217.5,50.5C 211.216,50.496 209.882,47.8293 213.5,42.5 Z"/></g>
<g><path style="opacity:0.97" fill="#0b0119" d="M 326.5,67.5 C 326.688,65.8967 326.188,64.5634 325,63.5C 324.108,66.2729 322.275,67.9395 319.5,68.5C 321.877,65.5817 323.877,62.4151 325.5,59C 319.882,54.963 320.216,51.463 326.5,48.5C 327.748,49.0402 328.915,49.7069 330,50.5C 331.684,48.6487 333.517,46.982 335.5,45.5C 336.614,46.723 336.781,48.0563 336,49.5C 333.074,55.6881 329.907,61.6881 326.5,67.5 Z"/></g>
<g><path style="opacity:0.586" fill="#10012b" d="M 213.5,42.5 C 209.882,47.8293 211.216,50.496 217.5,50.5C 216.418,51.5938 215.752,52.9271 215.5,54.5C 216.302,57.4486 216.636,60.4486 216.5,63.5C 215.85,63.1961 215.183,62.8627 214.5,62.5C 213.832,65.3056 213.166,67.9723 212.5,70.5C 212.539,65.8156 212.872,61.1489 213.5,56.5C 213.167,54.8333 212.833,53.1667 212.5,51.5C 208.372,47.9111 208.706,44.9111 213.5,42.5 Z"/></g>
<g><path style="opacity:0.914" fill="#0b001a" d="M 286.5,75.5 C 284.72,71.2726 283.886,66.6059 284,61.5C 283.26,67.8171 282.093,73.8171 280.5,79.5C 280.762,71.6374 281.429,63.804 282.5,56C 282.446,52.6387 281.446,49.6387 279.5,47C 280.159,42.9177 282.492,41.5844 286.5,43C 289.195,46.3635 288.862,49.5301 285.5,52.5C 285.508,60.1663 285.841,67.8329 286.5,75.5 Z"/></g>
<g><path style="opacity:0.996" fill="#0e012f" d="M 196.5,65.5 C 194.905,63.8888 193.739,61.8888 193,59.5C 192.963,61.9739 192.13,63.9739 190.5,65.5C 191.053,63.0607 191.053,60.7273 190.5,58.5C 190.808,57.6919 191.308,57.0253 192,56.5C 194.926,58.7744 196.426,61.7744 196.5,65.5 Z"/></g>
<g><path style="opacity:1" fill="#070013" d="M 190.5,65.5 C 192.13,63.9739 192.963,61.9739 193,59.5C 193.739,61.8888 194.905,63.8888 196.5,65.5C 199.452,67.3815 201.452,70.0482 202.5,73.5C 202.167,74.5 201.5,75.1667 200.5,75.5C 198.105,72.6307 195.105,71.464 191.5,72C 188.032,75.3905 187.532,79.2239 190,83.5C 192.612,91.3911 196.279,98.7245 201,105.5C 202.897,107.016 205.064,107.683 207.5,107.5C 205.307,108.797 202.973,108.797 200.5,107.5C 199.197,105.623 197.697,103.957 196,102.5C 195.585,104.291 194.585,105.624 193,106.5C 192.503,109.146 192.336,111.813 192.5,114.5C 183.317,91.4573 172.984,68.7907 161.5,46.5C 162.002,45.479 162.668,45.3123 163.5,46C 165.904,50.0349 168.904,50.8682 172.5,48.5C 178.837,51.5359 179.17,55.2026 173.5,59.5C 176.631,68.9384 182.298,70.9384 190.5,65.5 Z"/></g>
<g><path style="opacity:0.773" fill="#0c0238" d="M 307.5,58.5 C 305.024,60.7755 303.024,63.4421 301.5,66.5C 302.119,62.5959 303.785,59.2625 306.5,56.5C 307.298,56.9569 307.631,57.6236 307.5,58.5 Z"/></g>
<g><path style="opacity:0.671" fill="#0e012e" d="M 261.5,60.5 C 262.651,66.0155 262.651,71.6822 261.5,77.5C 260.867,72.013 260.867,66.3464 261.5,60.5 Z"/></g>
<g><path style="opacity:0.222" fill="#0e0038" d="M 227.5,74.5 C 225.265,74.2053 223.265,74.5386 221.5,75.5C 220.957,75.44 220.624,75.1067 220.5,74.5C 222.973,73.2031 225.307,73.2031 227.5,74.5 Z"/></g>
<g><path style="opacity:0.303" fill="#0b002a" d="M 308.5,72.5 C 309.794,74.0478 310.461,76.0478 310.5,78.5C 310.333,80.5 310.167,82.5 310,84.5C 309.617,85.056 309.117,85.3893 308.5,85.5C 309.695,81.12 309.695,76.7867 308.5,72.5 Z"/></g>
<g><path style="opacity:1" fill="#0e002d" d="M 280.5,80.5 C 280.665,84.1817 280.499,87.8484 280,91.5C 279.722,92.4158 279.222,93.0825 278.5,93.5C 278.438,88.9242 279.105,84.5909 280.5,80.5 Z"/></g>
<g><path style="opacity:0.565" fill="#0d0035" d="M 316.5,88.5 C 316.008,90.8185 315.008,92.8185 313.5,94.5C 313.461,91.911 314.461,89.911 316.5,88.5 Z"/></g>
<g><path style="opacity:1" fill="#0c0026" d="M 211.5,74.5 C 212.655,81.6549 212.822,88.9882 212,96.5C 211.617,97.056 211.117,97.3893 210.5,97.5C 210.68,89.8252 211.014,82.1585 211.5,74.5 Z"/></g>
<g><path style="opacity:0.996" fill="#0d0029" d="M 286.5,78.5 C 287.717,86.3069 288.384,94.3069 288.5,102.5C 287.698,101.048 287.198,99.3817 287,97.5C 286.5,91.1754 286.334,84.8421 286.5,78.5 Z"/></g>
<g><path style="opacity:0.996" fill="#0d0027" d="M 310.5,101.5 C 309.299,106.646 307.965,111.646 306.5,116.5C 305.951,110.875 307.284,105.875 310.5,101.5 Z"/></g>
<g><path style="opacity:1" fill="#f8f8f8" d="M 301.5,136.5 C 301.631,137.376 301.298,138.043 300.5,138.5C 287.63,136.979 274.797,137.312 262,139.5C 255.846,138.573 249.679,137.74 243.5,137C 240.187,135.032 236.854,133.032 233.5,131C 229.837,130.428 226.503,129.262 223.5,127.5C 228.403,126.019 233.403,124.852 238.5,124C 260.798,121.826 281.798,125.993 301.5,136.5 Z"/></g>
<g><path style="opacity:0.737" fill="#0f0027" d="M 394.5,122.5 C 394.389,123.117 394.056,123.617 393.5,124C 389.011,124.688 384.678,125.854 380.5,127.5C 381.749,125.864 383.416,124.697 385.5,124C 388.544,123.637 391.544,123.137 394.5,122.5 Z"/></g>
<g><path style="opacity:0.996" fill="#0e0133" d="M 448.5,127.5 C 446.565,126.85 444.565,126.517 442.5,126.5C 442.5,127.833 442.5,129.167 442.5,130.5C 439.273,126.345 440.273,124.512 445.5,125C 446.942,125.377 447.942,126.21 448.5,127.5 Z"/></g>
<g><path style="opacity:1" fill="#0f0029" d="M 117.5,126.5 C 124.182,126.154 128.182,129.154 129.5,135.5C 128.883,135.611 128.383,135.944 128,136.5C 127.654,134.782 127.154,133.115 126.5,131.5C 123.307,129.805 120.307,128.138 117.5,126.5 Z"/></g>
<g><path style="opacity:1" fill="#0f002c" d="M 35.5,142.5 C 34.5416,142.047 33.7083,141.381 33,140.5C 32.7822,137.574 32.2822,134.74 31.5,132C 31,131.833 30.5,131.667 30,131.5C 28.8261,132.544 27.6594,133.544 26.5,134.5C 26.6118,131.023 28.2785,129.523 31.5,130C 33.3914,133.921 34.7248,138.087 35.5,142.5 Z"/></g>
<g><path style="opacity:0.196" fill="#0d0045" d="M 160.5,131.5 C 162.607,130.532 164.941,130.198 167.5,130.5C 167.737,131.791 167.404,132.791 166.5,133.5C 165.082,131.692 163.082,131.025 160.5,131.5 Z"/></g>
<g><path style="opacity:1" fill="#fafafa" d="M 215.5,130.5 C 218.754,130.207 221.754,130.874 224.5,132.5C 227.089,133.419 229.089,135.086 230.5,137.5C 222.487,143.847 215.154,150.847 208.5,158.5C 201.678,158.124 195.012,158.957 188.5,161C 181.675,164.579 175.008,168.412 168.5,172.5C 167.305,172.134 166.639,171.301 166.5,170C 177.431,150.193 193.764,137.026 215.5,130.5 Z"/></g>
<g><path style="opacity:0.994" fill="#12002b" d="M 340.5,134.5 C 337.966,132.408 335.299,132.074 332.5,133.5C 331.475,133.103 331.308,132.437 332,131.5C 334.064,130.409 336.231,130.242 338.5,131C 339.823,131.816 340.489,132.983 340.5,134.5 Z"/></g>
<g><path style="opacity:0.961" fill="#060013" d="M 148.5,146.5 C 142.682,147.028 137.016,147.695 131.5,148.5C 130.883,148.389 130.383,148.056 130,147.5C 126.589,148.293 123.089,148.793 119.5,149C 121.257,152.876 123.924,155.876 127.5,158C 126.944,158.383 126.611,158.883 126.5,159.5C 125.542,159.047 124.708,158.381 124,157.5C 121.993,158.669 119.827,159.335 117.5,159.5C 117.579,157.334 118.246,155.334 119.5,153.5C 119.167,152.833 118.833,152.167 118.5,151.5C 116.684,152.735 115.017,152.735 113.5,151.5C 113.5,151.167 113.5,150.833 113.5,150.5C 114.167,150.5 114.833,150.5 115.5,150.5C 116.206,151.557 116.539,151.224 116.5,149.5C 118.111,147.639 120.111,146.139 122.5,145C 120.068,143.913 120.402,143.413 123.5,143.5C 129.072,142.142 134.738,141.309 140.5,141C 139.843,135.416 142.01,134.25 147,137.5C 149.288,140.403 149.788,143.403 148.5,146.5 Z"/></g>
<g><path style="opacity:1" fill="#cccbcb" d="M 223.5,127.5 C 226.503,129.262 229.837,130.428 233.5,131C 236.854,133.032 240.187,135.032 243.5,137C 249.679,137.74 255.846,138.573 262,139.5C 274.797,137.312 287.63,136.979 300.5,138.5C 301.298,138.043 301.631,137.376 301.5,136.5C 304.936,137.603 306.936,139.936 307.5,143.5C 298.862,142.66 290.195,142.327 281.5,142.5C 285.647,141.675 289.981,141.175 294.5,141C 284.115,138.927 273.781,139.094 263.5,141.5C 255.507,140.287 247.507,139.12 239.5,138C 235.1,133.769 230.1,131.936 224.5,132.5C 221.754,130.874 218.754,130.207 215.5,130.5C 218.272,129.918 220.939,128.918 223.5,127.5 Z"/></g>
<g><path style="opacity:1" fill="#fcfcfc" d="M 281.5,142.5 C 290.195,142.327 298.862,142.66 307.5,143.5C 310.757,144.462 313.757,145.962 316.5,148C 322.798,154.128 328.798,160.295 334.5,166.5C 347.058,187.402 352.391,210.069 350.5,234.5C 346.715,232.572 342.715,231.238 338.5,230.5C 336.231,220.593 333.564,210.76 330.5,201C 332.938,191.546 333.105,182.046 331,172.5C 330.27,180.49 329.77,188.49 329.5,196.5C 322.425,196.583 315.425,197.249 308.5,198.5C 307.504,198.586 306.671,198.252 306,197.5C 297.851,182.858 286.017,172.524 270.5,166.5C 269.364,159.213 268.697,151.88 268.5,144.5C 272.714,143.298 277.048,142.631 281.5,142.5 Z"/></g>
<g><path style="opacity:0.988" fill="#10002a" d="M 353.5,136.5 C 351.977,139.635 351.31,142.968 351.5,146.5C 355.514,146.334 359.514,146.501 363.5,147C 364.416,147.278 365.082,147.778 365.5,148.5C 360.821,148.666 356.155,148.499 351.5,148C 348.734,143.654 349.401,139.82 353.5,136.5 Z"/></g>
<g><path style="opacity:0.522" fill="#090041" d="M 148.5,146.5 C 148.389,147.117 148.056,147.617 147.5,148C 142.177,148.499 136.844,148.666 131.5,148.5C 137.016,147.695 142.682,147.028 148.5,146.5 Z"/></g>
<g><path style="opacity:0.973" fill="#100130" d="M 79.5,151.5 C 79.5,152.5 79.5,153.5 79.5,154.5C 82.0821,154.025 84.0821,154.692 85.5,156.5C 83.5328,156.261 81.6995,156.594 80,157.5C 78.2926,155.517 78.126,153.517 79.5,151.5 Z"/></g>
<g><path style="opacity:0.882" fill="#0f0136" d="M 413.5,148.5 C 418.039,147.539 420.372,149.373 420.5,154C 420.491,155.404 419.991,156.57 419,157.5C 417.301,156.594 415.467,156.261 413.5,156.5C 414.919,155.549 416.585,155.216 418.5,155.5C 419.426,151.114 417.759,148.78 413.5,148.5 Z"/></g>
<g><path style="opacity:1" fill="#0f0029" d="M 136.5,161.5 C 134.883,160.411 134.05,158.744 134,156.5C 133.617,157.056 133.117,157.389 132.5,157.5C 132.415,156.005 133.081,155.005 134.5,154.5C 136.171,156.51 136.838,158.843 136.5,161.5 Z"/></g>
<g><path style="opacity:1" fill="#fdfdfd" d="M 206.5,160.5 C 214.18,167.181 221.18,174.514 227.5,182.5C 221.717,195.19 218.717,208.523 218.5,222.5C 211.931,225.368 205.431,228.368 199,231.5C 192.673,227.92 186.173,224.753 179.5,222C 176.137,219.657 172.803,217.323 169.5,215C 170.661,208.221 171.328,201.388 171.5,194.5C 172.217,188.748 173.384,183.081 175,177.5C 183.698,168.566 194.198,162.9 206.5,160.5 Z"/></g>
<g><path style="opacity:1" fill="#d2d2d2" d="M 208.5,158.5 C 208.158,159.338 207.492,159.672 206.5,159.5C 193.424,160.204 182.09,165.037 172.5,174C 170.648,174.773 169.314,174.273 168.5,172.5C 175.008,168.412 181.675,164.579 188.5,161C 195.012,158.957 201.678,158.124 208.5,158.5 Z"/></g>
<g><path style="opacity:1" fill="#d4d4d4" d="M 268.5,144.5 C 268.697,151.88 269.364,159.213 270.5,166.5C 286.017,172.524 297.851,182.858 306,197.5C 306.671,198.252 307.504,198.586 308.5,198.5C 306.372,199.629 304.039,199.796 301.5,199C 292.107,186.887 280.941,176.72 268,168.5C 267.177,160.323 267.344,152.323 268.5,144.5 Z"/></g>
<g><path style="opacity:0.976" fill="#110027" d="M 461.5,190.5 C 463.971,188.858 466.637,187.525 469.5,186.5C 469.5,185.5 469.5,184.5 469.5,183.5C 466.615,183.806 463.948,183.473 461.5,182.5C 465.599,182.142 469.599,182.142 473.5,182.5C 471.178,187.662 467.178,190.329 461.5,190.5 Z"/></g>
<g><path style="opacity:1" fill="#050505" d="M 224.5,132.5 C 230.1,131.936 235.1,133.769 239.5,138C 247.507,139.12 255.507,140.287 263.5,141.5C 273.781,139.094 284.115,138.927 294.5,141C 289.981,141.175 285.647,141.675 281.5,142.5C 277.048,142.631 272.714,143.298 268.5,144.5C 267.344,152.323 267.177,160.323 268,168.5C 280.941,176.72 292.107,186.887 301.5,199C 304.039,199.796 306.372,199.629 308.5,198.5C 315.425,197.249 322.425,196.583 329.5,196.5C 329.77,188.49 330.27,180.49 331,172.5C 333.105,182.046 332.938,191.546 330.5,201C 333.564,210.76 336.231,220.593 338.5,230.5C 338.343,231.873 338.51,233.207 339,234.5C 341.844,236.159 344.344,238.159 346.5,240.5C 345.833,240.833 345.167,241.167 344.5,241.5C 342.787,239.805 340.787,238.972 338.5,239C 334.621,243.374 330.954,247.874 327.5,252.5C 323.869,255.629 320.369,258.963 317,262.5C 315.878,269.188 314.712,275.854 313.5,282.5C 311.833,282.5 310.167,282.5 308.5,282.5C 310.494,276.184 312.494,269.851 314.5,263.5C 313.872,261.555 312.872,259.888 311.5,258.5C 305.4,252.278 299.066,246.278 292.5,240.5C 292.448,238.097 292.781,235.764 293.5,233.5C 296.316,222.246 298.483,210.913 300,199.5C 290.517,187.527 279.35,177.527 266.5,169.5C 255.068,174.033 243.401,177.866 231.5,181C 229.574,181.422 228.574,182.589 228.5,184.5C 223.137,199.134 222.303,214.134 226,229.5C 231.833,234.667 237.667,239.833 243.5,245C 256.591,245.102 269.591,243.935 282.5,241.5C 283.726,241.52 284.726,241.853 285.5,242.5C 273.851,244.911 262.517,248.244 251.5,252.5C 250.253,254.323 249.586,256.323 249.5,258.5C 246.263,264.864 243.597,271.53 241.5,278.5C 229.268,278.105 217.101,278.772 205,280.5C 202.739,280.561 200.739,279.894 199,278.5C 197.491,280.919 195.325,281.919 192.5,281.5C 194.235,279.765 195.568,277.765 196.5,275.5C 195.663,272.323 194.663,269.323 193.5,266.5C 191.476,257.878 189.642,249.211 188,240.5C 180.938,233.27 173.771,226.27 166.5,219.5C 166.5,219.167 166.5,218.833 166.5,218.5C 175.621,225.125 185.121,231.125 195,236.5C 202.008,233.412 208.842,229.912 215.5,226C 217.063,225.241 218.063,224.074 218.5,222.5C 218.717,208.523 221.717,195.19 227.5,182.5C 221.18,174.514 214.18,167.181 206.5,160.5C 206.5,160.167 206.5,159.833 206.5,159.5C 207.492,159.672 208.158,159.338 208.5,158.5C 215.154,150.847 222.487,143.847 230.5,137.5C 229.089,135.086 227.089,133.419 224.5,132.5 Z"/></g>
<g><path style="opacity:1" fill="#fdfdfd" d="M 293.5,233.5 C 286.132,234.485 278.799,235.652 271.5,237C 261.5,237.667 251.5,237.667 241.5,237C 238.333,233.833 235.167,230.667 232,227.5C 230.053,223.716 228.72,219.716 228,215.5C 227.267,205.14 227.433,194.806 228.5,184.5C 228.574,182.589 229.574,181.422 231.5,181C 243.401,177.866 255.068,174.033 266.5,169.5C 279.35,177.527 290.517,187.527 300,199.5C 298.483,210.913 296.316,222.246 293.5,233.5 Z"/></g>
<g><path style="opacity:0.392" fill="#09002a" d="M 465.5,202.5 C 460.296,203.806 454.963,203.806 449.5,202.5C 448.735,203.612 447.735,204.279 446.5,204.5C 446.414,203.504 446.748,202.671 447.5,202C 453.455,202.304 459.455,202.471 465.5,202.5 Z"/></g>
<g><path style="opacity:0.494" fill="#0c002a" d="M 52.5,205.5 C 51.548,204.548 50.548,203.548 49.5,202.5C 44.37,203.804 39.37,203.804 34.5,202.5C 39.5436,202.727 44.5436,202.394 49.5,201.5C 52.3519,201.957 53.3519,203.291 52.5,205.5 Z"/></g>
<g><path style="opacity:0.929" fill="#0d0021" d="M 458.5,195.5 C 462.213,196.412 465.713,197.079 469,197.5C 469.452,200.149 470.286,202.649 471.5,205C 470.666,207.701 470.332,210.201 470.5,212.5C 469.842,211.602 469.176,210.602 468.5,209.5C 467.614,210.325 467.281,211.325 467.5,212.5C 464.509,212.67 462.509,211.337 461.5,208.5C 460.664,217.468 458.831,217.802 456,209.5C 455.617,210.056 455.117,210.389 454.5,210.5C 455.109,207.034 456.942,206.034 460,207.5C 461,206.5 462,205.5 463,204.5C 466.398,211.897 467.232,211.23 465.5,202.5C 466.189,201.226 467.023,201.226 468,202.5C 468.49,201.207 468.657,199.873 468.5,198.5C 465.428,198.817 462.428,198.484 459.5,197.5C 459.137,196.817 458.804,196.15 458.5,195.5 Z"/></g>
<g><path style="opacity:0.922" fill="#0d0020" d="M 43.5,194.5 C 39.9594,197.738 35.6261,199.072 30.5,198.5C 30.3433,199.873 30.51,201.207 31,202.5C 32.2917,201.209 33.4583,201.209 34.5,202.5C 33.2521,203.334 32.5854,204.667 32.5,206.5C 32.6667,207.833 32.8333,209.167 33,210.5C 33.8147,208.377 34.8147,206.377 36,204.5C 36.7172,205.044 37.2172,205.711 37.5,206.5C 35.744,207.552 35.0773,209.219 35.5,211.5C 33.8561,211.286 32.3561,211.62 31,212.5C 31.3513,214.886 31.1847,217.219 30.5,219.5C 29.8076,218.975 29.3076,218.308 29,217.5C 29.3989,220.451 29.8989,223.451 30.5,226.5C 28.2776,223.411 26.9442,219.911 26.5,216C 28.3937,214.921 28.727,213.587 27.5,212C 28.2338,207.192 29.0671,202.359 30,197.5C 34.3496,196.992 38.8496,195.992 43.5,194.5 Z"/></g>
<g><path style="opacity:1" fill="#fafafa" d="M 166.5,219.5 C 173.771,226.27 180.938,233.27 188,240.5C 189.642,249.211 191.476,257.878 193.5,266.5C 193.565,266.938 193.399,267.272 193,267.5C 174.909,260.575 162.742,247.908 156.5,229.5C 159.5,225.833 162.833,222.5 166.5,219.5 Z"/></g>
<g><path style="opacity:0.296" fill="#0c003a" d="M 448.5,228.5 C 445.246,228.207 442.246,228.874 439.5,230.5C 439.577,229.25 440.244,228.417 441.5,228C 444.039,227.204 446.372,227.371 448.5,228.5 Z"/></g>
<g><path style="opacity:1" fill="#d3d3d3" d="M 171.5,194.5 C 171.328,201.388 170.661,208.221 169.5,215C 172.803,217.323 176.137,219.657 179.5,222C 186.173,224.753 192.673,227.92 199,231.5C 205.431,228.368 211.931,225.368 218.5,222.5C 218.063,224.074 217.063,225.241 215.5,226C 208.842,229.912 202.008,233.412 195,236.5C 185.121,231.125 175.621,225.125 166.5,218.5C 167.677,210.277 169.344,202.277 171.5,194.5 Z"/></g>
<g><path style="opacity:0.995" fill="#0f0029" d="M 449.5,228.5 C 455.167,228.5 460.833,228.5 466.5,228.5C 464.71,229.997 462.544,230.664 460,230.5C 456.277,230.299 452.777,229.633 449.5,228.5 Z"/></g>
<g><path style="opacity:0.992" fill="#100029" d="M 88.5,226.5 C 88.2833,229.435 87.6166,232.269 86.5,235C 86.3158,236.376 85.6491,237.209 84.5,237.5C 85.0653,233.463 86.3987,229.797 88.5,226.5 Z"/></g>
<g><path style="opacity:1" fill="#d3d3d3" d="M 338.5,230.5 C 342.715,231.238 346.715,232.572 350.5,234.5C 350.382,237.688 349.549,240.688 348,243.5C 347.768,242.263 347.268,241.263 346.5,240.5C 344.344,238.159 341.844,236.159 339,234.5C 338.51,233.207 338.343,231.873 338.5,230.5 Z"/></g>
<g><path style="opacity:1" fill="#0c0029" d="M 137.5,230.5 C 133.263,232.527 128.93,232.861 124.5,231.5C 128.81,230.92 133.143,230.586 137.5,230.5 Z"/></g>
<g><path style="opacity:1" fill="#d4d4d4" d="M 228.5,184.5 C 227.433,194.806 227.267,205.14 228,215.5C 228.72,219.716 230.053,223.716 232,227.5C 235.167,230.667 238.333,233.833 241.5,237C 251.5,237.667 261.5,237.667 271.5,237C 278.799,235.652 286.132,234.485 293.5,233.5C 292.781,235.764 292.448,238.097 292.5,240.5C 290.106,241.015 287.772,241.681 285.5,242.5C 284.726,241.853 283.726,241.52 282.5,241.5C 269.591,243.935 256.591,245.102 243.5,245C 237.667,239.833 231.833,234.667 226,229.5C 222.303,214.134 223.137,199.134 228.5,184.5 Z"/></g>
<g><path style="opacity:1" fill="#d6d6d6" d="M 156.5,229.5 C 162.742,247.908 174.909,260.575 193,267.5C 193.399,267.272 193.565,266.938 193.5,266.5C 194.663,269.323 195.663,272.323 196.5,275.5C 195.568,277.765 194.235,279.765 192.5,281.5C 187.395,282.091 182.062,283.091 176.5,284.5C 161.444,269.467 153.61,252.133 153,232.5C 154.039,231.29 155.206,230.29 156.5,229.5 Z"/></g>
<g><path style="opacity:1" fill="#0d0020" d="M 412.5,220.5 C 412.123,222.258 411.456,223.925 410.5,225.5C 413.108,231.325 415.108,237.325 416.5,243.5C 415.057,242.665 414.057,241.332 413.5,239.5C 412.852,234.782 411.519,230.282 409.5,226C 409.492,223.449 410.492,221.616 412.5,220.5 Z"/></g>
<g><path style="opacity:1" fill="#7c7c7b" d="M 140.5,244.5 C 139.833,244.5 139.5,244.833 139.5,245.5C 138.35,240.684 138.184,235.684 139,230.5C 139.351,235.198 139.851,239.864 140.5,244.5 Z"/></g>
<g><path style="opacity:1" fill="#fafafa" d="M 344.5,241.5 C 344.461,242.756 344.961,243.756 346,244.5C 346.308,251.232 344.808,257.565 341.5,263.5C 337.132,265.844 332.465,267.178 327.5,267.5C 327.5,262.5 327.5,257.5 327.5,252.5C 330.954,247.874 334.621,243.374 338.5,239C 340.787,238.972 342.787,239.805 344.5,241.5 Z"/></g>
<g><path style="opacity:1" fill="#7f7f7f" d="M 359.5,245.5 C 359.5,244.833 359.167,244.5 358.5,244.5C 359.131,240.196 359.631,235.863 360,231.5C 360.815,236.352 360.648,241.019 359.5,245.5 Z"/></g>
<g><path style="opacity:0.998" fill="#10002a" d="M 449.5,245.5 C 452.443,243.743 455.777,242.41 459.5,241.5C 458.754,240.264 458.421,238.93 458.5,237.5C 456.265,237.795 454.265,237.461 452.5,236.5C 454.92,236.708 457.253,236.374 459.5,235.5C 459.998,236.603 460.331,237.603 460.5,238.5C 461.833,237.167 463.167,235.833 464.5,234.5C 465.5,234.833 466.167,235.5 466.5,236.5C 462.702,242.9 457.036,245.9 449.5,245.5 Z"/></g>
<g><path style="opacity:1" fill="#0d0020" d="M 39.5,237.5 C 42.0593,237.802 44.3926,237.468 46.5,236.5C 48.1667,235.167 49.8333,235.167 51.5,236.5C 47.9849,237.794 44.3182,238.628 40.5,239C 41.8333,240 41.8333,241 40.5,242C 43.7928,242.826 47.1262,243.326 50.5,243.5C 51.0102,246.388 50.3435,248.721 48.5,250.5C 49.5361,248.609 49.5361,246.776 48.5,245C 43.4235,245.086 38.9235,243.586 35,240.5C 32.8535,234.522 33.6868,233.689 37.5,238C 38.4368,238.692 39.1034,238.525 39.5,237.5 Z"/></g>
<g><path style="opacity:0.255" fill="#110147" d="M 46.5,236.5 C 44.3926,237.468 42.0593,237.802 39.5,237.5C 38.2267,236.923 38.2267,236.257 39.5,235.5C 41.7466,236.374 44.0799,236.708 46.5,236.5 Z"/></g>
<g><path style="opacity:1" fill="#060111" d="M 67.5,218.5 C 66.3998,219.558 65.0664,220.392 63.5,221C 69.4924,223.479 71.9924,227.979 71,234.5C 68.0819,242.671 63.4152,249.671 57,255.5C 55.3364,258.289 55.1698,261.123 56.5,264C 60.6895,264.81 64.6895,264.31 68.5,262.5C 68.2786,263.735 67.6119,264.735 66.5,265.5C 62.8776,266.325 59.211,266.825 55.5,267C 54.1667,268 52.8333,269 51.5,270C 53.6096,270.554 55.6096,271.388 57.5,272.5C 59.1043,272.061 60.6043,271.394 62,270.5C 63.8003,271.32 65.6336,271.986 67.5,272.5C 57.3255,276.252 49.9922,273.086 45.5,263C 41.6091,262.467 38.6091,260.634 36.5,257.5C 36.1667,254.5 37.5,253.167 40.5,253.5C 42.5116,254.014 44.5116,254.18 46.5,254C 47.0848,252.698 47.7515,251.531 48.5,250.5C 50.3435,248.721 51.0102,246.388 50.5,243.5C 47.1262,243.326 43.7928,242.826 40.5,242C 41.8333,241 41.8333,240 40.5,239C 44.3182,238.628 47.9849,237.794 51.5,236.5C 53.679,236.84 55.5123,237.84 57,239.5C 61.725,235.561 61.5584,232.061 56.5,229C 54.1902,228.503 51.8568,228.337 49.5,228.5C 52.0277,227.834 54.6944,227.168 57.5,226.5C 58.3829,225.452 59.0496,224.285 59.5,223C 59.3893,221.278 58.8893,221.112 58,222.5C 55.834,221.269 53.6674,220.269 51.5,219.5C 53.4672,219.261 55.3005,219.594 57,220.5C 58.9137,217.702 59.9137,214.702 60,211.5C 59.3292,212.252 58.4959,212.586 57.5,212.5C 58.1837,210.815 59.517,209.815 61.5,209.5C 61.8333,210.5 62.1667,211.5 62.5,212.5C 61.5217,214.777 60.8551,217.11 60.5,219.5C 62.861,219.326 65.1944,218.993 67.5,218.5 Z"/></g>
<g><path style="opacity:1" fill="#f5f4f5" d="M 292.5,240.5 C 299.066,246.278 305.4,252.278 311.5,258.5C 309.497,263.346 306.164,267.18 301.5,270C 293.577,275.148 284.91,278.148 275.5,279C 286.613,279.6 297.613,280.767 308.5,282.5C 310.167,282.5 311.833,282.5 313.5,282.5C 318.521,283.392 323.521,284.392 328.5,285.5C 332.747,285.884 336.914,286.551 341,287.5C 350.145,274.539 355.979,260.206 358.5,244.5C 359.167,244.5 359.5,244.833 359.5,245.5C 358.629,255.315 356.962,264.982 354.5,274.5C 352.943,277.624 351.277,280.791 349.5,284C 349.833,284.333 350.167,284.667 350.5,285C 348.579,286.031 348.579,287.531 350.5,289.5C 352.225,287.908 353.225,288.242 353.5,290.5C 353.557,291.609 353.89,292.609 354.5,293.5C 285.543,277.765 216.543,277.598 147.5,293C 126.355,298.881 105.689,306.048 85.5,314.5C 86.075,312.589 87.075,310.922 88.5,309.5C 102.043,303.818 115.876,298.818 130,294.5C 131.03,294.164 131.53,293.497 131.5,292.5C 135.591,291.915 139.591,290.915 143.5,289.5C 144.801,290.478 145.968,290.145 147,288.5C 148.939,289.801 150.106,289.135 150.5,286.5C 147.684,282.535 145.684,278.202 144.5,273.5C 144.5,273.167 144.5,272.833 144.5,272.5C 141.787,263.693 140.12,254.693 139.5,245.5C 139.5,244.833 139.833,244.5 140.5,244.5C 142.724,260.346 148.557,274.679 158,287.5C 164.023,285.797 170.189,284.797 176.5,284.5C 182.062,283.091 187.395,282.091 192.5,281.5C 195.325,281.919 197.491,280.919 199,278.5C 200.739,279.894 202.739,280.561 205,280.5C 217.101,278.772 229.268,278.105 241.5,278.5C 247.176,278.666 252.843,278.499 258.5,278C 255.274,276.801 251.941,276.301 248.5,276.5C 248.36,270.464 248.693,264.464 249.5,258.5C 249.586,256.323 250.253,254.323 251.5,252.5C 262.517,248.244 273.851,244.911 285.5,242.5C 287.772,241.681 290.106,241.015 292.5,240.5 Z"/></g>
<g><path style="opacity:0.765" fill="#0f012f" d="M 40.5,253.5 C 37.5,253.167 36.1667,254.5 36.5,257.5C 34.6231,256.341 34.1231,254.674 35,252.5C 37.1176,251.261 38.951,251.595 40.5,253.5 Z"/></g>
<g><path style="opacity:1" fill="#0d002d" d="M 460.5,259.5 C 460.626,257.8 461.293,256.3 462.5,255C 462.167,254.5 461.833,254 461.5,253.5C 459.929,254.309 458.262,254.643 456.5,254.5C 458.625,252.176 461.125,251.509 464,252.5C 464.864,255.813 463.698,258.146 460.5,259.5 Z"/></g>
<g><path style="opacity:1" fill="#d9d9d9" d="M 311.5,258.5 C 312.872,259.888 313.872,261.555 314.5,263.5C 312.494,269.851 310.494,276.184 308.5,282.5C 297.613,280.767 286.613,279.6 275.5,279C 284.91,278.148 293.577,275.148 301.5,270C 306.164,267.18 309.497,263.346 311.5,258.5 Z"/></g>
<g><path style="opacity:1" fill="#d5d5d5" d="M 327.5,252.5 C 327.5,257.5 327.5,262.5 327.5,267.5C 332.465,267.178 337.132,265.844 341.5,263.5C 337.836,271.001 333.169,277.834 327.5,284C 328.056,284.383 328.389,284.883 328.5,285.5C 323.521,284.392 318.521,283.392 313.5,282.5C 314.712,275.854 315.878,269.188 317,262.5C 320.369,258.963 323.869,255.629 327.5,252.5 Z"/></g>
<g><path style="opacity:1" fill="#d5d5d5" d="M 249.5,258.5 C 248.693,264.464 248.36,270.464 248.5,276.5C 251.941,276.301 255.274,276.801 258.5,278C 252.843,278.499 247.176,278.666 241.5,278.5C 243.597,271.53 246.263,264.864 249.5,258.5 Z"/></g>
<g><path style="opacity:1" fill="#0e002a" d="M 443.5,257.5 C 444.473,259.948 444.806,262.615 444.5,265.5C 440.958,265.813 437.625,265.479 434.5,264.5C 437.187,264.664 439.854,264.497 442.5,264C 443.423,261.959 443.756,259.792 443.5,257.5 Z"/></g>
<g><path style="opacity:0.533" fill="#0d0134" d="M 452.5,264.5 C 451.149,268.579 448.482,271.246 444.5,272.5C 447.182,269.757 449.849,267.091 452.5,264.5 Z"/></g>
<g><path style="opacity:0.973" fill="#0b0237" d="M 128.5,267.5 C 129.612,269.599 130.279,271.933 130.5,274.5C 131.5,274.5 132.5,274.5 133.5,274.5C 133.217,275.289 132.717,275.956 132,276.5C 128.955,274.325 127.789,271.325 128.5,267.5 Z"/></g>
<g><path style="opacity:0.651" fill="#13072d" d="M 144.5,272.5 C 144.5,272.833 144.5,273.167 144.5,273.5C 141.365,273.548 139.698,275.215 139.5,278.5C 137.479,277.145 135.812,275.479 134.5,273.5C 135.695,273.678 136.862,274.011 138,274.5C 139.921,272.997 142.088,272.331 144.5,272.5 Z"/></g>
<g><path style="opacity:0.02" fill="#040035" d="M 431.5,272.5 C 434.86,272.616 438.193,272.949 441.5,273.5C 438.103,274.494 434.77,274.16 431.5,272.5 Z"/></g>
<g><path style="opacity:0.012" fill="#02034f" d="M 384.5,273.5 C 384.573,275.027 383.906,276.027 382.5,276.5C 382.427,274.973 383.094,273.973 384.5,273.5 Z"/></g>
<g><path style="opacity:0.886" fill="#0c0031" d="M 411.5,267.5 C 412.074,269.788 413.074,271.955 414.5,274C 415.899,274.595 417.232,274.428 418.5,273.5C 420.026,273.994 421.359,274.661 422.5,275.5C 419.482,275.665 416.482,275.498 413.5,275C 411.722,272.865 411.055,270.365 411.5,267.5 Z"/></g>
<g><path style="opacity:0.995" fill="#100020" d="M 118.5,268.5 C 120.55,272.061 123.217,275.228 126.5,278C 125.975,278.692 125.308,279.192 124.5,279.5C 120.703,279.105 117.703,277.439 115.5,274.5C 117.346,274.778 118.68,274.111 119.5,272.5C 118.754,271.264 118.421,269.93 118.5,268.5 Z"/></g>
<g><path style="opacity:0.99" fill="#11012d" d="M 379.5,270.5 C 379.038,272.757 378.038,274.757 376.5,276.5C 377.689,277.429 379.022,277.762 380.5,277.5C 379.469,278.249 378.302,278.915 377,279.5C 375.438,279.741 373.938,279.241 372.5,278C 375.067,275.604 377.4,273.104 379.5,270.5 Z"/></g>
<g><path style="opacity:0.447" fill="#220571" d="M 358.5,274.5 C 359.1,275.9 360.1,276.9 361.5,277.5C 360.791,278.404 359.791,278.737 358.5,278.5C 358.5,277.167 358.5,275.833 358.5,274.5 Z"/></g>
<g><path style="opacity:1" fill="#0e011e" d="M 86.5,267.5 C 87.4108,270.77 87.4108,273.937 86.5,277C 84.1443,276.997 81.8109,276.497 79.5,275.5C 77.7697,276.026 76.4363,277.026 75.5,278.5C 77.8953,280.759 77.8953,283.092 75.5,285.5C 71.7077,284.943 69.0411,282.943 67.5,279.5C 68.6507,278.269 69.8173,278.269 71,279.5C 73.7869,276.876 76.9536,274.876 80.5,273.5C 85.2948,274.709 87.2948,272.709 86.5,267.5 Z"/></g>
<g><path style="opacity:1" fill="#020202" d="M 354.5,293.5 C 372.94,299.372 391.273,305.872 409.5,313C 415.762,315.377 421.262,318.877 426,323.5C 428.056,328.833 427.39,333.833 424,338.5C 418.313,343.189 412.979,348.189 408,353.5C 405.219,361.18 402.052,368.68 398.5,376C 394.289,377.534 389.956,377.867 385.5,377C 380.803,374.732 375.969,372.898 371,371.5C 366.08,372.14 365.247,374.473 368.5,378.5C 370.24,380.211 372.24,381.044 374.5,381C 372.649,379.316 370.982,377.483 369.5,375.5C 370.333,375.167 371.167,374.833 372,374.5C 376.361,375.931 380.528,377.765 384.5,380C 389.589,380.826 394.589,380.492 399.5,379C 400.667,377.833 401.833,376.667 403,375.5C 405.47,368.422 408.137,361.422 411,354.5C 414.058,350.938 417.558,347.938 421.5,345.5C 434.891,352.862 447.224,361.695 458.5,372C 446.206,373.733 434.04,375.9 422,378.5C 420.934,389.823 419.934,401.156 419,412.5C 402.59,400.038 385.09,389.204 366.5,380C 363.762,375.647 364.095,371.481 367.5,367.5C 369.388,366.06 371.055,364.394 372.5,362.5C 378.269,364.696 383.769,367.362 389,370.5C 389.483,371.448 389.649,372.448 389.5,373.5C 387.473,373.338 385.473,373.505 383.5,374C 386.794,376.1 389.96,375.934 393,373.5C 393.269,370.72 392.102,368.554 389.5,367C 345.083,346.066 298.25,336.233 249,337.5C 207.59,336.987 167.423,343.821 128.5,358C 122.046,360.727 115.712,363.727 109.5,367C 107.773,368.389 106.439,370.056 105.5,372C 105.759,373.261 106.426,374.261 107.5,375C 111.207,375.996 114.541,375.33 117.5,373C 114.881,373.083 112.214,373.25 109.5,373.5C 109.33,372.178 109.663,371.011 110.5,370C 115.671,367.218 121.004,364.718 126.5,362.5C 129.159,365.329 131.659,368.329 134,371.5C 135.419,375.918 134.252,379.251 130.5,381.5C 112.469,389.93 95.6359,400.263 80,412.5C 79.0663,401.156 78.0663,389.823 77,378.5C 64.9145,376.084 52.7479,373.917 40.5,372C 52.0021,361.422 64.6688,352.589 78.5,345.5C 87.1841,351.512 92.3508,359.846 94,370.5C 95.9697,377.305 100.47,380.972 107.5,381.5C 114.261,379.868 120.761,377.535 127,374.5C 127.833,374.833 128.667,375.167 129.5,375.5C 128.018,377.483 126.351,379.316 124.5,381C 126.76,381.044 128.76,380.211 130.5,378.5C 133.627,374.419 132.627,372.086 127.5,371.5C 122.52,373.32 117.52,375.154 112.5,377C 108.375,377.854 104.375,377.52 100.5,376C 96.9476,368.68 93.781,361.18 91,353.5C 88.2213,349.369 84.7213,346.036 80.5,343.5C 73.8536,339.34 71.0203,333.34 72,325.5C 75.7692,320.894 80.2692,317.227 85.5,314.5C 105.689,306.048 126.355,298.881 147.5,293C 216.543,277.598 285.543,277.765 354.5,293.5 Z M 138.5,359.5 C 138.813,363.042 138.479,366.375 137.5,369.5C 135.344,366.844 133.011,364.344 130.5,362C 132.862,360.269 135.529,359.435 138.5,359.5 Z M 360.5,359.5 C 363.716,359.345 366.383,360.345 368.5,362.5C 366.167,364.5 363.833,366.5 361.5,368.5C 360.701,365.57 360.368,362.57 360.5,359.5 Z"/></g>
<g><path style="opacity:0.92" fill="#0a001a" d="M 418.5,285.5 C 421.925,287.089 424.592,289.589 426.5,293C 424.679,295.137 422.346,295.97 419.5,295.5C 419.727,297.933 418.727,299.599 416.5,300.5C 416.5,299.167 416.5,297.833 416.5,296.5C 417.376,296.631 418.043,296.298 418.5,295.5C 416.027,294.203 413.693,294.203 411.5,295.5C 410.596,294.791 410.263,293.791 410.5,292.5C 412.5,292.5 414.5,292.5 416.5,292.5C 415.016,289.619 415.683,287.286 418.5,285.5 Z"/></g>
<g><path style="opacity:0.996" fill="#0d0028" d="M 74.5,294.5 C 76.5,294.5 78.5,294.5 80.5,294.5C 81.5521,296.256 83.2188,296.923 85.5,296.5C 85.1193,297.931 84.1193,298.764 82.5,299C 82.8333,299.333 83.1667,299.667 83.5,300C 87.0696,300.262 90.4029,300.429 93.5,300.5C 86.5339,304.529 81.8672,302.862 79.5,295.5C 77.5853,295.784 75.9187,295.451 74.5,294.5 Z"/></g>
<g><path style="opacity:1" fill="#24173d" d="M 404.5,303.5 C 405.583,303.539 406.583,303.873 407.5,304.5C 408.612,306.419 409.946,308.086 411.5,309.5C 409.901,309.768 408.568,309.434 407.5,308.5C 406.527,306.851 405.527,305.184 404.5,303.5 Z"/></g>
<g><path style="opacity:1" fill="#e4e3e4" d="M 367.5,367.5 C 367.629,365.784 367.962,364.117 368.5,362.5C 366.383,360.345 363.716,359.345 360.5,359.5C 355.681,356.608 350.348,354.441 344.5,353C 275.861,334.967 207.694,336.467 140,357.5C 138.97,357.836 138.47,358.503 138.5,359.5C 135.529,359.435 132.862,360.269 130.5,362C 133.011,364.344 135.344,366.844 137.5,369.5C 138.414,372.728 138.747,376.061 138.5,379.5C 134.023,383.244 129.023,386.244 123.5,388.5C 123.829,385.968 124.995,384.968 127,385.5C 128.579,383.959 130.413,382.792 132.5,382C 131.906,381.536 131.239,381.369 130.5,381.5C 134.252,379.251 135.419,375.918 134,371.5C 131.659,368.329 129.159,365.329 126.5,362.5C 121.004,364.718 115.671,367.218 110.5,370C 109.663,371.011 109.33,372.178 109.5,373.5C 112.214,373.25 114.881,373.083 117.5,373C 114.541,375.33 111.207,375.996 107.5,375C 106.426,374.261 105.759,373.261 105.5,372C 106.439,370.056 107.773,368.389 109.5,367C 115.712,363.727 122.046,360.727 128.5,358C 167.423,343.821 207.59,336.987 249,337.5C 298.25,336.233 345.083,346.066 389.5,367C 392.102,368.554 393.269,370.72 393,373.5C 389.96,375.934 386.794,376.1 383.5,374C 385.473,373.505 387.473,373.338 389.5,373.5C 389.649,372.448 389.483,371.448 389,370.5C 383.769,367.362 378.269,364.696 372.5,362.5C 371.055,364.394 369.388,366.06 367.5,367.5 Z M 138.5,359.5 C 138.813,363.042 138.479,366.375 137.5,369.5C 135.344,366.844 133.011,364.344 130.5,362C 132.862,360.269 135.529,359.435 138.5,359.5 Z M 360.5,359.5 C 363.716,359.345 366.383,360.345 368.5,362.5C 366.167,364.5 363.833,366.5 361.5,368.5C 360.701,365.57 360.368,362.57 360.5,359.5 Z"/></g>
<g><path style="opacity:1" fill="#020103" d="M 360.5,359.5 C 360.368,362.57 360.701,365.57 361.5,368.5C 360.662,368.842 360.328,369.508 360.5,370.5C 360.5,373.5 360.5,376.5 360.5,379.5C 360.832,389.855 360.499,400.188 359.5,410.5C 353.677,413.08 347.677,415.08 341.5,416.5C 337.09,417.044 332.757,418.044 328.5,419.5C 324.99,420.418 321.99,422.084 319.5,424.5C 310.457,428.405 301.124,431.738 291.5,434.5C 287.229,434.481 283.563,435.814 280.5,438.5C 272.458,442.071 264.125,445.071 255.5,447.5C 253.453,447.511 251.453,447.844 249.5,448.5C 246.673,447.068 243.673,446.401 240.5,446.5C 229.284,442.875 218.284,438.875 207.5,434.5C 206.77,432.955 205.437,432.122 203.5,432C 203.833,431.667 204.167,431.333 204.5,431C 199.089,430.124 193.756,428.957 188.5,427.5C 188.167,427.5 187.833,427.5 187.5,427.5C 183.434,424.967 179.1,422.8 174.5,421C 171.522,420.304 168.522,419.804 165.5,419.5C 161.421,418.363 157.421,417.029 153.5,415.5C 153.074,413.715 151.908,412.715 150,412.5C 146.988,411.131 143.821,410.464 140.5,410.5C 139.005,410.585 138.005,409.919 137.5,408.5C 138.474,398.887 138.808,389.22 138.5,379.5C 138.747,376.061 138.414,372.728 137.5,369.5C 138.479,366.375 138.813,363.042 138.5,359.5C 138.47,358.503 138.97,357.836 140,357.5C 207.694,336.467 275.861,334.967 344.5,353C 350.348,354.441 355.681,356.608 360.5,359.5 Z"/></g>
<g><path style="opacity:1" fill="#f7f0f7" d="M 88.5,309.5 C 87.075,310.922 86.075,312.589 85.5,314.5C 80.2692,317.227 75.7692,320.894 72,325.5C 71.0203,333.34 73.8536,339.34 80.5,343.5C 80.1667,344.5 79.5,345.167 78.5,345.5C 64.6688,352.589 52.0021,361.422 40.5,372C 52.7479,373.917 64.9145,376.084 77,378.5C 78.0663,389.823 79.0663,401.156 80,412.5C 95.6359,400.263 112.469,389.93 130.5,381.5C 131.239,381.369 131.906,381.536 132.5,382C 130.413,382.792 128.579,383.959 127,385.5C 124.995,384.968 123.829,385.968 123.5,388.5C 107.412,397.238 92.0788,407.238 77.5,418.5C 75.2365,411.562 74.5698,404.562 75.5,397.5C 74.4123,391.755 73.7457,386.088 73.5,380.5C 71.9397,380.519 70.4397,380.852 69,381.5C 60.2699,379.575 51.2699,377.575 42,375.5C 39.9361,376.591 37.7695,376.758 35.5,376C 35.3349,374.883 35.0016,373.716 34.5,372.5C 46.2285,360.471 59.5619,350.638 74.5,343C 67.6961,337.303 65.8627,330.47 69,322.5C 74.2289,316.257 80.7289,311.924 88.5,309.5 Z"/></g>
<g><path style="opacity:1" fill="#e3e3e3" d="M 80.5,343.5 C 84.7213,346.036 88.2213,349.369 91,353.5C 93.781,361.18 96.9476,368.68 100.5,376C 104.375,377.52 108.375,377.854 112.5,377C 117.52,375.154 122.52,373.32 127.5,371.5C 132.627,372.086 133.627,374.419 130.5,378.5C 128.76,380.211 126.76,381.044 124.5,381C 126.351,379.316 128.018,377.483 129.5,375.5C 128.667,375.167 127.833,374.833 127,374.5C 120.761,377.535 114.261,379.868 107.5,381.5C 100.47,380.972 95.9697,377.305 94,370.5C 92.3508,359.846 87.1841,351.512 78.5,345.5C 79.5,345.167 80.1667,344.5 80.5,343.5 Z"/></g>
<g><path style="opacity:0.247" fill="#7f7985" d="M 360.5,370.5 C 360.833,370.5 361.167,370.5 361.5,370.5C 361.342,373.902 361.676,377.236 362.5,380.5C 361.833,380.167 361.167,379.833 360.5,379.5C 360.5,376.5 360.5,373.5 360.5,370.5 Z"/></g>
<g><path style="opacity:0.998" fill="#f2eef2" d="M 367.5,292.5 C 367.47,293.497 367.97,294.164 369,294.5C 382.125,298.485 394.958,303.152 407.5,308.5C 408.568,309.434 409.901,309.768 411.5,309.5C 419.731,312.239 426.398,317.072 431.5,324C 433.14,331.636 430.806,337.969 424.5,343C 438.873,350.366 451.873,359.699 463.5,371C 462.786,372.343 463.12,373.676 464.5,375C 462.12,376.757 459.62,376.923 457,375.5C 453.356,377.664 449.523,378.33 445.5,377.5C 443.452,378.77 441.452,379.103 439.5,378.5C 438.065,380.401 436.398,380.734 434.5,379.5C 431.644,381.472 428.644,381.972 425.5,381C 425.833,381.333 426.167,381.667 426.5,382C 424.65,383.845 424.317,385.845 425.5,388C 423.244,394.684 422.911,401.517 424.5,408.5C 424.033,410.568 423.366,412.568 422.5,414.5C 423.954,416.263 423.62,417.597 421.5,418.5C 403.928,405.24 384.928,393.407 364.5,383C 363.619,382.292 362.953,381.458 362.5,380.5C 361.676,377.236 361.342,373.902 361.5,370.5C 361.5,369.833 361.5,369.167 361.5,368.5C 363.833,366.5 366.167,364.5 368.5,362.5C 367.962,364.117 367.629,365.784 367.5,367.5C 364.095,371.481 363.762,375.647 366.5,380C 385.09,389.204 402.59,400.038 419,412.5C 419.934,401.156 420.934,389.823 422,378.5C 434.04,375.9 446.206,373.733 458.5,372C 447.224,361.695 434.891,352.862 421.5,345.5C 417.558,347.938 414.058,350.938 411,354.5C 408.137,361.422 405.47,368.422 403,375.5C 401.833,376.667 400.667,377.833 399.5,379C 394.589,380.492 389.589,380.826 384.5,380C 380.528,377.765 376.361,375.931 372,374.5C 371.167,374.833 370.333,375.167 369.5,375.5C 370.982,377.483 372.649,379.316 374.5,381C 372.24,381.044 370.24,380.211 368.5,378.5C 365.247,374.473 366.08,372.14 371,371.5C 375.969,372.898 380.803,374.732 385.5,377C 389.956,377.867 394.289,377.534 398.5,376C 402.052,368.68 405.219,361.18 408,353.5C 412.979,348.189 418.313,343.189 424,338.5C 427.39,333.833 428.056,328.833 426,323.5C 421.262,318.877 415.762,315.377 409.5,313C 391.273,305.872 372.94,299.372 354.5,293.5C 353.89,292.609 353.557,291.609 353.5,290.5C 354.496,290.586 355.329,290.252 356,289.5C 357.324,290.88 358.657,291.214 360,290.5C 362.135,292.278 364.635,292.945 367.5,292.5 Z"/></g>
<g><path style="opacity:1" fill="#fcfcfb" d="M 147.5,393.5 C 215.5,393.5 283.5,393.5 351.5,393.5C 352.044,397.673 351.377,401.506 349.5,405C 316.258,417.136 282.924,428.969 249.5,440.5C 215.704,428.901 182.038,416.901 148.5,404.5C 147.511,400.893 147.177,397.226 147.5,393.5 Z"/></g>
<g><path style="opacity:1" fill="#0a0a0a" d="M 201.5,398.5 C 202.965,399.406 203.965,400.739 204.5,402.5C 206.763,403.65 209.096,404.65 211.5,405.5C 207.626,407.53 206.626,410.53 208.5,414.5C 208,414.833 207.5,415.167 207,415.5C 203.81,412.931 200.644,412.931 197.5,415.5C 197.4,411.186 195.734,407.686 192.5,405C 197.144,404.963 200.144,402.796 201.5,398.5 Z"/></g>
<g><path style="opacity:1" fill="#070707" d="M 296.5,398.5 C 297.991,400.127 299.491,401.793 301,403.5C 302.811,404.078 304.645,404.578 306.5,405C 303.266,407.686 301.6,411.186 301.5,415.5C 300.059,414.696 298.559,414.029 297,413.5C 294.95,414.791 292.783,415.291 290.5,415C 292.36,410.849 291.36,407.516 287.5,405C 292.144,404.963 295.144,402.796 296.5,398.5 Z"/></g>
<g><path style="opacity:1" fill="#050505" d="M 248.5,398.5 C 249.376,398.369 250.043,398.702 250.5,399.5C 251.706,402.079 253.039,404.579 254.5,407C 257.789,407.882 261.123,408.548 264.5,409C 262.333,411.167 260.167,413.333 258,415.5C 258.289,419.207 258.122,422.874 257.5,426.5C 254.833,425.167 252.167,423.833 249.5,422.5C 246.833,423.833 244.167,425.167 241.5,426.5C 240.713,422.855 240.546,419.188 241,415.5C 238.833,413.333 236.667,411.167 234.5,409C 237.789,408.118 241.123,407.452 244.5,407C 246.246,404.341 247.58,401.508 248.5,398.5 Z"/></g>
<g><path style="opacity:1" fill="#0e0029" d="M 140.5,410.5 C 143.821,410.464 146.988,411.131 150,412.5C 151.908,412.715 153.074,413.715 153.5,415.5C 149.013,414.008 144.68,412.342 140.5,410.5 Z"/></g>
<g><path style="opacity:1" fill="#0f0023" d="M 341.5,416.5 C 334.459,419.738 327.126,422.405 319.5,424.5C 321.99,422.084 324.99,420.418 328.5,419.5C 332.757,418.044 337.09,417.044 341.5,416.5 Z"/></g>
<g><path style="opacity:1" fill="#0f0024" d="M 165.5,419.5 C 168.522,419.804 171.522,420.304 174.5,421C 179.1,422.8 183.434,424.967 187.5,427.5C 180.015,425.007 172.682,422.341 165.5,419.5 Z"/></g>
<g><path style="opacity:1" fill="#0e001e" d="M 188.5,427.5 C 193.756,428.957 199.089,430.124 204.5,431C 204.167,431.333 203.833,431.667 203.5,432C 205.437,432.122 206.77,432.955 207.5,434.5C 200.873,432.738 194.539,430.405 188.5,427.5 Z"/></g>
<g><path style="opacity:0.918" fill="#10022e" d="M 291.5,434.5 C 288.203,436.601 284.537,437.935 280.5,438.5C 283.563,435.814 287.229,434.481 291.5,434.5 Z"/></g>
<g><path style="opacity:1" fill="#0c0029" d="M 240.5,446.5 C 243.673,446.401 246.673,447.068 249.5,448.5C 251.453,447.844 253.453,447.511 255.5,447.5C 250.366,450.15 245.366,449.817 240.5,446.5 Z"/></g>
</svg>
