<?xml version="1.0" encoding="UTF-8"?>
<!DOCTYPE svg PUBLIC "-//W3C//DTD SVG 1.1//EN" "http://www.w3.org/Graphics/SVG/1.1/DTD/svg11.dtd">
<svg xmlns="http://www.w3.org/2000/svg" version="1.1" width="500px" height="500px" style="shape-rendering:geometricPrecision; text-rendering:geometricPrecision; image-rendering:optimizeQuality; fill-rule:evenodd; clip-rule:evenodd" xmlns:xlink="http://www.w3.org/1999/xlink">
<g><path style="opacity:1" fill="#d0a970" d="M 280.5,40.5 C 275.489,40.3341 270.489,40.5007 265.5,41C 267.715,41.1705 269.715,41.8372 271.5,43C 270.833,43.3333 270.167,43.6667 269.5,44C 272.051,44.0023 274.051,44.8356 275.5,46.5C 244.511,42.5722 214.511,46.2388 185.5,57.5C 185.953,56.5416 186.619,55.7083 187.5,55C 198.84,50.9146 210.507,47.9146 222.5,46C 218.63,44.5325 214.63,43.6992 210.5,43.5C 202.229,45.8049 193.896,47.8049 185.5,49.5C 216.347,37.6278 248.013,34.6278 280.5,40.5 Z"/></g>
<g><path style="opacity:1" fill="#d5a661" d="M 236.5,38.5 C 245.046,37.8672 253.379,38.7005 261.5,41C 260.663,42.0113 260.33,43.1779 260.5,44.5C 247.829,44.6666 235.162,44.4999 222.5,44C 221.833,43.6667 221.167,43.3333 220.5,43C 221.833,42.3333 221.833,41.6667 220.5,41C 225.5,40.6667 230.5,40.3333 235.5,40C 236.056,39.6174 236.389,39.1174 236.5,38.5 Z"/></g>
<g><path style="opacity:0.991" fill="#010000" d="M 229.5,51.5 C 251.795,50.1342 273.795,51.9675 295.5,57C 306.639,61.5706 317.973,65.5706 329.5,69C 342.752,70.9715 356.085,71.9715 369.5,72C 381,85.5 392.5,99 404,112.5C 405.633,114.453 406.799,116.62 407.5,119C 403.265,131.705 399.432,144.539 396,157.5C 395.774,161.887 395.274,166.221 394.5,170.5C 396.074,186.133 399.24,201.466 404,216.5C 409.667,233.167 415.333,249.833 421,266.5C 436.179,316.311 424.679,358.478 386.5,393C 369.598,404.281 351.265,412.614 331.5,418C 304.18,424.564 276.847,431.064 249.5,437.5C 221.847,430.936 194.18,424.436 166.5,418C 149.312,412.939 132.978,405.939 117.5,397C 78.7448,367.091 64.2448,327.924 74,279.5C 81.7064,254.417 89.7064,229.417 98,204.5C 103.641,186.723 104.641,168.723 101,150.5C 97.2911,139.707 93.7911,128.874 90.5,118C 103.125,102.373 116.125,87.0398 129.5,72C 142.915,71.9715 156.248,70.9715 169.5,69C 181.253,65.2924 192.919,61.2924 204.5,57C 212.924,54.9512 221.257,53.1178 229.5,51.5 Z M 300.5,216.5 C 296.96,213.144 292.793,210.811 288,209.5C 285.003,212.331 282.169,215.331 279.5,218.5C 282.194,214.584 283.36,210.251 283,205.5C 276.868,199.185 269.368,195.685 260.5,195C 250.849,192.302 243.016,194.802 237,202.5C 235.711,205.351 235.211,208.351 235.5,211.5C 224.61,210.863 216.11,215.196 210,224.5C 205.818,232.037 203.485,240.037 203,248.5C 206.692,255.026 211.859,260.026 218.5,263.5C 219.736,262.754 221.07,262.421 222.5,262.5C 216.82,266.187 213.987,271.521 214,278.5C 212.564,285.015 214.064,290.681 218.5,295.5C 216.089,293.781 213.423,292.448 210.5,291.5C 206.152,292.339 201.985,293.672 198,295.5C 197.454,298.899 197.787,302.232 199,305.5C 201.335,308.665 203.835,311.665 206.5,314.5C 187.103,298.51 178.936,277.843 182,252.5C 187.672,221.83 205.506,202.33 235.5,194C 257.537,190.092 277.203,195.092 294.5,209C 297.118,211.106 299.118,213.606 300.5,216.5 Z M 237.5,213.5 C 239.914,214.911 241.581,216.911 242.5,219.5C 240.086,218.089 238.419,216.089 237.5,213.5 Z M 301.5,217.5 C 303.262,218.262 304.262,219.596 304.5,221.5C 302.738,220.738 301.738,219.404 301.5,217.5 Z M 243.5,220.5 C 245.296,221.793 246.963,223.293 248.5,225C 257.203,225.702 265.87,225.368 274.5,224C 275.373,222.955 276.373,222.122 277.5,221.5C 277.095,232.323 279.428,242.656 284.5,252.5C 286.878,254.552 289.211,256.552 291.5,258.5C 288.348,256.746 285.015,255.913 281.5,256C 275.101,258.951 269.268,262.784 264,267.5C 261.685,276.551 259.852,285.718 258.5,295C 264.122,300.734 270.956,304.568 279,306.5C 280.8,305.68 282.634,305.014 284.5,304.5C 277.985,309.524 272.652,315.69 268.5,323C 270.304,325.298 272.637,325.965 275.5,325C 291.184,319.148 302.517,308.648 309.5,293.5C 309.167,291.833 308.167,290.833 306.5,290.5C 302.445,292.857 298.445,295.19 294.5,297.5C 298.134,294.912 300.968,291.579 303,287.5C 304.395,281.214 305.062,274.881 305,268.5C 301.855,265.696 298.688,263.03 295.5,260.5C 298.262,261.38 300.929,262.546 303.5,264C 304.833,264.667 306.167,264.667 307.5,264C 311.698,259.632 314.365,254.466 315.5,248.5C 313.757,241.272 311.424,234.272 308.5,227.5C 321.999,249.906 322.832,272.906 311,296.5C 290.328,328.061 261.828,338.227 225.5,327C 221.44,325.311 217.773,323.144 214.5,320.5C 219.333,323.165 224.5,324.831 230,325.5C 234.738,326.058 237.571,324.058 238.5,319.5C 237.843,315.186 236.343,311.186 234,307.5C 228.132,304.326 222.965,300.326 218.5,295.5C 222.456,297.485 226.122,299.985 229.5,303C 232.136,303.934 234.803,304.768 237.5,305.5C 242.686,304.16 247.686,302.327 252.5,300C 254.378,298.457 255.878,296.624 257,294.5C 259.097,285.929 260.097,277.262 260,268.5C 255.635,262.797 250.135,258.63 243.5,256C 241.5,255.333 239.5,255.333 237.5,256C 232.479,258.179 227.479,260.346 222.5,262.5C 228.436,258.859 234.436,255.192 240.5,251.5C 243.033,244.568 245.366,237.568 247.5,230.5C 246.692,226.895 245.359,223.561 243.5,220.5 Z M 211.5,318.5 C 213.027,318.427 214.027,319.094 214.5,320.5C 212.973,320.573 211.973,319.906 211.5,318.5 Z M 207.5,315.5 C 209.404,315.738 210.738,316.738 211.5,318.5C 209.596,318.262 208.262,317.262 207.5,315.5 Z M 291.5,299.5 C 289.704,301.9 287.37,303.567 284.5,304.5C 285.992,301.677 288.326,300.01 291.5,299.5 Z M 294.5,297.5 C 294.027,298.906 293.027,299.573 291.5,299.5C 291.973,298.094 292.973,297.427 294.5,297.5 Z"/></g>
<g><path style="opacity:1" fill="#d2a768" d="M 185.5,57.5 C 177.927,61.229 169.927,63.729 161.5,65C 149.199,66.1484 136.866,66.8151 124.5,67C 111.215,82.4071 98.048,97.9071 85,113.5C 84.3333,114.833 84.3333,116.167 85,117.5C 89.0666,129.034 92.7333,140.7 96,152.5C 98.1138,163.682 97.9471,174.682 95.5,185.5C 96.0548,177.178 96.3881,168.844 96.5,160.5C 95.1667,160.5 93.8333,160.5 92.5,160.5C 92.4568,156.107 92.9568,155.774 94,159.5C 94.6667,156.167 94.6667,152.833 94,149.5C 92.8372,147.715 92.1705,145.715 92,143.5C 91.1301,144.108 90.6301,144.941 90.5,146C 90.3438,159.132 90.5105,172.299 91,185.5C 90.6827,187.301 90.016,187.634 89,186.5C 88.6667,189.833 88.3333,193.167 88,196.5C 84.6675,205.676 81.5008,214.676 78.5,223.5C 84.0879,205.56 87.7546,187.227 89.5,168.5C 88.1615,151.146 83.9948,134.479 77,118.5C 75.8756,115.558 75.5423,112.558 76,109.5C 89.4588,93.039 103.292,76.8723 117.5,61C 141.093,62.2066 163.76,58.3733 185.5,49.5C 193.896,47.8049 202.229,45.8049 210.5,43.5C 214.63,43.6992 218.63,44.5325 222.5,46C 210.507,47.9146 198.84,50.9146 187.5,55C 186.619,55.7083 185.953,56.5416 185.5,57.5 Z"/></g>
<g><path style="opacity:1" fill="#d2a766" d="M 280.5,40.5 C 295.319,41.8719 309.319,46.0385 322.5,53C 328.048,55.0716 333.715,56.7383 339.5,58C 353.773,59.8032 368.107,60.8032 382.5,61C 396.5,77.6667 410.5,94.3333 424.5,111C 419.406,125.284 414.906,139.784 411,154.5C 409.326,176.795 412.326,198.461 420,219.5C 425.667,235.833 431.333,252.167 437,268.5C 438.642,273.402 439.809,278.402 440.5,283.5C 438.803,281.695 437.97,279.361 438,276.5C 437.751,277.624 437.251,278.624 436.5,279.5C 435.833,276.833 435.167,274.167 434.5,271.5C 433.236,273.291 432.569,275.291 432.5,277.5C 433.982,285.097 434.648,292.764 434.5,300.5C 433.32,289.783 431.153,279.116 428,268.5C 421.462,249.886 415.129,231.219 409,212.5C 402.746,194.311 400.413,175.645 402,156.5C 405.833,142.015 409.833,127.682 414,113.5C 400.477,98.2786 387.311,82.7786 374.5,67C 360.412,67.032 346.412,66.032 332.5,64C 320.038,60.068 307.705,55.7346 295.5,51C 288.779,49.5568 282.112,48.0568 275.5,46.5C 274.051,44.8356 272.051,44.0023 269.5,44C 270.167,43.6667 270.833,43.3333 271.5,43C 269.715,41.8372 267.715,41.1705 265.5,41C 270.489,40.5007 275.489,40.3341 280.5,40.5 Z"/></g>
<g><path style="opacity:1" fill="#d4a762" d="M 95.5,185.5 C 94.835,193.173 93.1684,200.506 90.5,207.5C 88.6921,208.918 88.0254,210.918 88.5,213.5C 87.5,213.5 86.5,213.5 85.5,213.5C 85.2547,221.731 82.9213,229.231 78.5,236C 78.9574,236.414 79.2907,236.914 79.5,237.5C 78.846,239.115 78.346,240.782 78,242.5C 77.5172,241.552 77.3505,240.552 77.5,239.5C 76.5,239.5 75.5,239.5 74.5,239.5C 76.1443,234.256 77.4777,228.923 78.5,223.5C 81.5008,214.676 84.6675,205.676 88,196.5C 88.3333,193.167 88.6667,189.833 89,186.5C 90.016,187.634 90.6827,187.301 91,185.5C 90.5105,172.299 90.3438,159.132 90.5,146C 90.6301,144.941 91.1301,144.108 92,143.5C 92.1705,145.715 92.8372,147.715 94,149.5C 94.6667,152.833 94.6667,156.167 94,159.5C 92.9568,155.774 92.4568,156.107 92.5,160.5C 93.8333,160.5 95.1667,160.5 96.5,160.5C 96.3881,168.844 96.0548,177.178 95.5,185.5 Z"/></g>
<g><path style="opacity:1" fill="#9f8963" d="M 181.5,188.5 C 181.179,186.952 180.179,186.285 178.5,186.5C 180.396,185.519 182.396,184.519 184.5,183.5C 185.016,185.733 184.016,187.4 181.5,188.5 Z"/></g>
<g><path style="opacity:0.952" fill="#000000" d="M 279.5,218.5 C 278.833,218.5 278.5,218.833 278.5,219.5C 277.662,219.842 277.328,220.508 277.5,221.5C 276.373,222.122 275.373,222.955 274.5,224C 265.87,225.368 257.203,225.702 248.5,225C 246.963,223.293 245.296,221.793 243.5,220.5C 243.5,219.833 243.167,219.5 242.5,219.5C 241.581,216.911 239.914,214.911 237.5,213.5C 237.5,212.833 237.167,212.5 236.5,212.5C 236.5,211.833 236.167,211.5 235.5,211.5C 235.211,208.351 235.711,205.351 237,202.5C 243.016,194.802 250.849,192.302 260.5,195C 269.368,195.685 276.868,199.185 283,205.5C 283.36,210.251 282.194,214.584 279.5,218.5 Z"/></g>
<g><path style="opacity:1" fill="#caa264" d="M 343.5,209.5 C 343.815,211.226 343.981,212.893 344,214.5C 339.331,210.663 334.831,206.663 330.5,202.5C 326.504,194.701 321.17,187.868 314.5,182C 322.885,184.342 330.385,188.508 337,194.5C 339.475,199.443 341.641,204.443 343.5,209.5 Z"/></g>
<g><path style="opacity:1" fill="#caa165" d="M 178.5,186.5 C 180.179,186.285 181.179,186.952 181.5,188.5C 176.73,195.054 171.73,201.387 166.5,207.5C 163.455,210.547 160.122,213.213 156.5,215.5C 158.296,205.914 162.629,197.747 169.5,191C 172.553,189.473 175.553,187.973 178.5,186.5 Z"/></g>
<g><path style="opacity:0.951" fill="#000000" d="M 300.5,216.5 C 300.5,217.167 300.833,217.5 301.5,217.5C 301.738,219.404 302.738,220.738 304.5,221.5C 304.5,222.167 304.833,222.5 305.5,222.5C 305.328,223.492 305.662,224.158 306.5,224.5C 306.5,225.167 306.833,225.5 307.5,225.5C 307.328,226.492 307.662,227.158 308.5,227.5C 311.424,234.272 313.757,241.272 315.5,248.5C 314.365,254.466 311.698,259.632 307.5,264C 306.167,264.667 304.833,264.667 303.5,264C 300.929,262.546 298.262,261.38 295.5,260.5C 295.158,259.662 294.492,259.328 293.5,259.5C 293.158,258.662 292.492,258.328 291.5,258.5C 289.211,256.552 286.878,254.552 284.5,252.5C 279.428,242.656 277.095,232.323 277.5,221.5C 278.338,221.158 278.672,220.492 278.5,219.5C 279.167,219.5 279.5,219.167 279.5,218.5C 282.169,215.331 285.003,212.331 288,209.5C 292.793,210.811 296.96,213.144 300.5,216.5 Z"/></g>
<g><path style="opacity:0.96" fill="#000000" d="M 235.5,211.5 C 236.167,211.5 236.5,211.833 236.5,212.5C 237.167,212.5 237.5,212.833 237.5,213.5C 238.419,216.089 240.086,218.089 242.5,219.5C 243.167,219.5 243.5,219.833 243.5,220.5C 245.359,223.561 246.692,226.895 247.5,230.5C 245.366,237.568 243.033,244.568 240.5,251.5C 234.436,255.192 228.436,258.859 222.5,262.5C 221.07,262.421 219.736,262.754 218.5,263.5C 211.859,260.026 206.692,255.026 203,248.5C 203.485,240.037 205.818,232.037 210,224.5C 216.11,215.196 224.61,210.863 235.5,211.5 Z"/></g>
<g><path style="opacity:0.909" fill="#010101" d="M 202.5,214.5 C 206.451,214.285 208.784,216.118 209.5,220C 205.01,229.801 201.51,239.968 199,250.5C 195.118,254.714 191.618,259.214 188.5,264C 187.167,264.667 185.833,264.667 184.5,264C 183.262,244.882 189.262,228.382 202.5,214.5 Z"/></g>
<g><path style="opacity:1" fill="#bc9b66" d="M 152.5,215.5 C 152.167,215.5 151.833,215.5 151.5,215.5C 150.659,213.621 150.325,211.621 150.5,209.5C 149.5,209.5 148.5,209.5 147.5,209.5C 145.801,218.066 145.135,226.733 145.5,235.5C 146.5,235.5 147.5,235.5 148.5,235.5C 147.68,237.14 146.847,238.807 146,240.5C 145.667,240.167 145.333,239.833 145,239.5C 144.333,230.833 144.333,222.167 145,213.5C 147.556,204.617 153.056,198.784 161.5,196C 156.726,201.712 153.726,208.212 152.5,215.5 Z"/></g>
<g><path style="opacity:1" fill="#cea364" d="M 148.5,235.5 C 147.5,235.5 146.5,235.5 145.5,235.5C 145.135,226.733 145.801,218.066 147.5,209.5C 148.5,209.5 149.5,209.5 150.5,209.5C 150.325,211.621 150.659,213.621 151.5,215.5C 150.995,218.841 150.828,222.174 151,225.5C 155.401,219.597 160.568,214.597 166.5,210.5C 169.764,209.073 172.264,206.739 174,203.5C 174.042,210.92 171.209,217.086 165.5,222C 158.671,225.076 153.004,229.576 148.5,235.5 Z"/></g>
<g><path style="opacity:1" fill="#211408" d="M 166.5,207.5 C 166.5,208.5 166.5,209.5 166.5,210.5C 160.568,214.597 155.401,219.597 151,225.5C 150.828,222.174 150.995,218.841 151.5,215.5C 151.833,215.5 152.167,215.5 152.5,215.5C 152.47,216.497 152.97,217.164 154,217.5C 155.011,216.944 155.844,216.278 156.5,215.5C 160.122,213.213 163.455,210.547 166.5,207.5 Z"/></g>
<g><path style="opacity:1" fill="#cca365" d="M 355.5,212.5 C 355.826,221.349 355.493,230.016 354.5,238.5C 352.141,233.631 348.807,229.465 344.5,226C 335.573,222.74 329.739,216.573 327,207.5C 326.333,205.833 326.333,204.167 327,202.5C 327.717,203.044 328.217,203.711 328.5,204.5C 332.417,208.906 337.083,212.406 342.5,215C 345,218.167 347.5,221.333 350,224.5C 350.59,216.487 348.757,209.154 344.5,202.5C 342.992,199.834 341.826,197.167 341,194.5C 348.644,198.303 353.477,204.303 355.5,212.5 Z"/></g>
<g><path style="opacity:1" fill="#190f05" d="M 330.5,202.5 C 334.831,206.663 339.331,210.663 344,214.5C 343.981,212.893 343.815,211.226 343.5,209.5C 343.993,207.194 344.326,204.861 344.5,202.5C 348.757,209.154 350.59,216.487 350,224.5C 347.5,221.333 345,218.167 342.5,215C 337.083,212.406 332.417,208.906 328.5,204.5C 329.833,204.5 330.5,203.833 330.5,202.5 Z"/></g>
<g><path style="opacity:1" fill="#a38d64" d="M 355.5,212.5 C 356.658,221.657 356.824,230.991 356,240.5C 355.283,239.956 354.783,239.289 354.5,238.5C 355.493,230.016 355.826,221.349 355.5,212.5 Z"/></g>
<g><path style="opacity:1" fill="#d3a760" d="M 356.5,261.5 C 355.89,260.609 355.557,259.609 355.5,258.5C 355.322,255.784 354.822,253.117 354,250.5C 353.107,251.711 352.274,251.711 351.5,250.5C 349.986,246.804 348.319,243.137 346.5,239.5C 344.426,241.828 343.426,241.161 343.5,237.5C 345.262,237.357 346.929,237.691 348.5,238.5C 350.092,240.684 351.426,243.018 352.5,245.5C 353.213,243.565 354.213,243.232 355.5,244.5C 356.931,245.78 357.598,247.447 357.5,249.5C 358.485,255.041 359.152,255.375 359.5,250.5C 360.335,240.509 361.502,230.509 363,220.5C 366.913,227.393 367.246,234.393 364,241.5C 363.31,249.285 361.976,256.951 360,264.5C 359.578,262.574 358.411,261.574 356.5,261.5 Z"/></g>
<g><path style="opacity:1" fill="#c19d68" d="M 356.5,261.5 C 358.411,261.574 359.578,262.574 360,264.5C 361.976,256.951 363.31,249.285 364,241.5C 367.246,234.393 366.913,227.393 363,220.5C 361.502,230.509 360.335,240.509 359.5,250.5C 359.5,246.167 359.5,241.833 359.5,237.5C 359.649,232.325 359.982,227.158 360.5,222C 360.455,218.313 359.955,214.813 359,211.5C 367.123,220.282 369.79,230.615 367,242.5C 364.357,251.738 362.024,261.071 360,270.5C 358.896,267.492 357.729,264.492 356.5,261.5 Z"/></g>
<g><path style="opacity:1" fill="#caa264" d="M 141.5,239.5 C 141.334,244.511 141.501,249.511 142,254.5C 142.791,253.255 143.291,251.922 143.5,250.5C 144.741,244.086 148.408,239.586 154.5,237C 158.092,234.079 160.925,230.579 163,226.5C 162.781,234.28 160.281,241.28 155.5,247.5C 148.679,253.784 143.846,261.451 141,270.5C 138.258,261.607 135.925,252.607 134,243.5C 133.501,238.845 133.334,234.179 133.5,229.5C 134.321,222.841 137.154,217.174 142,212.5C 141.21,216.372 140.71,220.372 140.5,224.5C 141.054,229.489 141.388,234.489 141.5,239.5 Z"/></g>
<g><path style="opacity:1" fill="#c9a267" d="M 355.5,244.5 C 354.213,243.232 353.213,243.565 352.5,245.5C 351.426,243.018 350.092,240.684 348.5,238.5C 346.929,237.691 345.262,237.357 343.5,237.5C 343.426,241.161 344.426,241.828 346.5,239.5C 348.319,243.137 349.986,246.804 351.5,250.5C 352.274,251.711 353.107,251.711 354,250.5C 354.822,253.117 355.322,255.784 355.5,258.5C 351.961,252.78 347.794,247.447 343,242.5C 339.759,236.861 338.092,230.861 338,224.5C 340.441,230.608 344.608,235.108 350.5,238C 352.79,239.777 354.457,241.944 355.5,244.5 Z"/></g>
<g><path style="opacity:1" fill="#6f542f" d="M 141.5,239.5 C 142.167,243.167 142.833,246.833 143.5,250.5C 143.291,251.922 142.791,253.255 142,254.5C 141.501,249.511 141.334,244.511 141.5,239.5 Z"/></g>
<g><path style="opacity:1" fill="#82683c" d="M 359.5,237.5 C 359.5,241.833 359.5,246.167 359.5,250.5C 359.152,255.375 358.485,255.041 357.5,249.5C 358.167,245.5 358.833,241.5 359.5,237.5 Z"/></g>
<g><path style="opacity:0.96" fill="#000000" d="M 218.5,295.5 C 214.064,290.681 212.564,285.015 214,278.5C 213.987,271.521 216.82,266.187 222.5,262.5C 227.479,260.346 232.479,258.179 237.5,256C 239.5,255.333 241.5,255.333 243.5,256C 250.135,258.63 255.635,262.797 260,268.5C 260.097,277.262 259.097,285.929 257,294.5C 255.878,296.624 254.378,298.457 252.5,300C 247.686,302.327 242.686,304.16 237.5,305.5C 234.803,304.768 232.136,303.934 229.5,303C 226.122,299.985 222.456,297.485 218.5,295.5 Z"/></g>
<g><path style="opacity:0.958" fill="#000000" d="M 291.5,258.5 C 291.842,259.338 292.508,259.672 293.5,259.5C 293.842,260.338 294.508,260.672 295.5,260.5C 298.688,263.03 301.855,265.696 305,268.5C 305.062,274.881 304.395,281.214 303,287.5C 300.968,291.579 298.134,294.912 294.5,297.5C 292.973,297.427 291.973,298.094 291.5,299.5C 288.326,300.01 285.992,301.677 284.5,304.5C 282.634,305.014 280.8,305.68 279,306.5C 270.956,304.568 264.122,300.734 258.5,295C 259.852,285.718 261.685,276.551 264,267.5C 269.268,262.784 275.101,258.951 281.5,256C 285.015,255.913 288.348,256.746 291.5,258.5 Z"/></g>
<g><path style="opacity:1" fill="#120803" d="M 133.5,229.5 C 133.334,234.179 133.501,238.845 134,243.5C 135.925,252.607 138.258,261.607 141,270.5C 143.846,261.451 148.679,253.784 155.5,247.5C 154.646,249.035 154.646,250.368 155.5,251.5C 150.589,259.407 146.589,267.74 143.5,276.5C 143.5,277.167 143.5,277.833 143.5,278.5C 142.833,279.833 142.167,281.167 141.5,282.5C 140.975,278.467 139.642,274.8 137.5,271.5C 135.297,265.558 133.297,259.558 131.5,253.5C 131.167,250.833 130.833,248.167 130.5,245.5C 131.268,246.263 131.768,247.263 132,248.5C 132.5,248 133,247.5 133.5,247C 132.175,241.068 132.175,235.234 133.5,229.5 Z"/></g>
<g><path style="opacity:1" fill="#a78b62" d="M 130.5,245.5 C 130.833,248.167 131.167,250.833 131.5,253.5C 130.849,252.909 130.182,252.243 129.5,251.5C 128.248,257.099 127.582,262.766 127.5,268.5C 126.35,263.684 126.184,258.684 127,253.5C 127.493,250.325 128.66,247.659 130.5,245.5 Z"/></g>
<g><path style="opacity:0.715" fill="#010101" d="M 184.5,267.5 C 185.497,267.47 186.164,267.97 186.5,269C 188.112,278.391 191.279,287.224 196,295.5C 196.499,301.772 195.165,302.105 192,296.5C 186.18,287.549 183.68,277.882 184.5,267.5 Z"/></g>
<g><path style="opacity:1" fill="#d1a86c" d="M 90.5,207.5 C 84.8785,227.753 78.3785,247.753 71,267.5C 63.0088,295.053 62.5088,322.719 69.5,350.5C 68.5041,350.586 67.6708,350.252 67,349.5C 65.4884,342.441 64.1551,335.441 63,328.5C 62.2015,312.423 62.7015,296.423 64.5,280.5C 62.8762,280.64 61.7096,279.973 61,278.5C 60.3405,281.047 60.5071,283.547 61.5,286C 60.9896,287.826 60.1562,287.993 59,286.5C 56.6099,304.086 55.9432,321.752 57,339.5C 58.3074,348.709 60.474,357.709 63.5,366.5C 58.6643,356.835 55.831,346.501 55,335.5C 52.9502,314.088 54.9502,293.088 61,272.5C 66.5682,255.955 72.4016,239.621 78.5,223.5C 77.4777,228.923 76.1443,234.256 74.5,239.5C 75.5,239.5 76.5,239.5 77.5,239.5C 77.3505,240.552 77.5172,241.552 78,242.5C 78.346,240.782 78.846,239.115 79.5,237.5C 79.2907,236.914 78.9574,236.414 78.5,236C 82.9213,229.231 85.2547,221.731 85.5,213.5C 86.5,213.5 87.5,213.5 88.5,213.5C 88.0254,210.918 88.6921,208.918 90.5,207.5 Z"/></g>
<g><path style="opacity:1" fill="#cea464" d="M 371.5,277.5 C 366.354,286.495 360.187,294.829 353,302.5C 353.638,291.907 351.805,281.907 347.5,272.5C 345.678,264.935 344.845,257.269 345,249.5C 350.839,258.505 355.006,268.171 357.5,278.5C 357.337,280.857 357.503,283.19 358,285.5C 358.608,283.846 359.108,282.179 359.5,280.5C 364.488,268.871 368.488,256.871 371.5,244.5C 375.414,255.476 375.414,266.476 371.5,277.5 Z"/></g>
<g><path style="opacity:1" fill="#d1a562" d="M 131.5,253.5 C 133.297,259.558 135.297,265.558 137.5,271.5C 137.675,275.54 138.675,279.373 140.5,283C 140.219,285.292 139.552,287.458 138.5,289.5C 137.583,288.873 136.583,288.539 135.5,288.5C 130.687,282.734 128.02,276.067 127.5,268.5C 127.582,262.766 128.248,257.099 129.5,251.5C 130.182,252.243 130.849,252.909 131.5,253.5 Z"/></g>
<g><path style="opacity:1" fill="#130903" d="M 347.5,272.5 C 351.805,281.907 353.638,291.907 353,302.5C 360.187,294.829 366.354,286.495 371.5,277.5C 371.232,279.099 371.566,280.432 372.5,281.5C 370.199,286.765 367.366,291.765 364,296.5C 358,301.167 352.667,306.5 348,312.5C 348.755,304.824 348.588,297.157 347.5,289.5C 347.152,285.742 346.485,282.076 345.5,278.5C 347.28,277.01 347.946,275.01 347.5,272.5 Z"/></g>
<g><path style="opacity:1" fill="#c6a068" d="M 155.5,251.5 C 156.356,262.415 154.523,273.081 150,283.5C 148.955,290.125 148.289,296.792 148,303.5C 143.622,298.627 139.455,293.627 135.5,288.5C 136.583,288.539 137.583,288.873 138.5,289.5C 139.552,287.458 140.219,285.292 140.5,283C 138.675,279.373 137.675,275.54 137.5,271.5C 139.642,274.8 140.975,278.467 141.5,282.5C 141.833,283.833 142.167,285.167 142.5,286.5C 141.711,287.915 141.044,289.415 140.5,291C 142.245,293.367 143.745,295.867 145,298.5C 145.333,298.167 145.667,297.833 146,297.5C 146.667,290.833 147.333,284.167 148,277.5C 148.667,278.167 149.333,278.833 150,279.5C 150.989,276.544 151.822,273.544 152.5,270.5C 151.061,269.829 150.061,268.162 149.5,265.5C 148.167,268.833 146.833,272.167 145.5,275.5C 144.817,275.863 144.15,276.196 143.5,276.5C 146.589,267.74 150.589,259.407 155.5,251.5 Z"/></g>
<g><path style="opacity:1" fill="#d4a65f" d="M 142.5,286.5 C 143.473,284.052 143.806,281.385 143.5,278.5C 143.5,277.833 143.5,277.167 143.5,276.5C 144.15,276.196 144.817,275.863 145.5,275.5C 146.833,272.167 148.167,268.833 149.5,265.5C 150.061,268.162 151.061,269.829 152.5,270.5C 151.822,273.544 150.989,276.544 150,279.5C 149.333,278.833 148.667,278.167 148,277.5C 147.333,284.167 146.667,290.833 146,297.5C 145.667,297.833 145.333,298.167 145,298.5C 143.745,295.867 142.245,293.367 140.5,291C 141.044,289.415 141.711,287.915 142.5,286.5 Z"/></g>
<g><path style="opacity:1" fill="#d4a763" d="M 440.5,283.5 C 453.35,332.78 441.35,374.946 404.5,410C 389.281,421.278 372.614,429.944 354.5,436C 342.892,439.536 331.225,442.869 319.5,446C 297.357,450.369 275.357,455.369 253.5,461C 250.833,461.667 248.167,461.667 245.5,461C 218.308,454.035 190.975,447.702 163.5,442C 143.901,436.532 125.235,428.865 107.5,419C 87.5688,405.903 72.9021,388.403 63.5,366.5C 60.474,357.709 58.3074,348.709 57,339.5C 55.9432,321.752 56.6099,304.086 59,286.5C 60.1562,287.993 60.9896,287.826 61.5,286C 60.5071,283.547 60.3405,281.047 61,278.5C 61.7096,279.973 62.8762,280.64 64.5,280.5C 62.7015,296.423 62.2015,312.423 63,328.5C 64.1551,335.441 65.4884,342.441 67,349.5C 67.6708,350.252 68.5041,350.586 69.5,350.5C 83.1101,384.274 107.11,407.441 141.5,420C 150.772,423.202 160.105,426.202 169.5,429C 196.163,435.166 222.83,441.332 249.5,447.5C 279.637,440.906 309.637,433.739 339.5,426C 360.285,420.107 379.285,410.774 396.5,398C 409.063,386.289 419.063,372.789 426.5,357.5C 427.117,357.611 427.617,357.944 428,358.5C 428.25,355.246 429.25,352.246 431,349.5C 431.914,350.654 432.747,350.487 433.5,349C 432.878,347.431 432.544,345.764 432.5,344C 436.132,331.818 437.298,319.318 436,306.5C 435.768,305.263 435.268,304.263 434.5,303.5C 434.5,302.5 434.5,301.5 434.5,300.5C 434.648,292.764 433.982,285.097 432.5,277.5C 432.569,275.291 433.236,273.291 434.5,271.5C 435.167,274.167 435.833,276.833 436.5,279.5C 437.251,278.624 437.751,277.624 438,276.5C 437.97,279.361 438.803,281.695 440.5,283.5 Z M 211.5,318.5 C 213.027,318.427 214.027,319.094 214.5,320.5C 212.973,320.573 211.973,319.906 211.5,318.5 Z M 207.5,315.5 C 209.404,315.738 210.738,316.738 211.5,318.5C 209.596,318.262 208.262,317.262 207.5,315.5 Z M 291.5,299.5 C 289.704,301.9 287.37,303.567 284.5,304.5C 285.992,301.677 288.326,300.01 291.5,299.5 Z M 294.5,297.5 C 294.027,298.906 293.027,299.573 291.5,299.5C 291.973,298.094 292.973,297.427 294.5,297.5 Z"/></g>
<g><path style="opacity:1" fill="#a5885f" d="M 194.5,367.5 C 190.018,368.326 185.351,368.826 180.5,369C 181.381,369.708 182.047,370.542 182.5,371.5C 179.884,370.52 177.551,369.02 175.5,367C 181.773,367.369 188.107,367.536 194.5,367.5 Z"/></g>
<g><path style="opacity:1" fill="#cda364" d="M 277.5,358.5 C 283.503,360.557 289.503,362.724 295.5,365C 305.16,366.542 314.827,366.876 324.5,366C 321.598,368.417 318.598,370.584 315.5,372.5C 307.025,377.55 298.025,378.717 288.5,376C 285.379,374.694 282.713,372.86 280.5,370.5C 282.366,371.014 284.2,371.68 286,372.5C 287.169,371.991 288.002,371.158 288.5,370C 287.754,367.907 287.421,365.907 287.5,364C 285.19,363.503 282.857,363.337 280.5,363.5C 280.69,361.041 279.69,359.374 277.5,358.5 Z"/></g>
<g><path style="opacity:1" fill="#c29d65" d="M 275.5,356.5 C 276.167,357.167 276.833,357.833 277.5,358.5C 271.6,356.508 265.6,356.175 259.5,357.5C 262.785,359.72 266.451,360.887 270.5,361C 273.676,364.343 277.009,367.51 280.5,370.5C 276.402,368.251 272.402,365.751 268.5,363C 264.309,361.199 259.975,360.533 255.5,361C 265.906,366.862 275.573,373.696 284.5,381.5C 284.065,383.997 282.731,385.163 280.5,385C 273.748,378.244 266.414,372.244 258.5,367C 254.613,363.97 250.28,362.97 245.5,364C 236.133,369.695 227.633,376.528 220,384.5C 218.017,383.234 217.017,381.568 217,379.5C 223.608,373.559 230.775,368.392 238.5,364C 239.738,363.31 239.738,362.81 238.5,362.5C 243.632,362.404 248.965,362.238 254.5,362C 252.307,361.117 250.974,359.95 250.5,358.5C 258.397,353.976 266.73,353.31 275.5,356.5 Z"/></g>
<g><path style="opacity:1" fill="#170d04" d="M 275.5,356.5 C 276.5,356.5 277.5,356.5 278.5,356.5C 293.467,363.146 309.134,365.146 325.5,362.5C 325.082,363.222 324.416,363.722 323.5,364C 324.5,364.333 325.5,364.667 326.5,365C 325.265,367.982 323.432,370.482 321,372.5C 319.293,371.862 317.46,371.862 315.5,372.5C 318.598,370.584 321.598,368.417 324.5,366C 314.827,366.876 305.16,366.542 295.5,365C 289.503,362.724 283.503,360.557 277.5,358.5C 276.833,357.833 276.167,357.167 275.5,356.5 Z"/></g>
<g><path style="opacity:1" fill="#d5a75f" d="M 277.5,358.5 C 279.69,359.374 280.69,361.041 280.5,363.5C 282.857,363.337 285.19,363.503 287.5,364C 287.421,365.907 287.754,367.907 288.5,370C 288.002,371.158 287.169,371.991 286,372.5C 284.2,371.68 282.366,371.014 280.5,370.5C 277.009,367.51 273.676,364.343 270.5,361C 266.451,360.887 262.785,359.72 259.5,357.5C 265.6,356.175 271.6,356.508 277.5,358.5 Z"/></g>
<g><path style="opacity:1" fill="#d0a463" d="M 250.5,358.5 C 250.974,359.95 252.307,361.117 254.5,362C 248.965,362.238 243.632,362.404 238.5,362.5C 231.165,365.006 224.498,368.839 218.5,374C 205.879,380.598 193.879,379.765 182.5,371.5C 182.047,370.542 181.381,369.708 180.5,369C 185.351,368.826 190.018,368.326 194.5,367.5C 206.331,365.724 217.664,362.224 228.5,357C 235.959,356.091 243.292,356.591 250.5,358.5 Z"/></g>
<g><path style="opacity:1" fill="#d0a464" d="M 307.5,348.5 C 305.603,351.559 302.936,353.726 299.5,355C 309.488,354.834 319.488,354.334 329.5,353.5C 331.262,353.643 332.929,353.309 334.5,352.5C 335.386,353.325 335.719,354.325 335.5,355.5C 332.479,358.338 329.146,360.672 325.5,362.5C 309.134,365.146 293.467,363.146 278.5,356.5C 281.007,355.108 283.673,354.108 286.5,353.5C 290.105,353.201 293.439,352.035 296.5,350C 299.016,347.317 301.683,344.817 304.5,342.5C 306.033,344.289 307.033,346.289 307.5,348.5 Z"/></g>
<g><path style="opacity:1" fill="#caa061" d="M 193.5,339.5 C 198.263,343.488 202.93,347.655 207.5,352C 212.42,354.196 217.42,356.196 222.5,358C 207.702,364.305 192.369,366.305 176.5,364C 173.761,362.974 171.428,361.474 169.5,359.5C 165.152,354.676 165.985,353.676 172,356.5C 172.902,356.257 173.735,355.923 174.5,355.5C 183.203,355.495 191.87,355.661 200.5,356C 196.007,354.006 192.674,350.84 190.5,346.5C 190.494,343.482 189.494,340.816 187.5,338.5C 187.833,338.167 188.167,337.833 188.5,337.5C 190.075,338.456 191.742,339.123 193.5,339.5 Z"/></g>
<g><path style="opacity:1" fill="#b29363" d="M 174.5,355.5 C 173.735,355.923 172.902,356.257 172,356.5C 165.985,353.676 165.152,354.676 169.5,359.5C 164.427,355.934 159.76,351.768 155.5,347C 161.538,350.35 167.872,353.183 174.5,355.5 Z"/></g>
<g><path style="opacity:1" fill="#a88d63" d="M 335.5,355.5 C 335.719,354.325 335.386,353.325 334.5,352.5C 332.929,353.309 331.262,353.643 329.5,353.5C 334.1,351.031 338.766,348.865 343.5,347C 341.333,350.333 338.666,353.166 335.5,355.5 Z"/></g>
<g><path style="opacity:1" fill="#c7a066" d="M 307.5,348.5 C 307.033,346.289 306.033,344.289 304.5,342.5C 301.683,344.817 299.016,347.317 296.5,350C 293.439,352.035 290.105,353.201 286.5,353.5C 294.386,350.138 301.053,344.972 306.5,338C 310.951,335.217 315.117,332.05 319,328.5C 316.482,335.863 312.649,342.529 307.5,348.5 Z"/></g>
<g><path style="opacity:1" fill="#cba265" d="M 153.5,341.5 C 156.187,341.336 158.854,341.503 161.5,342C 162.167,343.333 163.167,344.333 164.5,345C 166.847,345.436 169.181,345.936 171.5,346.5C 173.056,345.453 174.723,344.786 176.5,344.5C 176.866,342.095 177.533,339.762 178.5,337.5C 176.821,333.287 174.821,332.954 172.5,336.5C 172.901,338.434 173.901,339.934 175.5,341C 171.975,343.356 169.641,342.522 168.5,338.5C 169.575,339.562 170.575,339.562 171.5,338.5C 170.208,336.333 169.375,334 169,331.5C 167.952,322.708 166.619,314.041 165,305.5C 169.671,310.832 173.337,316.832 176,323.5C 178.069,334.472 182.902,343.972 190.5,352C 177.519,350.615 165.186,347.115 153.5,341.5 Z"/></g>
<g><path style="opacity:1" fill="#cda364" d="M 332.5,323.5 C 332.664,326.187 332.497,328.854 332,331.5C 330.757,334.246 329.757,336.912 329,339.5C 336.42,334.58 344.254,330.414 352.5,327C 356.768,322.919 360.434,319.086 363.5,315.5C 362.326,323.206 359.326,330.04 354.5,336C 340.826,343.87 326.159,348.87 310.5,351C 313.699,347.434 316.533,343.6 319,339.5C 321.434,332.685 323.934,326.018 326.5,319.5C 328.083,318.064 329.583,316.398 331,314.5C 331.696,317.478 332.196,320.478 332.5,323.5 Z"/></g>
<g><path style="opacity:1" fill="#d3a661" d="M 164.5,336.5 C 166.153,336.66 167.486,337.326 168.5,338.5C 169.641,342.522 171.975,343.356 175.5,341C 173.901,339.934 172.901,338.434 172.5,336.5C 174.821,332.954 176.821,333.287 178.5,337.5C 177.533,339.762 176.866,342.095 176.5,344.5C 174.723,344.786 173.056,345.453 171.5,346.5C 169.181,345.936 166.847,345.436 164.5,345C 163.167,344.333 162.167,343.333 161.5,342C 158.854,341.503 156.187,341.336 153.5,341.5C 151.118,340.649 149.118,339.316 147.5,337.5C 146.85,335.565 146.517,333.565 146.5,331.5C 147.833,331.5 149.167,331.5 150.5,331.5C 151.424,335.373 153.758,336.373 157.5,334.5C 159.577,335.937 161.91,336.604 164.5,336.5 Z"/></g>
<g><path style="opacity:1" fill="#b79668" d="M 193.5,339.5 C 191.742,339.123 190.075,338.456 188.5,337.5C 188.167,337.833 187.833,338.167 187.5,338.5C 189.494,340.816 190.494,343.482 190.5,346.5C 187.777,341.398 184.777,336.398 181.5,331.5C 182.002,330.479 182.668,330.312 183.5,331C 187.025,333.698 190.358,336.531 193.5,339.5 Z"/></g>
<g><path style="opacity:1" fill="#c9a167" d="M 164.5,336.5 C 161.91,336.604 159.577,335.937 157.5,334.5C 153.758,336.373 151.424,335.373 150.5,331.5C 149.167,331.5 147.833,331.5 146.5,331.5C 146.517,333.565 146.85,335.565 147.5,337.5C 145.164,335.996 143.331,333.996 142,331.5C 139.71,326.34 138.377,321.007 138,315.5C 141.083,320.588 144.917,325.088 149.5,329C 154.735,331.232 159.735,333.732 164.5,336.5 Z"/></g>
<g><path style="opacity:1" fill="#ac9063" d="M 160.5,307.5 C 161.511,315.177 163.177,322.843 165.5,330.5C 165.333,331.167 165.167,331.833 165,332.5C 163.482,331.837 162.315,330.837 161.5,329.5C 162.497,329.53 163.164,329.03 163.5,328C 160.991,321.413 159.991,314.58 160.5,307.5 Z"/></g>
<g><path style="opacity:1" fill="#d1a971" d="M 434.5,303.5 C 435.268,304.263 435.768,305.263 436,306.5C 437.298,319.318 436.132,331.818 432.5,344C 432.544,345.764 432.878,347.431 433.5,349C 432.747,350.487 431.914,350.654 431,349.5C 429.25,352.246 428.25,355.246 428,358.5C 427.617,357.944 427.117,357.611 426.5,357.5C 432.881,340.08 435.548,322.08 434.5,303.5 Z"/></g>
<g><path style="opacity:0.754" fill="#000000" d="M 243.5,324.5 C 250.547,324.337 257.547,324.837 264.5,326C 264.957,326.414 265.291,326.914 265.5,327.5C 258.367,329.971 251.033,330.804 243.5,330C 232.841,327.849 232.841,326.015 243.5,324.5 Z"/></g>
<g><path style="opacity:1" fill="#140903" d="M 364.5,309.5 C 364.2,311.544 363.867,313.544 363.5,315.5C 360.434,319.086 356.768,322.919 352.5,327C 344.254,330.414 336.42,334.58 329,339.5C 329.757,336.912 330.757,334.246 332,331.5C 332.497,328.854 332.664,326.187 332.5,323.5C 333.167,321.833 333.833,320.167 334.5,318.5C 334.337,320.857 334.503,323.19 335,325.5C 335.278,324.584 335.778,323.918 336.5,323.5C 336.221,326.118 335.554,328.618 334.5,331C 345.568,325.604 355.568,318.438 364.5,309.5 Z"/></g>
<g><path style="opacity:1" fill="#cfa464" d="M 132.5,291.5 C 137.431,298.266 143.265,304.266 150,309.5C 152.5,315.676 153.667,315.676 153.5,309.5C 153.334,304.489 153.501,299.489 154,294.5C 154.219,293.062 154.719,291.729 155.5,290.5C 156.425,289.359 157.259,289.359 158,290.5C 158.076,294.796 158.909,298.796 160.5,302.5C 160.5,304.167 160.5,305.833 160.5,307.5C 159.991,314.58 160.991,321.413 163.5,328C 163.164,329.03 162.497,329.53 161.5,329.5C 151.073,324.58 142.24,317.58 135,308.5C 133.295,306.423 132.128,304.09 131.5,301.5C 130.662,297.501 130.162,293.501 130,289.5C 130.708,290.381 131.542,291.047 132.5,291.5 Z"/></g>
<g><path style="opacity:1" fill="#cea462" d="M 372.5,281.5 C 373.598,291.755 370.932,301.088 364.5,309.5C 355.568,318.438 345.568,325.604 334.5,331C 335.554,328.618 336.221,326.118 336.5,323.5C 337.64,320.632 338.64,317.632 339.5,314.5C 341.834,306.132 343.001,297.466 343,288.5C 344.816,287.257 346.316,287.59 347.5,289.5C 348.588,297.157 348.755,304.824 348,312.5C 352.667,306.5 358,301.167 364,296.5C 367.366,291.765 370.199,286.765 372.5,281.5 Z"/></g>
<g><path style="opacity:1" fill="#c09c66" d="M 334.5,318.5 C 333.833,320.167 333.167,321.833 332.5,323.5C 332.196,320.478 331.696,317.478 331,314.5C 329.583,316.398 328.083,318.064 326.5,319.5C 329.021,314.134 332.188,309.134 336,304.5C 335.408,309.079 334.908,313.746 334.5,318.5 Z"/></g>
<g><path style="opacity:1" fill="#b39264" d="M 345.5,278.5 C 346.485,282.076 347.152,285.742 347.5,289.5C 346.316,287.59 344.816,287.257 343,288.5C 343.001,297.466 341.834,306.132 339.5,314.5C 339.947,304.804 340.78,295.137 342,285.5C 342.67,282.826 343.837,280.493 345.5,278.5 Z"/></g>
<g><path style="opacity:0.933" fill="#000000" d="M 218.5,295.5 C 222.965,300.326 228.132,304.326 234,307.5C 236.343,311.186 237.843,315.186 238.5,319.5C 237.571,324.058 234.738,326.058 230,325.5C 224.5,324.831 219.333,323.165 214.5,320.5C 214.027,319.094 213.027,318.427 211.5,318.5C 210.738,316.738 209.404,315.738 207.5,315.5C 207.5,314.833 207.167,314.5 206.5,314.5C 203.835,311.665 201.335,308.665 199,305.5C 197.787,302.232 197.454,298.899 198,295.5C 201.985,293.672 206.152,292.339 210.5,291.5C 213.423,292.448 216.089,293.781 218.5,295.5 Z"/></g>
<g><path style="opacity:0.886" fill="#010101" d="M 284.5,304.5 C 287.37,303.567 289.704,301.9 291.5,299.5C 293.027,299.573 294.027,298.906 294.5,297.5C 298.445,295.19 302.445,292.857 306.5,290.5C 308.167,290.833 309.167,291.833 309.5,293.5C 302.517,308.648 291.184,319.148 275.5,325C 272.637,325.965 270.304,325.298 268.5,323C 272.652,315.69 277.985,309.524 284.5,304.5 Z"/></g>
<g><path style="opacity:1" fill="#b79767" d="M 132.5,291.5 C 131.542,291.047 130.708,290.381 130,289.5C 130.162,293.501 130.662,297.501 131.5,301.5C 128.235,295.666 127.068,289.333 128,282.5C 129.527,285.553 131.027,288.553 132.5,291.5 Z"/></g>
<g><path style="opacity:1" fill="#b29263" d="M 160.5,302.5 C 158.909,298.796 158.076,294.796 158,290.5C 157.259,289.359 156.425,289.359 155.5,290.5C 154.719,291.729 154.219,293.062 154,294.5C 153.501,299.489 153.334,304.489 153.5,309.5C 151.85,299.434 152.684,289.434 156,279.5C 159.12,286.833 160.62,294.5 160.5,302.5 Z"/></g>
<g><path style="opacity:1" fill="#6c4b22" d="M 143.5,278.5 C 143.806,281.385 143.473,284.052 142.5,286.5C 142.167,285.167 141.833,283.833 141.5,282.5C 142.167,281.167 142.833,279.833 143.5,278.5 Z"/></g>
<g><path style="opacity:1" fill="#563f17" d="M 357.5,278.5 C 358.167,279.167 358.833,279.833 359.5,280.5C 359.108,282.179 358.608,283.846 358,285.5C 357.503,283.19 357.337,280.857 357.5,278.5 Z"/></g>
</svg>
