<?xml version="1.0" encoding="UTF-8"?>
<!DOCTYPE svg PUBLIC "-//W3C//DTD SVG 1.1//EN" "http://www.w3.org/Graphics/SVG/1.1/DTD/svg11.dtd">
<svg xmlns="http://www.w3.org/2000/svg" version="1.1" width="500px" height="500px" style="shape-rendering:geometricPrecision; text-rendering:geometricPrecision; image-rendering:optimizeQuality; fill-rule:evenodd; clip-rule:evenodd" xmlns:xlink="http://www.w3.org/1999/xlink">
<g><path style="opacity:1" fill="#2b417b" d="M 274.5,36.5 C 257.833,36.5 241.167,36.5 224.5,36.5C 241.167,33.8333 257.833,33.8333 274.5,36.5 Z"/></g>
<g><path style="opacity:1" fill="#2e437a" d="M 223.5,36.5 C 219.21,37.6195 214.876,38.7861 210.5,40C 207.518,40.498 204.518,40.6646 201.5,40.5C 208.518,38.1063 215.851,36.773 223.5,36.5 Z"/></g>
<g><path style="opacity:1" fill="#0449ab" d="M 223.5,36.5 C 223.833,36.5 224.167,36.5 224.5,36.5C 241.167,36.5 257.833,36.5 274.5,36.5C 282.464,36.8291 290.131,38.1625 297.5,40.5C 297.97,41.6935 298.97,42.3601 300.5,42.5C 303.468,43.1616 306.468,43.495 309.5,43.5C 316.531,45.0644 323.198,47.3978 329.5,50.5C 330.429,51.3149 331.429,52.1482 332.5,53C 331.315,54.353 329.981,55.5197 328.5,56.5C 329.167,56.8333 329.833,57.1667 330.5,57.5C 331.863,56.8016 333.029,56.8016 334,57.5C 334.739,56.4258 335.739,55.7591 337,55.5C 343.011,57.5555 348.845,59.8888 354.5,62.5C 377.818,75.1483 397.818,91.8149 414.5,112.5C 414.511,114.017 415.177,115.184 416.5,116C 414.299,116.777 414.299,117.944 416.5,119.5C 417.086,119.291 417.586,118.957 418,118.5C 418.827,119.662 419.66,120.829 420.5,122C 420.354,123.727 419.687,123.894 418.5,122.5C 417.614,123.325 417.281,124.325 417.5,125.5C 423.5,124.167 425.833,126.5 424.5,132.5C 425.833,132.5 427.167,132.5 428.5,132.5C 428.034,134.201 428.034,135.701 428.5,137C 426.071,137.451 425.904,138.285 428,139.5C 429.117,139.335 430.284,139.002 431.5,138.5C 432.865,141.695 433.865,145.028 434.5,148.5C 435.931,148.977 437.264,149.643 438.5,150.5C 437.128,152.62 437.795,153.62 440.5,153.5C 439.751,157.819 439.585,162.152 440,166.5C 440.615,164.884 441.615,163.551 443,162.5C 444.853,164.903 446.686,167.236 448.5,169.5C 450.848,177.895 453.348,186.228 456,194.5C 457.512,205.242 459.679,215.575 462.5,225.5C 462.5,241.5 462.5,257.5 462.5,273.5C 462.771,278.434 462.104,283.1 460.5,287.5C 459.694,288.997 459.028,290.664 458.5,292.5C 457.675,293.386 456.675,293.719 455.5,293.5C 455.914,295.808 456.247,298.142 456.5,300.5C 454.888,306.458 453.555,312.458 452.5,318.5C 451.935,322.537 450.601,326.203 448.5,329.5C 445.821,332.388 443.487,335.722 441.5,339.5C 440.391,338.41 439.391,338.41 438.5,339.5C 439.681,341.198 439.681,342.865 438.5,344.5C 432.623,345.485 431.289,348.318 434.5,353C 433.577,355.041 433.244,357.208 433.5,359.5C 432.142,358.374 430.808,358.374 429.5,359.5C 430.753,363.258 429.42,365.591 425.5,366.5C 425.657,367.873 425.49,369.207 425,370.5C 423.215,371.24 421.382,371.907 419.5,372.5C 417.833,370.667 416.167,368.833 414.5,367C 413.833,366.333 413.167,366.333 412.5,367C 413.127,369.343 414.127,371.51 415.5,373.5C 412.59,378.689 408.423,382.355 403,384.5C 402.833,384.833 402.667,385.167 402.5,385.5C 407.809,386.236 408.476,388.07 404.5,391C 405.357,391.689 406.023,392.522 406.5,393.5C 405.066,394.23 403.9,395.23 403,396.5C 401.334,395.66 401.167,396.16 402.5,398C 401.552,398.483 400.552,398.649 399.5,398.5C 399.5,399.5 399.5,400.5 399.5,401.5C 396.436,402.371 393.436,403.538 390.5,405C 390.004,406.996 389.004,408.663 387.5,410C 387.833,410.333 388.167,410.667 388.5,411C 387.552,411.483 386.552,411.649 385.5,411.5C 385.5,412.5 385.5,413.5 385.5,414.5C 384.448,414.649 383.448,414.483 382.5,414C 383.711,413.107 383.711,412.274 382.5,411.5C 381.354,414.966 379.521,417.966 377,420.5C 375.37,418.849 375.537,417.183 377.5,415.5C 375.643,410.401 371.976,408.068 366.5,408.5C 366.5,407.5 366.5,406.5 366.5,405.5C 393.03,384.097 413.03,357.763 426.5,326.5C 428.014,325.32 429.681,324.32 431.5,323.5C 430.314,318.265 431.481,313.599 435,309.5C 436.128,311.345 436.628,313.345 436.5,315.5C 437.5,315.5 438.5,315.5 439.5,315.5C 439.227,310.446 438.227,305.613 436.5,301C 439.061,289.59 441.061,278.09 442.5,266.5C 440.593,258.342 441.26,250.509 444.5,243C 443.736,238.53 443.403,234.03 443.5,229.5C 442.5,229.5 441.5,229.5 440.5,229.5C 440.275,227.284 441.108,225.617 443,224.5C 444.316,220.872 443.149,218.539 439.5,217.5C 439.007,212.817 438.674,208.151 438.5,203.5C 437.5,201.833 436.167,200.5 434.5,199.5C 433.75,196.335 432.416,193.669 430.5,191.5C 407.359,131.026 365.026,90.6928 303.5,70.5C 301.192,69.4422 298.858,68.2755 296.5,67C 289.613,65.5334 282.613,64.2 275.5,63C 256.5,62.3333 237.5,62.3333 218.5,63C 217.944,63.3826 217.611,63.8826 217.5,64.5C 172.939,73.4399 135.605,94.7732 105.5,128.5C 103.284,127.797 101.451,126.464 100,124.5C 98.7304,126.773 99.2304,128.939 101.5,131C 98.4859,133.547 95.8193,136.38 93.5,139.5C 92.5481,141.045 92.2148,142.712 92.5,144.5C 76.3459,168.633 65.6792,194.966 60.5,223.5C 59.1035,229.061 57.9368,234.728 57,240.5C 56.0834,255.495 55.75,270.495 56,285.5C 56.3333,285.833 56.6667,286.167 57,286.5C 57.6256,284.287 57.4589,282.12 56.5,280C 57.1608,277.536 57.6608,275.036 58,272.5C 58.5847,277.511 59.2514,282.511 60,287.5C 60.3826,288.056 60.8826,288.389 61.5,288.5C 63.371,296.518 65.371,304.518 67.5,312.5C 68.093,317.604 69.093,322.604 70.5,327.5C 69.1667,327.5 67.8333,327.5 66.5,327.5C 66.6495,326.448 66.4828,325.448 66,324.5C 64.2491,326.212 63.5825,328.212 64,330.5C 64.3333,330.833 64.6667,331.167 65,331.5C 65.9486,327.622 67.1153,327.622 68.5,331.5C 69.3184,334.107 69.8184,336.774 70,339.5C 71,340.5 72,341.5 73,342.5C 74.547,346.241 76.3803,349.908 78.5,353.5C 77.2243,354.645 75.891,354.645 74.5,353.5C 72.4866,351.468 70.9866,349.134 70,346.5C 69.1118,349.078 68.6118,351.745 68.5,354.5C 65.5097,351.181 64.1763,347.514 64.5,343.5C 63.7492,344.376 63.2492,345.376 63,346.5C 62.6174,345.944 62.1174,345.611 61.5,345.5C 60.5,345.5 59.5,345.5 58.5,345.5C 57.1403,342.38 56.3069,339.047 56,335.5C 55.2904,334.027 54.1238,333.36 52.5,333.5C 51.6263,327.982 49.6263,322.982 46.5,318.5C 44.076,313.153 42.4093,307.487 41.5,301.5C 41.2462,296.556 40.2462,291.889 38.5,287.5C 37.5386,285.735 37.2053,283.735 37.5,281.5C 36.6092,262.516 36.2759,243.516 36.5,224.5C 36.5,224.167 36.5,223.833 36.5,223.5C 38.1357,219.79 38.8023,215.79 38.5,211.5C 39.7385,201.547 42.0718,191.88 45.5,182.5C 48.694,177.616 51.194,172.282 53,166.5C 53.7431,168.645 54.5765,168.811 55.5,167C 55.1667,166 54.8333,165 54.5,164C 55.7073,162.7 56.3739,161.2 56.5,159.5C 57.5,159.5 58.5,159.5 59.5,159.5C 59.3118,157.897 59.8118,156.563 61,155.5C 61.1816,158.226 61.6816,160.893 62.5,163.5C 62.8333,162.833 63.1667,162.167 63.5,161.5C 63.8796,158.482 63.2129,155.482 61.5,152.5C 63.2915,149.001 64.6248,145.334 65.5,141.5C 66.3107,139.609 67.6441,138.276 69.5,137.5C 70.4656,135.604 70.7989,133.604 70.5,131.5C 95.1701,93.1707 128.837,65.8373 171.5,49.5C 179.168,47.9428 186.501,45.6094 193.5,42.5C 195.838,40.9605 198.505,40.2938 201.5,40.5C 204.518,40.6646 207.518,40.498 210.5,40C 214.876,38.7861 219.21,37.6195 223.5,36.5 Z"/></g>
<g><path style="opacity:1" fill="#2c4178" d="M 297.5,40.5 C 301.8,40.7191 305.8,41.7191 309.5,43.5C 306.468,43.495 303.468,43.1616 300.5,42.5C 298.97,42.3601 297.97,41.6935 297.5,40.5 Z"/></g>
<g><path style="opacity:1" fill="#2f4076" d="M 193.5,42.5 C 186.501,45.6094 179.168,47.9428 171.5,49.5C 178.499,46.3906 185.832,44.0572 193.5,42.5 Z"/></g>
<g><path style="opacity:1" fill="#204593" d="M 329.5,50.5 C 338.486,53.3711 346.82,57.3711 354.5,62.5C 348.845,59.8888 343.011,57.5555 337,55.5C 335.739,55.7591 334.739,56.4258 334,57.5C 333.029,56.8016 331.863,56.8016 330.5,57.5C 329.833,57.1667 329.167,56.8333 328.5,56.5C 329.981,55.5197 331.315,54.353 332.5,53C 331.429,52.1482 330.429,51.3149 329.5,50.5 Z"/></g>
<g><path style="opacity:1" fill="#2856a2" d="M 303.5,70.5 C 275.217,63.7308 246.55,61.7308 217.5,64.5C 217.611,63.8826 217.944,63.3826 218.5,63C 237.5,62.3333 256.5,62.3333 275.5,63C 282.613,64.2 289.613,65.5334 296.5,67C 298.858,68.2755 301.192,69.4422 303.5,70.5 Z"/></g>
<g><path style="opacity:1" fill="#e9f6fd" d="M 303.5,70.5 C 365.026,90.6928 407.359,131.026 430.5,191.5C 444.874,236.95 443.54,281.95 426.5,326.5C 413.03,357.763 393.03,384.097 366.5,405.5C 361.55,408.453 356.883,411.786 352.5,415.5C 348.164,417.332 344.164,419.665 340.5,422.5C 335.919,424.13 331.586,426.13 327.5,428.5C 317.157,432.39 306.823,436.057 296.5,439.5C 296.167,439.5 295.833,439.5 295.5,439.5C 286.817,440.836 278.151,442.336 269.5,444C 258.839,444.5 248.172,444.667 237.5,444.5C 212.65,443.038 188.983,437.038 166.5,426.5C 155.702,420.934 145.368,414.6 135.5,407.5C 128.525,401.529 121.525,395.529 114.5,389.5C 92.9757,367.459 77.309,341.793 67.5,312.5C 65.371,304.518 63.371,296.518 61.5,288.5C 58.0477,266.882 57.7143,245.215 60.5,223.5C 65.6792,194.966 76.3459,168.633 92.5,144.5C 96.8032,139.191 101.137,133.858 105.5,128.5C 135.605,94.7732 172.939,73.4399 217.5,64.5C 246.55,61.7308 275.217,63.7308 303.5,70.5 Z"/></g>
<g><path style="opacity:1" fill="#416aa4" d="M 235.5,67.5 C 231.081,68.9715 226.414,69.6382 221.5,69.5C 225.919,68.0285 230.586,67.3618 235.5,67.5 Z"/></g>
<g><path style="opacity:1" fill="#0249ab" d="M 199.5,74.5 C 205.221,74.3686 210.888,74.8686 216.5,76C 217.333,76.8333 218.167,77.6667 219,78.5C 221,77.8333 223,77.1667 225,76.5C 230.741,77.4749 236.575,77.8082 242.5,77.5C 242.617,79.4835 241.95,81.1502 240.5,82.5C 234.241,78.0427 228.575,78.7094 223.5,84.5C 227.459,85.3265 231.459,85.8265 235.5,86C 236.328,86.9147 237.328,87.5814 238.5,88C 236.32,88.4188 234.154,88.2521 232,87.5C 227.274,88.7246 227.441,89.5579 232.5,90C 227.504,90.6107 222.504,91.1107 217.5,91.5C 217.988,94.7107 217.321,97.544 215.5,100C 216.328,100.915 217.328,101.581 218.5,102C 217.027,102.71 216.36,103.876 216.5,105.5C 217.833,105.5 219.167,105.5 220.5,105.5C 220.215,103.712 220.548,102.045 221.5,100.5C 222.94,101.952 224.606,102.952 226.5,103.5C 229.028,105.53 231.361,107.697 233.5,110C 231.56,116.778 230.893,123.612 231.5,130.5C 237.605,127.364 243.772,124.364 250,121.5C 256.433,124.966 262.933,128.3 269.5,131.5C 269.083,132.124 268.416,132.457 267.5,132.5C 266.167,131.833 264.833,131.167 263.5,130.5C 255.317,136.368 256.317,140.035 266.5,141.5C 259.261,146.058 252.261,151.058 245.5,156.5C 237.521,157.665 229.521,157.832 221.5,157C 216.856,149.992 210.856,144.992 203.5,142C 200.264,146.648 196.264,150.482 191.5,153.5C 180.941,166.122 173.941,180.622 170.5,197C 169.318,198.735 167.651,199.735 165.5,200C 163.951,201.214 162.785,202.714 162,204.5C 161.667,210.833 161.333,217.167 161,223.5C 157.679,226.082 154.513,228.749 151.5,231.5C 144.363,237.22 138.363,243.887 133.5,251.5C 131.896,252.287 131.229,253.62 131.5,255.5C 130.485,260.779 130.818,266.112 132.5,271.5C 130.824,270.817 130.157,269.483 130.5,267.5C 129.5,267.5 128.5,267.5 127.5,267.5C 127.5,268.833 127.5,270.167 127.5,271.5C 126.5,271.5 125.5,271.5 124.5,271.5C 124.872,268.978 124.039,266.978 122,265.5C 121.241,260.293 121.408,255.126 122.5,250C 121.423,248.457 120.089,248.457 118.5,250C 117.663,251.011 117.33,252.178 117.5,253.5C 113.5,254.167 113.5,254.833 117.5,255.5C 117.383,257.484 118.05,259.15 119.5,260.5C 118.645,261.293 117.811,260.96 117,259.5C 116.833,260.667 116.667,261.833 116.5,263C 117.72,265.767 118.22,268.601 118,271.5C 116.663,273.004 114.996,274.004 113,274.5C 111.812,273.437 111.312,272.103 111.5,270.5C 113.17,270.751 114.67,271.418 116,272.5C 116.167,271.667 116.333,270.833 116.5,270C 114.734,263.246 113.901,256.413 114,249.5C 118.708,244.624 123.541,239.957 128.5,235.5C 121.148,234.259 113.814,232.926 106.5,231.5C 103.333,225.167 100.167,218.833 97,212.5C 93.3582,218.952 89.8582,225.452 86.5,232C 84.5273,232.495 82.5273,232.662 80.5,232.5C 77.5,232.5 74.5,232.5 71.5,232.5C 71.719,231.325 71.3857,230.325 70.5,229.5C 69.1861,230.313 68.0195,231.313 67,232.5C 66.3333,229.167 66.3333,225.833 67,222.5C 67.4505,225.106 68.9505,226.439 71.5,226.5C 73.2796,223.051 72.4463,220.384 69,218.5C 68.8333,217.333 68.6667,216.167 68.5,215C 70.0087,209.611 71.0087,204.111 71.5,198.5C 86.2417,151.585 114.908,115.752 157.5,91C 170.765,83.5308 184.765,78.0308 199.5,74.5 Z"/></g>
<g><path style="opacity:1" fill="#f8fcfd" d="M 254.5,79.5 C 255.754,83.1756 257.421,86.6756 259.5,90C 266.566,91.2702 273.566,92.7702 280.5,94.5C 275.5,99.8333 270.5,105.167 265.5,110.5C 267.156,117.438 268.49,124.438 269.5,131.5C 262.933,128.3 256.433,124.966 250,121.5C 243.772,124.364 237.605,127.364 231.5,130.5C 230.893,123.612 231.56,116.778 233.5,110C 231.361,107.697 229.028,105.53 226.5,103.5C 223.856,100.52 221.189,97.5198 218.5,94.5C 225.365,92.5875 232.365,91.0875 239.5,90C 242.706,83.7536 246.04,77.5869 249.5,71.5C 251.192,74.2308 252.858,76.8975 254.5,79.5 Z"/></g>
<g><path style="opacity:1" fill="#0149ac" d="M 335.5,88.5 C 335.833,88.5 336.167,88.5 336.5,88.5C 335.948,90.3307 335.948,91.9974 336.5,93.5C 337.478,93.0233 338.311,92.3567 339,91.5C 345.739,96.4921 352.572,101.325 359.5,106C 360.793,106.49 362.127,106.657 363.5,106.5C 393.098,128.759 413.765,157.426 425.5,192.5C 427.354,201.842 429.354,211.175 431.5,220.5C 432.183,220.863 432.85,221.196 433.5,221.5C 433.5,221.833 433.5,222.167 433.5,222.5C 433.5,226.167 433.5,229.833 433.5,233.5C 428.518,232.947 423.518,232.613 418.5,232.5C 416.208,232.756 414.041,232.423 412,231.5C 408.922,225.009 405.588,218.675 402,212.5C 398.98,219.217 395.48,225.551 391.5,231.5C 384.481,231.979 377.481,232.646 370.5,233.5C 370.662,235.527 370.495,237.527 370,239.5C 368.984,238.366 368.317,238.699 368,240.5C 367.257,242.441 367.424,244.274 368.5,246C 366.789,247.133 366.289,248.633 367,250.5C 368.351,252.019 369.851,253.352 371.5,254.5C 373.935,251.057 376.935,248.391 380.5,246.5C 379.674,249.243 378.341,251.743 376.5,254C 376.833,254.333 377.167,254.667 377.5,255C 376.257,256.154 375.257,257.488 374.5,259C 373.552,259.483 372.552,259.649 371.5,259.5C 371.046,263.149 370.046,266.649 368.5,270C 369.687,272.59 371.52,273.09 374,271.5C 375.627,266.246 378.294,261.58 382,257.5C 382.814,259.902 382.647,262.235 381.5,264.5C 380.206,268.733 378.206,272.399 375.5,275.5C 372.921,275.917 370.754,275.25 369,273.5C 368.529,275.246 367.862,276.913 367,278.5C 366.617,277.944 366.117,277.611 365.5,277.5C 365.189,276.522 364.522,275.855 363.5,275.5C 362.833,267.5 362.167,259.5 361.5,251.5C 360.142,246.135 358.809,240.802 357.5,235.5C 356.5,235.5 355.5,235.5 354.5,235.5C 354.443,233.116 354.777,230.782 355.5,228.5C 355.167,227.833 354.833,227.167 354.5,226.5C 353.749,227.376 353.249,228.376 353,229.5C 352.333,228.167 351.667,226.833 351,225.5C 350.774,221.174 349.941,217.007 348.5,213C 349.793,212.51 351.127,212.343 352.5,212.5C 351.986,207.777 351.986,203.111 352.5,198.5C 352.215,196.431 351.048,195.098 349,194.5C 348.517,193.552 348.351,192.552 348.5,191.5C 347.5,191.5 346.5,191.5 345.5,191.5C 346.052,195.941 347.719,199.941 350.5,203.5C 348.728,207.43 347.562,207.097 347,202.5C 345.587,200.586 343.753,199.253 341.5,198.5C 340.813,196.726 339.98,195.059 339,193.5C 338.333,194.167 337.667,194.833 337,195.5C 336.667,187.167 336.333,178.833 336,170.5C 334.224,167.444 334.057,164.278 335.5,161C 333.07,158.695 332.07,155.862 332.5,152.5C 331.5,152.5 330.5,152.5 329.5,152.5C 327.335,145.172 323.835,138.506 319,132.5C 315.602,127.715 311.102,125.548 305.5,126C 292.019,130.078 279.019,135.245 266.5,141.5C 256.317,140.035 255.317,136.368 263.5,130.5C 264.833,131.167 266.167,131.833 267.5,132.5C 268.416,132.457 269.083,132.124 269.5,131.5C 268.49,124.438 267.156,117.438 265.5,110.5C 270.5,105.167 275.5,99.8333 280.5,94.5C 273.566,92.7702 266.566,91.2702 259.5,90C 257.421,86.6756 255.754,83.1756 254.5,79.5C 253.357,76.3161 252.691,72.9827 252.5,69.5C 261.533,69.3941 270.533,69.8941 279.5,71C 278.167,71.3333 276.833,71.6667 275.5,72C 275.833,72.3333 276.167,72.6667 276.5,73C 286.306,73.3026 295.973,74.4692 305.5,76.5C 305.5,77.5 305.5,78.5 305.5,79.5C 308.187,79.3359 310.854,79.5026 313.5,80C 314.741,83.3491 316.908,84.1824 320,82.5C 322.431,85.0572 325.097,87.3905 328,89.5C 330.434,88.6777 332.934,88.3444 335.5,88.5 Z"/></g>
<g><path style="opacity:1" fill="#0a4aa5" d="M 235.5,67.5 C 271.019,64.718 304.353,71.718 335.5,88.5C 332.934,88.3444 330.434,88.6777 328,89.5C 325.097,87.3905 322.431,85.0572 320,82.5C 316.908,84.1824 314.741,83.3491 313.5,80C 310.854,79.5026 308.187,79.3359 305.5,79.5C 305.5,78.5 305.5,77.5 305.5,76.5C 295.973,74.4692 286.306,73.3026 276.5,73C 276.167,72.6667 275.833,72.3333 275.5,72C 276.833,71.6667 278.167,71.3333 279.5,71C 270.533,69.8941 261.533,69.3941 252.5,69.5C 252.691,72.9827 253.357,76.3161 254.5,79.5C 252.858,76.8975 251.192,74.2308 249.5,71.5C 246.04,77.5869 242.706,83.7536 239.5,90C 232.365,91.0875 225.365,92.5875 218.5,94.5C 221.189,97.5198 223.856,100.52 226.5,103.5C 224.606,102.952 222.94,101.952 221.5,100.5C 220.548,102.045 220.215,103.712 220.5,105.5C 219.167,105.5 217.833,105.5 216.5,105.5C 216.36,103.876 217.027,102.71 218.5,102C 217.328,101.581 216.328,100.915 215.5,100C 217.321,97.544 217.988,94.7107 217.5,91.5C 222.504,91.1107 227.504,90.6107 232.5,90C 227.441,89.5579 227.274,88.7246 232,87.5C 234.154,88.2521 236.32,88.4188 238.5,88C 237.328,87.5814 236.328,86.9147 235.5,86C 231.459,85.8265 227.459,85.3265 223.5,84.5C 228.575,78.7094 234.241,78.0427 240.5,82.5C 241.95,81.1502 242.617,79.4835 242.5,77.5C 236.575,77.8082 230.741,77.4749 225,76.5C 223,77.1667 221,77.8333 219,78.5C 218.167,77.6667 217.333,76.8333 216.5,76C 210.888,74.8686 205.221,74.3686 199.5,74.5C 206.511,71.9162 213.845,70.2495 221.5,69.5C 226.414,69.6382 231.081,68.9715 235.5,67.5 Z"/></g>
<g><path style="opacity:1" fill="#194e9e" d="M 336.5,88.5 C 346.067,93.7488 355.067,99.7488 363.5,106.5C 362.127,106.657 360.793,106.49 359.5,106C 352.572,101.325 345.739,96.4921 339,91.5C 338.311,92.3567 337.478,93.0233 336.5,93.5C 335.948,91.9974 335.948,90.3307 336.5,88.5 Z"/></g>
<g><path style="opacity:1" fill="#020205" d="M 329.5,152.5 C 331.813,158.215 333.313,164.215 334,170.5C 334.333,181.167 334.667,191.833 335,202.5C 347.18,218.526 355.847,236.193 361,255.5C 362.16,272.205 359.327,288.205 352.5,303.5C 350.749,308.033 348.083,312.033 344.5,315.5C 342.831,314.329 341.331,312.996 340,311.5C 338.715,311.95 337.548,312.617 336.5,313.5C 330.492,320.864 324.492,328.197 318.5,335.5C 312.062,340.093 305.728,344.927 299.5,350C 289.978,354.998 280.311,359.498 270.5,363.5C 247.267,369.346 223.601,371.013 199.5,368.5C 199.351,367.448 199.517,366.448 200,365.5C 203.088,362.919 205.588,359.919 207.5,356.5C 209.173,355.657 210.34,354.324 211,352.5C 213.22,347.676 214.72,342.676 215.5,337.5C 216.479,334.375 216.813,331.042 216.5,327.5C 210.167,327.5 203.833,327.5 197.5,327.5C 181.983,327.443 168.65,322.109 157.5,311.5C 154.389,305.688 151.556,299.688 149,293.5C 141.27,288.091 136.27,280.758 134,271.5C 132.842,266.205 132.009,260.872 131.5,255.5C 131.229,253.62 131.896,252.287 133.5,251.5C 139.333,245.963 145,240.297 150.5,234.5C 151.386,233.675 151.719,232.675 151.5,231.5C 154.513,228.749 157.679,226.082 161,223.5C 161.333,217.167 161.667,210.833 162,204.5C 162.785,202.714 163.951,201.214 165.5,200C 167.651,199.735 169.318,198.735 170.5,197C 173.941,180.622 180.941,166.122 191.5,153.5C 196.264,150.482 200.264,146.648 203.5,142C 210.856,144.992 216.856,149.992 221.5,157C 229.521,157.832 237.521,157.665 245.5,156.5C 252.261,151.058 259.261,146.058 266.5,141.5C 279.019,135.245 292.019,130.078 305.5,126C 311.102,125.548 315.602,127.715 319,132.5C 323.835,138.506 327.335,145.172 329.5,152.5 Z"/></g>
<g><path style="opacity:1" fill="#2051a3" d="M 105.5,128.5 C 101.137,133.858 96.8032,139.191 92.5,144.5C 92.2148,142.712 92.5481,141.045 93.5,139.5C 95.8193,136.38 98.4859,133.547 101.5,131C 99.2304,128.939 98.7304,126.773 100,124.5C 101.451,126.464 103.284,127.797 105.5,128.5 Z"/></g>
<g><path style="opacity:1" fill="#1d4696" d="M 414.5,112.5 C 429.129,129.406 440.462,148.406 448.5,169.5C 446.686,167.236 444.853,164.903 443,162.5C 441.615,163.551 440.615,164.884 440,166.5C 439.585,162.152 439.751,157.819 440.5,153.5C 437.795,153.62 437.128,152.62 438.5,150.5C 437.264,149.643 435.931,148.977 434.5,148.5C 433.865,145.028 432.865,141.695 431.5,138.5C 430.284,139.002 429.117,139.335 428,139.5C 425.904,138.285 426.071,137.451 428.5,137C 428.034,135.701 428.034,134.201 428.5,132.5C 427.167,132.5 425.833,132.5 424.5,132.5C 425.833,126.5 423.5,124.167 417.5,125.5C 417.281,124.325 417.614,123.325 418.5,122.5C 419.687,123.894 420.354,123.727 420.5,122C 419.66,120.829 418.827,119.662 418,118.5C 417.586,118.957 417.086,119.291 416.5,119.5C 414.299,117.944 414.299,116.777 416.5,116C 415.177,115.184 414.511,114.017 414.5,112.5 Z"/></g>
<g><path style="opacity:1" fill="#1c4697" d="M 70.5,131.5 C 70.7989,133.604 70.4656,135.604 69.5,137.5C 67.6441,138.276 66.3107,139.609 65.5,141.5C 64.6248,145.334 63.2915,149.001 61.5,152.5C 63.2129,155.482 63.8796,158.482 63.5,161.5C 63.1667,162.167 62.8333,162.833 62.5,163.5C 61.6816,160.893 61.1816,158.226 61,155.5C 59.8118,156.563 59.3118,157.897 59.5,159.5C 58.5,159.5 57.5,159.5 56.5,159.5C 56.3739,161.2 55.7073,162.7 54.5,164C 54.8333,165 55.1667,166 55.5,167C 54.5765,168.811 53.7431,168.645 53,166.5C 51.194,172.282 48.694,177.616 45.5,182.5C 50.9404,163.954 59.2738,146.954 70.5,131.5 Z"/></g>
<g><path style="opacity:1" fill="#29407a" d="M 448.5,169.5 C 456.28,187.286 460.947,205.953 462.5,225.5C 459.679,215.575 457.512,205.242 456,194.5C 453.348,186.228 450.848,177.895 448.5,169.5 Z"/></g>
<g><path style="opacity:1" fill="#9d9cab" d="M 254.5,189.5 C 272.964,195.781 288.297,206.614 300.5,222C 288.576,216.889 276.243,212.556 263.5,209C 253.371,207.324 243.371,207.157 233.5,208.5C 225.43,209.285 218.597,212.618 213,218.5C 212.369,214.054 213.203,209.887 215.5,206C 209.475,209.358 204.642,214.191 201,220.5C 198.249,225.337 199.416,228.837 204.5,231C 198.368,235.45 194.368,241.283 192.5,248.5C 188.161,255.174 181.828,258.508 173.5,258.5C 164.746,252.172 155.246,250.839 145,254.5C 144.833,254.167 144.667,253.833 144.5,253.5C 154.006,244.652 164.34,236.986 175.5,230.5C 179.601,230.798 182.267,229.132 183.5,225.5C 185.679,225.16 187.512,224.16 189,222.5C 189.112,218.494 190.278,214.827 192.5,211.5C 192.333,211.167 192.167,210.833 192,210.5C 190.729,211.883 189.229,212.883 187.5,213.5C 188.274,210.619 189.607,207.952 191.5,205.5C 196.974,200.665 202.64,196.331 208.5,192.5C 209.5,192.167 210.167,191.5 210.5,190.5C 211.376,190.631 212.043,190.298 212.5,189.5C 211.653,188.155 210.487,187.155 209,186.5C 208.333,185.833 208.333,185.167 209,184.5C 214.723,178.722 221.556,175.222 229.5,174C 228.207,173.51 226.873,173.343 225.5,173.5C 227.693,172.203 230.027,172.203 232.5,173.5C 230.366,179.377 230.033,185.377 231.5,191.5C 248.856,178.486 267.189,166.986 286.5,157C 290.401,155.033 294.401,153.7 298.5,153C 280.626,161.38 265.96,173.547 254.5,189.5 Z"/></g>
<g><path style="opacity:1" fill="#d0cee1" d="M 225.5,173.5 C 226.873,173.343 228.207,173.51 229.5,174C 221.556,175.222 214.723,178.722 209,184.5C 208.333,185.167 208.333,185.833 209,186.5C 210.487,187.155 211.653,188.155 212.5,189.5C 212.043,190.298 211.376,190.631 210.5,190.5C 203.468,190.83 196.468,190.497 189.5,189.5C 200.006,180.916 212.006,175.583 225.5,173.5 Z"/></g>
<g><path style="opacity:1" fill="#0547a2" d="M 329.5,152.5 C 330.5,152.5 331.5,152.5 332.5,152.5C 332.07,155.862 333.07,158.695 335.5,161C 334.057,164.278 334.224,167.444 336,170.5C 336.333,178.833 336.667,187.167 337,195.5C 337.667,194.833 338.333,194.167 339,193.5C 339.98,195.059 340.813,196.726 341.5,198.5C 343.753,199.253 345.587,200.586 347,202.5C 347.562,207.097 348.728,207.43 350.5,203.5C 347.719,199.941 346.052,195.941 345.5,191.5C 346.5,191.5 347.5,191.5 348.5,191.5C 348.351,192.552 348.517,193.552 349,194.5C 351.048,195.098 352.215,196.431 352.5,198.5C 351.986,203.111 351.986,207.777 352.5,212.5C 351.127,212.343 349.793,212.51 348.5,213C 349.941,217.007 350.774,221.174 351,225.5C 351.667,226.833 352.333,228.167 353,229.5C 353.249,228.376 353.749,227.376 354.5,226.5C 354.833,227.167 355.167,227.833 355.5,228.5C 354.777,230.782 354.443,233.116 354.5,235.5C 355.5,235.5 356.5,235.5 357.5,235.5C 358.809,240.802 360.142,246.135 361.5,251.5C 362.167,259.5 362.833,267.5 363.5,275.5C 364.522,275.855 365.189,276.522 365.5,277.5C 366.697,284.333 365.697,291 362.5,297.5C 362.166,295.835 362.166,294.001 362.5,292C 362,291.5 361.5,291 361,290.5C 359.872,292.345 359.372,294.345 359.5,296.5C 358.5,296.5 357.5,296.5 356.5,296.5C 356.784,299.857 355.451,302.191 352.5,303.5C 359.327,288.205 362.16,272.205 361,255.5C 355.847,236.193 347.18,218.526 335,202.5C 334.667,191.833 334.333,181.167 334,170.5C 333.313,164.215 331.813,158.215 329.5,152.5 Z"/></g>
<g><path style="opacity:1" fill="#cfcee1" d="M 208.5,192.5 C 202.64,196.331 196.974,200.665 191.5,205.5C 189.607,207.952 188.274,210.619 187.5,213.5C 186.998,215.085 185.998,215.585 184.5,215C 182.612,213.05 181.446,210.883 181,208.5C 188.298,199.935 197.465,194.602 208.5,192.5 Z"/></g>
<g><path style="opacity:1" fill="#2252a0" d="M 425.5,192.5 C 427.804,197.575 429.637,202.909 431,208.5C 431.996,212.816 432.83,217.149 433.5,221.5C 432.85,221.196 432.183,220.863 431.5,220.5C 429.354,211.175 427.354,201.842 425.5,192.5 Z"/></g>
<g><path style="opacity:1" fill="#58585f" d="M 254.5,189.5 C 281.975,185.4 301.642,195.734 313.5,220.5C 314.465,214.856 315.298,209.189 316,203.5C 336.294,221.747 345.128,244.414 342.5,271.5C 336.88,262.716 329.88,255.549 321.5,250C 325.25,255.915 327.416,262.415 328,269.5C 328.92,279.242 328.587,288.908 327,298.5C 324.829,294.156 322.163,290.156 319,286.5C 319.799,296.636 317.466,305.969 312,314.5C 300.999,326.5 288.499,336.666 274.5,345C 273.668,345.688 273.002,345.521 272.5,344.5C 276.122,337.795 278.622,330.795 280,323.5C 279.617,324.056 279.117,324.389 278.5,324.5C 278.083,323.876 277.416,323.543 276.5,323.5C 266.718,326.779 256.718,329.112 246.5,330.5C 241.687,336.481 236.687,342.314 231.5,348C 231.728,348.399 232.062,348.565 232.5,348.5C 231.528,349.751 230.861,349.418 230.5,347.5C 232.259,339.944 232.925,332.277 232.5,324.5C 259.269,320.911 283.603,311.245 305.5,295.5C 307.604,286.614 306.27,278.281 301.5,270.5C 305.6,269.849 309.6,270.515 313.5,272.5C 313.833,272 314.167,271.5 314.5,271C 308.298,248.463 293.965,234.463 271.5,229C 278.691,233.358 284.358,239.191 288.5,246.5C 288,246.833 287.5,247.167 287,247.5C 279.712,244.709 272.212,243.209 264.5,243C 278.627,253.756 285.96,267.923 286.5,285.5C 258.943,305.223 228.277,313.056 194.5,309C 196.037,310.11 196.703,311.61 196.5,313.5C 182.814,313.656 172.814,307.656 166.5,295.5C 172.862,294.679 179.195,293.679 185.5,292.5C 186.167,292.833 186.833,293.167 187.5,293.5C 186.833,294.5 186.167,295.5 185.5,296.5C 185.833,296.833 186.167,297.167 186.5,297.5C 202.653,294.258 218.986,292.425 235.5,292C 245.608,287.223 254.608,280.889 262.5,273C 265.343,273.115 267.843,274.282 270,276.5C 266.763,268.581 261.263,262.414 253.5,258C 242.875,252.178 231.542,249.178 219.5,249C 208.807,259.028 198.14,269.028 187.5,279C 180.821,282.241 174.155,282.241 167.5,279C 163.866,276.435 163.033,273.268 165,269.5C 167.371,266.794 170.037,264.461 173,262.5C 173.49,261.207 173.657,259.873 173.5,258.5C 181.828,258.508 188.161,255.174 192.5,248.5C 192.435,248.938 192.601,249.272 193,249.5C 202.296,244.436 211.796,239.769 221.5,235.5C 227.183,233.495 232.849,231.495 238.5,229.5C 238.735,230.097 239.235,230.43 240,230.5C 243.803,229.539 247.636,228.706 251.5,228C 257.81,226.854 258.143,224.52 252.5,221C 250.079,218.906 247.412,217.24 244.5,216C 247.5,215.667 250.5,215.333 253.5,215C 247.677,210.337 241.01,208.17 233.5,208.5C 243.371,207.157 253.371,207.324 263.5,209C 276.243,212.556 288.576,216.889 300.5,222C 288.297,206.614 272.964,195.781 254.5,189.5 Z"/></g>
<g><path style="opacity:1" fill="#050305" d="M 233.5,208.5 C 241.01,208.17 247.677,210.337 253.5,215C 250.5,215.333 247.5,215.667 244.5,216C 247.412,217.24 250.079,218.906 252.5,221C 258.143,224.52 257.81,226.854 251.5,228C 247.636,228.706 243.803,229.539 240,230.5C 239.235,230.43 238.735,230.097 238.5,229.5C 241.573,228.267 241.906,226.767 239.5,225C 230.36,221.601 222.693,223.601 216.5,231C 217.761,232.962 219.428,234.462 221.5,235.5C 211.796,239.769 202.296,244.436 193,249.5C 192.601,249.272 192.435,248.938 192.5,248.5C 194.368,241.283 198.368,235.45 204.5,231C 199.416,228.837 198.249,225.337 201,220.5C 204.642,214.191 209.475,209.358 215.5,206C 213.203,209.887 212.369,214.054 213,218.5C 218.597,212.618 225.43,209.285 233.5,208.5 Z"/></g>
<g><path style="opacity:1" fill="#334175" d="M 38.5,211.5 C 38.8023,215.79 38.1357,219.79 36.5,223.5C 36.5387,219.267 37.2053,215.267 38.5,211.5 Z"/></g>
<g><path style="opacity:1" fill="#f9fcfd" d="M 111.5,270.5 C 106.793,267.727 101.96,265.061 97,262.5C 90.6824,265.826 84.3491,269.159 78,272.5C 78.6667,265.167 79.3333,257.833 80,250.5C 77.2972,247.629 74.4639,244.962 71.5,242.5C 69.5227,240.186 67.5227,237.853 65.5,235.5C 70.591,234.279 75.591,233.279 80.5,232.5C 82.5273,232.662 84.5273,232.495 86.5,232C 89.8582,225.452 93.3582,218.952 97,212.5C 100.167,218.833 103.333,225.167 106.5,231.5C 113.814,232.926 121.148,234.259 128.5,235.5C 123.541,239.957 118.708,244.624 114,249.5C 113.901,256.413 114.734,263.246 116.5,270C 116.333,270.833 116.167,271.667 116,272.5C 114.67,271.418 113.17,270.751 111.5,270.5 Z"/></g>
<g><path style="opacity:1" fill="#f9fdfd" d="M 418.5,232.5 C 423.77,233.268 428.77,234.601 433.5,236.5C 428.535,240.963 423.702,245.63 419,250.5C 419.883,257.804 420.55,265.137 421,272.5C 414.754,269.294 408.587,265.96 402.5,262.5C 395.922,265.706 389.422,269.039 383,272.5C 383.991,264.878 384.658,257.212 385,249.5C 379.855,244.867 375.355,239.867 371.5,234.5C 378.38,234.042 385.047,233.042 391.5,231.5C 395.48,225.551 398.98,219.217 402,212.5C 405.588,218.675 408.922,225.009 412,231.5C 414.041,232.423 416.208,232.756 418.5,232.5 Z"/></g>
<g><path style="opacity:1" fill="#ecaf3a" d="M 182.5,223.5 C 181.734,227.085 179.401,229.085 175.5,229.5C 175.5,225.5 175.5,221.5 175.5,217.5C 179.055,218.054 181.388,220.054 182.5,223.5 Z"/></g>
<g><path style="opacity:1" fill="#a79271" d="M 182.5,223.5 C 183.338,223.842 183.672,224.508 183.5,225.5C 182.267,229.132 179.601,230.798 175.5,230.5C 175.5,230.167 175.5,229.833 175.5,229.5C 179.401,229.085 181.734,227.085 182.5,223.5 Z"/></g>
<g><path style="opacity:1" fill="#eeaf36" d="M 238.5,229.5 C 232.849,231.495 227.183,233.495 221.5,235.5C 219.428,234.462 217.761,232.962 216.5,231C 222.693,223.601 230.36,221.601 239.5,225C 241.906,226.767 241.573,228.267 238.5,229.5 Z"/></g>
<g><path style="opacity:1" fill="#134da5" d="M 430.5,191.5 C 432.416,193.669 433.75,196.335 434.5,199.5C 436.167,200.5 437.5,201.833 438.5,203.5C 438.674,208.151 439.007,212.817 439.5,217.5C 443.149,218.539 444.316,220.872 443,224.5C 441.108,225.617 440.275,227.284 440.5,229.5C 441.5,229.5 442.5,229.5 443.5,229.5C 443.403,234.03 443.736,238.53 444.5,243C 441.26,250.509 440.593,258.342 442.5,266.5C 441.061,278.09 439.061,289.59 436.5,301C 438.227,305.613 439.227,310.446 439.5,315.5C 438.5,315.5 437.5,315.5 436.5,315.5C 436.628,313.345 436.128,311.345 435,309.5C 431.481,313.599 430.314,318.265 431.5,323.5C 429.681,324.32 428.014,325.32 426.5,326.5C 443.54,281.95 444.874,236.95 430.5,191.5 Z"/></g>
<g><path style="opacity:1" fill="#2d4279" d="M 36.5,224.5 C 36.2759,243.516 36.6092,262.516 37.5,281.5C 34.0017,262.55 33.6683,243.55 36.5,224.5 Z"/></g>
<g><path style="opacity:1" fill="#273f7b" d="M 462.5,225.5 C 465.167,241.5 465.167,257.5 462.5,273.5C 462.5,257.5 462.5,241.5 462.5,225.5 Z"/></g>
<g><path style="opacity:1" fill="#060d27" d="M 151.5,231.5 C 151.719,232.675 151.386,233.675 150.5,234.5C 145,240.297 139.333,245.963 133.5,251.5C 138.363,243.887 144.363,237.22 151.5,231.5 Z"/></g>
<g><path style="opacity:1" fill="#2e579f" d="M 433.5,222.5 C 436.315,235.894 437.148,249.561 436,263.5C 435.617,270.86 434.95,278.193 434,285.5C 433.431,289.795 432.264,293.795 430.5,297.5C 434.454,277.177 435.454,256.843 433.5,236.5C 428.77,234.601 423.77,233.268 418.5,232.5C 423.518,232.613 428.518,232.947 433.5,233.5C 433.5,229.833 433.5,226.167 433.5,222.5 Z"/></g>
<g><path style="opacity:1" fill="#e4e4e3" d="M 150.5,255.5 C 154.22,255.564 157.886,256.064 161.5,257C 162.833,258 162.833,259 161.5,260C 156.5,260.667 151.5,260.667 146.5,260C 145.549,259.282 145.383,258.449 146,257.5C 147.622,256.901 149.122,256.234 150.5,255.5 Z"/></g>
<g><path style="opacity:1" fill="#114ba3" d="M 71.5,198.5 C 71.0087,204.111 70.0087,209.611 68.5,215C 68.6667,216.167 68.8333,217.333 69,218.5C 72.4463,220.384 73.2796,223.051 71.5,226.5C 68.9505,226.439 67.4505,225.106 67,222.5C 66.3333,225.833 66.3333,229.167 67,232.5C 68.0195,231.313 69.1861,230.313 70.5,229.5C 71.3857,230.325 71.719,231.325 71.5,232.5C 74.5,232.5 77.5,232.5 80.5,232.5C 75.591,233.279 70.591,234.279 65.5,235.5C 67.5227,237.853 69.5227,240.186 71.5,242.5C 68.9438,241.457 66.7772,239.79 65,237.5C 64.3333,242.5 64.3333,247.5 65,252.5C 66.9776,251.184 68.4776,251.684 69.5,254C 68.1955,254.804 67.5288,255.971 67.5,257.5C 69.5887,262.035 69.922,266.702 68.5,271.5C 67.0137,267.984 65.8471,264.318 65,260.5C 65.1658,269.836 65.6658,279.17 66.5,288.5C 67.675,288.281 68.675,288.614 69.5,289.5C 68.6072,292.084 68.2739,294.751 68.5,297.5C 59.8518,264.179 60.8518,231.179 71.5,198.5 Z"/></g>
<g><path style="opacity:1" fill="#f2f2f2" d="M 222.5,259.5 C 231.612,259.222 240.278,261.056 248.5,265C 250.255,265.72 251.089,266.887 251,268.5C 237.707,283.274 221.207,288.607 201.5,284.5C 206.702,274.633 213.702,266.3 222.5,259.5 Z"/></g>
<g><path style="opacity:1" fill="#101010" d="M 233.5,263.5 C 236.135,265.429 236.968,268.095 236,271.5C 235.333,270.833 234.667,270.167 234,269.5C 230.297,272.867 226.964,276.534 224,280.5C 223.624,277.99 222.79,275.657 221.5,273.5C 219.517,275.984 217.35,278.317 215,280.5C 215.113,275.105 217.28,270.605 221.5,267C 222.167,266.333 222.833,266.333 223.5,267C 224.071,268.205 224.738,269.372 225.5,270.5C 228.212,268.115 230.878,265.782 233.5,263.5 Z"/></g>
<g><path style="opacity:1" fill="#0149ac" d="M 71.5,242.5 C 74.4639,244.962 77.2972,247.629 80,250.5C 79.3333,257.833 78.6667,265.167 78,272.5C 84.3491,269.159 90.6824,265.826 97,262.5C 101.96,265.061 106.793,267.727 111.5,270.5C 111.312,272.103 111.812,273.437 113,274.5C 114.996,274.004 116.663,273.004 118,271.5C 118.22,268.601 117.72,265.767 116.5,263C 116.667,261.833 116.833,260.667 117,259.5C 117.811,260.96 118.645,261.293 119.5,260.5C 118.05,259.15 117.383,257.484 117.5,255.5C 113.5,254.833 113.5,254.167 117.5,253.5C 117.33,252.178 117.663,251.011 118.5,250C 120.089,248.457 121.423,248.457 122.5,250C 121.408,255.126 121.241,260.293 122,265.5C 124.039,266.978 124.872,268.978 124.5,271.5C 125.5,271.5 126.5,271.5 127.5,271.5C 127.5,270.167 127.5,268.833 127.5,267.5C 128.5,267.5 129.5,267.5 130.5,267.5C 130.157,269.483 130.824,270.817 132.5,271.5C 132.353,275.113 131.686,278.28 130.5,281C 131.047,281.925 131.713,282.758 132.5,283.5C 135.369,278.294 136.703,278.96 136.5,285.5C 139.205,285.38 139.872,286.38 138.5,288.5C 138.977,289.478 139.643,290.311 140.5,291C 142.888,291.303 145.055,292.137 147,293.5C 149.132,298.204 151.465,302.87 154,307.5C 154.333,309.167 154.667,310.833 155,312.5C 155.671,311.748 156.504,311.414 157.5,311.5C 159.3,313.828 160.467,316.495 161,319.5C 162.545,318.179 163.711,318.512 164.5,320.5C 159.397,321.738 159.23,323.071 164,324.5C 165.551,323.946 167.051,323.28 168.5,322.5C 169.167,322.833 169.833,323.167 170.5,323.5C 169.675,324.386 168.675,324.719 167.5,324.5C 167.5,325.5 167.5,326.5 167.5,327.5C 171.277,328.979 175.277,329.812 179.5,330C 175.252,330.969 174.919,331.802 178.5,332.5C 183.427,330.93 188.427,329.597 193.5,328.5C 198.8,329.344 204.134,329.677 209.5,329.5C 209.335,332.85 209.502,336.183 210,339.5C 211.698,340.529 212.532,342.029 212.5,344C 211.211,348.326 209.545,352.493 207.5,356.5C 205.588,359.919 203.088,362.919 200,365.5C 199.517,366.448 199.351,367.448 199.5,368.5C 199.611,369.117 199.944,369.617 200.5,370C 213.5,370.333 226.5,370.667 239.5,371C 241.515,372.555 241.848,374.389 240.5,376.5C 233.395,376.698 227.062,376.365 221.5,375.5C 218.046,377.104 215.046,377.771 212.5,377.5C 214.535,379.013 216.869,379.679 219.5,379.5C 224.79,378.541 229.623,378.207 234,378.5C 237.76,378.939 241.26,380.106 244.5,382C 242.875,384.11 241.542,386.443 240.5,389C 236.781,389.388 233.114,390.055 229.5,391C 230.646,391.645 231.646,392.478 232.5,393.5C 232.833,392.833 233.167,392.167 233.5,391.5C 235.759,391.784 237.426,392.784 238.5,394.5C 231.88,395.502 225.213,396.836 218.5,398.5C 222.522,402.854 226.522,407.187 230.5,411.5C 231.052,416.096 230.885,420.763 230,425.5C 228.617,422.924 227.783,423.258 227.5,426.5C 228,429.5 228.5,432.5 229,435.5C 231.022,436.991 232.688,436.658 234,434.5C 235.113,435.76 235.28,436.927 234.5,438C 235.448,438.483 236.448,438.649 237.5,438.5C 237.083,439.124 236.416,439.457 235.5,439.5C 226.529,437.473 217.529,435.639 208.5,434C 210.405,433.174 210.739,432.007 209.5,430.5C 207.293,432.029 204.793,432.695 202,432.5C 198.335,432.519 194.835,431.852 191.5,430.5C 190.694,426.178 188.194,424.845 184,426.5C 181.696,426.682 181.196,426.016 182.5,424.5C 181.833,424.167 181.167,423.833 180.5,423.5C 177.535,424.412 174.535,424.412 171.5,423.5C 129.515,403.681 98.6816,372.681 79,330.5C 74.3892,319.835 70.8892,308.835 68.5,297.5C 68.2739,294.751 68.6072,292.084 69.5,289.5C 68.675,288.614 67.675,288.281 66.5,288.5C 65.6658,279.17 65.1658,269.836 65,260.5C 65.8471,264.318 67.0137,267.984 68.5,271.5C 69.922,266.702 69.5887,262.035 67.5,257.5C 67.5288,255.971 68.1955,254.804 69.5,254C 68.4776,251.684 66.9776,251.184 65,252.5C 64.3333,247.5 64.3333,242.5 65,237.5C 66.7772,239.79 68.9438,241.457 71.5,242.5 Z"/></g>
<g><path style="opacity:1" fill="#56555b" d="M 142.5,263.5 C 151.412,264.564 155.745,269.397 155.5,278C 154.5,278.667 153.5,278.667 152.5,278C 149.114,275.737 146.281,272.903 144,269.5C 142.872,267.655 142.372,265.655 142.5,263.5 Z"/></g>
<g><path style="opacity:1" fill="#164ea1" d="M 60.5,223.5 C 57.7143,245.215 58.0477,266.882 61.5,288.5C 60.8826,288.389 60.3826,288.056 60,287.5C 59.2514,282.511 58.5847,277.511 58,272.5C 57.6608,275.036 57.1608,277.536 56.5,280C 57.4589,282.12 57.6256,284.287 57,286.5C 56.6667,286.167 56.3333,285.833 56,285.5C 55.75,270.495 56.0834,255.495 57,240.5C 57.9368,234.728 59.1035,229.061 60.5,223.5 Z"/></g>
<g><path style="opacity:1" fill="#0249ab" d="M 391.5,231.5 C 385.047,233.042 378.38,234.042 371.5,234.5C 375.355,239.867 379.855,244.867 385,249.5C 384.658,257.212 383.991,264.878 383,272.5C 389.422,269.039 395.922,265.706 402.5,262.5C 408.587,265.96 414.754,269.294 421,272.5C 420.55,265.137 419.883,257.804 419,250.5C 423.702,245.63 428.535,240.963 433.5,236.5C 435.454,256.843 434.454,277.177 430.5,297.5C 417.938,350.049 388.271,389.716 341.5,416.5C 340.167,416.5 338.833,416.5 337.5,416.5C 337.719,415.325 337.386,414.325 336.5,413.5C 335.795,415.672 334.795,417.672 333.5,419.5C 328.555,421.075 323.889,423.242 319.5,426C 315.256,426.429 311.256,427.596 307.5,429.5C 305.816,430.15 304.483,431.15 303.5,432.5C 291.19,436.574 278.523,438.907 265.5,439.5C 256.167,439.167 246.833,438.833 237.5,438.5C 236.448,438.649 235.448,438.483 234.5,438C 235.28,436.927 235.113,435.76 234,434.5C 232.688,436.658 231.022,436.991 229,435.5C 228.5,432.5 228,429.5 227.5,426.5C 227.783,423.258 228.617,422.924 230,425.5C 230.885,420.763 231.052,416.096 230.5,411.5C 231.812,412.145 232.812,413.145 233.5,414.5C 231.508,421.093 230.842,427.76 231.5,434.5C 237.605,431.364 243.772,428.364 250,425.5C 255.739,428.62 261.573,431.62 267.5,434.5C 268.158,427.76 267.492,421.093 265.5,414.5C 270.5,409.167 275.5,403.833 280.5,398.5C 273.5,397 266.5,395.5 259.5,394C 256.294,387.754 252.96,381.587 249.5,375.5C 246.028,382.132 242.362,388.465 238.5,394.5C 237.426,392.784 235.759,391.784 233.5,391.5C 233.167,392.167 232.833,392.833 232.5,393.5C 231.646,392.478 230.646,391.645 229.5,391C 233.114,390.055 236.781,389.388 240.5,389C 241.542,386.443 242.875,384.11 244.5,382C 241.26,380.106 237.76,378.939 234,378.5C 229.623,378.207 224.79,378.541 219.5,379.5C 216.869,379.679 214.535,379.013 212.5,377.5C 215.046,377.771 218.046,377.104 221.5,375.5C 227.062,376.365 233.395,376.698 240.5,376.5C 241.848,374.389 241.515,372.555 239.5,371C 226.5,370.667 213.5,370.333 200.5,370C 199.944,369.617 199.611,369.117 199.5,368.5C 223.601,371.013 247.267,369.346 270.5,363.5C 274.674,362.058 279.008,360.891 283.5,360C 286.795,358.772 289.795,357.105 292.5,355C 294.433,354.217 295.933,354.717 297,356.5C 297.998,354.227 299.498,352.06 301.5,350C 305.783,347.385 309.783,344.385 313.5,341C 314.167,340.833 314.833,340.667 315.5,340.5C 317.036,341.249 318.369,342.249 319.5,343.5C 319.833,343 320.167,342.5 320.5,342C 318.997,340.079 318.331,337.912 318.5,335.5C 324.492,328.197 330.492,320.864 336.5,313.5C 337.548,312.617 338.715,311.95 340,311.5C 341.331,312.996 342.831,314.329 344.5,315.5C 348.083,312.033 350.749,308.033 352.5,303.5C 355.451,302.191 356.784,299.857 356.5,296.5C 357.5,296.5 358.5,296.5 359.5,296.5C 359.372,294.345 359.872,292.345 361,290.5C 361.5,291 362,291.5 362.5,292C 362.166,294.001 362.166,295.835 362.5,297.5C 365.697,291 366.697,284.333 365.5,277.5C 366.117,277.611 366.617,277.944 367,278.5C 367.862,276.913 368.529,275.246 369,273.5C 370.754,275.25 372.921,275.917 375.5,275.5C 378.206,272.399 380.206,268.733 381.5,264.5C 382.647,262.235 382.814,259.902 382,257.5C 378.294,261.58 375.627,266.246 374,271.5C 371.52,273.09 369.687,272.59 368.5,270C 370.046,266.649 371.046,263.149 371.5,259.5C 372.552,259.649 373.552,259.483 374.5,259C 375.257,257.488 376.257,256.154 377.5,255C 377.167,254.667 376.833,254.333 376.5,254C 378.341,251.743 379.674,249.243 380.5,246.5C 376.935,248.391 373.935,251.057 371.5,254.5C 369.851,253.352 368.351,252.019 367,250.5C 366.289,248.633 366.789,247.133 368.5,246C 367.424,244.274 367.257,242.441 368,240.5C 368.317,238.699 368.984,238.366 370,239.5C 370.495,237.527 370.662,235.527 370.5,233.5C 377.481,232.646 384.481,231.979 391.5,231.5 Z"/></g>
<g><path style="opacity:1" fill="#34416c" d="M 38.5,287.5 C 40.2462,291.889 41.2462,296.556 41.5,301.5C 39.7538,297.111 38.7538,292.444 38.5,287.5 Z"/></g>
<g><path style="opacity:1" fill="#264289" d="M 460.5,287.5 C 459.218,298.297 456.552,308.63 452.5,318.5C 453.555,312.458 454.888,306.458 456.5,300.5C 456.247,298.142 455.914,295.808 455.5,293.5C 456.675,293.719 457.675,293.386 458.5,292.5C 459.028,290.664 459.694,288.997 460.5,287.5 Z"/></g>
<g><path style="opacity:1" fill="#0a4293" d="M 131.5,255.5 C 132.009,260.872 132.842,266.205 134,271.5C 136.27,280.758 141.27,288.091 149,293.5C 151.556,299.688 154.389,305.688 157.5,311.5C 156.504,311.414 155.671,311.748 155,312.5C 154.667,310.833 154.333,309.167 154,307.5C 151.465,302.87 149.132,298.204 147,293.5C 145.055,292.137 142.888,291.303 140.5,291C 139.643,290.311 138.977,289.478 138.5,288.5C 139.872,286.38 139.205,285.38 136.5,285.5C 136.703,278.96 135.369,278.294 132.5,283.5C 131.713,282.758 131.047,281.925 130.5,281C 131.686,278.28 132.353,275.113 132.5,271.5C 130.818,266.112 130.485,260.779 131.5,255.5 Z"/></g>
<g><path style="opacity:1" fill="#9c9caa" d="M 278.5,324.5 C 264.621,335.108 249.287,343.108 232.5,348.5C 232.062,348.565 231.728,348.399 231.5,348C 236.687,342.314 241.687,336.481 246.5,330.5C 256.718,329.112 266.718,326.779 276.5,323.5C 277.416,323.543 278.083,323.876 278.5,324.5 Z"/></g>
<g><path style="opacity:1" fill="#03214c" d="M 197.5,327.5 C 203.833,327.5 210.167,327.5 216.5,327.5C 216.813,331.042 216.479,334.375 215.5,337.5C 215.5,334.5 215.5,331.5 215.5,328.5C 209.31,328.823 203.31,328.49 197.5,327.5 Z"/></g>
<g><path style="opacity:1" fill="#08479d" d="M 157.5,311.5 C 168.65,322.109 181.983,327.443 197.5,327.5C 203.31,328.49 209.31,328.823 215.5,328.5C 215.5,331.5 215.5,334.5 215.5,337.5C 214.72,342.676 213.22,347.676 211,352.5C 210.34,354.324 209.173,355.657 207.5,356.5C 209.545,352.493 211.211,348.326 212.5,344C 212.532,342.029 211.698,340.529 210,339.5C 209.502,336.183 209.335,332.85 209.5,329.5C 204.134,329.677 198.8,329.344 193.5,328.5C 188.427,329.597 183.427,330.93 178.5,332.5C 174.919,331.802 175.252,330.969 179.5,330C 175.277,329.812 171.277,328.979 167.5,327.5C 167.5,326.5 167.5,325.5 167.5,324.5C 168.675,324.719 169.675,324.386 170.5,323.5C 169.833,323.167 169.167,322.833 168.5,322.5C 167.051,323.28 165.551,323.946 164,324.5C 159.23,323.071 159.397,321.738 164.5,320.5C 163.711,318.512 162.545,318.179 161,319.5C 160.467,316.495 159.3,313.828 157.5,311.5 Z"/></g>
<g><path style="opacity:1" fill="#083f8d" d="M 318.5,335.5 C 318.331,337.912 318.997,340.079 320.5,342C 320.167,342.5 319.833,343 319.5,343.5C 318.369,342.249 317.036,341.249 315.5,340.5C 314.833,340.667 314.167,340.833 313.5,341C 309.783,344.385 305.783,347.385 301.5,350C 299.498,352.06 297.998,354.227 297,356.5C 295.933,354.717 294.433,354.217 292.5,355C 289.795,357.105 286.795,358.772 283.5,360C 279.008,360.891 274.674,362.058 270.5,363.5C 280.311,359.498 289.978,354.998 299.5,350C 305.728,344.927 312.062,340.093 318.5,335.5 Z"/></g>
<g><path style="opacity:1" fill="#1c4697" d="M 448.5,329.5 C 444.535,340.097 439.535,350.097 433.5,359.5C 433.244,357.208 433.577,355.041 434.5,353C 431.289,348.318 432.623,345.485 438.5,344.5C 439.681,342.865 439.681,341.198 438.5,339.5C 439.391,338.41 440.391,338.41 441.5,339.5C 443.487,335.722 445.821,332.388 448.5,329.5 Z"/></g>
<g><path style="opacity:1" fill="#264287" d="M 46.5,318.5 C 49.6263,322.982 51.6263,327.982 52.5,333.5C 54.1238,333.36 55.2904,334.027 56,335.5C 56.3069,339.047 57.1403,342.38 58.5,345.5C 59.5,345.5 60.5,345.5 61.5,345.5C 61.5079,348.545 61.8413,351.545 62.5,354.5C 55.5514,343.265 50.218,331.265 46.5,318.5 Z"/></g>
<g><path style="opacity:1" fill="#0e4aa7" d="M 67.5,312.5 C 77.309,341.793 92.9757,367.459 114.5,389.5C 110.551,388.775 107.051,387.109 104,384.5C 103.667,385.167 103.333,385.833 103,386.5C 101.116,383.556 99.6163,380.556 98.5,377.5C 96.8333,377.5 95.1667,377.5 93.5,377.5C 93.578,374.748 93.7446,372.082 94,369.5C 91.3012,369.336 88.4679,369.17 85.5,369C 82.2126,366.225 79.5459,363.058 77.5,359.5C 76.9611,362.202 75.6277,364.369 73.5,366C 74.7989,367.326 76.1322,368.66 77.5,370C 76.376,370.249 75.376,370.749 74.5,371.5C 76.3381,372.189 78.0048,372.522 79.5,372.5C 78.8333,373.167 78.1667,373.833 77.5,374.5C 78.3094,376.071 78.6427,377.738 78.5,379.5C 72.3852,371.708 67.0519,363.375 62.5,354.5C 61.8413,351.545 61.5079,348.545 61.5,345.5C 62.1174,345.611 62.6174,345.944 63,346.5C 63.2492,345.376 63.7492,344.376 64.5,343.5C 64.1763,347.514 65.5097,351.181 68.5,354.5C 68.6118,351.745 69.1118,349.078 70,346.5C 70.9866,349.134 72.4866,351.468 74.5,353.5C 75.891,354.645 77.2243,354.645 78.5,353.5C 76.3803,349.908 74.547,346.241 73,342.5C 72,341.5 71,340.5 70,339.5C 69.8184,336.774 69.3184,334.107 68.5,331.5C 67.1153,327.622 65.9486,327.622 65,331.5C 64.6667,331.167 64.3333,330.833 64,330.5C 63.5825,328.212 64.2491,326.212 66,324.5C 66.4828,325.448 66.6495,326.448 66.5,327.5C 67.8333,327.5 69.1667,327.5 70.5,327.5C 69.093,322.604 68.093,317.604 67.5,312.5 Z"/></g>
<g><path style="opacity:1" fill="#1648a0" d="M 433.5,359.5 C 407.801,402.529 371.468,432.863 324.5,450.5C 323.766,449.292 323.433,447.959 323.5,446.5C 327.169,447.303 329.836,446.136 331.5,443C 334.833,442.667 338.167,442.333 341.5,442C 339.114,439.325 339.78,438.825 343.5,440.5C 343.895,438.626 345.228,437.126 347.5,436C 345.212,433.974 343.212,434.308 341.5,437C 340.5,437.667 339.5,437.667 338.5,437C 335.581,434.666 334.581,431.833 335.5,428.5C 332.911,427.795 330.244,427.795 327.5,428.5C 331.586,426.13 335.919,424.13 340.5,422.5C 339.013,425.212 339.679,427.379 342.5,429C 344.898,429.374 347.231,429.374 349.5,429C 348.833,430.333 348.167,431.667 347.5,433C 350.827,433.61 354.161,434.11 357.5,434.5C 357.5,433.5 357.5,432.5 357.5,431.5C 359.167,431.5 360.833,431.5 362.5,431.5C 362.5,430.167 362.5,428.833 362.5,427.5C 361.5,427.5 360.5,427.5 359.5,427.5C 359.5,426.167 359.5,424.833 359.5,423.5C 363.08,424.077 366.08,423.077 368.5,420.5C 370.267,424.317 371.6,423.983 372.5,419.5C 369.305,418.171 368.972,416.505 371.5,414.5C 368.302,413.627 365.636,411.96 363.5,409.5C 361.437,410.239 359.77,411.572 358.5,413.5C 358.709,414.086 359.043,414.586 359.5,415C 357.172,414.196 354.839,414.363 352.5,415.5C 356.883,411.786 361.55,408.453 366.5,405.5C 366.5,406.5 366.5,407.5 366.5,408.5C 371.976,408.068 375.643,410.401 377.5,415.5C 375.537,417.183 375.37,418.849 377,420.5C 379.521,417.966 381.354,414.966 382.5,411.5C 383.711,412.274 383.711,413.107 382.5,414C 383.448,414.483 384.448,414.649 385.5,414.5C 385.5,413.5 385.5,412.5 385.5,411.5C 386.552,411.649 387.552,411.483 388.5,411C 388.167,410.667 387.833,410.333 387.5,410C 389.004,408.663 390.004,406.996 390.5,405C 393.436,403.538 396.436,402.371 399.5,401.5C 399.5,400.5 399.5,399.5 399.5,398.5C 400.552,398.649 401.552,398.483 402.5,398C 401.167,396.16 401.334,395.66 403,396.5C 403.9,395.23 405.066,394.23 406.5,393.5C 406.023,392.522 405.357,391.689 404.5,391C 408.476,388.07 407.809,386.236 402.5,385.5C 402.667,385.167 402.833,384.833 403,384.5C 408.423,382.355 412.59,378.689 415.5,373.5C 414.127,371.51 413.127,369.343 412.5,367C 413.167,366.333 413.833,366.333 414.5,367C 416.167,368.833 417.833,370.667 419.5,372.5C 421.382,371.907 423.215,371.24 425,370.5C 425.49,369.207 425.657,367.873 425.5,366.5C 429.42,365.591 430.753,363.258 429.5,359.5C 430.808,358.374 432.142,358.374 433.5,359.5 Z"/></g>
<g><path style="opacity:1" fill="#f9fcfd" d="M 230.5,411.5 C 226.522,407.187 222.522,402.854 218.5,398.5C 225.213,396.836 231.88,395.502 238.5,394.5C 242.362,388.465 246.028,382.132 249.5,375.5C 252.96,381.587 256.294,387.754 259.5,394C 266.5,395.5 273.5,397 280.5,398.5C 275.5,403.833 270.5,409.167 265.5,414.5C 267.492,421.093 268.158,427.76 267.5,434.5C 261.573,431.62 255.739,428.62 250,425.5C 243.772,428.364 237.605,431.364 231.5,434.5C 230.842,427.76 231.508,421.093 233.5,414.5C 232.812,413.145 231.812,412.145 230.5,411.5 Z"/></g>
<g><path style="opacity:1" fill="#0549ac" d="M 114.5,389.5 C 121.525,395.529 128.525,401.529 135.5,407.5C 137.621,410.189 139.288,413.189 140.5,416.5C 138.328,415.199 135.995,414.199 133.5,413.5C 133.351,414.552 133.517,415.552 134,416.5C 135.905,417.158 137.405,418.325 138.5,420C 133.559,418.321 129.892,419.821 127.5,424.5C 124.867,423.218 124.867,421.884 127.5,420.5C 125.255,418.413 122.588,417.079 119.5,416.5C 117.415,415.459 115.748,413.959 114.5,412C 112.782,411.654 111.115,411.154 109.5,410.5C 107.686,408.006 105.353,406.34 102.5,405.5C 93.4244,397.76 85.4244,389.094 78.5,379.5C 78.6427,377.738 78.3094,376.071 77.5,374.5C 78.1667,373.833 78.8333,373.167 79.5,372.5C 78.0048,372.522 76.3381,372.189 74.5,371.5C 75.376,370.749 76.376,370.249 77.5,370C 76.1322,368.66 74.7989,367.326 73.5,366C 75.6277,364.369 76.9611,362.202 77.5,359.5C 79.5459,363.058 82.2126,366.225 85.5,369C 88.4679,369.17 91.3012,369.336 94,369.5C 93.7446,372.082 93.578,374.748 93.5,377.5C 95.1667,377.5 96.8333,377.5 98.5,377.5C 99.6163,380.556 101.116,383.556 103,386.5C 103.333,385.833 103.667,385.167 104,384.5C 107.051,387.109 110.551,388.775 114.5,389.5 Z"/></g>
<g><path style="opacity:1" fill="#0349ad" d="M 340.5,422.5 C 344.164,419.665 348.164,417.332 352.5,415.5C 354.839,414.363 357.172,414.196 359.5,415C 359.043,414.586 358.709,414.086 358.5,413.5C 359.77,411.572 361.437,410.239 363.5,409.5C 365.636,411.96 368.302,413.627 371.5,414.5C 368.972,416.505 369.305,418.171 372.5,419.5C 371.6,423.983 370.267,424.317 368.5,420.5C 366.08,423.077 363.08,424.077 359.5,423.5C 359.5,424.833 359.5,426.167 359.5,427.5C 360.5,427.5 361.5,427.5 362.5,427.5C 362.5,428.833 362.5,430.167 362.5,431.5C 360.833,431.5 359.167,431.5 357.5,431.5C 357.5,432.5 357.5,433.5 357.5,434.5C 354.161,434.11 350.827,433.61 347.5,433C 348.167,431.667 348.833,430.333 349.5,429C 347.231,429.374 344.898,429.374 342.5,429C 339.679,427.379 339.013,425.212 340.5,422.5 Z"/></g>
<g><path style="opacity:1" fill="#1248a1" d="M 102.5,405.5 C 105.353,406.34 107.686,408.006 109.5,410.5C 111.115,411.154 112.782,411.654 114.5,412C 115.748,413.959 117.415,415.459 119.5,416.5C 122.588,417.079 125.255,418.413 127.5,420.5C 124.867,421.884 124.867,423.218 127.5,424.5C 129.892,419.821 133.559,418.321 138.5,420C 137.405,418.325 135.905,417.158 134,416.5C 133.517,415.552 133.351,414.552 133.5,413.5C 135.995,414.199 138.328,415.199 140.5,416.5C 139.288,413.189 137.621,410.189 135.5,407.5C 145.368,414.6 155.702,420.934 166.5,426.5C 164.801,426.66 163.134,426.494 161.5,426C 159.187,423.504 156.52,423.004 153.5,424.5C 149.588,424.14 145.921,423.14 142.5,421.5C 141.766,423.815 140.432,425.648 138.5,427C 141.088,425.91 143.421,426.41 145.5,428.5C 143.314,429.221 141.147,429.887 139,430.5C 138.833,430.833 138.667,431.167 138.5,431.5C 139.602,432.176 140.602,432.842 141.5,433.5C 140.833,433.5 140.167,433.5 139.5,433.5C 130.538,429.015 122.205,423.515 114.5,417C 109.998,413.664 105.998,409.831 102.5,405.5 Z"/></g>
<g><path style="opacity:1" fill="#1d4e9b" d="M 341.5,416.5 C 329.623,423.431 316.956,428.764 303.5,432.5C 304.483,431.15 305.816,430.15 307.5,429.5C 311.256,427.596 315.256,426.429 319.5,426C 323.889,423.242 328.555,421.075 333.5,419.5C 334.795,417.672 335.795,415.672 336.5,413.5C 337.386,414.325 337.719,415.325 337.5,416.5C 338.833,416.5 340.167,416.5 341.5,416.5 Z"/></g>
<g><path style="opacity:1" fill="#194ea0" d="M 171.5,423.5 C 174.535,424.412 177.535,424.412 180.5,423.5C 181.167,423.833 181.833,424.167 182.5,424.5C 181.196,426.016 181.696,426.682 184,426.5C 188.194,424.845 190.694,426.178 191.5,430.5C 194.835,431.852 198.335,432.519 202,432.5C 204.793,432.695 207.293,432.029 209.5,430.5C 210.739,432.007 210.405,433.174 208.5,434C 217.529,435.639 226.529,437.473 235.5,439.5C 236.416,439.457 237.083,439.124 237.5,438.5C 246.833,438.833 256.167,439.167 265.5,439.5C 237.549,442.057 210.215,438.557 183.5,429C 179.29,427.391 175.29,425.558 171.5,423.5 Z"/></g>
<g><path style="opacity:1" fill="#294282" d="M 139.5,433.5 C 140.167,433.5 140.833,433.5 141.5,433.5C 150.782,438.476 160.115,443.476 169.5,448.5C 158.624,445.062 148.624,440.062 139.5,433.5 Z"/></g>
<g><path style="opacity:1" fill="#0249ac" d="M 166.5,426.5 C 188.983,437.038 212.65,443.038 237.5,444.5C 247.352,445.213 257.352,445.88 267.5,446.5C 276.164,444.833 284.831,443.167 293.5,441.5C 294.243,440.818 294.909,440.151 295.5,439.5C 295.833,439.5 296.167,439.5 296.5,439.5C 306.222,439.111 315.389,436.778 324,432.5C 325.749,431.59 326.916,430.257 327.5,428.5C 330.244,427.795 332.911,427.795 335.5,428.5C 334.581,431.833 335.581,434.666 338.5,437C 339.5,437.667 340.5,437.667 341.5,437C 343.212,434.308 345.212,433.974 347.5,436C 345.228,437.126 343.895,438.626 343.5,440.5C 339.78,438.825 339.114,439.325 341.5,442C 338.167,442.333 334.833,442.667 331.5,443C 329.836,446.136 327.169,447.303 323.5,446.5C 323.433,447.959 323.766,449.292 324.5,450.5C 321.036,450.441 317.703,451.108 314.5,452.5C 313.106,452.379 311.772,452.046 310.5,451.5C 309.289,452.274 309.289,453.107 310.5,454C 309.5,454.167 308.5,454.333 307.5,454.5C 304.989,453.345 302.322,452.678 299.5,452.5C 299.386,454.718 298.72,456.718 297.5,458.5C 292.794,460.375 287.794,461.375 282.5,461.5C 255.309,463.604 228.309,462.604 201.5,458.5C 191.232,454.745 180.566,451.412 169.5,448.5C 160.115,443.476 150.782,438.476 141.5,433.5C 140.602,432.842 139.602,432.176 138.5,431.5C 138.667,431.167 138.833,430.833 139,430.5C 141.147,429.887 143.314,429.221 145.5,428.5C 143.421,426.41 141.088,425.91 138.5,427C 140.432,425.648 141.766,423.815 142.5,421.5C 145.921,423.14 149.588,424.14 153.5,424.5C 156.52,423.004 159.187,423.504 161.5,426C 163.134,426.494 164.801,426.66 166.5,426.5 Z"/></g>
<g><path style="opacity:1" fill="#2a559e" d="M 295.5,439.5 C 294.909,440.151 294.243,440.818 293.5,441.5C 284.831,443.167 276.164,444.833 267.5,446.5C 257.352,445.88 247.352,445.213 237.5,444.5C 248.172,444.667 258.839,444.5 269.5,444C 278.151,442.336 286.817,440.836 295.5,439.5 Z"/></g>
<g><path style="opacity:1" fill="#2251a1" d="M 327.5,428.5 C 326.916,430.257 325.749,431.59 324,432.5C 315.389,436.778 306.222,439.111 296.5,439.5C 306.823,436.057 317.157,432.39 327.5,428.5 Z"/></g>
<g><path style="opacity:1" fill="#2c4179" d="M 169.5,448.5 C 180.566,451.412 191.232,454.745 201.5,458.5C 190.307,456.545 179.64,453.212 169.5,448.5 Z"/></g>
<g><path style="opacity:1" fill="#234591" d="M 324.5,450.5 C 315.912,454.234 306.912,456.901 297.5,458.5C 298.72,456.718 299.386,454.718 299.5,452.5C 302.322,452.678 304.989,453.345 307.5,454.5C 308.5,454.333 309.5,454.167 310.5,454C 309.289,453.107 309.289,452.274 310.5,451.5C 311.772,452.046 313.106,452.379 314.5,452.5C 317.703,451.108 321.036,450.441 324.5,450.5 Z"/></g>
<g><path style="opacity:1" fill="#2a3f78" d="M 201.5,458.5 C 228.309,462.604 255.309,463.604 282.5,461.5C 263.388,464.766 244.055,465.266 224.5,463C 216.536,462.343 208.869,460.843 201.5,458.5 Z"/></g>
</svg>
