<?xml version="1.0" encoding="UTF-8"?>
<!DOCTYPE svg PUBLIC "-//W3C//DTD SVG 1.1//EN" "http://www.w3.org/Graphics/SVG/1.1/DTD/svg11.dtd">
<svg xmlns="http://www.w3.org/2000/svg" version="1.1" width="500px" height="500px" style="shape-rendering:geometricPrecision; text-rendering:geometricPrecision; image-rendering:optimizeQuality; fill-rule:evenodd; clip-rule:evenodd" xmlns:xlink="http://www.w3.org/1999/xlink">
<g><path style="opacity:1" fill="#fddc5c" d="M 244.5,-0.5 C 244.833,-0.5 245.167,-0.5 245.5,-0.5C 248.77,7.97632 251.436,16.643 253.5,25.5C 253.5,26.5 253.5,27.5 253.5,28.5C 262.167,28.5 270.833,28.5 279.5,28.5C 279.719,29.675 279.386,30.675 278.5,31.5C 276.336,31.9976 274.669,33.1642 273.5,35C 271.564,35.813 269.564,36.313 267.5,36.5C 267.5,37.8333 267.5,39.1667 267.5,40.5C 264.802,42.2008 262.802,44.5341 261.5,47.5C 263.304,54.2442 265.304,60.9108 267.5,67.5C 267.87,71.1859 266.537,72.1859 263.5,70.5C 258.55,67.5475 253.883,64.2141 249.5,60.5C 248.829,59.1529 248.829,57.9862 249.5,57C 243.766,55.3702 239.766,57.2035 237.5,62.5C 234.048,65.3993 230.382,68.0659 226.5,70.5C 225.5,70.5 224.5,70.5 223.5,70.5C 223.704,67.4824 224.037,64.4824 224.5,61.5C 226.307,58.5314 227.807,55.1981 229,51.5C 229.667,49.1667 229.667,46.8333 229,44.5C 226.254,40.9691 222.754,38.6357 218.5,37.5C 214.608,35.9379 211.275,33.6046 208.5,30.5C 210.915,29.1858 213.748,28.5191 217,28.5C 220.364,28.5948 223.531,29.2615 226.5,30.5C 229.443,29.7565 232.443,29.2565 235.5,29C 238.153,24.9639 239.487,20.4639 239.5,15.5C 240.366,9.9031 242.033,4.56976 244.5,-0.5 Z"/></g>
<g><path style="opacity:1" fill="#fed170" d="M 239.5,15.5 C 239.487,20.4639 238.153,24.9639 235.5,29C 232.443,29.2565 229.443,29.7565 226.5,30.5C 223.531,29.2615 220.364,28.5948 217,28.5C 213.748,28.5191 210.915,29.1858 208.5,30.5C 204.517,29.1951 204.517,27.8618 208.5,26.5C 216.804,27.6072 225.137,27.7738 233.5,27C 234.308,26.6924 234.975,26.1924 235.5,25.5C 236.328,21.8619 237.661,18.5286 239.5,15.5 Z"/></g>
<g><path style="opacity:1" fill="#ffce74" d="M 253.5,25.5 C 254.289,25.7828 254.956,26.2828 255.5,27C 264.025,27.7596 272.525,27.593 281,26.5C 282.404,26.5093 283.57,27.0093 284.5,28C 279.13,32.6735 273.463,36.8402 267.5,40.5C 267.5,39.1667 267.5,37.8333 267.5,36.5C 269.564,36.313 271.564,35.813 273.5,35C 274.669,33.1642 276.336,31.9976 278.5,31.5C 279.386,30.675 279.719,29.675 279.5,28.5C 270.833,28.5 262.167,28.5 253.5,28.5C 253.5,27.5 253.5,26.5 253.5,25.5 Z"/></g>
<g><path style="opacity:0.957" fill="#fecd73" d="M 218.5,37.5 C 222.754,38.6357 226.254,40.9691 229,44.5C 229.667,46.8333 229.667,49.1667 229,51.5C 227.807,55.1981 226.307,58.5314 224.5,61.5C 226.208,56.2283 227.375,50.8949 228,45.5C 224.642,42.9688 221.476,40.3021 218.5,37.5 Z"/></g>
<g><path style="opacity:1" fill="#fecc70" d="M 249.5,60.5 C 248.115,59.3862 246.615,58.3862 245,57.5C 242.618,59.3887 240.118,61.0553 237.5,62.5C 239.766,57.2035 243.766,55.3702 249.5,57C 248.829,57.9862 248.829,59.1529 249.5,60.5 Z"/></g>
<g><path style="opacity:1" fill="#e24333" d="M 119.5,40.5 C 120.117,40.6107 120.617,40.944 121,41.5C 122.904,49.5454 125.404,57.3787 128.5,65C 137.186,65.1681 145.852,65.6681 154.5,66.5C 147.539,71.9889 140.539,77.4889 133.5,83C 137.014,90.89 139.681,99.0566 141.5,107.5C 139.692,107.509 138.025,107.009 136.5,106C 131.504,100.844 125.837,96.6771 119.5,93.5C 112.439,97.7189 105.772,102.552 99.5,108C 98.0347,108.601 97.0347,108.101 96.5,106.5C 100.542,98.5493 103.042,90.216 104,81.5C 97.4108,76.7885 90.9108,71.9552 84.5,67C 93.004,65.6957 101.671,65.029 110.5,65C 113.428,56.7075 116.428,48.5409 119.5,40.5 Z"/></g>
<g><path style="opacity:1" fill="#e24334" d="M 369.5,40.5 C 370.75,40.5774 371.583,41.244 372,42.5C 373.721,50.3291 376.221,57.8291 379.5,65C 387.026,65.7486 394.526,65.5819 402,64.5C 403.404,64.5093 404.57,65.0093 405.5,66C 398.22,71.4533 391.22,77.1199 384.5,83C 387.294,91.2151 389.961,99.3817 392.5,107.5C 384.656,103.181 377.156,98.1812 370,92.5C 363,97.5 356,102.5 349,107.5C 348.308,106.975 347.808,106.308 347.5,105.5C 350.462,98.1137 353.129,90.6137 355.5,83C 350.132,77.6449 344.132,72.9783 337.5,69C 335.963,67.8904 335.297,66.3904 335.5,64.5C 340.147,64.9806 344.814,65.3139 349.5,65.5C 353.701,65.7168 357.701,65.0501 361.5,63.5C 364.021,55.7314 366.688,48.0647 369.5,40.5 Z"/></g>
<g><path style="opacity:1" fill="#ffc474" d="M 224.5,61.5 C 224.037,64.4824 223.704,67.4824 223.5,70.5C 224.5,70.5 225.5,70.5 226.5,70.5C 225.009,74.2217 222.675,75.055 219.5,73C 221.284,69.124 222.951,65.2907 224.5,61.5 Z"/></g>
<g><path style="opacity:0.78" fill="#fdbd77" d="M 267.5,67.5 C 269.273,69.6002 269.606,71.9335 268.5,74.5C 266.214,73.8671 264.548,72.5338 263.5,70.5C 266.537,72.1859 267.87,71.1859 267.5,67.5 Z"/></g>
<g><path style="opacity:1" fill="#080404" d="M 425.5,199.5 C 424.833,199.5 424.167,199.5 423.5,199.5C 420.598,198.422 417.598,197.756 414.5,197.5C 414.5,197.167 414.5,196.833 414.5,196.5C 414.689,179.209 413.689,162.042 411.5,145C 355.787,127.988 300.12,110.822 244.5,93.5C 189.167,110.667 133.833,127.833 78.5,145C 77.0105,150.356 76.1771,155.856 76,161.5C 75.5001,172.828 75.3335,184.162 75.5,195.5C 71.9017,197.74 67.9017,199.074 63.5,199.5C 64.2639,178.478 65.9306,157.478 68.5,136.5C 127.341,118.609 186.175,100.609 245,82.5C 303.787,100.737 362.62,118.737 421.5,136.5C 424.062,157.408 425.396,178.408 425.5,199.5 Z"/></g>
<g><path style="opacity:1" fill="#f9f9f9" d="M 414.5,196.5 C 410.114,196.034 406.114,194.701 402.5,192.5C 402.689,179.727 401.689,167.061 399.5,154.5C 347.792,139.042 296.125,123.376 244.5,107.5C 193.082,123.028 141.748,138.861 90.5,155C 88.0302,167.333 87.0302,179.833 87.5,192.5C 83.6781,194.122 79.6781,195.122 75.5,195.5C 75.3335,184.162 75.5001,172.828 76,161.5C 76.1771,155.856 77.0105,150.356 78.5,145C 133.833,127.833 189.167,110.667 244.5,93.5C 300.12,110.822 355.787,127.988 411.5,145C 413.689,162.042 414.689,179.209 414.5,196.5 Z"/></g>
<g><path style="opacity:1" fill="#0a0a09" d="M 402.5,192.5 C 398.919,192.862 395.919,191.862 393.5,189.5C 393.731,180.088 393.064,170.755 391.5,161.5C 342.327,146.581 293.16,131.581 244,116.5C 195.421,131.436 146.921,146.603 98.5,162C 96.7431,171.368 96.0765,180.868 96.5,190.5C 93.5,191.167 90.5,191.833 87.5,192.5C 87.0302,179.833 88.0302,167.333 90.5,155C 141.748,138.861 193.082,123.028 244.5,107.5C 296.125,123.376 347.792,139.042 399.5,154.5C 401.689,167.061 402.689,179.727 402.5,192.5 Z"/></g>
<g><path style="opacity:1" fill="#fdfdfd" d="M 393.5,189.5 C 392.167,189.5 390.833,189.5 389.5,189.5C 389.586,188.504 389.252,187.671 388.5,187C 375.92,185.222 363.587,183.055 351.5,180.5C 351.5,179.5 351.5,178.5 351.5,177.5C 344.867,178.342 338.2,178.342 331.5,177.5C 323.781,176.577 316.115,175.577 308.5,174.5C 304.46,172.883 300.127,172.05 295.5,172C 289.509,171.501 283.509,171.334 277.5,171.5C 275.833,171.5 274.167,171.5 272.5,171.5C 248.337,170.337 224.003,170.17 199.5,171C 198.263,171.232 197.263,171.732 196.5,172.5C 193.609,173.403 190.609,173.736 187.5,173.5C 171.223,174.057 155.223,175.891 139.5,179C 138.429,179.852 137.429,180.685 136.5,181.5C 134.585,181.216 132.919,181.549 131.5,182.5C 122.963,184.507 114.296,186.007 105.5,187C 104.944,187.383 104.611,187.883 104.5,188.5C 101.833,189.167 99.1667,189.833 96.5,190.5C 96.0765,180.868 96.7431,171.368 98.5,162C 146.921,146.603 195.421,131.436 244,116.5C 293.16,131.581 342.327,146.581 391.5,161.5C 393.064,170.755 393.731,180.088 393.5,189.5 Z"/></g>
<g><path style="opacity:1" fill="#fffddd" d="M 272.5,171.5 C 247.158,171.345 221.824,171.678 196.5,172.5C 197.263,171.732 198.263,171.232 199.5,171C 224.003,170.17 248.337,170.337 272.5,171.5 Z"/></g>
<g><path style="opacity:1" fill="#fffcda" d="M 277.5,171.5 C 283.509,171.334 289.509,171.501 295.5,172C 300.127,172.05 304.46,172.883 308.5,174.5C 301.504,174.106 294.504,173.773 287.5,173.5C 284.167,172.833 280.833,172.167 277.5,171.5 Z"/></g>
<g><path style="opacity:1" fill="#f7e086" d="M 272.5,171.5 C 274.167,171.5 275.833,171.5 277.5,171.5C 280.833,172.167 284.167,172.833 287.5,173.5C 277.844,172.908 268.178,172.575 258.5,172.5C 232.434,172.044 206.434,173.044 180.5,175.5C 182.833,174.833 185.167,174.167 187.5,173.5C 190.609,173.736 193.609,173.403 196.5,172.5C 221.824,171.678 247.158,171.345 272.5,171.5 Z"/></g>
<g><path style="opacity:1" fill="#fddd5b" d="M 258.5,172.5 C 282.792,174.116 307.126,176.116 331.5,178.5C 341.457,180.311 351.457,181.978 361.5,183.5C 361.489,185.017 360.823,186.184 359.5,187C 361.434,187.012 363.434,186.845 365.5,186.5C 374.141,188.182 382.808,189.682 391.5,191C 399.021,193.765 406.688,195.932 414.5,197.5C 417.598,197.756 420.598,198.422 423.5,199.5C 424.091,200.151 424.757,200.818 425.5,201.5C 429.072,202.342 432.572,203.342 436,204.5C 436.499,209.489 436.666,214.489 436.5,219.5C 428.125,217.493 419.791,215.493 411.5,213.5C 393.583,208.854 375.583,204.521 357.5,200.5C 354.244,198.133 350.411,196.8 346,196.5C 327.679,194.595 309.512,192.095 291.5,189C 260.167,188.333 228.833,188.333 197.5,189C 196.584,189.278 195.918,189.778 195.5,190.5C 191.351,189.92 187.684,190.586 184.5,192.5C 183.5,192.5 182.5,192.5 181.5,192.5C 175.491,192.334 169.491,192.501 163.5,193C 158.853,193.538 154.52,194.705 150.5,196.5C 126.17,201.664 101.837,207.33 77.5,213.5C 69.3286,215.389 61.1619,217.389 53,219.5C 52.5007,214.511 52.3341,209.511 52.5,204.5C 55.6324,201.89 59.299,200.223 63.5,199.5C 67.9017,199.074 71.9017,197.74 75.5,195.5C 79.6781,195.122 83.6781,194.122 87.5,192.5C 90.5,191.833 93.5,191.167 96.5,190.5C 99.1667,189.833 101.833,189.167 104.5,188.5C 108.884,188.826 113.217,188.492 117.5,187.5C 121.53,185.279 125.864,184.113 130.5,184C 131.056,183.617 131.389,183.117 131.5,182.5C 132.919,181.549 134.585,181.216 136.5,181.5C 147.196,179.995 157.862,178.162 168.5,176C 172.486,175.501 176.486,175.334 180.5,175.5C 206.434,173.044 232.434,172.044 258.5,172.5 Z"/></g>
<g><path style="opacity:1" fill="#fadf70" d="M 258.5,172.5 C 268.178,172.575 277.844,172.908 287.5,173.5C 294.504,173.773 301.504,174.106 308.5,174.5C 316.115,175.577 323.781,176.577 331.5,177.5C 331.5,177.833 331.5,178.167 331.5,178.5C 307.126,176.116 282.792,174.116 258.5,172.5 Z"/></g>
<g><path style="opacity:1" fill="#fef8d1" d="M 187.5,173.5 C 185.167,174.167 182.833,174.833 180.5,175.5C 176.486,175.334 172.486,175.501 168.5,176C 157.862,178.162 147.196,179.995 136.5,181.5C 137.429,180.685 138.429,179.852 139.5,179C 155.223,175.891 171.223,174.057 187.5,173.5 Z"/></g>
<g><path style="opacity:1" fill="#fefad9" d="M 331.5,178.5 C 331.5,178.167 331.5,177.833 331.5,177.5C 338.2,178.342 344.867,178.342 351.5,177.5C 351.5,178.5 351.5,179.5 351.5,180.5C 363.587,183.055 375.92,185.222 388.5,187C 389.252,187.671 389.586,188.504 389.5,189.5C 380.171,187.501 370.838,185.501 361.5,183.5C 351.457,181.978 341.457,180.311 331.5,178.5 Z"/></g>
<g><path style="opacity:1" fill="#fae384" d="M 131.5,182.5 C 131.389,183.117 131.056,183.617 130.5,184C 125.864,184.113 121.53,185.279 117.5,187.5C 113.217,188.492 108.884,188.826 104.5,188.5C 104.611,187.883 104.944,187.383 105.5,187C 114.296,186.007 122.963,184.507 131.5,182.5 Z"/></g>
<g><path style="opacity:1" fill="#f8de73" d="M 361.5,183.5 C 370.838,185.501 380.171,187.501 389.5,189.5C 390.833,189.5 392.167,189.5 393.5,189.5C 395.919,191.862 398.919,192.862 402.5,192.5C 406.114,194.701 410.114,196.034 414.5,196.5C 414.5,196.833 414.5,197.167 414.5,197.5C 406.688,195.932 399.021,193.765 391.5,191C 382.808,189.682 374.141,188.182 365.5,186.5C 363.434,186.845 361.434,187.012 359.5,187C 360.823,186.184 361.489,185.017 361.5,183.5 Z"/></g>
<g><path style="opacity:1" fill="#dec664" d="M 357.5,200.5 C 307.249,190.979 256.583,187.646 205.5,190.5C 202.167,190.5 198.833,190.5 195.5,190.5C 195.918,189.778 196.584,189.278 197.5,189C 228.833,188.333 260.167,188.333 291.5,189C 309.512,192.095 327.679,194.595 346,196.5C 350.411,196.8 354.244,198.133 357.5,200.5 Z"/></g>
<g><path style="opacity:1" fill="#bca550" d="M 195.5,190.5 C 198.833,190.5 202.167,190.5 205.5,190.5C 198.677,191.491 191.677,192.158 184.5,192.5C 187.684,190.586 191.351,189.92 195.5,190.5 Z"/></g>
<g><path style="opacity:1" fill="#030202" d="M 357.5,200.5 C 375.583,204.521 393.583,208.854 411.5,213.5C 419.968,216.535 428.634,219.202 437.5,221.5C 437.831,247.005 437.498,272.339 436.5,297.5C 429.986,292.983 422.653,289.983 414.5,288.5C 411.451,299.258 408.451,310.091 405.5,321C 405.57,321.765 405.903,322.265 406.5,322.5C 394.914,354.68 378.414,384.013 357,410.5C 326.3,444.523 288.967,468.189 245,481.5C 177.638,461.334 128.638,419.667 98,356.5C 93.0537,345.144 88.2203,333.811 83.5,322.5C 84.0967,322.265 84.4301,321.765 84.5,321C 83.0201,315.76 81.3535,310.593 79.5,305.5C 78.3791,299.436 77.0458,293.436 75.5,287.5C 73.2143,287.595 71.2143,288.262 69.5,289.5C 63.6863,291.248 58.0196,293.248 52.5,295.5C 52.5,271.167 52.5,246.833 52.5,222.5C 60.8097,219.287 69.143,216.287 77.5,213.5C 101.837,207.33 126.17,201.664 150.5,196.5C 161.006,195.436 171.339,194.103 181.5,192.5C 182.5,192.5 183.5,192.5 184.5,192.5C 191.677,192.158 198.677,191.491 205.5,190.5C 256.583,187.646 307.249,190.979 357.5,200.5 Z"/></g>
<g><path style="opacity:1" fill="#dac15f" d="M 181.5,192.5 C 171.339,194.103 161.006,195.436 150.5,196.5C 154.52,194.705 158.853,193.538 163.5,193C 169.491,192.501 175.491,192.334 181.5,192.5 Z"/></g>
<g><path style="opacity:1" fill="#efd16b" d="M 52.5,204.5 C 52.3341,209.511 52.5007,214.511 53,219.5C 61.1619,217.389 69.3286,215.389 77.5,213.5C 69.143,216.287 60.8097,219.287 52.5,222.5C 51.1667,216.5 51.1667,210.5 52.5,204.5 Z"/></g>
<g><path style="opacity:1" fill="#eacb6d" d="M 423.5,199.5 C 424.167,199.5 424.833,199.5 425.5,199.5C 429.439,200.535 433.272,201.869 437,203.5C 437.214,208.885 437.714,214.219 438.5,219.5C 438.137,220.183 437.804,220.85 437.5,221.5C 428.634,219.202 419.968,216.535 411.5,213.5C 419.791,215.493 428.125,217.493 436.5,219.5C 436.666,214.489 436.499,209.489 436,204.5C 432.572,203.342 429.072,202.342 425.5,201.5C 424.757,200.818 424.091,200.151 423.5,199.5 Z"/></g>
<g><path style="opacity:1" fill="#fdfdfd" d="M 211.5,259.5 C 256.549,257.748 301.216,260.914 345.5,269C 359.24,271.955 372.907,275.122 386.5,278.5C 377.483,329.045 354.483,371.879 317.5,407C 295.973,424.826 271.806,437.993 245,446.5C 182.497,425.998 139.497,384.998 116,323.5C 111.055,309.388 106.889,295.054 103.5,280.5C 103.818,279.353 104.484,278.519 105.5,278C 140.399,268.462 175.733,262.296 211.5,259.5 Z"/></g>
<g><path style="opacity:1" fill="#080808" d="M 279.5,312.5 C 279.158,313.338 278.492,313.672 277.5,313.5C 265.967,310.289 254.634,306.789 243.5,303C 262.417,314.374 281.25,325.874 300,337.5C 300.591,338.483 300.257,339.15 299,339.5C 276.456,330.105 253.956,320.938 231.5,312C 250.5,327 269.5,342 288.5,357C 289.731,358.183 289.731,359.349 288.5,360.5C 266.302,348.403 243.969,336.903 221.5,326C 234.672,338.006 247.339,350.506 259.5,363.5C 259.5,364.167 259.167,364.5 258.5,364.5C 240.633,353.957 226.467,357.623 216,375.5C 211.642,389.252 215.142,400.418 226.5,409C 229.561,411.035 232.895,412.201 236.5,412.5C 236.918,413.222 237.584,413.722 238.5,414C 237.207,414.49 235.873,414.657 234.5,414.5C 216.218,408.281 209.051,395.614 213,376.5C 216.389,368.445 221.889,362.278 229.5,358C 218.732,346.227 207.066,335.56 194.5,326C 189.188,322.761 183.688,319.928 178,317.5C 171.591,320.767 168.591,318.767 169,311.5C 176.333,298.833 183.667,286.167 191,273.5C 192.99,270.278 195.49,269.778 198.5,272C 200.074,273.826 200.907,275.993 201,278.5C 209.764,285.136 219.264,290.636 229.5,295C 246.082,301.138 262.749,306.971 279.5,312.5 Z"/></g>
<g><path style="opacity:1" fill="#f7f7f7" d="M 91.5,281.5 C 92.8221,281.33 93.9887,281.663 95,282.5C 105.048,336.123 130.215,380.957 170.5,417C 192.45,434.81 217.116,447.644 244.5,455.5C 304.813,437.682 348.313,400.349 375,343.5C 383.931,323.539 390.765,302.873 395.5,281.5C 398.508,282.065 401.341,283.065 404,284.5C 393.889,339.228 368.722,385.728 328.5,424C 303.799,444.775 275.966,460.275 245,470.5C 166.856,443.688 115.856,390.688 92,311.5C 88.8804,302.357 86.7138,293.024 85.5,283.5C 87.7857,283.405 89.7857,282.738 91.5,281.5 Z"/></g>
<g><path style="opacity:1" fill="#eeeeee" d="M 193.5,273.5 C 197.138,272.737 198.638,274.07 198,277.5C 190.162,289.839 182.828,302.506 176,315.5C 173.771,318.156 171.938,317.823 170.5,314.5C 178.444,300.941 186.111,287.274 193.5,273.5 Z"/></g>
<g><path style="opacity:1" fill="#133e74" d="M 79.5,305.5 C 78.295,302.766 76.795,300.099 75,297.5C 74.5026,294.854 74.3359,292.187 74.5,289.5C 72.8333,289.5 71.1667,289.5 69.5,289.5C 71.2143,288.262 73.2143,287.595 75.5,287.5C 77.0458,293.436 78.3791,299.436 79.5,305.5 Z"/></g>
<g><path style="opacity:1" fill="#1650a1" d="M 69.5,289.5 C 71.1667,289.5 72.8333,289.5 74.5,289.5C 74.3359,292.187 74.5026,294.854 75,297.5C 76.795,300.099 78.295,302.766 79.5,305.5C 81.3535,310.593 83.0201,315.76 84.5,321C 84.4301,321.765 84.0967,322.265 83.5,322.5C 74.3301,314.834 64.9968,307.334 55.5,300C 53.8588,298.871 52.8588,297.371 52.5,295.5C 58.0196,293.248 63.6863,291.248 69.5,289.5 Z"/></g>
<g><path style="opacity:1" fill="#f7f7f7" d="M 277.5,313.5 C 285.268,316.153 292.935,319.319 300.5,323C 311.158,330.83 315.325,341.33 313,354.5C 307.721,363.599 301.888,372.266 295.5,380.5C 292.264,373.864 287.93,368.031 282.5,363C 275.712,360.264 269.712,361.43 264.5,366.5C 263.06,365.048 261.394,364.048 259.5,363.5C 247.339,350.506 234.672,338.006 221.5,326C 243.969,336.903 266.302,348.403 288.5,360.5C 289.731,359.349 289.731,358.183 288.5,357C 269.5,342 250.5,327 231.5,312C 253.956,320.938 276.456,330.105 299,339.5C 300.257,339.15 300.591,338.483 300,337.5C 281.25,325.874 262.417,314.374 243.5,303C 254.634,306.789 265.967,310.289 277.5,313.5 Z"/></g>
<g><path style="opacity:1" fill="#194f9d" d="M 436.5,297.5 C 426.525,305.804 416.525,314.137 406.5,322.5C 405.903,322.265 405.57,321.765 405.5,321C 408.451,310.091 411.451,299.258 414.5,288.5C 422.653,289.983 429.986,292.983 436.5,297.5 Z"/></g>
<g><path style="opacity:1" fill="#e6e6e6" d="M 217.5,343.5 C 217.897,342.475 218.563,342.308 219.5,343C 226.5,347.333 233.5,351.667 240.5,356C 237.479,356.673 234.479,357.007 231.5,357C 226.965,352.297 222.298,347.797 217.5,343.5 Z"/></g>
<g><path style="opacity:1" fill="#f1f1f1" d="M 258.5,364.5 C 272.05,379.22 271.717,393.72 257.5,408C 251.05,411.957 244.05,413.457 236.5,412.5C 232.895,412.201 229.561,411.035 226.5,409C 215.142,400.418 211.642,389.252 216,375.5C 226.467,357.623 240.633,353.957 258.5,364.5 Z"/></g>
<g><path style="opacity:1" fill="#151515" d="M 235.5,363.5 C 254.305,362.141 263.471,370.807 263,389.5C 259.491,403.179 250.658,409.346 236.5,408C 223.861,403.689 218.028,394.856 219,381.5C 221.619,372.719 227.119,366.719 235.5,363.5 Z"/></g>
<g><path style="opacity:1" fill="#f2f2f2" d="M 242.5,366.5 C 251.38,366.722 257.047,371.055 259.5,379.5C 251.798,377.794 246.131,373.461 242.5,366.5 Z"/></g>
<g><path style="opacity:1" fill="#f3f3f3" d="M 232.5,367.5 C 233.5,367.5 234.5,367.5 235.5,367.5C 235.364,370.551 235.698,373.551 236.5,376.5C 233.866,383.119 228.866,385.786 221.5,384.5C 222.382,376.965 226.049,371.299 232.5,367.5 Z"/></g>
<g><path style="opacity:1" fill="#e0e0e0" d="M 243.5,373.5 C 246.681,375.837 250.014,378.004 253.5,380C 251.835,380.788 250.169,381.122 248.5,381C 247.271,379.471 245.771,378.304 244,377.5C 243.51,376.207 243.343,374.873 243.5,373.5 Z"/></g>
<g><path style="opacity:1" fill="#1b1b1b" d="M 279.5,312.5 C 291.291,314.811 301.458,320.145 310,328.5C 314.931,336.09 316.765,344.423 315.5,353.5C 316.822,353.33 317.989,353.663 319,354.5C 319.852,359.477 319.352,364.31 317.5,369C 321.724,378.868 318.39,383.868 307.5,384C 304.65,386.584 301.65,388.917 298.5,391C 301.06,398.634 302.394,406.468 302.5,414.5C 279.651,414.635 256.984,414.635 234.5,414.5C 235.873,414.657 237.207,414.49 238.5,414C 237.584,413.722 236.918,413.222 236.5,412.5C 244.05,413.457 251.05,411.957 257.5,408C 271.717,393.72 272.05,379.22 258.5,364.5C 259.167,364.5 259.5,364.167 259.5,363.5C 261.394,364.048 263.06,365.048 264.5,366.5C 269.712,361.43 275.712,360.264 282.5,363C 287.93,368.031 292.264,373.864 295.5,380.5C 301.888,372.266 307.721,363.599 313,354.5C 315.325,341.33 311.158,330.83 300.5,323C 292.935,319.319 285.268,316.153 277.5,313.5C 278.492,313.672 279.158,313.338 279.5,312.5 Z"/></g>
<g><path style="opacity:1" fill="#f9f9f9" d="M 272.5,363.5 C 276.131,363.16 279.464,363.994 282.5,366C 289.2,372.896 293.7,381.062 296,390.5C 298.077,397.385 299.577,404.385 300.5,411.5C 285.83,411.667 271.163,411.5 256.5,411C 271.189,399.981 274.523,386.148 266.5,369.5C 266.667,368.833 266.833,368.167 267,367.5C 269.167,366.512 271,365.179 272.5,363.5 Z"/></g>
<g><path style="opacity:1" fill="#0e0e0e" d="M 272.5,368.5 C 279.716,367.688 281.716,370.355 278.5,376.5C 271.793,377.772 269.793,375.105 272.5,368.5 Z"/></g>
<g><path style="opacity:1" fill="#f0f0f0" d="M 314.5,355.5 C 315.5,355.5 316.5,355.5 317.5,355.5C 317.306,369.898 310.973,380.564 298.5,387.5C 296.717,386.652 296.217,385.319 297,383.5C 303.105,374.279 308.939,364.945 314.5,355.5 Z"/></g>
<g><path style="opacity:1" fill="#f0f0f0" d="M 238.5,379.5 C 245.329,378.828 248.163,381.828 247,388.5C 242.577,393.899 238.577,393.565 235,387.5C 234.52,384.137 235.687,381.47 238.5,379.5 Z"/></g>
<g><path style="opacity:1" fill="#f8f8f8" d="M 252.5,387.5 C 255.167,387.5 257.833,387.5 260.5,387.5C 260.227,396.418 255.894,402.085 247.5,404.5C 246.669,400.524 246.503,396.524 247,392.5C 248.107,389.887 249.94,388.22 252.5,387.5 Z"/></g>
<g><path style="opacity:1" fill="#f2f2f2" d="M 227.5,390.5 C 237.303,390.65 241.303,395.65 239.5,405.5C 231.292,404.64 225.625,400.307 222.5,392.5C 224.291,391.83 225.958,391.163 227.5,390.5 Z"/></g>
</svg>
