<?xml version="1.0" encoding="UTF-8"?>
<!DOCTYPE svg PUBLIC "-//W3C//DTD SVG 1.1//EN" "http://www.w3.org/Graphics/SVG/1.1/DTD/svg11.dtd">
<svg xmlns="http://www.w3.org/2000/svg" version="1.1" width="500px" height="500px" style="shape-rendering:geometricPrecision; text-rendering:geometricPrecision; image-rendering:optimizeQuality; fill-rule:evenodd; clip-rule:evenodd" xmlns:xlink="http://www.w3.org/1999/xlink">
<g><path style="opacity:0.998" fill="#eef0f5" d="M 235.5,13.5 C 317.913,9.00807 385.747,38.0081 439,100.5C 489.256,166.34 503.256,239.34 481,319.5C 454.765,398.068 402.265,450.235 323.5,476C 226.024,500.942 143.19,476.776 75,403.5C 22.2026,337.95 6.53594,264.283 28,182.5C 53.3428,103.625 105.176,50.7914 183.5,24C 200.645,18.8695 217.978,15.3695 235.5,13.5 Z"/></g>
<g><path style="opacity:1" fill="#090706" d="M 243.5,18.5 C 340.364,17.6823 412.53,59.0156 460,142.5C 488.079,198.326 493.412,256.326 476,316.5C 448.189,399.977 391.689,452.81 306.5,475C 215.725,492.328 139.558,466.828 78,398.5C 27.8472,334.744 12.8472,263.411 33,184.5C 59.6725,102.826 114.173,49.9923 196.5,26C 212.064,21.9605 227.731,19.4605 243.5,18.5 Z"/></g>
<g><path style="opacity:1" fill="#b8a76e" d="M 305.5,33.5 C 294.929,33.0697 284.595,31.5697 274.5,29C 258.153,28.2972 241.819,28.4638 225.5,29.5C 227.292,28.6909 229.292,28.1909 231.5,28C 256.627,25.9311 281.294,27.7644 305.5,33.5 Z"/></g>
<g><path style="opacity:1" fill="#c9b67a" d="M 225.5,29.5 C 221.953,31.8084 217.953,32.9751 213.5,33C 216.956,33.1802 220.289,33.8468 223.5,35C 222.833,35.3333 222.167,35.6667 221.5,36C 238.322,35.3243 254.989,35.491 271.5,36.5C 247.893,35.6422 224.56,37.6422 201.5,42.5C 207.399,39.4929 213.732,37.4929 220.5,36.5C 216.198,35.6364 211.864,34.9697 207.5,34.5C 199.604,36.6539 191.604,38.3205 183.5,39.5C 196.899,34.0383 210.899,30.705 225.5,29.5 Z"/></g>
<g><path style="opacity:1" fill="#cdb872" d="M 305.5,33.5 C 375.256,50.7531 425.756,91.7531 457,156.5C 477.75,203.545 482.416,252.212 471,302.5C 452.023,372.145 409.856,422.312 344.5,453C 259.203,486.625 180.87,474.959 109.5,418C 50.273,363.341 25.4396,295.841 35,215.5C 49.3632,138.883 91.1965,83.0494 160.5,48C 167.98,44.5901 175.647,41.7567 183.5,39.5C 191.604,38.3205 199.604,36.6539 207.5,34.5C 211.864,34.9697 216.198,35.6364 220.5,36.5C 213.732,37.4929 207.399,39.4929 201.5,42.5C 123.087,65.5793 72.4207,116.246 49.5,194.5C 47.0388,201.876 45.2055,209.543 44,217.5C 40.3125,240.413 40.8125,263.08 45.5,285.5C 62.1748,368.336 110.175,424.17 189.5,453C 200.631,456.327 211.964,458.494 223.5,459.5C 250.36,464.161 277.026,463.161 303.5,456.5C 381.117,436.057 432.951,387.723 459,311.5C 461.469,302.958 463.302,294.291 464.5,285.5C 465.363,280.981 466.197,276.315 467,271.5C 468.678,247.63 467.344,223.963 463,200.5C 461.429,195.275 459.596,190.275 457.5,185.5C 449.547,157.446 436.047,132.446 417,110.5C 377.966,67.0669 329.466,42.4002 271.5,36.5C 254.989,35.491 238.322,35.3243 221.5,36C 222.167,35.6667 222.833,35.3333 223.5,35C 220.289,33.8468 216.956,33.1802 213.5,33C 217.953,32.9751 221.953,31.8084 225.5,29.5C 241.819,28.4638 258.153,28.2972 274.5,29C 284.595,31.5697 294.929,33.0697 305.5,33.5 Z"/></g>
<g><path style="opacity:1" fill="#f8f5dd" d="M 49.5,194.5 C 46.1608,211.745 44.1608,229.245 43.5,247C 44.2122,259.835 44.8788,272.669 45.5,285.5C 40.8125,263.08 40.3125,240.413 44,217.5C 45.2055,209.543 47.0388,201.876 49.5,194.5 Z"/></g>
<g><path style="opacity:1" fill="#fbf9e6" d="M 457.5,185.5 C 459.596,190.275 461.429,195.275 463,200.5C 467.344,223.963 468.678,247.63 467,271.5C 466.197,276.315 465.363,280.981 464.5,285.5C 466.332,267.551 466.832,249.551 466,231.5C 463.819,216.056 460.986,200.723 457.5,185.5 Z"/></g>
<g><path style="opacity:1" fill="#fefefd" d="M 271.5,36.5 C 329.466,42.4002 377.966,67.0669 417,110.5C 436.047,132.446 449.547,157.446 457.5,185.5C 460.986,200.723 463.819,216.056 466,231.5C 466.832,249.551 466.332,267.551 464.5,285.5C 463.302,294.291 461.469,302.958 459,311.5C 432.951,387.723 381.117,436.057 303.5,456.5C 295.192,457.458 286.858,458.625 278.5,460C 260.149,460.751 241.816,460.585 223.5,459.5C 211.964,458.494 200.631,456.327 189.5,453C 110.175,424.17 62.1748,368.336 45.5,285.5C 44.8788,272.669 44.2122,259.835 43.5,247C 44.1608,229.245 46.1608,211.745 49.5,194.5C 72.4207,116.246 123.087,65.5793 201.5,42.5C 224.56,37.6422 247.893,35.6422 271.5,36.5 Z"/></g>
<g><path style="opacity:1" fill="#181818" d="M 431.5,282.5 C 432.649,282.791 433.316,283.624 433.5,285C 430.688,303.773 424.522,321.273 415,337.5C 414.5,337.167 414,336.833 413.5,336.5C 422.112,319.33 428.112,301.33 431.5,282.5 Z"/></g>
<g><path style="opacity:1" fill="#1a1a1a" d="M 75.5,282.5 C 76.5,282.5 77.5,282.5 78.5,282.5C 81.5,301.67 87.5,319.837 96.5,337C 95.2161,337.684 94.0495,337.517 93,336.5C 84.4573,319.372 78.6239,301.372 75.5,282.5 Z"/></g>
<g><path style="opacity:1" fill="#d0bb74" d="M 433.5,232.5 C 435.682,236.353 438.016,240.186 440.5,244C 443.882,244.176 447.215,244.676 450.5,245.5C 448.327,248.172 445.827,250.506 443,252.5C 443.238,256.109 443.405,259.775 443.5,263.5C 440.047,262.857 436.881,261.524 434,259.5C 430.517,261.242 427.184,263.242 424,265.5C 424.038,261.115 424.371,256.782 425,252.5C 415.586,246.739 416.42,243.906 427.5,244C 430.548,240.672 432.548,236.839 433.5,232.5 Z"/></g>
<g><path style="opacity:1" fill="#cfbb74" d="M 73.5,233.5 C 74.3764,233.369 75.0431,233.702 75.5,234.5C 76.9781,237.288 78.3114,240.122 79.5,243C 83.123,244.105 86.7897,245.105 90.5,246C 88.3333,248.167 86.1667,250.333 84,252.5C 83.9967,256.567 83.8301,260.567 83.5,264.5C 80.624,262.563 77.624,260.896 74.5,259.5C 71.376,260.896 68.376,262.563 65.5,264.5C 65.0898,260.896 64.9231,257.229 65,253.5C 62.5393,250.566 60.3726,247.566 58.5,244.5C 61.8499,244.665 65.1832,244.498 68.5,244C 70.8362,240.828 72.5028,237.328 73.5,233.5 Z"/></g>
<g><path style="opacity:1" fill="#171717" d="M 413.5,160.5 C 414.675,160.281 415.675,160.614 416.5,161.5C 425.725,178.494 431.059,196.494 432.5,215.5C 428.358,196.407 422.025,178.074 413.5,160.5 Z"/></g>
<g><path style="opacity:1" fill="#171717" d="M 93.5,160.5 C 94.552,160.351 95.552,160.517 96.5,161C 87.1961,178.078 81.1961,196.245 78.5,215.5C 77.5,215.5 76.5,215.5 75.5,215.5C 78.7013,196.23 84.7013,177.896 93.5,160.5 Z"/></g>
<g><path style="opacity:1" fill="#c6b375" d="M 242.5,100.5 C 305.767,98.7072 353.6,124.707 386,178.5C 414.069,237.176 408.736,292.509 370,344.5C 325.71,392.816 271.876,408.316 208.5,391C 150.125,369.116 116.292,327.282 107,265.5C 102.91,201.841 127.743,153.341 181.5,120C 200.634,109.343 220.967,102.843 242.5,100.5 Z"/></g>
<g><path style="opacity:1" fill="#060504" d="M 236.5,106.5 C 300.839,102.247 349.339,127.58 382,182.5C 408.389,237.919 403.389,290.252 367,339.5C 325.556,386.089 274.389,401.922 213.5,387C 155.279,366.44 121.446,325.607 112,264.5C 108.57,201.179 134.07,153.679 188.5,122C 203.873,114.485 219.873,109.319 236.5,106.5 Z"/></g>
<g><path style="opacity:1" fill="#fafafa" d="M 241.5,118.5 C 297.899,116.11 340.732,138.777 370,186.5C 394.149,236.898 390.149,284.898 358,330.5C 320.329,373.964 273.496,388.798 217.5,375C 164.179,356.541 133.345,319.374 125,263.5C 121.189,207.953 142.689,165.453 189.5,136C 205.778,126.63 223.112,120.796 241.5,118.5 Z"/></g>
<g><path style="opacity:1" fill="#070707" d="M 353.5,182.5 C 366.407,199.543 373.407,218.876 374.5,240.5C 366.149,237.308 360.649,231.308 358,222.5C 356.687,218.58 355.687,214.58 355,210.5C 354.721,201.141 354.221,191.808 353.5,182.5 Z"/></g>
<g><path style="opacity:1" fill="#070707" d="M 173.5,160.5 C 178.479,176.692 173.479,189.192 158.5,198C 154.516,199.876 150.35,201.376 146,202.5C 145.5,202.167 145,201.833 144.5,201.5C 151.473,185.873 161.139,172.207 173.5,160.5 Z"/></g>
<g><path style="opacity:1" fill="#040404" d="M 266.5,131.5 C 279.167,131.444 290.5,135.278 300.5,143C 309.267,149.763 317.433,157.263 325,165.5C 329.027,170.217 332.027,175.551 334,181.5C 336.558,190.757 334.058,198.257 326.5,204C 317.047,210.146 306.714,212.146 295.5,210C 277.992,206.45 260.325,204.784 242.5,205C 233.622,207.214 227.122,212.381 223,220.5C 221.896,226.186 223.729,230.686 228.5,234C 243.389,241.105 259.055,243.439 275.5,241C 289.744,237.689 304.077,234.855 318.5,232.5C 325.966,231.819 331.799,234.486 336,240.5C 339.019,245.055 340.519,250.055 340.5,255.5C 339.949,262.371 338.449,269.038 336,275.5C 326.865,295.112 316.198,313.778 304,331.5C 300.715,336.389 298.882,341.722 298.5,347.5C 311.274,345.577 321.774,339.577 330,329.5C 334.169,323.834 337.835,317.834 341,311.5C 346.644,295.585 351.977,279.585 357,263.5C 358.793,260.705 360.96,258.205 363.5,256C 374.079,251.935 377.579,255.435 374,266.5C 373.43,272.686 372.096,278.686 370,284.5C 367.054,287.446 364.054,290.446 361,293.5C 358.644,299.945 357.311,306.612 357,313.5C 338.102,343.867 310.936,362.201 275.5,368.5C 268.826,367.662 266.326,363.995 268,357.5C 268.862,355.913 269.529,354.246 270,352.5C 282.75,331.997 295.75,311.664 309,291.5C 313.536,284.376 315.869,276.709 316,268.5C 309.946,265.616 304.113,266.116 298.5,270C 291.018,276.795 284.852,284.629 280,293.5C 273.333,306.833 266.667,320.167 260,333.5C 255.854,341.079 249.521,345.745 241,347.5C 229.126,350.379 218.293,348.212 208.5,341C 194.782,328.408 184.948,313.241 179,295.5C 173.846,280.548 168.846,265.548 164,250.5C 162.392,246.646 159.726,245.646 156,247.5C 152.052,252.992 150.552,259.159 151.5,266C 151.628,281.05 155.795,294.884 164,307.5C 174.214,321.388 185.548,334.388 198,346.5C 200.164,349.447 200.998,352.781 200.5,356.5C 178.762,346.267 161.929,330.601 150,309.5C 138.671,287.2 134.338,263.533 137,238.5C 145.261,221.861 157.427,218.361 173.5,228C 176.057,230.892 178.224,234.059 180,237.5C 183.385,251.99 187.385,266.324 192,280.5C 195.359,290.729 200.859,299.562 208.5,307C 216.573,312.635 224.906,312.968 233.5,308C 238.259,303.509 239.759,298.009 238,291.5C 229.39,274.212 217.724,259.212 203,246.5C 191.621,228.005 193.454,210.838 208.5,195C 212.221,192.473 216.221,190.473 220.5,189C 230.086,187.25 239.753,186.416 249.5,186.5C 267.162,187.427 284.828,187.594 302.5,187C 316.197,184.208 317.864,178.208 307.5,169C 293.054,159.648 277.387,156.648 260.5,160C 246.45,164.127 232.45,168.461 218.5,173C 211.95,174.981 205.283,175.648 198.5,175C 192.723,172.279 190.556,167.779 192,161.5C 195.251,152.599 200.418,145.099 207.5,139C 213.619,136.627 219.786,134.461 226,132.5C 218.861,147.662 223.361,152.495 239.5,147C 248.193,141.105 257.193,135.939 266.5,131.5 Z"/></g>
<g><path style="opacity:1" fill="#fdfae8" d="M 303.5,456.5 C 277.026,463.161 250.36,464.161 223.5,459.5C 241.816,460.585 260.149,460.751 278.5,460C 286.858,458.625 295.192,457.458 303.5,456.5 Z"/></g>
</svg>
