<?xml version="1.0" encoding="UTF-8"?>
<!DOCTYPE svg PUBLIC "-//W3C//DTD SVG 1.1//EN" "http://www.w3.org/Graphics/SVG/1.1/DTD/svg11.dtd">
<svg xmlns="http://www.w3.org/2000/svg" version="1.1" width="500px" height="500px" style="shape-rendering:geometricPrecision; text-rendering:geometricPrecision; image-rendering:optimizeQuality; fill-rule:evenodd; clip-rule:evenodd" xmlns:xlink="http://www.w3.org/1999/xlink">
<g><path style="opacity:1" fill="#a10e07" d="M 74.5,219.5 C 74.761,212.928 74.0943,206.594 72.5,200.5C 69.7904,172.975 69.957,145.308 73,117.5C 73.056,114.22 73.8893,111.22 75.5,108.5C 131.525,91.1029 187.525,73.6029 243.5,56C 246.126,55.005 248.793,54.6717 251.5,55C 309.151,72.9942 366.818,90.8275 424.5,108.5C 431.688,165.234 427.855,221.234 413,276.5C 398.231,331.264 369.064,376.43 325.5,412C 302.342,428.958 277.009,441.791 249.5,450.5C 173.804,426.306 121.971,376.973 94,302.5C 83.9958,275.643 77.4958,247.977 74.5,219.5 Z"/></g>
<g><path style="opacity:1" fill="#faf7f6" d="M 81.5,191.5 C 81.4168,169.492 81.7502,147.492 82.5,125.5C 82.2572,122.117 82.9239,118.951 84.5,116C 139.295,98.457 194.295,81.6237 249.5,65.5C 304.606,82.0358 359.606,98.8691 414.5,116C 424.493,183.896 416.659,249.73 391,313.5C 363.035,377.46 315.701,419.46 249,439.5C 184.918,419.087 138.585,378.42 110,317.5C 92.5552,277.324 83.0552,235.324 81.5,191.5 Z"/></g>
<g><path style="opacity:1" fill="#030001" d="M 247.5,75.5 C 300.293,91.1525 352.96,107.319 405.5,124C 413.844,184.303 407.677,243.136 387,300.5C 361.532,365.137 315.699,407.804 249.5,428.5C 185.92,409.09 141.086,368.757 115,307.5C 91.9507,248.029 84.784,186.696 93.5,123.5C 145.002,107.664 196.335,91.6637 247.5,75.5 Z"/></g>
<g><path style="opacity:1" fill="#850b0d" d="M 340.5,140.5 C 336.886,136.392 332.553,133.225 327.5,131C 325.203,130.982 322.869,131.149 320.5,131.5C 320.5,130.5 320.5,129.5 320.5,128.5C 310.724,127.856 301.391,129.522 292.5,133.5C 296.545,130.423 301.211,128.589 306.5,128C 317.132,125.92 326.798,127.92 335.5,134C 337.79,135.777 339.457,137.944 340.5,140.5 Z"/></g>
<g><path style="opacity:1" fill="#6d0a0c" d="M 210.5,135.5 C 213.778,136.809 216.778,138.642 219.5,141C 217.5,141.667 215.5,141.667 213.5,141C 208.218,138.494 202.885,137.661 197.5,138.5C 193.473,137.861 189.473,137.028 185.5,136C 193.227,135.449 200.894,135.949 208.5,137.5C 209.713,137.253 210.38,136.586 210.5,135.5 Z"/></g>
<g><path style="opacity:1" fill="#8d0c0b" d="M 292.5,133.5 C 291.289,135.563 292.123,136.563 295,136.5C 302.503,135.289 310.003,135.289 317.5,136.5C 317.291,137.086 316.957,137.586 316.5,138C 310.807,138.858 305.141,139.858 299.5,141C 299.527,142.526 300.027,144.026 301,145.5C 298.508,144.749 296.841,143.749 296,142.5C 292.859,143.603 289.693,144.603 286.5,145.5C 287.749,143.864 289.416,142.697 291.5,142C 296.748,140.212 302.081,138.546 307.5,137C 298.461,137.102 289.627,138.602 281,141.5C 279.437,140.898 279.604,140.065 281.5,139C 284.91,136.628 288.577,134.795 292.5,133.5 Z"/></g>
<g><path style="opacity:1" fill="#a40605" d="M 210.5,135.5 C 210.38,136.586 209.713,137.253 208.5,137.5C 200.894,135.949 193.227,135.449 185.5,136C 189.473,137.028 193.473,137.861 197.5,138.5C 202.495,140.344 207.495,142.51 212.5,145C 214.24,146.517 215.906,148.017 217.5,149.5C 217.714,151.144 217.38,152.644 216.5,154C 217.263,154.944 218.263,155.444 219.5,155.5C 220.864,154.957 222.197,154.79 223.5,155C 225.35,157.018 227.35,158.851 229.5,160.5C 230.246,161.736 230.579,163.07 230.5,164.5C 228.143,164.337 225.81,164.503 223.5,165C 222.256,170.5 219.423,171.666 215,168.5C 215.218,166.413 215.051,164.413 214.5,162.5C 212.149,161.287 210.316,161.953 209,164.5C 208.329,163.748 207.496,163.414 206.5,163.5C 194.659,155.887 181.659,151.887 167.5,151.5C 161.98,151.513 156.813,152.846 152,155.5C 153.131,143.283 159.631,134.45 171.5,129C 185.61,125.624 198.61,127.791 210.5,135.5 Z"/></g>
<g><path style="opacity:1" fill="#920a0c" d="M 340.5,140.5 C 344.691,144.552 347.024,149.552 347.5,155.5C 334.461,150.241 321.461,150.241 308.5,155.5C 308.804,154.85 309.137,154.183 309.5,153.5C 311.5,152.833 313.5,152.167 315.5,151.5C 322.833,150.833 330.167,150.167 337.5,149.5C 337.291,148.914 336.957,148.414 336.5,148C 338.059,147.02 339.726,146.187 341.5,145.5C 340.691,143.929 340.357,142.262 340.5,140.5 Z"/></g>
<g><path style="opacity:1" fill="#a70505" d="M 340.5,140.5 C 340.357,142.262 340.691,143.929 341.5,145.5C 339.726,146.187 338.059,147.02 336.5,148C 336.957,148.414 337.291,148.914 337.5,149.5C 330.167,150.167 322.833,150.833 315.5,151.5C 313.5,152.167 311.5,152.833 309.5,153.5C 309.137,154.183 308.804,154.85 308.5,155.5C 303.186,157.3 298.186,159.8 293.5,163C 289.292,166.713 284.959,170.213 280.5,173.5C 278.5,173.5 276.5,173.5 274.5,173.5C 275.342,170.846 275.842,168.179 276,165.5C 274.266,164.751 272.433,164.251 270.5,164C 269.663,162.989 269.33,161.822 269.5,160.5C 270.822,160.33 271.989,160.663 273,161.5C 274.41,157.909 276.576,154.409 279.5,151C 281.701,150.175 283.534,150.675 285,152.5C 285.414,152.043 285.914,151.709 286.5,151.5C 286.92,149.674 286.92,147.674 286.5,145.5C 289.693,144.603 292.859,143.603 296,142.5C 296.841,143.749 298.508,144.749 301,145.5C 300.027,144.026 299.527,142.526 299.5,141C 305.141,139.858 310.807,138.858 316.5,138C 316.957,137.586 317.291,137.086 317.5,136.5C 310.003,135.289 302.503,135.289 295,136.5C 292.123,136.563 291.289,135.563 292.5,133.5C 301.391,129.522 310.724,127.856 320.5,128.5C 320.5,129.5 320.5,130.5 320.5,131.5C 322.869,131.149 325.203,130.982 327.5,131C 332.553,133.225 336.886,136.392 340.5,140.5 Z"/></g>
<g><path style="opacity:1" fill="#920b0c" d="M 286.5,145.5 C 286.92,147.674 286.92,149.674 286.5,151.5C 285.914,151.709 285.414,152.043 285,152.5C 283.534,150.675 281.701,150.175 279.5,151C 276.576,154.409 274.41,157.909 273,161.5C 271.989,160.663 270.822,160.33 269.5,160.5C 269.33,161.822 269.663,162.989 270.5,164C 272.433,164.251 274.266,164.751 276,165.5C 275.842,168.179 275.342,170.846 274.5,173.5C 276.5,173.5 278.5,173.5 280.5,173.5C 276.166,178.671 272,184.005 268,189.5C 267.333,187.167 267.333,184.833 268,182.5C 270.167,177.161 272.334,171.827 274.5,166.5C 272.257,165.526 269.924,165.192 267.5,165.5C 267.338,163.473 267.505,161.473 268,159.5C 273.495,153.824 279.662,149.158 286.5,145.5 Z"/></g>
<g><path style="opacity:1" fill="#fbd8d7" d="M 82.5,125.5 C 81.7502,147.492 81.4168,169.492 81.5,191.5C 80.8336,183.007 80.5002,174.34 80.5,165.5C 80.3451,151.968 81.0118,138.635 82.5,125.5 Z"/></g>
<g><path style="opacity:1" fill="#930a0c" d="M 217.5,149.5 C 222.049,151.869 226.215,154.869 230,158.5C 231.202,160.677 231.702,163.011 231.5,165.5C 229.076,165.192 226.743,165.526 224.5,166.5C 228.564,173.763 230.564,181.429 230.5,189.5C 223.525,179.86 215.525,171.193 206.5,163.5C 207.496,163.414 208.329,163.748 209,164.5C 210.316,161.953 212.149,161.287 214.5,162.5C 215.051,164.413 215.218,166.413 215,168.5C 219.423,171.666 222.256,170.5 223.5,165C 225.81,164.503 228.143,164.337 230.5,164.5C 230.579,163.07 230.246,161.736 229.5,160.5C 227.35,158.851 225.35,157.018 223.5,155C 222.197,154.79 220.864,154.957 219.5,155.5C 218.263,155.444 217.263,154.944 216.5,154C 217.38,152.644 217.714,151.144 217.5,149.5 Z"/></g>
<g><path style="opacity:1" fill="#320300" d="M 299.5,181.5 C 299.082,182.222 298.416,182.722 297.5,183C 301.025,183.179 304.359,183.679 307.5,184.5C 298.441,183.515 290.108,185.515 282.5,190.5C 282.167,190.333 281.833,190.167 281.5,190C 286.835,185.833 292.835,183 299.5,181.5 Z"/></g>
<g><path style="opacity:1" fill="#210200" d="M 193.5,177.5 C 194.158,178.398 194.824,179.398 195.5,180.5C 196.182,179.757 196.849,179.091 197.5,178.5C 197.33,179.822 197.663,180.989 198.5,182C 206.002,183.273 212.669,186.273 218.5,191C 213.773,188.821 208.773,186.821 203.5,185C 197.984,184.183 192.65,184.349 187.5,185.5C 182.768,185.627 178.768,187.293 175.5,190.5C 167.786,193.793 167.453,192.293 174.5,186C 180.237,182.155 186.57,180.655 193.5,181.5C 193.5,180.167 193.5,178.833 193.5,177.5 Z"/></g>
<g><path style="opacity:1" fill="#a50605" d="M 314.5,186.5 C 318.052,187.276 321.386,188.609 324.5,190.5C 327.48,191.829 328.813,194.163 328.5,197.5C 320.477,200.226 312.144,201.559 303.5,201.5C 296.507,201.777 289.84,200.777 283.5,198.5C 282.365,196.787 280.698,196.12 278.5,196.5C 278.5,197.5 278.5,198.5 278.5,199.5C 274.929,199.592 273.762,197.926 275,194.5C 275.333,194.833 275.667,195.167 276,195.5C 280.286,191.765 284.453,191.765 288.5,195.5C 289.5,195.167 290.5,194.833 291.5,194.5C 290.092,193.757 288.759,192.923 287.5,192C 290.742,191.717 291.076,190.883 288.5,189.5C 291.447,188.679 294.447,188.179 297.5,188C 296.167,187.667 294.833,187.333 293.5,187C 300.492,186.5 307.492,186.334 314.5,186.5 Z"/></g>
<g><path style="opacity:1" fill="#a80504" d="M 187.5,185.5 C 193.484,186.074 199.484,186.407 205.5,186.5C 205.187,189.247 205.52,191.914 206.5,194.5C 208.996,190.031 211.996,189.531 215.5,193C 213.423,193.192 211.423,193.692 209.5,194.5C 210.737,195.281 211.737,196.281 212.5,197.5C 203.023,200.083 193.356,201.083 183.5,200.5C 180.124,199.924 176.791,199.257 173.5,198.5C 172.859,197.518 172.193,196.518 171.5,195.5C 172.857,193.814 174.19,192.148 175.5,190.5C 178.768,187.293 182.768,185.627 187.5,185.5 Z"/></g>
<g><path style="opacity:1" fill="#8d0c0c" d="M 193.5,177.5 C 193.5,178.833 193.5,180.167 193.5,181.5C 186.57,180.655 180.237,182.155 174.5,186C 167.453,192.293 167.786,193.793 175.5,190.5C 174.19,192.148 172.857,193.814 171.5,195.5C 172.193,196.518 172.859,197.518 173.5,198.5C 171.248,198.084 169.748,196.751 169,194.5C 167.812,195.563 167.312,196.897 167.5,198.5C 166.835,196.631 166.169,194.631 165.5,192.5C 163.953,193.768 162.953,195.435 162.5,197.5C 162.709,198.086 163.043,198.586 163.5,199C 161.941,199.98 160.274,200.813 158.5,201.5C 162.107,202.489 165.774,202.823 169.5,202.5C 169.5,203.5 169.5,204.5 169.5,205.5C 161.987,202.435 154.82,203.101 148,207.5C 147.5,207.167 147,206.833 146.5,206.5C 148.359,204.808 150.359,203.308 152.5,202C 150.167,202.333 147.833,202.667 145.5,203C 147.641,201.692 149.641,200.192 151.5,198.5C 149.711,197.377 149.378,196.044 150.5,194.5C 153.674,196.969 157.007,197.136 160.5,195C 165.616,187.879 171.95,182.212 179.5,178C 184.155,177.501 188.821,177.334 193.5,177.5 Z"/></g>
<g><path style="opacity:1" fill="#970a0a" d="M 207.5,208.5 C 204.193,209.051 200.86,209.384 197.5,209.5C 197.5,207.5 197.5,205.5 197.5,203.5C 204.757,204.184 211.423,202.684 217.5,199C 213.232,199.516 208.899,200.183 204.5,201C 197.321,201.821 190.321,201.655 183.5,200.5C 193.356,201.083 203.023,200.083 212.5,197.5C 211.737,196.281 210.737,195.281 209.5,194.5C 211.423,193.692 213.423,193.192 215.5,193C 211.996,189.531 208.996,190.031 206.5,194.5C 205.52,191.914 205.187,189.247 205.5,186.5C 199.484,186.407 193.484,186.074 187.5,185.5C 192.65,184.349 197.984,184.183 203.5,185C 208.773,186.821 213.773,188.821 218.5,191C 212.669,186.273 206.002,183.273 198.5,182C 197.663,180.989 197.33,179.822 197.5,178.5C 205.993,179.169 213.993,182.002 221.5,187C 226.262,191.578 226.595,196.412 222.5,201.5C 217.806,204.683 212.806,207.016 207.5,208.5 Z"/></g>
<g><path style="opacity:1" fill="#9c0909" d="M 341.5,196.5 C 342.718,197.161 344.051,197.828 345.5,198.5C 343.665,199.428 343.332,200.594 344.5,202C 340.312,202.176 336.312,202.676 332.5,203.5C 328.448,206.62 323.782,208.287 318.5,208.5C 314.5,208.5 310.5,208.5 306.5,208.5C 306.5,207.167 306.5,205.833 306.5,204.5C 315.624,205.667 324.124,204 332,199.5C 332.765,197.934 332.598,196.601 331.5,195.5C 330.299,193.091 328.633,191.091 326.5,189.5C 320.678,183.111 313.345,180.444 304.5,181.5C 304.5,180.167 304.5,178.833 304.5,177.5C 312.413,176.416 319.747,177.916 326.5,182C 330.601,186.857 334.934,191.524 339.5,196C 340.094,196.464 340.761,196.631 341.5,196.5 Z"/></g>
<g><path style="opacity:1" fill="#710d0f" d="M 236.5,236.5 C 236.667,224.829 236.5,213.162 236,201.5C 234.345,207.484 232.679,213.484 231,219.5C 229.884,222.756 228.051,225.422 225.5,227.5C 231.722,214.981 235.222,201.648 236,187.5C 237.107,196.275 237.607,205.109 237.5,214C 237.5,221.674 237.166,229.174 236.5,236.5 Z"/></g>
<g><path style="opacity:1" fill="#910b0b" d="M 299.5,181.5 C 292.835,183 286.835,185.833 281.5,190C 281.833,190.167 282.167,190.333 282.5,190.5C 290.108,185.515 298.441,183.515 307.5,184.5C 310.01,184.927 312.343,185.593 314.5,186.5C 307.492,186.334 300.492,186.5 293.5,187C 294.833,187.333 296.167,187.667 297.5,188C 294.447,188.179 291.447,188.679 288.5,189.5C 291.076,190.883 290.742,191.717 287.5,192C 288.759,192.923 290.092,193.757 291.5,194.5C 290.5,194.833 289.5,195.167 288.5,195.5C 284.453,191.765 280.286,191.765 276,195.5C 275.667,195.167 275.333,194.833 275,194.5C 273.762,197.926 274.929,199.592 278.5,199.5C 278.5,198.5 278.5,197.5 278.5,196.5C 280.698,196.12 282.365,196.787 283.5,198.5C 282.448,198.351 281.448,198.517 280.5,199C 286.41,203.105 293.077,204.605 300.5,203.5C 301.461,205.265 301.795,207.265 301.5,209.5C 290.873,209.895 281.706,206.561 274,199.5C 273.333,196.5 273.333,193.5 274,190.5C 281.488,182.724 290.655,178.724 301.5,178.5C 301.715,180.179 301.048,181.179 299.5,181.5 Z"/></g>
<g><path style="opacity:1" fill="#740d0f" d="M 348.5,199.5 C 348.119,200.931 347.119,201.764 345.5,202C 347.063,202.759 348.063,203.926 348.5,205.5C 343.337,203.817 338.004,203.15 332.5,203.5C 336.312,202.676 340.312,202.176 344.5,202C 343.332,200.594 343.665,199.428 345.5,198.5C 344.051,197.828 342.718,197.161 341.5,196.5C 345.67,197.007 348.67,195.341 350.5,191.5C 350.833,191.833 351.167,192.167 351.5,192.5C 350.559,194.772 349.226,196.772 347.5,198.5C 347.624,199.107 347.957,199.44 348.5,199.5 Z"/></g>
<g><path style="opacity:1" fill="#240200" d="M 326.5,189.5 C 328.633,191.091 330.299,193.091 331.5,195.5C 331.67,196.822 331.337,197.989 330.5,199C 322.511,202.364 314.177,203.864 305.5,203.5C 303.833,202.167 302.167,202.167 300.5,203.5C 293.077,204.605 286.41,203.105 280.5,199C 281.448,198.517 282.448,198.351 283.5,198.5C 289.84,200.777 296.507,201.777 303.5,201.5C 312.144,201.559 320.477,200.226 328.5,197.5C 328.813,194.163 327.48,191.829 324.5,190.5C 325.492,190.672 326.158,190.338 326.5,189.5 Z"/></g>
<g><path style="opacity:1" fill="#230300" d="M 173.5,198.5 C 176.791,199.257 180.124,199.924 183.5,200.5C 190.321,201.655 197.321,201.821 204.5,201C 208.899,200.183 213.232,199.516 217.5,199C 211.423,202.684 204.757,204.184 197.5,203.5C 197.5,205.5 197.5,207.5 197.5,209.5C 200.86,209.384 204.193,209.051 207.5,208.5C 205.538,210.017 203.205,210.684 200.5,210.5C 198.117,210.363 195.783,210.029 193.5,209.5C 193.5,207.5 193.5,205.5 193.5,203.5C 187.471,203.575 181.471,203.241 175.5,202.5C 172.608,201.606 169.941,200.272 167.5,198.5C 167.312,196.897 167.812,195.563 169,194.5C 169.748,196.751 171.248,198.084 173.5,198.5 Z"/></g>
<g><path style="opacity:1" fill="#860d0e" d="M 175.5,202.5 C 181.471,203.241 187.471,203.575 193.5,203.5C 193.5,205.5 193.5,207.5 193.5,209.5C 188.156,209.666 182.823,209.499 177.5,209C 174.599,208.125 171.932,206.958 169.5,205.5C 177.153,206.721 184.82,207.721 192.5,208.5C 192.5,207.167 192.5,205.833 192.5,204.5C 186.402,205.117 180.735,204.45 175.5,202.5 Z"/></g>
<g><path style="opacity:1" fill="#830c0f" d="M 331.5,195.5 C 332.598,196.601 332.765,197.934 332,199.5C 324.124,204 315.624,205.667 306.5,204.5C 306.5,205.833 306.5,207.167 306.5,208.5C 310.5,208.5 314.5,208.5 318.5,208.5C 314.03,209.486 309.363,209.819 304.5,209.5C 304.205,207.265 304.539,205.265 305.5,203.5C 314.177,203.864 322.511,202.364 330.5,199C 331.337,197.989 331.67,196.822 331.5,195.5 Z"/></g>
<g><path style="opacity:1" fill="#a30706" d="M 167.5,198.5 C 169.941,200.272 172.608,201.606 175.5,202.5C 180.735,204.45 186.402,205.117 192.5,204.5C 192.5,205.833 192.5,207.167 192.5,208.5C 184.82,207.721 177.153,206.721 169.5,205.5C 169.5,204.5 169.5,203.5 169.5,202.5C 165.774,202.823 162.107,202.489 158.5,201.5C 160.274,200.813 161.941,199.98 163.5,199C 163.043,198.586 162.709,198.086 162.5,197.5C 162.953,195.435 163.953,193.768 165.5,192.5C 166.169,194.631 166.835,196.631 167.5,198.5 Z"/></g>
<g><path style="opacity:1" fill="#460f14" d="M 348.5,199.5 C 351.166,200.842 353.499,202.675 355.5,205C 354.692,205.308 354.025,205.808 353.5,206.5C 354.648,208.149 355.981,209.649 357.5,211C 353.857,210.409 350.857,208.576 348.5,205.5C 348.063,203.926 347.063,202.759 345.5,202C 347.119,201.764 348.119,200.931 348.5,199.5 Z"/></g>
<g><path style="opacity:0.098" fill="#631402" d="M 72.5,200.5 C 74.0943,206.594 74.761,212.928 74.5,219.5C 73.1208,213.383 72.4541,207.05 72.5,200.5 Z"/></g>
<g><path style="opacity:1" fill="#9f0706" d="M 264.5,202.5 C 266.722,212.629 270.389,222.296 275.5,231.5C 276.83,235.402 275.497,236.402 271.5,234.5C 270.081,233.549 268.415,233.216 266.5,233.5C 266.824,237.555 266.491,241.555 265.5,245.5C 264.963,239.023 264.129,232.689 263,226.5C 262.333,218.167 262.333,209.833 263,201.5C 263.383,202.056 263.883,202.389 264.5,202.5 Z"/></g>
<g><path style="opacity:1" fill="#a00908" d="M 236.5,236.5 C 235.914,240.854 235.248,245.188 234.5,249.5C 233.835,251.369 233.169,253.369 232.5,255.5C 231.669,248.189 231.169,240.856 231,233.5C 228.973,233.014 226.807,233.014 224.5,233.5C 224.517,231.435 224.85,229.435 225.5,227.5C 228.051,225.422 229.884,222.756 231,219.5C 232.679,213.484 234.345,207.484 236,201.5C 236.5,213.162 236.667,224.829 236.5,236.5 Z"/></g>
<g><path style="opacity:1" fill="#850b10" d="M 275.5,231.5 C 280.236,235.745 284.069,240.745 287,246.5C 287.903,250.033 287.57,253.367 286,256.5C 285.794,253.377 285.127,250.377 284,247.5C 279.63,243.298 275.463,238.964 271.5,234.5C 275.497,236.402 276.83,235.402 275.5,231.5 Z"/></g>
<g><path style="opacity:1" fill="#890c0c" d="M 264.5,202.5 C 263.883,202.389 263.383,202.056 263,201.5C 262.333,209.833 262.333,218.167 263,226.5C 264.129,232.689 264.963,239.023 265.5,245.5C 266.491,241.555 266.824,237.555 266.5,233.5C 268.415,233.216 270.081,233.549 271.5,234.5C 270.5,234.5 269.5,234.5 268.5,234.5C 268.535,239.683 268.868,244.85 269.5,250C 267.923,262.061 260.923,267.895 248.5,267.5C 235.562,267.396 229.229,260.896 229.5,248C 229.767,243.488 230.101,238.988 230.5,234.5C 223.7,237.453 218.2,242.12 214,248.5C 213.667,251.167 213.333,253.833 213,256.5C 211.42,253.028 211.087,249.362 212,245.5C 215.979,239.033 220.479,233.033 225.5,227.5C 224.85,229.435 224.517,231.435 224.5,233.5C 226.807,233.014 228.973,233.014 231,233.5C 231.169,240.856 231.669,248.189 232.5,255.5C 233.169,253.369 233.835,251.369 234.5,249.5C 232.918,257.081 235.918,261.581 243.5,263C 250.449,263.978 256.783,262.478 262.5,258.5C 263.619,251.156 263.453,243.823 262,236.5C 261.333,221.5 261.333,206.5 262,191.5C 262.333,190.833 262.667,190.167 263,189.5C 264.075,193.77 264.575,198.103 264.5,202.5 Z"/></g>
<g><path style="opacity:1" fill="#920b0b" d="M 177.5,268.5 C 173.255,265.794 170.922,267.128 170.5,272.5C 171.5,272.5 172.5,272.5 173.5,272.5C 173.405,275.692 174.071,278.692 175.5,281.5C 171.248,275.289 167.081,268.956 163,262.5C 161.736,260.393 159.903,259.393 157.5,259.5C 157.704,261.685 158.37,263.685 159.5,265.5C 157.133,264.129 155.467,262.129 154.5,259.5C 153.349,258.269 152.183,258.269 151,259.5C 151.825,264.135 152.992,268.801 154.5,273.5C 151.816,269.465 149.649,265.132 148,260.5C 147.699,257.02 146.865,253.687 145.5,250.5C 145.833,249.833 146.167,249.167 146.5,248.5C 149.928,252.548 154.261,255.048 159.5,256C 171.033,257.75 182.033,256.083 192.5,251C 196.854,248.329 201.187,245.996 205.5,244C 206.804,244.804 207.471,245.971 207.5,247.5C 206.359,249.808 204.692,251.641 202.5,253C 193.267,257.058 183.6,259.391 173.5,260C 173.043,260.414 172.709,260.914 172.5,261.5C 174.605,263.592 176.272,265.925 177.5,268.5 Z"/></g>
<g><path style="opacity:1" fill="#8a0b0d" d="M 347.5,266.5 C 347.886,261.99 348.886,257.657 350.5,253.5C 349.5,253.5 348.5,253.5 347.5,253.5C 347.5,254.5 347.5,255.5 347.5,256.5C 345.712,256.215 344.045,256.548 342.5,257.5C 343.183,261.818 341.849,265.485 338.5,268.5C 339.1,265.702 340.1,263.035 341.5,260.5C 340.192,259.374 338.858,259.374 337.5,260.5C 334.663,258.598 331.329,257.931 327.5,258.5C 327.66,260.199 327.494,261.866 327,263.5C 323.307,265.621 321.807,268.621 322.5,272.5C 320.742,274.738 318.408,275.738 315.5,275.5C 318.853,270.487 322.186,265.487 325.5,260.5C 314.997,259.942 304.997,257.442 295.5,253C 290.849,249.997 290.516,246.83 294.5,243.5C 301.743,249.788 310.076,253.955 319.5,256C 326.5,256.667 333.5,256.667 340.5,256C 345.412,254.292 349.579,251.458 353,247.5C 352.672,254.311 350.839,260.644 347.5,266.5 Z"/></g>
<g><path style="opacity:1" fill="#860e10" d="M 270.5,260.5 C 272.833,260.5 275.167,260.5 277.5,260.5C 277.67,261.822 277.337,262.989 276.5,264C 273.568,265.145 270.568,265.978 267.5,266.5C 267.615,264.053 268.615,262.053 270.5,260.5 Z"/></g>
<g><path style="opacity:1" fill="#880f12" d="M 221.5,260.5 C 225.192,259.971 228.358,260.971 231,263.5C 231.483,264.448 231.649,265.448 231.5,266.5C 228.68,266.752 226.014,266.252 223.5,265C 221.963,263.89 221.297,262.39 221.5,260.5 Z"/></g>
<g><path style="opacity:1" fill="#a80505" d="M 337.5,260.5 C 336.599,261.29 335.932,262.29 335.5,263.5C 332.5,263.167 331.167,264.5 331.5,267.5C 330.5,267.5 329.5,267.5 328.5,267.5C 328.5,269.167 328.5,270.833 328.5,272.5C 325.355,273.077 323.855,275.077 324,278.5C 322.915,277.707 321.748,277.04 320.5,276.5C 318.807,278.027 316.973,279.36 315,280.5C 314.616,278.803 314.782,277.137 315.5,275.5C 318.408,275.738 320.742,274.738 322.5,272.5C 321.807,268.621 323.307,265.621 327,263.5C 327.494,261.866 327.66,260.199 327.5,258.5C 331.329,257.931 334.663,258.598 337.5,260.5 Z"/></g>
<g><path style="opacity:1" fill="#800e0e" d="M 271.5,276.5 C 269.37,274.873 267.37,273.04 265.5,271C 264.5,270.833 263.5,270.667 262.5,270.5C 253.675,273.135 244.842,273.135 236,270.5C 234.408,270.605 232.908,270.939 231.5,271.5C 231.484,269.516 232.484,268.516 234.5,268.5C 239.089,269.92 243.755,270.92 248.5,271.5C 254.429,270.016 260.429,269.516 266.5,270C 268.79,271.777 270.457,273.944 271.5,276.5 Z"/></g>
<g><path style="opacity:1" fill="#9d0808" d="M 347.5,266.5 C 339.778,286.293 328.778,303.96 314.5,319.5C 313.624,319.631 312.957,319.298 312.5,318.5C 313.127,317.583 313.461,316.583 313.5,315.5C 315.376,311.19 317.71,307.19 320.5,303.5C 322.043,302.264 323.043,300.598 323.5,298.5C 322.465,296.872 322.465,295.205 323.5,293.5C 326.234,290.375 328.734,287.042 331,283.5C 332.487,277.887 334.987,272.887 338.5,268.5C 341.849,265.485 343.183,261.818 342.5,257.5C 344.045,256.548 345.712,256.215 347.5,256.5C 347.5,255.5 347.5,254.5 347.5,253.5C 348.5,253.5 349.5,253.5 350.5,253.5C 348.886,257.657 347.886,261.99 347.5,266.5 Z"/></g>
<g><path style="opacity:1" fill="#9f0707" d="M 159.5,265.5 C 162.574,272.648 165.908,279.648 169.5,286.5C 169.006,290.527 170.506,293.527 174,295.5C 174.019,298.308 175.019,300.641 177,302.5C 177.167,303.5 177.333,304.5 177.5,305.5C 177.36,307.03 176.693,308.03 175.5,308.5C 166.725,297.958 159.725,286.291 154.5,273.5C 152.992,268.801 151.825,264.135 151,259.5C 152.183,258.269 153.349,258.269 154.5,259.5C 155.467,262.129 157.133,264.129 159.5,265.5 Z"/></g>
<g><path style="opacity:1" fill="#090000" d="M 263.5,294.5 C 263.833,295.167 264.167,295.833 264.5,296.5C 254.675,297.658 244.675,297.825 234.5,297C 235.252,296.329 235.586,295.496 235.5,294.5C 237.098,292.302 238.431,289.969 239.5,287.5C 242.165,285.36 244.498,282.86 246.5,280C 248.5,279.333 250.5,279.333 252.5,280C 256.054,284.953 259.721,289.786 263.5,294.5 Z"/></g>
<g><path style="opacity:1" fill="#94090a" d="M 177.5,268.5 C 182.301,273.472 186.968,278.638 191.5,284C 201.987,284.866 212.321,284.032 222.5,281.5C 212.495,286.531 201.829,287.864 190.5,285.5C 189.749,286.376 189.249,287.376 189,288.5C 187.029,286.192 185.029,283.858 183,281.5C 183,280.167 183,278.833 183,277.5C 181.286,276.075 179.953,276.408 179,278.5C 178.607,276.801 179.107,275.301 180.5,274C 179.259,272.269 178.259,270.436 177.5,268.5 Z"/></g>
<g><path style="opacity:1" fill="#a70504" d="M 177.5,268.5 C 178.259,270.436 179.259,272.269 180.5,274C 179.107,275.301 178.607,276.801 179,278.5C 179.953,276.408 181.286,276.075 183,277.5C 183,278.833 183,280.167 183,281.5C 185.029,283.858 187.029,286.192 189,288.5C 189.249,287.376 189.749,286.376 190.5,285.5C 201.829,287.864 212.495,286.531 222.5,281.5C 224.788,277.544 227.788,274.211 231.5,271.5C 232.908,270.939 234.408,270.605 236,270.5C 244.842,273.135 253.675,273.135 262.5,270.5C 263.5,270.667 264.5,270.833 265.5,271C 267.37,273.04 269.37,274.873 271.5,276.5C 272.039,281.165 274.372,284.498 278.5,286.5C 288.436,286.457 298.436,286.29 308.5,286C 310.863,285.411 311.863,283.911 311.5,281.5C 314.845,282.379 318.012,282.379 321,281.5C 319.368,284.237 317.868,287.237 316.5,290.5C 314.799,290.966 313.299,290.966 312,290.5C 311.51,291.793 311.343,293.127 311.5,294.5C 296.869,295.45 282.202,295.784 267.5,295.5C 266.167,295.167 264.833,294.833 263.5,294.5C 259.721,289.786 256.054,284.953 252.5,280C 250.5,279.333 248.5,279.333 246.5,280C 244.498,282.86 242.165,285.36 239.5,287.5C 238.5,287.5 237.5,287.5 236.5,287.5C 236.714,289.144 236.38,290.644 235.5,292C 230.905,294.04 226.071,295.207 221,295.5C 209.522,294.719 198.022,294.219 186.5,294C 183.603,292.285 182.269,289.785 182.5,286.5C 179.5,286.833 178.167,285.5 178.5,282.5C 177.5,282.5 176.5,282.5 175.5,282.5C 175.5,282.167 175.5,281.833 175.5,281.5C 174.071,278.692 173.405,275.692 173.5,272.5C 172.5,272.5 171.5,272.5 170.5,272.5C 170.922,267.128 173.255,265.794 177.5,268.5 Z"/></g>
<g><path style="opacity:1" fill="#950c0c" d="M 335.5,263.5 C 329.526,272.482 323.526,281.482 317.5,290.5C 315.005,293.341 312.005,295.341 308.5,296.5C 294.656,296.829 280.99,296.496 267.5,295.5C 282.202,295.784 296.869,295.45 311.5,294.5C 311.343,293.127 311.51,291.793 312,290.5C 313.299,290.966 314.799,290.966 316.5,290.5C 317.868,287.237 319.368,284.237 321,281.5C 318.012,282.379 314.845,282.379 311.5,281.5C 311.863,283.911 310.863,285.411 308.5,286C 298.436,286.29 288.436,286.457 278.5,286.5C 274.372,284.498 272.039,281.165 271.5,276.5C 278.518,282.727 286.852,285.393 296.5,284.5C 300.167,284.333 303.833,284.167 307.5,284C 310.067,280.997 312.734,278.164 315.5,275.5C 314.782,277.137 314.616,278.803 315,280.5C 316.973,279.36 318.807,278.027 320.5,276.5C 321.748,277.04 322.915,277.707 324,278.5C 323.855,275.077 325.355,273.077 328.5,272.5C 328.5,270.833 328.5,269.167 328.5,267.5C 329.5,267.5 330.5,267.5 331.5,267.5C 331.167,264.5 332.5,263.167 335.5,263.5 Z"/></g>
<g><path style="opacity:1" fill="#950b0c" d="M 175.5,282.5 C 176.5,282.5 177.5,282.5 178.5,282.5C 178.167,285.5 179.5,286.833 182.5,286.5C 182.269,289.785 183.603,292.285 186.5,294C 198.022,294.219 209.522,294.719 221,295.5C 226.071,295.207 230.905,294.04 235.5,292C 236.38,290.644 236.714,289.144 236.5,287.5C 237.5,287.5 238.5,287.5 239.5,287.5C 238.431,289.969 237.098,292.302 235.5,294.5C 234.5,295.167 233.5,295.833 232.5,296.5C 217.471,296.768 202.471,296.434 187.5,295.5C 182.135,292.467 178.135,288.134 175.5,282.5 Z"/></g>
<g><path style="opacity:1" fill="#600204" d="M 187.5,295.5 C 202.471,296.434 217.471,296.768 232.5,296.5C 228.702,297.483 224.702,297.817 220.5,297.5C 210.161,297.666 199.828,297.5 189.5,297C 188.584,296.722 187.918,296.222 187.5,295.5 Z"/></g>
<g><path style="opacity:1" fill="#620002" d="M 263.5,294.5 C 264.833,294.833 266.167,295.167 267.5,295.5C 280.99,296.496 294.656,296.829 308.5,296.5C 299.014,297.494 289.348,297.827 279.5,297.5C 274.405,297.779 269.405,297.445 264.5,296.5C 264.167,295.833 263.833,295.167 263.5,294.5 Z"/></g>
<g><path style="opacity:1" fill="#310200" d="M 235.5,294.5 C 235.586,295.496 235.252,296.329 234.5,297C 244.675,297.825 254.675,297.658 264.5,296.5C 269.405,297.445 274.405,297.779 279.5,297.5C 279.768,299.099 279.434,300.432 278.5,301.5C 278.586,300.504 278.252,299.671 277.5,299C 258.836,298.5 240.17,298.333 221.5,298.5C 221.5,299.5 221.5,300.5 221.5,301.5C 220.566,300.432 220.232,299.099 220.5,297.5C 224.702,297.817 228.702,297.483 232.5,296.5C 233.5,295.833 234.5,295.167 235.5,294.5 Z"/></g>
<g><path style="opacity:1" fill="#7a1717" d="M 278.5,301.5 C 277.5,301.5 276.5,301.5 275.5,301.5C 275.611,300.883 275.944,300.383 276.5,300C 258.5,299.333 240.5,299.333 222.5,300C 223.056,300.383 223.389,300.883 223.5,301.5C 222.833,301.5 222.167,301.5 221.5,301.5C 221.5,300.5 221.5,299.5 221.5,298.5C 240.17,298.333 258.836,298.5 277.5,299C 278.252,299.671 278.586,300.504 278.5,301.5 Z"/></g>
<g><path style="opacity:1" fill="#9a0b0b" d="M 275.5,301.5 C 271.5,301.833 267.5,302.167 263.5,302.5C 250.153,302.58 236.82,302.247 223.5,301.5C 223.389,300.883 223.056,300.383 222.5,300C 240.5,299.333 258.5,299.333 276.5,300C 275.944,300.383 275.611,300.883 275.5,301.5 Z"/></g>
<g><path style="opacity:1" fill="#621015" d="M 175.5,294.5 C 182.837,301.01 190.837,306.51 199.5,311C 191.154,309.823 184.154,305.99 178.5,299.5C 177.893,299.624 177.56,299.957 177.5,300.5C 176.522,300.189 175.855,299.522 175.5,298.5C 176.363,297.274 176.363,295.94 175.5,294.5 Z"/></g>
<g><path style="opacity:1" fill="#590102" d="M 223.5,301.5 C 236.82,302.247 250.153,302.58 263.5,302.5C 258.01,303.166 252.343,303.499 246.5,303.5C 238.6,303.718 230.934,303.051 223.5,301.5 Z"/></g>
<g><path style="opacity:1" fill="#631114" d="M 323.5,293.5 C 322.465,295.205 322.465,296.872 323.5,298.5C 323.043,300.598 322.043,302.264 320.5,303.5C 321.292,302.033 321.292,300.7 320.5,299.5C 314.63,304.539 308.13,308.539 301,311.5C 300.5,311.167 300,310.833 299.5,310.5C 308.631,306.359 316.631,300.693 323.5,293.5 Z"/></g>
<g><path style="opacity:1" fill="#8a0c0d" d="M 169.5,286.5 C 171.878,288.878 173.878,291.545 175.5,294.5C 176.363,295.94 176.363,297.274 175.5,298.5C 175.855,299.522 176.522,300.189 177.5,300.5C 183.988,312.14 190.988,323.474 198.5,334.5C 198.333,334.833 198.167,335.167 198,335.5C 189.539,327.208 182.039,318.208 175.5,308.5C 176.693,308.03 177.36,307.03 177.5,305.5C 177.333,304.5 177.167,303.5 177,302.5C 175.019,300.641 174.019,298.308 174,295.5C 170.506,293.527 169.006,290.527 169.5,286.5 Z"/></g>
<g><path style="opacity:1" fill="#430102" d="M 261.5,322.5 C 257.893,321.176 253.893,320.509 249.5,320.5C 245.107,320.509 241.107,321.176 237.5,322.5C 236.522,322.189 235.855,321.522 235.5,320.5C 244.833,319.167 254.167,319.167 263.5,320.5C 263.145,321.522 262.478,322.189 261.5,322.5 Z"/></g>
<g><path style="opacity:1" fill="#750e10" d="M 313.5,315.5 C 313.461,316.583 313.127,317.583 312.5,318.5C 312.957,319.298 313.624,319.631 314.5,319.5C 309.877,325.294 305.044,330.961 300,336.5C 299.833,336 299.667,335.5 299.5,335C 303.815,328.186 308.482,321.686 313.5,315.5 Z"/></g>
<g><path style="opacity:1" fill="#900d0f" d="M 261.5,322.5 C 260.833,323.833 259.833,324.833 258.5,325.5C 258.5,324.5 258.5,323.5 258.5,322.5C 252.5,322.5 246.5,322.5 240.5,322.5C 241.958,325.312 242.958,328.312 243.5,331.5C 241.779,337.7 240.779,344.034 240.5,350.5C 241.007,358.189 241.673,365.855 242.5,373.5C 238.981,359.863 238.648,346.03 241.5,332C 241.343,328.342 240.01,325.175 237.5,322.5C 241.107,321.176 245.107,320.509 249.5,320.5C 253.893,320.509 257.893,321.176 261.5,322.5 Z"/></g>
<g><path style="opacity:1" fill="#a70504" d="M 258.5,325.5 C 257.766,326.708 257.433,328.041 257.5,329.5C 256.84,330.964 256.507,332.631 256.5,334.5C 257.887,339.537 258.554,344.704 258.5,350C 257.277,360.844 255.943,371.677 254.5,382.5C 253.766,383.708 253.433,385.041 253.5,386.5C 250.552,386.777 247.719,386.444 245,385.5C 243.464,381.654 242.631,377.654 242.5,373.5C 241.673,365.855 241.007,358.189 240.5,350.5C 240.779,344.034 241.779,337.7 243.5,331.5C 242.958,328.312 241.958,325.312 240.5,322.5C 246.5,322.5 252.5,322.5 258.5,322.5C 258.5,323.5 258.5,324.5 258.5,325.5 Z"/></g>
<g><path style="opacity:1" fill="#7b0c0e" d="M 257.5,329.5 C 260.833,347.518 259.833,365.185 254.5,382.5C 255.943,371.677 257.277,360.844 258.5,350C 258.554,344.704 257.887,339.537 256.5,334.5C 256.507,332.631 256.84,330.964 257.5,329.5 Z"/></g>
</svg>
